<svg xmlns="http://www.w3.org/2000/svg" width="314.327" height="43.184" viewBox="0 0 314.327 43.184"><g transform="translate(-28.113 -269.517)"><g transform="translate(66.901 272.262)"><g transform="translate(0 0)"><path d="M124.764,303.993h-15.1L106.041,314.7h-6.4l14.3-39.616h6.644l14.3,39.616h-6.506Zm-13.535-4.942H123.2l-5.9-17.378h-.165Z" transform="translate(-99.644 -274.811)" fill="#1a1818"/><path d="M170.472,277.983a3.446,3.446,0,1,1,3.431,3.377A3.409,3.409,0,0,1,170.472,277.983Zm.467,7.6h5.93v28.881h-5.93Z" transform="translate(-132.066 -274.579)" fill="#1a1818"/><path d="M194.5,294.487h5.655V299.4h.137a6.959,6.959,0,0,1,6.946-5.381,10.761,10.761,0,0,1,2.031.22v5.518a8.474,8.474,0,0,0-2.663-.33c-3.816,0-6.177,2.553-6.177,6.644v17.3H194.5Z" transform="translate(-143.063 -283.478)" fill="#1a1818"/><path d="M245.729,275.085c7.687,0,13.04,5.3,13.04,13.013,0,7.742-5.463,13.068-13.232,13.068h-8.511V314.7h-6.15V275.085ZM237.026,296h7.056c5.354,0,8.4-2.882,8.4-7.879s-3.047-7.852-8.373-7.852h-7.083Z" transform="translate(-159.715 -274.811)" fill="#1a1818"/><path d="M285.543,308.881c0-9.28,5.464-14.962,13.7-14.962s13.7,5.683,13.7,14.962c0,9.307-5.436,14.989-13.7,14.989S285.543,318.188,285.543,308.881Zm21.359,0c0-6.4-3.02-10.075-7.659-10.075s-7.66,3.679-7.66,10.075c0,6.424,3.02,10.1,7.66,10.1C303.91,318.984,306.9,315.305,306.9,308.881Z" transform="translate(-184.739 -283.432)" fill="#1a1818"/><path d="M342.36,300.26c0-9.115,4.832-14.908,12.08-14.908a9.844,9.844,0,0,1,9.059,5.271h.11V275.085h5.957V314.7H363.8v-4.914h-.11a10,10,0,0,1-9.2,5.408C347.192,315.195,342.36,309.374,342.36,300.26Zm6.067,0c0,6.094,2.937,9.911,7.632,9.911,4.557,0,7.6-3.871,7.6-9.911,0-5.985-3.047-9.911-7.6-9.911C351.365,290.349,348.427,294.193,348.427,300.26Z" transform="translate(-210.747 -274.811)" fill="#1a1818"/><path d="M411.006,293.919c6.726,0,11.091,3.734,11.284,9.06h-5.574c-.329-2.8-2.388-4.557-5.71-4.557-3.212,0-5.354,1.564-5.354,3.871,0,1.812,1.318,3.047,4.448,3.761l4.694,1.07c5.9,1.373,8.154,3.679,8.154,7.852,0,5.271-4.914,8.9-11.722,8.9-7.22,0-11.558-3.541-12.107-9.032h5.875c.549,3.02,2.608,4.5,6.232,4.5,3.569,0,5.765-1.483,5.765-3.843,0-1.867-1.07-2.966-4.228-3.679l-4.694-1.1c-5.491-1.263-8.209-3.9-8.209-8.1C399.859,297.46,404.362,293.919,411.006,293.919Z" transform="translate(-236.728 -283.432)" fill="#1a1818"/><path d="M483.937,275.085c7.686,0,13.039,5.3,13.039,13.013,0,7.742-5.463,13.068-13.232,13.068h-8.511V314.7h-6.15V275.085ZM475.234,296h7.056c5.354,0,8.4-2.882,8.4-7.879s-3.047-7.852-8.373-7.852h-7.083Z" transform="translate(-268.755 -274.811)" fill="#1a1818"/><path d="M527.893,294.487h5.655V299.4h.137a6.959,6.959,0,0,1,6.946-5.381,10.761,10.761,0,0,1,2.031.22v5.518a8.474,8.474,0,0,0-2.663-.33c-3.816,0-6.177,2.553-6.177,6.644v17.3h-5.93Z" transform="translate(-295.675 -283.478)" fill="#1a1818"/><path d="M557.259,308.881c0-9.28,5.463-14.962,13.7-14.962s13.7,5.683,13.7,14.962c0,9.307-5.435,14.989-13.7,14.989S557.259,318.188,557.259,308.881Zm21.358,0c0-6.4-3.02-10.075-7.659-10.075s-7.66,3.679-7.66,10.075c0,6.424,3.02,10.1,7.66,10.1C575.625,318.984,578.617,315.305,578.617,308.881Z" transform="translate(-309.117 -283.432)" fill="#1a1818"/></g></g><g transform="translate(28.113 269.517)"><path d="M66.538,276.4a9.659,9.659,0,0,0,2.222-6.885,9.577,9.577,0,0,0-6.349,3.286,9.043,9.043,0,0,0-2.277,6.619,7.993,7.993,0,0,0,6.4-3.019" transform="translate(-42.747 -269.517)" fill="#1a1818"/><path d="M54.1,288.648c-3.537-.21-6.543,2.007-8.232,2.007s-4.276-1.9-7.074-1.85a10.429,10.429,0,0,0-8.866,5.386c-3.8,6.55-1,16.265,2.692,21.6,1.795,2.639,3.957,5.545,6.807,5.44,2.692-.105,3.748-1.743,7.021-1.743s4.221,1.743,7.071,1.691c2.956-.053,4.8-2.64,6.6-5.282a23.433,23.433,0,0,0,2.954-6.073,9.593,9.593,0,0,1-5.752-8.715,9.773,9.773,0,0,1,4.644-8.186,10.112,10.112,0,0,0-7.865-4.276" transform="translate(-28.113 -278.268)" fill="#1a1818"/></g></g></svg>