<svg xmlns="http://www.w3.org/2000/svg" width="238.088" height="70.819" viewBox="0 0 238.088 70.819"><g transform="translate(-259.609 -260.95)"><g transform="translate(259.609 260.95)"><path d="M302.217,272.3a15.924,15.924,0,0,0,3.663-11.35,15.786,15.786,0,0,0-10.466,5.417c-2.268,2.618-4.276,6.892-3.753,10.908,4.014.349,8.024-2.006,10.555-4.975" transform="translate(-263.006 -260.95)" fill="#1a1818"/><path d="M302.438,280.091c-5.83-.348-10.786,3.308-13.57,3.308s-7.048-3.133-11.658-3.049a17.188,17.188,0,0,0-14.614,8.877c-6.263,10.8-1.653,26.808,4.438,35.6,2.957,4.35,6.522,9.139,11.219,8.968,4.438-.174,6.178-2.874,11.572-2.874s6.958,2.874,11.655,2.787c4.872-.087,7.918-4.352,10.875-8.706a38.641,38.641,0,0,0,4.87-10.009c-.088-.087-9.394-3.657-9.481-14.363-.088-8.963,7.307-13.227,7.655-13.492-4.176-6.176-10.7-6.873-12.962-7.047" transform="translate(-259.609 -262.982)" fill="#1a1818"/></g><g transform="translate(335.274 265.748)"><path d="M344.27,271.884a5.679,5.679,0,1,1,5.656,5.611A5.61,5.61,0,0,1,344.27,271.884Zm.769,12.535h9.819v47.374h-9.819Z" transform="translate(-344.27 -266.319)" fill="#1a1818"/><path d="M393.158,266.521c12.67,0,21.493,8.733,21.493,21.448,0,12.76-9,21.539-21.81,21.539H378.814v22.307H368.678V266.521ZM378.814,301h11.629c8.824,0,13.846-4.75,13.846-12.986s-5.022-12.941-13.8-12.941H378.814Z" transform="translate(-346.864 -266.34)" fill="#1a1818"/><path d="M422.93,320.347c0-8.372,6.38-13.167,18.145-13.891l12.624-.77v-3.62c0-5.294-3.485-8.19-9.683-8.19-5.114,0-8.824,2.624-9.592,6.651h-9.141c.273-8.462,8.236-14.614,19.005-14.614,11.584,0,19.14,6.063,19.14,15.474v32.488h-9.367v-7.827h-.226c-2.67,5.113-8.552,8.325-14.933,8.325C429.491,334.373,422.93,328.762,422.93,320.347Zm30.769-4.209v-3.665l-11.267.724c-6.334.407-9.637,2.76-9.637,6.878,0,3.982,3.439,6.562,8.823,6.562C448.5,326.637,453.7,322.246,453.7,316.138Z" transform="translate(-352.629 -268.401)" fill="#1a1818"/><path d="M475.985,308.1c0-14.615,8.054-24.163,19.864-24.163,6.788,0,12.172,3.167,14.841,8.371h.181V266.521h9.819v65.294h-9.5V323.76h-.181c-2.761,5.386-8.19,8.552-15.113,8.552C484.039,332.312,475.985,322.766,475.985,308.1Zm10.046,0c0,9.728,4.932,15.928,12.488,15.928,7.466,0,12.4-6.335,12.4-15.883s-4.932-15.927-12.4-15.927C490.962,292.223,486.031,298.467,486.031,308.1Z" transform="translate(-358.267 -266.34)" fill="#1a1818"/></g></g></svg>