<svg xmlns="http://www.w3.org/2000/svg" width="291.346" height="36.071" viewBox="0 0 291.346 36.071"><g transform="translate(-76.012 -254.164)"><g transform="translate(114.939 256.507)"><path d="M195.173,292.77h-4.725V268.3h-.162l-10.025,24.222h-3.826L166.388,268.3h-.162V292.77h-4.7V259.514h5.969l10.763,26.25h.184l10.74-26.25h5.992Z" transform="translate(-161.525 -259.422)" fill="#161514"/><path d="M242.84,296.444c0-4.264,3.25-6.707,9.242-7.075l6.43-.392v-1.844c0-2.7-1.774-4.172-4.932-4.172-2.6,0-4.494,1.337-4.886,3.388h-4.655c.138-4.31,4.194-7.444,9.68-7.444,5.9,0,9.749,3.088,9.749,7.882v16.547H258.7v-3.987h-.115a8.5,8.5,0,0,1-7.606,4.24C246.182,303.588,242.84,300.731,242.84,296.444Zm15.672-2.144v-1.867l-5.738.369c-3.227.208-4.909,1.406-4.909,3.5,0,2.028,1.752,3.342,4.494,3.342C255.861,299.647,258.512,297.412,258.512,294.3Z" transform="translate(-205.824 -269.986)" fill="#161514"/><path d="M312.973,287.524c-.438-2.558-2.42-4.471-5.67-4.471-3.8,0-6.338,3.2-6.338,8.2,0,5.163,2.558,8.228,6.361,8.228,3.066,0,5.094-1.521,5.67-4.333h4.771c-.53,5.117-4.609,8.481-10.464,8.481-6.891,0-11.408-4.7-11.408-12.376,0-7.49,4.517-12.353,11.362-12.353,6.2,0,10.048,3.895,10.463,8.619Z" transform="translate(-234.728 -269.986)" fill="#161514"/><path d="M352.6,292.77V259.514h13.321c5.877,0,9.749,3.273,9.749,8.3a7.443,7.443,0,0,1-5.992,7.237v.184c4.518.507,7.582,3.71,7.582,8.136,0,5.854-4.286,9.4-11.362,9.4Zm5.163-19.105H363.5c4.472,0,7.03-1.844,7.03-5.14,0-3.089-2.12-4.794-5.877-4.794h-6.891Zm7.1,14.888c4.633,0,7.1-1.913,7.1-5.509s-2.536-5.439-7.421-5.439h-6.776v10.947Z" transform="translate(-265.617 -259.422)" fill="#161514"/><path d="M412.646,291.258c0-7.583,4.495-12.353,11.477-12.353s11.454,4.771,11.454,12.353c0,7.628-4.425,12.376-11.454,12.376C417.118,303.634,412.646,298.887,412.646,291.258Zm17.862,0c0-5.186-2.4-8.251-6.385-8.251-4.01,0-6.407,3.065-6.407,8.251,0,5.231,2.4,8.274,6.407,8.274S430.508,296.489,430.508,291.258Z" transform="translate(-298.333 -269.986)" fill="#161514"/><path d="M469.521,291.258c0-7.583,4.495-12.353,11.477-12.353s11.454,4.771,11.454,12.353c0,7.628-4.425,12.376-11.454,12.376C473.993,303.634,469.521,298.887,469.521,291.258Zm17.862,0c0-5.186-2.4-8.251-6.385-8.251-4.01,0-6.407,3.065-6.407,8.251,0,5.231,2.4,8.274,6.407,8.274S487.383,296.489,487.383,291.258Z" transform="translate(-329.317 -269.986)" fill="#161514"/><path d="M542.191,268.641h5.831l-9.979,10.417,10.371,13.713h-5.784l-8.182-10.693-2.029,2.028v8.665h-5V259.514h5v19.474h.023Z" transform="translate(-360.859 -259.422)" fill="#161514"/><path d="M616.631,283.782H603.955l-3.042,8.988h-5.37l12.008-33.256h5.577l12.007,33.256h-5.463Zm-11.363-4.148h10.048l-4.955-14.589h-.139Z" transform="translate(-397.972 -259.422)" fill="#161514"/><path d="M666.322,262.147A2.892,2.892,0,1,1,669.2,265,2.857,2.857,0,0,1,666.322,262.147Zm.391,6.384h5v24.13h-5Z" transform="translate(-436.532 -259.312)" fill="#161514"/><path d="M688.844,279.26h4.771v4.1h.092a5.778,5.778,0,0,1,5.808-4.356,7.664,7.664,0,0,1,1.706.184v4.633a7.337,7.337,0,0,0-2.236-.277c-3.18,0-5.162,2.143-5.162,5.555v14.289h-4.979Z" transform="translate(-448.802 -270.041)" fill="#161514"/></g><g transform="translate(76.012 254.164)"><path d="M113.4,259.945a8.109,8.109,0,0,0,1.866-5.781,8.042,8.042,0,0,0-5.331,2.759,7.591,7.591,0,0,0-1.911,5.556,6.707,6.707,0,0,0,5.376-2.534" transform="translate(-93.429 -254.164)" fill="#161514"/><path d="M97.826,273.294c-2.969-.177-5.494,1.685-6.911,1.685s-3.589-1.6-5.938-1.553a8.756,8.756,0,0,0-7.444,4.522c-3.19,5.5-.842,13.655,2.261,18.133,1.506,2.216,3.322,4.655,5.714,4.567,2.261-.089,3.146-1.464,5.894-1.464s3.544,1.464,5.936,1.419c2.481-.045,4.033-2.217,5.539-4.434a19.682,19.682,0,0,0,2.48-5.1,8.051,8.051,0,0,1-4.829-7.315,8.209,8.209,0,0,1,3.9-6.872,8.488,8.488,0,0,0-6.6-3.589" transform="translate(-76.012 -264.579)" fill="#161514"/></g></g></svg>