<svg xmlns="http://www.w3.org/2000/svg" width="251.186" height="93.998" viewBox="0 0 251.186 93.998"><g transform="translate(-324.809 -233.876)"><g transform="translate(324.809 233.876)"><path d="M439.1,281.91h-.131l-7-28.065h-8.316l-7,28.065h-.131l-6.47-28.065h-8.711L412.3,293.2h8.186l7.26-26.947h.131L435.14,293.2h8.251l10.957-39.359h-8.713Zm153.333-28.065v15.781H576.393V253.845h-8.186V293.2h8.186V276.431h16.039V293.2h8.254V253.845Zm-101.646,6.666h11.747V293.2h8.117V260.511H522.4v-6.666H490.786Zm-22.577,16.711,4.487-15.655h.134l4.419,15.655Zm-.066-23.377L455.47,293.2h8.182l2.84-9.9h12.474l2.773,9.9h8.713l-12.608-39.359Zm75.84-.466c-10.426,0-16.567,6.735-16.567,17.962v4.425c0,11.361,6.141,17.9,16.5,17.9,10.429,0,15.644-6.342,15.644-13.473v-.728h-7.854c0,4.094-1.982,7.266-7.657,7.266-5.612,0-8.381-3.5-8.381-10.966v-4.425c0-7.393,2.769-11.094,8.381-11.094,5.215,0,7.657,3.437,7.657,7.329h7.854v-.394c0-7.661-5.874-13.8-15.579-13.8" transform="translate(-349.499 -240.168)" fill="#121210"/><path d="M364.86,242.482a12.075,12.075,0,0,0,2.777-8.606,11.973,11.973,0,0,0-7.936,4.107,11.3,11.3,0,0,0-2.845,8.272c3.044.264,6.084-1.521,8-3.772" transform="translate(-335.127 -233.876)" fill="#121210"/><path d="M357.284,253.02c-4.42-.263-8.178,2.509-10.289,2.509s-5.345-2.376-8.841-2.312a13.033,13.033,0,0,0-11.081,6.731c-4.749,8.186-1.253,20.329,3.365,27,2.243,3.3,4.946,6.93,8.507,6.8,3.365-.132,4.684-2.178,8.775-2.178s5.276,2.178,8.838,2.113c3.694-.066,6-3.3,8.247-6.6a29.309,29.309,0,0,0,3.692-7.59,11.987,11.987,0,0,1-7.189-10.891c-.066-6.8,5.541-10.03,5.8-10.231a12.638,12.638,0,0,0-9.829-5.344" transform="translate(-324.809 -240.046)" fill="#121210"/></g><g transform="translate(393.302 309.296)"><path d="M428.992,358.451c.131,1.489,1.438,2.768,3.907,2.768,2.26,0,3.567-1.045,3.567-2.664,0-1.32-.914-2.013-2.8-2.47l-2.861-.692c-2.352-.536-4.43-1.92-4.43-4.847,0-3.437,2.992-5.331,6.52-5.331,3.593,0,6.428,1.96,6.48,5.239h-3c-.118-1.45-1.255-2.678-3.5-2.678-1.986,0-3.319.94-3.319,2.521,0,1.137.823,1.933,2.456,2.312l2.874.693c2.666.614,4.743,1.881,4.743,4.978,0,3.5-2.822,5.513-6.951,5.513-5.03,0-6.7-2.913-6.755-5.343Z" transform="translate(-425.922 -345.215)" fill="#121210"/><path d="M467.105,363.628H455.843V345.794h11.262v2.639h-8.113v4.9h7.629v2.5h-7.629v5.16h8.113Z" transform="translate(-435.575 -345.402)" fill="#121210"/><path d="M495.765,351.333a5.158,5.158,0,0,1-3.266,5l3.606,7.29H492.55l-3.174-6.781h-3.5v6.781h-3.136V345.794h6.924C493.818,345.794,495.765,348.29,495.765,351.333Zm-6.611,3.058c2.13,0,3.345-1.045,3.345-2.966,0-2.051-1.345-3.084-3.279-3.084h-3.344v6.05Z" transform="translate(-444.252 -345.402)" fill="#121210"/><path d="M512.063,363.628V345.794h3.162v17.834Z" transform="translate(-453.712 -345.402)" fill="#121210"/><path d="M539.131,363.628H527.869V345.794h11.262v2.639h-8.114v4.9h7.63v2.5h-7.63v5.16h8.114Z" transform="translate(-458.811 -345.402)" fill="#121210"/><path d="M556.059,358.451c.131,1.489,1.437,2.768,3.907,2.768,2.26,0,3.566-1.045,3.566-2.664,0-1.32-.914-2.013-2.8-2.47l-2.861-.692c-2.353-.536-4.43-1.92-4.43-4.847,0-3.437,2.992-5.331,6.52-5.331,3.593,0,6.427,1.96,6.48,5.239h-3c-.118-1.45-1.255-2.678-3.5-2.678-1.986,0-3.318.94-3.318,2.521,0,1.137.823,1.933,2.456,2.312l2.876.693c2.664.614,4.742,1.881,4.742,4.978,0,3.5-2.822,5.513-6.951,5.513-5.03,0-6.7-2.913-6.755-5.343Z" transform="translate(-466.915 -345.215)" fill="#121210"/><path d="M594.228,358.918c.235,1.581,1.58,2.508,3.41,2.508a3.521,3.521,0,0,0,3.514-3.632,3.408,3.408,0,0,0-3.489-3.606,3.553,3.553,0,0,0-3.4,2.039H591.51l.889-10.452h10.556v2.586h-8.009l-.483,4.9h.091a4.921,4.921,0,0,1,3.842-1.528,5.76,5.76,0,0,1,5.879,5.931c0,3.815-2.874,6.31-6.741,6.31-3.933,0-6.115-2.325-6.246-5.056Z" transform="translate(-479.27 -345.396)" fill="#121210"/></g></g></svg>