<svg xmlns="http://www.w3.org/2000/svg" width="147.156" height="51.056" viewBox="0 0 147.156 51.056"><g transform="translate(-848 203.421)"><g transform="translate(634.619 -754.703)"><g transform="translate(268.88 564.519)"><path d="M372.249,599.224a9.341,9.341,0,0,0-9.471,9.471,9.546,9.546,0,0,0,9.762,9.689c4.173,0,7.838-2.685,8.855-5.879l-4.936-.835a4.59,4.59,0,0,1-3.883,1.96c-2.431,0-4.137-1.27-4.21-3.193h13.355v-1.379C381.721,603.542,377.765,599.224,372.249,599.224Zm-3.883,7.4c.073-1.379,1.851-2.649,3.883-2.649,2.1,0,3.7,1.234,3.846,2.649Z" transform="translate(-362.778 -594.651)" fill="#fff"/><path d="M423.931,605.516l-3.738-4.924H413.77v.29l6.75,8.746-6.169,8.818v.29h6.314l3.266-4.658,3.266,4.658h6.351v-.363l-6.1-8.746,6.714-8.746v-.29h-6.5Z" transform="translate(-394.827 -595.511)" fill="#fff"/><path d="M477.124,586.915H476l-7.331,9.508v.508h2.794v2.649c0,7.076,5.443,10.814,11.613,10.814v-5.552c-3.157-.036-6.024-1.6-6.024-5.262v-2.649h6.024V592h-5.952Z" transform="translate(-429.332 -586.915)" fill="#fff"/><path d="M523.455,603.472h-.036v-3.556l-5.516-.036v18.181h5.516v-5.008A8.151,8.151,0,0,1,531.8,604.6l-1.742-5.08C528.064,599.517,524.689,600.86,523.455,603.472Z" transform="translate(-460.276 -594.836)" fill="#fff"/><path d="M571.423,599.559V601.3a7.718,7.718,0,0,0-5.581-2.217c-4.6,0-8.571,4.195-8.571,9.556,0,5.4,3.976,9.666,8.571,9.666a7.559,7.559,0,0,0,5.581-2.35V617.8h5.252V599.559Zm-4.158,13.714a4.614,4.614,0,0,1,0-9.228c2.517,0,4.158,2.042,4.158,4.6C571.423,611.231,569.782,613.273,567.265,613.273Z" transform="translate(-485.019 -594.564)" fill="#fff"/></g><g transform="translate(213.381 551.282)"><path d="M310.649,616.693l-6.172,4.484,6.678,20.554,6.172-4.484Z" transform="translate(-270.636 -592.393)" fill="#0af"/><path d="M256.054,651.422l-11.313,8.219-6.172-4.484,17.484-12.7,17.484,12.7-6.172,4.484Z" transform="translate(-229.212 -608.584)" fill="#7a1dff"/><path d="M219.727,594.568" transform="translate(-217.369 -578.488)" fill="none" stroke="#0af" stroke-miterlimit="10" stroke-width="0.75"/><path d="M215.738,594.568l17.484,12.7-6.678,20.554-6.172-4.484,4.321-13.3-11.313-8.219Z" transform="translate(-213.381 -578.488)" fill="#f72163"/><path d="M351.543,594.568" transform="translate(-300.217 -578.488)" fill="none" stroke="#0af" stroke-miterlimit="10" stroke-width="0.75"/><path d="M232.154,564.58l4.321-13.3H244.1l-6.679,20.554H215.814l2.358-7.255Z" transform="translate(-214.91 -551.282)" fill="#fd5601"/><path d="M291.252,564.58l-4.321-13.3H279.3l6.679,20.554h21.612l-2.358-7.255Z" transform="translate(-254.813 -551.282)" fill="#ffc208"/><path d="M290.833,594.334l-2.357-7.255L264.9,604.211l-9.9-7.193-2.357,7.255,12.258,8.906Z" transform="translate(-238.054 -573.781)" fill="#9de411"/></g></g></g></svg>