<svg xmlns="http://www.w3.org/2000/svg" xmlns:xlink="http://www.w3.org/1999/xlink" width="333" height="110" viewBox="0 0 333 110"><defs><style>.a{fill:#f72163;}.b,.c{fill:#fff;}.b{font-size:24px;font-family:MarkGEOCAPS-SemiBold, Mark GEO CAPS SemiBold;font-weight:600;}.d{filter:url(#a);}</style><filter id="a" x="0" y="0" width="333" height="110" filterUnits="userSpaceOnUse"><feOffset dy="10" input="SourceAlpha"/><feGaussianBlur stdDeviation="5" result="b"/><feFlood flood-opacity="0.161"/><feComposite operator="in" in2="b"/><feComposite in="SourceGraphic"/></filter></defs><g transform="translate(-85 -420)"><g class="d" transform="matrix(1, 0, 0, 1, 85, 420)"><rect class="a" width="303" height="80" rx="1" transform="translate(15 5)"/></g><g transform="translate(18)"><text class="b" transform="translate(204 474)"><tspan x="0" y="0">შეიძინე</tspan></text><g transform="translate(-1092.359 -696.491)"><path class="c" d="M1344.09,1223.094l-4.7,3.413,1.429,4.4,5.913,4.3,1.043-.758Z" transform="translate(-68.876 -57.809)"/><path class="c" d="M1291.127,1247.223l-8.611,6.256-1.043-.758,2.259-6.952,3.741-2.718,3.654,2.655,3.654-2.655,9.655,7.015-4.7,3.413Z" transform="translate(-27.335 -72.124)"/><path class="c" d="M1243.758,1200.969h7.309l3.742,2.719-1.4,4.3,3.654,2.655-3.688,11.35-4.7-3.413,3.289-10.123-8.611-6.256Z" transform="translate(0 -41.942)"/><path class="c" d="M1258.231,1152.615l3.29-10.123h1.289l2.259,6.953-2.825,8.693h-16.451l1.795-5.523Z" transform="translate(-1.745)"/><path class="c" d="M1249.7,1185.778" transform="translate(-4.551 -31.046)"/><path class="c" d="M1318.377,1152.615l-3.289-10.123h-5.807l5.084,15.646h5.539l7.6-5.523Z" transform="translate(-47.28)"/><path class="c" d="M1311.69,1183.812l-1.794-5.523-17.949,13.041-7.537-5.476-1.794,5.523,9.331,6.779Z" transform="translate(-28.155 -25.675)"/></g></g></g></svg>