<svg xmlns="http://www.w3.org/2000/svg" width="198.753" height="51.25" viewBox="0 0 198.753 51.25"><defs><style>.a{fill:#0af;}.b{fill:#7a1dff;}.c{fill:none;stroke:#0af;stroke-miterlimit:10;stroke-width:0.75px;}.d{fill:#f72163;}.e{fill:#fd5601;}.f{fill:#ffc208;}.g{fill:#9de411;}.h{fill:#161e3f;}</style></defs><g transform="translate(0)"><g transform="translate(0)"><path class="a" d="M665.512,594.33l-6.2,4.5,6.7,20.632,6.2-4.5Z" transform="translate(-625.347 -569.938)"/><path class="b" d="M563.883,647.494l-11.356,8.25-6.2-4.5,17.551-12.751,17.551,12.751-6.2,4.5Z" transform="translate(-536.939 -604.494)"/><path class="c" d="M514.03,556.4" transform="translate(-511.664 -540.261)"/><path class="d" d="M505.518,556.4l17.551,12.751-6.7,20.632-6.2-4.5,4.338-13.349-11.356-8.25Z" transform="translate(-503.151 -540.261)"/><path class="c" d="M740,556.4" transform="translate(-688.479 -540.261)"/><path class="e" d="M523.725,495.547l4.338-13.349h7.658l-6.7,20.632H507.323l2.366-7.283Z" transform="translate(-506.415 -482.197)"/><path class="f" d="M628.155,495.547,623.817,482.2h-7.658l6.7,20.632h21.694l-2.367-7.283Z" transform="translate(-591.577 -482.197)"/><path class="g" d="M608.788,550.848l-2.367-7.283-23.67,17.2-9.939-7.221-2.366,7.283,12.3,8.94Z" transform="translate(-555.809 -530.216)"/></g><g transform="translate(55.71 13.288)"><path class="h" d="M768.768,564.383a9.377,9.377,0,0,0-9.508,9.508,9.583,9.583,0,0,0,9.8,9.726c4.189,0,7.868-2.7,8.888-5.9l-4.954-.838a4.609,4.609,0,0,1-3.9,1.967c-2.441,0-4.153-1.275-4.225-3.206h13.405v-1.384C778.275,568.718,774.3,564.383,768.768,564.383Zm-3.9,7.431c.073-1.384,1.858-2.659,3.9-2.659,2.113,0,3.716,1.239,3.861,2.659Z" transform="translate(-759.26 -559.793)"/><path class="h" d="M856.875,571.671l-3.752-4.943h-6.448v.291l6.775,8.779-6.193,8.852v.291H853.6l3.278-4.676,3.279,4.676h6.375v-.364l-6.12-8.779,6.739-8.779v-.291h-6.521Z" transform="translate(-827.66 -561.628)"/><path class="h" d="M949.277,543.283h-1.129l-7.358,9.544v.51h2.8V556c0,7.1,5.464,10.855,11.657,10.855v-5.573c-3.169-.037-6.047-1.6-6.047-5.282v-2.659h6.047v-4.954h-5.974Z" transform="translate(-901.302 -543.283)"/><path class="h" d="M1030.763,568.857h-.036v-3.57l-5.537-.036V583.5h5.537v-5.027a8.183,8.183,0,0,1,8.415-8.487l-1.749-5.1C1035.39,564.886,1032,566.234,1030.763,568.857Z" transform="translate(-967.343 -560.187)"/><path class="h" d="M1106.883,564.621v1.75a7.748,7.748,0,0,0-5.6-2.226c-4.613,0-8.6,4.211-8.6,9.593,0,5.419,3.991,9.7,8.6,9.7a7.589,7.589,0,0,0,5.6-2.358v1.846h5.272V564.621Zm-4.174,13.766a4.632,4.632,0,0,1,0-9.263c2.526,0,4.174,2.05,4.174,4.613C1106.883,576.337,1105.235,578.388,1102.709,578.388Z" transform="translate(-1020.15 -559.607)"/><rect class="h" width="5.785" height="5.821" transform="translate(94.678 17.499)"/><path class="h" d="M1243.723,564.621v1.752a7.745,7.745,0,0,0-5.6-2.229c-4.613,0-8.6,4.21-8.6,9.593,0,5.418,3.991,9.7,8.6,9.7a7.561,7.561,0,0,0,5.272-2.04v1.417c0,1.94-1.831,3.588-4.284,3.588a4.5,4.5,0,0,1-3.844-1.977l-5.053.915c1.025,3.222,4.723,5.931,8.933,5.931a9.631,9.631,0,0,0,9.849-9.775V564.621Zm-4.174,13.766a4.632,4.632,0,0,1,0-9.263c2.526,0,4.174,2.05,4.174,4.613C1243.723,576.337,1242.075,578.387,1239.549,578.387Z" transform="translate(-1127.224 -559.607)"/><path class="h" d="M1342.427,571.446c-.146-1.428-1.757-2.673-3.881-2.673-2.05,0-3.844,1.281-3.917,2.673Zm-7.8,3.844c.073,1.94,1.794,3.222,4.247,3.222a4.631,4.631,0,0,0,3.917-1.977l4.979.842c-1.025,3.222-4.723,5.931-8.933,5.931a9.631,9.631,0,0,1-9.849-9.775,9.425,9.425,0,0,1,9.556-9.556c5.565,0,9.556,4.357,9.556,9.922v1.391Z" transform="translate(-1205.059 -559.476)"/></g></g></svg>