<svg xmlns="http://www.w3.org/2000/svg" width="22.399" height="22.399" viewBox="0 0 22.399 22.399"><defs><style>.a{fill:#fff;}</style></defs><path class="a" d="M16.335,0H6.062A6.07,6.07,0,0,0,0,6.063V16.336A6.07,6.07,0,0,0,6.062,22.4H16.335A6.07,6.07,0,0,0,22.4,16.336V6.063A6.07,6.07,0,0,0,16.335,0Zm4.75,16.336a4.755,4.755,0,0,1-4.75,4.75H6.062a4.755,4.755,0,0,1-4.75-4.75V6.063a4.755,4.755,0,0,1,4.75-4.75H16.335a4.755,4.755,0,0,1,4.75,4.75Zm0,0" transform="translate(0.001 0)"/><path class="a" d="M122.128,116a6.124,6.124,0,1,0,6.124,6.124A6.131,6.131,0,0,0,122.128,116Zm0,10.936a4.811,4.811,0,1,1,4.811-4.811A4.817,4.817,0,0,1,122.128,126.94Zm0,0" transform="translate(-110.929 -110.929)"/><path class="a" d="M359.787,66.285a1.81,1.81,0,1,0,1.81,1.81A1.812,1.812,0,0,0,359.787,66.285Zm0,2.306a.5.5,0,1,1,.5-.5A.5.5,0,0,1,359.787,68.591Zm0,0" transform="translate(-342.316 -63.385)"/></svg>