<svg xmlns="http://www.w3.org/2000/svg" xmlns:xlink="http://www.w3.org/1999/xlink" width="982" height="853" viewBox="0 0 982 853"><defs><radialGradient id="a" cx="0.5" cy="0.5" r="0.5" gradientTransform="translate(1 1) rotate(180)" gradientUnits="objectBoundingBox"><stop offset="0" stop-color="#7a1dff"/><stop offset="1" stop-color="#3d0f80" stop-opacity="0"/></radialGradient><radialGradient id="b" cx="0.5" cy="0.5" r="0.5" gradientTransform="translate(1 1) rotate(180)" gradientUnits="objectBoundingBox"><stop offset="0" stop-color="#f72163"/><stop offset="1" stop-color="#3d0f80" stop-opacity="0"/></radialGradient></defs><g transform="translate(-135 -930)"><path d="M15,0H832a0,0,0,0,1,0,0V558a0,0,0,0,1,0,0H15A15,15,0,0,1,0,543V15A15,15,0,0,1,15,0Z" transform="translate(135 1080)" fill="#f9f9fb"/><g transform="translate(-12)"><circle cx="224" cy="224" r="224" transform="translate(394 1080)" opacity="0.4" fill="url(#a)"/><circle cx="193" cy="193" r="193" transform="translate(593 1247)" opacity="0.4" fill="url(#b)"/><ellipse cx="95" cy="95.5" rx="95" ry="95.5" transform="translate(612 1113)" fill="#9de411" opacity="0.25"/></g></g></svg>