<svg xmlns="http://www.w3.org/2000/svg" width="75.188" height="75.188" viewBox="0 0 75.188 75.188"><defs><style>.a{fill:#7a24fb;}</style></defs><path class="a" d="M22.091,26.631V7.542l5.065,5.065a2.209,2.209,0,1,0,3.124-3.124L21.444.647a2.209,2.209,0,0,0-3.124,0L9.484,9.483a2.209,2.209,0,0,0,3.124,3.124l5.065-5.065v19.09a19.96,19.96,0,0,0,2.209,39.788,19.952,19.952,0,0,0,2.209-39.79ZM19.882,62A15.538,15.538,0,1,1,35.493,46.391,15.556,15.556,0,0,1,19.882,62Z" transform="translate(46.966) rotate(45)"/></svg>