<svg xmlns="http://www.w3.org/2000/svg" width="36" height="32" viewBox="0 0 36 32"><defs><style>.a{fill:#fff;}.b{fill:#ff4d0f;}</style></defs><g transform="translate(-1254 -3456)"><g transform="translate(1254 3456)"><path class="a" d="M89.553,52.844H75.148A8.582,8.582,0,0,0,66.664,61.5V76.185a8.584,8.584,0,0,0,8.484,8.659H89.553a8.584,8.584,0,0,0,8.486-8.659V61.5a8.581,8.581,0,0,0-8.486-8.655ZM95.272,61.5Z" transform="translate(-64.922 -52.844)"/><path class="b" d="M92.085,75.531a3.2,3.2,0,0,0,1.022.152c1.542,0,2.265-.618,2.265-1.356,0-.862-1.156-.859-1.275-1.617-.149-.948-.053-5.144,1.556-7.464l1.075.491a1.382,1.382,0,0,0,.675.16,1.053,1.053,0,0,0,.729-.38,23.508,23.508,0,0,0,2.815-3.923c.133-.276-2.132-3.138-3.4-4.178a5.014,5.014,0,0,0-3.169-1.123,5.092,5.092,0,0,0-4.8,3.436,24.076,24.076,0,0,1-7.2,3.453c-3.469.926-7.065.061-9.507.186a4.947,4.947,0,0,0-4.935,5.183c.075,2.739,1.939,5.23,1.939,7.8a2.8,2.8,0,0,1-2.737,2.9c-1.336,0-1.424-.551-1.83-.551a.363.363,0,0,0-.356.358c0,.682,1.652,1.329,2.59,1.329a4.126,4.126,0,0,0,3.545-1.806,3.122,3.122,0,0,0,3.1,1.871c1.968,0,2.82-.951,2.82-1.748,0-.645-.387-.919-.665-1.3a2.158,2.158,0,0,1-.377-1.194,7.346,7.346,0,0,0,1.07.07c1.429,0,1.871-.586,1.871-1.163,0-.741-.86-.689-.86-1.908,0-.922.507-1.226.952-1.226.481,0,2.3.178,4.516.406.738.075,2.579.8,2.579,3.687v1.039c0,1.762.7,3.943,3.782,3.943,2.091,0,3.265-1.181,3.265-2.035,0-.557-.482-.8-.719-1.136a3.219,3.219,0,0,1-.354-2.36Z" transform="translate(-64.953 -52.782)"/></g><path class="a" d="M97.481,62.923a.375.375,0,1,0,.372.374.374.374,0,0,0-.372-.374Z" transform="translate(1188.62 3403.175)"/><path class="a" d="M98.758,61.847a.339.339,0,1,0,.338.339.338.338,0,0,0-.338-.339Z" transform="translate(1188.644 3403.174)"/><path class="a" d="M99.355,60.609a.28.28,0,1,0,.281.28.281.281,0,0,0-.281-.28Z" transform="translate(1188.656 3403.172)"/><path class="a" d="M88.853,62.368a.405.405,0,1,0-.4-.405.4.4,0,0,0,.4.405Z" transform="translate(1188.805 3403.172)"/><path class="a" d="M90.378,71.983a.4.4,0,1,0,.4.405.4.4,0,0,0-.4-.405Z" transform="translate(1188.79 3403.192)"/><path class="a" d="M92.738,72.381a.4.4,0,1,0,.4.4.4.4,0,0,0-.4-.4Z" transform="translate(1188.765 3403.193)"/><path class="a" d="M90.706,68.362a.406.406,0,1,0,.4.406.406.406,0,0,0-.4-.406Z" transform="translate(1188.786 3403.185)"/><path class="a" d="M92.056,65.683a.4.4,0,1,0-.4-.405.4.4,0,0,0,.4.405Z" transform="translate(1188.772 3403.179)"/><path class="a" d="M85.874,64.075a.4.4,0,1,0-.4-.4.4.4,0,0,0,.4.4Z" transform="translate(1188.836 3403.176)"/><path class="a" d="M88.092,71.167a.4.4,0,1,0,.4.4.4.4,0,0,0-.4-.4Z" transform="translate(1188.813 3403.19)"/><path class="a" d="M87,66.035a.405.405,0,1,0-.406-.406.4.4,0,0,0,.406.406Z" transform="translate(1188.824 3403.179)"/><path class="a" d="M84.494,68.285a.4.4,0,1,0,.4.405.4.4,0,0,0-.4-.405Z" transform="translate(1188.85 3403.185)"/><path class="a" d="M88.592,67.873a.4.4,0,1,0-.4-.4.4.4,0,0,0,.4.4Z" transform="translate(1188.808 3403.183)"/><path class="a" d="M82.33,64.294a.406.406,0,1,0,.4.406.407.407,0,0,0-.4-.406Z" transform="translate(1188.872 3403.177)"/><path class="a" d="M83.192,66.36a.4.4,0,1,0,.4.405.4.4,0,0,0-.4-.405Z" transform="translate(1188.863 3403.181)"/><path class="a" d="M86.1,69.827a.407.407,0,1,0,.405.407.405.405,0,0,0-.405-.407Z" transform="translate(1188.833 3403.188)"/><path class="a" d="M90.171,64.214a.4.4,0,1,0-.4-.4.4.4,0,0,0,.4.4Z" transform="translate(1188.792 3403.176)"/><path class="a" d="M93.087,69.125a.405.405,0,1,0,.4.4.4.4,0,0,0-.4-.4Z" transform="translate(1188.762 3403.187)"/><path class="a" d="M94.081,65.879a.4.4,0,1,0,.4.4.406.406,0,0,0-.4-.4Z" transform="translate(1188.751 3403.181)"/><path class="a" d="M93.825,62.609a.406.406,0,1,0,.4.406.406.406,0,0,0-.4-.406Z" transform="translate(1188.754 3403.174)"/><path class="a" d="M95.708,63.221a.4.4,0,1,0,.4.4.4.4,0,0,0-.4-.4Z" transform="translate(1188.588 3403.175)"/><path class="a" d="M92.413,61.38a.4.4,0,1,0,.4.4.4.4,0,0,0-.4-.4Z" transform="translate(1188.769 3403.172)"/><path class="a" d="M91.632,59.881a.4.4,0,1,0,.4.4.4.4,0,0,0-.4-.4Z" transform="translate(1188.777 3403.169)"/><path class="a" d="M93.274,59.881a.4.4,0,1,0,.4.4.4.4,0,0,0-.4-.4Z" transform="translate(1188.76 3403.169)"/><path class="a" d="M91.392,58.8a.337.337,0,1,1,.336.34.338.338,0,0,1-.336-.34Z" transform="translate(1188.778 3403.256)"/><path class="a" d="M92.378,57.588a.252.252,0,1,1,.5,0,.252.252,0,1,1-.5,0Z" transform="translate(1188.771 3403.236)"/><path class="a" d="M93.656,57.017a.222.222,0,1,1,.221.223.219.219,0,0,1-.221-.223Z" transform="translate(1188.76 3403.227)"/><path class="a" d="M99.1,59.76a.2.2,0,1,1,.2.2.2.2,0,0,1-.2-.2Z" transform="translate(1188.656 3403.17)"/><path class="a" d="M98.818,63.737a.221.221,0,0,1,.213-.229.221.221,0,0,1,.019.442.227.227,0,0,1-.232-.213Z" transform="translate(1188.651 3403.178)"/><path class="a" d="M99.38,62.969a.22.22,0,1,1,.229.21.217.217,0,0,1-.229-.21Z" transform="translate(1188.661 3403.177)"/><path class="a" d="M98.224,64.5a.217.217,0,0,1,.211-.23.22.22,0,1,1-.211.23Z" transform="translate(1188.64 3403.18)"/><path class="a" d="M97.552,65.211a.22.22,0,0,1,.21-.231.221.221,0,1,1,.017.442.219.219,0,0,1-.227-.211Z" transform="translate(1188.628 3403.181)"/><path class="a" d="M99.894,62.206a.222.222,0,0,1,.211-.231.222.222,0,1,1-.211.231Z" transform="translate(1188.67 3403.175)"/><path class="a" d="M100.292,61.534a.218.218,0,0,1,.211-.229.222.222,0,0,1,.017.443.221.221,0,0,1-.228-.214Z" transform="translate(1188.677 3403.174)"/><path class="a" d="M75.576,78.478a6.586,6.586,0,0,1-.455-5.187c1.128-2.9,4.371-2.523,4.371-2.523a3.774,3.774,0,0,0-1.713-.336,4.277,4.277,0,0,0-3.9,4.606,4.6,4.6,0,0,0,1.7,3.44Z" transform="translate(1188.917 3403.106)"/><path class="a" d="M70.211,70.428a3.511,3.511,0,0,1-1.026-2.487,3.58,3.58,0,0,1,3.5-3.519c1.992-.108,5.652.492,7.984.184.805,3.613,4.382,7.126,7.188,8.724-3.332-1.487-6.522-4.874-9.311-6.428-2.912-1.619-5.832-1.862-7.367-.445a4.017,4.017,0,0,0-.972,3.97Z" transform="translate(1189.122 3403.115)"/><path class="a" d="M78.325,73.907c.179,1.044-1.694,1.373-1.694,1.373a2.26,2.26,0,0,0,2.339-.614Z" transform="translate(1188.912 3403.189)"/><path class="a" d="M91.663,74.456v-.013a5.577,5.577,0,0,0-.346,4.457,5.01,5.01,0,0,1-1.975,1s2.571.334,3.374-1.038c-1.552-1.207-1.088-4.207-1.054-4.41Z" transform="translate(1188.744 3403.137)"/><path class="a" d="M96.695,58.272a1.562,1.562,0,1,0,1.538,1.844,1.706,1.706,0,0,0-1.538-1.844Zm1.254,1.776a1.329,1.329,0,1,1-1.088-1.306,1.207,1.207,0,0,1,1.088,1.306Z" transform="translate(1188.575 3403.159)"/><path class="a" d="M96.57,59.769a.666.666,0,0,1,.817-.463.612.612,0,1,1-.217,1.185.665.665,0,0,1-.6-.722Z" transform="translate(1188.611 3403.167)"/><path class="a" d="M94.535,73.06h0c.616,1.146-1.356,1.57-1.356,1.57,1.37.233,2.156-.651,2.156-1.018-.293-1.241-.617-.3-.8-.552Z" transform="translate(1188.726 3403.185)"/><path class="a" d="M98.66,59.2a2.885,2.885,0,0,0-4.876-.231.47.47,0,1,1-.726-.6,3.411,3.411,0,0,1,2.534-1.132A3.343,3.343,0,0,1,98.66,59.2Z" transform="translate(1188.546 3403.234)"/><path class="a" d="M95.587,65.118a6.8,6.8,0,0,1-3.6-1.459,7.394,7.394,0,0,1-2.242-2.547.312.312,0,0,1,.111-.424.3.3,0,0,1,.423.112,8.319,8.319,0,0,0,2.129,2.731,7.224,7.224,0,0,0,3.177,1.587Z" transform="translate(1188.679 3403.154)"/><path class="a" d="M94.264,67.92a8.988,8.988,0,0,1-5.644-2.786,9.222,9.222,0,0,1-1.749-2.5.306.306,0,0,1,.119-.421.3.3,0,0,1,.421.122,10.544,10.544,0,0,0,2.078,3.118,8.3,8.3,0,0,0,4.774,2.465Z" transform="translate(1188.684 3403.146)"/><path class="a" d="M83.849,63.651a.314.314,0,0,1,.393.192,11.306,11.306,0,0,0,2.742,4.41,10.138,10.138,0,0,0,6.675,3,10.165,10.165,0,0,1-7.243-3.026,11.881,11.881,0,0,1-2.759-4.183.313.313,0,0,1,.192-.394Z" transform="translate(1188.675 3403.129)"/><path class="a" d="M94.6,61.314a3.447,3.447,0,0,0,1.791.558,2.189,2.189,0,0,0,2.319-1.8,2.491,2.491,0,0,1-2.537,2.252,3.422,3.422,0,0,1-1.852-.447.319.319,0,0,1-.139-.421.3.3,0,0,1,.419-.141Z" transform="translate(1188.568 3403.164)"/></g></svg>