<svg xmlns="http://www.w3.org/2000/svg" width="27" height="20.482" viewBox="0 0 27 20.482"><defs><style>.a{fill:#fff;}</style></defs><g transform="translate(0 -73.866)"><path class="a" d="M26.653,90.026h-.844V85.309a2.78,2.78,0,0,0-.476-1.552L23.22,80.626a2.779,2.779,0,0,0-2.3-1.222H17.641a.694.694,0,0,0-.694.694v9.928H11.58a2.852,2.852,0,0,1,.962,1.75H18.2a2.85,2.85,0,0,1,5.641,0h2.812A.348.348,0,0,0,27,91.429V90.374A.348.348,0,0,0,26.653,90.026ZM23.2,84.382H18.87a.346.346,0,0,1-.347-.347v-2.4a.348.348,0,0,1,.347-.347H21.5a.352.352,0,0,1,.285.146l1.691,2.4A.347.347,0,0,1,23.2,84.382Zm-2.173,5.645a2.161,2.161,0,1,0,2.159,2.163A2.16,2.16,0,0,0,21.022,90.026Zm0,3.242a1.08,1.08,0,1,1,1.08-1.08A1.081,1.081,0,0,1,21.022,93.269Zm-18-3.242a.348.348,0,0,0-.347.347v1.055a.348.348,0,0,0,.347.347H6.9a2.864,2.864,0,0,1,.958-1.75H3.019Zm6.7,0a2.161,2.161,0,1,0,2.159,2.163A2.162,2.162,0,0,0,9.719,90.026Zm0,3.242a1.08,1.08,0,1,1,1.08-1.08A1.081,1.081,0,0,1,9.719,93.269Zm5.193-16.017H10.889a5.828,5.828,0,0,1,.3,1.864,5.947,5.947,0,0,1-7.665,5.69v3.836a.348.348,0,0,0,.347.347H15.607a.348.348,0,0,0,.347-.347V78.293A1.04,1.04,0,0,0,14.912,77.252ZM5.249,73.866A5.249,5.249,0,1,0,10.5,79.115,5.249,5.249,0,0,0,5.249,73.866Zm0,9.3A4.054,4.054,0,1,1,9.3,79.115,4.054,4.054,0,0,1,5.249,83.169Zm1.548-3.2a.526.526,0,0,1-.136-.018L4.969,79.5a.521.521,0,0,1-.385-.5v-2.6a.521.521,0,0,1,1.041,0v2.2l1.306.352A.521.521,0,0,1,6.8,79.971Z" transform="translate(0 0)"/></g></svg>