<svg xmlns="http://www.w3.org/2000/svg" width="51.936" height="71.834" viewBox="0 0 51.936 71.834"><defs><style>.a{fill:none;stroke:#161e3f;stroke-linecap:round;stroke-linejoin:round;stroke-width:1.5px;}</style></defs><g transform="translate(-420.361 -3129.942)"><path class="a" d="M422.466,3175.654a57.065,57.065,0,0,1-1.165-16.7,55.4,55.4,0,0,0,.592-9.246c-.06-1.481-.1-3.4-.078-6.316a17.172,17.172,0,0,1,.756-5.1,8.26,8.26,0,0,1,2.987-4.53c2.157-1.5,3.7-.849,10.3-2.48.684-.169,1.247-.32,1.626-.425" transform="translate(0 0)"/><path class="a" d="M456.269,3235.863a66.664,66.664,0,0,1-16.6-1.947h-.01" transform="translate(-9.94 -55.238)"/><path class="a" d="M437.312,3244.029a41.381,41.381,0,0,1,11.139,7.233l6.562,6.6" transform="translate(-8.684 -60.659)"/><path class="a" d="M493.155,3244.029a41.38,41.38,0,0,0-11.139,7.233l-6.562,6.6v3.592" transform="translate(-29.129 -60.659)"/><path class="a" d="M441.556,3175.791c.057,2.8.048,7.179-.227,10.483" transform="translate(-10.837 -24.082)"/><g transform="translate(427.969 3156.021)"><path class="a" d="M440.9,3185.085a22.656,22.656,0,0,1,1.318,5.4,19.908,19.908,0,0,1-1.01,7.44c-.15.43-.373.989-1.15,3.122q-1.025,2.8-1.993,5.56s-.171.4-.419,1.134a31.224,31.224,0,0,0-.869,3.081,31.744,31.744,0,0,0,1.289,19.038" transform="translate(-435.892 -3185.085)"/><path class="a" d="M502.56,3185.292a20.934,20.934,0,0,0-1.2,5.3,19.887,19.887,0,0,0,1.01,7.44c.15.43.373.989,1.149,3.122q1.025,2.8,1.993,5.56s.171.4.419,1.134a31.057,31.057,0,0,1,.87,3.081,31.744,31.744,0,0,1-1.289,19.038" transform="translate(-470.966 -3185.196)"/></g><path class="a" d="M509.547,3175.654a57.067,57.067,0,0,0,1.165-16.7,55.361,55.361,0,0,1-.592-9.246c.06-1.481.1-3.4.078-6.316a17.156,17.156,0,0,0-.756-5.1,8.261,8.261,0,0,0-2.987-4.53c-2.157-1.5-3.7-.849-10.3-2.48-.685-.169-1.248-.32-1.626-.425" transform="translate(-39.355 0)"/><path class="a" d="M475.464,3235.863a66.663,66.663,0,0,0,16.6-1.947h.011" transform="translate(-29.135 -55.238)"/><path class="a" d="M509.076,3175.791c-.058,2.8-.047,7.179.228,10.483" transform="translate(-47.136 -24.082)"/><path class="a" d="M457.1,3158.646a17.318,17.318,0,0,0-10.319-2.47,16.119,16.119,0,0,0-4.489,1.067,14.085,14.085,0,0,0-.8,8,12.055,12.055,0,0,0,.913,2.594,5.414,5.414,0,0,0,3.664,2.872l.455.105a18.222,18.222,0,0,0,4.277.44,13.566,13.566,0,0,0,4.753-1.052,5.52,5.52,0,0,1,1.548-.471,5.37,5.37,0,0,1,1.543.471,13.634,13.634,0,0,0,4.758,1.052,18.218,18.218,0,0,0,4.276-.44l.457-.106a5.413,5.413,0,0,0,3.666-2.875,12.074,12.074,0,0,0,.91-2.59,14.041,14.041,0,0,0-.8-8,16.115,16.115,0,0,0-4.489-1.067A17.331,17.331,0,0,0,457.1,3158.646Z" transform="translate(-10.769 -13.533)"/></g></svg>