<svg xmlns="http://www.w3.org/2000/svg" width="166.758" height="43" viewBox="0 0 166.758 43"><defs><style>.a{fill:#fff;}.b{fill:#0af;}.c{fill:#7a1dff;}.d{fill:none;stroke:#0af;stroke-miterlimit:10;stroke-width:0.75px;}.e{fill:#f72163;}.f{fill:#fd5601;}.g{fill:#ffc208;}.h{fill:#9de411;}</style></defs><g transform="translate(-213.381 -551.282)"><g transform="translate(258.409 561.975)"><path class="a" d="M370.869,599.224a7.98,7.98,0,0,0-8.091,8.091,8.155,8.155,0,0,0,8.339,8.277c3.565,0,6.7-2.294,7.564-5.022l-4.216-.713a3.921,3.921,0,0,1-3.317,1.674c-2.077,0-3.534-1.085-3.6-2.728H378.96v-1.178A8.055,8.055,0,0,0,370.869,599.224Zm-3.317,6.324c.062-1.178,1.581-2.263,3.317-2.263,1.8,0,3.162,1.054,3.286,2.263Z" transform="translate(-362.778 -595.318)"/><path class="a" d="M422.45,604.8l-3.193-4.207H413.77v.248l5.766,7.471-5.27,7.533v.248h5.394l2.79-3.979,2.79,3.979h5.425v-.31l-5.208-7.471,5.735-7.471v-.248h-5.549Z" transform="translate(-397.588 -596.251)"/><path class="a" d="M475.892,586.915h-.961l-6.262,8.122v.434h2.387v2.263c0,6.045,4.65,9.238,9.92,9.238v-4.743c-2.7-.031-5.146-1.364-5.146-4.495v-2.263h5.146v-4.216h-5.084Z" transform="translate(-435.065 -586.915)"/><path class="a" d="M522.646,602.9h-.031v-3.038l-4.712-.031v15.531h4.712V611.08a6.963,6.963,0,0,1,7.161-7.223l-1.488-4.34A6.806,6.806,0,0,0,522.646,602.9Z" transform="translate(-468.675 -595.518)"/><path class="a" d="M569.36,599.49v1.489a6.593,6.593,0,0,0-4.767-1.894c-3.926,0-7.322,3.583-7.322,8.163,0,4.611,3.4,8.257,7.322,8.257a6.457,6.457,0,0,0,4.767-2.007v1.571h4.487V599.49Zm-3.552,11.715a3.942,3.942,0,0,1,0-7.883,3.628,3.628,0,0,1,3.552,3.926C569.36,609.461,567.958,611.205,565.808,611.205Z" transform="translate(-495.55 -595.223)"/><path class="a" d="M0,0H4.923V4.954H0Z" transform="translate(80.571 14.892)"/><path class="a" d="M649.183,599.49v1.492a6.591,6.591,0,0,0-4.767-1.9c-3.926,0-7.322,3.583-7.322,8.163,0,4.611,3.4,8.257,7.322,8.257a6.435,6.435,0,0,0,4.487-1.736v1.206c0,1.651-1.558,3.053-3.645,3.053a3.833,3.833,0,0,1-3.271-1.682l-4.3.779c.873,2.742,4.019,5.048,7.6,5.048a8.2,8.2,0,0,0,8.381-8.319V599.49Zm-3.552,11.715a3.942,3.942,0,0,1,0-7.883,3.628,3.628,0,0,1,3.552,3.926C649.183,609.461,647.781,611.205,645.631,611.205Z" transform="translate(-550.042 -595.223)"/><path class="a" d="M706.555,605.343c-.125-1.215-1.5-2.274-3.3-2.274-1.745,0-3.271,1.09-3.334,2.274Zm-6.637,3.271c.062,1.651,1.527,2.742,3.614,2.742a3.941,3.941,0,0,0,3.334-1.683l4.237.717c-.872,2.742-4.019,5.048-7.6,5.048a8.2,8.2,0,0,1-8.381-8.319,8.135,8.135,0,1,1,16.264.312v1.184Z" transform="translate(-589.654 -595.156)"/></g><g transform="translate(213.381 551.282)"><path class="b" d="M309.75,616.693l-5.272,3.83,5.705,17.558,5.272-3.83Z" transform="translate(-275.569 -596.549)"/><path class="c" d="M253.505,650.115l-9.664,7.021-5.272-3.83,14.936-10.851,14.936,10.851-5.272,3.83Z" transform="translate(-230.576 -614.135)"/><path class="d" d="M219.727,594.568" transform="translate(-217.713 -581.025)"/><path class="e" d="M215.395,594.568l14.936,10.851-5.705,17.558-5.272-3.83,3.691-11.36-9.664-7.021Z" transform="translate(-213.381 -581.446)"/><path class="d" d="M351.543,594.568" transform="translate(-307.698 -581.025)"/><path class="f" d="M229.772,562.642l3.691-11.36h6.517l-5.705,17.558H215.814l2.014-6.2Z" transform="translate(-215.042 -551.282)"/><path class="g" d="M289.51,562.642l-3.691-11.36H279.3l5.705,17.558h18.461l-2.014-6.2Z" transform="translate(-258.383 -551.282)"/><path class="h" d="M285.265,593.277l-2.014-6.2-20.143,14.635-8.458-6.145-2.014,6.2,10.472,7.608Z" transform="translate(-240.179 -576.046)"/></g></g></svg>