<svg xmlns="http://www.w3.org/2000/svg" width="40.043" height="40.04" viewBox="0 0 40.043 40.04"><defs><style>.a{fill:#fff;}</style></defs><g transform="translate(-1 -1.018)"><g transform="translate(1 1.018)"><g transform="translate(0 0)"><path class="a" d="M39.992,31.907l-8.1-5.4a2.366,2.366,0,0,0-3.168.514l-2.361,3.035a1.009,1.009,0,0,1-1.294.272l-.449-.248c-1.489-.811-3.341-1.822-7.073-5.555s-4.744-5.587-5.556-7.073L11.741,17a1.01,1.01,0,0,1,.267-1.3l3.033-2.36a2.367,2.367,0,0,0,.515-3.168l-5.4-8.1a2.353,2.353,0,0,0-3.172-.714L3.59,3.39A4.781,4.781,0,0,0,1.41,6.22c-1.22,4.447-.3,12.121,11,23.428C21.406,38.639,28.1,41.058,32.7,41.058a11.822,11.822,0,0,0,3.136-.41,4.776,4.776,0,0,0,2.829-2.18l2.038-3.387A2.354,2.354,0,0,0,39.992,31.907ZM39.556,34.4l-2.033,3.389a3.449,3.449,0,0,1-2.035,1.577c-4.105,1.127-11.277.194-22.13-10.66S1.57,10.678,2.7,6.573A3.454,3.454,0,0,1,4.277,4.535L7.666,2.5a1.021,1.021,0,0,1,1.377.31l2.936,4.408,2.464,3.7a1.027,1.027,0,0,1-.223,1.375l-3.034,2.36a2.335,2.335,0,0,0-.619,3l.241.438c.853,1.564,1.913,3.51,5.784,7.38s5.816,4.931,7.379,5.783l.438.242a2.336,2.336,0,0,0,3-.619l2.36-3.034a1.028,1.028,0,0,1,1.375-.223l8.1,5.4A1.02,1.02,0,0,1,39.556,34.4Z" transform="translate(-1 -1.018)"/><path class="a" d="M283.3,70.659A11.357,11.357,0,0,1,294.639,82a.667.667,0,1,0,1.335,0A12.692,12.692,0,0,0,283.3,69.324a.667.667,0,1,0,0,1.335Z" transform="translate(-260.606 -63.983)"/><path class="a" d="M283.3,121.859a7.349,7.349,0,0,1,7.34,7.34.667.667,0,1,0,1.335,0,8.685,8.685,0,0,0-8.675-8.675.667.667,0,1,0,0,1.335Z" transform="translate(-260.606 -111.179)"/><path class="a" d="M283.3,173.059a3.34,3.34,0,0,1,3.336,3.336.667.667,0,0,0,1.335,0,4.676,4.676,0,0,0-4.671-4.671.667.667,0,0,0,0,1.335Z" transform="translate(-260.606 -158.375)"/></g></g></g></svg>