<svg xmlns="http://www.w3.org/2000/svg" xmlns:xlink="http://www.w3.org/1999/xlink" width="263.389" height="332.739" viewBox="0 0 263.389 332.739"><defs><style>.a{opacity:0.6;}.b,.d{opacity:0.2;}.b{fill:url(#a);}.c{fill:url(#b);}.d{fill:#1a0e80;}.e{fill:#fff;opacity:0.3;}</style><linearGradient id="a" x1="0.5" y1="1" x2="0.5" gradientUnits="objectBoundingBox"><stop offset="0" stop-color="#fff"/><stop offset="1" stop-color="#9cf6ff"/></linearGradient><linearGradient id="b" x1="0.5" y1="1" x2="0.5" gradientUnits="objectBoundingBox"><stop offset="0" stop-color="#fff"/><stop offset="1" stop-color="#fff"/></linearGradient></defs><g class="a"><g transform="translate(0)"><path class="b" d="M273.715,417.251s-.477,16.242,17.2,23.407,21.017,25.795,21.017,25.795,7.165-11.465,2.39-21.5c16.718,7.643,21.495,6.21,29.137,18.63s13.855,28.182,29.617,35.347C364,489.383,364,478.873,364,478.873s11.942,22.452,32.482,33.917,21.5,40.6,21.5,40.6,6.688-15.763,3.343-28.183c15.287,18.152,12.42,48.247,0,64.965,17.675-14.807,23.885-38.692,23.885-38.692s.955,20.063-3.82,34.872-8.122,35.349,1.91,39.17,18.63,0,26.75.477,22.452,6.688,15.765,16.242-15.765,13.852-15.287,23.407c5.255-14.81,18.152-15.287,20.065-25.795s-8.6-22.93-19.109-23.407-25.795,5.255-22.927-14.332,39.17-37.737,43.47-67.354c4.3,29.617-6.21,49.2-6.21,49.2s28.185-41.08,22.452-75.952a33.506,33.506,0,0,0,28.66,18.152s-25.317-17.2-29.617-41.082a400.609,400.609,0,0,1-5.253-48.247s17.2,21.975,30.095,28.662c-23.885-38.215-21.019-55.889-16.242-75.954s-4.3-53.022-21.02-51.59c.478,23.407-37.26,67.832-37.26,67.832l-83.6,16.72L325.782,412Z" transform="translate(-273.533 -332.912)"/><path class="c" d="M506.808,377.515c-4.656,15.046-15.4,33.318-12.181,59.115-9.314-10.39-10.388-30.811-10.388-30.811s-6.451,30.453,6.449,57.322,18.988,72.729-5.016,99.24c8.956-16.479,1.791-35.467,1.791-35.467a114.07,114.07,0,0,1-19.346,53.38c-17.914,25.8-16.123,34.036-5.374,33.32s24,3.581,20.779,20.778-18.272,10.033-14.33,29.737c-6.449-16.121,8.6-17.2,9.316-29.02s-4.3-13.614-12.9-11.1-25.795,7.881-22.928-14.69,18.272-46.215,6.449-75.594a110.066,110.066,0,0,0-20.945-33.55,70.3,70.3,0,0,0-9.852-9.077h-.007l.345.378a55.842,55.842,0,0,1,7.537,11.064c3.768,7.23,7.007,17.269,4.651,28.318-6.091-26.511-40.127-16.121-57.324-46.574S355.26,445.943,346.3,440.927c10.03,16.123,2.507,25.081,9.314,43.711-14.33-10.391-12.9-33.32-39.767-43.711s-44.785-11.1-41.918-22.211c.773-2.989,4-4.55,8.6-5.374,12.469-2.243,34.933.939,45.143-4.3,13.972-7.165,16.121-10.032,15.046-27.586s4.3-37.262,19.7-43.352,39.053-.716,51.592,16.839,21.5,36.543,39.769,30.453,25.437-26.153,29.018-33.676c2.982-6.257,6.206-11.767,12.154-11.386a12.333,12.333,0,0,1,3.969,1C507.524,344.913,511.466,362.466,506.808,377.515Z" transform="translate(-273.633 -335.691)"/><path class="d" d="M433.331,374.933c-4.656,15.046-15.4,33.318-12.181,59.115-9.314-10.391-10.388-30.811-10.388-30.811s-6.451,30.453,6.449,57.322,18.988,72.728-5.016,99.24c13.972-16.479,13.972-35.825,11.465-60.548s-15.048-46.932-15.048-46.932.358,18.988,2.151,37.618-7.525,26.869-13.616,26.511-11.107-5.374-21.5-16.479S358.454,488.5,332.3,481.7c11.1-1.435,25.078,3.939,46.215,7.881s27.23-17.914,24.362-42.276,7.165-61.622,7.165-61.622-1.074,11.465,6.451,25.078c.358-16.481,11.821-37.976,12.181-56.606.178-9.451-3.511-14.109-7.194-16.4a12.338,12.338,0,0,1,3.969,1C434.047,342.331,437.989,359.884,433.331,374.933Z" transform="translate(-200.157 -333.109)"/><path class="d" d="M430.856,487.676c-6.091-26.511-40.127-16.121-57.324-46.573S355.26,402.767,346.3,397.75c10.03,16.123,2.507,25.081,9.314,43.711-14.33-10.39-12.9-33.32-39.767-43.711s-44.785-11.1-41.918-22.211c.773-2.989,4-4.55,8.6-5.374-7.329,14.152,21.2,16.429,40.127,24,19.7,7.881,14.33,18.63,18.988,15.763s5.374-7.881-2.149-17.914c23.646,4.658,28.3,25.439,34.034,39.411s17.555,30.095,48.725,33.318a42.6,42.6,0,0,0-3.939-16.837l.007.007.345.378a55.838,55.838,0,0,1,7.537,11.064C429.973,466.589,433.212,476.628,430.856,487.676Z" transform="translate(-273.633 -292.514)"/><path class="e" d="M279.814,379.325c.358-2.865,23.646-.716,35.827-2.865s17.914-6.807,20.062-10.749c-1.074,13.614-4.3,15.765,9.316,28.3a109.062,109.062,0,0,1-34.395-7.523s2.149,6.449,5.374,8.239C300.953,392.583,276.588,388.641,279.814,379.325Z" transform="translate(-266.257 -298.092)"/><path class="e" d="M406.013,339.466c6.091,1.793,7.523,19.706,3.225,29.737s-7.883,20.065-7.883,23.288c-2.507-18.272-.716-28.662-.716-28.662s-9.674,21.5-11.465,34.395-3.94,31.527-3.223,49.083-2.509,30.453-11.823,34.753-31.169-3.584-31.169-3.584,17.556,4.3,27.227-12.9,7.165-39.408,10.39-54.457,6.449-30.095-18.272-25.078c25.079-10.39,24.72-14.688,27.944-20.779S397.415,340.185,406.013,339.466Z" transform="translate(-186.81 -330.962)"/><path class="e" d="M404.289,377.959s-5.016,56.606-63.415,47.65c5.016,11.1,18.63,10.388,22.213,24C335.858,447.1,325.11,434.207,318.3,410.2,365.595,420.951,396.048,409.844,404.289,377.959Z" transform="translate(-217.688 -282.752)"/><path class="d" d="M311.623,381.3c6.091,5.016,9.314,15.407,14.688,18.63s18.63,7.165,31.171,5.016c-17.914-5.016-24.364-4.658-29.378-13.256S311.623,381.3,311.623,381.3Z" transform="translate(-226.054 -278.569)"/><path class="d" d="M355.292,366.506c3.581,10.032,8.6,15.765,6.807,24.723s-4.658,13.972-13.255,21.137c7.523-17.2,7.523-22.572,6.091-29.02S355.292,366.506,355.292,366.506Z" transform="translate(-179.439 -297.096)"/><path class="e" d="M346.987,378.754c3.939,7.523,7.523,15.406,12.181,12.9s6.091-3.223,8.6-8.956c-3.584,13.972-8.239,19.346-13.614,21.495s-14.332,3.584-18.988,4.3c12.9-6.807,16.479-7.523,15.046-13.972S346.987,378.754,346.987,378.754Z" transform="translate(-196.571 -281.757)"/><path d="M309.112,361.079s3.1,1.077,5.016,6.329a60.919,60.919,0,0,1,2.029-21.256c0,.358,14.81,13.852,9.077,39.647A41.539,41.539,0,0,1,315.2,372.066s.477,4.777-1.313,7.523A24.984,24.984,0,0,1,309.112,361.079Z" transform="translate(-229.515 -322.6)"/><path d="M318.44,354.789s-3.581,7.046,2.151,11.7A13.544,13.544,0,0,0,318.44,354.789Z" transform="translate(-218.9 -311.771)"/><path d="M339.677,355.769s-8-9.791-18.033-11.584c.358,18.63,9.314,27.229,21.375,32.365a35.988,35.988,0,0,0-1.552-13.019s2.388,3.942,6.09,4.9a47.044,47.044,0,0,0-8.838-22.33A10.807,10.807,0,0,0,339.677,355.769Z" transform="translate(-213.504 -325.052)"/><path d="M319.046,384.147s.716,1.91,4.3,3.223a53.464,53.464,0,0,1,.358-19.585s2.987,8.12,11.107,9.314a98.822,98.822,0,0,0-.836-14.569,43.413,43.413,0,0,1,13.017,14.927c2.27-3.94.6-8.359.6-8.359s8.48,6.449,10.51,10.868c-1.194-5.374,0-7.643,0-7.643s6.688,7.762,5.494,15.643c-2.507-1.671-3.345-3.581-3.345-3.223s1.912,4.656,1.912,8.6a15.562,15.562,0,0,1-5.016-4.539s2.029,9.077.716,15.526c-3.822-2.268-6.21-6.807-6.21-6.449s.358,7.762,3.942,12.42c-10.749-.119-22.691-10.987-22.691-10.987a13.1,13.1,0,0,0,2.507,6.21C319.285,401.222,319.046,384.147,319.046,384.147Z" transform="translate(-216.758 -302.076)"/></g><path class="e" d="M355.523,448.105s.358,17.913,8.242,17.913,21.495-29.02,21.853-56.248C380.96,448.821,364.123,459.57,355.523,448.105Z" transform="translate(-171.073 -242.91)"/><path class="d" d="M397.586,542.936c-3.223,17.2-18.272,10.032-14.33,29.737-6.449-16.121,8.6-17.2,9.316-29.02s-4.3-13.614-12.9-11.1-25.795,7.881-22.928-14.69,18.272-46.215,6.449-75.594a110.063,110.063,0,0,0-20.945-33.55C379.9,446.469,366.41,474.32,380.033,472c14.688-2.509,21.495-36.543,21.495-36.543a114.071,114.071,0,0,1-19.346,53.38c-17.914,25.8-16.123,34.036-5.375,33.32S400.811,525.739,397.586,542.936Z" transform="translate(-187.699 -244.234)"/></g></svg>