<svg xmlns="http://www.w3.org/2000/svg" xmlns:xlink="http://www.w3.org/1999/xlink" width="257.257" height="243.422" viewBox="0 0 257.257 243.422"><defs><style>.a{opacity:0.6;}.b,.d{opacity:0.2;}.b{fill:url(#a);}.c{fill:url(#b);}.d{fill:#1a0e80;}.e{fill:#fff;opacity:0.3;}</style><linearGradient id="a" x1="0.5" y1="1.077" x2="0.5" y2="0.077" gradientUnits="objectBoundingBox"><stop offset="0" stop-color="#fff"/><stop offset="1" stop-color="#9cf6ff"/></linearGradient><linearGradient id="b" x1="0.5" y1="1" x2="0.5" gradientUnits="objectBoundingBox"><stop offset="0" stop-color="#fff"/><stop offset="1" stop-color="#fff"/></linearGradient></defs><g class="a"><path class="b" d="M.939,569.171s12.105,16.319,14.209,34.741-5.262,24.211-7.895,40.529c6.843-14.738,16.845-10.527,20-24.213,8.421,13.686-27.372,36.319-20,80.533,3.159-22.107,9.476-28.95,9.476-28.95s-9.476,55.8,21.581,72.638,42.633,2.107,48.95-10,18.422-4.736,18.422,1.055c-1.578-11.579-17.9-11.053-22.633-3.159s-12.631,5.788-15.79,1.052,12.105-40.53,47.9-39.478c-18.948,13.16-23.688,22.107-23.688,22.107a45.447,45.447,0,0,1,34.215-16.316c22.633-.526,41.055-5.265,54.215-17.9a39.847,39.847,0,0,0,.526,34.212s-8.95-18.948,15.264-37.371S227.8,658.127,236.746,639.7A305.437,305.437,0,0,1,257.8,603.912l-50.531,20L89.366,647.6,54.1,583.909l-33.16-11.053L9.36,568.119Z" transform="translate(-0.544 -509.133)"/><path class="c" d="M257.406,643.494c-22.107,15.79-26.448,54.477-66.321,59.608,21.32-11.841,23.688-26.843,23.688-26.843s-29.61,34.346-85.272,46.977-64.345,34.346-66.716,43.031c-.03-.562-.055-1.107-.079-1.651v-.064c-.763-19.3,5.016-27.713,11.923-35q-.793.378-1.538.787l-.049.024c-22.116,11.82-22.3,36.927-13.808,46.956,8.685,10.263,27.238,7.1,32.37-1.185s5.922-22.107,16.975-21.317,6.712,13.026,6.712,13.026,1.578-10.263-6.317-9.868-8.685,3.156-11.449,16.185S79.366,799.823,53.313,786.4c-24.594-12.671-25.275-58.392-16.3-80.414l.03-.079c.52-1.277,1.082-2.487,1.666-3.59-11.844,12.631-11.844,38.292-11.844,38.292A80.427,80.427,0,0,1,28.443,696c7.895-24.08,20.134-25.265,21.316-37.109s-8.29-16.975-10.263-33.951c-1.943,16.677,2.976,28.023,3.149,28.418a33,33,0,0,1-18.152-20.128c-5.028-15.087-16.881-24.49-23.3-24.49l-.386.015c32.765-10.658,51.318,7.895,73.82,9.081s35.136-18.553,40.268-29.215,21.316-41.055,46.977-39.869,40.265,24.87,39.87,45.4-13.422,51.717-2.763,54.875,18.161-.4,27.241-5.527S249.906,637.177,257.406,643.494Z" transform="translate(-0.809 -548.716)"/><path class="d" d="M39.237,584.669c-1.943,16.678,2.976,28.023,3.149,28.418A33,33,0,0,1,24.235,592.96c-5.028-15.087-16.881-24.49-23.3-24.49,2.353-.094,14.717-.024,19.353,10.673,5.132,11.844,10.658,20.134,14.209,23.292C34.105,589.014,39.237,584.669,39.237,584.669Z" transform="translate(-0.55 -508.447)"/><path class="d" d="M92.306,655.507c-49.74,22.107-52.5,17.371-58.031,13.817s-1.578-24.87,0-31.187a20.754,20.754,0,0,0-.4-11.449s-29.211,7.107-22.9,62.77a80.427,80.427,0,0,1,1.581-44.609c7.895-24.08,20.134-25.265,21.316-37.109s-8.29-16.975-10.263-33.951c0,0,7.1,16.58,14.607,24.083s8.29,21.317,6.314,35.924S42.961,670.509,92.306,655.507Z" transform="translate(15.07 -497.567)"/><path class="d" d="M94.538,664.772s1.578-10.263-6.317-9.868-8.685,3.156-11.449,16.185S58.611,696.75,32.558,683.325c-24.594-12.671-25.275-58.392-16.3-80.414l.03-.079,1.666-3.59s-6.712,23.685.4,30.4c6.916,6.527,15.316,7.08,33.942-2.347-22.116,11.82-22.3,36.927-13.808,46.956,8.685,10.263,27.238,7.1,32.37-1.185s5.922-22.107,16.975-21.317S94.538,664.772,94.538,664.772Z" transform="translate(19.945 -445.643)"/><path class="d" d="M215.87,579.893c-22.107,15.79-26.448,54.477-66.321,59.608,21.32-11.841,23.688-26.843,23.688-26.843S143.627,647,87.965,659.635,23.62,693.981,21.249,702.666a14.063,14.063,0,0,1-.079-1.651v-.064c.018-4.8,1.66-18.641,19.03-28.29,21.316-11.841,35.924-17.368,58.426-22.894s53.686-23.293,65.135-33.556,18.948-13.029,18.948-13.029-7.895,18.951-17.763,29.214C187.449,618.975,199.29,581.075,215.87,579.893Z" transform="translate(40.727 -485.114)"/><path class="e" d="M5.873,569.524a166.41,166.41,0,0,1,48.953,12.634c25.658,11.054,42.633-14.212,42.633-14.212s-14.607,13.422-12.236,25.661,5.919,30.4,1.578,39.87c-2.368-15.79-13.817-33.555-23.685-37.9s-16.188-6.317-16.975-2.763,9.473,12.631,7.1,26.448c-3.554-15.395-13.422-30-21.712-37.9S5.873,569.524,5.873,569.524Z" transform="translate(9.522 -509.487)"/><path class="e" d="M106.711,582.035c.79,8.29,9.871,14.607,19.343,10.263s23.292-16.58,37.9-11.446c-15.4,13.421-22.9,28.816-26.846,33.16,5.132-15.4,5.132-18.556,5.132-18.556s-45.792,44.609-99.876,51.716c45.795-12.634,66.321-31.582,67.506-43.821S102.765,594.274,106.711,582.035Z" transform="translate(83.961 -485.679)"/><path class="e" d="M25.211,591.84s-11.053,23.289,6.314,26.843S85.61,610.393,101,608.42C47.71,614.734,28.762,611.579,25.211,591.84Z" transform="translate(41.9 -460.743)"/><path class="e" d="M16.836,610.244s3.159,16.975,57.243-7.107C19.207,635.115,10.914,626.825,16.836,610.244Z" transform="translate(28.561 -437.697)"/><path d="M67.289,591.026c1.313-6.317-1.712-15.4.787-22.371-3.684,1.316-6.314,5.791-6.314,5.791s.261-12.765,6.448-20.265C57.683,558,49.788,572.6,49.788,572.6a13.487,13.487,0,0,1,.787-7.369C43.471,567.208,41.5,580.1,41.5,580.1a18.088,18.088,0,0,1,6.579-3.42c-4.344,11.58-1.973,20.66-1.973,20.66s5.262-3.554,7.369-6.056c1.183,3.028-.66,6.843-.66,6.843S62.814,597.474,67.289,591.026Z" transform="translate(82.196 -537.567)"/><path d="M54.722,583.19c3.159-3.815,8.29-5.919,11.975-11.579a16.633,16.633,0,0,1,.4,9.345s11.579-9.74,12.236-21.45c6.186,23.028,2.237,36.976-6.314,42.107a14.464,14.464,0,0,0-.134-10.263s-.261,5.527-10,7.633c1.578-6.053-.134-10-.134-10s-5.262,5.4-9.606,6.712C53.405,590.692,53.275,586.087,54.722,583.19Z" transform="translate(105.948 -526.706)"/><path d="M49.422,570.586A25.389,25.389,0,0,1,53.5,584.007c4.344-8.682,8.29-12.236,8.29-12.236s2.371,10.923-.131,20.4c7.108-4.606,11.844-13.026,11.844-13.026s2.633,3.684-.131,8.816c3.42-.131,7.761-4.606,7.761-4.606s-7.369,14.738-7.895,20.66c11.318-11.713,23.028-14.081,23.028-14.081S81.4,617.3,56.657,626.379c3.423-9.6,6.053-15.264,6.053-15.264S52.972,624.406,39.42,627.7C43.1,609.668,50.6,604.142,50.869,594.8a16.756,16.756,0,0,1-6.317,8.025,49.082,49.082,0,0,0,2.633-15.92A62.759,62.759,0,0,1,49.422,570.586Z" transform="translate(77.957 -504.101)"/><path d="M43.123,569.028s4.475,8.816-2.1,13.686C38.782,575.345,43.123,569.028,43.123,569.028Z" transform="translate(79.912 -507.279)"/></g></svg>