<svg xmlns="http://www.w3.org/2000/svg" xmlns:xlink="http://www.w3.org/1999/xlink" width="177.831" height="168.267" viewBox="0 0 177.831 168.267"><defs><style>.a{opacity:0.6;}.b,.d{opacity:0.2;}.b{fill:url(#a);}.c{fill:url(#b);}.d{fill:#1a0e80;}.e{fill:#fff;opacity:0.3;}</style><linearGradient id="a" x1="0.5" y1="1.077" x2="0.5" y2="0.077" gradientUnits="objectBoundingBox"><stop offset="0" stop-color="#fff"/><stop offset="1" stop-color="#9cf6ff"/></linearGradient><linearGradient id="b" x1="0.5" y1="1" x2="0.5" gradientUnits="objectBoundingBox"><stop offset="0" stop-color="#fff"/><stop offset="1" stop-color="#fff"/></linearGradient></defs><g class="a"><path class="b" d="M.939,568.846s8.368,11.28,9.822,24.015S7.123,609.6,5.3,620.877c4.73-10.187,11.644-7.277,13.827-16.738C24.952,613.6.21,629.245,5.3,659.808c2.183-15.281,6.55-20.012,6.55-20.012S5.3,678.366,26.772,690.008s29.47,1.456,33.837-6.914,12.735-3.274,12.735.729c-1.091-8-12.371-7.641-15.645-2.183s-8.731,4-10.915.727,8.368-28.016,33.11-27.289c-13.1,9.1-16.374,15.281-16.374,15.281a31.416,31.416,0,0,1,23.651-11.278c15.645-.364,28.38-3.64,37.477-12.371a27.544,27.544,0,0,0,.364,23.649s-6.187-13.1,10.551-25.833,22.2-14.189,28.38-26.923A211.135,211.135,0,0,1,178.5,592.861l-34.93,13.825-81.5,16.374L37.687,579.034l-22.922-7.641-8-3.274Z" transform="translate(-0.666 -527.345)"/><path class="c" d="M178.183,614.232c-15.282,10.915-18.282,37.657-45.845,41.2,14.737-8.185,16.374-18.555,16.374-18.555s-20.468,23.742-58.945,32.473S45.29,693.1,43.651,699.1c-.021-.389-.038-.765-.055-1.141v-.044c-.527-13.344,3.467-19.157,8.242-24.194q-.548.261-1.063.544l-.034.017c-15.288,8.17-15.412,25.526-9.545,32.458,6,7.094,18.829,4.911,22.376-.819s4.094-15.282,11.734-14.735,4.64,9,4.64,9,1.091-7.094-4.367-6.821-6,2.181-7.914,11.188S55.112,722.3,37.1,713.016c-17-8.759-17.471-40.364-11.27-55.587l.021-.055c.359-.883.748-1.719,1.152-2.482-8.187,8.731-8.187,26.469-8.187,26.469a55.6,55.6,0,0,1,1.093-30.836c5.457-16.645,13.918-17.465,14.735-25.652s-5.731-11.734-7.094-23.469c-1.343,11.528,2.057,19.371,2.177,19.644a22.808,22.808,0,0,1-12.548-13.914c-3.476-10.429-11.669-16.929-16.105-16.929l-.267.01c22.649-7.368,35.474,5.457,51.029,6.277S76.126,583.669,79.673,576.3s14.735-28.38,32.473-27.56,27.833,17.192,27.56,31.38-9.278,35.749-1.91,37.933,12.554-.273,18.831-3.82S173,609.865,178.183,614.232Z" transform="translate(-0.809 -548.716)"/><path class="d" d="M27.412,579.664c-1.343,11.528,2.057,19.371,2.177,19.644a22.808,22.808,0,0,1-12.548-13.914C13.566,574.965,5.372,568.465.936,568.465c1.626-.065,10.173-.017,13.378,7.378,3.547,8.187,7.368,13.918,9.822,16.1C23.865,582.667,27.412,579.664,27.412,579.664Z" transform="translate(-0.669 -526.974)"/><path class="d" d="M66.46,630.277c-34.383,15.282-36.294,12.007-40.114,9.551s-1.091-17.192,0-21.558a14.347,14.347,0,0,0-.273-7.914s-20.193,4.913-15.828,43.39a55.6,55.6,0,0,1,1.093-30.836c5.457-16.645,13.918-17.465,14.735-25.652s-5.731-11.734-7.094-23.469c0,0,4.911,11.461,10.1,16.647s5.731,14.735,4.365,24.833S32.35,640.648,66.46,630.277Z" transform="translate(7.764 -521.1)"/><path class="d" d="M68.741,644.54s1.091-7.094-4.367-6.821-6,2.181-7.914,11.188S43.906,666.645,25.9,657.365C8.9,648.606,8.426,617,14.627,601.778l.021-.055,1.152-2.482s-4.64,16.372.273,21.012c4.781,4.512,10.587,4.894,23.462-1.622-15.288,8.17-15.412,25.526-9.545,32.458,6,7.094,18.829,4.911,22.376-.819S56.46,634.989,64.1,635.536,68.741,644.54,68.741,644.54Z" transform="translate(10.397 -493.065)"/><path class="d" d="M155.757,579.893c-15.282,10.915-18.282,37.657-45.845,41.2,14.737-8.185,16.374-18.555,16.374-18.555s-20.468,23.742-58.945,32.473-44.479,23.742-46.118,29.746a9.721,9.721,0,0,1-.055-1.141v-.044c.013-3.318,1.147-12.886,13.155-19.556a144.542,144.542,0,0,1,40.387-15.826c15.553-3.82,37.111-16.1,45.025-23.2s13.1-9.007,13.1-9.007-5.457,13.1-12.279,20.195C136.111,606.909,144.3,580.71,155.757,579.893Z" transform="translate(21.617 -514.377)"/><path class="e" d="M5.873,569.037a115.031,115.031,0,0,1,33.839,8.733c17.736,7.641,29.47-9.824,29.47-9.824s-10.1,9.278-8.458,17.738,4.091,21.012,1.091,27.56c-1.637-10.915-9.551-23.2-16.372-26.2s-11.19-4.367-11.734-1.91,6.548,8.731,4.911,18.282c-2.457-10.642-9.278-20.739-15.008-26.2S5.873,569.037,5.873,569.037Z" transform="translate(4.769 -527.535)"/><path class="e" d="M86.844,581.288c.546,5.731,6.823,10.1,13.371,7.094s16.1-11.461,26.2-7.912c-10.644,9.278-15.828,19.919-18.558,22.922,3.547-10.644,3.547-12.827,3.547-12.827S79.749,621.4,42.363,626.316c31.656-8.734,45.845-21.832,46.664-30.292S84.116,589.749,86.844,581.288Z" transform="translate(44.959 -514.682)"/><path class="e" d="M24.141,591.84s-7.641,16.1,4.365,18.555,37.386-5.731,48.028-7.094C39.694,607.666,26.6,605.484,24.141,591.84Z" transform="translate(22.25 -501.218)"/><path class="e" d="M16.332,608.05s2.183,11.734,39.57-4.913C17.972,625.242,12.239,619.511,16.332,608.05Z" transform="translate(15.048 -488.775)"/><path d="M59.326,579.65c.908-4.367-1.183-10.644.544-15.464-2.547.91-4.365,4-4.365,4s.181-8.824,4.457-14.008c-7.277,2.637-12.735,12.735-12.735,12.735a9.323,9.323,0,0,1,.544-5.094C42.862,563.186,41.5,572.1,41.5,572.1a12.5,12.5,0,0,1,4.547-2.364,25.66,25.66,0,0,0-1.364,14.281,33.049,33.049,0,0,0,5.094-4.186c.817,2.093-.456,4.73-.456,4.73S56.233,584.107,59.326,579.65Z" transform="translate(44.007 -542.696)"/><path d="M54.234,575.877c2.183-2.637,5.731-4.092,8.277-8a11.5,11.5,0,0,1,.273,6.46s8-6.733,8.458-14.828c4.276,15.918,1.547,25.56-4.365,29.107a10,10,0,0,0-.092-7.094s-.181,3.82-6.912,5.277a11.38,11.38,0,0,0-.092-6.914s-3.638,3.73-6.64,4.64C53.324,581.063,53.233,577.88,54.234,575.877Z" transform="translate(56.83 -536.833)"/><path d="M46.334,570.586a17.551,17.551,0,0,1,2.818,9.278c3-6,5.731-8.458,5.731-8.458s1.639,7.55-.09,14.1c4.913-3.184,8.187-9,8.187-9a5.879,5.879,0,0,1-.09,6.094c2.364-.09,5.365-3.184,5.365-3.184S63.16,589.6,62.8,593.691c7.824-8.1,15.918-9.734,15.918-9.734s-10.278,18.921-27.379,25.2c2.366-6.638,4.184-10.551,4.184-10.551s-6.731,9.187-16.1,11.461c2.547-12.461,7.731-16.282,7.914-22.739a11.583,11.583,0,0,1-4.367,5.548,33.929,33.929,0,0,0,1.82-11.005A43.383,43.383,0,0,1,46.334,570.586Z" transform="translate(41.718 -524.628)"/><path d="M42.275,569.028s3.093,6.094-1.454,9.461A11.955,11.955,0,0,1,42.275,569.028Z" transform="translate(42.773 -526.344)"/></g></svg>