<svg xmlns="http://www.w3.org/2000/svg" xmlns:xlink="http://www.w3.org/1999/xlink" width="184.925" height="233.615" viewBox="0 0 184.925 233.615"><defs><style>.a{opacity:0.6;}.b,.d{opacity:0.2;}.b{fill:url(#a);}.c{fill:url(#b);}.d{fill:#1a0e80;}.e{fill:#fff;opacity:0.3;}</style><linearGradient id="a" x1="0.5" y1="1" x2="0.5" gradientUnits="objectBoundingBox"><stop offset="0" stop-color="#fff"/><stop offset="1" stop-color="#9cf6ff"/></linearGradient><linearGradient id="b" x1="0.5" y1="1" x2="0.5" gradientUnits="objectBoundingBox"><stop offset="0" stop-color="#fff"/><stop offset="1" stop-color="#fff"/></linearGradient></defs><g class="a" transform="translate(0)"><g transform="translate(0.001)"><path class="b" d="M273.714,393.615s-.335,11.4,12.074,16.434,14.756,18.111,14.756,18.111,5.031-8.049,1.678-15.092c11.737,5.366,15.092,4.36,20.457,13.08s9.727,19.787,20.794,24.817A22.3,22.3,0,0,1,337.1,436.88s8.385,15.764,22.806,23.813S375,489.2,375,489.2s4.7-11.067,2.347-19.787c10.733,12.745,8.72,33.874,0,45.612,12.409-10.4,16.769-27.166,16.769-27.166s.67,14.086-2.682,24.484-5.7,24.819,1.341,27.5,13.08,0,18.781.335,15.764,4.7,11.068,11.4-11.068,9.726-10.733,16.434c3.689-10.4,12.745-10.733,14.087-18.11s-6.038-16.1-13.417-16.434-18.11,3.689-16.1-10.062,27.5-26.5,30.52-47.29c3.019,20.794-4.36,34.545-4.36,34.545s19.788-28.842,15.764-53.326a23.525,23.525,0,0,0,20.122,12.745s-17.775-12.074-20.794-28.844a281.265,281.265,0,0,1-3.688-33.874s12.073,15.428,21.129,20.124c-16.769-26.83-14.758-39.24-11.4-53.327S440.737,336.935,429,337.941c.335,16.434-26.16,47.625-26.16,47.625L344.145,397.3l-33.874-7.379Z" transform="translate(-273.587 -334.401)"/><path class="c" d="M437.345,365.055c-3.269,10.564-10.815,23.392-8.552,41.5-6.539-7.3-7.294-21.632-7.294-21.632s-4.529,21.381,4.528,40.246,13.331,51.063-3.522,69.676c6.288-11.57,1.257-24.9,1.257-24.9a80.089,80.089,0,0,1-13.583,37.478c-12.577,18.112-11.32,23.9-3.773,23.394s16.853,2.514,14.589,14.589-12.829,7.044-10.061,20.878c-4.528-11.318,6.036-12.074,6.541-20.375s-3.019-9.558-9.057-7.8-18.111,5.533-16.1-10.314,12.829-32.448,4.528-53.074a77.278,77.278,0,0,0-14.706-23.555,49.348,49.348,0,0,0-6.917-6.373h0l.242.266a39.2,39.2,0,0,1,5.291,7.768c2.646,5.076,4.92,12.125,3.266,19.882-4.276-18.613-28.173-11.318-40.247-32.7s-12.829-26.916-19.116-30.438c7.042,11.32,1.76,17.609,6.539,30.689-10.061-7.3-9.055-23.394-27.92-30.689s-31.444-7.8-29.43-15.594c.542-2.1,2.812-3.194,6.036-3.773,8.755-1.575,24.526.659,31.695-3.019,9.81-5.031,11.318-7.044,10.564-19.368s3.019-26.161,13.834-30.438,27.419-.5,36.223,11.823,15.093,25.657,27.922,21.381,17.859-18.362,20.374-23.644c2.094-4.393,4.357-8.261,8.533-7.994a8.658,8.658,0,0,1,2.786.7C437.848,342.166,440.616,354.49,437.345,365.055Z" transform="translate(-273.633 -335.691)"/><path class="d" d="M403.234,363.857c-3.269,10.564-10.815,23.392-8.552,41.5-6.539-7.3-7.294-21.632-7.294-21.632s-4.529,21.381,4.528,40.246,13.332,51.063-3.522,69.676c9.81-11.57,9.81-25.153,8.05-42.51s-10.566-32.951-10.566-32.951.252,13.331,1.51,26.411-5.283,18.865-9.56,18.613-7.8-3.773-15.092-11.57S350.663,443.6,332.3,438.816c7.8-1.008,17.607,2.766,32.448,5.533s19.118-12.577,17.1-29.682,5.031-43.265,5.031-43.265-.754,8.049,4.529,17.608c.252-11.571,8.3-26.663,8.552-39.743.125-6.636-2.465-9.906-5.051-11.516a8.662,8.662,0,0,1,2.786.7C403.737,340.967,406.5,353.291,403.234,363.857Z" transform="translate(-239.523 -334.492)"/><path class="d" d="M384.019,452.67c-4.276-18.613-28.173-11.318-40.247-32.7s-12.829-26.916-19.116-30.438c7.042,11.32,1.76,17.609,6.539,30.689-10.061-7.3-9.055-23.394-27.92-30.689s-31.444-7.8-29.43-15.594c.542-2.1,2.812-3.194,6.036-3.773-5.146,9.936,14.881,11.535,28.173,16.853,13.834,5.533,10.061,13.08,13.331,11.067s3.773-5.534-1.509-12.577c16.6,3.27,19.871,17.861,23.9,27.67s12.326,21.129,34.209,23.393a29.911,29.911,0,0,0-2.766-11.821l0,0,.242.266a39.2,39.2,0,0,1,5.291,7.768C383.4,437.864,385.674,444.913,384.019,452.67Z" transform="translate(-273.633 -315.646)"/><path class="e" d="M279.727,375.269c.251-2.012,16.6-.5,25.154-2.012s12.577-4.779,14.086-7.547c-.754,9.558-3.017,11.068,6.541,19.872a76.572,76.572,0,0,1-24.148-5.282s1.509,4.528,3.773,5.785C294.569,384.577,277.462,381.81,279.727,375.269Z" transform="translate(-270.209 -318.236)"/><path class="e" d="M387.229,339.466c4.276,1.259,5.282,13.836,2.265,20.878s-5.535,14.087-5.535,16.35c-1.76-12.829-.5-20.124-.5-20.124s-6.792,15.093-8.049,24.148-2.766,22.135-2.263,34.461-1.762,21.381-8.3,24.4-21.884-2.516-21.884-2.516a17.655,17.655,0,0,0,19.116-9.055c6.792-12.074,5.031-27.669,7.3-38.234s4.528-21.129-12.828-17.608c17.608-7.3,17.356-10.312,19.619-14.589S381.192,339.97,387.229,339.466Z" transform="translate(-233.326 -333.495)"/><path class="e" d="M378.674,377.959s-3.522,39.743-44.523,33.455c3.522,7.8,13.08,7.293,15.6,16.853-19.118-1.762-26.664-10.817-31.443-27.67C351.507,408.144,372.888,400.346,378.674,377.959Z" transform="translate(-247.661 -311.115)"/><path class="d" d="M311.623,381.3c4.276,3.522,6.539,10.817,10.313,13.08s13.08,5.031,21.885,3.522c-12.577-3.522-17.106-3.271-20.626-9.307S311.623,381.3,311.623,381.3Z" transform="translate(-251.545 -309.173)"/><path class="d" d="M353.371,366.506c2.515,7.044,6.036,11.068,4.779,17.358s-3.27,9.809-9.307,14.84c5.282-12.074,5.282-15.848,4.276-20.375S353.371,366.506,353.371,366.506Z" transform="translate(-229.905 -317.774)"/><path class="e" d="M343.465,378.754c2.766,5.282,5.282,10.817,8.552,9.055s4.276-2.263,6.036-6.288c-2.516,9.809-5.785,13.583-9.558,15.091s-10.063,2.516-13.331,3.019c9.055-4.779,11.57-5.282,10.564-9.81S343.465,378.754,343.465,378.754Z" transform="translate(-237.858 -310.652)"/><path d="M309.037,356.63s2.179.756,3.522,4.444a42.771,42.771,0,0,1,1.425-14.924c0,.251,10.4,9.726,6.373,27.836a29.165,29.165,0,0,1-7.044-9.642s.335,3.354-.922,5.282A17.541,17.541,0,0,1,309.037,356.63Z" transform="translate(-253.152 -329.613)"/><path d="M318.111,354.789s-2.514,4.947,1.51,8.217A9.509,9.509,0,0,0,318.111,354.789Z" transform="translate(-248.224 -324.586)"/><path d="M334.3,352.318s-5.619-6.874-12.661-8.133c.251,13.08,6.539,19.118,15.008,22.723a25.268,25.268,0,0,0-1.09-9.141s1.676,2.767,4.276,3.438a33.03,33.03,0,0,0-6.206-15.678A7.588,7.588,0,0,0,334.3,352.318Z" transform="translate(-245.719 -330.752)"/><path d="M319.046,377.707s.5,1.341,3.017,2.263a37.536,37.536,0,0,1,.251-13.75s2.1,5.7,7.8,6.539a69.385,69.385,0,0,0-.587-10.229,30.48,30.48,0,0,1,9.139,10.48,7.512,7.512,0,0,0,.419-5.869s5.954,4.528,7.379,7.63c-.838-3.773,0-5.366,0-5.366s4.7,5.45,3.857,10.983a13.328,13.328,0,0,1-2.348-2.263,21.385,21.385,0,0,1,1.343,6.036,10.926,10.926,0,0,1-3.522-3.187s1.425,6.373.5,10.9c-2.684-1.593-4.36-4.779-4.36-4.528s.251,5.45,2.767,8.72c-7.547-.084-15.931-7.714-15.931-7.714a9.2,9.2,0,0,0,1.76,4.36C319.214,389.7,319.046,377.707,319.046,377.707Z" transform="translate(-247.229 -320.085)"/></g><path class="e" d="M355.523,436.685s.251,12.577,5.786,12.577,15.091-20.375,15.343-39.491C373.382,437.188,361.561,444.735,355.523,436.685Z" transform="translate(-226.02 -292.618)"/><path class="d" d="M381.1,502.951c-2.263,12.074-12.829,7.044-10.061,20.878-4.528-11.318,6.036-12.074,6.541-20.375s-3.019-9.558-9.057-7.8-18.111,5.533-16.1-10.314,12.829-32.448,4.528-53.074a77.276,77.276,0,0,0-14.706-23.555c26.432,26.508,16.964,46.062,26.529,44.433,10.312-1.762,15.091-25.657,15.091-25.657a80.09,80.09,0,0,1-13.583,37.478c-12.577,18.112-11.32,23.9-3.773,23.394S383.365,490.877,381.1,502.951Z" transform="translate(-233.739 -293.233)"/></g></svg>