<svg xmlns="http://www.w3.org/2000/svg" width="16.526" height="19.801" viewBox="0 0 16.526 19.801"><defs><style>.a{fill:#fd5601;}</style></defs><g transform="translate(-1.288 0.888)"><g transform="translate(490.279 118.142)"><g transform="translate(-480.335 -111.682)"><g transform="translate(0)"><path class="a" d="M-268.6,70.97a.39.39,0,0,0-.393.387.39.39,0,0,0,.393.387.39.39,0,0,0,.393-.387A.39.39,0,0,0-268.6,70.97Z" transform="translate(268.99 -70.97)"/></g></g><g transform="translate(-481.908 -111.682)"><path class="a" d="M-308.6,70.97a.39.39,0,0,0-.393.387.39.39,0,0,0,.393.387.39.39,0,0,0,.393-.387A.39.39,0,0,0-308.6,70.97Z" transform="translate(308.99 -70.97)"/></g><g transform="translate(-484.269 -114.776)"><g transform="translate(0 0)"><path class="a" d="M-367.151-9.03h-.531a1.3,1.3,0,0,0-1.308,1.286v.174a1.3,1.3,0,0,0,1.3,1.287,3.2,3.2,0,0,0,.949-.241,1.287,1.287,0,0,0,.895-1.22A1.3,1.3,0,0,0-367.151-9.03Zm.165,1.772h0l-.532.174a.519.519,0,0,1-.686-.486v-.174h0a.518.518,0,0,1,.521-.512h.531a.518.518,0,0,1,.521.512A.513.513,0,0,1-366.985-7.258Z" transform="translate(368.99 9.03)"/></g></g><g transform="translate(-480.335 -114.776)"><g transform="translate(0 0)"><path class="a" d="M-267.151-9.03h-.531a1.3,1.3,0,0,0-1.308,1.286,1.287,1.287,0,0,0,.894,1.22l.531.174a1.3,1.3,0,0,0,1.722-1.22v-.174A1.3,1.3,0,0,0-267.151-9.03Zm.521,1.46a.52.52,0,0,1-.686.486h0l-.531-.174a.513.513,0,0,1-.356-.486.517.517,0,0,1,.521-.512h.531a.518.518,0,0,1,.521.512Z" transform="translate(268.99 9.03)"/></g></g><g transform="translate(-488.991 -109.284)"><path class="a" d="M-473.747,138.416a1.56,1.56,0,0,0-1.565.6L-477.731,138l2.423-1.021a1.569,1.569,0,0,0,1.269.634,1.562,1.562,0,0,0,1.574-1.547,1.542,1.542,0,0,0-.8-1.343,1.558,1.558,0,0,0-1.56-1.751,1.547,1.547,0,0,0-1.521,1.92l-4.381,1.845-4.385-1.847a1.54,1.54,0,0,0-1.517-1.918,1.558,1.558,0,0,0-1.56,1.751,1.531,1.531,0,0,0,.481,2.858,1.56,1.56,0,0,0,1.565-.6l2.419,1.019-2.423,1.021a1.569,1.569,0,0,0-1.269-.634,1.562,1.562,0,0,0-1.574,1.547,1.542,1.542,0,0,0,.8,1.343,1.558,1.558,0,0,0,1.56,1.751,1.547,1.547,0,0,0,1.521-1.92l4.381-1.845,4.385,1.847a1.54,1.54,0,0,0,1.517,1.918,1.558,1.558,0,0,0,1.56-1.751A1.531,1.531,0,0,0-473.747,138.416Zm-12.417-2.288a.4.4,0,0,0-.521.215.763.763,0,0,1-.878.475.765.765,0,0,1-.058-1.5.386.386,0,0,0,.262-.517.774.774,0,0,1,.729-1.061.757.757,0,0,1,.667,1.153.384.384,0,0,0,.184.552l4.052,1.707-1,.421Zm.385,4.418a.384.384,0,0,0-.184.553.758.758,0,0,1-.667,1.153.774.774,0,0,1-.729-1.061.386.386,0,0,0-.262-.517.776.776,0,0,1-.583-.742.781.781,0,0,1,.787-.773.781.781,0,0,1,.731.494.4.4,0,0,0,.521.215l10.488-4.418a.384.384,0,0,0,.183-.553.758.758,0,0,1,.667-1.153.774.774,0,0,1,.729,1.061.386.386,0,0,0,.262.517.776.776,0,0,1,.583.742.781.781,0,0,1-.787.773.781.781,0,0,1-.731-.494.4.4,0,0,0-.522-.215l-3.594,1.514Zm11.945.128a.392.392,0,0,0-.249.2.381.381,0,0,0-.013.316.774.774,0,0,1-.729,1.061.757.757,0,0,1-.667-1.153.384.384,0,0,0-.184-.552l-4.053-1.707,1-.421,3.439,1.448a.4.4,0,0,0,.522-.215.763.763,0,0,1,.878-.475A.765.765,0,0,1-473.835,140.674Z" transform="translate(488.991 -132.97)"/></g><g transform="translate(-485.843 -119.03)"><g transform="translate(0)"><path class="a" d="M-398.76-114.776c0-2.783-2.285-4.254-5.115-4.254s-5.115,1.473-5.115,4.254a7.542,7.542,0,0,0,.332,2.15,1.524,1.524,0,0,0-.332.943,1.57,1.57,0,0,0,2.008,1.482h.26a.372.372,0,0,1,.092.245v1.212a1.172,1.172,0,0,0,1.18,1.16h3.148a1.172,1.172,0,0,0,1.18-1.16v-1.243a.313.313,0,0,1,.078-.207h.3a1.568,1.568,0,0,0,1.979-1.49,1.525,1.525,0,0,0-.332-.943A7.541,7.541,0,0,0-398.76-114.776Zm-1.049,2.523a.758.758,0,0,1,.262.571.785.785,0,0,1-1.02.733.4.4,0,0,0-.115-.017c-.432.014-.555-.038-.712.06a1.083,1.083,0,0,0-.514.92v1.243a.391.391,0,0,1-.393.387h-.393v-1.392a.39.39,0,0,0-.393-.387.39.39,0,0,0-.394.387v1.392h-.787v-1.392a.39.39,0,0,0-.393-.387.39.39,0,0,0-.393.387v1.392h-.393a.391.391,0,0,1-.393-.387v-1.212a1.007,1.007,0,0,0-.734-1.018h-.466c-.162,0-.288.132-.624.02l-.018-.005a.774.774,0,0,1-.519-.723.758.758,0,0,1,.262-.571.382.382,0,0,0,.1-.441,6.2,6.2,0,0,1-.359-2.082c0-2.566,2.236-3.481,4.328-3.481s4.328.914,4.328,3.481a6.2,6.2,0,0,1-.359,2.082A.382.382,0,0,0-399.809-112.253Z" transform="translate(408.99 119.03)"/></g></g></g></g></svg>