<svg xmlns="http://www.w3.org/2000/svg" xmlns:xlink="http://www.w3.org/1999/xlink" width="190" height="72.755" viewBox="0 0 190 72.755"><defs><style>.a,.b{fill:#fff;}.b{font-size:40px;font-family:ALKRex-Bold, ALK Rex;font-weight:700;}.c{filter:url(#c);}.d{filter:url(#a);}</style><filter id="a" x="0" y="0" width="76.31" height="72.755" filterUnits="userSpaceOnUse"><feOffset input="SourceAlpha"/><feGaussianBlur stdDeviation="5" result="b"/><feFlood flood-opacity="0.161"/><feComposite operator="in" in2="b"/><feComposite in="SourceGraphic"/></filter><filter id="c" x="12.538" y="19.552" width="48.976" height="32.882" filterUnits="userSpaceOnUse"><feOffset input="SourceAlpha"/><feGaussianBlur stdDeviation="5" result="d"/><feFlood flood-color="#ff0808" flood-opacity="0.161"/><feComposite operator="in" in2="d"/><feComposite in="SourceGraphic"/></filter></defs><g transform="translate(15 -4.652)"><g class="d" transform="matrix(1, 0, 0, 1, -15, 4.65)"><path class="a" d="M40.833,19.652H11.866a5.264,5.264,0,0,0-5.284,5.226L6.4,50.589H1.441A1.441,1.441,0,0,0,0,52.03v3.507A6.877,6.877,0,0,0,6.581,62.4v.007H31.033V62.4c.112.005.224.008.337.008a6.877,6.877,0,0,0,6.87-6.87V33.007h6.629a1.441,1.441,0,0,0,1.441-1.441V25.128A5.483,5.483,0,0,0,40.833,19.652ZM2.882,55.537V53.471H24.5v2.066a6.83,6.83,0,0,0,1.281,3.987H6.866A3.992,3.992,0,0,1,2.882,55.537Zm32.474,0a3.987,3.987,0,1,1-7.975,0V52.03a1.441,1.441,0,0,0-1.441-1.441H9.282l.182-25.7a2.381,2.381,0,0,1,2.4-2.354H36.011a5.443,5.443,0,0,0-.655,2.594Zm2.882-25.413v-5a2.594,2.594,0,1,1,5.188,0v5Z" transform="translate(15 -4.65)"/></g><path class="a" d="M140.063,111.231h7.446a1.441,1.441,0,0,0,0-2.882h-7.446a1.441,1.441,0,0,0,0,2.882Z" transform="translate(-126.084 -80.674)"/><path class="a" d="M156.156,172.083H140.063a1.441,1.441,0,1,0,0,2.882h16.093a1.441,1.441,0,1,0,0-2.882Z" transform="translate(-126.084 -138.644)"/><g class="c" transform="matrix(1, 0, 0, 1, -15, 4.65)"><path class="a" d="M156.156,235.817H140.063a1.441,1.441,0,1,0,0,2.882h16.093a1.441,1.441,0,1,0,0-2.882Z" transform="translate(-111.08 -201.27)"/></g><path class="a" d="M156.156,299.552H140.063a1.441,1.441,0,0,0,0,2.882h16.093a1.441,1.441,0,0,0,0-2.882Z" transform="translate(-126.084 -254.583)"/><text class="b" transform="translate(53 58.71)"><tspan x="0" y="0">წესები</tspan></text></g></svg>