<svg xmlns="http://www.w3.org/2000/svg" width="25.669" height="25.669" viewBox="0 0 25.669 25.669"><defs><style>.a{fill:#fff;}</style></defs><path class="a" d="M23.609,16.848a14.574,14.574,0,0,1-4.577-.729A2.092,2.092,0,0,0,17,16.548l-2.886,2.179a15.95,15.95,0,0,1-7.171-7.17L9.055,8.746a2.075,2.075,0,0,0,.51-2.1A14.6,14.6,0,0,1,8.833,2.06,2.062,2.062,0,0,0,6.774,0H2.06A2.062,2.062,0,0,0,0,2.06,23.636,23.636,0,0,0,23.609,25.669a2.062,2.062,0,0,0,2.06-2.06v-4.7A2.062,2.062,0,0,0,23.609,16.848Z"/></svg>