<svg xmlns="http://www.w3.org/2000/svg" width="61.504" height="71.205" viewBox="0 0 61.504 71.205"><defs><style>.a{fill:none;stroke:#161e3f;stroke-linecap:round;stroke-linejoin:round;stroke-width:1.5px;}</style></defs><g transform="translate(7727.463 -830.067)"><g transform="translate(-7726.713 831.085)"><g transform="translate(36.835 34.213)"><g transform="translate(0 20.012)"><path class="a" d="M-322.958,3781.232a10.8,10.8,0,0,1,1.8,4.391,8.244,8.244,0,0,1,.025,2.969,8.244,8.244,0,0,1-1.165,2.908,10.663,10.663,0,0,1-3.4,3.445,6.716,6.716,0,0,0,.526-2.617c-.016-1.961-.948-2.809-.767-4.379a4.649,4.649,0,0,1,1.472-2.755s1.443.726.853,3.685" transform="translate(343.088 -3781.232)"/><path class="a" d="M-360.26,3791.6a8.857,8.857,0,0,1,2.085-.841,8.9,8.9,0,0,1,2.606-.283,4.48,4.48,0,0,1-1.482,2.585c-1.62,1.309-3.5.419-6.215,1.279a9.638,9.638,0,0,0-3.775,2.31,10.529,10.529,0,0,1,3.154-5.57c2.909-2.534,6.983-2.72,10.142-4.816a15.823,15.823,0,0,0,4.594-4.681" transform="translate(367.04 -3781.437)"/></g><g transform="translate(4.07)"><path class="a" d="M-334.944,3756.5a.944.944,0,0,0,.727.24.938.938,0,0,0,.6-.3.938.938,0,0,0,.222-.424.94.94,0,0,0-.283-.9,1.091,1.091,0,0,0-.181-.13.94.94,0,0,0-1.074.122.742.742,0,0,0-.071.069.937.937,0,0,0-.169,1A.941.941,0,0,0-334.944,3756.5Z" transform="translate(344.433 -3745.85)"/><path class="a" d="M-341.781,3742.366c.8-1.718,1.988-5.791-2.62-9.138a6.4,6.4,0,0,0-2.485,1.358,5.346,5.346,0,0,0-1.941,3.568,4.416,4.416,0,0,0,.109,1.227" transform="translate(352.354 -3733.228)"/><path class="a" d="M-347.778,3752.37c-1.341-1.337-4.774-3.835-9.485-.631a6.4,6.4,0,0,0,.436,2.8,5.336,5.336,0,0,0,2.7,3.036,4.3,4.3,0,0,0,1.192.314" transform="translate(357.277 -3743.111)"/><path class="a" d="M-340.64,3758.009c-1.691.85-5.145,3.32-3.591,8.8a6.431,6.431,0,0,0,2.793.468,5.339,5.339,0,0,0,3.731-1.6,4.38,4.38,0,0,0,.674-1.031" transform="translate(349.898 -3747.679)"/><path class="a" d="M-332.77,3757.291c.314,1.866,1.651,5.9,7.348,6.035a6.412,6.412,0,0,0,1.273-2.528,5.332,5.332,0,0,0-.428-4.039,4.258,4.258,0,0,0-.787-.949" transform="translate(342.987 -3746.396)"/><path class="a" d="M-329.844,3738.884a4.348,4.348,0,0,1,1.148-.443,5.351,5.351,0,0,1,3.967.883,6.4,6.4,0,0,1,1.991,2.013c-1.947,5.352-6.192,5.336-8.062,5.039" transform="translate(341.838 -3736.208)"/></g></g><g transform="translate(0 0)"><path class="a" d="M-383.442,3764.186a13.938,13.938,0,0,1-5.748,1.286,13.933,13.933,0,0,1-5.858-1.284l1.013-1.346a3.161,3.161,0,0,1,1.585-1.151,2.786,2.786,0,0,1,.639-.115c1.272-.1,1.565.4,2.594.415,1.046.016,1.317-.493,2.592-.368a2.826,2.826,0,0,1,.794.183,3.2,3.2,0,0,1,1.354,1.042Z" transform="translate(420.207 -3715.537)"/><path class="a" d="M-391.673,3776.375l1.448,1.121a4.15,4.15,0,0,0,1.557.443c.112.01.229.015.343.015h2.184a3.98,3.98,0,0,0,.638-.052,4.092,4.092,0,0,0,1.474-.527l1.246-1" transform="translate(418.239 -3724.175)"/><path class="a" d="M-383.073,3743.823c-.089.378-.373.461-1.479,1.231a4.056,4.056,0,0,1-4.155,0c-1.107-.769-1.391-.852-1.479-1.231" transform="translate(417.372 -3705.193)"/><g transform="translate(11.876 26.453)"><path class="a" d="M-426.912,3715.2a2.857,2.857,0,0,1,1.665-.587,2.868,2.868,0,0,1,1.805.606,6.754,6.754,0,0,0,2.89,1.478,7.052,7.052,0,0,0,2.276.12,16.656,16.656,0,0,0,2.994-.719c.707-.2,1.3-.368,1.732-.492" transform="translate(426.912 -3714.614)"/><path class="a" d="M-418.189,3720.644a2.706,2.706,0,0,1,2.127-1.437" transform="translate(421.825 -3717.292)"/></g><g transform="translate(36.09 26.453)"><path class="a" d="M-355.463,3715.2a2.856,2.856,0,0,0-1.665-.587,2.869,2.869,0,0,0-1.805.606,6.755,6.755,0,0,1-2.89,1.478,7.05,7.05,0,0,1-2.275.12,16.649,16.649,0,0,1-2.994-.719c-.707-.2-1.3-.368-1.732-.492" transform="translate(368.825 -3714.614)"/><path class="a" d="M-350.6,3719.206a2.706,2.706,0,0,1,2.127,1.438" transform="translate(358.196 -3717.292)"/></g><path class="a" d="M-441.2,3716.534a68.655,68.655,0,0,0,2.273,15.129c2.106,7.912,11.626,15.683,17.612,19.905a8.472,8.472,0,0,0,9.906,0c1.843-1.3,4.02-2.934,6.212-4.806l2.811-2.519" transform="translate(447.118 -3689.28)"/><path class="a" d="M-322.491,3715.794q-.038,1.44-.146,2.87l-.258,3.734" transform="translate(378.132 -3688.849)"/><path class="a" d="M-449.479,3715.356c-.854,1.961-2.751,3.239-4.053,4.936a9.633,9.633,0,0,0-.107,11.25,19.814,19.814,0,0,1,2.086,2.811,4.9,4.9,0,0,1-.277,4.737" transform="translate(455.399 -3688.593)"/><path class="a" d="M-410.853,3696.792a7.357,7.357,0,0,0-4.4-2.347,24.1,24.1,0,0,0-6.9,0" transform="translate(436.011 -3676.247)"/><path class="a" d="M-372.52,3696.712a7.357,7.357,0,0,1,4.4-2.348,24.109,24.109,0,0,1,6.9,0" transform="translate(407.07 -3676.2)"/><g transform="translate(6.021)"><path class="a" d="M-419.862,3658.54a27.45,27.45,0,0,0-7.653,4.142c-9.336,7.6-11.284,14.219-13.414,20.1,0,.01-.01.01-.028-.009" transform="translate(440.957 -3655.462)"/><path class="a" d="M-384.129,3651.157c3.473,1.891,6.976,3.753,10.244,5.942,7.75,5.193,12.493,12.351,15.687,21" transform="translate(407.819 -3651.157)"/></g></g></g></g></svg>