<svg xmlns="http://www.w3.org/2000/svg" width="29.626" height="29.626" viewBox="0 0 29.626 29.626"><defs><style>.a{fill:#fff;}</style></defs><path class="a" d="M27.249,19.446a16.821,16.821,0,0,1-5.282-.841,2.415,2.415,0,0,0-2.348.5l-3.331,2.515A18.409,18.409,0,0,1,8.01,13.339l2.441-3.244a2.4,2.4,0,0,0,.589-2.426A16.846,16.846,0,0,1,10.2,2.377,2.38,2.38,0,0,0,7.818,0H2.377A2.38,2.38,0,0,0,0,2.377,27.28,27.28,0,0,0,27.249,29.626a2.38,2.38,0,0,0,2.377-2.377V21.823A2.38,2.38,0,0,0,27.249,19.446Z"/></svg>