<svg xmlns="http://www.w3.org/2000/svg" xmlns:xlink="http://www.w3.org/1999/xlink" width="287" height="90" viewBox="0 0 287 90"><defs><style>.a{fill:none;}.b{clip-path:url(#a);}.c{clip-path:url(#b);}.d{fill:url(#c);}.e{clip-path:url(#d);}.f{fill:url(#e);}.g{clip-path:url(#f);}.h{fill:url(#g);}.i{clip-path:url(#h);}.j{fill:url(#i);}.k,.l{fill:#fff;}.k{fill-rule:evenodd;}</style><clipPath id="a"><rect class="a" width="287" height="90" transform="translate(0.204 0.003)"/></clipPath><clipPath id="b"><path class="a" d="M9.774,10.457v47.2a2.531,2.531,0,0,0,2.321,2.491,3.977,3.977,0,0,0,2.13-.594L57.5,35.9a2.223,2.223,0,0,0,1.386-1.839A2.226,2.226,0,0,0,57.5,32.216L14.225,8.558a3.977,3.977,0,0,0-2.13-.594,2.535,2.535,0,0,0-2.321,2.493" transform="translate(-9.774 -7.964)"/></clipPath><linearGradient id="c" x1="-0.274" y1="1.236" x2="-0.236" y2="1.236" gradientUnits="objectBoundingBox"><stop offset="0" stop-color="#006884"/><stop offset="1" stop-color="#8ad1d0"/></linearGradient><clipPath id="d"><path class="a" d="M10.627,8.011l26.2,26.2,8.22-8.222L13.165,8.558a3.977,3.977,0,0,0-2.13-.594,1.78,1.78,0,0,0-.408.047" transform="translate(-10.627 -7.964)"/></clipPath><linearGradient id="e" x1="-0.54" y1="1.875" x2="-0.483" y2="1.875" gradientUnits="objectBoundingBox"><stop offset="0" stop-color="#24bbb6"/><stop offset="1" stop-color="#dbe692"/></linearGradient><clipPath id="f"><path class="a" d="M22.312,24.224l8.021,8.025L41.925,25.91a2.223,2.223,0,0,0,1.386-1.839,2.226,2.226,0,0,0-1.386-1.841L30.532,16Z" transform="translate(-22.312 -16.002)"/></clipPath><linearGradient id="g" x1="-2.382" y1="3.312" x2="-2.275" y2="3.312" gradientUnits="objectBoundingBox"><stop offset="0" stop-color="#fcc072"/><stop offset="1" stop-color="#f58a5b"/></linearGradient><clipPath id="h"><path class="a" d="M10.771,45.576l-.025.025a1.009,1.009,0,0,0,.141.007,3.977,3.977,0,0,0,2.13-.594L44.7,27.694,36.68,19.669Z" transform="translate(-10.746 -19.669)"/></clipPath><linearGradient id="i" x1="-0.471" y1="1.273" x2="-0.418" y2="1.273" gradientUnits="objectBoundingBox"><stop offset="0" stop-color="#712b8f"/><stop offset="1" stop-color="#ea1d27"/></linearGradient></defs><g transform="translate(-0.204 -0.003)"><g class="b"><path d="M278.039,89.69H8.969A8.969,8.969,0,0,1,0,80.721V8.969A8.969,8.969,0,0,1,8.969,0h269.07a8.969,8.969,0,0,1,8.969,8.969V80.721a8.969,8.969,0,0,1-8.969,8.969"/></g><g transform="translate(21.916 17.857)"><g class="c"><rect class="d" width="60.068" height="62.322" transform="translate(-11.995 2.921) rotate(-13.685)"/></g></g><g transform="translate(23.828 17.857)"><g class="e"><rect class="f" width="39.457" height="42.761" transform="matrix(0.476, -0.88, 0.88, 0.476, -10.98, 20.31)"/></g></g><g transform="translate(50.029 35.88)"><g class="g"><rect class="h" width="21.003" height="16.247" transform="translate(0)"/></g></g><g transform="translate(24.095 44.103)"><g class="i"><rect class="j" width="42.299" height="42.399" transform="matrix(0.701, -0.713, 0.713, 0.701, -12.967, 13.197)"/></g></g><g class="b"><path class="k" d="M111.626,53.541a12.524,12.524,0,0,1-2.491-3.4l3.617-1.536a7.565,7.565,0,0,0,1.1,1.7A4.944,4.944,0,0,0,117.53,52a4.861,4.861,0,0,0,3.821-1.8,6.37,6.37,0,0,0,1.036-3.767V45.02c-2.581,3.321-8.222,2.857-11.379-.579a9.944,9.944,0,0,1,.072-13.285c3.366-3.339,8.361-3.758,11.3-.6l.007.007v-1.6H126.3V45.987c0,4.332-1.59,6.776-3.565,8.2a9.29,9.29,0,0,1-5.254,1.522,8.655,8.655,0,0,1-5.857-2.17m93.843.94h0l3.78-8.956L202.556,30h3.812l4.769,11.061L215.8,30h3.812L209.281,54.48Zm-18.095-8.552h0a6.015,6.015,0,0,1-1.679-4.159,5.234,5.234,0,0,1,1.386-3.655,8.426,8.426,0,0,1,6.267-2.343,8.179,8.179,0,0,1,4.043.926,3.68,3.68,0,0,0-3.953-3.78,3.825,3.825,0,0,0-3.718,2.413L186.3,33.943c.61-1.655,2.527-4.48,7.059-4.48a8.016,8.016,0,0,1,5.828,2.3c1.426,1.518,1.9,3.41,1.9,5.924v9.4H197.35V45.406a6.363,6.363,0,0,1-2.045,1.621,7.172,7.172,0,0,1-3.128.632,7.071,7.071,0,0,1-4.8-1.731M67.914,37.843h0a9.328,9.328,0,1,1,9.328,9.417,9.323,9.323,0,0,1-9.328-9.417m20.247,0h0a9.327,9.327,0,1,1,9.326,9.417,9.321,9.321,0,0,1-9.326-9.417M42.648,42.794h0A14.571,14.571,0,0,1,63.028,21.97l-2.8,2.919a10.184,10.184,0,0,0-14.445.2,10.831,10.831,0,0,0-.1,14.971,10.3,10.3,0,0,0,14.758.244,8.678,8.678,0,0,0,2.105-5.027H53.092v-4H66.387a16.5,16.5,0,0,1,.22,3.047A12.824,12.824,0,0,1,53.249,47.233a15.213,15.213,0,0,1-10.6-4.44m94.695,1.677h0a10.182,10.182,0,0,1,0-13.344,8.194,8.194,0,0,1,12.22-.025,14.311,14.311,0,0,1,2.395,4.33l-12.436,5.236a4.848,4.848,0,0,0,4.422,2.868c1.937,0,3.256-.648,4.646-2.619l3.253,2.188c-.374.493-.834.984-1.182,1.366a9.435,9.435,0,0,1-13.319,0M160.7,47.1h0V22.311h7.978c4.81,0,8.438,3.363,8.438,7.507a7.608,7.608,0,0,1-7.7,7.509h-4.933V47.1Zm18.889,0h0v-24.8h3.783V47.1Zm-50.632-.4h0V18.954H133.1V46.7Zm68.4-6.868h0a6.714,6.714,0,0,0-3.565-.91c-2.688,0-4.209,1.361-4.209,2.848,0,1.659,1.588,2.48,3.072,2.48,2.159,0,4.7-1.8,4.7-4.417M82.446,37.84h0c0-2.7-1.9-5.68-5.2-5.68s-5.206,2.978-5.206,5.68,1.9,5.682,5.206,5.682,5.2-2.98,5.2-5.682m20.245,0h0c0-2.7-1.9-5.68-5.2-5.68s-5.2,2.978-5.2,5.68,1.9,5.682,5.2,5.682,5.2-2.98,5.2-5.682m19.788,1.713h0a5.428,5.428,0,0,0,.148-.673.29.29,0,0,0,.011-.09,5.981,5.981,0,0,0,0-1.933.542.542,0,0,0-.018-.121,5.018,5.018,0,0,0-.211-.836,5.1,5.1,0,0,0-4.778-3.731c-2.792.022-5.041,2.579-5.018,5.709s2.3,5.646,5.09,5.624a5.2,5.2,0,0,0,4.78-3.949m16.4-2.045h0l8.3-3.523a3.834,3.834,0,0,0-3.437-1.942c-3.157,0-5.323,3.592-4.863,5.464m34.378-7.6h0a3.968,3.968,0,0,0-4.229-3.922h-4.545v7.846h4.758a3.96,3.96,0,0,0,4.016-3.924" transform="translate(47.824 22.373)"/><path class="k" d="M114.269,32.28v-.009l-.013,0,0,0v-.02l0,0,.009,0,0-.009-.013,0a.013.013,0,0,0-.013.013v.02c0,.009.007.011.013.011l.013,0" transform="translate(141.917 40.046)"/><path class="k" d="M114.285,32.281l-.011-.018.009-.011v0c0-.009-.009-.011-.016-.011h-.011v.043h0v-.018h.007l.011.018Zm-.011-.029h0l-.007,0h-.007v-.011h.007l.007,0Z" transform="translate(141.934 40.048)"/><path class="k" d="M114.3,32.274h-.02v-.011h.016v-.007h-.016v-.011h.016l0-.007h-.025v.043h.025Z" transform="translate(141.952 40.047)"/><path class="k" d="M114.317,32.281l-.011-.043H114.3l-.013.043h.007l0-.013h.011l0,.013Zm-.011-.02H114.3l0-.011v0Z" transform="translate(141.968 40.048)"/><path class="k" d="M114.325,32.238H114.3v.007h.011v.036h.007v-.036h.009Z" transform="translate(141.983 40.048)"/><path class="k" d="M114.337,32.274h-.02v-.011h.016v-.007h-.016v-.011h.018l0-.007h-.029v.043h.029Z" transform="translate(141.999 40.047)"/><path class="k" d="M114.352,32.267v-.018l-.013-.011h-.016v.043h.016a.013.013,0,0,0,.013-.013m-.007,0h0l-.009.007h0v-.029h0l.009,0Z" transform="translate(142.017 40.048)"/><path class="k" d="M114.372,32.269v0l-.007-.009,0-.007c0-.009,0-.011-.011-.011h-.013v.043h.013c.007,0,.013,0,.013-.011m-.007-.02h0l-.009,0h0v-.009h0l.007,0m0,.018h0l-.007.007h0V32.26h0l.007,0Z" transform="translate(142.045 40.048)"/><path class="k" d="M114.392,32.238h-.009l-.007.016v0l0,0-.007-.016h-.009l.011.025v.018h.009v-.018Z" transform="translate(142.061 40.048)"/><path class="k" d="M114.42,32.279h-.025V32.23h-.013v.061h.036Z" transform="translate(142.09 40.038)"/><path class="k" d="M114.443,32.277v-.034c0-.011-.011-.016-.022-.016s-.02,0-.02.016v.034c0,.011.011.016.02.016s.022,0,.022-.016m-.011,0h0l-.011.009-.009-.009v-.029l.009-.007.011.007Z" transform="translate(142.113 40.035)"/><path class="k" d="M114.464,32.294v-.038h-.022v.011h.011v.011l-.011,0-.007-.007v-.027l.009-.007.011.007.009-.009-.02-.009c-.009,0-.022,0-.022.018v.029c0,.011.011.016.02.016l.013,0Z" transform="translate(142.139 40.036)"/><path class="k" d="M114.488,32.277v-.034c0-.011-.011-.016-.022-.016s-.022,0-.022.016v.034c0,.011.013.016.022.016s.022,0,.022-.016m-.011,0h0l-.011.009-.009-.009v-.029l.009-.007.011.007Z" transform="translate(142.166 40.035)"/><path class="k" d="M114.537,32.29V32.23h-.011l-.02.043-.02-.043h-.009v.061h.011v-.031l0-.009.018.04h.009l.016-.038,0,.007v.031Z" transform="translate(142.209 40.037)"/><path class="k" d="M114.558,32.292l-.018-.063h-.016l-.018.063h.011l0-.018h.018l0,.018Zm-.018-.029h-.013l0-.016v0Z" transform="translate(142.245 40.036)"/><path class="k" d="M114.57,32.278a.023.023,0,0,0-.011-.022l-.016-.011.009-.007.011,0,0-.009-.016,0c-.013,0-.02,0-.02.016l.011.018.016.011-.009.009-.013-.009-.007.009.02.009a.022.022,0,0,0,.02-.013" transform="translate(142.275 40.036)"/><path class="k" d="M114.591,32.229h-.043v.009h.016v.052h.011v-.052h.013Z" transform="translate(142.297 40.037)"/><path class="k" d="M114.609,32.279h-.027v-.018h.022V32.25h-.022v-.013h.022l0-.007h-.04v.061h.04Z" transform="translate(142.323 40.038)"/><path class="k" d="M114.635,32.292l-.02-.027a.016.016,0,0,0,.013-.016v0c0-.013-.007-.016-.02-.016h-.018v.063h.009v-.025h.007l.016.025Zm-.016-.045h0l-.011.009H114.6v-.018h.009l.011.007Z" transform="translate(142.349 40.036)"/><path class="l" d="M38.923,13.668a6.33,6.33,0,0,1,6.608-6.514,5.894,5.894,0,0,1,5.061,2.605L48.8,10.8a4.054,4.054,0,0,0-3.267-1.682,4.3,4.3,0,0,0-4.341,4.55,4.323,4.323,0,0,0,4.341,4.55,4.509,4.509,0,0,0,2.984-1.132V15.141H44.737V13.2H50.7v4.7A6.8,6.8,0,0,1,45.529,20.2a6.356,6.356,0,0,1-6.606-6.534" transform="translate(48.352 8.887)"/><path class="l" d="M45.4,19.841V7.246h8.628V9.19H47.6v3.249h6.29v1.944H47.6v3.511h6.422v1.946Z" transform="translate(56.392 9.002)"/><path class="l" d="M54.083,19.84V9.191H50.269V7.247h9.837V9.191H56.291V19.84Z" transform="translate(62.446 9.003)"/><rect class="l" width="2.206" height="12.595" transform="translate(130.23 16.25)"/><path class="l" d="M63.922,19.84V9.191H60.108V7.247h9.837V9.191H66.13V19.84Z" transform="translate(74.668 9.003)"/><path class="l" d="M67.675,13.668a6.439,6.439,0,1,1,12.877,0,6.439,6.439,0,1,1-12.877,0m10.61,0c0-2.605-1.644-4.55-4.173-4.55-2.549,0-4.173,1.944-4.173,4.55,0,2.585,1.623,4.55,4.173,4.55,2.529,0,4.173-1.964,4.173-4.55" transform="translate(84.069 8.887)"/><path class="l" d="M83.346,19.841l-6.57-9.007v9.007H74.569V7.246h2.265l6.44,8.725V7.246h2.209V19.841Z" transform="translate(92.634 9.002)"/></g></g></svg>