<svg xmlns="http://www.w3.org/2000/svg" width="91" height="92" viewBox="0 0 91 92"><defs><style>.a,.j{fill:none;}.a{stroke:#a8a8a8;}.b{fill:#fff7e8;}.c{fill:#fff1d6;}.d{fill:#fec22d;}.e{fill:#fd561f;}.f{fill:#1caafc;}.g{fill:#62c6ff;}.h{fill:#f87f58;}.i{stroke:none;}</style></defs><g transform="translate(-610 -587.901)"><g class="a" transform="translate(610 587.901)"><rect class="i" width="91" height="92" rx="15"/><rect class="j" x="0.5" y="0.5" width="90" height="91" rx="14.5"/></g><g transform="translate(623 600.358)"><g transform="translate(0.983 0.983)"><g transform="translate(0 43.451)"><path class="b" d="M99.9,388.253H49.5a5.958,5.958,0,0,1,0-11.915H99.9a9.994,9.994,0,0,0,0,11.915Z" transform="translate(-38.831 -371.46)"/><path class="c" d="M425.776,376.337h-5.241a9.994,9.994,0,0,0,0,11.915h5.241A9.994,9.994,0,0,1,425.776,376.337Z" transform="translate(-364.704 -371.459)"/><path class="d" d="M70.246,360.783H18.315a10.835,10.835,0,0,1,0-21.671H70.246a2.379,2.379,0,0,1,0,4.758H18.315a6.077,6.077,0,0,0,0,12.154H70.246a2.379,2.379,0,0,1,0,4.758Z" transform="translate(-7.5 -339.112)"/></g><g transform="translate(0)"><path class="b" d="M99.9,56.642H49.5a5.958,5.958,0,0,1,0-11.915H99.9A9.994,9.994,0,0,0,99.9,56.642Z" transform="translate(-38.831 -39.849)"/><path class="c" d="M425.776,44.726h-5.241a9.994,9.994,0,0,0,0,11.915h5.241A9.994,9.994,0,0,1,425.776,44.726Z" transform="translate(-364.704 -39.848)"/><path class="e" d="M70.246,29.171H18.315a10.835,10.835,0,0,1,0-21.671H70.246a2.379,2.379,0,0,1,0,4.758H18.315a6.077,6.077,0,0,0,0,12.154H70.246a2.379,2.379,0,0,1,0,4.759Z" transform="translate(-7.5 -7.5)"/></g><g transform="translate(0 21.78)"><path class="b" d="M38.4,210.949H88.8a5.958,5.958,0,0,1,0,11.915H38.4A9.994,9.994,0,0,0,38.4,210.949Z" transform="translate(-34.352 -206.071)"/><path class="f" d="M9.875,173.723H61.806a10.835,10.835,0,0,1,0,21.671H9.875a2.379,2.379,0,0,1,0-4.758H61.806a6.077,6.077,0,0,0,0-12.154H9.875a2.379,2.379,0,0,1,0-4.758Z" transform="translate(-7.5 -173.723)"/><path class="g" d="M387.2,173.723h-5.241a10.834,10.834,0,0,1,10.267,7.437,6.075,6.075,0,0,1,0,6.8,10.834,10.834,0,0,1-10.267,7.437H387.2a10.835,10.835,0,0,0,0-21.671Z" transform="translate(-332.894 -173.723)"/></g><path class="e" d="M315.083,256.417h8.632v20.369l-4.24-4.1-4.391,4.1Z" transform="translate(-274.781 -223.802)"/><g transform="translate(44.618 32.615)"><path class="h" d="M348.02,256.417V272.76l.076-.071,4.24,4.1V256.417Z" transform="translate(-348.02 -256.417)"/></g></g><path d="M67.087,20.274a3.363,3.363,0,0,0-3.357-3.362H62.646a9.01,9.01,0,0,1,0-10.189h1.083c4.321,0,4.351-6.724,0-6.724H25.152a.983.983,0,0,0,0,1.965H63.729a1.4,1.4,0,0,1,0,2.793H11.8a7.06,7.06,0,0,0,0,14.12H63.729c1.776,0,1.793,2.9,0,2.9H11.8a9.688,9.688,0,0,1-6.944-2.939,9.959,9.959,0,0,1-2.889-7.023A9.854,9.854,0,0,1,11.8,1.965h8.117a.983.983,0,0,0,0-1.965H11.8A11.856,11.856,0,0,0,3.454,20.22a12.05,12.05,0,0,0,1.883,1.56H3.358a3.362,3.362,0,0,0,0,6.724H4.44A8.938,8.938,0,0,1,6.019,33.6,8.939,8.939,0,0,1,4.44,38.692H3.358a3.362,3.362,0,0,0,0,6.724H5.291A11.819,11.819,0,0,0,11.8,67.087H63.729c4.321,0,4.351-6.724,0-6.724H62.646a9.01,9.01,0,0,1,0-10.189h1.083c4.321,0,4.351-6.724,0-6.724H61.8a11.82,11.82,0,0,0,0-19.705h1.933a3.462,3.462,0,0,0,3.357-3.471ZM6.715,11.818A5.1,5.1,0,0,1,11.8,6.724H60.354a10.991,10.991,0,0,0,0,10.189H11.8A5.094,5.094,0,0,1,6.715,11.818ZM6.732,28.5H55.289a5.094,5.094,0,0,1,0,10.189H50.9V34.581h2.349a.983.983,0,0,0,0-1.965H19.4a.983.983,0,0,0,0,1.965H40.3v4.112H6.732A10.892,10.892,0,0,0,7.984,33.6,10.893,10.893,0,0,0,6.732,28.5Zm35.535,6.077h6.666v17.07l-2.574-2.487a.983.983,0,0,0-1.353-.012l-2.738,2.554V34.581Zm-38.91,8.87a1.4,1.4,0,0,1,0-2.793H40.3v2.793Zm57,16.912H48.481a.983.983,0,0,0,0,1.965H63.729a1.4,1.4,0,0,1,0,2.793H11.8a9.853,9.853,0,0,1,0-19.705H40.3v2.793H11.8a7.06,7.06,0,0,0,0,14.119H43.236a.983.983,0,0,0,0-1.965H11.8a5.094,5.094,0,0,1,0-10.189H40.3v3.792a.991.991,0,0,0,1.653.719l3.709-3.46,3.569,3.448a.988.988,0,0,0,1.666-.707V50.174h9.455a10.991,10.991,0,0,0,0,10.189Zm3.375-14.947a1.4,1.4,0,0,1,0,2.793H50.9V45.416h12.83ZM65.121,33.6a9.854,9.854,0,0,1-9.833,9.853H50.9V40.658h4.39a7.06,7.06,0,0,0,0-14.12H3.358a1.4,1.4,0,0,1,0-2.793H55.289A9.854,9.854,0,0,1,65.121,33.6Z" transform="translate(0)"/></g></g></svg>