<svg xmlns="http://www.w3.org/2000/svg" xmlns:xlink="http://www.w3.org/1999/xlink" width="242" height="54.452" viewBox="0 0 242 54.452"><defs><style>.a,.d,.n{fill:none;}.b{fill:#0af;}.c{fill:#7a1dff;}.d{stroke:#0af;stroke-miterlimit:10;}.e{fill:#f72163;}.f{fill:#fd5601;}.g{fill:#ffc208;}.h{fill:#9de411;}.i{fill:#161e3f;}.j{clip-path:url(#a);}.k{fill:#f26522;}.l{fill:#e51b24;}.m{fill:#f99f1c;}.n{stroke:#161e3f;stroke-linecap:round;stroke-width:2px;}</style><clipPath id="a"><rect class="a" width="70" height="54.452" transform="translate(0 0)"/></clipPath></defs><g transform="translate(-942 -12.774)"><g transform="translate(942 19)"><path class="b" d="M1278.333,450.234l-5.14,3.734,5.562,17.117,5.14-3.734Z" transform="translate(-1245.01 -430.517)"/><path class="c" d="M1267.364,465.673l-9.421,6.845-5.14-3.734,14.561-10.579,14.561,10.579-5.14,3.734Z" transform="translate(-1245.01 -430.517)"/><path class="d" d="M1246.973,443.39" transform="translate(-1245.01 -430.161)"/><path class="e" d="M1246.973,443.39l14.561,10.579-5.562,17.117-5.14-3.734,3.6-11.075-9.421-6.845Z" transform="translate(-1245.01 -430.517)"/><path class="d" d="M1287.754,443.39" transform="translate(-1245.01 -430.161)"/><path class="f" d="M1259.371,441.073l3.6-11.075h6.353l-5.562,17.117h-18l1.963-6.042Z" transform="translate(-1245.01 -429.998)"/><path class="g" d="M1275.356,441.073l-3.6-11.075H1265.4l5.562,17.117h18L1287,441.073Z" transform="translate(-1245.01 -429.998)"/><path class="h" d="M1288.965,447.115,1287,441.073l-19.637,14.267-8.246-5.991-1.963,6.042,10.209,7.418Z" transform="translate(-1245.01 -430.275)"/><g transform="translate(45.668 10.772)"><path class="i" d="M1299.118,444.83a7.78,7.78,0,0,0-7.888,7.888,7.95,7.95,0,0,0,8.13,8.069c3.475,0,6.528-2.236,7.374-4.9l-4.11-.695a3.824,3.824,0,0,1-3.234,1.632c-2.025,0-3.445-1.058-3.506-2.66h11.122V453.02A7.853,7.853,0,0,0,1299.118,444.83Zm-3.234,6.165c.061-1.148,1.542-2.206,3.234-2.206,1.753,0,3.083,1.027,3.2,2.206Z" transform="translate(-1291.23 -441.022)"/><path class="i" d="M1315.468,449.354l-3.113-4.1h-5.349v.242l5.621,7.284-5.138,7.344v.242h5.259l2.72-3.879,2.72,3.879h5.289v-.3l-5.077-7.283,5.591-7.284v-.242h-5.41Z" transform="translate(-1291.23 -441.022)"/><path class="i" d="M1331.032,441.022h-.936l-6.1,7.918v.423h2.327v2.206c0,5.894,4.533,9.006,9.671,9.006v-4.623c-2.63-.031-5.017-1.33-5.017-4.383v-2.206h5.017v-4.11h-4.957Z" transform="translate(-1291.23 -441.022)"/><path class="i" d="M1343.846,448.215h-.03v-2.962l-4.593-.03v15.141h4.593v-4.171a6.789,6.789,0,0,1,6.982-7.041l-1.451-4.231A6.637,6.637,0,0,0,1343.846,448.215Z" transform="translate(-1291.23 -441.022)"/><path class="i" d="M1363.188,445.182v1.452a6.428,6.428,0,0,0-4.648-1.847c-3.827,0-7.138,3.493-7.138,7.958,0,4.5,3.311,8.05,7.138,8.05a6.3,6.3,0,0,0,4.648-1.957v1.532h4.374V445.182Zm-3.463,11.421a3.843,3.843,0,0,1,0-7.685,3.537,3.537,0,0,1,3.463,3.827C1363.188,454.9,1361.821,456.6,1359.725,456.6Z" transform="translate(-1291.23 -441.022)"/></g></g><g transform="translate(660.284 -106.211)"><g class="j" transform="translate(453.716 118.985)"><path d="M476.716,304.795v-3.622A2.094,2.094,0,0,0,474.5,298.9a2.227,2.227,0,0,0-2.021,1.022,2.113,2.113,0,0,0-1.9-1.022,1.968,1.968,0,0,0-1.733.842v-.7h-1.155v5.751h1.167v-3.3a1.38,1.38,0,0,1,1.457-1.528c.83,0,1.3.541,1.3,1.516v3.309h1.167v-3.3a1.391,1.391,0,0,1,1.456-1.528c.855,0,1.311.541,1.311,1.516v3.309Zm18.747-5.751h-2.094V297.3H492.2v1.745h-1.216v1.046H492.2v2.719c0,1.336.469,2.13,1.949,2.13a2.938,2.938,0,0,0,1.564-.445l-.361-1.023a2.313,2.313,0,0,1-1.107.325c-.626,0-.879-.385-.879-.963V300.09h2.094Zm10.673-.144a1.778,1.778,0,0,0-1.565.842v-.7h-1.143v5.751h1.156v-3.237c0-.951.457-1.564,1.275-1.564a2.034,2.034,0,0,1,.782.145l.384-1.083a2.691,2.691,0,0,0-.89-.156M490,299.5a4.3,4.3,0,0,0-2.347-.6c-1.456,0-2.347.685-2.347,1.829,0,.939.649,1.5,1.937,1.684l.59.084c.686.1,1.059.337,1.059.662,0,.445-.506.734-1.36.734a2.987,2.987,0,0,1-1.913-.6l-.59.9a4.29,4.29,0,0,0,2.491.746c1.66,0,2.575-.77,2.575-1.865,0-1.011-.7-1.529-1.962-1.709l-.589-.085c-.542-.072-1.023-.241-1.023-.626,0-.421.457-.71,1.143-.71a3.709,3.709,0,0,1,1.793.493Zm17.447,2.418a2.867,2.867,0,0,0,3.021,3.02,3.013,3.013,0,0,0,2.069-.685l-.6-.9a2.529,2.529,0,0,1-1.5.517,1.957,1.957,0,0,1,0-3.9,2.529,2.529,0,0,1,1.5.517l.6-.9a3.015,3.015,0,0,0-2.069-.685,2.867,2.867,0,0,0-3.021,3.02m-8.086-3.02a2.782,2.782,0,0,0-2.84,3.008,2.828,2.828,0,0,0,2.925,3.032,3.5,3.5,0,0,0,2.358-.806l-.614-.855a2.739,2.739,0,0,1-1.672.6,1.692,1.692,0,0,1-1.769-1.492h4.3c.013-.156.024-.312.024-.481a2.729,2.729,0,0,0-2.707-3.008m-.024,1.07a1.465,1.465,0,0,1,1.516,1.456h-3.1a1.538,1.538,0,0,1,1.588-1.456m-15.57,1.949v-2.875h-1.155v.7a2.279,2.279,0,0,0-1.865-.842,3.026,3.026,0,0,0,0,6.04,2.28,2.28,0,0,0,1.865-.842v.7h1.155Zm-4.656,0a1.8,1.8,0,0,1,1.793-1.949,1.96,1.96,0,0,1,0,3.9,1.8,1.8,0,0,1-1.793-1.949m44.4-3.02a1.776,1.776,0,0,0-1.564.842v-.7H520.8v5.751h1.155v-3.237c0-.951.457-1.564,1.276-1.564a2.036,2.036,0,0,1,.782.145l.385-1.083a2.7,2.7,0,0,0-.891-.156m9.268,5.061a.592.592,0,0,1,.41.168.583.583,0,0,1,.124.182.555.555,0,0,1,.046.222.548.548,0,0,1-.046.221.587.587,0,0,1-.124.181.61.61,0,0,1-.184.123.582.582,0,0,1-.226.045.6.6,0,0,1-.23-.045.588.588,0,0,1-.186-.123.57.57,0,0,1-.124-.181.548.548,0,0,1-.046-.221.555.555,0,0,1,.046-.222.567.567,0,0,1,.124-.182.555.555,0,0,1,.186-.122.585.585,0,0,1,.23-.046m0,1.016a.429.429,0,0,0,.172-.035.45.45,0,0,0,.139-.095.446.446,0,0,0,0-.63.437.437,0,0,0-.311-.129.439.439,0,0,0-.413.27.465.465,0,0,0,0,.347.448.448,0,0,0,.094.141.462.462,0,0,0,.143.095.443.443,0,0,0,.175.035m.033-.712a.238.238,0,0,1,.158.046.151.151,0,0,1,.055.124.144.144,0,0,1-.044.108.213.213,0,0,1-.125.052l.173.2h-.136l-.16-.2h-.052v.2h-.114v-.53Zm-.131.1v.142h.13a.127.127,0,0,0,.072-.018.066.066,0,0,0,0-.106.129.129,0,0,0-.072-.018Zm-13.6-2.445v-2.875h-1.156v.7a2.277,2.277,0,0,0-1.865-.842,3.026,3.026,0,0,0,0,6.04,2.278,2.278,0,0,0,1.865-.842v.7h1.156Zm-4.657,0a1.8,1.8,0,0,1,1.793-1.949,1.96,1.96,0,0,1,0,3.9,1.8,1.8,0,0,1-1.793-1.949m16.268,0v-5.186h-1.156v3.008a2.278,2.278,0,0,0-1.865-.842,3.026,3.026,0,0,0,0,6.04,2.279,2.279,0,0,0,1.865-.842v.7h1.156Zm-4.657,0a1.8,1.8,0,0,1,1.793-1.949,1.96,1.96,0,0,1,0,3.9,1.8,1.8,0,0,1-1.793-1.949" transform="translate(-464.068 -250.65)"/><rect class="k" width="20.824" height="34.015" transform="translate(24.588 4.625)"/><path class="l" d="M480.454,140.617a21.6,21.6,0,0,1,8.262-17.007,21.633,21.633,0,1,0,0,34.015,21.6,21.6,0,0,1-8.262-17.007" transform="translate(-453.716 -118.984)"/><path class="m" d="M714.515,251.729v-.7h.281v-.143h-.714v.143h.281v.7Zm1.389,0v-.839h-.219l-.252.577-.252-.577h-.219v.839h.154V251.1l.237.546h.16l.236-.548v.635Z" transform="translate(-646.579 -216.692)"/><path class="m" d="M623.717,140.617a21.632,21.632,0,0,1-35,17.007,21.635,21.635,0,0,0,0-34.015,21.632,21.632,0,0,1,35,17.007" transform="translate(-553.717 -118.984)"/></g></g><line class="n" y2="37" transform="translate(1089 19.5)"/></g></svg>