<svg xmlns="http://www.w3.org/2000/svg" width="91" height="92" viewBox="0 0 91 92"><defs><style>.a,.k{fill:none;}.a{stroke:#a8a8a8;}.b{fill:#ffdb83;}.c{fill:#fec22d;}.d{fill:#7a24fb;}.e{fill:#6e61b6;}.f{fill:#6354b1;}.g{fill:#fd561f;}.h{fill:#ff8d67;}.i{fill:#21ba45;}.j{stroke:none;}</style></defs><g transform="translate(-738 -587.901)"><g class="a" transform="translate(738 587.901)"><rect class="j" width="91" height="92" rx="15"/><rect class="k" x="0.5" y="0.5" width="90" height="91" rx="14.5"/></g><g transform="translate(743.09 600.358)"><path class="b" d="M190.459,53.674l10,.764s3.005.354,9.437-.764c0,0,4.843,13.822-9.676,13.822S190.459,53.674,190.459,53.674Z" transform="translate(-159.766 -52.068)"/><path class="c" d="M85.878,63.573l-6.105,11.5a.634.634,0,0,1-.809.286l-8.01-3.417a.424.424,0,0,0-.59.39V93.158H23.089V72.329a.424.424,0,0,0-.59-.39l-8.013,3.417a.634.634,0,0,1-.808-.286l-6.1-11.5a.636.636,0,0,1,.182-.809l8.777-6.52a17.735,17.735,0,0,1,7.757-3.273l12.218-1.967a.434.434,0,0,1,.5.416c.3,9.918,9.758,9.7,9.758,9.7s9.374.218,9.676-9.7a.434.434,0,0,1,.5-.416l12.218,1.967a17.732,17.732,0,0,1,7.755,3.272l8.777,6.52A.636.636,0,0,1,85.878,63.573Z" transform="translate(-6.316 -49.816)"/><g transform="translate(50.115 1.184)"><path class="b" d="M375.742,186.943V205.5h4.736V184.666l-1.844-.25A2.549,2.549,0,0,0,375.742,186.943Z" transform="translate(-366.545 -163.337)"/><path class="b" d="M346.745,62.764l-8.777-6.52a17.732,17.732,0,0,0-7.755-3.272l-12.218-1.967a.433.433,0,0,0-.5.414c0,.09-.008.177-.012.266l8,1.287a17.731,17.731,0,0,1,7.755,3.272l6.855,5.092a3.421,3.421,0,0,1,.982,4.351l-4.381,8.25,3.326,1.418a.634.634,0,0,0,.809-.286l6.105-11.5A.636.636,0,0,0,346.745,62.764Z" transform="translate(-317.481 -51)"/></g><path class="d" d="M153.532,318.077v21.916a.644.644,0,0,1-.644.645h-16.87a.644.644,0,0,1-.644-.645v-1.187a5.48,5.48,0,1,0-10.96,0v1.187a.644.644,0,0,1-.644.645H106.9a.644.644,0,0,1-.644-.645V318.077Z" transform="translate(-89.485 -274.735)"/><g transform="translate(58.668 43.342)"><path class="e" d="M372.308,318.076v21.916a.644.644,0,0,1-.644.645H376.4a.644.644,0,0,0,.644-.645V318.076Z" transform="translate(-371.664 -318.076)"/></g><path class="e" d="M110.027,340.422h-3.769v-9.007h9.471v3.306A5.7,5.7,0,0,1,110.027,340.422Z" transform="translate(-89.485 -285.967)"/><path class="e" d="M355.213,340.422h-3.769a5.7,5.7,0,0,1-5.7-5.7v-3.306h9.471Z" transform="translate(-291.166 -285.967)"/><path class="f" d="M375.742,331.416v8.924a5.728,5.728,0,0,0,.966.083h3.77v-9.007Z" transform="translate(-316.431 -285.968)"/><path class="g" d="M106.258,297.4h47.274v5.37H106.258Z" transform="translate(-89.485 -257.319)"/><path class="h" d="M375.742,297.4h4.736v5.37h-4.736Z" transform="translate(-316.431 -257.319)"/><path class="i" d="M225.816,302.768H218.5a2.685,2.685,0,1,1,0-5.37h7.317a2.685,2.685,0,1,1,0,5.37Z" transform="translate(-181.748 -257.32)"/><g transform="translate(20.933 1.19)"><path class="g" d="M137.972,89.925h-5.361V51.984a.947.947,0,0,1,.947-.947h3.466a.947.947,0,0,1,.947.947Z" transform="translate(-132.611 -51.037)"/><path class="g" d="M350.79,89.925h-5.361V51.984a.947.947,0,0,1,.947-.947h3.466a.947.947,0,0,1,.947.947Z" transform="translate(-311.836 -51.037)"/></g><path class="i" d="M135.267,142.436a2.656,2.656,0,0,1-2.656-2.656v-2.59a2.656,2.656,0,0,1,5.311,0v2.59A2.656,2.656,0,0,1,135.267,142.436Z" transform="translate(-111.678 -120.165)"/><path class="i" d="M348.241,142.436a2.656,2.656,0,0,1-2.656-2.656v-2.59a2.656,2.656,0,0,1,5.311,0v2.59A2.655,2.655,0,0,1,348.241,142.436Z" transform="translate(-291.034 -120.165)"/><path d="M80.082,55.5l-4.341-3.225a1.184,1.184,0,0,0-1.412,1.9l3.963,2.945L72.646,67.753,65.1,64.533a1.608,1.608,0,0,0-2.236,1.48V82.394H61.07V47.57l1.588.256a16.614,16.614,0,0,1,7.237,3.052,1.184,1.184,0,0,0,1.411-1.9,18.989,18.989,0,0,0-8.272-3.489l-2.017-.325a2.135,2.135,0,0,0-2.078-1.657H55.472a2.122,2.122,0,0,0-1.414.538l-3.238-.521a1.611,1.611,0,0,0-1.462.513,35.751,35.751,0,0,1-8.531.659l-.048,0L31.4,43.972q-.055-.055-.115-.1A1.61,1.61,0,0,0,30,43.521l-3.244.522a2.122,2.122,0,0,0-1.414-.538H21.88A2.135,2.135,0,0,0,19.8,45.164l-2.015.325a18.975,18.975,0,0,0-8.275,3.491L.736,55.5a1.811,1.811,0,0,0-.522,2.313l6.1,11.5a1.807,1.807,0,0,0,2.318.818l6.954-2.966v41.6a1.83,1.83,0,0,0,1.828,1.828h7.268a1.184,1.184,0,1,0,0-2.368H17.958v-9.08h2.585a6.893,6.893,0,0,0,6.885-6.885V90.132H53.391v2.122a6.893,6.893,0,0,0,6.885,6.885h2.585v9.08H47.072v-.647a6.663,6.663,0,1,0-13.325,0v.647H30.32a1.184,1.184,0,1,0,0,2.368h3.967a1.83,1.83,0,0,0,1.828-1.828v-1.187a4.295,4.295,0,1,1,8.59,0v1.187a1.83,1.83,0,0,0,1.828,1.828H63.4a1.83,1.83,0,0,0,1.828-1.828v-41.6l6.952,2.966A1.808,1.808,0,0,0,74.5,69.31l6.106-11.5a1.81,1.81,0,0,0-.523-2.312ZM62.861,87.764H47.633a3.868,3.868,0,0,0,0-3H62.861Zm-44.9,0v-3H33.186a3.868,3.868,0,0,0,0,3Zm4.159-27.239a1.472,1.472,0,0,1,2.943,0v2.59a1.472,1.472,0,0,1-2.943,0Zm0,6.137a3.839,3.839,0,0,0,2.993-.021V82.394H22.117Zm5.36,15.732V46.326l2.08-.335c.431,5.128,3.249,7.582,5.6,8.745A12.64,12.64,0,0,0,40.4,55.99h.047A12.457,12.457,0,0,0,45.7,54.735c2.336-1.163,5.131-3.617,5.559-8.743l2.08.335V82.394H27.478Zm28.231,0V66.652a3.838,3.838,0,0,0,2.993,0V82.394Zm.025-19.278v-2.59a1.472,1.472,0,0,1,2.943,0v2.59a1.472,1.472,0,1,1-2.943,0ZM58.7,56.99a3.838,3.838,0,0,0-2.993,0V45.874H58.7ZM42.067,47.106a45.69,45.69,0,0,0,6.751-.588c-1.05,7.14-8.026,7.108-8.34,7.1h-.051c-.322,0-7.449.038-8.443-7.23l8.6.657C40.707,47.062,41.2,47.106,42.067,47.106ZM25.11,45.874V57a3.839,3.839,0,0,0-2.993-.021V46.2c0-.01,0-.021,0-.031v-.293ZM8.172,67.753,2.526,57.118l8.4-6.239a16.6,16.6,0,0,1,7.239-3.054l1.586-.256V82.394H17.958V66.013a1.609,1.609,0,0,0-2.239-1.479Zm16.888,24.5a4.523,4.523,0,0,1-4.518,4.518H17.958v-6.64h7.1Zm11.691-4.49a1.5,1.5,0,0,1,0-3h7.317a1.5,1.5,0,0,1,0,3Zm23.525,9.008a4.523,4.523,0,0,1-4.518-4.518V90.132h7.1v6.64Z" transform="translate(0 -43.5)"/></g></g></svg>