<svg xmlns="http://www.w3.org/2000/svg" width="91" height="92" viewBox="0 0 91 92"><defs><style>.a,.h{fill:none;}.a{stroke:#a8a8a8;}.b{fill:#1caafc;}.c{fill:#fff;}.d{fill:#fec22d;}.e{fill:#fd561f;}.f{fill:#3a2c60;}.g{stroke:none;}</style></defs><g transform="translate(-866 -587.901)"><g class="a" transform="translate(866 587.901)"><rect class="g" width="91" height="92" rx="15"/><rect class="h" x="0.5" y="0.5" width="90" height="91" rx="14.5"/></g><g transform="translate(871.607 601.784)"><path class="b" d="M13.406,0A13.406,13.406,0,1,1,0,13.406,13.406,13.406,0,0,1,13.406,0Z" transform="translate(26.491 0.714)"/><path class="c" d="M41.511,80.487c-1.887-4.936-5.934-5.993-10.123-5.04a11.763,11.763,0,0,0-2.506.856,3.728,3.728,0,0,1-1.621.383H22.375a3.728,3.728,0,0,1-1.621-.383,11.776,11.776,0,0,0-2.506-.856c-4.189-.953-8.237.1-10.123,5.04-2.035,5.323-1.181,15.28,3.642,16.575,2.877.772,6.3-3.072,8.812-6.037a3.782,3.782,0,0,1,2.885-1.341h2.707a3.778,3.778,0,0,1,2.885,1.341c2.508,2.965,5.935,6.809,8.812,6.037C42.692,95.768,43.546,85.811,41.511,80.487Z" transform="translate(-6.379 -33.644)"/><path class="d" d="M42.523,88.778c-.207,4.26-1.677,8.349-4.645,9.141-2.876.771-6.3-3.068-8.813-6.037a3.775,3.775,0,0,0-2.883-1.341h-2.7a3.778,3.778,0,0,0-2.89,1.341c-2.5,2.968-5.937,6.807-8.813,6.037-2.968-.792-4.438-4.874-4.645-9.134A17.419,17.419,0,0,1,8.136,83.49c1.884-4.938,5.93-5.994,10.125-5.045a12.025,12.025,0,0,1,2.5.856,3.706,3.706,0,0,0,1.62.385h4.888a3.706,3.706,0,0,0,1.62-.385,11.883,11.883,0,0,1,2.5-.856c4.189-.949,8.235.107,10.125,5.045A17.335,17.335,0,0,1,42.523,88.778Z" transform="translate(-6.389 -34.503)"/><g transform="translate(4.622 46.604)"><circle class="c" cx="1.603" cy="1.603" r="1.603" transform="translate(18.831 3.205)"/><path class="c" d="M49.545,86.8a1.6,1.6,0,1,0,1.6,1.6A1.6,1.6,0,0,0,49.545,86.8Z" transform="translate(-22.701 -83.59)"/><path class="c" d="M45.053,91.287a1.6,1.6,0,1,0,1.6,1.6A1.6,1.6,0,0,0,45.053,91.287Z" transform="translate(-21.414 -84.876)"/><path class="c" d="M45.053,85.508a1.6,1.6,0,1,0-1.6-1.6A1.6,1.6,0,0,0,45.053,85.508Z" transform="translate(-21.414 -82.303)"/><path class="c" d="M19.887,85.452H17.892V83.458a.352.352,0,0,0-.353-.353H15.268a.352.352,0,0,0-.352.353v1.994H12.922a.352.352,0,0,0-.353.353v2.271a.352.352,0,0,0,.353.353h1.994v1.994a.352.352,0,0,0,.352.353H17.54a.352.352,0,0,0,.353-.353V88.428h1.994a.352.352,0,0,0,.353-.353V85.8A.352.352,0,0,0,19.887,85.452Z" transform="translate(-12.569 -82.533)"/></g><path class="e" d="M101.653,80.487c-1.887-4.936-5.934-5.993-10.123-5.04a11.763,11.763,0,0,0-2.506.856,3.728,3.728,0,0,1-1.621.383H82.517A3.728,3.728,0,0,1,80.9,76.3a11.776,11.776,0,0,0-2.506-.856c-4.189-.953-8.237.1-10.123,5.04-2.035,5.323-1.181,15.28,3.642,16.575,2.877.772,6.3-3.072,8.812-6.037a3.782,3.782,0,0,1,2.885-1.341h2.707A3.778,3.778,0,0,1,89.2,91.025c2.508,2.965,5.935,6.809,8.812,6.037,4.824-1.294,5.679-11.251,3.643-16.574Z" transform="translate(-23.605 -33.644)"/><path class="c" d="M100.7,86.8a1.6,1.6,0,1,0,1.6,1.6A1.6,1.6,0,0,0,100.7,86.8Z" transform="translate(-32.733 -36.985)"/><circle class="c" cx="1.603" cy="1.603" r="1.603" transform="translate(72.778 49.81)"/><path class="c" d="M105.2,91.287a1.6,1.6,0,1,0,1.6,1.6A1.6,1.6,0,0,0,105.2,91.287Z" transform="translate(-34.02 -38.272)"/><path class="c" d="M105.2,85.508a1.6,1.6,0,1,0-1.6-1.6A1.6,1.6,0,0,0,105.2,85.508Z" transform="translate(-34.02 -35.699)"/><path class="c" d="M80.029,85.452H78.034V83.458a.352.352,0,0,0-.353-.353H75.41a.352.352,0,0,0-.353.353v1.994H73.063a.352.352,0,0,0-.353.353v2.271a.352.352,0,0,0,.353.353h1.994v1.994a.352.352,0,0,0,.353.353h2.271a.352.352,0,0,0,.353-.353V88.428h1.994a.352.352,0,0,0,.353-.353V85.8A.352.352,0,0,0,80.029,85.452Z" transform="translate(-25.174 -35.928)"/><path class="e" d="M3.122,0A3.122,3.122,0,1,1,0,3.122,3.122,3.122,0,0,1,3.122,0Z" transform="translate(15.327 28.346)"/><path class="d" d="M3.122,0A3.122,3.122,0,1,1,0,3.122,3.122,3.122,0,0,1,3.122,0Z" transform="translate(58.223 28.346)"/><path class="f" d="M56.014,85.861a.713.713,0,0,0-.592.817,20.439,20.439,0,0,1,.246,3.167.714.714,0,0,0,.714.713h0a.713.713,0,0,0,.713-.714,21.807,21.807,0,0,0-.264-3.389A.709.709,0,0,0,56.014,85.861Z" transform="translate(-20.219 -36.715)"/><path d="M84.807,63.579h0C83,58.849,79.11,56.9,73.858,58.1a12.473,12.473,0,0,0-2.659.909,3,3,0,0,1-1.31.313H68.159v-7.1a3.831,3.831,0,0,0,0-7.525V36.259A5.869,5.869,0,0,0,62.3,30.4H60.072a14.1,14.1,0,0,0-28.167,0H29.68a5.869,5.869,0,0,0-5.862,5.862V44.7a3.831,3.831,0,0,0,0,7.525v7.1H22.089a2.98,2.98,0,0,1-1.311-.315,12.731,12.731,0,0,0-2.657-.909c-5.26-1.19-9.146.76-10.95,5.486a19.87,19.87,0,0,0-1.053,7.725c.2,4.118,1.665,8.851,5.174,9.788a3.733,3.733,0,0,0,.972.128c2.911,0,5.929-3.262,8.571-6.394a3.059,3.059,0,0,1,2.344-1.087h2.7a3.051,3.051,0,0,1,2.338,1.088c2.944,3.479,6.348,7.12,9.542,6.265,2.544-.678,4.359-3.515,4.98-7.781a.713.713,0,0,0-.6-.808.7.7,0,0,0-.808.6c-.535,3.674-1.97,6.083-3.937,6.608-2.575.7-6.161-3.536-8.083-5.808a4.473,4.473,0,0,0-3.429-1.595h-2.7a4.483,4.483,0,0,0-3.435,1.595c-1.78,2.111-5.482,6.5-8.083,5.808-2.771-.74-3.95-5.03-4.117-8.479a18.388,18.388,0,0,1,.96-7.147c1.947-5.1,6.135-5.321,9.3-4.6a11.28,11.28,0,0,1,2.353.8,4.4,4.4,0,0,0,1.932.457h4.888a4.392,4.392,0,0,0,1.929-.456,11.143,11.143,0,0,1,2.353-.8c3.165-.717,7.346-.5,9.3,4.6a.713.713,0,0,0,1.332-.51C40.081,58.856,36.2,56.9,30.94,58.1a12.658,12.658,0,0,0-2.659.91,2.971,2.971,0,0,1-1.307.313H25.242v-7.1a3.828,3.828,0,0,0,0-7.528V36.259a4.44,4.44,0,0,1,4.435-4.435H31.9a14.1,14.1,0,0,0,28.167,0h2.226a4.44,4.44,0,0,1,4.435,4.435V44.7a3.828,3.828,0,0,0,0,7.528v7.1H65a2.99,2.99,0,0,1-1.31-.313,12.408,12.408,0,0,0-2.659-.908c-5.251-1.2-9.141.751-10.948,5.48-1.6,4.186-1.386,10.564.478,14.218a5.974,5.974,0,0,0,3.645,3.3,3.72,3.72,0,0,0,.966.127c2.9,0,5.927-3.262,8.576-6.392a3.059,3.059,0,0,1,2.34-1.087H68.8a3.062,3.062,0,0,1,2.34,1.087c2.944,3.48,6.351,7.119,9.542,6.266a5.971,5.971,0,0,0,3.645-3.3C86.192,74.144,86.406,67.766,84.807,63.579ZM26.949,48.459a2.408,2.408,0,1,1-2.408-2.408,2.411,2.411,0,0,1,2.408,2.408ZM58.645,30.4H53.272a23.887,23.887,0,0,0-1.025-6.511A14.1,14.1,0,0,0,55.017,22.2,12.649,12.649,0,0,1,58.645,30.4ZM46.7,18.753c1.472.4,2.794,2,3.731,4.321a13.7,13.7,0,0,1-3.731.706Zm2.851.184a12.665,12.665,0,0,1,4.384,2.293,12.65,12.65,0,0,1-2.174,1.3A11.412,11.412,0,0,0,49.553,18.937Zm-4.278-.184v5.026a13.7,13.7,0,0,1-3.731-.706C42.482,20.756,43.8,19.152,45.275,18.753Zm-5.061,3.78a12.686,12.686,0,0,1-2.174-1.3,12.655,12.655,0,0,1,4.383-2.293,11.4,11.4,0,0,0-2.21,3.6Zm5.061,2.673V30.4H40.131a22.718,22.718,0,0,1,.938-5.978A15.094,15.094,0,0,0,45.275,25.206Zm0,6.618v5.191a15.134,15.134,0,0,0-4.206.786,22.717,22.717,0,0,1-.938-5.978Zm0,6.619v5.024c-1.472-.4-2.794-2-3.731-4.32A13.665,13.665,0,0,1,45.275,38.443Zm-2.849,4.842a12.65,12.65,0,0,1-4.387-2.295,12.608,12.608,0,0,1,2.174-1.3A11.425,11.425,0,0,0,42.426,43.285Zm4.276.182V38.443a13.719,13.719,0,0,1,3.731.7C49.5,41.465,48.174,43.068,46.7,43.467Zm5.061-3.78a12.591,12.591,0,0,1,2.175,1.3,12.681,12.681,0,0,1-4.387,2.295,11.449,11.449,0,0,0,2.212-3.6ZM46.7,37.016V31.825h5.144a22.712,22.712,0,0,1-.938,5.978,15.144,15.144,0,0,0-4.206-.786Zm0-6.619v-5.19a15.119,15.119,0,0,0,4.206-.787,22.718,22.718,0,0,1,.938,5.978H46.7ZM36.961,22.2a14.067,14.067,0,0,0,2.769,1.683A23.883,23.883,0,0,0,38.7,30.4H33.332A12.646,12.646,0,0,1,36.961,22.2Zm-3.628,9.621H38.7a23.872,23.872,0,0,0,1.025,6.51,14.058,14.058,0,0,0-2.769,1.684A12.645,12.645,0,0,1,33.332,31.824Zm21.684,8.195a14.023,14.023,0,0,0-2.769-1.684,23.876,23.876,0,0,0,1.025-6.51h5.373A12.642,12.642,0,0,1,55.017,40.018Zm10.012,8.441a2.408,2.408,0,1,1,2.408,2.408A2.411,2.411,0,0,1,65.029,48.459Zm18.027,28.69a4.549,4.549,0,0,1-2.744,2.57c-2.592.7-6.16-3.537-8.083-5.81a4.488,4.488,0,0,0-3.43-1.592H66.092a4.487,4.487,0,0,0-3.43,1.593c-1.922,2.273-5.5,6.5-8.083,5.809a4.549,4.549,0,0,1-2.744-2.57c-1.705-3.343-1.892-9.2-.416-13.06,1.46-3.821,4.17-4.9,6.767-4.9a11.473,11.473,0,0,1,2.53.3,10.978,10.978,0,0,1,2.354.8A4.409,4.409,0,0,0,65,60.747h4.885a4.4,4.4,0,0,0,1.932-.455,10.99,10.99,0,0,1,2.354-.8c3.165-.719,7.347-.507,9.3,4.6,1.476,3.859,1.289,9.718-.417,13.06Z" transform="translate(-6.092 -16.991)"/></g></g></svg>