<svg xmlns="http://www.w3.org/2000/svg" width="91" height="92" viewBox="0 0 91 92"><defs><style>.a,.g{fill:none;}.a{stroke:#a8a8a8;}.b{fill:#fec22d;}.c{fill:#dea109;}.d{fill:#fd561f;}.e{fill:#21ba45;}.f{stroke:none;}</style></defs><g transform="translate(-994 -587.901)"><g class="a" transform="translate(994 587.901)"><rect class="f" width="91" height="92" rx="15"/><rect class="g" x="0.5" y="0.5" width="90" height="91" rx="14.5"/></g><g transform="translate(1005.96 600.357)"><path class="b" d="M337.408,321.581l11.836,11.836-7.827,7.827-11.836-11.836A5.4,5.4,0,0,1,328,325.591h0a5.4,5.4,0,0,1,1.581-3.817l.192-.192A5.4,5.4,0,0,1,333.591,320h0A5.4,5.4,0,0,1,337.408,321.581Z" transform="translate(-284.4 -277.512)"/><path class="c" d="M413.591,400h0a5.4,5.4,0,0,0-3.818,1.581l-.192.192A5.4,5.4,0,0,0,408,405.591h0a5.4,5.4,0,0,0,1.581,3.817l.192.192a5.4,5.4,0,0,0,3.818,1.581h0a5.4,5.4,0,0,0,3.817-1.581l.192-.192a5.4,5.4,0,0,0,1.581-3.817h0a5.4,5.4,0,0,0-1.581-3.817l-.192-.192A5.4,5.4,0,0,0,413.591,400Z" transform="translate(-353.219 -346.331)"/><path class="d" d="M55.306,271.632a15.644,15.644,0,0,1-11.12,14.985,15.283,15.283,0,0,1-2.5.537A15.66,15.66,0,0,1,24.167,269.34a15.371,15.371,0,0,1,.535-2.356,15.667,15.667,0,0,1,19.131-10.439A15.306,15.306,0,0,1,46.6,257.6a15.7,15.7,0,0,1,7.167,7.258,15.2,15.2,0,0,1,.981,2.629A15.581,15.581,0,0,1,55.306,271.632Z" transform="translate(-22.888 -222.435)"/><path class="e" d="M237.417,398.7q0,.317-.029.625A6.709,6.709,0,0,1,224,398.7q0-.316.029-.625a6.709,6.709,0,0,1,13.388.625Z" transform="translate(-194.935 -339.44)"/><path class="e" d="M293.417,398.708q0,.316-.029.625A6.709,6.709,0,0,1,280,398.708q0-.317.029-.625a6.709,6.709,0,0,1,13.388.625Z" transform="translate(-243.109 -339.448)"/><path d="M88.06,70.651,76.687,59.278a6.474,6.474,0,0,0-4.608-1.909,6.576,6.576,0,0,0-1.325.135,21.507,21.507,0,0,1-4.266-12.827,32.561,32.561,0,0,0-9.537-23.024A19.3,19.3,0,0,0,28.807,48.048l1.677-1.479A17.066,17.066,0,0,1,55.37,23.234a30.324,30.324,0,0,1,8.882,21.443,11.548,11.548,0,0,1-7.138,10.694A1.118,1.118,0,0,0,56.6,57l1.118,1.775a1.118,1.118,0,0,0,.649.482,21.291,21.291,0,0,1,7.14,3.5,6.545,6.545,0,0,0,.006,2.675l2.188-.463a4.28,4.28,0,0,1,1.161-3.913l.192-.192a4.279,4.279,0,0,1,5.929-.118,6.467,6.467,0,0,0-4.156,1.891l-.192.192a6.5,6.5,0,0,0-1.323,1.909l2.035.926a4.264,4.264,0,0,1,.869-1.254l.192-.192a4.281,4.281,0,0,1,6.052,0l1,1A6.467,6.467,0,0,0,75.3,67.105l-.192.192a6.54,6.54,0,0,0-.559.637L76.32,69.3a4.289,4.289,0,0,1,.367-.418l.192-.192a4.279,4.279,0,0,1,5.929-.118,6.466,6.466,0,0,0-4.156,1.891l-.192.192a6.517,6.517,0,0,0,0,9.216l.192.192a6.517,6.517,0,0,0,9.216,0l.192-.192a6.517,6.517,0,0,0,0-9.216ZM67.471,59.278l-.192.192a6.566,6.566,0,0,0-.912,1.144,23.492,23.492,0,0,0-6.987-3.394l-.217-.345a13.767,13.767,0,0,0,5.9-6.076,23.759,23.759,0,0,0,3.551,7.566,6.563,6.563,0,0,0-1.144.912ZM86.479,78.286l-.192.192a4.281,4.281,0,0,1-6.054,0l-.192-.192a4.281,4.281,0,0,1,0-6.054l.192-.192a4.281,4.281,0,0,1,6.054,0l.192.192h0a4.281,4.281,0,0,1,0,6.054Z" transform="translate(-22.888 -16)"/><path d="M55.279,65.168l1.446-1.446L58.5,65.5l-2.564,2.564,1.581,1.581,2.564-2.564,1.446,1.446,1.581-1.581L61.66,65.5l1.773-1.773L65.206,65.5l-1.446,1.446,1.581,1.581,1.446-1.446L68.56,68.85l-.327.327,1.581,1.581.328-.327,1.446,1.446L73.169,70.3,71.723,68.85,73.5,67.077l1.773,1.773L73.824,70.3,75.4,71.877l1.446-1.446,3.682,3.682,1.581-1.581L78.432,68.85,80.2,67.077l2.564,2.564,1.581-1.581L81.786,65.5l1.446-1.446L81.65,62.469,80.2,63.914l-1.773-1.773L80.2,60.368l1.446,1.446,1.581-1.581-1.446-1.446,1.446-1.446L81.65,55.76,80.2,57.206l-1.773-1.773,1.446-1.446L78.3,52.406,76.85,53.851l-1.773-1.773,2.564-2.564L76.06,47.933,73.5,50.5l-1.773-1.773,1.446-1.446L71.587,45.7l-1.446,1.446L68.369,45.37l1.446-1.446-1.581-1.581-1.446,1.446-1.446-1.446-1.581,1.581,1.446,1.446-1.773,1.773-2.564-2.564L59.288,46.16l2.564,2.564L60.079,50.5l-2.564-2.564-1.581,1.581L58.5,52.078l-1.773,1.773-2.564-2.564-1.581,1.581,2.564,2.564L53.37,57.206,51.924,55.76l-1.581,1.581,1.446,1.446-1.446,1.446,1.581,1.581,1.446-1.446,1.773,1.773L53.7,63.587Zm4.8-1.254-1.773-1.773,1.773-1.773,1.773,1.773ZM70.142,60.56l-1.773-1.773,1.773-1.773,1.773,1.773Zm3.354-.192,1.773,1.773L73.5,63.914l-1.773-1.773Zm-6.709-3.163-1.773-1.773,1.773-1.773,1.773,1.773Zm-1.581,1.581L63.433,60.56,61.66,58.787l1.773-1.773Zm-.192,3.354,1.773-1.773,1.773,1.773-1.773,1.773Zm5.127,5.127L68.369,65.5l1.773-1.773L71.915,65.5ZM78.623,65.5,76.85,67.269,75.077,65.5l1.773-1.773Zm0-6.709L76.85,60.56l-1.773-1.773,1.773-1.773Zm-3.354-3.354L73.5,57.206l-1.773-1.773L73.5,53.66Zm-3.354-3.354-1.773,1.773-1.773-1.773,1.773-1.773Zm-5.127-5.127,1.773,1.773L66.787,50.5l-1.773-1.773Zm-3.354,3.354,1.773,1.773-1.773,1.773L61.66,52.078ZM60.079,53.66l1.773,1.773-1.773,1.773-1.773-1.773Zm-5.127,5.127,1.773-1.773L58.5,58.787,56.724,60.56Z" transform="translate(-45.55 -38.661)"/><path d="M36.091,260.443a9.362,9.362,0,0,1,7.65-1.028l2.883.865a14.478,14.478,0,0,1,.723,4.528h2.236A16.768,16.768,0,1,0,42.4,278.573l-1.279-1.834a14.436,14.436,0,0,1-4.585,2.124l-1.576-1.8a13.188,13.188,0,0,1-3.262-8.684,9.307,9.307,0,0,1,1.143-4.475,29.391,29.391,0,0,1,5.274,2.6l4.172,2.608,1.185-1.9-4.172-2.608a31.63,31.63,0,0,0-5.116-2.581,9.277,9.277,0,0,1,1.912-1.583Zm9.33-2.858-1.038-.311a11.6,11.6,0,0,0-9.477,1.273,11.461,11.461,0,0,0-2.979,2.684c-.968-.3-1.954-.554-2.951-.76a26.189,26.189,0,0,1,9.533-9.033,14.628,14.628,0,0,1,6.912,6.148Zm-9.78-7.034a28.431,28.431,0,0,0-9.039,9.52c-.987-.127-1.982-.207-2.978-.24a36.359,36.359,0,0,0,1.343-7.254A14.524,14.524,0,0,1,35.641,250.55ZM18.275,264.808a14.569,14.569,0,0,1,.212-2.476q.99-.138,1.991-.211a34.157,34.157,0,0,1-2.1,4.391,14.618,14.618,0,0,1-.1-1.7Zm4.212-10.222a34.114,34.114,0,0,1-1.2,5.252c-.731.03-1.464.084-2.192.164A14.564,14.564,0,0,1,22.487,254.586Zm-3.393,15.032a36.391,36.391,0,0,0,3.8-7.568c.861.01,1.724.058,2.582.143a28.328,28.328,0,0,0-2.77,13.055,14.571,14.571,0,0,1-3.614-5.63Zm14.178,8.917.67.766q-.562.043-1.131.044a14.448,14.448,0,0,1-7.744-2.24,26.142,26.142,0,0,1,2.744-14.583,29.409,29.409,0,0,1,2.872.671,11.537,11.537,0,0,0-1.227,5.186,15.425,15.425,0,0,0,3.816,10.157Z" transform="translate(-16.045 -215.611)"/><path d="M231.652,383.994a7.777,7.777,0,0,0-3.909,1.05,7.827,7.827,0,1,0,0,13.552,7.825,7.825,0,1,0,3.91-14.6Zm5.568,7.341-.305-.3a4.28,4.28,0,0,0-6.054,0,2.044,2.044,0,0,1-2.891,0l-1.442-1.442a5.589,5.589,0,0,1,10.692,1.747Zm-13.395-5.105a5.582,5.582,0,0,1,2,.37,7.808,7.808,0,0,0-1.856,3.722,4.268,4.268,0,0,0-.936.708,2.044,2.044,0,0,1-2.891,0l-1.442-1.442A5.6,5.6,0,0,1,223.825,386.23Zm-5.568,6.076.305.3a4.283,4.283,0,0,0,5.38.55,7.8,7.8,0,0,0,1.885,3.881,5.593,5.593,0,0,1-7.57-4.736Zm13.395,5.105a5.6,5.6,0,0,1-5.568-5.105l.305.3a4.28,4.28,0,0,0,6.054,0,2.044,2.044,0,0,1,2.891,0l1.442,1.442A5.6,5.6,0,0,1,231.652,397.412Z" transform="translate(-188.052 -332.561)"/></g></g></svg>