<svg xmlns="http://www.w3.org/2000/svg" width="91" height="92" viewBox="0 0 91 92"><defs><style>.a,.k{fill:none;}.a{stroke:#a8a8a8;}.b{fill:#f72163;}.c{fill:#fec22d;}.d{opacity:0.1;}.e{opacity:0.15;}.f{fill:#21ba45;}.g{fill:#1caafc;}.h{fill:#f8ca4f;}.i{fill:#fff;}.j{stroke:none;}</style></defs><g transform="translate(-226 -587.901)"><g class="a" transform="translate(226 587.901)"><rect class="j" width="91" height="92" rx="15"/><rect class="k" x="0.5" y="0.5" width="90" height="91" rx="14.5"/></g><g transform="translate(232.82 599.845)"><path class="b" d="M255.033,189.513H226V173.16h26.7a2.331,2.331,0,0,1,2.331,2.331Z" transform="translate(-191.856 -152.149)"/><path class="c" d="M71.3,281.393H11.385A3.885,3.885,0,0,0,7.5,285.278v9.069a3.885,3.885,0,0,0,3.885,3.885H78.979a3.61,3.61,0,0,0,2.883-5.782l-6.985-9.274A4.474,4.474,0,0,0,71.3,281.393Z" transform="translate(-6.367 -244.028)"/><path class="d" d="M13.485,294.344v-9.069a3.885,3.885,0,0,1,3.885-3.885H11.385A3.885,3.885,0,0,0,7.5,285.276v9.069a3.885,3.885,0,0,0,3.885,3.885H17.37A3.885,3.885,0,0,1,13.485,294.344Z" transform="translate(-6.367 -244.027)"/><circle class="b" cx="11.721" cy="11.721" r="11.721" transform="translate(8.004 42.481)"/><circle class="e" cx="5.14" cy="5.14" r="5.14" transform="translate(14.584 49.062)"/><circle class="b" cx="11.721" cy="11.721" r="11.721" transform="translate(42.381 42.481)"/><circle class="e" cx="5.14" cy="5.14" r="5.14" transform="translate(48.962 49.062)"/><rect class="f" width="27.03" height="26.558" transform="translate(7.118 10.807)"/><rect class="d" width="27.03" height="4.503" transform="translate(7.118 10.807)"/><path class="g" d="M50.047,41.6H19.409A2.805,2.805,0,0,0,16.6,44.4v4.063a2.805,2.805,0,0,0,2.805,2.805H50.047a2.805,2.805,0,0,0,2.805-2.805V44.4A2.805,2.805,0,0,0,50.047,41.6Z" transform="translate(-14.095 -40.464)"/><path class="d" d="M21.616,48.465V44.4A2.805,2.805,0,0,1,24.421,41.6H19.409A2.805,2.805,0,0,0,16.6,44.4v4.063a2.805,2.805,0,0,0,2.805,2.805h5.012A2.805,2.805,0,0,1,21.616,48.465Z" transform="translate(-14.095 -40.464)"/><rect class="h" width="10.985" height="9.892" transform="translate(47.883 11.118)"/><rect class="d" width="10.985" height="3.402" transform="translate(47.883 11.118)"/><path class="g" d="M313.315,68.789h-13a1.769,1.769,0,0,1-1.769-1.769V63.635a1.769,1.769,0,0,1,1.769-1.769h13a1.769,1.769,0,0,1,1.769,1.769v3.386A1.769,1.769,0,0,1,313.315,68.789Z" transform="translate(-253.44 -57.67)"/><path class="d" d="M302.1,67.021V63.635a1.769,1.769,0,0,1,1.769-1.769h-3.554a1.769,1.769,0,0,0-1.769,1.769v3.386a1.769,1.769,0,0,0,1.769,1.769h3.554A1.769,1.769,0,0,1,302.1,67.021Z" transform="translate(-253.44 -57.67)"/><circle class="i" cx="6.5" cy="6.5" r="6.5" transform="translate(14.132 16.757)"/><rect class="d" width="4.962" height="16.353" transform="translate(34.148 21.012)"/><path d="M54.1,82.025A6.274,6.274,0,1,0,60.376,88.3,6.281,6.281,0,0,0,54.1,82.025Zm0,10.282A4.008,4.008,0,1,1,58.11,88.3,4.012,4.012,0,0,1,54.1,92.307ZM19.724,82.025a6.276,6.276,0,0,0-5.535,9.231,1.133,1.133,0,0,0,2-1.069,3.958,3.958,0,0,1-.471-1.887,4.008,4.008,0,1,1,4.008,4.008c-.129,0-.259-.006-.386-.018a1.133,1.133,0,1,0-.215,2.256c.2.019.4.029.6.029a6.274,6.274,0,1,0,0-12.549Zm8.542-24.671a7.633,7.633,0,1,0-7.633,7.633A7.641,7.641,0,0,0,28.265,57.354Zm-13,0a5.366,5.366,0,1,1,5.366,5.366A5.372,5.372,0,0,1,15.267,57.354ZM76.4,81.836l-6.985-9.274a5.634,5.634,0,0,0-4.479-2.234h-.626V68.274a1.133,1.133,0,0,0-2.266,0v2.055H35.281V56.242H60.847a1.2,1.2,0,0,1,1.2,1.2v5.032a1.133,1.133,0,1,0,2.266,0V57.44a3.468,3.468,0,0,0-3.464-3.464H60V46.343a2.9,2.9,0,0,0,2.775-2.9V40.061a2.905,2.905,0,0,0-2.9-2.9h-13a2.905,2.905,0,0,0-2.9,2.9v3.386a2.9,2.9,0,0,0,2.775,2.9v7.632H35.281V46.037h.671A3.943,3.943,0,0,0,39.89,42.1V38.036A3.943,3.943,0,0,0,35.952,34.1H5.314a3.943,3.943,0,0,0-3.939,3.939V42.1a3.943,3.943,0,0,0,3.939,3.939h.671v3.992a1.133,1.133,0,1,0,2.266,0V46.037H33.014V70.329H8.251V56.467a1.133,1.133,0,1,0-2.266,0V70.329H5.018A5.023,5.023,0,0,0,0,75.346v9.069a5.023,5.023,0,0,0,5.018,5.018H6.923a12.85,12.85,0,0,0,25.6,0H41.3a12.85,12.85,0,0,0,25.6,0h5.709a4.744,4.744,0,0,0,3.789-7.6ZM57.735,53.975H49.016V46.349h8.719ZM46.242,43.447V40.061a.636.636,0,0,1,.635-.635h13a.636.636,0,0,1,.635.635v3.386a.636.636,0,0,1-.635.635h-13A.636.636,0,0,1,46.242,43.447Zm-40.928.323A1.674,1.674,0,0,1,3.642,42.1V38.036a1.674,1.674,0,0,1,1.672-1.672H35.952a1.674,1.674,0,0,1,1.672,1.672V42.1a1.674,1.674,0,0,1-1.672,1.672Zm14.41,55.116A10.587,10.587,0,1,1,30.311,88.3,10.6,10.6,0,0,1,19.724,98.886Zm34.378,0A10.587,10.587,0,1,1,64.689,88.3,10.6,10.6,0,0,1,54.1,98.886ZM74.828,85.795a2.431,2.431,0,0,1-2.216,1.371H66.9a12.85,12.85,0,0,0-25.6,0H32.524a12.85,12.85,0,0,0-25.6,0H5.018a2.754,2.754,0,0,1-2.751-2.751V75.346a2.754,2.754,0,0,1,2.751-2.751H64.937a3.357,3.357,0,0,1,2.668,1.331L74.59,83.2A2.432,2.432,0,0,1,74.828,85.795Z" transform="translate(0 -34.097)"/></g></g></svg>