<svg xmlns="http://www.w3.org/2000/svg" width="91" height="92" viewBox="0 0 91 92"><defs><style>.a,.j{fill:none;}.a{stroke:#a8a8a8;}.b{fill:#f72163;}.c{fill:#ff76a0;}.d{fill:#5c5c5c;}.e{fill:#fec22d;}.f{fill:#ffd97c;}.g{fill:#e8e8ed;}.h{fill:#d2d2dd;}.i{stroke:none;}</style></defs><g transform="translate(-354 -587.901)"><g class="a" transform="translate(354 587.901)"><rect class="i" width="91" height="92" rx="15"/><rect class="j" x="0.5" y="0.5" width="90" height="91" rx="14.5"/></g><g transform="translate(368.417 600.343)"><path class="b" d="M33.128,29.9l-.007,2.041H7.611l-.118-.784A3.645,3.645,0,0,1,7.938,28.8l11.6-20.168a2.344,2.344,0,0,1,2.033-1.176H43.781A1.3,1.3,0,0,1,44.91,9.409Zm0,0" transform="translate(-6.476 -6.48)"/><path class="c" d="M43.781,7.457H21.566a2.344,2.344,0,0,0-2.033,1.176l-2,3.471L25.485,25.7a1.3,1.3,0,0,1-1.115,1.96L8.53,27.772,7.938,28.8a3.646,3.646,0,0,0-.445,2.36l.118.784H33.12l.007-2.041L44.91,9.409A1.3,1.3,0,0,0,43.781,7.457Zm0,0" transform="translate(-6.476 -6.48)"/><path class="b" d="M118.932,29.9,130.715,9.409a1.3,1.3,0,0,0-1.129-1.952H107.37a2.339,2.339,0,0,0-1.175.316Zm0,0" transform="translate(-92.281 -6.48)"/><path class="d" d="M131.918,274.983a.973.973,0,0,1-.621-.224l-17.369-14.34a8.667,8.667,0,0,1-2-2.37l-5.118-8.888a.977.977,0,0,1,1.694-.975l5.118,8.888a6.734,6.734,0,0,0,1.553,1.839l17.37,14.34a.977.977,0,0,1-.623,1.73Zm0,0" transform="translate(-92.698 -215.24)"/><path class="d" d="M177.937,442.989H160.223a.977.977,0,1,1,0-1.954h17.713a.977.977,0,0,1,0,1.954Zm0,0" transform="translate(-138.38 -383.247)"/><path class="b" d="M65.327,178.762H9.073a1.234,1.234,0,0,0-1.22,1.417l1.422,9.48a7.713,7.713,0,0,0,7.628,6.568H57.5a7.713,7.713,0,0,0,7.619-6.509l1.493-9.45A1.3,1.3,0,0,0,65.327,178.762Zm0,0" transform="translate(-6.812 -155.339)"/><path class="c" d="M80.623,178.762H74.4l-1.1,6.962a7.713,7.713,0,0,1-7.619,6.509H25.441a7.714,7.714,0,0,0,6.758,3.995H72.8a7.712,7.712,0,0,0,7.618-6.509l1.494-9.45A1.3,1.3,0,0,0,80.623,178.762Zm0,0" transform="translate(-22.108 -155.339)"/><path class="d" d="M165.689,109.8a.977.977,0,0,1-.622-1.73l17.47-14.423a6.728,6.728,0,0,0,1.556-1.843l19.38-33.709a.977.977,0,0,1,1.694.974l-19.38,33.709a8.682,8.682,0,0,1-2.005,2.375l-17.47,14.423A.974.974,0,0,1,165.689,109.8Zm0,0" transform="translate(-143.13 -50.055)"/><path class="e" d="M102.822,412.4a6.46,6.46,0,1,1-6.46-6.46A6.46,6.46,0,0,1,102.822,412.4Zm0,0" transform="translate(-78.123 -352.751)"/><path class="e" d="M291.947,412.4a6.46,6.46,0,1,1-6.46-6.46A6.46,6.46,0,0,1,291.947,412.4Zm0,0" transform="translate(-242.467 -352.751)"/><path class="f" d="M109.215,412.875a6.459,6.459,0,0,1-8.324,9.615,6.46,6.46,0,1,0,8.324-9.615Zm0,0" transform="translate(-87.671 -358.777)"/><path class="f" d="M298.336,412.875a6.46,6.46,0,0,1-8.324,9.615,6.46,6.46,0,1,0,8.324-9.615Zm0,0" transform="translate(-252.012 -358.777)"/><path class="g" d="M124.652,438.1a2.584,2.584,0,1,1-2.584-2.584A2.584,2.584,0,0,1,124.652,438.1Zm0,0" transform="translate(-103.829 -378.454)"/><path class="g" d="M313.773,438.1a2.584,2.584,0,1,1-2.584-2.584A2.584,2.584,0,0,1,313.773,438.1Zm0,0" transform="translate(-268.169 -378.454)"/><path class="h" d="M124.381,436.039a2.578,2.578,0,0,1-2.9,3.643,2.583,2.583,0,1,0,2.9-3.643Zm0,0" transform="translate(-105.56 -378.905)"/><path class="h" d="M313.5,436.039a2.58,2.58,0,0,1-2.323,3.711,2.6,2.6,0,0,1-.582-.068,2.583,2.583,0,1,0,2.9-3.643Zm0,0" transform="translate(-269.901 -378.905)"/><path class="c" d="M197.28,7.457h-5.055a1.3,1.3,0,0,1,1.129,1.952l-9.256,16.1,2.529,4.394L198.409,9.409A1.3,1.3,0,0,0,197.28,7.457Zm0,0" transform="translate(-159.976 -6.48)"/><path d="M61.677,7.678a.977.977,0,0,0-1.334.36L52.059,22.446H28.34L39.281,3.416a2.255,2.255,0,0,0,0-2.278A2.257,2.257,0,0,0,37.3,0H15.09a3.343,3.343,0,0,0-2.88,1.666L.615,21.834a4.645,4.645,0,0,0-.564,2.992q.007.044.017.086c0,.025,0,.05.007.074L1.5,34.465a8.691,8.691,0,0,0,8.594,7.4h8.592l.543.942a8.686,8.686,0,0,0,2,2.371l8.126,6.709-4.749,3.921a7.437,7.437,0,1,0,1.068,3.933h9.911a7.442,7.442,0,1,0,1.248-4.214l-4.409-3.641L40.651,45.1a8.675,8.675,0,0,0,2.006-2.375l.492-.855h7.542a8.649,8.649,0,0,0,8.583-7.334l1.493-9.45a2.28,2.28,0,0,0-2.252-2.635h-4.2L62.037,9.012A.977.977,0,0,0,61.677,7.678ZM18.24,65.132a5.483,5.483,0,1,1,5.483-5.483A5.489,5.489,0,0,1,18.24,65.132Zm24.78-10.966a5.483,5.483,0,1,1-5.483,5.483A5.489,5.489,0,0,1,43.021,54.166Zm-7.066,3.169c-.049.149-.1.3-.135.453H25.441c-.01-.037-.021-.073-.031-.11l5.48-4.524Zm5.009-15.589a6.735,6.735,0,0,1-1.556,1.843L30.89,50.621l-8.417-6.949a6.729,6.729,0,0,1-1.534-1.806H37.828a.977.977,0,0,0,0-1.954H10.091A6.7,6.7,0,0,1,3.43,34.175L2.007,24.7a.257.257,0,0,1,.254-.3h19.6a.977.977,0,0,0,0-1.954H2.517L13.734,2.936l2.158,3.751a.977.977,0,1,0,1.694-.975L15.423,1.954H37.3a.326.326,0,0,1,.283.488L26.651,21.464,19.826,9.6a.977.977,0,0,0-1.694.975L25.8,23.91a.989.989,0,0,0,.851.49H50.936ZM58.516,24.4a.326.326,0,0,1,.322.377l-1.494,9.45a6.7,6.7,0,0,1-6.653,5.684H44.272L53.19,24.4Zm0,0" transform="translate(0)"/><path d="M115.589,428.066a3.561,3.561,0,1,0,3.561,3.561A3.565,3.565,0,0,0,115.589,428.066Zm0,5.168a1.607,1.607,0,1,1,1.607-1.607A1.609,1.609,0,0,1,115.589,433.234Zm0,0" transform="translate(-97.349 -371.977)"/><path d="M304.713,435.188a3.561,3.561,0,1,0-3.561-3.561A3.565,3.565,0,0,0,304.713,435.188Zm0-5.168a1.607,1.607,0,1,1-1.607,1.607A1.609,1.609,0,0,1,304.713,430.02Zm0,0" transform="translate(-261.693 -371.977)"/></g></g></svg>