<svg xmlns="http://www.w3.org/2000/svg" width="91" height="92" viewBox="0 0 91 92"><defs><style>.a,.k{fill:none;}.a{stroke:#a8a8a8;}.b{fill:#fec22d;}.c{fill:#fd561f;}.d{fill:#f0d0b4;}.e{fill:#ccd1d9;}.f{fill:#1caafc;}.g{fill:#79ceff;}.h{fill:#e6e9ed;}.i{fill:#f72163;}.j{stroke:none;}</style></defs><g transform="translate(-1122 -587.901)"><g class="a" transform="translate(1122 587.901)"><rect class="j" width="91" height="92" rx="15"/><rect class="k" x="0.5" y="0.5" width="90" height="91" rx="14.5"/></g><g transform="translate(1135.383 604.383)"><g transform="translate(1.036 1.036)"><g transform="translate(34.883 8.288)"><path class="b" d="M42.264,9H57.8l4.061,24.4a5.713,5.713,0,0,1-5.657,6.682h-2.9L50.552,23.5H34.67L37.084,9Z" transform="translate(-34.67 -9)"/></g><g transform="translate(26.118 22.793)"><path class="c" d="M55,48.29v.01a14.508,14.508,0,0,1-9.687,3.709H41.533a4.139,4.139,0,0,0,4.144-4.144,2.078,2.078,0,0,0-2.072-2.072H29.2a6.247,6.247,0,0,0-2.994.767L30.137,23H50.857l2.756,16.577L54.919,47.4A5.185,5.185,0,0,1,55,48.29Z" transform="translate(-26.21 -23)"/></g><g transform="translate(22.223 43.514)"><path class="d" d="M41.668,51.288H45.45a14.508,14.508,0,0,0,9.687-3.709v-.01a13.732,13.732,0,0,0,1.223-1.233l2.279-2.611A2.183,2.183,0,0,1,60.255,43a2.122,2.122,0,0,1,2.134,2.134,6.613,6.613,0,0,1-1.109,3.678l-.414.611A22.8,22.8,0,0,1,41.907,59.577H28.366a6.277,6.277,0,0,1-2.31-.445L23,57.909c.01-.135.021-.269.021-.4a4.141,4.141,0,0,0-.57-2.072,4.052,4.052,0,0,0,0-4.144,4.141,4.141,0,0,0,.57-2.072,3.772,3.772,0,0,0-.073-.767l2.518-2.02a6.153,6.153,0,0,1,.881-.58v-.01a6.247,6.247,0,0,1,2.994-.767h14.4a2.078,2.078,0,0,1,2.072,2.072,4.139,4.139,0,0,1-4.144,4.144Z" transform="translate(-22.45 -43)"/></g><g transform="translate(51.024 12.021)"><ellipse class="e" cx="1.765" cy="2.206" rx="1.765" ry="2.206" transform="translate(0)"/></g><g transform="translate(40.435 12.021)"><circle class="e" cx="2.206" cy="2.206" r="2.206" transform="translate(0)"/></g><g transform="translate(43.965 27.021)"><ellipse class="e" cx="1.765" cy="2.206" rx="1.765" ry="2.206" transform="translate(0 0)"/></g><g transform="translate(33.376 27.021)"><ellipse class="e" cx="1.765" cy="2.206" rx="1.765" ry="2.206" transform="translate(0 0)"/></g><g transform="translate(0 47.658)"><path class="f" d="M1,47H15.5V59.432H1Z" transform="translate(-1 -47)"/></g><g transform="translate(14.505 45.586)"><path class="g" d="M23.288,57.432c0,.135-.01.269-.021.4a4.134,4.134,0,0,1-4.123,3.74A5.144,5.144,0,0,1,15,59.5V47.072A5.144,5.144,0,0,1,19.144,45a4.139,4.139,0,0,1,4.072,3.377,3.772,3.772,0,0,1,.073.767,4.141,4.141,0,0,1-.57,2.072,4.052,4.052,0,0,1,0,4.144A4.141,4.141,0,0,1,23.288,57.432Z" transform="translate(-15 -45)"/></g><g transform="translate(5.18)"><path class="h" d="M28.793,3.072V15.5a2.078,2.078,0,0,1-2.072,2.072H20.5V20.26a1.465,1.465,0,0,1-2.5,1.036l-3.719-3.719H8.072A2.078,2.078,0,0,1,6,15.5V3.072A2.078,2.078,0,0,1,8.072,1H26.721A2.078,2.078,0,0,1,28.793,3.072Z" transform="translate(-6 -1)"/></g><g transform="translate(11.396 4.144)"><path class="i" d="M22.36,7.932A2.933,2.933,0,0,1,21.5,10l-2.549,2.549a2.5,2.5,0,0,1-3.543,0L12.86,10A2.93,2.93,0,1,1,17,5.86l.176.176.176-.176a2.932,2.932,0,0,1,5,2.072Z" transform="translate(-12 -5)"/></g></g><g transform="translate(0)"><path d="M61.061,43.514A3.175,3.175,0,0,0,58.672,44.6l-1.981,2.264-.9-5.42h1.669a6.777,6.777,0,0,0,6.686-7.891L59.932,8.288H54.91V6.216a6.216,6.216,0,0,0-12.432,0V8.288H37.456l-2.417,14.5H30.2l-4,23.994c-.2.127-.4.242-.581.389L24.213,48.3a5.163,5.163,0,0,0-4.529-2.718A6.488,6.488,0,0,0,15,47.658H0v14.5H15a6.488,6.488,0,0,0,4.68,2.072,5.177,5.177,0,0,0,4.837-3.372l1.955.782a7.2,7.2,0,0,0,2.694.519H42.713A23.783,23.783,0,0,0,62.539,51.552l.409-.613a7.656,7.656,0,0,0,1.286-4.252,3.178,3.178,0,0,0-3.173-3.173ZM44.55,6.216a4.144,4.144,0,0,1,8.288,0V8.288H44.55ZM39.211,10.36h3.267v2.263a3.108,3.108,0,1,0,2.072,0V10.36h8.288v2.263a3.108,3.108,0,1,0,2.072,0V10.36h3.267L62.1,33.89a4.864,4.864,0,0,1,.063.774,4.71,4.71,0,0,1-4.706,4.706H55.441L52.678,22.793H37.138Zm5.339,5.18A1.036,1.036,0,1,1,43.514,14.5,1.038,1.038,0,0,1,44.55,15.541Zm10.36,0A1.036,1.036,0,1,1,53.874,14.5,1.038,1.038,0,0,1,54.91,15.541ZM31.959,24.865H50.924L54.847,48.4c.015.088.013.179.023.268a13.443,13.443,0,0,1-8.258,3.12,5.138,5.138,0,0,0,1.046-3.089,3.112,3.112,0,0,0-3.108-3.108h-14.4a7.216,7.216,0,0,0-1.686.225ZM2.072,49.73H14.5V60.09H2.072Zm20.287,3.629a2.988,2.988,0,0,1,0,3.1l-.3.521.3.521a3.053,3.053,0,0,1,.434,1.551,3.112,3.112,0,0,1-3.108,3.108A4.3,4.3,0,0,1,16.577,60.8V49.024a4.3,4.3,0,0,1,3.108-1.367,3.112,3.112,0,0,1,3.108,3.108,3.053,3.053,0,0,1-.434,1.551l-.3.521Zm38.865-3.57-.409.613a21.715,21.715,0,0,1-18.1,9.688H29.17a5.133,5.133,0,0,1-1.923-.371l-2.414-.966a5.023,5.023,0,0,0-.415-1.773,5.018,5.018,0,0,0,0-4.143,5.02,5.02,0,0,0,.448-2.072c0-.1-.025-.2-.031-.307l2.083-1.667a5.2,5.2,0,0,1,3.236-1.134h14.4a1.038,1.038,0,0,1,1.036,1.036A3.112,3.112,0,0,1,42.478,51.8H37.3v2.072h8.959a15.538,15.538,0,0,0,11.695-5.307l2.279-2.606a1.1,1.1,0,0,1,1.932.725,5.576,5.576,0,0,1-.939,3.1Z" transform="translate(0 0)"/><circle cx="0.882" cy="0.882" r="0.882" transform="translate(18.53 58.058)"/><ellipse cx="0.882" cy="1.324" rx="0.882" ry="1.324" transform="translate(18.53 53.646)"/><circle cx="0.882" cy="0.882" r="0.882" transform="translate(18.53 50.116)"/><path d="M14.715,13.324a3.537,3.537,0,0,0,5,0l2.553-2.553A3.968,3.968,0,0,0,17.216,4.7a3.967,3.967,0,0,0-5.054,6.074Zm.253-7.252a1.881,1.881,0,0,1,1.339.554l.91.908.91-.908a1.895,1.895,0,1,1,2.679,2.68l-2.553,2.553a1.517,1.517,0,0,1-2.072,0L13.627,9.307a1.894,1.894,0,0,1,1.341-3.235Z" transform="translate(0.396 0.144)"/><path d="M8.108,18.649H13.9l3.412,3.412a2.5,2.5,0,0,0,4.27-1.769V18.649h5.18a3.112,3.112,0,0,0,3.108-3.108V3.108A3.112,3.112,0,0,0,26.757,0H8.108A3.112,3.112,0,0,0,5,3.108V15.541A3.112,3.112,0,0,0,8.108,18.649ZM7.072,3.108A1.038,1.038,0,0,1,8.108,2.072H26.757a1.038,1.038,0,0,1,1.036,1.036V15.541a1.038,1.038,0,0,1-1.036,1.036H19.5v3.715a.446.446,0,0,1-.732.3l-4.019-4.019H8.108a1.038,1.038,0,0,1-1.036-1.036Z" transform="translate(0.18)"/><path d="M34.072,32.026V36.36a6.216,6.216,0,0,0,12.432,0V32.026a3.108,3.108,0,1,0-2.072,0V36.36a4.144,4.144,0,1,1-8.288,0V32.026a3.108,3.108,0,1,0-2.072,0Zm11.4-3.954a1.036,1.036,0,1,1-1.036,1.036A1.038,1.038,0,0,1,45.468,28.072Zm-10.36,0a1.036,1.036,0,1,1-1.036,1.036A1.038,1.038,0,0,1,35.108,28.072Z" transform="translate(1.153 0.937)"/></g></g></g></svg>