<svg xmlns="http://www.w3.org/2000/svg" width="91" height="92" viewBox="0 0 91 92"><defs><style>.a,.g{fill:none;}.a{stroke:#a8a8a8;}.b{fill:#048ede;}.c{fill:#fec22d;}.d{fill:#1caafc;}.e{fill:#e0e0e2;}.f{stroke:none;}</style></defs><g transform="translate(-482 -587.901)"><g class="a" transform="translate(482 587.901)"><rect class="f" width="91" height="92" rx="15"/><rect class="g" x="0.5" y="0.5" width="90" height="91" rx="14.5"/></g><g transform="translate(493.957 599.814)"><g transform="translate(1.082 11.902)"><path class="b" d="M80.923,208v23.8c0,8.367-14.533,15.149-32.461,15.149S16,240.172,16,231.8V208c0,8.367,14.533,15.149,32.461,15.149S80.923,216.367,80.923,208Z" transform="translate(-16 -192.851)"/><path class="c" d="M32.461,0C50.389,0,64.923,6.782,64.923,15.149S50.389,30.3,32.461,30.3,0,23.515,0,15.149,14.533,0,32.461,0Z" transform="translate(0)"/><ellipse class="d" cx="27" cy="11" rx="27" ry="11" transform="translate(5.286 4.181)"/><path class="e" d="M88,204c2.056,0,2.056,1.082,4.112,1.082S94.168,204,96.224,204s2.056,1.082,4.112,1.082S102.391,204,104.447,204s2.056,1.082,4.112,1.082" transform="translate(-78.262 -189.392)"/><path class="e" d="M152,172c2.056,0,2.056,1.082,4.112,1.082S158.168,172,160.224,172s2.056,1.082,4.112,1.082S166.391,172,168.447,172s2.056,1.082,4.112,1.082" transform="translate(-133.605 -161.721)"/><path class="e" d="M272,236c2.056,0,2.056,1.082,4.112,1.082S278.168,236,280.224,236s2.056,1.082,4.112,1.082S286.391,236,288.447,236s2.056,1.082,4.112,1.082" transform="translate(-237.375 -217.064)"/></g><g transform="translate(0 0)"><path d="M64.955,23.358c-6.272-2.926-14.586-4.538-23.411-4.538a69.379,69.379,0,0,0-8.656.534V9.082a1.082,1.082,0,0,0-2.164,0v3.246H22.067V9.082a1.082,1.082,0,0,0-2.164,0V22.59q-.909.367-1.77.768C11.6,26.408,8,30.561,8,35.051v23.8c0,4.49,3.6,8.643,10.132,11.693,6.272,2.926,14.586,4.538,23.411,4.538s17.14-1.612,23.411-4.538c6.534-3.05,10.132-7.2,10.132-11.693v-23.8C75.087,30.561,71.489,26.408,64.955,23.358ZM22.067,14.492h8.656v2.164H22.067Zm0,4.328h8.656v.845a53.034,53.034,0,0,0-8.656,2.119ZM72.923,58.856c0,3.6-3.154,7.058-8.884,9.732-5.99,2.8-13.98,4.335-22.5,4.335s-16.505-1.539-22.5-4.335c-5.729-2.674-8.884-6.13-8.884-9.732V40.885a21.442,21.442,0,0,0,7.968,5.859c6.272,2.926,14.586,4.538,23.411,4.538s17.14-1.612,23.411-4.538a21.442,21.442,0,0,0,7.968-5.859ZM64.039,44.783c-5.99,2.8-13.98,4.335-22.5,4.335s-16.505-1.539-22.5-4.335c-5.729-2.674-8.884-6.13-8.884-9.732s3.154-7.058,8.884-9.732c5.99-2.8,13.98-4.335,22.5-4.335s16.505,1.539,22.5,4.335c5.729,2.674,8.884,6.13,8.884,9.732S69.768,42.109,64.039,44.783Z" transform="translate(-8 -8)"/><path d="M95.663,123.246C90.428,121.152,83.494,120,76.133,120s-14.3,1.152-19.53,3.246c-5.548,2.22-8.6,5.294-8.6,8.656s3.055,6.437,8.6,8.656c5.234,2.094,12.169,3.246,19.53,3.246s14.3-1.152,19.53-3.246c5.548-2.22,8.6-5.294,8.6-8.656S101.211,125.466,95.663,123.246Zm3.91,12.717a1.077,1.077,0,0,0-.717-.273,2.793,2.793,0,0,1-1.553-.417,5.256,5.256,0,0,0-5.119,0,3.1,3.1,0,0,1-3.1,0,5.256,5.256,0,0,0-5.119,0,3.1,3.1,0,0,1-3.1,0,4.88,4.88,0,0,0-2.559-.665,1.082,1.082,0,1,0,0,2.164,2.785,2.785,0,0,1,1.551.417,5.256,5.256,0,0,0,5.119,0,3.1,3.1,0,0,1,3.1,0,5.256,5.256,0,0,0,5.119,0,3.1,3.1,0,0,1,3.1,0,6.731,6.731,0,0,0,.766.358q-1.01.523-2.2,1c-4.984,1.994-11.635,3.092-18.726,3.092s-13.742-1.1-18.726-3.092c-4.6-1.841-7.243-4.263-7.243-6.646s2.64-4.806,7.243-6.646c4.984-1.994,11.635-3.092,18.726-3.092s13.742,1.1,18.726,3.092c4.6,1.841,7.243,4.263,7.243,6.646C102.1,133.283,101.215,134.677,99.573,135.963Z" transform="translate(-42.59 -104.851)"/><path d="M81.082,198.158a2.791,2.791,0,0,1,1.552.416,5.255,5.255,0,0,0,5.12,0,3.1,3.1,0,0,1,3.1,0,5.255,5.255,0,0,0,5.12,0,3.1,3.1,0,0,1,3.1,0,4.885,4.885,0,0,0,2.56.666,1.082,1.082,0,0,0,0-2.164,2.792,2.792,0,0,1-1.552-.416,5.256,5.256,0,0,0-5.12,0,3.1,3.1,0,0,1-3.1,0,5.255,5.255,0,0,0-5.12,0,3.1,3.1,0,0,1-3.1,0,4.884,4.884,0,0,0-2.56-.666,1.082,1.082,0,1,0,0,2.164Z" transform="translate(-70.262 -170.566)"/><path d="M145.082,166.158a2.791,2.791,0,0,1,1.552.416,5.255,5.255,0,0,0,5.119,0,3.1,3.1,0,0,1,3.1,0,5.255,5.255,0,0,0,5.12,0,3.1,3.1,0,0,1,3.1,0,4.885,4.885,0,0,0,2.56.666,1.082,1.082,0,0,0,0-2.164,2.792,2.792,0,0,1-1.552-.416,5.256,5.256,0,0,0-5.12,0,3.1,3.1,0,0,1-3.1,0,5.255,5.255,0,0,0-5.12,0,3.1,3.1,0,0,1-3.1,0,4.884,4.884,0,0,0-2.56-.666,1.082,1.082,0,1,0,0,2.164Z" transform="translate(-125.605 -142.894)"/><path d="M249.082,352A1.082,1.082,0,0,0,248,353.082v12.985a1.082,1.082,0,1,0,2.164,0V353.082A1.082,1.082,0,0,0,249.082,352Z" transform="translate(-215.539 -305.472)"/><path d="M153.082,336A1.082,1.082,0,0,0,152,337.082v12.984a1.082,1.082,0,1,0,2.164,0V337.082A1.082,1.082,0,0,0,153.082,336Z" transform="translate(-132.523 -291.636)"/><path d="M345.082,336A1.082,1.082,0,0,0,344,337.082v12.984a1.082,1.082,0,1,0,2.164,0V337.082A1.082,1.082,0,0,0,345.082,336Z" transform="translate(-298.554 -291.636)"/><path d="M441.082,304A1.082,1.082,0,0,0,440,305.082v8.656a1.082,1.082,0,1,0,2.164,0v-8.656A1.082,1.082,0,0,0,441.082,304Z" transform="translate(-381.57 -263.964)"/><path d="M57.082,304A1.082,1.082,0,0,0,56,305.082v12.984a1.082,1.082,0,1,0,2.164,0V305.082A1.082,1.082,0,0,0,57.082,304Z" transform="translate(-49.508 -263.964)"/><path d="M441.082,400A1.082,1.082,0,0,0,440,401.082v1.082a1.082,1.082,0,1,0,2.164,0v-1.082A1.082,1.082,0,0,0,441.082,400Z" transform="translate(-381.57 -346.98)"/></g></g></g></svg>