<svg xmlns="http://www.w3.org/2000/svg" xmlns:xlink="http://www.w3.org/1999/xlink" width="363.719" height="36.148" viewBox="0 0 363.719 36.148"><defs><style>.a,.i,.n{fill:none;}.b{fill:#f16122;}.c{clip-path:url(#a);}.d{fill:#ed1d24;}.e{fill:#f99f1c;}.f{fill:#161e3f;}.g{fill:#0af;}.h{fill:#7a1dff;}.i{stroke:#0af;stroke-miterlimit:10;stroke-width:0.75px;}.j{fill:#f72163;}.k{fill:#fd5601;}.l{fill:#ffc208;}.m{fill:#9de411;}.n{stroke:#000;}</style><clipPath id="a"><rect class="a" width="191.728" height="36.148"/></clipPath></defs><g transform="translate(-391.8 -2.367)"><g transform="translate(563.791 2.367)"><rect class="b" width="14.633" height="26.316" transform="translate(20.185 4.858)"/><g class="c"><path class="d" d="M710.621,21.282A16.7,16.7,0,0,1,717.041,8.1,16.736,16.736,0,1,0,706.688,38a16.523,16.523,0,0,0,10.353-3.586,16.582,16.582,0,0,1-6.42-13.129" transform="translate(-689.511 -3.295)"/></g><path class="e" d="M780.273,50.267v.116h.231V50.9h.116v-.521h.174v-.116Zm1.215,0-.173.463-.174-.463h-.174V50.9h.116v-.463l.174.4h.116l.174-.4V50.9h.116v-.636Z" transform="translate(-727.584 -22.563)"/><path class="e" d="M763.84,21.282A16.723,16.723,0,0,1,747.126,38a16.523,16.523,0,0,1-10.353-3.586,16.753,16.753,0,0,0,0-26.373,17.146,17.146,0,0,1,10.353-3.47A16.686,16.686,0,0,1,763.84,21.282" transform="translate(-709.243 -3.295)"/><path d="M825.1,26.331a3.362,3.362,0,1,1,6.709,0,3.345,3.345,0,0,1-3.355,3.586,3.408,3.408,0,0,1-3.354-3.586m9.023,0V20.778h-2.429v1.33a4.217,4.217,0,0,0-3.528-1.619,5.554,5.554,0,0,0-5.552,5.841,5.554,5.554,0,0,0,5.552,5.841,4.3,4.3,0,0,0,3.528-1.619v1.33h2.429Zm81.839,0a3.362,3.362,0,1,1,6.709,0,3.345,3.345,0,0,1-3.355,3.586,3.408,3.408,0,0,1-3.354-3.586m11.683,5.032v.174h.289l.058-.058a.057.057,0,0,0-.058-.058h-.289Zm.174-.116c.058,0,.173,0,.173.058a.212.212,0,0,1,.058.174c0,.058,0,.116-.058.116a.212.212,0,0,1-.173.058l.231.231h-.116l-.173-.231H927.7v.231h-.116v-.636Zm-.058.868a.348.348,0,0,0,.231-.058c.058,0,.116-.058.173-.116s.116-.116.116-.174.058-.116.058-.231a.348.348,0,0,0-.058-.231c0-.058-.058-.116-.116-.174s-.116-.116-.173-.116-.116-.058-.231-.058a.348.348,0,0,0-.231.058c-.058,0-.116.058-.174.116s-.116.116-.116.174-.058.116-.058.231a.348.348,0,0,0,.058.231c0,.058.058.116.116.174s.116.116.174.116a.437.437,0,0,0,.231.058m0-1.272a.522.522,0,0,1,.289.058c.058.058.173.058.231.174a.8.8,0,0,1,.173.231.433.433,0,0,1,.058.289.521.521,0,0,1-.058.289c-.058.058-.116.174-.173.231a.8.8,0,0,1-.231.174.752.752,0,0,1-.578,0,1.023,1.023,0,0,1-.4-.4.433.433,0,0,1-.058-.289.521.521,0,0,1,.058-.289c.058-.058.116-.174.174-.231a.8.8,0,0,1,.231-.174.629.629,0,0,1,.289-.058m-2.834-4.511V16.267h-2.429v5.841a4.217,4.217,0,0,0-3.528-1.619,5.554,5.554,0,0,0-5.552,5.841,5.554,5.554,0,0,0,5.552,5.841,4.3,4.3,0,0,0,3.528-1.619v1.33h2.429Zm-60.728-3.7c1.562,0,2.545.983,2.834,2.718h-5.784a2.841,2.841,0,0,1,2.95-2.718m0-2.2c-3.239,0-5.552,2.371-5.552,5.841a5.5,5.5,0,0,0,5.726,5.841,6.666,6.666,0,0,0,4.569-1.562l-1.215-1.793a5.286,5.286,0,0,1-3.239,1.157A3.09,3.09,0,0,1,861.13,27.2H869.4c0-.289.058-.578.058-.925.058-3.412-2.14-5.841-5.263-5.841m29.265,5.9a3.362,3.362,0,1,1,6.709,0,3.345,3.345,0,0,1-3.354,3.586,3.408,3.408,0,0,1-3.354-3.586m9.022,0V20.778h-2.429v1.33a4.217,4.217,0,0,0-3.528-1.619,5.554,5.554,0,0,0-5.552,5.841,5.554,5.554,0,0,0,5.552,5.841,4.3,4.3,0,0,0,3.528-1.619v1.33h2.429Zm-22.672,0a6.137,6.137,0,0,0,9.948,4.511L888.6,28.875a4.98,4.98,0,0,1-2.892.983,3.347,3.347,0,0,1-3.354-3.586,3.38,3.38,0,0,1,3.354-3.586,4.848,4.848,0,0,1,2.892.983l1.157-1.966a6.133,6.133,0,0,0-9.948,4.627m31.174-5.9a3.309,3.309,0,0,0-2.95,1.619V20.72h-2.371V31.883h2.429V25.637c0-1.851.81-2.892,2.371-2.892a3.646,3.646,0,0,1,1.5.289l.752-2.256a4.641,4.641,0,0,0-1.735-.347m-64.893,1.215a8.495,8.495,0,0,0-4.569-1.157c-2.834,0-4.627,1.33-4.627,3.586,0,1.793,1.33,2.95,3.817,3.3l1.157.174c1.33.174,1.966.521,1.966,1.157,0,.868-.868,1.33-2.545,1.33a5.867,5.867,0,0,1-3.7-1.157l-1.157,1.909a7.992,7.992,0,0,0,4.8,1.446c3.239,0,5.09-1.5,5.09-3.644,0-1.966-1.446-3.007-3.875-3.355l-1.157-.174c-1.041-.116-1.909-.347-1.909-1.1,0-.81.81-1.33,2.14-1.33a6.692,6.692,0,0,1,3.47.983Zm31.232-1.215a3.309,3.309,0,0,0-2.95,1.619V20.72H872V31.883h2.429V25.637c0-1.851.81-2.892,2.371-2.892a3.646,3.646,0,0,1,1.5.289l.752-2.256a4.642,4.642,0,0,0-1.735-.347m-20.648.289h-3.933V17.366h-2.429V20.72h-2.256v2.2h2.256v5.09c0,2.6.983,4.106,3.875,4.106a5.731,5.731,0,0,0,3.007-.868l-.694-2.082a4.527,4.527,0,0,1-2.14.636c-1.214,0-1.619-.752-1.619-1.851V22.918h3.933ZM820.471,31.883v-7a4.174,4.174,0,0,0-4.4-4.453,4.369,4.369,0,0,0-3.933,1.966,4.1,4.1,0,0,0-3.7-1.966,3.548,3.548,0,0,0-3.239,1.677V20.72h-2.429V31.883H805.2V25.694a2.62,2.62,0,0,1,2.718-2.95c1.62,0,2.429,1.041,2.429,2.95v6.189h2.429V25.694a2.62,2.62,0,0,1,2.718-2.95c1.677,0,2.429,1.041,2.429,2.95v6.189Z" transform="translate(-737.071 -8.228)"/></g><g transform="translate(391.8 2.801)"><g transform="translate(38.403 9.138)"><path class="f" d="M464.736,24.417a6.456,6.456,0,0,0-6.536,6.536,6.619,6.619,0,0,0,6.767,6.709,6.46,6.46,0,0,0,6.131-4.049l-3.412-.578a3.112,3.112,0,0,1-2.66,1.33c-1.677,0-2.834-.868-2.892-2.2h9.254v-.925A6.691,6.691,0,0,0,464.736,24.417Zm-2.661,5.09c.058-.925,1.272-1.851,2.661-1.851a2.5,2.5,0,0,1,2.66,1.851Z" transform="translate(-458.2 -21.236)"/><path class="f" d="M487.856,28.43l-2.6-3.412H480.8v.231l4.685,6.015-4.28,6.131v.174h4.4l2.256-3.239,2.256,3.239h4.4v-.231l-4.222-6.073,4.627-6.015v-.231h-4.453Z" transform="translate(-467.729 -21.489)"/><path class="f" d="M511.042,18.917h-.752L505.2,25.51v.347h1.909v1.851c0,4.916,3.759,7.461,8.039,7.461V31.352c-2.2,0-4.164-1.1-4.164-3.644V25.857h4.164V22.445h-4.106V18.917Z" transform="translate(-478.017 -18.917)"/><path class="f" d="M530.917,27.293h0V24.806H527.1V37.357h3.817v-3.47a5.63,5.63,0,0,1,5.784-5.841l-1.215-3.528A5.468,5.468,0,0,0,530.917,27.293Z" transform="translate(-487.251 -21.278)"/><path class="f" d="M554.374,24.664v1.215a5.3,5.3,0,0,0-3.875-1.562c-3.181,0-5.9,2.892-5.9,6.593,0,3.759,2.776,6.709,5.9,6.709A5.338,5.338,0,0,0,554.374,36v1.272h3.644V24.664Zm-2.892,9.485a3.172,3.172,0,0,1-3.181-3.181,3.136,3.136,0,0,1,3.181-3.181,2.94,2.94,0,0,1,2.892,3.181A2.94,2.94,0,0,1,551.483,34.149Z" transform="translate(-494.629 -21.194)"/><rect class="f" width="3.991" height="3.991" transform="translate(65.24 12.088)"/><path class="f" d="M589.874,24.664v1.215A5.3,5.3,0,0,0,586,24.317c-3.181,0-5.9,2.892-5.9,6.593,0,3.759,2.776,6.709,5.9,6.709a5.434,5.434,0,0,0,3.644-1.388v.983a2.747,2.747,0,0,1-2.95,2.487,3.1,3.1,0,0,1-2.66-1.388l-3.47.636a6.506,6.506,0,0,0,6.131,4.106,6.619,6.619,0,0,0,6.767-6.709V24.664Zm-2.892,9.485a3.172,3.172,0,0,1-3.181-3.181,3.136,3.136,0,0,1,3.181-3.181,2.94,2.94,0,0,1,2.892,3.181A2.94,2.94,0,0,1,586.983,34.149Z" transform="translate(-509.597 -21.194)"/><path class="f" d="M615.1,29.464a2.5,2.5,0,0,0-2.66-1.851c-1.388,0-2.661.868-2.718,1.851Zm-5.379,2.66c.058,1.33,1.215,2.2,2.95,2.2a3.2,3.2,0,0,0,2.718-1.388l3.412.578a6.506,6.506,0,0,1-6.131,4.106A6.619,6.619,0,0,1,605.9,30.91a6.482,6.482,0,0,1,6.593-6.593,6.573,6.573,0,0,1,6.593,6.825v.983Z" transform="translate(-520.475 -21.194)"/></g><path class="g" d="M436.58,32.217l-4.28,3.065,4.627,14.228,4.28-3.123Z" transform="translate(-408.876 -15.387)"/><path class="h" d="M415.088,49.806l-7.808,5.668L403,52.408l12.088-8.791,12.088,8.791-4.28,3.065Z" transform="translate(-396.522 -20.194)"/><path class="i" d="M394.6,22.317" transform="translate(-392.981 -11.213)"/><path class="j" d="M393.419,22.317l12.146,8.791-4.627,14.228-4.28-3.123,3.008-9.2L391.8,27.349Z" transform="translate(-391.8 -11.213)"/><path class="i" d="M453.2,22.317" transform="translate(-417.688 -11.213)"/><path class="k" d="M404.178,12.313l3.008-9.2h5.263L407.88,17.345H392.9l1.619-5.032Z" transform="translate(-392.264 -3.117)"/><path class="l" d="M429.371,12.313l-3.007-9.2H421.1l4.627,14.228h14.922l-1.619-5.032Z" transform="translate(-404.154 -3.117)"/><path class="m" d="M435.673,24.049l-1.619-5.032-16.31,11.856L410.919,25.9,409.3,30.931c4.222,3.065,8.5,6.131,8.5,6.131Z" transform="translate(-399.179 -9.821)"/></g><line class="n" y2="23.135" transform="translate(546.265 8.874)"/></g></svg>