<svg id="add-to-cart" xmlns="http://www.w3.org/2000/svg" width="35.919" height="35.919" viewBox="0 0 35.919 35.919">
  <g id="Group_275" data-name="Group 275" transform="translate(0 0)">
    <path id="Path_122" data-name="Path 122" d="M35.708,11.013a1.052,1.052,0,0,0-.841-.42H28.407a7.366,7.366,0,0,0-14.581,0H8.35L6.975.9A1.052,1.052,0,0,0,5.933,0H1.052a1.052,1.052,0,0,0,0,2.1H5.019L7.983,22.983a5.262,5.262,0,0,0,1.656,3.135A3.155,3.155,0,0,0,10.816,31.6a3.157,3.157,0,1,0,5.91.111h8.78a3.157,3.157,0,1,0,2.976-2.1H11.645a1.052,1.052,0,1,1,0-2.1H27.412a5.282,5.282,0,0,0,5.058-3.812l3.407-11.749a1.052,1.052,0,0,0-.169-.925Zm-7.225,20.7a1.052,1.052,0,1,1-1.052,1.052A1.053,1.053,0,0,1,28.482,31.709Zm-14.732,0A1.052,1.052,0,1,1,12.7,32.762,1.053,1.053,0,0,1,13.75,31.709ZM21.116,6.384a5.262,5.262,0,1,1-5.262,5.262A5.267,5.267,0,0,1,21.116,6.384Zm9.331,16.722a3.17,3.17,0,0,1-3.035,2.29H13.191a3.172,3.172,0,0,1-3.125-2.71L8.648,12.7h5.177a7.366,7.366,0,0,0,14.581,0h5.059ZM19.012,12.7h1.052V13.75a1.052,1.052,0,0,0,2.1,0V12.7h1.052a1.052,1.052,0,0,0,0-2.1H22.168V9.541a1.052,1.052,0,0,0-2.1,0v1.052H19.012a1.052,1.052,0,0,0,0,2.1Z" transform="translate(0 0)" fill="#fff"/>
  </g>
</svg>
