<svg xmlns="http://www.w3.org/2000/svg" width="413.376" height="506.447" viewBox="0 0 413.376 506.447"><defs><style>.a{fill:#a4d0c6;}.a,.b,.c,.d,.e,.f,.g,.h,.i,.k{fill-rule:evenodd;}.b{fill:#372330;}.c{fill:#fd9b76;}.d{fill:#9799d2;}.e{fill:#f15b40;}.f{fill:#fff;}.g{fill:#f48f69;}.h{fill:#fac3b8;}.i,.j{fill:#241c21;}.k{fill:#fec405;}</style></defs><g transform="translate(-157.066 -607.372)"><g transform="translate(157.066 607.372)"><path class="a" d="M948.17,2050.141c5.554-14.718,9.988-29.5,14.359-45.039a430.581,430.581,0,0,0,28.666,45.039h77.17c-.224-.852-.449-1.706-.671-2.557-3.172-12.142-6.567-23.851-10.259-34.6-6.075-17.715-11.941-37.036-18.993-55.4-1.262-3.286-3.818-9.714-5.984-14.657-.436-1-1.46-3.3-2.823-2.756-2.054.816,1.537,6.616,2.617,9.266,4.311,10.566,8.058,20.872,11.6,30.823-2.18-1-1.793-6.9-4.61-6.683-2.079,1.356,1.635,4.651,1.052,6.954-1.076-.009-1.155-1.439-1.482-2.058a54.947,54.947,0,0,1-3.587-7c-1.552-4.359-1.2-8.81-2.122-13.058-3.806-17.5-18.132-24.3-30.085-28.13-11.266-3.618-23.282-5.258-37.343-2.062-2.008-.513-3.364-2.263-5.357-2.805a102,102,0,0,0-9.747,5.566c5.543.278,11.762-.725,17.609-1.021.075,1.888-.25,3.567-.272,5.405.951.563,2.139.31,3.286.652,7.364,2.224,2.952,13.155,2.441,18.563-.571,6.022.007,11.27-.973,15.711.222,1.337.988,1.639,1.211,2.978-.243.57-1.543-.288-2.457.207-.079-1.7,2.54-9.234-2.026-9.166-4.8.069-4.66,7-6.6,9.343-1.163-.494-1.9-1.8-3-2.424a55.148,55.148,0,0,0,.912-12.325c-1.787-1.186-3.8-.925-5.728-1.293-1.814-.345-3.686-1.34-5.647-1.035-1.5.232-2.826,1.63-4.514,1.69-.991.033-2.8-1.317-4.018-2.106-10.6-6.843-22.378-9.476-40.295-2.539-.122-3.377.816-7.628,1.322-11.9.521-4.338.575-8.863,1.581-11.974.493-1.516,2.118-2.884,1.693-4.448a3.4,3.4,0,0,0-4.02-2.106c-3.7.981-3.712,6.158-4.323,9.473a102.439,102.439,0,0,0-1.724,10.619,4.239,4.239,0,0,0-5.326,4.464c-3,.849-2.044,3.767-3.988,5.168-.641-2.782.237-5.452.5-8.277.247-2.725.007-5.662.334-8.785.427-4.1,1.98-9.2,3.3-13.635.669-2.25,2.012-7.232-2.151-6.889-4.13.34-4.523,5.957-5.424,9.535a75.591,75.591,0,0,0-2.042,9.6c-.93.4-2.537-.018-3.061.957-2.108,1.5-1.938,4.357-2.155,6.555-.7,7.024-1.395,14.649-1.772,22.113-.251,5.019-.273,10.09-.62,15.04-.344,4.875-.994,9.63-1.373,14.431-.781,9.878-.711,19.976-.91,30.249a180.848,180.848,0,0,0,1.618,26.322Zm10.1-70.315c.759,1.478,2.226,3.337.507,4.323a.736.736,0,0,0-.748-.6A7.315,7.315,0,0,1,958.271,1979.825Zm-21.391-18.241c-8.33,3.532-15.266,7.8-22.634,11.832-.548-2.415-.086-4.1-.816-6.188-2.006-5.733-7.461-5.68-11.708-6.986C916.7,1954.479,928.513,1954.741,936.88,1961.585Z" transform="translate(-667.651 -1543.694)"/><g transform="translate(25.437 64.706)"><path class="b" d="M412.856,851.522c-3.479-.92-4.545-1.587-7.323-1.916a34.238,34.238,0,0,0-24.582,7.4c-6.724,5.777-10.177,14.591-12.873,23.346-1.283,4.174-2.463,8.919-4.385,12.851-2.477,5.069-5.092,10.52-10.563,12.819-6.307,2.658-12.708.353-19.028.064-6.6-.3-18.954.988-24.391,6.217-3.916,3.772-6.575,9.757-8.326,15.486-.913,2.983-1.3,6.029-2.282,8.833a59.376,59.376,0,0,1-3.7,7.877c-5.009,9.559-14.455,20.63-30.451,22.675-4.545.581-9.52.018-14.117-.351-1.295-.1-3.278-.82-4.244.765.572,2.34,3.5,2.195,5.2,2.3,5.858.352,12.805.685,19.73-1.4,9.181-2.769,16.121-8.6,20.993-14.4a55.335,55.335,0,0,0,10.274-20.013,87.719,87.719,0,0,1,3.589-10.921c2.189-5.058,4.5-10.2,11.82-12.374a47.171,47.171,0,0,1,17.706-1.612c7.807.7,16.784,2.446,23.416-3.951,5.346-5.157,8.521-14.175,10.642-21.529,2.266-7.852,5.079-16.03,9.97-21.876,4.906-5.866,14.9-10.437,25.3-9.585-10.365,4.442-14.8,10.907-18.218,19.695a135.686,135.686,0,0,0-5.389,16.807c-2.845,11.735-5.232,24.015-14.136,31.859-9.076,8-27.983,7.606-36.925,16.3-5.143,4.993-5.688,12.64-3.464,22.084,1.212,5.135,3.88,10.832,3.605,15.117-.525,8.131-11.818,8.391-20.085,11.034-16.261,5.2-21.143,19.209-17.323,35.1,1.552,6.459,4.648,11.079,7.831,15.2a73.211,73.211,0,0,0,10.113,10.843,62.466,62.466,0,0,0,17.978,10.909c1.025.406,2.37.662,3.445,1.163,1.113.516,1.9,1.651,2.838,1.915.816.225,2.094.01,3.13.143,2.691.345,5.833.918,8.771,1.179,4.184.376,8.261-.225,12.777-.351a151.96,151.96,0,0,0,26.608-2.71c19.486-4.062,39.384-12.525,53.258-21.4,24.381-15.585,42.314-36.966,54.828-59.411,1.3-2.329,2.4-5.038,4.2-7.194.6-.723,1.426-1.181,1.9-1.994.794-1.366,1.424-4.094,2.233-6.3,1.539-4.183,2.962-8,4.549-12.34a31.6,31.6,0,0,0,1.975-6.221c.134-1.275-.473-3.173-.333-4.656.3-3.2,1.572-6.3,2.041-9.6a76.5,76.5,0,0,0-2.759-33.023c-4.811-15.394-12.894-25.712-25.886-30.844-3.79-10.7-12.138-18.8-19.923-24.3-2.5-1.763-6.226-4.551-8.868-5.068-6.753-1.331-15.895-1.7-23.863.73C420.722,839.746,416.154,845.061,412.856,851.522Z" transform="translate(-246.591 -835.104)"/></g><g transform="translate(162.71 159.308)"><path class="c" d="M970.93,1168.057a49.01,49.01,0,0,0-18.424,8.276C958.15,1174.166,964.458,1170.5,970.93,1168.057Z" transform="translate(-889.207 -1168.057)"/><path class="c" d="M807.236,1203.965c-2.166.862-4.7,1.428-6.734,2.665-1.056.644-1.7,1.854-2.581,2.485-.9.638-2.487,1.088-3.669,1.708a33.663,33.663,0,0,1-3.333,1.883c-.938.337-2.107.305-3.142.7-3.969,1.514-7.974,4.319-12.045,6.283-12.433,6-23.454,12.828-30.851,21.4-1.153,1.337-2.036,3.162-3.046,4.592-5.772,8.173-9,17.66-12.11,27.586,9.939,5.017,23.912,3.9,38.094,2.665,13.863-1.2,29.006-3.512,43.978-8.975,13.821-5.047,25.983-12.529,34.232-21.339,7.779-8.3,15.443-20.136,12.794-32.561-1.335-6.254-4.36-8.105-8.692-9.885a38.233,38.233,0,0,0-6.3-2.231c-2.6-.468-6.279.007-9.809-.017-3.327-.025-6.946-.247-9.73.239-3.137.544-5.547,2.646-8.582,2.118-1.525,1.268-1.4,3.581-3.463,4.162C810.106,1208.045,808.607,1206.078,807.236,1203.965Z" transform="translate(-729.725 -1191.448)"/></g><path class="d" d="M1138.892,1341.664c3.028-.2,6.086-1.544,5.486-3.953C1143.151,1332.771,1133.223,1338.7,1138.892,1341.664Z" transform="translate(-858.683 -1128.842)"/><path class="a" d="M839.637,1276.02c2.09,2.142,3.557,6.481,4.815,9.134,4.409,9.3,9.805,16.887,17.976,19.87,6.745,2.466,14.9.974,23.433-.318.946-.144,2.43-.885,3.382.064,1.246.808-.218,2.013-.894,2.521,5.912,1.915,6.091,11.246,4.355,15.723-4.06,10.459-18.623,22.768-31.457,26.626-3.611,1.088-8.151,1.279-10.911.052-2.662-1.185-3.526-3.389-5.391-5.6-1.549-1.836-4.1-3.167-4.706-6.094-.894-.2-2.163.329-2.52-.892.116-7.589.809-15.509-.222-24.018a192.408,192.408,0,0,0-4.911-26.468c-.525-1.959-1.564-4.012-1.325-6.028C832.874,1278.673,836.347,1275.662,839.637,1276.02Zm42.428,32.675c2.7,2.519,8.014,7.52,7.606,13.585,1.109-2.851,2.233-6.75.113-10.4C888.227,1309.2,884.82,1309.024,882.065,1308.7Zm-40.436,22.992c-.267.719-.055,2.8.781,3.394A16.253,16.253,0,0,1,841.629,1331.688Zm11.039,15.6c.332.067,4.27,1.073,4.56.255C857.2,1347.624,853.524,1347.149,852.668,1347.283Z" transform="translate(-639.676 -1086.016)"/><g transform="translate(50.795 141.563)"><path class="e" d="M1053.713,1186.472c-.208-.555-1.117.229-1.61.222C1052.311,1187.249,1053.217,1186.464,1053.713,1186.472Z" transform="translate(-848.591 -1163.353)"/><path class="e" d="M980.071,1199.033c-4.312,1.189-11.075,2.721-15.138,4.448-.43.186-.484.32-.176.337C970.073,1202.666,974.546,1200.615,980.071,1199.033Z" transform="translate(-785.923 -1172.487)"/><path class="e" d="M928.978,1225.913c1.21.48,2.128-1.011,3.573-1.115C932.389,1224.106,929.96,1225.638,928.978,1225.913Z" transform="translate(-760.45 -1190.804)"/><path class="e" d="M340.4,1354.641c2.262,1.34,5.362.911,8.439,1.009,19.589.61,44.326-1.922,68.03-10.894a158.873,158.873,0,0,0,59.964-40.291c.153,3.02-.786,6.226-1.117,9.868a113.452,113.452,0,0,0,.43,21.992c.415,3.95.191,8.478,1.626,12.373,1.4,3.785,4.687,7.8,7.48,11.386a148.241,148.241,0,0,0,26.574,25.867c6.332,4.876,13.235,8.466,20.5,11.8a229.294,229.294,0,0,0,21.9,9.122c7.375,2.489,15.828,3.8,24.438,4.689,8.442.871,16.98,2.048,25.408,2.425a77.3,77.3,0,0,0,28.587-4.448c14.1-4.994,32.113-3.385,34.055-16.521.755-5.1-1.182-12.786-2.424-19.406-3.79-20.211-8-39.906-13.061-60.609-7.154-29.259-16.352-56.984-23.111-83.8,6.939-.8,13.727.169,20.736-.877a71.437,71.437,0,0,0,22.123-7.19c6.667-3.484,12.544-6.736,16.29-11.529,3.44-4.406,5.678-10.169,6.905-16.44,2.4-12.238,1.667-25.52-.67-40.677a202.414,202.414,0,0,0-9.233-34.923c-1.925-5.326-3.306-11.82-7.641-11.9-1.55.018-2.283.893-3.382-.065-5.411,1.829-10.707,3.586-14.245,6.411-3.657,2.922-3.572,6.76-5.853,9.95a45.523,45.523,0,0,1-12.218,11.1c-4.971,3.195-11.232,6.75-17.915,8.116a3.578,3.578,0,0,1-.509.161A75.906,75.906,0,0,1,594.257,1137c-8.387-2.776-16.221-7.212-26.145-8.357-4.852-.562-10.127-.053-15.822.462-1.017.09-3.18.508-4.005,1.527-1.053,1.3-.119,7.31-.178,9.3a53.808,53.808,0,0,1-6.378,24.4c-4.932,9.409-11.619,17.89-23.72,24.492-12.57,6.855-27.7,9.444-39.848,9.648A109.267,109.267,0,0,1,452,1195.441c-2.577-.6-6.426-2.224-8.345-1.6-2.076.683-5.265,5.822-7.176,8.406-10.725,14.487-21.837,28.851-31.778,43.532-3.979,5.877-8.264,11.514-12.505,17.349-8.3,11.41-17.871,22.843-27.2,33.981-4.359,5.2-9.044,10.9-14.436,16.55-2.258,2.359-4.778,5.311-7.261,8.15-4.106,4.7-6.015,7.383-7.1,13.135C335.257,1340.012,335.987,1348.993,340.4,1354.641Z" transform="translate(-335.84 -1105.605)"/></g><path class="b" d="M1387.1,800.7c-.777,4.5,2.539,9.348,4.991,13.284a150.992,150.992,0,0,0,15.918,21.353,50.1,50.1,0,0,1,4.133,5.151c.988,1.459,1.882,4.828,4.575,3.89.118-2.065-1.544-3.81-2.6-5.63-3.242-5.583-6.481-10.991-9.827-17.1-1.963-3.578-4.012-8.051-6.284-12.039-2.189-3.842-4.69-8.355-7.766-9.614C1389.575,799.314,1387.782,800.17,1387.1,800.7Z" transform="translate(-1037.524 -745.085)"/><path class="b" d="M1563.864,1068.38c-.693,2.016,1.371,3.645,2.441,5.119,2.176,3.005,4.177,6.112,6.587,9.424.987,1.353,2.255,3.42,4.086,3.206,1.3-1.609-.539-3.365-1.436-4.593-2.978-4.073-6.818-8.919-9.73-13.2-.275-.154-.746.068-.924-.271C1564.546,1068.167,1564.207,1068.275,1563.864,1068.38Z" transform="translate(-1164.051 -937.165)"/><path class="c" d="M1480.749,970.7c.576-1.691.082-3.94-.891-6.443-1.3-.644-2.264-1.926-4.293-1.181,1.1-3.918-1.787-9.112-6.555-6.632-2.7-2.967-2.362-8.768-6.188-8.149-1.987.321-5.145,4.341-5.966,6.9-.3.932.15,1.749-.046,2.538-.565,2.239-2.364,2.705-3.208,4.081-1.627,2.653-.923,7.058-1.961,9.854-1.275,3.429-4.489,5.921-4.675,10.141a19.141,19.141,0,0,0,1.627,7.893,37.7,37.7,0,0,0,2.138,3.253c1.416,2.51,2.031,4.988,4.627,5.838a21.648,21.648,0,0,0,3.124.143c2.255.186,5.843.526,8.981-.848,6.28-2.743,8.942-9.7,12.284-14.479,1.452-1.663,5.847-6.812,4.753-9.883C1483.867,971.95,1482.241,971.876,1480.749,970.7Z" transform="translate(-1080.458 -851.394)"/><path class="c" d="M192.051,1924.2c-1.21,1.827-3.669,4.138-4.785,7.1-1.137,3.013-1.671,10.411,3.461,9.28,2.309-.508,3.774-4.256,5.775-5.726,3.755-2.752,9.652-2.97,12.808-6.52a25.384,25.384,0,0,0,2.459-4.687c1.686-3.564,3.15-6.609,2.326-11.371a21.581,21.581,0,0,0-2.9-7.5c-.831-1.077-2.334-.795-3.7-1.085-1.157-.244-2.506-1.045-3.7-1.084-1.169-.036-3.073.416-5.165.494a41.28,41.28,0,0,1-4.993.161c-5.557-.437-13.453-3.712-15.793,3.252-4.781,1.549-7.525,4.167-7.849,8.051-2.938,1.285-4.671,4.359-7.3,6.2-1.928,1.35-6.054,2.329-5.582,4.545.349,1.648,3.293,2.028,5.293,1.705,5.727-.92,9.369-4.782,14.3-4.464C182.042,1922.9,187.145,1926.143,192.051,1924.2Z" transform="translate(-157.066 -1534.24)"/><path class="f" d="M900.759,880.232c-1.993.386-11.3,2.751-6.811,6.89,1.492,1.376,3.518-.447,5.521-1.164,6.506-2.329,14.569-.108,19.667,1.978,1.066.434,1.689,1.525,3.542.574a3.031,3.031,0,0,0,1.4-2.679c-.566-3.13-8.284-4.972-10.384-5.437A30.67,30.67,0,0,0,900.759,880.232Z" transform="translate(-683.713 -802.268)"/><path class="f" d="M770.262,928.115c-1.555.064-3.128,2.375-4.309,4.145a36.4,36.4,0,0,0-2.709,4.77c-1.213,2.653-3.572,8.921-2.155,11.034a2.909,2.909,0,0,0,2.774.814c2.643-.717,2.919-6.6,3.718-8.722a31.884,31.884,0,0,1,2.552-5.276c1-1.663,3.2-2.823,2.634-5.025A1.992,1.992,0,0,0,770.262,928.115Z" transform="translate(-589.153 -836.964)"/><path class="f" d="M751.479,1026.453c2.184-.357,2.593-1.65,3.19-3.237.726-1.917,1.484-6.661-2.087-5.788C750.109,1018.03,747.664,1026.074,751.479,1026.453Z" transform="translate(-581.171 -900.843)"/><path class="f" d="M608.55,1184.432c-.357,4.825,5.845,3.537,5.153.351C613.25,1182.7,609.968,1182.015,608.55,1184.432Z" transform="translate(-480.259 -1019.372)"/><path class="f" d="M546.208,1209.657c2.592.247,3.75-1.794,3.286-3.826a14.738,14.738,0,0,1,3.639-4.5c1.592-1.373,4.861-2.605,4.4-4.736a2.793,2.793,0,0,0-3.174-2.091c-2.95.405-8.385,6.275-9.4,9.379C544.332,1205.823,544.31,1208.516,546.208,1209.657Z" transform="translate(-434.475 -1027.664)"/><path class="f" d="M442.794,1386.744c-1.8-.09-5.512,1.487-7.243,2.823-2.756,2.121-5.753,6.956-6.781,9.675-1.15,3.062-2.986,13.324,2.315,11.881,2.573-.7,1.705-3.87,1.8-5.884.221-4.634,3.837-10.515,7.848-12.534,1.678-.845,5.579-1.143,4.9-4.05C445.315,1387.3,444.262,1386.814,442.794,1386.744Z" transform="translate(-350.665 -1165.298)"/><path class="f" d="M1176.275,1255.6a7.663,7.663,0,0,1,5.359,2.808c.223,1.11-.576,1.687.111,3.044.865,1.293,3.7.73,4.243-.763,1.94.1,3.193,1.508,5.042,1.784,1.431-1,3.259-1.914,3.11-3.492-.114-1.232-4.992-6.243-6.38-6.97-1.885-.985-4.3-.489-5.217-1.45-3.45,1.67-7.147-3-8.232,1.45C1175,1253.142,1175.629,1254.386,1176.275,1255.6Z" transform="translate(-885.281 -1067.43)"/><path class="f" d="M1442.535,1180.073a2.426,2.426,0,0,1,1.342.7c2.589-.318,3.98-2.4,5.231-3.876a48.717,48.717,0,0,0,3.637-4.5c1.177-1.8,3.395-5.316,2.759-7.3a2.217,2.217,0,0,0-3.271-1.5c-1.271.515-1.88,2.856-2.616,4.176a28.83,28.83,0,0,1-2.694,3.922C1444.455,1174.755,1441.041,1176.234,1442.535,1180.073Z" transform="translate(-1077.033 -1005.376)"/><path class="f" d="M1148.065,1321.062c1.64,2.558,4.156,6.894,7.308,7.239,2.7.3,8.929.269,8.6-2.966-.215-2.11-6.491-7.313-8.055-7.846-.641-.216-7.429-.961-8.532-.413C1145.017,1318.245,1146,1320.255,1148.065,1321.062Z" transform="translate(-865.018 -1115.287)"/><path class="f" d="M1111.032,1376.437c-.448,1.013.837,1.443,1.307,2.389.234.47.008,1.071.225,1.614a16.581,16.581,0,0,0,3.539,5.053c1.285.985,9.272,3.124,9.236-.926-.016-1.9-3.951-6.133-5.279-7.032-1.143-.774-5.943-2.773-6.969-2.582A2.55,2.55,0,0,0,1111.032,1376.437Z" transform="translate(-839.915 -1156.85)"/><path class="f" d="M784.271,1502.014c-1.983.889-3.954,4.548-3.685,7.031.1.909,1.109,2.286,1.452,3.747.533,2.272-.036,6.275,3.11,5.47.505-.131.767-.713,1.47-1.58,3.1-3.83,4.738-9.294,1.165-16.884C786.468,1498.392,783.329,1499.843,784.271,1502.014Z" transform="translate(-603.408 -1245.834)"/><path class="f" d="M707,1488.647c-1.282.345-2,1.57-3.091,2.292-.965.638-2.921.785-3.519,1.96-1.224,2.411.569,5.619,1.306,7.883.908,2.793,1.191,5.236,4.369,2.725,3.864-3.052,6.673-8.019,4.863-16.21C709.88,1485.5,706.659,1486.527,707,1488.647Z" transform="translate(-545.718 -1236.624)"/><path class="f" d="M1061.868,1419.831c-.687,1.281.05,3.144.256,4.4.24,1.475.4,4.839,1.642,7.047,1.563,2.78,6.289,4.337,8.248,2.185.522-4.751-1.985-8.369-4.866-11.082C1065.264,1420.608,1064.142,1419.4,1061.868,1419.831Z" transform="translate(-804.581 -1188.925)"/><path class="f" d="M866.74,1494.773c.071.25-.25.3-.43.413a3.458,3.458,0,0,0-.129,2.282c-2.638,1.96-2.815,5.209-3.952,7.955.9,3.361,4.432,8.865,6.857,8.5,2.2-.331,3.568-4.579,3.8-8.467.117-1.994-.63-3.714-1.739-6.458C869.921,1495.974,869.65,1493.744,866.74,1494.773Z" transform="translate(-661.87 -1242.453)"/><path class="f" d="M1001.616,1460.974a3.335,3.335,0,0,0,1.388,2.646c-3.649,4.824,2.469,9.377,5.615,11.69a6.049,6.049,0,0,0,3.223-.447,11.1,11.1,0,0,0-.289-7.193c-.64-1.719-5.913-8.378-7.877-8.178A2.855,2.855,0,0,0,1001.616,1460.974Z" transform="translate(-761.653 -1217.375)"/><path class="f" d="M936.1,1480.913c-.457.827-.8,2.609.269,3.556-.382.724-1.352,1.14-1.642,1.915-.829,3.685,1.531,7.647,4.4,8.7.44,2.039,1.6,2.991,2.824,2.761,2.75-.517,2.7-6.129,1.037-10.127-.31-.741-1.316-1.742-2.058-3C939.473,1482.254,939.044,1479.369,936.1,1480.913Z" transform="translate(-713.65 -1232.403)"/><path class="f" d="M1407.307,1335.424c-2.984-.039-4.8,2.117-4.482,4.482.9,6.57,9.89,2.764,7.655-2.393A3.353,3.353,0,0,0,1407.307,1335.424Z" transform="translate(-1048.841 -1128.562)"/><path class="f" d="M1490.234,1359.685a3.973,3.973,0,0,0-2.47,1.054c-1.61,1.782-.519,6.826,2.917,6.649C1496.114,1367.111,1495.779,1358.85,1490.234,1359.685Z" transform="translate(-1109.15 -1145.887)"/><path class="f" d="M557.117,1646.817c-2.722-.351-4.5,3.377-6.029,5.806-1.211,1.923-3.8,4.686-2.408,6.633,2.109,2.959,5.408-1.992,7.017-4.433.734-1.111,1.525-2.008,2.171-2.918C558.9,1650.447,560.091,1647.2,557.117,1646.817Z" transform="translate(-437.125 -1351.462)"/><path class="f" d="M1358.28,1409.135c-3.066.186-4.867,2.546-3.908,5.425,1.687,5.057,9.229,1.608,7.753-2.981A3.474,3.474,0,0,0,1358.28,1409.135Z" transform="translate(-1013.996 -1181.323)"/><path class="f" d="M415.665,1751.2c2.8,2.668,8.136-4.9,10.543-7.494,5.976-6.443,11.778-12.142,16.433-19.135.976-1.469,1.906-3.263,3.4-5.264,1.441-1.934,3.332-3.713,2.808-5.358a2.367,2.367,0,0,0-3.525-1.418c-2.616,1.191-5.87,7.156-7.627,9.661-2.565,3.664-5.154,6.242-7.705,9.408-1.346,1.675-2.465,3.391-3.812,4.834-2.948,3.157-5.415,6.145-8.293,9.312C416.571,1747.188,414.126,1748.614,415.665,1751.2Z" transform="translate(-341.837 -1398.295)"/><path class="f" d="M602.971,1735.323c-2.141.4-3.715,1.99-3.046,4.595a4.016,4.016,0,0,0,4.849,2.966C609.266,1741.693,608.27,1734.349,602.971,1735.323Z" transform="translate(-473.984 -1414.775)"/><path class="f" d="M1238.626,1549.932c-2.765.3-4.646,2.407-4.068,4.911,1.285,5.544,10.486,2.977,8.088-2.807C1241.988,1550.452,1240.732,1549.7,1238.626,1549.932Z" transform="translate(-928.335 -1282.093)"/><path class="f" d="M719.508,1725.376c-2.341.322-3.97,2.07-3.3,4.676.83,3.237,4.044,3.648,6.3,2.231s1.495-5.423-.38-6.6A4.022,4.022,0,0,0,719.508,1725.376Z" transform="translate(-557.229 -1407.663)"/><path class="f" d="M1005.022,1655.707c-6.657.064-3.972,9.37,1.213,7.461C1009.932,1661.806,1009.252,1655.667,1005.022,1655.707Z" transform="translate(-761.264 -1357.843)"/><path class="f" d="M911.92,1742.16c-.328,2.783-3.035,5.686-4.308,8.625a8.7,8.7,0,0,0-.83,3.62c.709,6.773,8.375,7.94,12.122,2.933.951,3.509.137,8.568,2.059,11.96,1.785,3.157,6.3,3.992,9.7,1.453,5.106-3.824-.139-13.8.3-20.54,2.931,1.128,5.284,6.271,8.839,6.763,6.391.881,8.288-6.129,4.512-10.653-2.476-2.966-6.25-5.186-8.549-8.534a13.531,13.531,0,0,0,3.652-.86c5.8-4.4-.148-11.881-4.084-16.646-1.252-1.52-2.418-3.013-3.557-4.212-3.343-3.52-9-8.931-15.312-4.179a21.708,21.708,0,0,0-4.068,4.911c-1.52,2.449-2.544,5.8-3.891,9.06-1.545,3.725-4.806,7.685-3.606,11.769C905.921,1741.1,908.561,1742.3,911.92,1742.16Z" transform="translate(-692.233 -1396.728)"/><path class="f" d="M1186.429,1661.805c.75,1-.026,2.481-.5,3.793-1,2.8-3.428,8.035-3.174,11.355.57,7.476,10.017,8.113,12.393,2.009,2.832,4.337,3.164,12.124,7.337,14.513,4.54,2.6,10.586-1.565,9.523-7.176s-4.641-9.706-6.4-15.087c2.159.713,2.768,2.809,4.674,3.3,5.851,1.508,9.422-4.968,5.776-10.205-1.1-1.579-3.883-3.241-5.583-4.416-2.058-1.425-4.137-2.378-5.854-3.492,4.9-.8,7.136-4.044,5.232-8.356-1.259-2.851-5.411-4.98-8.74-7.353-3.2-2.278-5.778-4.735-9.443-6.012-9.236-3.209-13.857,8.4-15.41,14.336-.39,1.5-.432,3.23-.766,4.721-.525,2.331-1.75,3.979-1.053,6.487C1176.078,1666.115,1183.674,1666.162,1186.429,1661.805Z" transform="translate(-885.229 -1342.397)"/><path class="f" d="M577.382,1834.462c-2.684.146-4.459,1.866-4.051,4.066,1.235,6.651,10.866,2.858,7.578-2.647C580.548,1835.274,579.79,1834.333,577.382,1834.462Z" transform="translate(-455.016 -1485.8)"/><path class="f" d="M1044.308,1713.016c.709,3-3.214,7.8-2.5,11.7a6.546,6.546,0,0,0,11.18,3.509c1.367-1.376,1.128-3.14,2.379-4.942,1.844,7.242,3.135,20.47,10.113,19.806,11.7-1.118,2.987-17.62,1.228-24.751,1.149-.441,1.892.875,2.68,1.4a7.867,7.867,0,0,0,3.014,1.58c3.839.529,7.4-2.65,6.636-6.556-1.168-5.959-7.251-6.189-9.953-10.332,5.195-1.942,6.306-6.486,2.823-10.686-.895-1.077-2.486-1.859-3.749-3.029-4.58-4.241-13.187-15.61-21.5-7.847-1.892,1.769-3.3,5.246-4.288,7.782-1.377,3.531-2.877,7.17-4.611,11.243-.8,1.87-2.061,4.168-1.885,5.627C1036.444,1712.28,1040.1,1714.151,1044.308,1713.016Z" transform="translate(-786.162 -1375.398)"/><path class="f" d="M897.757,1938.652c-2.77.251-4.566,2.225-3.392,5.265,1.52,3.944,8.134,2.582,7.56-1.8C901.541,1939.217,899.958,1938.455,897.757,1938.652Z" transform="translate(-684.614 -1560.374)"/><path class="f" d="M1357.614,1862.045c-3.493.242-5.79,2.087-4.833,5.151.569,1.823,2.049,2.227,3.334,2.6,1,.292,2.988.834,4.3.334C1365.22,1868.316,1362.372,1861.716,1357.614,1862.045Z" transform="translate(-1012.886 -1505.546)"/><path class="f" d="M1195.5,1924.722c-2.721.458-3.952,2.736-2.808,5.357,1.5,3.424,8.885,2.425,7.243-2.823C1199.219,1924.961,1197.778,1924.337,1195.5,1924.722Z" transform="translate(-898.137 -1550.347)"/><path class="f" d="M1020.8,2004.874a3.691,3.691,0,0,0-3.446,3.317c-.4,7.221,10.984,4.129,7.223-1.976A3.834,3.834,0,0,0,1020.8,2004.874Z" transform="translate(-772.912 -1607.762)"/><path class="f" d="M1301.815,1955.477c-2.42.283-3.823,1.705-3.539,3.907.272,2.144,2.237,3.979,4.241,3.717C1307.148,1962.493,1307.273,1954.843,1301.815,1955.477Z" transform="translate(-973.997 -1572.413)"/><path class="f" d="M1186.852,2043.892c-3.3.149-6.2,3.363-3.59,6.442,2.547,3.006,9.719.813,7.275-4.512C1190.009,2044.675,1189.007,2043.794,1186.852,2043.892Z" transform="translate(-890.967 -1635.728)"/><path class="f" d="M1330.935,2061.643a3.671,3.671,0,0,0-3.622,3.65c.408,5.813,9.232,4.648,7.882-.781C1334.558,2061.968,1333.119,2061.413,1330.935,2061.643Z" transform="translate(-994.805 -1648.407)"/><path class="f" d="M1472.315,2193.459c-3.11.294-1.513,4.542-.417,8.531,2.326,8.454,6.155,19.5,8.038,26.614,1.02,3.847,1.628,6.942,4.2,6.252,2.959-.793,1.589-5.183.432-9.375-2.094-7.589-4.631-14.811-7.019-22.455C1476.358,2199.231,1475.449,2193.163,1472.315,2193.459Z" transform="translate(-1097.313 -1742.796)"/><g transform="translate(184.172 112.116)"><path class="g" d="M820.128,1049.739c-9.136,7.1-20.62-10.978-11.572-15.9,1.79-.973,3.435-.591,5.291-.626,1.987-5.753.806-12,2.376-17.492,1.5-5.254,4.766-9.2,10.789-12.489.713-.39.252-.322.977-.44a89.954,89.954,0,0,1,34.981,2.117c3.262.882,8.371,2.274,10.123,4.233,1.894,2.117,3.549,7.032,4.727,10.477,3.643,10.643,5.528,19.853,4.474,28.773-.456,3.861-3.174,8.817-5.526,12.461-3.554,5.507-7.217,10.077-15.351,12.784a25.9,25.9,0,0,1-12.239.83C837.779,1072.335,827.487,1062.926,820.128,1049.739Z" transform="translate(-805.26 -1001.964)"/><path class="h" d="M963.539,1165.1a63.7,63.7,0,0,0,21.024-8.013c-.468,4.476-2.5,9.269-7.158,11.439C972.089,1171,967.389,1168.041,963.539,1165.1Z" transform="translate(-918.567 -1113.01)"/><path class="i" d="M913.639,1064.853c-.549,2.976-7.12,4.211-9.351,3.334C902.3,1063.141,912.009,1061.841,913.639,1064.853Z" transform="translate(-875.961 -1045.837)"/><path class="i" d="M1001.466,1041.913c-.71,1.433-2.95,1.426-4.983,1.953-2.118.548-4.168,1.616-5.024-.079s1.143-3.019,2.775-3.6C996.538,1039.372,1000.4,1039.875,1001.466,1041.913Z" transform="translate(-938.408 -1029.061)"/><path class="i" d="M963.441,1063.291c2.67,1.909,3.807,5.638,5.507,8.951,1.91,3.728,4.652,7.17,6.276,10.663a6.613,6.613,0,0,1-3.046,4.305c-1.789,1.1-4.641,2.544-5.376-.217,1.071-1.684,4.392-1.676,5.411-3.614-2.841-4.992-7.344-12.955-9.9-18.7-.06-.359.255-.578.16-.952C962.792,1063.584,963.118,1063.438,963.441,1063.291Z" transform="translate(-917.681 -1045.866)"/><path class="j" d="M908.781,1103.713a1.346,1.346,0,0,1-.891-2.354c.554-.488,1.045-.952,1.5-1.379,2.992-2.83,4.945-4.3,10.292-1.739a1.344,1.344,0,1,1-1.164,2.424c-3.94-1.89-4.712-1.157-7.279,1.268-.472.448-.985.932-1.564,1.443A1.343,1.343,0,0,1,908.781,1103.713Z" transform="translate(-878.404 -1069.937)"/><path class="j" d="M995.445,1072.416a1.345,1.345,0,0,1-1.028-2.213c.477-.562.894-1.093,1.278-1.583,2.545-3.235,4.263-4.978,9.928-3.224a1.345,1.345,0,1,1-.8,2.568c-4.176-1.293-4.832-.455-7.014,2.32-.4.511-.84,1.066-1.338,1.655A1.342,1.342,0,0,1,995.445,1072.416Z" transform="translate(-940.444 -1046.876)"/><path class="i" d="M824.435,1130.9a23.876,23.876,0,0,1,1.309,6.154C822.078,1138.957,821.021,1129.935,824.435,1130.9Z" transform="translate(-817.503 -1094.216)"/></g><path class="i" d="M1483.914,945.659c-4.586,2.718-5.279,7.477-5.981,12.229,1.675,2.288,4.359,4.136,4.42,7.862.036,2.5-2.3,4.968-1.837,7.573.632,3.575,4.009,4.991,4.9,9.394.475,2.351-.776,4.284.207,6.937,2.271-1.272,2.19-4.788,1.584-7.495-.826-3.664-4.076-5.733-4.74-8.885-.762-3.617,3.525-6.558.891-11.479a16.731,16.731,0,0,0,3.543-3.908c.78-1.276,1.8-2.988,1.611-4.7-1.807-.236-2.37,1.784-3.011,2.9-.745,1.289-1.3,2.7-2.523,3.589-2.458-.212-2.951-3.083-2.87-4.706.142-2.948,2.968-6.5,4.386-8.371C1484.377,946.131,1484.009,946.159,1483.914,945.659Z" transform="translate(-1102.635 -849.541)"/><path class="i" d="M1509.945,973.5c-.257.078-.512.158-.766.239-2.247,3.665-9.74,18.649,1.179,18.116-.011,1.652-.071,4.1,1.246,5.771a4.114,4.114,0,0,0,4.322-.509c-.716,3.55,2.929,7.482,5.581,4.415-.591-1.178-2.062-.676-3.111-.986-1.613-3.7.474-5.9,1.852-8.421.813-1.483,2.564-3.231,1.531-4.958-1.6-.047-1.986,2.01-2.68,3.077-1.467,2.263-2.817,5.136-6.285,5.884-1.378-4.38.953-8.6,2.6-12.295.49-1.1,1.4-2.7.75-3.873-1.806.324-2.422,2.766-3.127,4.337a22.885,22.885,0,0,0-1.707,5.294c-6.469,2.329-5.179-4.562-3.809-8.61.865-2.568,2.668-4.958,3-6.538C1510.459,973.869,1510.132,973.815,1509.945,973.5Z" transform="translate(-1121.71 -869.469)"/><path class="b" d="M816.4,1196.158c-1.855-.167-1.564,2.5-1.515,4.113.706,23.008-10.588,41.585-32.207,52.908-23.453,12.284-48.451,10.089-66.324,5.594-2.366-.6-5.343-2.764-7.851-.907.069,1.854,2.234,2.121,3.59,2.52,18.685,5.466,46.565,8.681,72.149-4.895,19.929-10.577,31.94-27.863,33.323-49.337.2-3.123.66-7.12-.414-9.39A.731.731,0,0,0,816.4,1196.158Z" transform="translate(-551.826 -1028.861)"/><path class="b" d="M784.447,1196.036c.537,5.262-1.5,9.173-1.786,14a121.027,121.027,0,0,1,14.609,1.039c2.5,2.689,4.649,6.064,7.194,8.675a112.007,112.007,0,0,0,4.019-11.336c.382-1.119.745-3.19,2.425-3,1.9,1.8.043,4.562-.543,6.332a143.949,143.949,0,0,1-14.275,30.5,133.48,133.48,0,0,1-51.668,48.907c-21.407,11.3-45.693,14.968-65.307,14.237a131.766,131.766,0,0,1-47.406-10.956c-1.722-.753-5.117-1.3-5.168-3.987,1.769-1.247,4.04.345,5.647,1.038,3.683,1.586,7.321,3.22,10.911,4.433,2,.677,4.15,1.442,5.726,1.293-1.03-4.452-2.816-9.3-2.376-12.981,1.96-2.457,5.493-4.093,7.816-6.361-3.836-1.083-7.956-1.928-11.613-3.094-1.185-.379-3.011-.694-3.253-2.346,1.427-2.119,3.593-.365,5.071.1,1.667.52,3.7,1.04,5.217,1.451,22.947,6.207,55.218,8.013,85.229-7.858a88.009,88.009,0,0,0,46.564-65.234c.3-2.02-.139-4.99,1.962-5.373A1.344,1.344,0,0,1,784.447,1196.036Zm-.064,16.824c2.148,3.1,4.72,5.379,6.857,8.5,3.549-.114,7.029-.106,10.576-.222-1.843-2.59-3.98-4.625-5.692-7.461C792.284,1213.265,788.408,1212.915,784.383,1212.86Zm-2.809.877c-1.957,5.092-3.575,10.359-6.2,15.1,3.73,1.159,7.952,1.388,11.882,2.169a89.361,89.361,0,0,1,6.331,9.506c.826.1,1.139-1.059,1.468-1.58a93.392,93.392,0,0,0,6.843-13.059c.25-.6,1.013-1.464.464-2.106a35.908,35.908,0,0,1-5.839.146c-1.954.046-4.166.694-5.839.143-1.654-.547-2.984-2.882-4.56-4.737A53.641,53.641,0,0,1,781.575,1213.737Zm-7.88,18.7c-2.856,4.194-5.424,8.539-8.693,12.518,1.775.633,3.53,1.425,5.709,2.135,1.677.551,4.422.666,5.632,1.885,1.987,2,2.309,6.658,4.385,9.549,4.485-4.549,7.719-9.755,11.358-14.747-4.1-1.127-9.156-.451-13.16-1.773C777.206,1238.775,775.544,1235.428,773.694,1232.441Zm3.048-.111a67.732,67.732,0,0,1,4,7.43c3.16.358,6.453.449,9.538.939-.584-2.145-3.045-4.233-4.1-6.839C783.073,1233.278,780.149,1232.347,776.742,1232.331Zm-119.716,47.195a32.663,32.663,0,0,0-8.152,6.188c.47,3.092,1.645,6.554,2.184,9.679,2.6-2.264,4.776-4.753,7.322-7.046A36.12,36.12,0,0,0,657.026,1279.525Zm-4.836,18.593c2.77,1.626,6.191,1.816,9.428,2.378,3.262.565,6.544,1.237,9.78,1.707-.049-4.566-3.9-9.219-3.479-12.918.161-1.415,2.232-3.215,3.128-4.337,1.206-1.512,2.123-3,3.542-3.907-4.752-.982-9.959-1.09-14.678-2.138.2,4.244,2.2,7.676.813,10.67C659.246,1292.759,654.438,1295.132,652.19,1298.119Zm110.817-50.577c-3.643,3.356-6.6,7.068-10.847,10.111,2.625,1.426,4.3,4.015,6.731,6.3.709.663,1.79,1.056,2.248,1.816,1.669,2.779.508,6.336,1.756,10.1a168.091,168.091,0,0,0,15.232-14c-3.447-1.7-7.718-1.834-11.356-3.172C765.247,1255.484,764.26,1251.257,763.007,1247.542Zm3.621.829c-.311.05-.436.2-.432.415.762,2.891,1.794,5.26,2.727,7.83,3.077.241,5.6,1.527,8.678,1.769-.984-2.606-2.253-4.656-3.157-7.414A65.794,65.794,0,0,1,766.628,1248.371Zm-87.813,32.751c1.042,4.626,3.327,8.169,3,11.386-.365,3.572-4.832,6.433-6.525,9.6,6.831,1.223,14.518.81,22.411,0-1.436-2.816-3.188-4.6-4.849-7.447a11.39,11.39,0,0,1-1.388-2.644c-.263-1.726,1.717-4.5,2.569-6.124,1.108-2.112,2.5-3.828,2.729-5.615C690.466,1281.157,684.739,1280.945,678.815,1281.122Zm70.682-21.236a75.1,75.1,0,0,1-13.354,8.37c.791,1.686,2.707,2.75,4.147,4.307,1.281,1.382,3.277,3.164,3.972,4.64,1.56,3.3.452,6.758.4,10.235,5.579-1.984,10.409-6.212,15.314-9.263-1.5-2.529-4.906-2.733-7.2-4.191-2.765-1.769-2.46-3.707-2.727-7.83C749.909,1263.9,749.587,1261.85,749.5,1259.886Zm-72.994,22.8c-2.527,2.089-4.023,4.72-5.887,7.156q1.518,4.851,3.031,9.7a54.806,54.806,0,0,0,5.551-7.333A85.237,85.237,0,0,0,676.5,1282.687Zm75.929-21.48c-.509,2.722.572,6.275.332,9.138a19.573,19.573,0,0,0,6.956,3.427c-.512-2.2,0-4.267-.733-5.931C758.119,1265.878,753.7,1263.127,752.432,1261.207ZM702.023,1301.6a106.59,106.59,0,0,0,19.446-4.116c-1.464-3.847-6.471-5.364-8.12-8.944-1.808-3.933.636-7.554.894-11.482a106.751,106.751,0,0,1-12.648,2.551c.4,4.376,4.253,7.17,4.782,10.828C706.932,1294.256,702.514,1298.608,702.023,1301.6Zm30.789-31.463a103.758,103.758,0,0,1-14.229,5.566c1.6,3.836,5.7,6.364,6.57,10.271.715,3.192-1.288,7.118-1.214,10.458,6.033-1.253,12.024-4.371,17.216-6.774-1.555-1.438-2.965-2.84-4.739-4.4-1.418-1.249-4.034-2.515-4.657-4.144C730.892,1278.841,733.484,1272.873,732.812,1270.136Zm-38.46,21.256c1.266,3.42,3.424,5.147,5.007,7.956.825.645.941-1.012,1.213-1.5.761-1.355,3.347-5.15,3.1-7.128-.129-1.006-1.285-2.421-2.043-3.843-.812-1.525-1.473-3.241-2.2-4.352-.258-1.047-.7.136-.767.239C697.25,1284.8,695.814,1288.937,694.351,1291.392Zm41.219-19.6c-.762,2.589-.718,5.6-1.342,8.26a87.907,87.907,0,0,1,7.658,6.569c.165-2.543,1.023-5.25.144-7.607C741.125,1276.6,737.036,1274,735.57,1271.8Zm-18.727,6.408c-.548,2.78-2.16,5.7-1.263,8.518.946,2.958,4.523,3.671,5.888,6.282.016-1.859,1.585-4.538.974-6.745C721.949,1284.481,717.712,1280.254,716.843,1278.2Z" transform="translate(-493.15 -1028.404)"/><path class="b" d="M1296.291,1253.093c-4.379.568-3.2,7.707.973,6.7a3.428,3.428,0,0,0,2.377-4.945A2.813,2.813,0,0,0,1296.291,1253.093Z" transform="translate(-970.62 -1069.593)"/><path class="b" d="M602.237,1334.552c.627,2.805,3.9,3.678,6,4.846a129.608,129.608,0,0,0,53.325,15.551,155.888,155.888,0,0,0,75.7-14.128c23.353-10.848,40.556-24.483,54.075-42.095,10.94-14.248,19.327-30.529,22.512-49.88.55-3.349,1.739-6.156.494-8.274-2.915-1.218-2.472,4.815-2.935,7.637-2.95,17.927-11.477,35.178-22.238,48.953-13.084,16.747-29.13,30.2-53.215,41.267-48.784,22.411-94.577,15.338-126.826-1.55C607.179,1335.859,604.953,1333.086,602.237,1334.552Z" transform="translate(-475.75 -1060.547)"/><path class="b" d="M1264.983,1332.646a3.027,3.027,0,0,0-3.031,3.749c1.034,3.91,7.078,2.028,6.287-1.4C1267.846,1333.291,1267.106,1332.553,1264.983,1332.646Z" transform="translate(-947.943 -1126.568)"/><path class="b" d="M663.851,1566.1c-4.725.582-2.383,7.184,1.32,6.027C668.322,1571.142,667.955,1565.591,663.851,1566.1Z" transform="translate(-517.966 -1293.672)"/><path class="b" d="M1217.549,1401.671a3.023,3.023,0,0,0-3.032,3.745c.958,3.618,7.429,2.435,6.206-1.656C1220.177,1401.931,1219.557,1401.579,1217.549,1401.671Z" transform="translate(-913.987 -1175.977)"/><path class="b" d="M1376.2,1309.39c-1.818.585-.77,5.387-.655,7.768.97,19.677-6.212,37.59-31.106,43.879-14.373,3.634-27.756,1.626-39.576-.239-1.385-.219-3.674-1.256-4.91.416.61,1.985,3.382,2.077,4.943,2.374a117.7,117.7,0,0,0,17.641,1.77c8.28.283,17.183-.044,26.019-2.805,25.974-8.116,32-29.356,28.727-52.382C1377.13,1309.519,1376.646,1309.5,1376.2,1309.39Z" transform="translate(-975.226 -1109.925)"/><path class="b" d="M734.866,1585.977a3.115,3.115,0,0,0-3.031,3.746c1.07,4,7.334,2.343,6.2-1.657A2.776,2.776,0,0,0,734.866,1585.977Z" transform="translate(-568.453 -1307.921)"/><path class="b" d="M1152.937,1475.161c-4.76.04-3.628,7.5.988,5.853C1157,1479.917,1156.333,1475.133,1152.937,1475.161Z" transform="translate(-867.785 -1228.596)"/><path class="b" d="M834.551,1595.913c-2.341-.126-3.7,1.321-3.523,3.062.533,5.332,7.412,2.967,6.108-1.07A2.666,2.666,0,0,0,834.551,1595.913Z" transform="translate(-639.524 -1315.033)"/><path class="b" d="M1086.179,1527.725c-5.166.34-2.445,7.743,1.754,5.613C1091.017,1531.778,1089.4,1527.517,1086.179,1527.725Z" transform="translate(-820.167 -1266.22)"/><path class="b" d="M931.3,1586.715c-5.869.3-2.409,7.488,1.576,5.948C935.807,1591.532,935.026,1586.528,931.3,1586.715Z" transform="translate(-709.072 -1308.45)"/><path class="b" d="M1006.622,1564.656c-3.736.767-2.466,7.138,1.579,5.946C1011.355,1569.674,1011.086,1563.74,1006.622,1564.656Z" transform="translate(-763.645 -1292.594)"/><path class="b" d="M1339.982,1568.333c-.837,2.053.205,4.17.812,6.188,7.343,24.391,15.776,49.447,20.861,73.016,1.4,6.5,2.691,12.486,4.034,19.182.348,1.743.227,4.179,1.929,5.28,2.061-1.036,1.156-3.79.863-5.311-4.383-22.707-10.937-46.643-18.694-71.453-2.83-9.055-5.627-18.036-8.292-26.534A1.135,1.135,0,0,0,1339.982,1568.333Z" transform="translate(-1003.656 -1295.184)"/><path class="i" d="M229.748,1918.131c2.334-.608,5.075.026,6.953-1.053.1-1.708-2.32-1.532-3.776-1.34C231.362,1915.943,228.7,1916.219,229.748,1918.131Z" transform="translate(-208.927 -1543.907)"/><path class="b" d="M548.27,1798.851c.464,1.678,2.434.3,3.384.067a116.567,116.567,0,0,0,23.255-8.949c17.775-8.638,32.133-18.61,44.395-30.949,2.13-2.145,4.122-4.568,6.652-7.4,2.052-2.3,6.07-5.312,5.728-7.672-.014-.085-.066-.165-.079-.252a1.866,1.866,0,0,0-.924-.269c-5.175,4.915-10.476,11.344-16.13,16.518A165.165,165.165,0,0,1,596,1774.982a182.781,182.781,0,0,1-22.573,12.932,138.34,138.34,0,0,1-20.191,7.988C551.659,1796.394,548.338,1796.454,548.27,1798.851Z" transform="translate(-437.117 -1420.64)"/><path class="i" d="M205.528,1938.635c.64,1.139,1.974.357,3.637-.015,2.659-.6,7-.291,7.739-2.136-.6-1.277-3.287-.68-5.412-.276C209.107,1936.668,205.943,1936.764,205.528,1938.635Z" transform="translate(-191.758 -1558.289)"/><path class="b" d="M1190.933,1669.124c2.184.141,2.093-2.741,2.361-4.1.947-4.821,1.89-10.534,3.08-15.244,1.575,2.059,2.3,4.682,3.332,7.081,1.091,2.526,2.82,5.053,3.158,7.414.24,1.679-.848,3.688-1.292,5.725-.845,3.882-1.583,7.328-2.409,11.113-.4,1.812-.916,3.963-.192,5.662,2.529.47,2.227-2.289,2.52-3.588,1.012-4.487,2.368-9.639,3.143-14.144,1.643,1.862,2.219,4.448,3.253,6.824,2.877,6.611,6.2,13.764,9,20.715a6.671,6.671,0,0,0,2.473-1.051c-4-9.477-8.067-18.821-12.154-28.131,3.506,1.278,7.811,3.872,11.724,6.139,1.174.683,2.836,2.264,4.211.927.054-2.145-2.341-3.068-3.731-3.876-4.524-2.629-9.7-4.992-14.229-7.877q-3.035-7.04-6.077-14.065c3.628,1.39,7.944,4.483,11.963,6.906,1.177.708,2.831,2.191,4.212.924.093-2.146-2.3-2.991-3.734-3.875-4.625-2.839-9.867-5.794-14.548-8.9-3.213.933-3.1,4.422-3.779,7.619-.826,3.9-1.638,7.984-2.426,11.96C1190.361,1665.447,1189.44,1667.985,1190.933,1669.124Z" transform="translate(-896.593 -1349.252)"/><path class="b" d="M917.339,1745.932c2.345.354,2.591-2.4,3.286-3.826,2.141-4.383,4.86-9.087,6.939-13.649a34.883,34.883,0,0,1,1.547,7.637c.386,2.6,1.217,5.537,1.036,7.8-.232,2.9-3.922,7.894-5.361,10.634-.93,1.776-1.947,3.634-2.806,5.36-.706,1.412-2.459,3.8-.862,5.308,1.783-.076,2.459-2.249,3.111-3.492,2.126-4.061,4.234-8.678,6.668-12.726q2.155,15.11,4.417,30.268a9.594,9.594,0,0,0,2.631-.543c-1.761-10.309-2.9-20.3-4.5-30.522,3.264,2.69,6.513,6.023,9.89,9.234,1.009.957,2,3.054,3.941,1.848.154-2.11-1.835-3.156-3.049-4.369-3.693-3.7-7.5-7.63-11.372-11.292-1.083-5.4-1.436-10.424-2.409-15.77,3.2,2.757,6.6,6.719,9.874,10.079.812.834,1.98,2.911,3.429,2.009,1.462-1.57-.91-3.343-1.943-4.432-3.644-3.832-8.613-8.94-12.364-12.661-3.529.759-3.94,4.186-5.377,7-1.829,3.586-3.6,7.011-5.36,10.637C917.833,1742.279,916.117,1744.271,917.339,1745.932Z" transform="translate(-701.018 -1405.892)"/><path class="b" d="M1055.26,1717.25c2.3.167,2.509-2.584,2.95-4,1.524-4.882,2.927-10.49,4.771-15.211,1.049,5.921,4.343,10.405,4.784,15.308.145,1.586-.906,3.855-1.547,5.806-1.238,3.765-2.351,7.1-3.589,10.921-.555,1.7-2.026,3.729-.782,5.565,2.245.3,2.309-2.282,2.777-3.667,1.432-4.263,3.153-9.4,4.657-13.777,3.493,11.149,5.442,16.321,9.347,29.006.766-.239,1.533-.478,2.3-.717-2.935-11.508-5.668-17.131-9.251-29.6,3.858,2.043,7.3,4.835,11.021,7.479,1.06.752,2.472,2.274,4.116,1.515.845-2.31-1.89-3.116-3.222-4.036-4.319-2.979-8.946-6.691-13.35-9.55q-2.31-7.4-4.624-14.8c3.368,1.759,7.433,5.37,11.259,8.245,1.045.784,2.581,2.4,4.037,1.258.48-2.019-1.959-3.074-3.224-4.036-4.43-3.358-9.329-7.241-13.924-10.49-3.292,1.052-3.31,4.619-4.292,7.78-1.141,3.677-2.254,7.588-3.428,11.433C1055.439,1713.652,1053.854,1715.713,1055.26,1717.25Z" transform="translate(-799.651 -1384.161)"/><path class="b" d="M430.986,1947.156c1.4,1.862,5.379,1.2,8.362.749,1.59-.241,3.433-.723,5.006-1,1.431-.258,3.339.022,3.417-1.629-1.711-2.116-5.672-.3-8.634.178-1.417.23-3.175.483-4.577.59S431.172,1945.261,430.986,1947.156Z" transform="translate(-353.157 -1564.417)"/><path class="b" d="M1444.392,1985.787c-1.215,1.74.085,4.542.465,6.856.369,2.275.689,4.66,1.05,6.952.761,4.81,1.188,9.738,2.362,13.826,2.812-.428,1.824-3.772,1.546-5.8-.926-6.791-2.786-14.982-3.907-21.464-.194-.308-.573-.262-.749-.608Z" transform="translate(-1078.26 -1593.965)"/><path class="b" d="M1073.067,2123.748c.508,2.23,3.175,2.779,5.008,3.474,20.435,7.739,45.669,9.048,72.467,5.089a147.387,147.387,0,0,0,23.1-4.972c1.179-.368,2.815-.767,4.081-1.275.858-.344,2.765-.3,2.488-1.9-1.354-2.081-4.559.13-7.033.8-27.328,7.353-54.356,8.743-76.455,4.556a111.138,111.138,0,0,1-21.279-6.236A1.944,1.944,0,0,0,1073.067,2123.748Z" transform="translate(-812.803 -1692.414)"/><g transform="translate(293.466 0)"><path class="k" d="M1338.508,607.379c-5.421.419-.745,9.437.654,14.638,2.138,7.938,4.995,16.876,7.4,24.576,1.432,4.588,2.24,10.05,5.755,8.561,2.563-1.081.781-6.468-.638-11-2.73-8.733-4.746-15.612-6.983-24.143C1343.635,615.961,1342.439,607.08,1338.508,607.379Z" transform="translate(-1294.462 -607.372)"/><path class="k" d="M1409.9,635.778c2.9-.7,1.755-4.807,1.915-7.318.181-2.906.816-5.762.5-8.278-.525-.225-.91-.7-1.772-.284C1409.65,624.7,1408.268,630.367,1409.9,635.778Z" transform="translate(-1346.855 -616.219)"/><path class="k" d="M1292.936,667.989c1.745-.646-.048-2.254-.865-3.651s-1.041-3.052-2.391-3.176c-.311.053-.437.2-.43.416-.891.03-.324.825-.783,1.083C1289.931,664.487,1290.465,668.085,1292.936,667.989Z" transform="translate(-1260.468 -645.878)"/><path class="k" d="M1258.878,717.348c1.726,2.589,4.481,4.52,7.067,6.478a183.764,183.764,0,0,0,15.282,10.348,27.427,27.427,0,0,0,3.843,2.442c1.1.449,3.231,1.446,4.067-.433-.8-1.834-2.7-1.649-4.1-2.357-4.192-2.134-8.224-5.39-12.107-8.262-4.234-3.133-8.289-6.226-12.426-9.28A2.024,2.024,0,0,0,1258.878,717.348Z" transform="translate(-1239.286 -685.339)"/><path class="k" d="M1427.342,697.846c2.156.441,3.432-1.236,4.132-3.811,1.31-4.814,2.712-10.512,4.084-14.717,1.639-5.015,2.426-9.2,4.676-14.623.708-1.708,1.9-3.545,1.61-4.7a3,3,0,0,0-4.276-2.025c-2.345,1.168-3.871,6.776-4.656,9.3-2.273,7.29-3.73,13.351-5.632,20.522C1426.433,690.975,1424.134,695.427,1427.342,697.846Z" transform="translate(-1358.7 -643.349)"/><path class="k" d="M1339.661,727.448c.275,1.78,1.611,3.477,2.618,4.785.889,1.153,1.833,3.288,3.605,1.674-1.155-3.225-2.989-5.161-4.769-7.193C1340.275,726.774,1340.265,727.266,1339.661,727.448Z" transform="translate(-1297.116 -692.805)"/><path class="k" d="M1412.676,711.369a54.254,54.254,0,0,0-.8,6.41c-.159,2.039-.861,5.046,1.243,5.773,1.595-.968,1.167-3.574,1.293-5.726.14-2.393,1.062-5-.208-6.937C1413.7,711.051,1413.187,711.209,1412.676,711.369Z" transform="translate(-1348.643 -681.477)"/><path class="k" d="M1491.425,703.4c2.092-1.358,2.23-3.459,3.157-6.025.268-.744.716-1.937,1.245-3.19.251-.593,2.406-4.374-.351-3.814-1.427.293-3.074,5.076-3.589,6.444C1490.933,699.347,1489.594,702.364,1491.425,703.4Z" transform="translate(-1405.107 -666.751)"/><path class="k" d="M1215.538,796.018c.471-5.451-6.428-3.676-11.005-3.844-2.012-.072-3.816.04-5.583.065-2.619.036-8.578-.585-7.675,3.237.835,3.527,9.339,2.231,11.964,2.424,2.051.15,4.383.264,6.506.208C1211.963,798.049,1214.437,798.329,1215.538,796.018Z" transform="translate(-1190.825 -739.56)"/><path class="k" d="M1462.765,740.656c2.171.566,2.833-2.163,3.7-3.4,5.942-8.474,13.2-16.82,20.687-25.228,1.438-1.615,5.141-3.994,2.043-5.118-4.832,3.835-11.122,11.318-15.106,16.2-3.5,4.294-6.61,8.284-9.717,12.836C1463.555,737.153,1461.822,739,1462.765,740.656Z" transform="translate(-1385.046 -678.631)"/><path class="k" d="M1305.759,803.629c.656,1.387,2.959,1.407,4.451,1.691s3.762,1.154,4.656-.336c.021-1.525-1.858-1.672-3.431-2.01C1309.489,802.556,1306.769,801.46,1305.759,803.629Z" transform="translate(-1272.846 -746.933)"/><path class="k" d="M1237.652,832.27c-.629-1.766-2.544-.849-3.878-.75-9.482.709-23.5,3.821-33.257,5.628-1.782.33-11.087,2.785-10.575,4.7.609,2.3,7.4-1.013,9.586-1.593,10.293-2.728,23.863-4.669,34.2-6.2C1234.945,833.875,1237.194,833.861,1237.652,832.27Z" transform="translate(-1189.922 -767.599)"/><path class="k" d="M1515.7,799.8c-.106-.341-.214-.681-.318-1.02-.225.014-.334-.179-.59-.1-2.533.226-5.637,1.8-9.029,3.377-2.025.945-5.457,2.02-4.72,3.718.812,1.886,6.615-2.084,10.128-3.443C1513.1,801.582,1515.239,801.375,1515.7,799.8Z" transform="translate(-1412.571 -744.31)"/><path class="k" d="M1287.618,870.46c.419,1.791,2.268.633,3.461.319,3.449-.909,8.032-2.933,11.836-4.259-.269-.707-.329-1.817-1.07-1.625a70.084,70.084,0,0,0-10.286,2.934C1289.917,868.432,1287.65,868.955,1287.618,870.46Z" transform="translate(-1259.86 -791.709)"/><path class="k" d="M1283.043,878.052c-.13,0-.31-.253-.591-.1-3.571,1.971-6.529,4.58-9.857,7-5.557,4.043-13.343,10.006-18.457,14.445-2.365,2.057-7.587,5.9-6.924,8.327a3.754,3.754,0,0,0,3.508,2.261c2.531-.4,6.977-5.96,8.854-7.523,5.673-4.72,11.714-9.416,18.456-14.448,2.354-1.755,8.339-5.3,7.927-7.8C1285.668,878.435,1284.79,877.961,1283.043,878.052Z" transform="translate(-1230.895 -801.038)"/><path class="k" d="M1467.715,847.574c-1.987.6-3.336,1.346-2.186,3.764,1,2.113,5.515,1.412,8.517,1.261,7.04-.352,11.648-.217,18.44-.16,3.331.028,9.822.269,8.2-4.24-.8-2.225-4.5-1.914-7.322-1.914-6.675,0-10.3.166-16.67.445C1473.885,846.853,1470.687,846.678,1467.715,847.574Z" transform="translate(-1386.918 -778.392)"/><path class="k" d="M1354.1,963.531c2.03-.089,1.342-2.206,1.5-3.269,2.193-15.025,6.407-29.871,10.657-44.777.7-2.462,2.531-5.32,1.227-6.824a1.867,1.867,0,0,0-.924-.272c-.233.019-.208.176-.177.336-1.562,1.837-1.726,4.384-2.407,6.632-3.936,12.98-8.495,26.772-10.42,41.062C1353.282,958.451,1352.333,961.688,1354.1,963.531Z" transform="translate(-1306.704 -822.861)"/><path class="k" d="M1415.01,921.949c-3.5.193-3.078,6.207-3.4,9.743-.162,1.8-.413,3.706-.6,5.232-.15,1.2-1,3.858-.272,5.405.863,1.845,3.5,1.924,4.8,1.02,1.492-1.035,1.486-6.765,1.71-9.775.133-1.858.194-2.908.348-5.15C1417.824,925.042,1418.418,921.763,1415.01,921.949Z" transform="translate(-1347.788 -832.563)"/><path class="k" d="M1318.7,972.53c2.066.852,2.562-1.633,3.268-2.983.7-1.332,1.717-2.866,2.362-4.1,1.481-2.823,3.389-5.873,3.541-8.388-.031-.755-.665-.355-.828-.861-.17.054-.342.107-.51.16-2.481,3.833-4.473,7.725-6.654,11.878C1319.265,969.417,1318.111,970.994,1318.7,972.53Z" transform="translate(-1281.994 -857.088)"/></g><path class="i" d="M856.524,1308.927c-.347,3.32,1.867,6.156,3.557,8.69a73.933,73.933,0,0,0,10.75,12.887c1.725,1.638,3.919,4.584,6.621,3.252-.382-2.461-3.231-3.469-4.977-5.169a65.675,65.675,0,0,1-14.181-19.37c-.058-.437-.379-.366-.494-.687Z" transform="translate(-657.76 -1109.309)"/><path class="b" d="M899.862,2150.538c.9-.126,1.758-.24,2.562-.354-.969-18.308-1.17-36.281-.527-54.3.23-6.468.673-13.731,1.325-20.857.215-2.363,1.4-5.829-.047-6.428-.42.19-.8-.226-.767.24-.169.052-.337.107-.509.159-2.837,17.374-3.343,36.34-3.08,55.572C898.935,2133.071,899.314,2141.725,899.862,2150.538Z" transform="translate(-688.02 -1653.416)"/><path class="b" d="M1245.174,2266.351c.849,1.142,1.726,2.264,2.6,3.39.383,0,.767,0,1.151.006.729-.028,1.456-.044,2.183-.067-1.2-1.528-2.384-3.069-3.539-4.638-6.871-9.336-14.257-18.578-20.259-28.958a1.307,1.307,0,0,0-1.434-.114c-.508,2.736,1.857,5.918,3.476,8.436C1234.17,2251.9,1239.877,2259.231,1245.174,2266.351Z" transform="translate(-922.143 -1773.128)"/></g></g></svg>