<svg xmlns="http://www.w3.org/2000/svg" width="454.544" height="377.528" viewBox="0 0 454.544 377.528"><defs><style>.a{fill:#fec405;}.b,.p{fill:none;stroke:#231f20;stroke-linecap:round;stroke-linejoin:round;}.b{stroke-width:5.652px;}.c{fill:#f9faff;}.d{fill:#ffa07b;}.e{fill:#fd9b76;}.f{fill:#372330;}.g{fill:#e87360;}.h{fill:#f27766;}.i{fill:#231f20;}.j{fill:#de6958;}.k{fill:#bc673c;}.l{fill:#ead8c1;}.m{fill:#efe8df;}.n{fill:#e24e24;}.o{fill:#f4f1ed;}.p{stroke-width:5.939px;}</style></defs><g transform="translate(-218.097 -197.974)"><g transform="translate(218.097 197.974)"><path class="a" d="M536.443,868.921c-24.8-7.08-79.3,72.277-137.75,153.771-15.854,22.106-.068,52.88,27.136,52.88H442.9a53.693,53.693,0,0,0,38.952-16.738l47.348-58.156Z" transform="translate(-346.117 -720.628)"/><g transform="translate(167.144 146.092)"><path class="a" d="M1041.075,953.289c-5.285,21.671-10.18,43.9-14.309,65.965a183.015,183.015,0,0,0-3.345,41.053c.2,4.924.634,9.932-.493,14.732-1.521,6.491-4.626,9.961-10.989,9.463-5.393-.423-10.732-.473-16.162-.473H891.242q-11.6.006-23.2,0c-.78,0-8.237.68-8.643,0-9.915-16.692,3.088-38.873,2.3-76.734-19.51-18.578-14.623-44.627-5.745-71.242l15.32-72c11.959-.394,24-.837,35.938-1.219.564-.017,1.127-.037,1.691-.054,25.683-.816,50.807-1.334,73.344-.51,1.3.046,2.6.062,3.909.062,9.7,0,19.478-.908,28.278,3.946,9.471,5.227,16.481,14.342,21.061,23.979C1044.656,909.537,1046.111,932.65,1041.075,953.289Z" transform="translate(-848.091 -861.849)"/><path class="b" d="M1512.061,881.138c-9.928,32.7-12.176,78.732,0,133.349" transform="translate(-1329.667 -876.018)"/><g transform="translate(8.413 38.249)"><path class="c" d="M1053.633,1250.305l-2.516-3.461a3.215,3.215,0,0,0,1.478-4.9l-3.662-5.039a2.58,2.58,0,0,0,1.666-4.061l-6.073-8.356a2.578,2.578,0,0,0-4.172,0l-6.073,8.356a2.58,2.58,0,0,0,1.666,4.061l-3.662,5.039a3.215,3.215,0,0,0,1.478,4.9l-2.516,3.461a3.538,3.538,0,0,0,2.862,5.618h16.663A3.538,3.538,0,0,0,1053.633,1250.305Z" transform="translate(-990.482 -1165.707)"/><path class="c" d="M1346.363,1032.843l-2.516-3.462a3.215,3.215,0,0,0,1.478-4.9l-3.662-5.039a2.58,2.58,0,0,0,1.666-4.061l-6.073-8.356a2.579,2.579,0,0,0-4.172,0l-6.073,8.356a2.58,2.58,0,0,0,1.666,4.061l-3.662,5.039a3.215,3.215,0,0,0,1.478,4.9l-2.516,3.462a3.538,3.538,0,0,0,2.862,5.618H1343.5A3.538,3.538,0,0,0,1346.363,1032.843Z" transform="translate(-1205.518 -1005.961)"/><path class="c" d="M1098.378,1535.308l-2.516-3.462a3.215,3.215,0,0,0,1.478-4.9l-3.662-5.039a2.58,2.58,0,0,0,1.666-4.061l-6.073-8.357a2.579,2.579,0,0,0-4.172,0l-6.073,8.357a2.58,2.58,0,0,0,1.666,4.061l-3.662,5.039a3.215,3.215,0,0,0,1.478,4.9l-2.516,3.462a3.538,3.538,0,0,0,2.862,5.618h16.663A3.538,3.538,0,0,0,1098.378,1535.308Z" transform="translate(-1023.35 -1375.066)"/><path class="c" d="M1352.56,1354.183l-2.516-3.462a3.215,3.215,0,0,0,1.478-4.9l-3.662-5.039a2.58,2.58,0,0,0,1.666-4.061l-6.073-8.356a2.579,2.579,0,0,0-4.172,0l-6.073,8.356a2.58,2.58,0,0,0,1.666,4.061l-3.662,5.039a3.215,3.215,0,0,0,1.478,4.9l-2.516,3.462a3.538,3.538,0,0,0,2.862,5.618H1349.7A3.538,3.538,0,0,0,1352.56,1354.183Z" transform="translate(-1210.07 -1242.014)"/><path class="c" d="M902.615,1078.53l-2.516-3.462a3.215,3.215,0,0,0,1.478-4.9l-3.662-5.039a2.58,2.58,0,0,0,1.666-4.061l-6.073-8.356a2.579,2.579,0,0,0-4.172,0l-6.073,8.356a2.58,2.58,0,0,0,1.665,4.061l-3.662,5.039a3.215,3.215,0,0,0,1.478,4.9l-2.516,3.462a3.538,3.538,0,0,0,2.862,5.618h16.663A3.538,3.538,0,0,0,902.615,1078.53Z" transform="translate(-879.546 -1039.523)"/></g><path class="b" d="M869.946,1009.9a96.541,96.541,0,0,1-10.066,37.042c-2.5,4.977-5.444,9.745-7.564,14.9a56.6,56.6,0,0,0-4.255,26.333c.839,8.685,6.416,17.589,11,24.879" transform="translate(-847.849 -970.603)"/></g><g transform="translate(315.846 146.742)"><path class="a" d="M1413.128,864.32c30.2-.6,58.724,12.219,82.549,62.579l47.677,103.207a37.043,37.043,0,0,1-33.629,52.578h-33.1L1416.043,942.5a96.615,96.615,0,0,1-6.794-53.09Z" transform="translate(-1408.115 -864.3)"/><path class="c" d="M1641.849,1169.875l-2.516-3.462a3.215,3.215,0,0,0,1.478-4.9l-3.662-5.039a2.58,2.58,0,0,0,1.666-4.061l-6.073-8.356a2.579,2.579,0,0,0-4.172,0l-6.073,8.356a2.58,2.58,0,0,0,1.666,4.061l-3.662,5.039a3.215,3.215,0,0,0,1.478,4.9l-2.516,3.462a3.538,3.538,0,0,0,2.862,5.618h16.663A3.538,3.538,0,0,0,1641.849,1169.875Z" transform="translate(-1562.867 -1069.025)"/></g><g transform="translate(20.122 222.195)"><path class="d" d="M334.493,1262.51c3.644,1.616,7.343,3.248,11.286,3.832,5.228.774,8.459-.992,12.737-3.463,5.368,2.412,10.438,5.385,15.806,7.8-.223-2.443,1.657-3.492,3.168-5.425a42.22,42.22,0,0,0,4.927-9l5.521-12.381c1.329-2.982,2.687-6.267,1.819-9.414-4.862-2.968-9.155-7.034-14.017-10-17.192-10.5-34.339-22.007-54.455-26.021a8.311,8.311,0,0,0-4.558,0c-1.658.631-2.758,2.186-3.7,3.69a72.444,72.444,0,0,0-10.821,33.568c-.458,7.067,1.07,11.75,7.278,14.976C317.694,1254.927,326.036,1258.76,334.493,1262.51Z" transform="translate(-299.951 -1184.961)"/><path class="e" d="M304.358,1162.5c4.627,2.032,9.622,3.243,14.7,5.04,6.052,2.142,8.868,6.189,12.688,11.278,3.617,4.818,6.99,9.92,11.583,13.82,4.943,4.2,12.9,6.95,19.436,5.82,3.578-.618,7.072-3.323,7.349-6.943.275-3.59-2.505-6.6-5.085-9.118l-10.889-10.608c-6.02-5.865-11.5-14.355-19.542-17.526-7.571-2.987-16.035-2.363-23.827-4.568-4.447-1.258-13.013-2.411-16.2,2.308C291.3,1156.842,301.165,1161.1,304.358,1162.5Z" transform="translate(-293.912 -1148.585)"/></g><path class="f" d="M955.736,507.032H894.068c-1.411,0-2.451-.377-3.862-.377a52.849,52.849,0,0,1-.98-21.348c1.154-7.224,3.8-14.124,5.365-21.269,4.535-20.663-.081-42.255,2.139-63.293a97.812,97.812,0,0,1,5.8-24.377c3.318-8.753,8.357-17.485,16.645-21.836,4.693,26.049,11.93,52.212,20.013,77.417C947.156,456.777,956.428,480.968,955.736,507.032Z" transform="translate(-710.618 -343.089)"/><g transform="translate(187.432 4.095)"><path class="g" d="M1029.5,374.3c-2.123,16.869-12.923,31.672-24.559,43.611-11.071,11.363-25.915,23.619-42.691,23.437a30.375,30.375,0,0,1-11.393-2.353c-8.883-3.72-11.581-12.921-12.6-21.687a122.349,122.349,0,0,1-.863-23.622c.582-7.23-.57-14.549.263-21.852.165-1.44.377-2.915.647-4.41a70.077,70.077,0,0,1,1.965-8.168c2.56-8.4,6.833-16.561,13.126-21.937a38.467,38.467,0,0,1,9.046-5.463,54.242,54.242,0,0,1,11.936-4.06,56.064,56.064,0,0,1,28.4,2.145c9.311,3.105,16.574,7.933,21.564,16.611A44.906,44.906,0,0,1,1029.5,374.3Z" transform="translate(-933.726 -326.847)"/><path class="b" d="M983.107,508.559l-.717,15.221c-3.944-.616-6.2-.141-6.4,1.974-.18,1.513,1.741,4.7,6.158,9.493" transform="translate(-962.269 -460.33)"/><path class="h" d="M1011.973,616.781c3.529,8.915,13.679,5.207,17.7-8.2C1017.024,605.985,1009.183,609.8,1011.973,616.781Z" transform="translate(-988.287 -533.204)"/><ellipse class="i" cx="2.566" cy="3.643" rx="2.566" ry="3.643" transform="translate(37.588 48.829)"/><ellipse class="i" cx="2.566" cy="3.643" rx="2.566" ry="3.643" transform="translate(8.149 49.52)"/><path class="b" d="M1064.509,502.33a5.784,5.784,0,0,1,4.4.436,17.163,17.163,0,0,1,3.661,2.661" transform="translate(-1027.293 -455.563)"/><path class="b" d="M952.479,506.2a5.784,5.784,0,0,1,4.4.436,17.172,17.172,0,0,1,3.661,2.661" transform="translate(-944.997 -458.406)"/><path class="f" d="M1040.1,454.148c.634,1.018,2.953,1.287,4.883,1.393l14.055.777a10.346,10.346,0,0,0,3.09-.139c5.557-1.458-2.909-4.007-5.238-4.513a35.243,35.243,0,0,0-11.7-.721C1042.714,451.254,1039.063,452.487,1040.1,454.148Z" transform="translate(-1009.227 -415.599)"/><path class="f" d="M944.368,455.576a9.039,9.039,0,0,1-2.948.559l-13.2,1.046c-4.1-1.656-5.176-3.245-2.336-4.684a33.864,33.864,0,0,1,11.5-.8C939.86,451.9,949.162,453.346,944.368,455.576Z" transform="translate(-924.29 -416.414)"/><path class="b" d="M1017.2,616.516q9.113.454,18.229-9.115" transform="translate(-992.541 -532.939)"/></g><g transform="translate(223.224 83.505)"><path class="g" d="M1133.49,688.922c-12.023,6.758-23.892,11.821-34.512,13a40.647,40.647,0,0,1-4.328.263c-7.7.055-14.609-2.248-20.261-7.828l-2.055-5.063-13.191-32.5,42.173-30.753Z" transform="translate(-1059.142 -626.04)"/><path class="j" d="M1064.509,710.126l27.981-16.035-23.274,27.8Z" transform="translate(-1063.084 -676.03)"/><path class="g" d="M1143.933,862.328a166.75,166.75,0,0,1-33.406,34.545c-7,5.4-14.781,10.379-23.552,11.495s-18.695-2.636-22.33-10.695c-2.326-5.156-1.8-11.1-1.04-16.7q1.224-9.146,3.076-18.193c25.683-.816,50.807-1.334,73.344-.51C1141.326,862.312,1142.628,862.328,1143.933,862.328Z" transform="translate(-1061.948 -799.262)"/></g><path class="f" d="M1111.477,477.579a3.126,3.126,0,0,0,.755-2.172c.249-9.982-3.661-19.583-8.141-28.506-5.706-11.366-11.257-21.967-13.774-34.524-3.763-18.773.186-38.676-5.166-57.059-7.128-24.484-27.369-36.3-50.333-42.725a38.529,38.529,0,0,0-12.535-1.086,62.072,62.072,0,0,0-23.124,5.863c-5.1,2.429-9.459,4.74-13.148,9.023a12.216,12.216,0,0,0,4.12,10.11,18.153,18.153,0,0,0,10.279,4.315c5.083.556,10.407-.5,15.227,1.216,4.94,1.755,8.467,6.117,11.227,10.574s5.088,9.285,8.823,12.965c4.671,4.6,11.146,6.968,17.621,8,.087-.255-.21.607-.123.352-.045.2-.358.686-.4.889-1.3,5.908-4.843,11.026-7.64,16.39a41.244,41.244,0,0,0-4.927,16.639q-1.238,19.673-1.562,39.39c-.184,11.176.186,23.344,7.264,31.995C1046.307,478.684,1090.138,477.579,1111.477,477.579Z" transform="translate(-782.151 -311.417)"/><g transform="translate(323.552 284.271)"><path class="a" d="M1531.823,1382.471c-40.266,4.568-94.612-7.088-94.612,26.8l-.062,57.2c16.061,1.992,56.253-.606,96.367-3.147C1572.964,1443.893,1568.142,1387.784,1531.823,1382.471Z" transform="translate(-1437.149 -1382.471)"/><path class="b" d="M1531.994,1382.471c-40.266,4.568-94.612-7.088-94.612,26.8" transform="translate(-1437.32 -1382.471)"/><path class="c" d="M1625.129,1535.308l-2.516-3.462a3.215,3.215,0,0,0,1.478-4.9l-3.662-5.039a2.58,2.58,0,0,0,1.666-4.061l-6.073-8.357a2.579,2.579,0,0,0-4.172,0l-6.073,8.357a2.58,2.58,0,0,0,1.666,4.061l-3.662,5.039a3.215,3.215,0,0,0,1.478,4.9l-2.516,3.462a3.538,3.538,0,0,0,2.862,5.618h16.663A3.538,3.538,0,0,0,1625.129,1535.308Z" transform="translate(-1558.29 -1474.996)"/></g><g transform="translate(0 123.743)"><path class="k" d="M733.6,913.8c-1.906,7.072-2.678,14.391-3.444,21.675-1.271,12.091-1.927,24.44-3.831,36.445-1.788,11.266-2.752,22.592-1.554,34.042.6,5.7,1.811,13.55,6.559,17.39,4.594,3.715,11.518,1.8,15.062-2.482,3.7-4.46,4.6-10.541,5.236-16.3a487.851,487.851,0,0,0,2.681-57.763c-.081-9.65-.385-19.3-.846-28.938-.207-4.336.242-9.845-2.267-13.643Z" transform="translate(-589.903 -870.634)"/><g transform="translate(0 11.825)"><path class="l" d="M447.023,843.974c-.452,4.257-2.466,6.9-4.1,10.935-.286.7-.556,1.434-.808,2.226a18.34,18.34,0,0,0-.539,3.158c-1.061,7.892-5.351,12.717-10.843,16.481-4.381,3-9.521,5.327-14.4,7.992l-.054.029q-16.514,9.009-33.828,16.448-5.44,2.332-10.943,4.506c-.071.025-.133.3-.191.775v.012c-.531,4.381-.671,25.608-.858,28.029-.713,9.248-1.8,20.05-.315,29.41.058.381.12.758.191,1.132.046.253.1.506.145.759.85,4.2,2.487,8.195,3.76,12.286,7.353,23.644,2.143,49.145-3.1,73.34-.249,1.148-.518,2.325-.837,3.486H218.1c2.073-26.259,14.686-49.692,28.067-71.826,4-6.62,8.1-13.19,12.062-19.839,2.831-4.738,5.592-9.517,8.2-14.379,6.263-11.673,10.715-24.042,15.979-36.087,5.546-12.7,8.576-26.351,13.227-39.379a118.261,118.261,0,0,1,6.541-15.175c.054-.1.108-.207.166-.311a74.928,74.928,0,0,1,7.382-11.466,53.489,53.489,0,0,1,10.5-10.205c.381-.278.767-.551,1.161-.817.373-.253.742-.5,1.115-.742,0,0,0,0,.008,0a54.533,54.533,0,0,1,9.236-4.759c1.625-.659,3.266-1.239,4.924-1.77,2.935-.937,5.927-1.7,8.982-2.379,3.669-.817,7.424-1.525,11.27-2.284.983-.195,1.969-.39,2.96-.568.908-.166,1.82-.315,2.732-.44.369-.05.742-.1,1.111-.137a26.025,26.025,0,0,1,7.656.141,29.942,29.942,0,0,1,7.548,2.69h0c2.756,1.331,5.455,2.848,8.286,3.983,6.413,2.574,13.422,3.175,20.315,3.581,6.657.4,13.244-.734,19.872-.448a45.435,45.435,0,0,0,6.972-.642c.755-.1,1.5-.187,2.251-.253h0c2.512-.228,4.9-.195,6.7.7A5.568,5.568,0,0,1,445.884,835s0,.008,0,.013a17.018,17.018,0,0,1,1.152,5.314A18.351,18.351,0,0,1,447.023,843.974Z" transform="translate(-218.097 -822.198)"/><path class="b" d="M678,1534.1a367.56,367.56,0,0,0-5.965-59.669" transform="translate(-551.557 -1301.319)"/><path class="k" d="M262.226,1393.649c-2.848,11.32-8.045,21.89-13.206,32.357-2.044,4.149-4.129,8.361-7.233,11.793a36.734,36.734,0,0,1-10.359,7.743H218.1c2.073-26.259,14.686-49.692,28.067-71.827,4-6.62,8.1-13.19,12.062-19.839a32.816,32.816,0,0,1,2.781,5.368C265.426,1370.047,265.074,1382.329,262.226,1393.649Z" transform="translate(-218.097 -1212.763)"/></g><path class="i" d="M1031.139,860.993a5.242,5.242,0,0,0,.077-3.09,4.8,4.8,0,0,0-3.474-2.942,10.2,10.2,0,0,0-4.706.167c-4.667,1.065-11.448,7.126-5.6,11.108C1022.155,869.446,1029.645,866.072,1031.139,860.993Z" transform="translate(-803.617 -834.287)"/><g transform="translate(196.924 32.599)"><path class="h" d="M965.47,975.123c-.816,13.615-1.617,27.435,1.292,40.76.76,3.48,2.614,7.611,6.174,7.719a5.785,5.785,0,0,0,5.026-3.475,16.19,16.19,0,0,0,1.241-6.292,221.993,221.993,0,0,0-1.3-39.537A19.817,19.817,0,0,1,965.47,975.123Z" transform="translate(-963.476 -954.703)"/><line class="b" x2="3.376" transform="translate(24.522 11.936)"/><path class="b" d="M984.574,900.471v11.936q-7.525,12.065-24.522,8.043" transform="translate(-960.052 -900.471)"/></g><path class="b" d="M673.732,1059.119c1.368.963,2.111,2.559,2.936,4.015a27.581,27.581,0,0,0,22.156,13.694" transform="translate(-552.801 -984.412)"/><path class="b" d="M780.927,923.689a12.886,12.886,0,0,1,15.544-4.97" transform="translate(-631.545 -880.597)"/><g transform="translate(88.263 31.865)"><path class="m" d="M577.6,897.7c2.512,3.8,2.06,9.31,2.267,13.646.46,9.637.763,19.287.846,28.937q.068,8.344-.1,16.684c-.278,13.724-1.078,27.436-2.586,41.078-.634,5.758-1.542,11.839-5.235,16.3-3.544,4.278-10.467,6.2-15.064,2.483-4.746-3.842-5.961-11.693-6.558-17.393-1.2-11.449-.232-22.773,1.555-34.04q.479-3.034.862-6.1c1.281-10.06,1.911-20.29,2.968-30.342.767-7.283,1.538-14.6,3.445-21.675Z" transform="translate(-550.649 -897.703)"/><path class="k" d="M580.622,1121c-.278,13.724-1.078,27.436-2.586,41.078-.634,5.758-1.542,11.838-5.235,16.3-3.544,4.278-10.467,6.2-15.064,2.483-4.746-3.842-5.961-11.693-6.558-17.393-1.2-11.449-.232-22.773,1.555-34.04q.479-3.034.862-6.1c6.048,2.292,10.769,9.256,13.865,15.383,1.467-7.238,5.567-13.766,12.245-17.269C580,1121.29,580.311,1121.141,580.622,1121Z" transform="translate(-550.649 -1061.737)"/><path class="b" d="M577.6,897.7c2.512,3.8,2.06,9.31,2.267,13.646.46,9.637.763,19.287.846,28.937q.068,8.344-.1,16.684c-.278,13.724-1.078,27.436-2.586,41.078-.634,5.758-1.542,11.839-5.235,16.3-3.544,4.278-10.467,6.2-15.064,2.483-4.746-3.842-5.961-11.693-6.558-17.393-1.2-11.449-.232-22.773,1.555-34.04q.479-3.034.862-6.1c1.281-10.06,1.911-20.29,2.968-30.342.767-7.283,1.538-14.6,3.445-21.675" transform="translate(-550.649 -897.703)"/></g><g transform="translate(16.202)"><path class="n" d="M403.025,835.638c12.486-10.51,23.867-22.634,34.866-34.69,1.759-1.928,3.608-4.737,2.15-6.9a5.659,5.659,0,0,0-2.138-1.663c-29.009-15.541-65.229-4.809-87.772,17.078-15.2,14.753-24.624,33.531-36.678,50.563-1.681,2.375-3.634,5.156-2.762,7.933.747,2.378,3.361,3.691,5.835,3.994,6.651.817,12.746-3.651,17.5-8.379,3.934-3.917,19.914-21.256,23.47-7.779a9.4,9.4,0,0,0,.893,2.965c1.368,2.035,4.477,1.422,6.75.5C379.079,853.637,391.521,845.322,403.025,835.638Z" transform="translate(-302.159 -783.075)"/><path class="o" d="M525.611,785.829c-.448,1.189-.749,2.53-1.725,3.345a6.929,6.929,0,0,1-2.792,1.081,15.37,15.37,0,0,0-10.114,8.792,10.853,10.853,0,0,1-1.679,3.3c-1.2,1.31-3.087,1.66-4.751,2.284a13.57,13.57,0,0,0-8.336,9.616c-.347,1.581-.459,3.338-1.557,4.528a6.258,6.258,0,0,1-2.179,1.366c-3.425,1.485-7.625,3-8.445,6.646a10.038,10.038,0,0,1-.707,3.1,5.046,5.046,0,0,1-3.082,1.833c-2.1.623-4.3,1.261-5.888,2.777-1.124,1.075-1.843,2.511-2.925,3.627a26.155,26.155,0,0,1-3.368,2.571,14.847,14.847,0,0,0-6.21,11.445c-.039,4.5,2.727,9.05,6.964,10.563s9.6-.595,11.2-4.8a16.734,16.734,0,0,0,18.651-8.827,3.8,3.8,0,0,1,1.085-1.612,3.924,3.924,0,0,1,2.2-.418,13.148,13.148,0,0,0,11-6.67c.6-1.094,1.13-2.365,2.256-2.907a7.368,7.368,0,0,1,2.868-.337c4.738-.236,8.12-4.878,9.33-9.465a4.622,4.622,0,0,1,.939-2.143,4.913,4.913,0,0,1,2.29-1.02,15,15,0,0,0,10.609-14.317,8.854,8.854,0,0,0,8.458-7.042,10.34,10.34,0,0,1,.638-2.883,7.813,7.813,0,0,1,2.25-2.295c4.1-3.35,6.638-9.475,3.927-14.022a11.132,11.132,0,0,0-4.4-3.921C544.648,776,529.111,776.536,525.611,785.829Z" transform="translate(-413.359 -777.645)"/><path class="o" d="M288.935,1028.89a18.485,18.485,0,0,1-1.862-.075c-3.108,0-5.144,3.173-6.44,6-.966,2.1-1.884,4.434-1.317,6.679.2.79.577,1.53.742,2.328a14.318,14.318,0,0,1,.119,2.622,12.311,12.311,0,0,0,16.946,11.161c3.242.654,6.722,1.02,9.764-.28s5.374-4.773,4.351-7.918a7.553,7.553,0,0,0,5.778-6.9,10.47,10.47,0,0,0-2.516-6.645c-3.057-3.911-7.849-5.749-12.076-8.055-1.916-1.045-3.643-1.932-5.937-1.875C293.4,1026.011,291.725,1028.607,288.935,1028.89Z" transform="translate(-279.141 -960.034)"/></g></g><g transform="translate(8.875 235.137)"><path class="e" d="M280.153,1197.9a8.455,8.455,0,0,0-7.368.617c-3.368,2.287-3.69,7.035-5.539,10.662-1.933,3.793-5.66,6.467-7.43,10.339-1.307,2.861-1.429,6.13-2.554,9.068-1.09,2.848-3.071,5.261-4.45,7.981-5.346,10.554,7.334,23.135,14.638,29.385,1.975,1.69,4.163,3.306,6.722,3.768s5.558-.572,6.6-2.956c1.211-2.783-.6-5.883-2.327-8.375l-10.671-15.362a76.019,76.019,0,0,0,12.182,10.458c1.759,1.294,3.682,2.55,5.858,2.733s4.624-1.092,5.012-3.241a6.491,6.491,0,0,0-.676-3.522A68.6,68.6,0,0,0,278,1229.873a70.133,70.133,0,0,0,10.472,6.252,10.79,10.79,0,0,0,3.835,1.366,4.142,4.142,0,0,0,3.684-1.352c1.427-1.832.428-4.489-.7-6.521a82.17,82.17,0,0,0-11.047-15.441c3.867,4.263,9.706,10.348,16.1,9.34a4.441,4.441,0,0,0,3.546-5.749,13.051,13.051,0,0,0-3.377-5.162C294.781,1206.32,288.261,1200.916,280.153,1197.9Z" transform="translate(-251.534 -1197.348)"/><line class="p" x1="8.048" y1="8.64" transform="translate(8.189 37.039)"/><line class="p" x1="10.661" y1="9.608" transform="translate(15.802 22.917)"/><line class="p" x1="7.477" y1="6.164" transform="translate(24.309 11.53)"/></g><g transform="translate(241.396 38.753)"><circle class="g" cx="21.576" cy="21.576" r="21.576" transform="translate(0 30.513) rotate(-45)"/><path class="b" d="M1185.09,530.164a15.258,15.258,0,0,1,30.515,0" transform="translate(-1169.834 -499.65)"/><line class="b" x1="2.221" y2="21.62" transform="translate(23.327 16.233)"/></g><path class="b" d="M1512.061,881.138c-9.928,32.7-12.176,78.732,0,133.349" transform="translate(-1162.522 -729.927)"/><g transform="translate(169.54 311.338)"><path class="e" d="M960.914,1516.186c-.546-1.494-13.014.668-14.524.962a72.888,72.888,0,0,0-14.622,4.614c-6.415,2.739-8.727,8.1-15.759,3.8-7.81-4.776-14.086-9.185-22.728-12.222a9.75,9.75,0,0,0-4.855-.763,3.661,3.661,0,0,0-3.181,3.282,4.925,4.925,0,0,0,.6,2.026c4,8.407,12.633,13.86,19.907,19.205a214.156,214.156,0,0,0-18.949-12.223c-3.953-2.265-11.575-7.422-15.646-2.914a5.951,5.951,0,0,0-.461,7.156c-2.2-.833-4.8-1.581-6.79-.328a5.232,5.232,0,0,0-2.118,4.811,13.093,13.093,0,0,0,1.8,5.172c-1.631-.535-4.429-1.353-5.816.017-1.545,1.526-.773,5.164-.031,6.842a20.534,20.534,0,0,0,4.647,6.008c3.114,3.085,6.087,6.28,10.016,8.159,4.47,2.138,8.73,5.008,12.973,7.576,5.354,3.241,12.244,3.692,18.442,3.852,13.255.342,26.34-3.523,38.906-7.3,2.517-.757,30.927-12.878,31.779-10.543Z" transform="translate(-856.877 -1505.05)"/><path class="o" d="M1284.733,1484.45l-55.153,8.809v49.1l55.091-.175C1294.517,1528.9,1290.392,1506.859,1284.733,1484.45Z" transform="translate(-1130.66 -1484.45)"/></g><g transform="translate(146.834 308.818)"><path class="k" d="M806.871,1536.4a116.6,116.6,0,0,1,12.265-17.691,199.358,199.358,0,0,1,15.707-16.039c3.892-3.649,10.939-7.456,11.723-13.164.478-3.482-1.513-6.979-4.361-9.037a19.342,19.342,0,0,0-9.922-3.143c-23.575-1.823-40.094,16.584-50.135,35.755-3.971,7.581-7.543,15.393-10.822,23.32Z" transform="translate(-771.325 -1476.604)"/><path class="b" d="M916.493,1491.3a44.507,44.507,0,0,1,8.022-10.749c2.624-2.586,5.72-4.913,9.34-5.6" transform="translate(-877.964 -1474.956)"/><path class="b" d="M963.1,1502.042c4.789-7.161,10.257-14.832,18.549-17.167" transform="translate(-912.201 -1482.242)"/></g><g transform="translate(180.228 343.549)"><path class="e" d="M976.041,1611.486c-5.253-5.079-13.239-6.151-20.518-5.506s-14.407,2.728-21.712,2.891c-10.487.234-21.627-3.386-31.093,1.136-2.288,1.093-6.156,2.22-5.5,5.522a5.749,5.749,0,0,0,3.811,3.941,21.6,21.6,0,0,0,5.634.921c17.732,1.632,34.418,12.236,52.112,10.233" transform="translate(-897.147 -1605.812)"/><path class="b" d="M976.041,1611.486c-5.253-5.079-13.239-6.151-20.518-5.506s-14.407,2.728-21.712,2.891c-10.487.234-21.627-3.386-31.093,1.136-2.288,1.093-6.156,2.22-5.5,5.522a5.749,5.749,0,0,0,3.811,3.941,21.6,21.6,0,0,0,5.634.921c17.732,1.632,34.418,12.236,52.112,10.233" transform="translate(-897.147 -1605.812)"/></g></g></g></svg>