<svg xmlns="http://www.w3.org/2000/svg" width="480.227" height="319.984" viewBox="0 0 480.227 319.984"><defs><style>.a{fill:#a4d0c6;}.a,.b,.c,.d,.e,.f,.g,.h,.i,.j,.k,.l{fill-rule:evenodd;}.b{fill:#f15b40;}.c{fill:#81a97e;}.d{fill:#f28562;}.e{fill:#fd9b76;}.f{fill:#414042;}.g{fill:#fec405;}.h{fill:#ebb80f;}.i{fill:#cfd1d2;}.j{fill:#60905c;}.k{fill:#29272b;}.l{fill:#fff;}</style></defs><g transform="translate(-196.877 -1468.087)"><g transform="translate(398.501 1572.199)"><path class="a" d="M716.146,1759.309c-.788,1.826-3.043,2.975-4.7,4.28-4.9,3.863-9.989,8-14.913,12.095,10.856-.469,21.078-1.517,32.075-1.86.879-.181.357.914,1.022.931a18.391,18.391,0,0,1,7.355,2.418c1.689,1.117,4.188,3.1,4.086,5.4-.151,3.38-5.08,5.116-8.99,5.955-3.22.692-6.816,1.533-10.214,1.116-4.647-.567-11.677.358-17.163.746-5.148.362-10.43.79-15.526,1.116-10.767.688-21.592,1.727-31.056,1.861-.695-.771.458-1.1,1.022-1.3a32.617,32.617,0,0,1-8.375-.931c-2.438-.543-5.408-1.214-5.72-3.35-.2-1.346.729-2.9,1.635-3.908,1.639-1.829,4.366-3.217,6.537-4.28.7.016.118-1.132.817-1.117,12.216-.845,24.625-1.513,36.776-2.419-7.4-2.264-14.611-4.9-22.066-7.257-2.359-.745-4.875-1.307-6.946-2.607.784-1.8,2.616-2.7,4.087-3.906a59.35,59.35,0,0,0,7.967-7.815c1.016-1.179,2.812-3.447,4.494-3.352,1.646.1,3.387,3.544,4.293,4.839,3.687,5.283,7.392,10.765,10.622,16.189,1.67-7.473,2.886-15.36,4.5-22.888a.989.989,0,0,1,.614-.557c1.514.122,3.256,1.465,4.9,2.417,1.531.889,2.994,2.012,4.29,2.792C710.712,1755.807,713.922,1757.109,716.146,1759.309Z" transform="translate(-645.02 -1748.703)"/></g><g transform="translate(222.719 1659.499)"><path class="b" d="M900.573,2047.988c.142,1.753,1.2,3.01,1.431,4.653,1.106,7.969-2.836,16.165-6.744,20.283-9.094,9.586-29.445,11.437-49.237,9.117-13.067-1.531-23.168-4.392-35.549-6.7-1.875-.35-3.972-.736-5.924-1.116-2.274-.444-4.554-.656-5.722-1.3-4.386-2.435-3.5-11.341-2.655-16.562,2.989-1,5.326-3.121,7.967-4.465,1.458-.742,3.24-.822,4.086-2.234.742.133.875.815,2.043.559a1.334,1.334,0,0,0,.614-1.489c.45.113,1.523.468,1.633-.185-.092-1.277-1.776-1.536-2.655-2.047a44.423,44.423,0,0,1-12.054-10.98,36.119,36.119,0,0,1-7.151-24.933,35.312,35.312,0,0,1,3.678-13.4c1.929-3.765,4.731-6.7,7.355-9.862,1.053-.29,1.305.762,2.042.185,5.25-1.342,10.424-2.827,16.345-3.164,9.13-.516,17.5,1.055,25.537,2.606,7.739,1.493,15.262,3.294,22.679,5.023a291.137,291.137,0,0,0,48.625,7.257c-1.94-9.461,11.075-13.07,21.246-13.4-10.728-1.154-23.549-.527-32.28,2.048-1.489.439-2.6,1.414-4.086,1.3-.03-1.892,2.371-2.164,3.882-2.606,11.614-3.4,27.784-3.073,41.271-1.116a173.479,173.479,0,0,1,37.8,10.235,37.864,37.864,0,0,1,11.237,6.512,38.321,38.321,0,0,1,3.268,2.6c3.878,4.319,5.514,15.121,1.635,21.027-.862,1.311-2.826,2.7-4.494,4.094-1.586,1.324-3.068,2.792-4.5,3.908a102.563,102.563,0,0,1-10.216,6.884c-7.17,4.331-14.65,8.758-22.679,11.538a72.243,72.243,0,0,1-31.055,2.976c-4.917-.562-9.4-2.329-14.1-3.349A75.31,75.31,0,0,1,900.573,2047.988Z" transform="translate(-790.551 -1984.006)"/></g><g transform="translate(231.141 1545.738)"><path class="c" d="M1024.776,1677.418c7.193-.243,16.13.734,21.861,2.792a53.87,53.87,0,0,1,8.172,3.907c5.6,3.19,9.579,6.774,12.053,12.839a71.462,71.462,0,0,1,2.043,7.444c.7,2.515,1.514,5.143,2.045,7.816,1.121,5.658,1.569,11.046,2.45,16.933.875,5.837,2.053,11.094,2.862,16.562,1.175,7.952,2.517,18.014.815,26.61-.505,2.565-1.221,5.15-1.839,7.815-1.311,5.673-1.121,11.588-2.042,17.305-1.777,11.027-6.981,19.843-14.916,24.75-8.514,5.265-20.894,7.443-34.118,7.442-19.53,0-37.8-4.9-51.891-10.234-11.819-4.478-23.257-10.515-34.529-16.561-2.283-1.226-5.112-2.816-5.926-4.653-1.344-3.047-.92-9.664-.2-13.027,2.1-9.828,8-15.77,14.913-21.771,1.705-1.478,3.293-2.413,3.679-4.281.364-1.763-.464-3.85-.818-5.767-2.588-14.052.6-27.925,5.516-38.146a57.257,57.257,0,0,1,18.8-21.586,61.288,61.288,0,0,1,8.375-5.21,5.925,5.925,0,0,1,1.227-.559c.344-.079.809.136,1.225,0a19.712,19.712,0,0,0,2.248-1.117,98.864,98.864,0,0,1,14.3-5.582A86.59,86.59,0,0,1,1024.776,1677.418Z" transform="translate(-930.94 -1677.382)"/></g><g transform="translate(196.877 1504.838)"><path class="d" d="M1042.725,1613.476c1.826,3.275,4.294,6.641,5.722,10.794a50.453,50.453,0,0,1,2.247,13.771,83.771,83.771,0,0,1-.409,11.35c-.326,3.62.4,7.668-1.633,10.048-7.3-.746-12.337-4.693-16.753-8.56-2.2-1.925-4.386-3.994-6.54-5.954-2.2-2-4.082-4.3-6.332-6.141-4.654-3.809-9.437-7.389-14.3-10.792-2.462-1.723-4.952-3.481-7.558-5.025-2.589-1.532-5.51-2.571-7.968-4.466a90.659,90.659,0,0,1,19.407-11.165c2.357-1,5.238-2.555,7.56-2.605,1.149-.024,1.514.719,2.452.372.706-2.544-3.932-1.247-5.313-1.3.389-.515,1.567-.31,1.636-1.116-.2-.8-.981-.782-1.839-.558a75.363,75.363,0,0,1,9.806-8.186,109.222,109.222,0,0,0,18.592-17.306c2.707-3.157,4.847-6.79,8.785-8.933a.51.51,0,0,1,.409-.557h.407c6.425,5.348,9.035,18.8,8.173,30.517a25.111,25.111,0,0,1-3.678,11.164c-1.123,1.794-1.653,3.59-3.473,4.466C1049.473,1614.566,1045.808,1613.234,1042.725,1613.476Z" transform="translate(-901.959 -1567.144)"/><path class="e" d="M880.435,1839.946c-.527,2.526-4.116,3.3-6.742,4.279-.9.339-1.671.9-2.452,1.116-1.783.5-3.959.628-5.924,1.118-1.791.446-3.59,1.449-5.108,1.674-3.843.571-7.573-1.516-11.238-1.3-4.266.25-9.244,3.076-12.666,4.652-4.186,1.925-7.542,4.137-12.258,5.022-2.949-3.673-.9-11.43,1.223-14.514,7.189-2.948,15.026-3.859,21.862-7.257,1.645-.818,3.007-1.931,4.494-2.791a40.207,40.207,0,0,1,5.109-2.233c3.648-1.49,6.905-3.535,10.622-4.466,1.286-.322,2.647.047,2.863.931.732,3.028-5.851,3.522-6.538,5.955-1.1,3.9,3.471,5.185,6.127,6.141A29.263,29.263,0,0,0,880.435,1839.946Z" transform="translate(-655.086 -1729.414)"/><path class="f" d="M963.363,2181.178c-3.664.9-3.911-2.169-3.883-4.094a14.415,14.415,0,0,1,1.635-6.327c1.619-2.677,4.805-4.4,5.721-6.885.9-2.442-.045-5.605.818-7.444a5.539,5.539,0,0,1,3.064-2.418,25,25,0,0,1,7.151,0c.841.211,3.944,2.884,4.7,3.535.524.452,1.177,1.352,2.043,2.047.981.79,1.949.89,2.043,1.861.261,2.674-5.411,4.07-7.764,5.21a76.549,76.549,0,0,0-9.4,5.769,12.95,12.95,0,0,0-4.9,6.326A5.007,5.007,0,0,1,963.363,2181.178Z" transform="translate(-817.08 -1936.11)"/><path class="f" d="M1322.436,2193.829c-4.178.983-8.916-.477-14.1-.745-2.671-.138-5.552-.1-8.171,0-4.7.188-9.684,1.268-11.85-1.861-.109-10.743,14.793-9.689,24.107-12.467,2.529-.755,5.359-2.2,7.561-2.233a3.683,3.683,0,0,1,3.881,2.6c.582,2.871-2.147,4.712-2.861,7.443C1320.21,2189.619,1321.08,2191.692,1322.436,2193.829Z" transform="translate(-1288.317 -1950.435)"/></g><g transform="translate(401.942 1656.033)"><path class="f" d="M489.44,2017.176a4.6,4.6,0,0,0-.2,3.165c-1.155,1.813-.849,3.866-1.225,5.768-1.046,5.316-3.65,10.222-5.923,14.887-3.036,6.224-6.39,12.456-11.647,16.561-7.823,6.11-18.16,10.318-29.01,14.142a123.33,123.33,0,0,1-16.754,5.025,166.307,166.307,0,0,1-19.409,2.42c-3.635.286-7.084.558-10.624.558-3.381,0-6.737-.436-10.214-.743-6.515-.577-13.047-1.422-19.615-2.419-6.064-.923-12.165-2.465-18.386-3.536-3.022-.521-6.162-.931-9.194-1.675a68.379,68.379,0,0,1-8.58-2.233c-3.508-1.433-5.465-5.03-8.582-6.513-2.678-1.275-6.141-1.865-9.6-2.6-3.34-.715-6.67-1.539-10.011-2.234-7.006-1.456-14.625-1.722-22.472-2.046-7.445-.308-15.791-.372-24.312-.372-9.222,0-18.89-.453-23.087-4.28-5.113-4.664-5.331-16.007-2.656-23.447,2.225-6.195,8.626-12.63,14.3-15.816,7.106-3.99,18.578-5.075,29.215-6.513a162.575,162.575,0,0,0,28.805-6.885c4.658-1.515,8.94-2.867,13.077-4.652,6.133-2.649,12.246-5.257,18.184-8.374,3.707-1.947,7.25-4.119,11.236-6.14,3.547-1.8,7.824-4.053,12.667-4.467,5.861-.5,12.52,1.239,17.57,2.979a125.989,125.989,0,0,1,14.1,6.141,161.588,161.588,0,0,0,29.419,11.164c10.363,2.808,21.707,5.756,33.508,7.443,6.478.927,12.406,1.362,17.774,2.792a57.207,57.207,0,0,1,14.507,5.768,22.877,22.877,0,0,1,4.086,2.977c.646.679.933,2.031,1.634,2.6C488.244,2016.811,488.942,2016.238,489.44,2017.176Z" transform="translate(-226.236 -1974.663)"/></g><g transform="translate(501.667 1525.094)"><path class="g" d="M285.628,1621.766a36.878,36.878,0,0,1,15.116,2.792,38.594,38.594,0,0,1,9.4,4.651c2.293,1.74,4.434,4.5,6.538,7.071a107.746,107.746,0,0,1,14.71,25.122,213.931,213.931,0,0,1,12.462,40.193,148.9,148.9,0,0,1,3.271,22.888,152.468,152.468,0,0,1-.409,24.935c-.888,7.651-1.133,15.976-2.451,23.632a108.367,108.367,0,0,1-2.451,10.607c-.986,3.519-1.882,7.158-3.473,9.676-1.351,2.135-4.52,4.322-7.356,5.769a28.162,28.162,0,0,1-9.6,2.977c-5.842.518-12.37-.289-18.186-1.116-16.454-2.346-30.864-7.345-44.944-11.538-9.645-2.87-19.477-5.7-27.989-9.676a100.265,100.265,0,0,1-11.851-6.7c-3.834-2.478-8.026-4.77-11.031-7.443a45.061,45.061,0,0,1-3.678-4.279,27.923,27.923,0,0,1-3.472-4.467,34.149,34.149,0,0,1-3.066-10.049,25.776,25.776,0,0,1-.2-5.955c.918-12.753,4.692-20.9,8.784-33.122.216-.822,1.306.12,1.635-.372,6.188-13.892,12.9-26.74,21.86-37.961,2.262-2.83,4.456-5.617,6.742-8.373,4.476-5.4,9.765-10.415,14.5-15.817,2.331-2.656,4.3-5.574,7.151-7.816,1.186-.047.169,1.031.613,1.3a2.9,2.9,0,0,1,1.635,1.861c9.769-1.4,15.918-6.095,22.677-10.234.7-.292.26-1.624.818-2.046q1.676-1.266,3.473-2.42c-.419-1.294-2.183-1.363-1.635-3.536A.512.512,0,0,1,285.628,1621.766Z" transform="translate(-171.997 -1621.74)"/><path class="g" d="M626.639,1855.53c.612.123-.194.4,0,.745C626.132,1856.247,626.578,1855.645,626.639,1855.53Z" transform="translate(-626.4 -1768.791)"/></g><g transform="translate(503.132 1527.135)"><path class="e" d="M330.822,1652.58c-.4,6.2,3.854,8.015,9.6,5.955a56.637,56.637,0,0,0,14.3-7.259c1.451-.961,2.991-1.974,4.493-2.976a34.859,34.859,0,0,0,10.421-10.235c2.919-4.225,5.462-11.355-3.065-10.792-3.482.23-6.395,1.495-9.4,2.792-2.728,1.176-5.53,2.253-7.968,3.535-5.094,2.678-9.257,6.446-13.689,8.931C333.541,1645.288,331.078,1648.558,330.822,1652.58Zm35.344-21.771c.523-.009.249.137.2.372a58.084,58.084,0,0,1-12.054,6.884C358.407,1635.774,361.924,1632.962,366.166,1630.809Z" transform="translate(-252.981 -1627.241)"/><path class="h" d="M259.755,1753.76c.5-.758,1.509.658,1.43-.185a13.912,13.912,0,0,1,3.064-5.025c.4-.563-1.434-1.288-.614-2.233,1.208-.7,2.867-.367,3.883-.558,2.1-.393,3.937-1.314,5.926-1.674a90.349,90.349,0,0,1,21.248-1.118,50.828,50.828,0,0,0,6.946.373c2.132-.177,4.132-.72,6.332-1.117a95.33,95.33,0,0,0,12.26-2.6c13.293-4.375,21.537-12.259,28.4-22.7a38.805,38.805,0,0,0,2.862-4.28c.411-.878.452-1.929.817-2.791.349-.832.836-1.665,1.225-2.419a42.157,42.157,0,0,1,6.742-9.491c2.918-3.249,6.215-6.312,11.237-7.629,1.43-.375,5.195.16,7.56.557,9.913,1.671,16.533,5.628,20.838,12.469a49.652,49.652,0,0,1,5.925,14.886c2.124,9.369,3.235,18.8,1.227,28.469a47,47,0,0,1-2.655,9.3,37.022,37.022,0,0,1-4.905,7.072,68.008,68.008,0,0,1-20.021,16.375,88.462,88.462,0,0,1-38.819,10.606c-27.756,1.01-50.647-7.877-66.6-19.539a47.532,47.532,0,0,1-6.539-5.4,52.8,52.8,0,0,1-4.086-5.582C262.18,1757.746,260.489,1756.085,259.755,1753.76Z" transform="translate(-259.755 -1666.828)"/></g><g transform="translate(457.52 1494.903)"><path class="d" d="M356.063,1540.437c8.077-.694,13.227,3.727,18.183,7.257,1.716,1.223,3.979,2.748,5.72,4.28,1.625,1.429,3.078,3.7,5.108,4.651,1.813.847,4.488,1.064,6.333,2.048,3.679,1.962,5.065,5.682,7.356,9.49,2.212,3.678,5.76,5.48,3.882,10.607-1.091,2.98-6.357,6.534-8.785,8.746-1.56,1.42-2.581,2.1-4.9,3.907-1.384,1.075-3.218,3.294-5.516,3.35-2.739.065-4.353-2.852-7.354-3.537-4.736-1.077-9.309,1.649-13.28.186-5.281-1.942-7.606-6.6-10.42-11.164a74.811,74.811,0,0,1-4.29-7.815A46.729,46.729,0,0,1,343.8,1552.9c.029-2.183.312-7.12,1.431-8.56.375-.481.458-.165,1.227-.558.833-.428,1.866-1.145,3.065-1.676A16.819,16.819,0,0,1,356.063,1540.437Z" transform="translate(-243.438 -1540.364)"/><path class="e" d="M627.426,1823.442c-2.882-1.116-6.837-.324-10.623,0-2.549.219-9.431,1.417-10.011-.558-.545-1.855,3.348-3.24,5.107-3.722,2.345-.643,5.629-.958,7.765-1.3,5.544-.9,10.631-1.643,14.71-3.349-2.219-1.906-7.773-.908-8.173-3.163-.272-1.536,2.91-3.138,6.334-2.977,5.129.241,11.722,1.648,15.322,4.278,1.888,1.379,3.19,3.074,5.108,4.467s4.949,2.711,5.722,3.906a4.977,4.977,0,0,1,.611,3.351c-.3,1.7-3.084,4.927-4.9,5.4-.539.139-1.435-.094-2.246,0-2.3.271-4.155,1.463-6.131,2.047-3.248.962-9.275,2.292-13.075.932-1.141-.409-2.919-2.7-4.5-2.978-2.592-.453-4.391,1.722-7.762,1.117-.731-.131-2.017-.774-2.249-1.675C617.307,1824.836,625.79,1825.544,627.426,1823.442Z" transform="translate(-606.74 -1708.93)"/></g><g transform="translate(259.804 1468.087)"><path class="i" d="M363.969,1468.366c-8.77,1.419-16.1,6.576-19,13.025a24.937,24.937,0,0,0-20.022.186c-4.447,2.031-8.938,6-10.624,9.677-2.037,4.445-.588,10.477,1.838,13.4a12.677,12.677,0,0,0,12.667,3.535,19.04,19.04,0,0,0,5.311-3.162c1.743-1.457,2.784-3.46,4.5-4.652,2.085-1.454,4.672-2.77,7.354-2.42,2.564.337,5.861,3.466,7.764,5.956a19.209,19.209,0,0,1,3.678,8.931c.292,2.864-1.678,10.314,2.655,10.237,2.245-.042,3.012-2.279,3.064-4.653.082-3.763-1.675-7.93.613-10.047a5.308,5.308,0,0,1,6.333,2.047c2.488,3.4,1.184,10.19,3.881,13.025,1.471,1.547,4.907,2.425,7.355,2.606,4.311.316,6.2-.7,9.193-2.233,3.817-1.955,7.353-4.133,9.194-7.257,3.042-5.162,3.443-13.476,1.635-19.353-1.675-5.447-5.386-8.7-9.807-11.166a15.556,15.556,0,0,0-9.6-2.419C383.616,1473.793,375.162,1466.555,363.969,1468.366Zm16.549,15.072c-1.313-.734-1.242-2.214-1.838-3.349a15.488,15.488,0,0,0-14.711-8.373c-6.425.471-11.985,3.971-15.323,6.512a25.251,25.251,0,0,1,16.14-8.744C374.872,1468.454,381.707,1474.411,380.517,1483.438Zm-36.571-1.116c-7.985-.181-14.85.884-19.2,4.839a14.9,14.9,0,0,0-4.493,11.723c.233,3.652,2.661,6.089,4.289,8.187-6.1.014-9.7-5.608-9.807-10.421C314.482,1485.424,332.267,1476.979,343.947,1482.321Zm46.378,4.839c6.124,2.247,10.58,9.217,10.624,17.678a22.134,22.134,0,0,1-3.475,12.28c.014-1.127,1.248-2.291,1.431-3.536a10.894,10.894,0,0,0-.2-1.861c-.024-1.305.35-2.553.408-3.907C399.5,1498.946,395.953,1491.054,390.324,1487.16Z" transform="translate(-32.586 -1468.087)"/><path class="j" d="M964.093,1823.906c.112.04.3-.052.408,0a37.223,37.223,0,0,1,4.5,3.163,69.436,69.436,0,0,0,14.915,7.816c7.224,2.854,15.118,5.753,24.515,6.326a45.729,45.729,0,0,0,8.376-.186c1.493-.229,2.843-1.074,4.7-.557.156,1.2-1.547,1.09-2.452,1.3a42.352,42.352,0,0,1-10.42.746c-8.777-.443-17.459-3.147-25.335-6.326a74.886,74.886,0,0,1-15.322-8C966.152,1826.908,963.417,1825.374,964.093,1823.906Z" transform="translate(-916.693 -1691.882)"/><path class="j" d="M1068.873,1914.214c.466,1.1-.8,2.208-1.43,2.976a79.794,79.794,0,0,1-6.743,7.445,62.028,62.028,0,0,1-11.031,8.186,55.781,55.781,0,0,1-30.851,8.189c-21.813-.743-37-9.082-49.849-18.422-1.767-1.286-4.283-2.4-4.7-4.652,1.26-.434,2.16.894,2.86,1.488a93.972,93.972,0,0,0,20.024,12.654c11.952,5.706,31.228,10.455,47.6,5.582,2.6-.773,4.955-1.563,7.151-2.419a57.838,57.838,0,0,0,17.164-10.793c3.328-3.031,5.845-6.912,9.4-10.234Z" transform="translate(-964.268 -1748.695)"/><path class="k" d="M542.122,2001.97c.331-.052.352.176.615.186,3.115,11.118,9.178,19.067,14.709,28.285.768,1.279,2.141,2.444,2.043,4.094-1.916-.14-2.352-2.217-3.065-3.35-2.333-3.7-4.676-7.645-7.15-11.537-3.187-5.015-6.6-10.45-7.562-17.119C541.6,2002.116,542.1,2002.264,542.122,2001.97Z" transform="translate(-282.654 -1803.888)"/><path class="k" d="M598.389,2020.042c1.336.5-.3,1.946-.613,2.791-1.413,3.816-1.585,10.526-1.838,15.631a32.618,32.618,0,0,0,.613,8.187c.315,1.472,1.093,2.9.816,4.28-1.157.107-1.726-1.4-2.041-2.42-.852-2.746-.784-7.575-.615-10.978.327-6.585.391-13.775,2.86-16.934.084-.109.117-.565.613-.557Z" transform="translate(-343.62 -1815.26)"/><path class="k" d="M330.968,2114.294c-1.383-.7-.584-2.45-.612-3.535a20.791,20.791,0,0,0-3.474-11.537,34.786,34.786,0,0,0-13.892-12.468,36.484,36.484,0,0,0-6.742-2.6c-1.835-.515-6.955-.944-7.354-1.861-.023-.054.019-.133,0-.186a1.455,1.455,0,0,1,.613-.373c14.519,1.183,24.778,9.238,30.237,19.538a21.29,21.29,0,0,1,2.043,9.862C331.8,2112.111,332.036,2113.5,330.968,2114.294Z" transform="translate(43.932 -1854.061)"/><path class="k" d="M519.038,2088.754h.409c.593,1.047-.705,1.952-1.225,2.6a21.88,21.88,0,0,0-4.7,10.607c-12.77.379-23.639,3.349-33.913,6.326-1.567.453-3.166.959-4.7,1.49-1.159.4-2.974,1.663-4.29.557,0-.956,1.262-.886,1.839-1.116a126.633,126.633,0,0,1,15.732-4.838,139.7,139.7,0,0,1,23.9-3.721C513.5,2095.867,515.543,2091.648,519.038,2088.754Z" transform="translate(-213.805 -1858.479)"/><path class="k" d="M359.045,2129.081c-1.508-.34-1.482-2.608-1.838-3.907-1.209-4.389-2.736-8.133-5.721-11.166-3.113-3.163-7.23-4.359-12.258-5.955v-.557c.164-.036.2-.186.409-.186,9.154.984,15.471,6.62,17.978,14.329.387,1.189.908,2.456,1.228,3.722C359.13,2126.5,359.807,2127.889,359.045,2129.081Z" transform="translate(-0.081 -1870.15)"/><path class="k" d="M415.479,2208.121h.409c1.579.677,1.879,3.55,2.042,6.141.171,2.747.409,6.307,0,8.373-.122.618-.134,1.635-1.226,1.674-1-.72-.09-2.669,0-4.466.178-3.583-.211-8.806-1.43-11.165C415.217,2208.378,415.468,2208.359,415.479,2208.121Z" transform="translate(-89.815 -1933.559)"/><path class="k" d="M426.375,2212.618c.921.089.464.876.408,1.489a31.116,31.116,0,0,0,5.515,8.373c1.167,1.233,3.1,1.994,3.677,3.723-1.754.548-2.78-1.2-3.677-2.047-2.926-2.767-5.929-6.323-6.946-10.793C425.661,2213.084,425.662,2212.528,426.375,2212.618Z" transform="translate(-111.743 -1936.382)"/><path class="i" d="M1033.025,1583.356a18.825,18.825,0,0,1,1.225-8.56c1.83-4.952,6.047-10.031,9.807-13.211,1.672-1.418,3.805-2.482,5.516-3.909,2.381-1.986,6.041-5.442,7.355-8,2.256-4.4,1.525-10.837-.818-14.328a15.574,15.574,0,0,0-7.763-5.21,19.054,19.054,0,0,0-6.947.186c-2.032.361-4.216,1.322-6.334,1.117a13.181,13.181,0,0,1-3.269-1.3,35.949,35.949,0,0,0-16.956-2.79c-10.854.768-20.293,6.879-24.722,13.583a23.18,23.18,0,0,0-2.656,17.864,25.935,25.935,0,0,0,3.677,7.444,27.622,27.622,0,0,0,13.077,11.165c1.02.45,2.285.748,3.268,1.3,1.933,1.092,3.423,3.026,5.517,4.28a70.937,70.937,0,0,0,10.42,4.839c1.724.667,3.588,1.429,5.515,2.047s4.215,1.349,6.334.373C1036,1587.255,1033.449,1586.233,1033.025,1583.356Zm-7.764-53.965a42.548,42.548,0,0,0-21.247,6.886c-5.328,3.653-10.849,9.016-11.035,17.3-.219,9.968,5.783,15.991,10.831,22.144a25.478,25.478,0,0,1-11.85-10.606,23.825,23.825,0,0,1-3.677-10.42,21.681,21.681,0,0,1,7.763-18.236C1002.639,1530.784,1012.922,1526.957,1025.261,1529.391Zm6.537,50.242c-2.593-11.851,2.806-18.047,9.6-22.887,3.677-2.619,8.039-4.387,10.625-7.444,2.875-3.4,4.081-10.292.815-14.885.246-.736,2.109,1.6,2.453,2.233,1.967,3.632,1.972,10.026-.408,13.584a29.029,29.029,0,0,1-2.86,3.163c-2.627,2.763-5.488,4.37-8.582,6.885a41.109,41.109,0,0,0-6.333,6.885C1034.213,1570.963,1032.386,1574.128,1031.8,1579.633Z" transform="translate(-962.743 -1505.295)"/></g><g transform="translate(365.841 1707.667)"><path class="a" d="M538.977,2168.725c.464-7.577.635-15.422,1.018-23.074,2.388-1.233,5.168-1.6,7.765-2.233,18.231-4.474,37.19-9.155,55.776-13.771,21.6-5.363,43.3-10.508,64.969-15.815,13.929,10.7,27.9,21.353,41.475,32.377.265,4.755.314,11.2.611,16.934.093,1.786.619,4.169,0,5.023-.667.923-5.4,1.534-7.966,2.046-39.017,7.792-76.976,14.7-116.046,22.517-2.826.564-6.336,1.663-8.375,1.488-1.565-.132-3.625-1.875-5.313-2.977C561.755,2183.962,549.44,2175.924,538.977,2168.725Z" transform="translate(-538.977 -2113.832)"/></g><g transform="translate(380.249 1718.081)"><path class="b" d="M667.23,2163.865c3.014,3.329,6.976,6.537,10.829,10.049,1.246,1.136,3.04,2.18,3.678,3.349.715,1.314.657,3.236,1.02,4.838,1.031,4.549,2.809,9.159,3.065,14.515-1.435,1.019-3.376.98-5.108,1.3-5.12.951-10.547,2.484-16.14,3.163-1.927-5.628-2.469-12.516-3.269-19.167-4.663-4.313-9.535-8.436-14.507-12.467-17.261,5.18-33.778,11.04-50.668,16.562a39.662,39.662,0,0,0-3.065,8.374c-.657,2.354-1.046,7.372-3.268,8-1.809.511-4.293-1.233-5.516-2.048-1.463-.973-3.464-2.086-3.883-3.721-.336-1.316.309-3.223.613-5.025.778-4.61,1.844-10.547,2.657-15.072,16.768-5.941,36.251-9.409,53.12-15.259-.258-1.581-1.961-2.428-3.066-3.536-2.849-2.858-5.8-5.594-8.989-8.373-.565-.493-1.611-.928-1.43-1.861,4.057-1.794,9.54-2.517,14.505-3.535,1.608-.331,3.5-1.172,5.109-.931,1.421.212,2.431,1.842,3.677,2.976,3.51,3.2,6.929,6.011,10.418,8.933,11.58-2.809,25.158-6.685,37.593-9.677,2.072-.5,4.274-.975,6.334-1.488,2.791-.7,5.07-1.746,8.171-1.861,2.881-.106,4.718,1.568,6.947,3.349,1.594,1.275,5.12,3.774,4.9,5.211-.207,1.377-3.761,1.892-5.924,2.42C698.966,2156.8,682.343,2159.434,667.23,2163.865Z" transform="translate(-580.306 -2141.903)"/></g><g transform="translate(230.996 1486.973)"><path class="f" d="M328.662,1553.788c.25-1.555,2.271-1.023,3.063-1.116,8.812-1.025,15.159-6.54,13.893-16.933-.449-3.679-2.609-6.97-4.7-9.676-2.127-2.75-4.635-5.5-8.173-6.327-.033-.216.046-.33.2-.372-.075-.316.16-.35.408-.372a10.3,10.3,0,0,1,5.722,2.791c3.681,3.292,7.35,8.754,7.968,13.769,1.115,9.092-3.8,15.69-11.238,17.678a25.057,25.057,0,0,1-3.677.558C331.057,1553.915,329.723,1554.509,328.662,1553.788Z" transform="translate(45.219 -1518.992)"/><path class="f" d="M1109.2,1550.353c.138,1.041-1.258,1.02-1.841,1.3-6.5,3.159-12.224,8.822-11.44,18.794a19.553,19.553,0,0,0,4.087,10.234c.656.841,1.914,1.516,1.837,2.79-1.6.518-2.208-1.218-2.858-2.045a20.475,20.475,0,0,1-4.5-10.421,19.885,19.885,0,0,1,12.869-20.655C1107.656,1550.238,1108.611,1549.431,1109.2,1550.353Z" transform="translate(-1028.702 -1538.443)"/><path class="f" d="M1021.076,1559.1c.331-.053.352.176.615.186.908,12.1-10.787,15.83-16.959,22.7-3.693,4.115-7.382,12.781-4.7,19.91.395,1.05,1.184,2.141,1.021,3.35-2.219-.513-2.89-3.234-3.267-5.4-1.41-8.049,2.509-14.577,6.127-18.607a49.407,49.407,0,0,1,5.926-5.4c4.9-3.956,10.567-7.654,10.827-16.188C1020.556,1559.249,1021.059,1559.4,1021.076,1559.1Z" transform="translate(-901.762 -1544.217)"/><path class="f" d="M449.383,1585.526c-2.025.1-1.811-2.009-3.881-2.233a5.829,5.829,0,0,0-3.679,1.116c-1.312.854-1.789,2.409-3.268,2.977-.605-1.009.541-2.6,1.634-3.536C443.149,1581.314,449.49,1581.479,449.383,1585.526Z" transform="translate(-101.655 -1558.731)"/><path class="f" d="M446.831,1595.165c-.72-2.906,2.992-2.967,3.473-1.3C450.842,1595.733,448.268,1596.631,446.831,1595.165Z" transform="translate(-106.049 -1565.392)"/><path class="f" d="M452.147,1607.765h.409c1.083.5,1.12,2.222,1.225,3.537.2,2.513-.459,5.566.408,7.443,2.533.89,3.64-1.8,5.72-1.3-.4,2.337-4.227,3.211-6.946,2.234-1.4-3.189.186-7.97-1.022-11.35C451.884,1608.023,452.135,1608,452.147,1607.765Z" transform="translate(-117.698 -1574.829)"/><path class="f" d="M1017.932,1611.961c-1.019.594-1.368-.8-2.246-.93a9,9,0,0,0-5.927,1.3c-.626.409-1.091,1.5-2.247,1.3-.418-2.291,4.138-4.178,7.355-3.908C1016.166,1609.838,1018.413,1610.387,1017.932,1611.961Z" transform="translate(-902.09 -1576.048)"/><path class="f" d="M996.5,1614.787c1.264.861.438,1.608.613,2.792a15.075,15.075,0,0,0,1.226,3.536c.841,1.92,2.689,4.113.818,6.14a9.059,9.059,0,0,1-3.064,1.674c-1.074.363-2.758,1.023-3.474,0,.279-1.1,1.8-.837,2.654-1.116a5.267,5.267,0,0,0,3.475-2.79c-1.252-2.891-3.919-6.275-2.655-10.236Z" transform="translate(-878.005 -1579.246)"/><path class="f" d="M1012.76,1625.116c.861-.3,2.584-.061,2.861.931.693,2.49-3.667,2.827-4.086.93C1011.384,1626.294,1011.448,1625.572,1012.76,1625.116Z" transform="translate(-901.413 -1585.667)"/><path class="f" d="M312.524,1640.836c.119.39.508.532.408,1.117a.888.888,0,0,1-1.429-.931A1.433,1.433,0,0,1,312.524,1640.836Z" transform="translate(86.484 -1595.619)"/><path class="f" d="M288.952,1642.375h.611c.764,1.726,4.2,2.786,3.269,4.838-1.06-.026-1.236-.86-1.633-1.489-.949-.872-2.2-1.47-2.657-2.791A1.32,1.32,0,0,0,288.952,1642.375Z" transform="translate(115.778 -1596.598)"/><path class="f" d="M307.987,1655.416h.409a19.072,19.072,0,0,1,2.861,1.674c.865.49,2.441.813,2.451,2.046-2.341.134-4.388-1.574-5.721-2.976Z" transform="translate(87.14 -1604.801)"/><path class="f" d="M279.454,1668.955c1.6.016,1.983,1.556,2.656,2.419.642.825,1.959,1.641,1.838,2.978-1.512.11-2.2-1.574-2.86-2.419C280.411,1671.066,279.055,1670.053,279.454,1668.955Z" transform="translate(128.544 -1613.317)"/><path class="f" d="M1022.665,1671.966a.514.514,0,0,0-.409.558c-.012.113-.03.22-.2.186,0,7.625,2.358,12.7,5.311,18.051a32.082,32.082,0,0,0,4.086,6.326,40.68,40.68,0,0,0,5.108,5.4c1,.769,2.942,1.21,3.881,2.233.468.509.6,1.534,1.023,2.233,1.4,2.329,4.991,7.44,8.785,7.072,1.482-.145,3.188-1.912,3.88-3.164,3.483-6.3.611-19.254,0-27.541-.108-1.487.794-3.193-1.225-3.722-.875.956-.25,2.323-.2,3.537.2,5.233-.1,12.8-2.654,16.374-1.207,1.686-4.2,4.5-6.744,4.467s-2.677-1.883-3.678-3.908c-3.544-7.182-7.124-14.32-10.01-21.4-.47-1.149-.317-2.969-1.838-3.534-.708,1.1.006,2.5.409,3.534,3.137,8.064,7.293,16.1,10.826,23.634a31.752,31.752,0,0,1-10.215-11.537c-2.568-4.727-5.191-10.175-5.517-16-.062-1.105.716-2.3-.408-2.79Zm31.057,20.468c.722,5.19,1.189,13.791-.819,17.678-.464.9-1.812,2.506-2.858,2.606-2.044.193-3.669-2.017-4.7-3.165a34.826,34.826,0,0,1-3.268-4.28C1049.341,1704.87,1052.983,1699.038,1053.722,1692.434Z" transform="translate(-945.846 -1615.211)"/><path class="f" d="M301.766,1678.566c-1.13.385-1.9-.929-2.654-1.49a14.438,14.438,0,0,1-2.657-1.86v-.559a1.025,1.025,0,0,1,.613-.186C298.831,1675.545,301.643,1676.617,301.766,1678.566Z" transform="translate(103.78 -1616.786)"/><path class="f" d="M317.24,1679.487c1.824.942,3.747,1.794,4.9,3.35-1.865.725-3.747-1.473-5.107-2.418A1.125,1.125,0,0,1,317.24,1679.487Z" transform="translate(75.028 -1619.941)"/><path class="f" d="M258.453,1684.5h.613c1.046,1.986,2.6,4.42,2.86,6.514-1.482.3-1.749-1.547-2.248-2.606C259.067,1687.11,257.975,1685.84,258.453,1684.5Z" transform="translate(159.148 -1623.097)"/><path class="f" d="M282.631,1695.036c1.714.611,2.449,2.112,2.861,3.907-1.814.344-2.038-2.187-3.063-3.162C282.342,1695.391,282.568,1695.289,282.631,1695.036Z" transform="translate(125.775 -1629.721)"/><path class="f" d="M266.951,1701.558h.408a7.28,7.28,0,0,1,2.247,5.953c-2.031-.754-1.6-3.755-2.86-5.209C266.66,1701.913,266.886,1701.809,266.951,1701.558Z" transform="translate(147.995 -1633.824)"/><path class="f" d="M393.965,1704.565h.613c1.821,4.021,4.653,7.367,10.214,7.071,3.517-.187,5.9-2.557,9.194-2.419-.072,1.39-2.233,1.782-3.473,2.234a21.927,21.927,0,0,1-4.291,1.3c-6.765.82-11.326-2.817-12.462-7.629C393.7,1704.823,393.953,1704.8,393.965,1704.565Z" transform="translate(-48.075 -1635.715)"/><path class="f" d="M250.413,1717.6h.408c1.076.426,1.33,3,1.431,4.466a5.218,5.218,0,0,1-.2,2.419c-1.52-.067-1.066-1.966-1.226-3.163a21.209,21.209,0,0,0-.613-2.977C250.184,1718.015,250.46,1717.958,250.413,1717.6Z" transform="translate(172.091 -1643.917)"/><path class="f" d="M453.974,1722.623a7.272,7.272,0,0,1-.817,2.6c-.3.691-.366,2.045-1.635,1.861-.444-1.612.826-3.2,1.43-4.466Z" transform="translate(-111.557 -1647.073)"/><path class="f" d="M260.989,1733.154a3.887,3.887,0,0,1,1.84,3.722C261.21,1736.726,260.269,1734.222,260.989,1733.154Z" transform="translate(157.224 -1653.697)"/><path class="f" d="M435.925,1737.166h.817c.282,1.162.516,3.792-1.227,3.722C435.163,1739.9,435.724,1738.26,435.925,1737.166Z" transform="translate(-87.992 -1656.221)"/><path class="f" d="M469.066,1741.183a12.309,12.309,0,0,1-1.021,3.534c-.38,1.02-.726,2.69-2.043,2.792-.244-2.221,1.267-4.42,2.043-6.326Z" transform="translate(-132.575 -1658.747)"/><path class="f" d="M418.616,1743.185a1.019,1.019,0,0,0,.613.187c-.126,1.868-.072,3.9-1.838,4.278A6.43,6.43,0,0,1,418.616,1743.185Z" transform="translate(-62.92 -1660.007)"/><path class="f" d="M207.105,1744.19h.409c1.244.152,1.315,1.652,1.634,2.418a194.307,194.307,0,0,1,11.441,40.379c.183,1.021.49,2.233.612,3.351.091.815.737,2.279-.612,2.79-1.01-.453-.665-2.1-.818-3.163a165.414,165.414,0,0,0-4.9-21.956,214.5,214.5,0,0,0-7.765-23.261Z" transform="translate(220.506 -1660.639)"/><path class="f" d="M748.063,1752.213c.944,1.7.191,4.04-.2,6.141-.921,4.918-1.555,10.467-2.859,15.63-.2.783-.212,2.273-1.634,2.047-1.25-.518-.33-1.871-.2-2.606,1.1-6.523,2.571-14.2,3.882-20.654.071-.245.36-.293.409-.559Z" transform="translate(-524.757 -1665.685)"/><path class="f" d="M449.448,1755.892c-.649,1.516-.508,3.755-2.453,4.093-.42-1.468.985-2.8,1.227-4.279A1.863,1.863,0,0,1,449.448,1755.892Z" transform="translate(-105.193 -1667.875)"/><path class="f" d="M252.074,1760.742c.532,1.066.121,2.8.2,4.465.093,1.879.7,3.838,0,5.024-1.195-.166-1.134-1.562-1.226-2.6-.166-1.9.127-4.448,0-6.327a1.3,1.3,0,0,0,.408-.557Z" transform="translate(171.452 -1671.05)"/><path class="f" d="M483.914,1768.92a10.086,10.086,0,0,1-1.633,2.79c-.49.762-.876,2.254-2.249,2.232-.182-2.044,1.777-3.7,2.862-5.209A1.417,1.417,0,0,1,483.914,1768.92Z" transform="translate(-153.144 -1676.064)"/><path class="f" d="M239.7,1771.271c.217,1.706.59,5.111-.2,6.513-1.691-.7-.429-4.077-.819-5.955-.113-.413.39-.264.409-.558Z" transform="translate(189.137 -1677.672)"/><path class="f" d="M429.63,1772.438c-.521,1.387-.525,3.245-2.247,3.535C427.188,1774.8,428.028,1771.383,429.63,1772.438Z" transform="translate(-77.407 -1678.281)"/><path class="f" d="M445.17,1776.473c-.733,1.875-.827,4.332-3.268,4.653a11.485,11.485,0,0,1,2.656-4.839A1.022,1.022,0,0,0,445.17,1776.473Z" transform="translate(-98.871 -1680.827)"/><path class="f" d="M470.247,1781.807c.3.095.514.275.817.371-.484,1.206-1.06,2.626-1.634,3.908-.5,1.1-.9,2.839-2.452,2.977,0-2.43,1.892-4.72,2.861-6.885C469.887,1781.976,470.244,1782.051,470.247,1781.807Z" transform="translate(-134.981 -1684.299)"/><path class="f" d="M792.387,1801.465c-2.009.825-4.027-.638-5.924-1.3-3.757-1.316-7.885-2.459-12.055-3.536-1.887-.486-4.556-.452-5.516-2.232.385-.021.141-.616.613-.557a116.509,116.509,0,0,1,20.839,5.954C791.118,1800.1,792.505,1800.373,792.387,1801.465Z" transform="translate(-579.296 -1691.864)"/><path class="f" d="M503.427,1799.86c.348,1.03-.6,2.4-1.023,3.722-.4,1.249-.3,3.174-1.633,3.164-.922-.671.115-2.279.409-3.164.358-1.082.664-2.245,1.022-3.164.071-.245.36-.291.408-.558Z" transform="translate(-181.033 -1695.654)"/><path class="f" d="M461.5,1804.2c-.248,1.333-.514,3.4-2.044,2.977C459.645,1805.838,459.846,1803.6,461.5,1804.2Z" transform="translate(-122.35 -1698.324)"/><path class="f" d="M241.052,1803.871c.583,1.081.051,3.748-.2,5.584-.119.852.4,2.4-1.022,2.232a18.355,18.355,0,0,1,.613-7.816Z" transform="translate(187.377 -1698.177)"/><path class="f" d="M491.054,1810.709c-.626,1.725-.413,4.213-2.451,4.651-.357-1.712,1-3.413,1.429-5.023C490.685,1810.177,490.665,1810.628,491.054,1810.709Z" transform="translate(-163.756 -1702.223)"/><path class="f" d="M226.111,1827.445c.382.467.024,1.089,0,1.86-.051,1.619.509,4-.614,4.652-1.345-.734-.266-4-.613-5.768.175.034.194-.072.2-.186-.058-.3.194-.32.2-.558Z" transform="translate(208.448 -1713.005)"/><path class="f" d="M830.978,1827.948c1.537,4.122-6.324,4.181-6.538,7.257-.186,2.667,4.857,3.744,7.151,4.465a43.922,43.922,0,0,0,4.7,1.3c1.667.325,3.384.3,4.9.931-.646,1.594-3.289.681-4.9.37-3.985-.766-12.26-2.671-13.076-5.954-1.095-4.411,4.727-4.255,6.539-6.885.282-.412,0-1.061.611-1.488Z" transform="translate(-650.167 -1713.321)"/><path class="f" d="M283.686,1845.5c.916,1.188-.129,2.653-.612,3.721a22.9,22.9,0,0,1-4.292,6.141c-.79.88-1.341,2.237-2.655,2.42-.673-1.648,1.477-2.563,2.451-3.721a28.213,28.213,0,0,0,4.291-8c-.059-.3.193-.319.2-.558Z" transform="translate(129.828 -1724.361)"/><path class="f" d="M243.252,1852.022c1.108.188.394,2.019.2,2.977-.208,1.049-.21,2.745-1.433,2.606-.529-.825.018-1.991.208-2.978C242.413,1853.675,242.194,1852.262,243.252,1852.022Z" transform="translate(183.951 -1728.464)"/><path class="f" d="M849.454,1869.915c-.543,1.055-2.148.529-3.065.371a24.732,24.732,0,0,1-7.762-2.976v-.559a1.016,1.016,0,0,1,.613-.187c2.4.7,4.726,1.992,7.558,2.606C847.633,1869.351,849.01,1868.933,849.454,1869.915Z" transform="translate(-664.762 -1737.61)"/><path class="f" d="M228.775,1869.578c.478.7-.108,1.658-.2,2.791-.13,1.562.583,3.72-.612,4.466-1-.052-.581-1.444-.613-2.232a12.009,12.009,0,0,1,.409-4.467c-.058-.3.193-.319.2-.557Z" transform="translate(204.761 -1739.506)"/><path class="f" d="M859.836,1873.085a38.861,38.861,0,0,1,7.561,2.792c-.628,1.354-2.692.27-3.884-.187a14.639,14.639,0,0,1-3.677-1.859C859.5,1873.459,859.855,1873.592,859.836,1873.085Z" transform="translate(-691.284 -1741.712)"/><path class="f" d="M260.275,1878.1a28.45,28.45,0,0,1,0,4.838c-.073,1.451-.035,3.272-1.02,3.907-1.2-.134-.433-1.447-.408-2.233a50.163,50.163,0,0,1,.408-5.956c-.058-.3.193-.32.2-.556Z" transform="translate(160.594 -1744.869)"/><path class="f" d="M422.492,1893.448c-.777,1.885-3.175,2.608-4.9,3.536-1.859,1-3.783,1.9-5.721,2.791-11.361,5.2-27.094,8.119-43.925,7.816-22.352-.4-40.293-6.687-53.937-14.7v-.559c.165-.034.2-.185.409-.185,7.428,3.224,15.223,7.477,24.108,9.862a110.429,110.429,0,0,0,29.828,4.28c16.589,0,31.746-2.575,43.314-7.817a77.862,77.862,0,0,0,8.171-4.281C420.461,1893.818,421.517,1892.686,422.492,1893.448Z" transform="translate(-24.095 -1753.701)"/><path class="f" d="M203.631,1892.145h.616c.894,1.322.683,4.385.816,7.072.076,1.509.932,3.585-.613,4.092-.835-.166-.583-1.474-.613-2.232-.1-2.642-.108-5.687-.409-8.373C203.371,1892.4,203.62,1892.383,203.631,1892.145Z" transform="translate(238.077 -1753.701)"/><path class="f" d="M243.448,1897.145c.33-.051.351.177.612.186.338.984-.191,2.54-.408,3.91-.2,1.282.081,3.241-1.635,3.163C242.181,1902.408,242.421,1898.967,243.448,1897.145Z" transform="translate(183.552 -1756.841)"/><path class="f" d="M274.3,1914.717c.378,1.25-.425,2.878-.408,4.465.011,1.112.854,2.438,0,3.164-2.167-.638-.905-4.892-.819-7.071.074-.244.361-.292.409-.557Z" transform="translate(140.848 -1767.898)"/><path class="f" d="M230.175,1914.717a17.139,17.139,0,0,1-.612,4.279c-.264,1.227-.252,3.009-1.839,3.163-.094-2.268,1.088-4.952,1.431-7.442Z" transform="translate(203.361 -1767.898)"/><path class="f" d="M308.008,1931.768c.513.6-.119,1.579-.2,2.6-.108,1.28.594,3.384-1.022,3.349a10.029,10.029,0,0,1,.409-5.954Z" transform="translate(93.249 -1778.623)"/><path class="f" d="M250.772,1932.77c.981-.047.52,1.149.612,1.861.149,1.116.624,2.954-.2,3.534-1.411-.655-1.039-3.867-.818-5.395Z" transform="translate(172.754 -1779.252)"/><path class="f" d="M545.893,1946.468a17.59,17.59,0,0,1-1.634,3.163c-.428.884-.529,2.609-2.044,2.606-.114-2.164,1.519-4.312,2.656-5.955A1.431,1.431,0,0,1,545.893,1946.468Z" transform="translate(-240.456 -1787.74)"/><path class="f" d="M341.913,1948.32h.818c.52,1.607.248,5.332-1.634,5.954C340.72,1952.421,341.858,1950.392,341.913,1948.32Z" transform="translate(44.429 -1789.034)"/><path class="f" d="M212.659,1950.327c1.116.526.6,1.982.616,2.791A157.6,157.6,0,0,1,209.8,1985.5c-.348,1.731-.765,3.67-1.228,5.4-.374,1.4-.583,3.7-2.451,4.094-.506-.668,0-1.57.2-2.232a114.48,114.48,0,0,0,3.881-18.422,188.649,188.649,0,0,0,1.838-23.447.826.826,0,0,0,.2-.557Z" transform="translate(229.049 -1790.296)"/><path class="f" d="M282.376,1951.816c.33-.052.351.175.613.186-.138,1.751-.058,5.27-2.042,5.955A11.692,11.692,0,0,1,282.376,1951.816Z" transform="translate(128.891 -1791.228)"/><path class="f" d="M231.3,1954.008c.215.89-.5,2.206-.816,3.536-.273,1.161-.132,3.124-1.839,2.978.231-1.935.585-5.271,2.043-6.7C231.021,1953.77,231.041,1954,231.3,1954.008Z" transform="translate(201.826 -1792.489)"/><path class="f" d="M518.63,1956.337c.47.95-.708,2.1-1.227,3.164-.449.929-.625,2.718-2.042,2.233a7.436,7.436,0,0,1,1.227-3.163C516.981,1957.765,517.169,1956.254,518.63,1956.337Z" transform="translate(-202.364 -1794.074)"/><path class="f" d="M260.336,1958.85c.407.636.3,2.31.2,3.722-.074,1.079.055,2.907-1.224,2.791a14.65,14.65,0,0,1,.408-6.513Z" transform="translate(160.125 -1795.657)"/><path class="f" d="M490.3,1964.87c.11,1.55-.285,4.19-2.248,4.466-.333-1.51,1.127-2.923,1.431-4.466Z" transform="translate(-162.796 -1799.444)"/><path class="f" d="M390.051,1965.373c.126,1.075-.475,2.788-.818,4.28-.3,1.3-.23,3.464-2.043,3.349a45.693,45.693,0,0,1,1.84-7.629Z" transform="translate(-21.484 -1799.76)"/><path class="f" d="M410.946,1966.374c.409,1.253-.185,2.912-.2,4.467-.013.905.716,2.04-.2,2.605-1.337,0-1.1-2.264-1.022-3.723a5.861,5.861,0,0,1,.818-3.349Z" transform="translate(-51.572 -1800.389)"/><path class="f" d="M436.9,1971.377c.33-.052.352.176.613.187.163.993.248,3.421-.408,4.279C435.285,1975.586,436.389,1972.316,436.9,1971.377Z" transform="translate(-88.968 -1803.532)"/><path class="f" d="M360.672,1972.391c.335,1-.138,2.331-.408,3.536-.249,1.11-.264,2.662-1.227,3.164-1.258-.49-.416-2-.2-2.978a21.762,21.762,0,0,1,.818-3.162c-.057-.3.194-.321.2-.56Z" transform="translate(19.541 -1804.174)"/><path class="f" d="M458.62,1973.9c.574,1.067-.536,2.151-1.02,3.162-.426.888-.565,2.676-2.043,2.605-.109-2.039,1.386-4.184,2.452-5.768Z" transform="translate(-118.043 -1805.123)"/><path class="f" d="M307.385,1973.9a17.37,17.37,0,0,1-.409,4.279c-.271,1.24-.529,3.047-2.043,2.976.051-1.917,1.024-4.5,1.43-6.7-.058-.3.193-.32.2-.557Z" transform="translate(94.688 -1805.123)"/><path class="f" d="M537.482,1976.22c-.406.954-.99,2.044-1.428,3.164-.378.96-.34,2.624-1.84,2.6-.233-2.211,1.119-4.553,2.248-6.14C537.114,1975.689,537.094,1976.14,537.482,1976.22Z" transform="translate(-228.777 -1806.327)"/><path class="f" d="M329.385,1977.408c.03,2.148-.186,5.65-2.043,6.7-.667-.615-.052-1.79.2-2.791.361-1.415.518-2.968,1.226-3.908Z" transform="translate(63.698 -1807.33)"/><path class="f" d="M280.144,1981.922h.817c-.071,1.884,1.24,4.781.2,5.768C279.633,1986.961,279.823,1983.724,280.144,1981.922Z" transform="translate(130.715 -1810.169)"/><path class="f" d="M483.332,1986.592c-.638,1.526-.265,3.975-2.247,4.279-.33-1.446.731-3.158,1.226-4.465A1.412,1.412,0,0,1,483.332,1986.592Z" transform="translate(-152.97 -1812.977)"/><path class="f" d="M224.358,1986.439a1.027,1.027,0,0,0,.613.186c-.172.994-.084,3.369-.613,4.652-.276.665-.686,1.517-1.636,1.3C222.938,1990.931,223.2,1987.837,224.358,1986.439Z" transform="translate(210.609 -1813.01)"/><path class="f" d="M512.354,1990.45c.391.776-.086,1.994-.407,2.977-.246.746-.373,2.285-1.634,2.046-.319-1.616.776-3.491,1.225-5.023Z" transform="translate(-194.047 -1815.533)"/><path class="f" d="M432.01,1996.971c.688,1.433.515,4.8-.408,5.954-1.4-.155-.452-2.784-.409-4.281.017-.571-.476-1.27.2-1.673Z" transform="translate(-81.626 -1819.635)"/><path class="f" d="M252.972,1997.974c.365,1.122-.444,2.625-.817,3.907s-.4,3.049-1.839,3.35c-.582-.858.068-2.167.41-3.35a18.427,18.427,0,0,1,1.225-3.349c-.059-.3.194-.322.2-.558Z" transform="translate(171.371 -1820.266)"/><path class="f" d="M377.853,2000.481c1.068.879.8,3.79.817,5.023C376.752,2005.518,376.878,2001.313,377.853,2000.481Z" transform="translate(-6.016 -1821.842)"/><path class="f" d="M410.436,2002.988h.818c.293,1.473.279,4.2-.614,5.21C409.118,2007.611,410.344,2004.432,410.436,2002.988Z" transform="translate(-52.084 -1823.419)"/><path class="f" d="M355.254,2004.987c.312,1.734.277,4.7-.818,5.769-1.272.066-.5-1.283-.409-2.233C354.152,2007.284,353.775,2004.883,355.254,2004.987Z" transform="translate(26.798 -1824.675)"/><path class="f" d="M470.359,2006.5a7.421,7.421,0,0,1-.613,3.164c-.311.906-.589,2.377-1.838,2.232-.211-1.761.9-3.874,1.634-5.4Z" transform="translate(-134.684 -1825.626)"/><path class="f" d="M321.6,2011.516a43.966,43.966,0,0,1-.409,6.14c-2.271-.582-.758-4.573-.409-6.14Z" transform="translate(74.344 -1828.783)"/><path class="f" d="M450.814,2014.019c-.026,1.172-.23,3.584-1.84,3.909C448.8,2016.625,448.933,2014.066,450.814,2014.019Z" transform="translate(-107.375 -1830.358)"/><path class="f" d="M290.095,2016.028c.418.8-.157,1.832-.2,2.977-.042,1.054.554,2.383-.2,2.977-1.932-.556-.9-4.712-.41-5.954Z" transform="translate(118.516 -1831.621)"/><path class="f" d="M493.09,2017.687c-.718,1.764-.5,4.383-2.451,5.024-.423-1.833.794-3.724,1.43-5.209A1.428,1.428,0,0,1,493.09,2017.687Z" transform="translate(-166.609 -1832.536)"/><path class="f" d="M241.437,2025.559c.047,1.857-.259,4.963-1.43,6.326-1.427-.156-.394-1.657-.2-2.605.23-1.141.124-2.415.613-3.164-.057-.3.193-.32.2-.556Z" transform="translate(187.401 -1837.616)"/><path class="f" d="M397.848,2028.066c.262,1.663-.583,4.3-.408,5.954-2.425.018-.8-4.6-.409-5.954Z" transform="translate(-32.958 -1839.193)"/><path class="f" d="M339.991,2029.067h.818c.534.95.065,2.266,0,3.537-.057,1.148.5,2.773-.613,3.163-1.02-.551-.7-2.472-.613-3.908a8.313,8.313,0,0,0,.2-2.233C339.73,2029.326,339.981,2029.306,339.991,2029.067Z" transform="translate(46.963 -1839.823)"/><path class="f" d="M227.883,2031.074c-.035,1.1.156,3.8-.818,4.652C225.689,2035.192,226.069,2031.042,227.883,2031.074Z" transform="translate(206.266 -1841.085)"/><path class="f" d="M427.419,2033.082h.818a8.27,8.27,0,0,1-.408,4.837C426.1,2037.5,427.33,2034.23,427.419,2033.082Z" transform="translate(-76.013 -1842.348)"/><path class="f" d="M264.321,2033.543c.848.5.29,1.581.41,2.419.152,1.072.952,2.311.407,3.163-1,.141-1.464-1.23-1.633-2.418C263.329,2035.484,263.216,2033.271,264.321,2033.543Z" transform="translate(153.688 -1842.624)"/><path class="f" d="M366.787,2034.084a51.843,51.843,0,0,1,0,5.954c-2.125-.309-1.152-4.528-.818-5.954Z" transform="translate(10.566 -1842.978)"/><path class="f" d="M469.4,2036.593c-.09,1.4-.134,4.3-1.43,5.21-.723-.212-.444-1.278-.409-1.861a7.077,7.077,0,0,1,.818-2.791c-.057-.3.193-.321.2-.558Z" transform="translate(-133.522 -1844.557)"/><path class="f" d="M447.548,2038.6h.611c.347.864.772,4.378-1.431,4.093A17.554,17.554,0,0,1,447.548,2038.6Z" transform="translate(-104.109 -1845.819)"/><path class="f" d="M295.75,2043.111h.611c.656,2.037.82,6.645-.407,8.188-1.335-.615-.471-3.171-.409-5.025.035-1.054-.317-1.912,0-2.6C295.488,2043.368,295.739,2043.349,295.75,2043.111Z" transform="translate(109.184 -1848.656)"/><path class="f" d="M312.669,2043.612c1.2.283.257,1.93.2,2.977-.049.981.415,1.779,0,2.42C310.709,2048.946,311.5,2044.1,312.669,2043.612Z" transform="translate(86.136 -1848.971)"/><path class="f" d="M415.708,2051.138c.541.956-.159,2.341-.409,3.534-.221,1.057.1,2.831-1.431,2.792a12.793,12.793,0,0,1,1.226-6.326Z" transform="translate(-58.172 -1853.705)"/><path class="f" d="M391.8,2057.156c.139,1.333.5,4.4-1.227,4.652C390.385,2060.432,390.091,2057.421,391.8,2057.156Z" transform="translate(-24.659 -1857.49)"/><path class="f" d="M944.285,2064.084c-.177,1.363-1.591,1.48-2.452,2.233a85.133,85.133,0,0,0-6.946,7.443c-4.495,5.045-9.105,9.966-13.689,15.073a56.29,56.29,0,0,1-5.517,5.21c-.546.458-1.317,1.478-2.246.931-.407-1,.849-1.508,1.431-2.048,1.86-1.729,3.885-3.52,5.719-5.582,5.7-6.411,11.886-13.222,18.183-19.539C940.234,2066.336,941.837,2063.615,944.285,2064.084Z" transform="translate(-790.034 -1861.814)"/><path class="f" d="M245.907,2067.188c-.16,2.088.145,4.6-.613,6.139-2.011-.218-.385-4.632-.411-6.139Z" transform="translate(180.889 -1863.8)"/><path class="f" d="M266.144,2068.189c-.1,1.689.3,4.394.2,5.954-2.227-.137-1.509-4.542-1.022-5.954Z" transform="translate(152.069 -1864.43)"/><path class="f" d="M359.827,2068.864c.76.183.389,1.19.408,1.862a24.608,24.608,0,0,1,0,4.28c-1.9.282-1.389-4.954-.817-6.327C359.656,2068.649,359.781,2068.721,359.827,2068.864Z" transform="translate(19.773 -1864.734)"/><path class="f" d="M329.183,2074.208c.881.173.713,1.578.818,2.419a5.607,5.607,0,0,1,0,2.792c-1.673.253-1.508-3.821-1.228-5.211Z" transform="translate(62.267 -1868.216)"/><path class="f" d="M289.229,2078.223h.408c1.036.405.587,2.548.612,3.907.017.844.57,1.818-.2,2.047C288.221,2083.713,289.15,2079.8,289.229,2078.223Z" transform="translate(118.157 -1870.741)"/><path class="f" d="M1049,2132.448c-.523-.841.323-1.73.614-2.419a31.6,31.6,0,0,0,2.247-7.816c.731-5.741-.981-12.154-2.657-18.051-2.183-7.685-4.7-13.532-9.807-17.677v-.558a1.04,1.04,0,0,1,.615-.186c4.376,2.332,6.935,7.709,8.988,13.213,2.591,6.944,5.053,14.114,4.293,23.259a32.575,32.575,0,0,1-1.431,5.769C1051.371,2129.709,1051.1,2132.1,1049,2132.448Z" transform="translate(-950.526 -1875.47)"/><path class="f" d="M1204.934,2109.164c-.394,1.128-1.865.2-2.657.185-1.787-.038-3.685.1-5.515.188-10.368.47-18.39,5.378-26.969,8.745-2.213.868-4.286,1.633-6.335,2.605-4.891,2.324-10.526,4.1-15.526,6.7-.844.439-1.737,1.479-2.861,1.117.129-2,2.659-2.35,4.087-2.977,11.113-4.885,22.966-10.467,34.936-14.886a98.121,98.121,0,0,1-12.667-6.886c-1.191-.76-2.965-1.344-3.473-2.792.166-.034.2-.186.407-.185.165-.036.2-.187.409-.185,3.375,1.982,7.924,5.021,12.055,7.072,1.795.888,3.711,2.173,6.129,2.045a39.562,39.562,0,0,0,4.29-.931,55.621,55.621,0,0,1,9.4-.928C1201.907,2108.018,1204.433,2107.458,1204.934,2109.164Z" transform="translate(-1145.071 -1884.936)"/><path class="f" d="M589.353,2171.779c-.192-1.261,1.455-1.4,2.247-1.674a376.324,376.324,0,0,1,42.5-11.909c1.275-.276,4.236-1.547,4.493,0,.247,1.477-4.744,1.766-5.923,2.046-12.813,3.032-25.322,6.645-37.389,10.421C593.467,2171.23,591.386,2172.548,589.353,2171.779Z" transform="translate(-352.358 -1920.57)"/><path class="f" d="M758.3,2189.656c-1.329.644-2.047-.7-2.655-1.3a394.342,394.342,0,0,0-30.849-27.726c-.6-.476-1.886-1.232-1.431-2.234.271.028.76-.625.815-.185a81.543,81.543,0,0,1,9.6,7.257,267.031,267.031,0,0,1,23.291,21.771C757.655,2187.846,759.022,2188.544,758.3,2189.656Z" transform="translate(-526.822 -1920.955)"/><path class="f" d="M817.6,2212.135c-.756,1.7-3.538,1.733-5.518,2.232-12.06,3.043-24.341,6.5-35.14,10.979-1.694.7-3.478,2-5.515,1.675-.143-1.821,2.814-2.568,4.289-3.164a237.557,237.557,0,0,1,27.992-9.117c4.111-1.082,8.2-1.815,11.849-2.978C816.062,2211.6,817.224,2211.218,817.6,2212.135Z" transform="translate(-605.526 -1954.599)"/></g><g transform="translate(228.295 1474.818)"><path class="l" d="M421.043,1486.29c.747-.046,2.966-.45,2.656,1.674-.268,1.831-4.272,1.71-6.13,2.606-1.974.955-3.419,3.634-5.72,2.977a3.6,3.6,0,0,1-1.022-.93c-.7-1.873,2.626-3.655,3.678-4.279A14.359,14.359,0,0,1,421.043,1486.29Z" transform="translate(-62.032 -1486.23)"/><path class="l" d="M471.107,1513.305c1.247-.067,5.72-.662,5.106,2.046-.331,1.463-3.185,1.05-4.494,1.117-4.078.206-8.318,1.7-10.215,4.653-.545.845-.757,3.4-3.064,3.163-4.265-.432,1.04-6.847,2.248-7.815C463.05,1514.573,466.924,1513.529,471.107,1513.305Z" transform="translate(-133.343 -1503.196)"/><path class="l" d="M1008.941,1540.716c4.68-.6,7.617.164,9.194,1.861,1.655,1.78,2.171,5.557-.818,5.211-1.921-.223-1.345-2.448-2.656-3.35-1.394-.959-4.731-.722-6.334-.373-.846.185-4.323,2.387-4.9,0C1002.836,1541.646,1007.146,1540.947,1008.941,1540.716Z" transform="translate(-899.182 -1520.374)"/><path class="l" d="M438.016,1642.955c4.074-.693,7.684-1.808,10.01-4.094.724,3.37-1.185,6.649-4.494,6.886A6.212,6.212,0,0,1,438.016,1642.955Z" transform="translate(-97.596 -1582.233)"/><path class="l" d="M1005.213,1657.922c1.12,2.889-1.593,6.869-4.7,7.072-3.073.2-5.232-2.439-6.539-4.652a11.621,11.621,0,0,0,10.624-2.419Z" transform="translate(-881.357 -1594.222)"/><path class="l" d="M1148.476,1694.995c1.145-.11,1.873.141,2.042,1.116.282,1.587-2.743,3.136-4.085,3.907-1.8,1.034-3.66,1.686-5.313,2.791-1.983,1.33-2.767,1.976-4.7,3.35-1.276.911-3.3,3.381-5.312,2.792-.292-.085-1.018-.923-1.022-.932-.656-1.652,1.908-3.15,3.473-4.28a92.375,92.375,0,0,1,9.4-5.954,53.909,53.909,0,0,1,5.107-2.79C1148.172,1694.954,1148.364,1695.006,1148.476,1694.995Z" transform="translate(-1081.827 -1617.525)"/><path class="l" d="M328.52,1715.641a.562.562,0,0,0-.612-.373c-.959-1.475.183-3.234,1.227-4.651,2.884-3.922,7.808-8.128,13.688-8.745,2.152-.227,5.316-.289,5.311,1.675,0,2.125-1.8,1.216-4.7,1.488-5.235.489-9.123,5.158-11.647,8.558C331.069,1714.564,330.639,1716.132,328.52,1715.641Z" transform="translate(47.448 -1621.795)"/><path class="l" d="M987.92,1720.875c-1.653.587-3.438-.73-4.9-1.489-1.581-.818-3.14-1.819-4.495-2.606.6-2.569,3.852.14,5.72,1.118C986.035,1718.835,988.136,1719.335,987.92,1720.875Z" transform="translate(-857.527 -1630.566)"/><path class="l" d="M971.119,1745.509c-.262,1.78-1.576,3.293-2.451,4.839-.779,1.373-1.3,3.716-3.475,3.907-.658-1.347.675-3.151,1.431-4.465.972-1.691,2.082-3.184,3.066-4.652A1.64,1.64,0,0,1,971.119,1745.509Z" transform="translate(-835.209 -1649.059)"/><path class="l" d="M1164.317,1748.068c-.564,1.8-2.281,3.266-3.473,4.838-.551.725-1.23,1.63-1.84,2.419-.532.687-.918,2.009-2.247,1.488-.675-1.442,1.053-3.136,2.247-4.651a37.436,37.436,0,0,1,3.27-4.094A1.6,1.6,0,0,1,1164.317,1748.068Z" transform="translate(-1106.451 -1650.688)"/><path class="l" d="M1129.575,1773.334a50.9,50.9,0,0,1-2.657,5.955c-.718,1.385-1.828,4.723-3.881,3.908-.28-1.718,1.246-3.108,2.042-4.653.919-1.783,1.642-3.958,2.86-5.4.052-.2.408-.128.409-.372C1128.97,1772.768,1129.144,1773.17,1129.575,1773.334Z" transform="translate(-1058.022 -1666.464)"/><path class="l" d="M1185.44,1785.351c-1.829-.048-2.511-1.668-3.472-2.607-1.423-1.385-3.2-2.392-4.7-3.72v-.931c2.056-.684,4.122,1.77,5.721,3.164C1184.432,1782.515,1186.706,1784.059,1185.44,1785.351Z" transform="translate(-1136.361 -1669.734)"/><path class="l" d="M985,1789.895c-1.708,1.044-2.937-.832-3.881-1.675-1.1-.982-2.657-1.924-3.063-3.163.275-.182.264-.627.611-.744,1.554.088,2.551,1.578,3.677,2.6C983.351,1787.83,985,1788.56,985,1789.895Z" transform="translate(-854.407 -1673.721)"/><path class="l" d="M961.595,1796.907c-.423,1.8-1.713,3.476-2.655,5.024-.855,1.4-1.558,3.687-3.883,3.721-.427-1.519,1.125-3.2,2.042-4.652a19.212,19.212,0,0,1,3.473-4.652A5.488,5.488,0,0,1,961.595,1796.907Z" transform="translate(-821.599 -1681.29)"/><path class="l" d="M1067.936,1807.278c-2.024-.271-3.162-2.254-4.293-3.535a28.266,28.266,0,0,1-3.473-4.281c1.633-1.908,3.775,1.849,5.107,3.35C1066.763,1804.485,1068.953,1805.826,1067.936,1807.278Z" transform="translate(-971.047 -1682.917)"/><path class="l" d="M431.969,1820.262c-.785-1.85,3.3-3.475,4.7-4.093a1.836,1.836,0,0,1,2.451,1.675C439.086,1819.21,433.1,1822.633,431.969,1820.262Z" transform="translate(-86.033 -1693.667)"/><path class="l" d="M1033.551,1823.6c.165,1.948-1.7,3.676-2.859,5.4-.551.818-1.02,1.9-1.634,2.792-.451.656-1.13,2.04-2.249,1.674-1.47-.693.061-1.844.408-2.417,1.407-2.323,3.27-4.947,4.7-7.259.05-.2.408-.127.409-.371A1.871,1.871,0,0,1,1033.551,1823.6Z" transform="translate(-922.568 -1698.308)"/><path class="l" d="M1154.913,1832.764c-1.727.91-3.119-.9-4.087-1.861-.568-.565-1.041-1.121-1.633-1.675s-1.12-1.135-1.635-1.674c.833-2.888,3.188.572,4.493,1.861C1153.4,1830.741,1155.055,1831.436,1154.913,1832.764Z" transform="translate(-1093.37 -1700.214)"/><path class="l" d="M463.856,1837.536c-1.737-2.437,2.565-3.206,5.311-4.094,1.241-.4,2.414-.637,3.473-.931,1.749-.482,5.935-1.929,6.129.559.183,2.356-4.751,2.568-6.947,3.164C469.1,1836.972,466.525,1838.486,463.856,1837.536Z" transform="translate(-138.555 -1703.498)"/><path class="l" d="M1194.929,1839.717c-1.224.282-1.548-.886-2.451-1.675-2-1.749-6.55-3.456-5.311-5.583,1.532.181,3.468,1.972,5.108,3.164C1193.8,1836.734,1196.058,1838,1194.929,1839.717Z" transform="translate(-1149.732 -1704.004)"/><path class="l" d="M994.569,1841.344c-1.822.444-2.656-1.577-3.473-2.6a12.364,12.364,0,0,1-2.453-3.722c1.384-1.817,2.794,1.222,3.883,2.6C993.649,1839.048,995.3,1840.153,994.569,1841.344Z" transform="translate(-868.466 -1705.259)"/><path class="l" d="M537.89,1840.887c1.081.071,2.383.085,2.453,1.489.136,2.788-5.474,2.106-8.786,2.233-2.4.092-5.7.186-8.786.186-3.128,0-7.15.433-7.15-1.675,0-2.667,8.421-1.579,10.624-1.675C530.485,1841.261,534.009,1840.636,537.89,1840.887Z" transform="translate(-221.374 -1709.268)"/><path class="l" d="M1115.1,1862.053c1.506.968,1.908,3.157,2.862,4.838.875,1.545,2.654,3.007,2.245,4.839-1.843.141-2.871-1.943-3.88-3.722C1115.3,1866.207,1113.2,1863.02,1115.1,1862.053Z" transform="translate(-1045.18 -1722.618)"/><path class="l" d="M1166.664,1864.728c.358,2.083-1.394,4.228-2.452,6.139-.445.81-.858,2.114-1.429,2.978-.536.812-1.335,2.048-2.657,1.489-.418-.936.338-2.006.818-2.791,1.519-2.494,3.183-5.291,4.494-8A1.877,1.877,0,0,1,1166.664,1864.728Z" transform="translate(-1110.23 -1724.176)"/><path class="l" d="M1037.954,1876.6c1.307.427,1.912,1.992,2.861,2.977.879.917,2.762,1.82,1.838,3.164-1,.477-2.2-.92-3.269-2.046C1038.226,1879.473,1035.885,1877.49,1037.954,1876.6Z" transform="translate(-936.368 -1731.765)"/><path class="l" d="M1077.515,1879.347c-.98,1.754-2.911,2.639-4.292,4.094-1,1.057-1.6,3.107-3.677,3.163-.837-1.425,1.036-3.007,2.247-4.279a19.318,19.318,0,0,1,4.5-3.722C1076.982,1878.594,1077.175,1879.037,1077.515,1879.347Z" transform="translate(-984.101 -1733.027)"/><path class="l" d="M1200.308,1891.944c-1.4.4-2.225-1.028-2.859-1.861-1.4-1.834-2.521-3.715-4.087-5.581-.715-.853-1.95-1.773-1.839-2.978.166-.035.205-.187.408-.187.165-.128.561-.289.614,0,2.049.929,3.369,3.191,4.7,5.024.633.875,1.382,1.893,2.044,2.792C1199.859,1889.928,1201.174,1890.934,1200.308,1891.944Z" transform="translate(-1156.95 -1734.645)"/><path class="l" d="M1001.144,1900.488c-.459,2.044-2.138,3.665-3.268,5.4-.5.769-1.049,1.755-1.636,2.6-.519.757-1.036,2.1-2.45,1.861-.8-1.8,1.216-3.464,2.248-5.023a45.062,45.062,0,0,1,3.677-5.211A1.642,1.642,0,0,1,1001.144,1900.488Z" transform="translate(-876.88 -1746.539)"/><path class="l" d="M1045.1,1902.852c.42,1.126-.8,2.011-1.431,2.977-1.223,1.87-2.111,3.859-3.472,5.768-.586.822-1.36,2.152-2.655,1.675-.191-1.9,1.44-3.644,2.45-5.211,1.221-1.895,2.421-3.664,3.677-5.4C1044.215,1902.667,1044.84,1902.6,1045.1,1902.852Z" transform="translate(-938.818 -1748.157)"/><path class="l" d="M1141.1,1904.5c.1,1.132-1.078,1.946-1.839,2.792-1.41,1.564-2.492,3.187-4.088,4.838-.662.687-1.581,1.832-2.655.744a13.425,13.425,0,0,1,3.065-4.465c1.291-1.477,2.757-2.8,4.087-4.28A1.649,1.649,0,0,1,1141.1,1904.5Z" transform="translate(-1073.427 -1749.063)"/><path class="l" d="M1254.475,1922.092c1.266-.2,2.405-.135,2.453,1.3.052,1.607-2.208,2.2-2.658,2.606-3.842,3.43-7.244,9.314-9.193,15.63-.6,1.938-.708,5.249-2.656,5.4-3.238.245-1.906-3.963-1.021-6.7a34.523,34.523,0,0,1,7.15-13.212C1250.132,1925.257,1252.161,1922.467,1254.475,1922.092Z" transform="translate(-1233.181 -1760.329)"/><path class="l" d="M1092.745,1928.384c-1.676.5-3.153-.875-4.495-1.489-1.385-.634-3.231-.913-3.881-2.233-.086-.637.611-.56.817-.93.239-.03.363.041.408.186,1.308.589,2.914,1.055,4.291,1.674C1091.073,1926.126,1092.906,1926.7,1092.745,1928.384Z" transform="translate(-1005.46 -1761.409)"/><path class="l" d="M955.846,1933.272c1.029.289.463,2.186.409,2.977-.094,1.35.092,8.883-2.044,8.56-1.39-.209-.409-2.858-.2-4.652.3-2.61.255-4.967.817-6.512.051-.2.408-.127.411-.373Z" transform="translate(-815.85 -1767.414)"/><path class="l" d="M1040.174,1940.11c-.285,1.475-1.786,2.921-2.859,4.094-.939,1.022-2.317,3-4.088,2.047.2-1.558,1.728-2.362,2.656-3.349.986-1.048,1.82-2.152,2.859-3.164A1.645,1.645,0,0,1,1040.174,1940.11Z" transform="translate(-932.05 -1771.461)"/><path class="l" d="M1243.818,1947.559a17.255,17.255,0,0,1-2.657,3.721c-.849,1.007-1.775,2.617-3.471,2.792-1.059-1.219.66-2.616,1.632-3.722,1.158-1.314,2.218-2.9,3.475-3.535C1243.3,1946.911,1243.524,1947.268,1243.818,1947.559Z" transform="translate(-1218.846 -1775.932)"/><path class="l" d="M1120.676,1960.778c-1.074.493-2-.55-2.656-1.116-.768-.662-1.469-1.251-2.248-1.861-1.532-1.2-3.158-2.287-4.5-3.536-.029-.463.321-.577.409-.931,2.058.029,3.85,1.851,5.518,3.163C1118.749,1957.714,1121.228,1958.889,1120.676,1960.778Z" transform="translate(-1044.423 -1780.032)"/><path class="l" d="M1208.192,1959.671c-.3,1.684-1.722,2.966-2.657,4.28-.834,1.173-1.508,3.187-3.473,3.348-1.052-1.428.8-2.746,1.634-3.906a29.2,29.2,0,0,1,3.066-4.094A1.64,1.64,0,0,1,1208.192,1959.671Z" transform="translate(-1168.714 -1783.764)"/><path class="l" d="M986.943,1969.054c.49,1.4-1.194,1.7-2.043,2.234s-1.75,1.188-2.45,1.675c-1.463,1.018-3.04,3.506-5.11,2.606.145-1.821,2.164-2.634,3.473-3.536,1.553-1.068,2.976-2.161,4.5-3.163C985.9,1968.891,986.646,1968.768,986.943,1969.054Z" transform="translate(-856.142 -1789.799)"/><path class="l" d="M1154.014,1986.94c.8,1.186.027,3.239-.408,4.652-.418,1.359-.874,3.287-2.451,3.349-.005-.18-.25-.145-.41-.186-.03-2.357,1.36-4.94,2.043-7.258.073-.245.361-.293.409-.558Z" transform="translate(-1094.107 -1801.17)"/><path class="l" d="M1242.577,1995.214c-1.55.71-3.833-.551-6.13-1.674-.8-.392-5.133-2.227-5.108-3.35a1.7,1.7,0,0,1,.409-.744c1.937.237,3.911,1.619,5.924,2.6C1239.513,1992.952,1242.354,1993.308,1242.577,1995.214Z" transform="translate(-1215.153 -1802.747)"/><path class="l" d="M1015.24,1994.462c.706,1.676.663,4.02.818,6.513.113,1.823.892,3.932-.2,5.024-2.03.046-1.533-2.38-1.635-4.466-.112-2.3-.642-5.3-.409-6.513-.058-.3.193-.32.2-.558Z" transform="translate(-900.374 -1805.901)"/><path class="l" d="M1189.447,2005.9c-1.356.242-2.22-.993-2.86-1.674-.719-.766-1.354-1.558-2.044-2.233-1.461-1.433-3.005-2.677-4.494-4.093-.087-.637.611-.56.817-.93,1.824.538,3.918,2.316,5.516,3.907C1187.761,2002.25,1189.879,2004.055,1189.447,2005.9Z" transform="translate(-1141.185 -1807.48)"/><path class="l" d="M1052.211,2008.946c-1.346.671-2.184-.62-2.861-1.3a57.448,57.448,0,0,1-6.127-7.071c1.015-2.015,2.2.111,3.268,1.3.819.912,1.631,1.571,2.246,2.235C1050.442,2005.95,1052.409,2007.356,1052.211,2008.946Z" transform="translate(-948.173 -1809.221)"/><path class="l" d="M969.94,2000.591c-.359,2.308-5.4,2.1-8.376,2.234-1.24.057-2.866.585-3.064-.746.205-1.238,1.967-.815,3.268-.929a44.645,44.645,0,0,0,6.335-.745C968.535,2000.28,969.39,1999.613,969.94,2000.591Z" transform="translate(-831.376 -1809.427)"/><path class="l" d="M868.022,2013.276c-2.017,1.525-4.242-.514-6.129-1.3-2.046-.855-4.429-1.681-6.539-2.42-4.576-1.6-9.243-3.41-13.483-4.28-1.244-.255-3.526.126-3.883-1.117a1.365,1.365,0,0,1,1.43-1.674,36.018,36.018,0,0,1,8.378,1.674,121.4,121.4,0,0,1,18.183,6.514C867.127,2011.222,868.424,2011.894,868.022,2013.276Z" transform="translate(-680.423 -1810.946)"/><path class="l" d="M1120.567,2013.52c-1.934.3-3.361-1.455-4.9-3.164-.63-.7-1.222-1.715-1.839-2.419s-3.184-2.536-1.022-2.978c1.058-.216,2.04,1.385,2.451,1.861.751.867,1.353,1.7,1.84,2.233C1118.623,2010.716,1120.717,2011.517,1120.567,2013.52Z" transform="translate(-1044.52 -1812.492)"/><path class="l" d="M1288.966,2018.982c.706,2.034-1.007,4.107-1.635,6.512a30.8,30.8,0,0,0-.818,7.815c.021,1.732.443,3.445-1.226,3.722-3.581.595-2.743-6.023-2.247-9.118.381-2.374,1.966-9.061,3.883-9.489A2.062,2.062,0,0,1,1288.966,2018.982Z" transform="translate(-1282.586 -1820.932)"/><path class="l" d="M1089.868,2020.057c-.5,1.627-2.051,2.777-3.062,4.094-.922,1.2-1.592,3.221-3.68,3.351-.9-1.43.929-2.754,1.84-3.908a30.229,30.229,0,0,1,3.473-4.094A1.429,1.429,0,0,1,1089.868,2020.057Z" transform="translate(-1001.971 -1821.635)"/><path class="l" d="M1158.731,2034.642c-.377,1.6-2.774,2.514-4.291,3.35-1.488.82-3.335,2.26-5.311,1.861-.4-1.68,2.066-2.237,3.472-2.977,1.7-.9,3.442-1.941,4.9-2.791A1.726,1.726,0,0,1,1158.731,2034.642Z" transform="translate(-1097.801 -1830.823)"/><path class="l" d="M1009.707,2040.976c.383,1.628-1.564,2.063-2.655,2.6-2.334,1.159-4.607,2.047-6.947,3.35-1.026.571-2.155,1.843-3.473,1.3-.6-1.136.936-2.075,1.838-2.6,1.018-.6,2.289-1.2,3.27-1.677,2.408-1.164,4.943-2.1,6.945-3.349C1008.955,2040.793,1009.44,2040.786,1009.707,2040.976Z" transform="translate(-886.669 -1834.924)"/><path class="l" d="M1057.817,2042.922c-.53,1.995-2.028,3.716-3.066,5.583-.482.867-.924,2.022-1.43,2.978-.44.835-1,2.19-2.45,1.86-.482-1.942,1.105-3.9,2.042-5.583a20.73,20.73,0,0,1,3.269-4.838c.05-.2.407-.126.409-.372C1057.3,2042.4,1057.454,2042.758,1057.817,2042.922Z" transform="translate(-956.844 -1836.126)"/><path class="l" d="M1114.538,2057.119c-1.9.366-3.051-1.736-3.88-2.977a13.516,13.516,0,0,1-2.248-4.652c.166-.16.559-.111.613-.373.237-.03.364.041.409.186,1.376.755,2.213,2.445,3.064,3.722S1114.748,2055.631,1114.538,2057.119Z" transform="translate(-1037.06 -1840.275)"/><path class="l" d="M698.806,2054.385c.926-.076,2.175-.571,2.449.744.335,1.6-3.444,2.11-5.106,2.606-2.08.619-5.239,1.907-5.516,0-.192-1.329,2.367-1.926,3.473-2.233A25.828,25.828,0,0,1,698.806,2054.385Z" transform="translate(-453.592 -1843.496)"/><path class="l" d="M758.2,2068.041c1.113-.019,2.124-.48,2.246.93.143,1.612-3.233,1.763-5.106,2.048-4.579.692-7.5,1.067-12.462,1.675-2.251.275-5.113.9-5.518-.373-.807-2.552,7.479-2.764,9.4-2.977C751.655,2068.8,754.5,2068.1,758.2,2068.041Z" transform="translate(-531.783 -1852.127)"/><path class="l" d="M908.051,2084.981c-.006-.183-.251-.146-.41-.187-1.219-1.594,1.085-3.345,2.453-4.838,1.295-1.415,3.341-4.159,4.7-4.28,3.23-.286.873,2.483,0,3.35-.911.9-1.511,1.658-2.044,2.232C911.187,2082.943,910.428,2084.573,908.051,2084.981Z" transform="translate(-757.022 -1856.972)"/><path class="l" d="M1157.106,2142.084c-1.909-2.037,1.838-3.794,3.881-4.838,5.914-3.021,12.46-4.845,20.226-6.141,1.955-.325,4.7-.343,4.5,1.675-.165,1.618-2.021,1.227-3.884,1.49a54.061,54.061,0,0,0-6.741,1.675,62.849,62.849,0,0,0-12.259,4.465C1161.13,2141.288,1159.338,2143.233,1157.106,2142.084Z" transform="translate(-1127.843 -1891.745)"/><path class="l" d="M491.6,2143.918c-.475-2.591,2.73-3.36,4.9-4.1a128.241,128.241,0,0,1,14.3-3.907c2.672-.563,5.329-.755,7.969-1.116,1.233-.169,2.9-.04,2.86,1.488-.063,2.192-5.311,2.039-7.561,2.421a71.356,71.356,0,0,0-7.763,2.045c-2.611.768-5.38,1.422-7.765,2.233C496.276,2143.759,493.591,2145.759,491.6,2143.918Z" transform="translate(-192.857 -1894.136)"/></g></g></svg>