<svg xmlns="http://www.w3.org/2000/svg" width="437.313" height="445.364" viewBox="0 0 437.313 445.364"><defs><style>.a{fill:#e87360;}.a,.b,.c,.d,.e,.f,.g,.h,.i,.j{fill-rule:evenodd;}.b{fill:#808077;}.c{fill:#81a97e;}.d{fill:#fdc9a4;}.e{fill:#e0d795;}.f{fill:#fd9b76;}.g{fill:#9f4c2e;}.h{fill:#404d10;}.j{fill:#fff;}</style></defs><g transform="translate(-557.839 -471.711)"><g transform="translate(629.604 497.445)"><path class="a" d="M739.528,635.183c2.73-7.64,6.416-15.105,9.138-23.527a14.813,14.813,0,0,0,.973-3.694c-.026-1.953-1.381-3.951-1.75-6.028a55.092,55.092,0,0,1-.583-7.194c-2.573.5-4.926.583-7-.389a12.306,12.306,0,0,1-5.444-6.222c-2.775-7.086-.617-21.08,6.806-20.221,3.763.435,4.12,4.51,6.222,7,2.082-5.759,3.124-11.381,6.221-15.943A52.023,52.023,0,0,1,778.8,539.325a60.673,60.673,0,0,1,18.471-4.472c5.826-.342,11.971.387,16.333,2.529,4.115,2.019,8.067,5.051,10.3,8.555a37.948,37.948,0,0,1,2.14,4.473,39.414,39.414,0,0,1,2.138,4.277c.476,1.581.765,3.529,1.167,5.445,2.512,11.993,3.675,27.779.972,41.026-2.166,10.616-6.13,19.654-10.694,28.193-3.243,6.068-5.818,11.819-14.583,12.25a17.346,17.346,0,0,0-2.526-.195c-.862.173-2.332,1.574-3.5,2.528-1.257,1.028-2.515,1.817-3.5,2.528-1.164.84-2.066,2-3.111,2.917-1.113.973-2.477,1.559-3.5,2.528-1.18,1.117-2.009,2.514-3.305,3.694a28.062,28.062,0,0,1-3.694,3.306c-6.107,3.668-15.594.554-20.611-2.139a48.487,48.487,0,0,1-4.277-2.917A66.922,66.922,0,0,1,739.528,635.183Z" transform="translate(-733.698 -534.772)"/><path class="a" d="M1114.223,771.792a1.787,1.787,0,0,1-.971-1.166c-.692,1-.928,3.254-2.721,2.528-2.822,5.2-5.263,10.311-8.945,14.583a91.953,91.953,0,0,1-11.667,11.665c5.711-1.482,11-4.421,17.7-4.277.886-.149.733-1.341,1.943-1.167,1.87,2.292,2.757,4.647,5.054,6.416,1.848,1.423,4.318,2.4,6.612,3.7,1.68.947,5.815,2.522,6.027,4.277.339,2.795-5.864,6.835-7.582,8.167a101.24,101.24,0,0,1-19.638,11.861,46.137,46.137,0,0,1-5.638,2.333c-1.7.546-5.057,1.751-6.416,1.361-1.183-.339-1.4-2.137-2.334-2.722a48.384,48.384,0,0,0-2.333-13.611,47.025,47.025,0,0,0-2.724-5.249c-.908-1.808-1.318-3.858-2.916-5.055-6.534,1.962-13.544.181-16.722-3.694-.453-.553-.853-1.4-1.36-2.14-.929-1.351-1.889-2.584-2.918-4.083-2.71-3.951-5.229-9.225-7.583-14-3.1-6.283-6.385-15.345-6.805-23.527a84.2,84.2,0,0,1,4.861-32.859c.416-1.132.835-2.38,1.361-3.5a26.968,26.968,0,0,1,1.557-3.306c.925-1.313,2.956-2.491,4.277-3.5,4.294-3.28,10.015-6.417,16.916-6.417,5.009,0,9.434,1.821,13.223,3.695a37.622,37.622,0,0,1,9.721,7.194,28.9,28.9,0,0,1,4.083,4.472c1.116,1.638,2.026,3.44,3.11,5.249,2.128,3.55,4.563,7.13,5.249,11.472,1.077.19,1.984-1.357,3.111-1.751,2.048-.446,3.71-1.763,5.835-.582a1.718,1.718,0,0,1,.388,1.944c.842-.618,1.008.1,1.555,0,1.109-.2.947-1.254,2.139-1.167,2.507.184,1.6,5.074,3.306,6.8.176.679-.244,1.189-.2,1.75.082.913.943,1.379,1.167,2.14.215.723-.416,1.192.2,1.75-.111.888.865.69.974,1.36a10.409,10.409,0,0,0-.585,3.694c.041,1.433.621,2.692.779,4.083a12.68,12.68,0,0,1-.194,1.362c-.047,2.228.992,4.431.777,6.416a1.313,1.313,0,0,1-1.75,0c-3.1,2.042-5.835,5.227-9.138,7.583-.906.648-2.475,1.909-3.694.584.768-2.992,4.076-3.443,5.639-5.639C1115.984,771.091,1115.375,771.711,1114.223,771.792Zm-.582-1.749c.109-.6.914-.512.971-1.167-.262-.061-.371-.277-.777-.194C1113.926,769.179,1113.147,769.783,1113.64,770.043Z" transform="translate(-916.289 -637.549)"/></g><g transform="translate(619.684 471.711)"><path class="b" d="M816.136,537.191c-1.343-1.56-.833-4.355-.972-6.416a46.145,46.145,0,0,0-4.472-16.527c-3.285,1.161-6.165,3.674-9.916,5.055-3.781,1.392-8.972,1.871-14,2.139s-10.364.584-15.36.584a112.061,112.061,0,0,1-28.193-3.889c1.074,9.419,5.047,17.731,5.443,29.165.087,2.456.565,9.457-1.165,10.306-1.114.546-2.848-.677-3.7-1.167-2.975-1.72-7.331-3.795-8.748-6.611-1.052-2.087-1.338-5.007-1.945-7.388-.613-2.4-1.277-5.125-2.528-6.611a7.9,7.9,0,0,0-5.444-2.334,6.909,6.909,0,0,0-3.889,2.139c-.886,1.011-.65,2.344-1.555,3.5-1.92-.058-3.058-2.237-4.083-3.694-3.1-4.4-6.222-10.892-6.222-18.083,0-11.3,6.633-20.895,15.554-24.5,5.3-2.143,10.084.223,13.222,3.5,0-8.783,5.291-13.953,11.471-17.888,5.183-3.3,10.9-6.04,18.667-6.611a58.872,58.872,0,0,1,26.832,4.473,43.978,43.978,0,0,1,17.305,13.805,46.947,46.947,0,0,1,8.944,36.749,45.966,45.966,0,0,1-1.75,6.027C819.093,534.556,818.946,537.663,816.136,537.191Z" transform="translate(-709.39 -471.711)"/><path class="b" d="M1068.811,717.466c7.312,2.324,12.332-2.835,10.111-10.305-1.037-3.482-2.9-6.969-7.778-6.417a10.807,10.807,0,0,0-5.638,2.917c-.45.44-.465,1.448-1.362,1.361a57.364,57.364,0,0,1-22.943-12.444,33.639,33.639,0,0,1-7.972-9.722c-2-3.85-2.936-8.51-3.7-13.805a21.021,21.021,0,0,0-10.889,4.667c-4.346,3.338-6.278,6.424-9.335,11.083-1.521,2.321-3,4.589-4.276,7-2.582,4.887-4.949,10.793-5.445,16.917-.48,5.926,1.081,12.608,2.528,18.276,2.779,10.874,7.361,20.081,14.388,27.221,1.6,1.626,3.616,3.227,5.444,5.056,3.457,3.455,6.988,6.486,13.416,6.027.971.692,3.1,3.276,2.918,5.055s-3.915,3.4-5.444,4.278c-2.343,1.346-4.094,2.8-6.028,3.694-12.346,5.7-28.65,1.377-38.5-4.083a38.9,38.9,0,0,1-11.472-9.722,34.23,34.23,0,0,1-3.111-3.888,36.152,36.152,0,0,1-4.667-17.889,34.423,34.423,0,0,1,3.889-15.555c2.19-4.461,4.217-8.679,7.194-12.25,3.188-3.826,6.96-6.168,10.888-9.917a104.532,104.532,0,0,1-2.528-15.555,47.159,47.159,0,0,1,4.473-23.332c5.978-12.259,15.238-21.707,30.72-24.888a45.341,45.341,0,0,1,24.305,1.944c4.662-2.564,9.172-4.974,15.555-5.444,14.719-1.083,23.737,7,29.166,15.361,4.24,6.529,6.244,14.617,7,24.5.364,4.777-.006,9.756.972,14.778a41.863,41.863,0,0,0,1.555,5.25,32.639,32.639,0,0,0,1.945,4.861c1.451,2.7,4.1,5.068,6.417,7.389,2.283,2.283,4.745,4.472,6.8,6.805,4.527,5.128,9.542,11.734,8.944,21.583a30.385,30.385,0,0,1-13.027,22.944c-6.414,4.314-14.569,6.149-24.693,6.8-1.37.089-2.77.406-4.083.389-6.165-.076-12.212-4.074-15.555-7.583-5.051-5.3-8.135-13.841-6.223-23.72.835-4.314,2.666-9.045,3.889-13.222A35.836,35.836,0,0,1,1068.811,717.466Z" transform="translate(-863.096 -569.933)"/></g><g transform="translate(557.839 576.483)"><path class="c" d="M759.29,1037.985c4.144,3.511-.427,8.517-3.5,11.082a38.154,38.154,0,0,1-7.584,4.472,118.219,118.219,0,0,1-17.5,6.611,79.388,79.388,0,0,1-9.917,2.14c-3.448.586-6.888,1.25-10.3,1.749-3.549.519-7.287.769-10.89,1.166-3.737.415-7.378.941-10.888,1.167-8.08.519-15.245,1.306-22.945.972-3.98-.171-7.718-.147-11.083-.972-1.542-.378-2.914-1.123-4.471-1.556s-3.112-.8-4.666-1.361c-6.147-2.2-10.552-5.807-14.583-9.528a44.969,44.969,0,0,1-8.361-9.721c-1.048-1.7-1.447-4-3.305-5.055-.992-.562-.688-.172-1.361-.972-.783-.929-1.182-2.838-1.944-4.666-1.749-4.2-4.3-9.034-6.222-13.028-2.876-5.977-5.818-11.916-8.36-17.305-5.553-11.774-11.106-23.47-16.528-35-2.757-5.863-5.271-11.92-7.778-18.083s-4.542-12.545-7-18.665c-5.076-12.648-9.431-25.386-10.888-40.444-.384-3.963-.979-7.924-1.166-11.86-1.47-30.867,4.979-55.01,14.777-75.247A123.874,123.874,0,0,1,607.239,761.1c4.754-3.8,10.475-6.192,15.166-10.5-1.932-3.286-3.844-5.263-3.5-8.944.281-3.008,2.6-5.508,4.861-7.776,2.4-2.41,4.916-4.4,7.388-5.251,3.816-1.312,8.772,4.938,11.472,7.389,2.2,2,5.442,3.989,7.971,5.833,3.224,2.347,6.827,3.918,10.306,5.833,7.225,3.976,12.632,8.407,19.832,12.25,7.077,3.775,14.745,6.264,23.139,8.944,4.184,1.336,8.175,2.777,11.082,4.861,4.876,3.493,7.507,12.156,5.834,20.416a54.426,54.426,0,0,1-2.138,6.026c-.705,2.013-1.938,4.432-1.945,6.029-.008,1.806,1.721,4.865,2.916,7.194,3.314,6.455,6.785,13.453,9.722,20.027,8.308,18.594,15.823,36.924,23.526,55.8q5.785,14.18,11.084,28.583c3.432,9.34,6.952,19.238,9.916,29.749,2.924,10.373,5.763,21.207,6.61,33.055.939,13.1.449,25.833-3.5,35.387C773.2,1025.176,766.422,1031.45,759.29,1037.985Z" transform="translate(-557.839 -728.454)"/></g><g transform="translate(664.141 664.687)"><path class="d" d="M1024.893,950.487c3.748.044,5.021,1.669,7.388,4.473,3.668,4.342,5.509,9.634,7.972,15.555,1.581,3.8,3.517,7.443,5.25,10.888,3.6,7.156,6.976,14.412,10.888,21.388,3.75,6.686,8.1,13.423,12.251,20.223,2.983,4.879,6.541,9.614,9.917,14.388,1.142,1.618,2.137,3.55,3.3,4.666a29.5,29.5,0,0,0,4.668,3.112c8.318,5.034,15.894,9.605,27.026,11.86,4.361.883,10.031,1.442,11.666,3.7,1.19,1.636,1.291,4.664,1.362,7.972.109,5.135-.062,11.147-.39,16.721-.193,3.3.04,6.812-.972,9.334-1.093,2.728-3.906,5.11-6.221,7-7.007,5.722-18.833,8.046-31.5,6.416-15.955-2.051-27.083-8.354-37.72-14.583-.071,10.448-1.882,19.729-2.529,29.75-.637,9.877-1.163,19.778-3.111,28.971-.968,4.573-1.742,8.958-3.306,12.834a54.373,54.373,0,0,1-5.832,10.11,52.016,52.016,0,0,1-7.2,8.943,28.986,28.986,0,0,1-10.111,5.833,115.071,115.071,0,0,1-25.861,6.417c-14.877,1.818-30.357-1.416-43.943-3.5-4.52-.694-9.254-1.262-13.8-2.14-4.174-.8-8.846-1.618-12.833-3.3-3.69-1.563-7.793-3.619-9.722-6.222-2.49-3.364-3.065-7.9-4.666-12.445-11.744,4.47-22.306,7.666-34.221,11.667a87.984,87.984,0,0,1-18.471,4.471,34.551,34.551,0,0,1-10.306-.778c-4.782-.953-8.87-2.278-11.86-5.249-2.518-2.5-4.59-6.707-6.611-10.5-1.847-3.467-4.259-7.487-5.249-11.666-2.386-10.065-3.714-29.018,4.472-33.833,5.118-3.009,14.175-2.66,21.776-3.5a138.486,138.486,0,0,0,21-4.082,48.757,48.757,0,0,0,9.333-3.305,65.306,65.306,0,0,0,7.583-5.055c3.4-2.47,7.21-5.017,10.305-8.555a13.873,13.873,0,0,0,2.528-3.694c.382-1.635.095-3.916.193-5.834a153.487,153.487,0,0,1,5.833-35,169.03,169.03,0,0,1,13.223-33.443c1.386-2.611,2.846-5.116,4.083-7.777s2.282-5.427,3.694-7.972c1.364-2.457,3.061-4.754,4.473-7.195,1.433-2.479,2.615-5.08,4.082-7.582a81.64,81.64,0,0,1,10.111-13.222,99.331,99.331,0,0,1,8.556-8.944,16.6,16.6,0,0,1,3.305-2.528c2.138-.937,5.037-1.1,7.39-1.944,6.443-2.3,11.876-5.839,17.889-9.528a52.766,52.766,0,0,1,12.832-5.638c4.908-1.408,10.377-3.2,15.555-3.5,5.505-.324,10.944.832,15.166,1.556C1024.7,946.919,1024.462,949.038,1024.893,950.487Z" transform="translate(-818.33 -944.598)"/><path class="e" d="M1525.863,1102.4c1.812,2.171,1.529,6.37,1.75,10.112.38,6.413.266,12.054-1.167,17.305-.412,1.512-1.131,3.818-2.333,4.083-1.378.3-3.7-1.567-4.861-2.527a88.9,88.9,0,0,1-10.693-10.889c-3.289-3.9-6.52-7.679-9.14-12.444-.783-1.426-2.188-3.286-1.36-5.054,1.874-.738,4.013.109,6.027.388a52.936,52.936,0,0,0,19.444-.777A7.235,7.235,0,0,1,1525.863,1102.4Zm-4.471,11.278a1.7,1.7,0,0,0-.779-3.305C1517.766,1110.931,1519.6,1114.054,1521.392,1113.676Zm-9.723.972c2.264.228,2.8-3.61.194-3.306A1.66,1.66,0,0,0,1511.67,1114.649Zm5.639,5.638c.051,2.362,4.12,2.495,3.694-.388a1.7,1.7,0,0,0-2.333-1.362A1.57,1.57,0,0,0,1517.308,1120.287Z" transform="translate(-1220.525 -1037.984)"/></g><g transform="translate(599.548 758.783)"><path class="f" d="M890.917,1190.22c.654-1.158,2.1-1.292,3.111-1.943,2.719-1.75,5.315-4.485,8.361-6.222a65.357,65.357,0,0,1,6.416-2.917c2.142-.906,4.386-2.236,6.417-2.722,3.983-.954,8.115-.3,12.834-.195,2.036-1.607,7.2-.97,10.109-.583,3.97,3.219,4.175,8.6,7.584,11.86,5.379,5.147,16.693,6.506,24.888,9.528,8.32,3.068,16.015,7.477,22.944,11.472a119.026,119.026,0,0,0,23.721,10.694c6.195,2.05,13.432,3.853,20.028,5.833,2.694.81,5.726,1.572,7.972,1.167,8.423-1.519,14.687-8.915,21-14.2,4.425-3.7,8.889-8.377,14.193-12.055,1.785-1.238,4.524-2.951,5.832-2.916a4.341,4.341,0,0,1,3.5,2.333c1.3,2.4.407,5.386-.777,7.389-2.33,3.938-6.271,5.751-9.332,8.944-1.578,1.645-3.445,3.707-3.307,5.834.189,2.9,4.356,5.171,7.388,6.027,2.459.695,5.012.448,7,1.361a7.93,7.93,0,0,1,3.888,3.305c1.48,2.972,1.188,9.046.583,13.416-.485,3.514-1.786,8.433-3.5,11.083-2.4,3.716-8.542,6.688-13.609,7.973a33.6,33.6,0,0,1-18.862-.778c-6.406-2.354-11.022-6.633-16.721-8.361a36.329,36.329,0,0,0-7.972-.972c-7.655-.488-17.163-.694-24.888-1.361a182.717,182.717,0,0,1-29.749-5.251c-4.188-1.1-8.661-2.745-13.223-4.277-8.593-2.884-16.746-6.734-25.277-9.722a75.893,75.893,0,0,1-12.249-5.249c-3.759-2.145-7.379-5.371-11.083-8.167-1.887-1.424-3.813-2.7-5.638-4.084a131.715,131.715,0,0,1-15.361-13.417C894.072,1199.887,890.787,1195.754,890.917,1190.22Z" transform="translate(-796.701 -1175.181)"/><path class="f" d="M1542.3,1188.94c3.7-2.618,10.92.2,13.609,3.694,2.951,3.831,4.661,10.807,4.667,16.723.009,7.6-3.9,13.935-11.472,14.388-.018-3.484.155-6.858,0-10.11-.187-3.958.061-9-2.526-10.694-1.567-1.024-4.056-1.3-6.222-1.945a42.213,42.213,0,0,0-6.417-1.751c-2.7-4.929-1.862-13.957,4.083-14.388C1540.446,1184.68,1542.123,1186.211,1542.3,1188.94Z" transform="translate(-1176.452 -1180.9)"/><path class="f" d="M678.237,1375.972c.165-1.9-2.531-2.5-3.888-3.695a38.248,38.248,0,0,1-6.806-8.361c-1.077-1.691-2.519-3.9-1.944-6.416a3.777,3.777,0,0,1,3.111-2.528c3.14.191,6.043,3.095,8.555,4.666,5.426,3.394,11.451,6.4,15.749,10.694,2.949,2.95,5.775,6.867,10.306,8.167,2.459.706,6.458.581,8.944.389,4.179-.321,8.98-1.78,12.833-2.916a20.438,20.438,0,0,1,4.083-1.166c2.184-.064,5.6,1.771,7,2.915,3.249,2.665,5.929,8.206,5.445,14.972-.395,5.5-2.825,11.955-5.445,13.8-1.811,1.278-7.987,2.218-11.083,2.529-7.858.789-16.5.109-24.5.583-7.974.471-14,4.239-20.026,4.86a26.409,26.409,0,0,1-8.167-.389c-3.492-.85-7.284-3.047-8.75-5.055a15.394,15.394,0,0,1-1.944-5.056c-.432-1.854-1.17-3.822-1.361-5.444-.168-1.43-.068-3.124-.2-4.667-.506-6.2.708-13.545,4.667-15.944,2.7-1.638,7.78-1.259,12.249-1.555C677.359,1376.341,678.251,1376.661,678.237,1375.972Z" transform="translate(-660.046 -1281.602)"/></g><g transform="translate(599.071 540.553)"><path class="g" d="M750.177,642.685a1.969,1.969,0,0,1-1.944.389c-1.376,1.493-1.251,5.332.583,6.223,1.2-.132,2.689-.5,3.111.583-.3,2.949-4.086,2-5.056,1.361-2.281-1.51-2.808-6.673-.973-9.332C746.668,640.794,749.964,638.831,750.177,642.685Z" transform="translate(-709.732 -640.408)"/><path class="g" d="M891.949,647.732c2.054-2.222,2.941.884,3.889,2.917,1.568,3.358,4.66,9.314,5.056,13.027.829,7.782-5.493,11.9-12.249,10.888-2.383-.355-5.326-1.419-6.417-2.916-1.423-1.953-.47-3.692.195-3.889,1.6-.474,2.24,1.822,2.916,2.334,3.467,2.62,11.837,1.3,12.445-3.5.426-3.357-1.075-7.093-2.333-10.111C894.21,653.507,892.191,651.12,891.949,647.732Z" transform="translate(-790.646 -644.289)"/><path class="g" d="M856.036,696.671c1.7.9.96,3.612.583,4.862a9.7,9.7,0,0,1-.583,1.361c-2.224,4.436-7.527,8.644-8.167,13.611-.334,2.589.524,3.616.972,5.639.142.645.642,2.056-.584,2.333-2.2.5-3.32-4.885-3.11-7.388.3-3.579,2.1-6.177,4.083-8.75.888-1.154,1.627-2.573,2.528-3.889s2.112-2.469,2.527-3.695c.43-1.27.111-3.083.779-4.084C855.546,696.924,855.87,696.1,856.036,696.671Z" transform="translate(-769.12 -673.589)"/><path class="g" d="M773.4,714.6c5.39,7.756,12.9,14.084,20.611,20.028a63.086,63.086,0,0,0,20.026,10.3c4.266,1.342,8.289,2.753,13.8,2.916.821-.032,0,.3,0,.584-3.935,2.222-7.227,5.087-10.888,7.583-5.392-2.184-11.647-4.513-16.917-8.167-2.409-1.67-4.731-3.546-7.388-5.054-1.234-.7-2.538-1.575-3.89-2.333s-3.13-1.3-4.083-2.139c-1.2-1.057-2.293-3.392-3.5-5.25a44.505,44.505,0,0,1-3.305-5.25,63.805,63.805,0,0,1-4.667-12.638C773.145,714.917,773.205,714.624,773.4,714.6Z" transform="translate(-726.537 -684.323)"/><path class="g" d="M900.9,724.423c.132,2.271-1.311,3.685-2.333,4.862A18.437,18.437,0,0,1,883.59,735.7a20.822,20.822,0,0,1-8.555-2.528c-1.406-.774-6.736-3.846-3.889-5.444,1.256-.706,3.661,1.629,5.25,2.528a15.056,15.056,0,0,0,10.111,2.139c6.2-.636,9.1-4.386,12.055-8.362C899.182,723.171,900.47,723.925,900.9,724.423Z" transform="translate(-784.036 -689.675)"/><path class="g" d="M1094.49,807.075c.671,1.728-.231,3.495-.583,5.249a156.315,156.315,0,0,1-3.694,16.138c1.637,2.414,9.593-.962,9.139,2.722-.268,2.174-6.141,1.563-8.556.973-1.6-.393-3.45-1.035-3.694-2.333-.35-1.861.426-4.162.972-6.222.455-1.716,1.279-3.57,1.749-5.445.63-2.512.653-3.763,1.167-6.027C1091.535,809.726,1091.692,805.629,1094.49,807.075Z" transform="translate(-912.3 -738.883)"/><path class="g" d="M1213.99,819.546c0-.188-.238-.151-.388-.195-1.679-3.494,5.584-4.7,2.917-8.944-.959-.041-1.975.548-2.529-.194-.613-2.227,1.562-2.6,2.918-2.334,1.573.31,3.163,2.844,2.526,5.833-.277,1.311-1.452,2.263-2.332,3.3C1216.24,818.039,1215.516,819.593,1213.99,819.546Z" transform="translate(-987.079 -739.493)"/><path class="g" d="M1139.857,883.366c-1.236-1.667.3-3.061.585-4.278.817-3.459-.094-7.547-1.945-9.527-1.555-1.663-4.978-2.856-5.057-4.861-.114-2.936,2.76-1.313,2.722.194,3.72,2.215,7.708,5.319,7.194,12.249a14.688,14.688,0,0,1-.972,3.89C1141.96,882.16,1141.66,883.853,1139.857,883.366Z" transform="translate(-939.779 -772.204)"/><path class="g" d="M1146.635,882.8a54.079,54.079,0,0,0,.972,12.249c.353,1.5,1.754,4.2,1.555,5.25-.332,1.765-5.745,4.141-7.388,5.056a33.214,33.214,0,0,1-8.75,3.694c-6.619,1.609-15.773,2.4-21.971.195.343-1.063,1.745-1.16,2.527-1.361a60.242,60.242,0,0,0,8.943-2.528c8.29-3.567,15.122-10.782,20.417-17.694C1144.2,886.018,1145.685,884.7,1146.635,882.8Z" transform="translate(-926.53 -783.882)"/><path class="g" d="M1300.32,952.064c.254,1.294,1.431,7.252-.584,7.389-2.118.143-1.885-5.67-.972-7.583C1299.325,951.893,1300.039,951.764,1300.32,952.064Z" transform="translate(-1037.244 -824.764)"/><path class="g" d="M1279.55,952.616a10.505,10.505,0,0,1,.584,5.832,3.624,3.624,0,0,1-1.556.195C1277.884,957.239,1276.016,951.46,1279.55,952.616Z" transform="translate(-1025.03 -825.12)"/><path class="g" d="M1260.315,953.464c.733,1.961.475,6.774-1.555,6.416-1.911-.337-.588-5.278.195-6.611C1259.586,953.157,1259.86,953.4,1260.315,953.464Z" transform="translate(-1013.378 -825.579)"/><path class="g" d="M1242.471,966.661H1241.3c-.945-1.246-.656-5.283.972-5.251C1244.184,961.45,1243.645,965.629,1242.471,966.661Z" transform="translate(-1003.31 -830.415)"/><path class="g" d="M1221.865,968.922c-.846,2.524-.27,6.472-3.5,6.611a3.327,3.327,0,0,0-.583-.778C1218.8,972.738,1218.965,965.966,1221.865,968.922Z" transform="translate(-989.704 -834.426)"/><path class="g" d="M1199.383,976.194c-1,1.287-2.911.584-4.277.388-4.369-.623-9.469-1.765-14.39-1.555-7.1.3-13.539,2.56-19.249,5.056a142.484,142.484,0,0,0-15.749,8.555,113.468,113.468,0,0,1-16.334,7.972,64.264,64.264,0,0,1-15.75,3.889c-1.042.15-2.806.78-3.11-.583-.349-1.557,1.94-1.836,3.888-2.139a62.238,62.238,0,0,0,14.389-3.694c3.019-1.208,5.78-2.445,8.36-3.694,7.7-3.726,15.289-9.318,23.333-12.833a58.717,58.717,0,0,1,19.639-5.25c3.406-.235,7.225.5,10.693.973,1.562.213,3.473.515,5.056.777C1197.267,974.284,1199.529,974.382,1199.383,976.194Z" transform="translate(-926.196 -836.838)"/><path class="g" d="M1199.138,984.292c-.286-2.012,1-3.847,1.363-5.833C1204.358,975.864,1202.067,986.815,1199.138,984.292Z" transform="translate(-978.644 -840.27)"/><path class="g" d="M1183.211,990.691c-.612,2.5-.719,5.5-3.11,6.223-1.735-.489.269-5.819,1.166-6.418A1.374,1.374,0,0,1,1183.211,990.691Z" transform="translate(-966.995 -847.447)"/><path class="g" d="M1163.843,996.322c.578,1.475-.608,3.163-1.168,4.472-.539,1.265-.848,3.474-2.917,3.111a3.339,3.339,0,0,0-.583-.777c.672-1.5,1.874-5.964,3.112-7C1162.449,995.992,1163.4,996.194,1163.843,996.322Z" transform="translate(-955.014 -850.939)"/><path class="g" d="M1143.324,1001.121c.767,2.147-1.536,4-2.723,5.639-1.162,1.6-2.126,4.526-4.667,4.473a3.3,3.3,0,0,0-.584-.778c.031-1.649,1.628-3.1,2.724-4.667s2.15-3.154,3.11-4.277C1141.675,1000.935,1142.175,1000.7,1143.324,1001.121Z" transform="translate(-940.912 -853.793)"/><path class="g" d="M1317.989,1006.3c1.673-2.016,2.454,1.691,3.112,3.5,6.164,16.946,10.6,35.5,14.194,55.415a113.579,113.579,0,0,1,2.333,16.721c.047,1.134.69,4.48-1.167,4.667-2.232.226-1.3-4.055-1.36-5.444a78.749,78.749,0,0,0-1.361-10.3c-1.723-9.629-3.884-19.354-6.029-28.583a306.628,306.628,0,0,0-8.943-31.693C1318.233,1009.026,1317.345,1006.926,1317.989,1006.3Z" transform="translate(-1048.886 -856.643)"/><path class="g" d="M1092.15,1138.059c6.57-.455,13.442,1.016,19.444,2.528a48.508,48.508,0,0,1,8.555,2.527,50.218,50.218,0,0,1,18.473,14.389,25.837,25.837,0,0,1,5.637,16.139c.013,5.884-2.138,11.4-4.471,15.945a68.491,68.491,0,0,1-5.834,9.527c-1.049,1.438-1.658,2.587-2.722,1.945-1.707-1.034,1.68-4.845,2.334-5.834,4.053-6.127,8.635-13.434,7.972-23.332-.626-9.334-6.389-15.241-12.055-19.833a44.842,44.842,0,0,0-15.555-8.361c-10.558-2.969-23.671-4.447-34.026-.584a26.7,26.7,0,0,0-9.723,6.223,29.215,29.215,0,0,0-7.583,12.444c-.254.758-.537,2.393-1.75,2.333-1.743-.084-1.073-2.932-.389-4.861a37.268,37.268,0,0,1,7.778-12.055,29.091,29.091,0,0,1,10.11-6.222A48.058,48.058,0,0,1,1092.15,1138.059Z" transform="translate(-896.156 -934.928)"/><path class="g" d="M1010.736,1204.651c-5.1,1.255-11.463,1.239-15.943,3.11-.035-2.136,2.668-3.081,4.471-4.278,1.862-1.234,3.6-2.838,5.25-3.5,1.512-.607,2.732,1.823,3.7,2.722C1009.126,1203.564,1009.943,1203.922,1010.736,1204.651Z" transform="translate(-857.713 -971.575)"/><path class="g" d="M1043.485,1255.214c-.952-1.838.9-3.529,1.945-4.861a21.5,21.5,0,0,1,14.193-7.972c2.286-.223,6.72-.249,6.417,1.75-.244,1.619-4.239.575-6.222.778-5.437.557-10.009,3.966-12.833,7.583C1046.218,1253.474,1045.648,1255.992,1043.485,1255.214Z" transform="translate(-886.378 -996.667)"/><path class="g" d="M1093.152,1255.9c-1.668,1.032-3.839.267-5.445.389-4.6.349-7.717,2.156-9.916,5.25-.834,1.174-1.449,2.841-2.139,2.916-1.991.218-1.5-1.971-.778-3.305a16.692,16.692,0,0,1,2.333-3.306c2.366-2.319,8.4-4.855,13.611-4.084C1091.884,1253.917,1093.276,1253.941,1093.152,1255.9Z" transform="translate(-904.74 -1003.378)"/><path class="g" d="M1115.583,1266.042c.732-.1,4.727-.833,4.669,1.167-.052,1.75-3.9,1.078-4.473,1.166a11.937,11.937,0,0,0-7.972,5.444c-.092.147-.894,2.414-1.751,2.528-2.574.344-1.146-3.233-.389-4.277a26.175,26.175,0,0,1,3.306-3.5A14.549,14.549,0,0,1,1115.583,1266.042Z" transform="translate(-922.7 -1010.606)"/><path class="g" d="M1146.1,1281.5c-.919.588-1.924.317-2.724.583-2.171.721-2.945,2.772-4.666,3.889-3.11-1.033.074-4.13,2.335-5.445C1142.584,1279.638,1146.322,1278.263,1146.1,1281.5Z" transform="translate(-942.137 -1018.677)"/><path class="g" d="M991.2,1282.956c1.551-.406,1.716,1.692,2.333,2.916a8.854,8.854,0,0,0,8.75,4.861c1.714-.164,4.341-1.621,4.472.778.1,1.79-3.278,2.527-5.249,2.527-4.05,0-8.568-2.968-10.5-7C990.282,1285.517,989.167,1283.488,991.2,1282.956Z" transform="translate(-854.901 -1020.714)"/><path class="g" d="M1370.089,1327.711c1.077-.031,2.524-.456,2.528,1.167.009,2.557-13.65,3.321-13.806.388-.086-1.655,1.512-1.423,3.307-1.36C1364.659,1327.994,1368.3,1327.763,1370.089,1327.711Z" transform="translate(-1073.18 -1047.193)"/><path class="g" d="M1359.5,1351.444c1.126-.456,4.274.39,6.8.39,1.94,0,4.587-.854,4.861.778.342,2.026-2.94,2.157-5.443,2.139-2.8-.022-7.217.031-7.389-1.751C1358.234,1352.028,1358.891,1351.689,1359.5,1351.444Z" transform="translate(-1072.891 -1061.204)"/><path class="g" d="M1350.406,1374.719c.822-.465,2.249.083,3.694.195,3.232.249,7.932-1.068,8.167.972.248,2.175-5.937,2.207-9.139,1.945-1.407-.117-3.26-.467-3.5-1.362C1349.307,1375.271,1349.855,1375.031,1350.406,1374.719Z" transform="translate(-1067.69 -1074.952)"/><path class="g" d="M743.691,1396.43c2.16,1.166,5.1,2.552,7.584,4.083,1.679,1.035,3.581,2.427,6.222,2.722,4.574.512,9.21-.851,13.221-1.751,1.481-.33,3.169-.685,4.666-1.166,1.371-.44,3.048-1.583,4.473-.193,0,2.141-2.484,2.373-4.084,2.916-1.752.6-3.672,1.15-5.444,1.555-3.837.878-7.836,2.173-11.86,1.945a10.774,10.774,0,0,1-1.75-.2c-5.545-1.335-9.113-6.56-12.833-9.138A1.1,1.1,0,0,1,743.691,1396.43Z" transform="translate(-709.079 -1087.912)"/><path class="g" d="M1082.017,1402.282c.091,2.067-1.706,3.755-2.916,5.25-6.281,7.753-14.766,13.091-24.695,17.5a47.649,47.649,0,0,1-9.526,3.306c-.943.2-2.236,1-2.917-.389.6-2.655,3.647-2.445,5.25-2.917a68.517,68.517,0,0,0,16.333-7.583c5.786-3.547,11.094-7.6,14.971-13.027C1079.223,1403.433,1080.4,1400.5,1082.017,1402.282Z" transform="translate(-885.634 -1091.043)"/><path class="g" d="M661.28,1428.705c1.594-.8,4.586-.194,5.833-.194,2.1,0,4.565-.449,4.666,1.362.122,2.149-3.479,1.555-5.638,1.555-2.091,0-5.705.651-5.834-1.362A1.362,1.362,0,0,1,661.28,1428.705Z" transform="translate(-659.722 -1106.772)"/><path class="g" d="M669.769,1451.2c.76.041,1.926-.148,2.138.972.427,2.246-4.377,2.2-7.194,2.333-2.475.114-5.927.429-5.833-1.555.079-1.662,2.4-1.27,4.472-1.362C665.782,1451.48,667.9,1451.1,669.769,1451.2Z" transform="translate(-658.878 -1120.321)"/><path class="g" d="M666.517,1473.816c.842-.413,2.033-.041,2.917,0,1.9.085,7.2-.68,7.583.971.508,2.165-2.856,1.944-5.639,1.944-2.591,0-6,.493-5.833-1.75C665.6,1474.193,665.94,1474.1,666.517,1473.816Z" transform="translate(-662.821 -1133.604)"/><path class="g" d="M801.961,1272.07a37.3,37.3,0,0,1,5.444,3.305c1.871,1.208,3.873,2.144,5.833,3.306,3.708,2.2,7.475,4.645,11.472,6.61,2.067,1.016,4.273,1.7,6.416,2.723,2.013.958,3.954,2.184,6.027,3.111,8.387,3.753,17.4,6.744,26.445,9.916a157.659,157.659,0,0,0,29.165,7,113.045,113.045,0,0,0,16.528,1.555c7.755,0,15.518-.025,21.583,2.528-7.243,0-14.142.187-21.778.583-6.946,13-14.424,26.291-23.526,37.527-2.259,2.788-4.631,5.5-7,8.36a103.867,103.867,0,0,1-7.583,7.584,99.29,99.29,0,0,1-7.973,7.194c-2.518,2-5.9,5.635-9.722,5.444-4.223-.211-6.309-4.542-8.36-7.583-1.338-1.98-2.965-3.852-3.5-6.027-6.565,2.188-13.9,4.121-21.194,6.416-7.057,2.221-13.814,5.306-20.609,7-8.253,2.057-17.01,2.466-23.722-.39a29.754,29.754,0,0,1-8.556-5.25,35.541,35.541,0,0,1-8.75-12.833c-10.55,1.488-21.9.078-32.082,1.556-6.4.928-11.967,3.859-18.082,3.692.659-.884,1.833-1,2.721-1.36a22.735,22.735,0,0,0,2.528-1.362c.854-.472,1.874-.693,2.917-1.166.85-.388,1.653-1.064,2.528-1.361,7.776-2.634,18.43-2.353,28-2.334,3.066.007,6.179-.175,9.138-.389,2.889-.208,5.633-1.137,8.362-.777.026,1.518-2.015,2.474-3.306,3.306a27.483,27.483,0,0,0,8.75,11.665,25.846,25.846,0,0,0,14.388,6.028c7.151.521,14.02-1.29,20.028-3.305,5.942-1.994,11.609-4.111,17.3-5.834,18.35-5.552,35.437-10.429,49.775-19.638a75.772,75.772,0,0,0,13.028-10.11c7.614-7.756,14-17.007,20.028-26.25-25.256-1.579-45.59-9.3-64.943-16.916-2.9-1.139-5.748-2.5-8.555-3.889-2.857-1.413-5.963-2.448-8.555-3.888a45.373,45.373,0,0,1-5.25-3.889C812.369,1280.1,806.925,1276.04,801.961,1272.07Z" transform="translate(-688.213 -1014.301)"/></g><g transform="translate(559.171 601.603)"><path class="h" d="M727.089,790.154c1.913-.8,4.48,2.011,6.222,3.306,11.719,8.715,21.977,16.775,35.192,24.889,8.764,5.379,17.246,11.268,27.417,15.749,5.177,2.28,6.815,3.578,11.665,5.444,1.344.517,5.729,1.251,5.056,3.112-.667,1.841-5.109-.346-6.222-.778-2.543-.988-4.594-2.029-6.028-2.722-4.223-2.045-8.387-3.8-11.86-5.639-7.561-3.992-15.04-8.675-21.971-13.027-7.1-4.456-14.009-9.512-20.806-14.388-5.927-4.254-11.791-8.594-17.3-13.417C727.766,792.083,726.166,791.5,727.089,790.154Z" transform="translate(-659.188 -790.013)"/><path class="h" d="M935.7,858.944c1.666,2.537,1.024,9.782.389,13.611-.3,1.779-.646,3.807-2.334,3.5-1.249-1.168-.487-3.372-.193-5.25a34.759,34.759,0,0,0,.777-7.971c-.066-1.156-.548-2.011-.194-3.111C934.127,858.93,934.861,858.885,935.7,858.944Z" transform="translate(-781.271 -830.804)"/><path class="h" d="M917.51,868.433c1,.827.9,3.49.779,5.444-.127,2.027-.265,4.575-2.527,4.083-.952-2.364.841-5.826,0-8.75A1.461,1.461,0,0,1,917.51,868.433Z" transform="translate(-770.863 -836.404)"/><path class="h" d="M600.616,1055.216c-1.9.879-3.293-1.207-4.277-2.332-3.287-3.759-6.487-7.946-9.528-12.056a124.092,124.092,0,0,1-10.888-17.889c-6.191-12.31-11.81-27.6-13.805-43.749-2.2-17.825-.723-37.472,3.5-52.3,3.714-13.049,8.082-24.842,14.777-35.583.92-1.476,2.851-4.7,4.082-4.277,1.663.57.713,1.479.389,2.138-.3.6-1.017,1.587-1.361,2.138-6.431,10.317-11.365,22.429-14.971,35a90.434,90.434,0,0,0-2.722,11.667c-.614,4.035-1.154,8.193-1.556,12.638a130.872,130.872,0,0,0,5.639,50.555c4.694,14.6,10.863,27.138,19.055,38.11,3.071,4.113,6.207,7.876,9.527,11.86C599.3,1052.124,601.35,1053.426,600.616,1055.216Z" transform="translate(-561.104 -847.415)"/><path class="h" d="M857.8,1029.635c-1.137-1.064-1.691-2.728-2.528-4.083-.809-1.311-1.561-2.752-2.917-3.5a68.732,68.732,0,0,0-27.221,4.862c-7.72,2.969-14.715,6.922-19.639,12.638a31.664,31.664,0,0,0,2.723,4.667c.942,1.446,2.2,2.824,2.723,4.666-2.581,1.74-4.972.45-7.2-.583-10.564-4.908-18.724-11.887-26.832-19.25-1.62-1.471-3.353-2.77-4.861-4.279A99.949,99.949,0,0,1,752.8,998.135c-3.959-8.2-5.217-19.413-6.027-30.721-1.236-17.256,4.149-27.875,11.861-36.554,9.045-6.829,18.568-13.724,32.276-15.361a21.691,21.691,0,0,1,14.195,3.695,45.4,45.4,0,0,1,4.861,4.666A81.265,81.265,0,0,1,822.217,940c4.722,8.007,9.022,16.08,13.8,23.916,2.245,3.678,4.3,8.005,6.8,12.249,2.349,3.976,4.833,8.017,7,11.861,1.106,1.96,2.136,4.12,3.3,6.221,4.026,7.243,9.52,17.117,7.194,29.166A15.969,15.969,0,0,1,857.8,1029.635Zm-9.138-37.916c-2.059-4.1-4.369-8.2-6.806-12.249-7.316-12.161-13.916-23.831-21-36.555A79,79,0,0,0,808.6,926.389c-4.281-4.369-8.6-9.073-17.3-8.362a39.413,39.413,0,0,0-14.388,4.472,77.683,77.683,0,0,0-12.056,7,38.946,38.946,0,0,0-14.389,23.526c-.851,5.149-.615,11.442-.388,17.111a118.918,118.918,0,0,0,1.556,16.138c1.725,9.5,6.9,17.418,11.471,23.722a95.761,95.761,0,0,0,7.778,9.722c2.912,3.082,5.993,5.7,9.139,8.556,6.2,5.627,12.425,11.563,20.416,14.972.791-4.1,2.967-6.167,5.832-8.556,7.667-6.388,18.19-11.317,29.361-13.805,5.695-1.268,15.192-2.957,19.833-.389.71.394,1.679,1.413,1.944.777C857.77,1009.145,852.922,1000.2,848.66,991.719Z" transform="translate(-670.901 -864.221)"/></g><path class="i" d="M853.57,492.273c-1.24.689-2.189-.444-3.111-.972a56.6,56.6,0,0,0-8.944-3.889,41.008,41.008,0,0,0-14.194-2.917,42.049,42.049,0,0,0-24.693,7.778c-.717.529-1.677,1.773-2.722.583-.171-2.135,2.23-3.348,3.889-4.473,4.943-3.352,12.857-5.945,20.221-6.416,9.445-.6,18.108,2.356,24.889,5.638C850.863,488.555,854.5,489.469,853.57,492.273Z" transform="translate(-143.279 -6.024)"/><path class="i" d="M778.316,530.206c1.469,1.192,1.592,3.421,2.138,5.25,1.1,3.668,2.275,7.427,3.112,11.666.387,1.967,1.531,4.063.584,6.028-1.9.085-2.271-2.334-2.723-4.083-.947-3.67-1.833-7.306-2.917-11.083C777.678,535.083,776.179,531.962,778.316,530.206Z" transform="translate(-129.855 -34.625)"/><path class="i" d="M915.493,604.334a11.463,11.463,0,0,1,3.5,0c2.148.52,4.666,2.061,7.194,3.694,2.074,1.339,5.915,2.855,5.834,5.056-.052,1.416-1.209,2.279-2.917,2.138-1.189-.1-2.362-1.15-3.3-1.556a25.223,25.223,0,0,0-7.973-1.75c-3.187-.213-7.095.509-7.389-2.721C910.191,606.479,913.363,604.739,915.493,604.334Z" transform="translate(-208.702 -78.42)"/><path class="i" d="M834.224,613.945c2.013-.283,7.583,0,7.583,3.5,0,2.472-3.694,3.389-5.444,3.888-3.448.984-6.719,1.674-8.945,4.084-.578.626-.943,1.573-1.555,2.333-.8.987-4.119,3.243-5.25.583-1.049-2.465,2.608-7.43,3.889-8.944A15.731,15.731,0,0,1,834.224,613.945Z" transform="translate(-155.431 -84.143)"/><path class="i" d="M930.682,636.254a4.954,4.954,0,0,1,4.472,1.167c1.784,2.559.276,6.544-2.333,7C927.778,645.3,925.037,637.763,930.682,636.254Z" transform="translate(-218.835 -97.313)"/><path class="i" d="M851.41,646.8c2.877-.557,6.42,1.294,6.028,5.055-.259,2.477-3.23,4.089-5.639,3.889C846.833,655.333,845.478,647.949,851.41,646.8Z" transform="translate(-171.451 -103.581)"/><path class="i" d="M1133.448,652.78c-.244,1.86-2.106,2.513-3.3,3.5-5.307,4.369-10.575,9.324-14.389,15.555-.5.819-.985,1.806-1.75,3.111-.276.47-1.325,2.547-2.528,2.139-1.588-.539,0-3.209.389-3.889a46.989,46.989,0,0,1,7.195-9.917c4.435-4.433,7.723-8.147,12.054-10.694C1131.554,652.327,1133.047,651.789,1133.448,652.78Z" transform="translate(-327.299 -106.839)"/><path class="i" d="M1064.442,763.024c3.455-.369,8.522-.037,8.944,3.111a3.526,3.526,0,0,1-1.556,3.306c-1.762.756-4.367-.458-6.611-.584a18.761,18.761,0,0,0-4.861.389c-1.659.341-2.879,1.3-4.278.972a2.959,2.959,0,0,1-1.75-1.944c-.244-2.106,2.819-3.461,3.889-3.889A21.052,21.052,0,0,1,1064.442,763.024Z" transform="translate(-293.875 -172.363)"/><path class="i" d="M1130.268,763.11A13.11,13.11,0,0,1,1140.961,767c1.073,1.191,2.166,2.8,2.14,4.083a3.131,3.131,0,0,1-1.75,2.528c-1.253.178-1.8-.93-2.722-1.556a15.448,15.448,0,0,0-6.611-2.722c-2.193-.26-6.8.73-7.195-2.138C1124.429,764.3,1127.837,763.346,1130.268,763.11Z" transform="translate(-335.591 -172.448)"/><path class="i" d="M1068.4,799.332c2.261-.353,4.9,1.053,5.25,3.111.868,5.066-6.862,6.274-8.361,2.528A4.038,4.038,0,0,1,1068.4,799.332Z" transform="translate(-300.168 -193.894)"/><path class="i" d="M1137.121,806.284c3.626-.835,5.834,1.227,5.834,3.5,0,5.094-8.555,5.712-8.555.195C1134.4,808.149,1135.605,807.016,1137.121,806.284Z" transform="translate(-341.278 -197.929)"/><path class="i" d="M1266.735,857.634c.46-1.84,2.075-2.162,3.111-3.111,4.91-4.5,9.21-11.069,8.945-21.388-.135-5.228-2.755-9.563-5.056-12.832-.924-1.314-2.361-3.253-3.89-5.056-1.264-1.494-3.672-3.808-3.111-5.833a1.558,1.558,0,0,1,1.555-.972c.975.162,1.022,1.982,1.363,2.723.669,1.451,2.268,3.016,3.5,4.471,4.255,5.038,8.85,10.415,8.166,20.611-.34,5.082-1.977,10.617-4.666,14.388a42.849,42.849,0,0,1-4.471,5.056C1271.146,856.724,1268.8,860.027,1266.735,857.634Z" transform="translate(-419.56 -199.307)"/><path class="i" d="M1013.1,840.77c1.269-.158,1.6-.078,1.75.778.245,1.395-4.2,3.374-5.055,4.083a23.376,23.376,0,0,0-7.583,19.444c.454,5.2,3.926,12.346,7.973,15.166,3.435,2.395,7.922,2.659,14,2.139,1.422-.122,5.52-1.041,5.833.583.371,1.917-3.08,1.718-5.443,1.945-7.151.682-12.925-.042-16.916-3.305-4.067-3.326-7.735-10.331-8.165-17.306a24.892,24.892,0,0,1,8.36-20.221,22.676,22.676,0,0,1,4.861-3.306C1012.808,840.725,1012.992,840.783,1013.1,840.77Z" transform="translate(-261.394 -218.415)"/><path class="i" d="M1516.255,1108.727a9.719,9.719,0,0,1,1.305,3.045,6.2,6.2,0,0,1,1.33-.14,6.277,6.277,0,0,1,1.167.11,8.779,8.779,0,0,1-1.275-3.987c.04-.741.808-1.719,1.169-2.721,4.742-13.224,2.162-31.589-2.529-42.777-.484-1.152-1.849-4.644-2.721-5.25a10.273,10.273,0,0,0-3.7-.778,29.837,29.837,0,0,0-7.777,1.362,42.15,42.15,0,0,0-12.444,5.833c-1.755,1.22-4.148,2.8-4.279,5.055-.1,1.745,1.4,4.424,2.334,6.417,6.06,12.947,14.43,24,24.887,31.887A13.177,13.177,0,0,1,1516.255,1108.727Zm-16.917-47.055c3.946-1.582,8.785-3.49,13.806-2.527-.8,1.809-2.7,3.068-4.474,4.082a48.115,48.115,0,0,1-5.833,2.722c-3.977,1.607-8.762,3.509-13.8,2.528C1491.173,1065.16,1495.328,1063.281,1499.338,1061.673ZM1490,1071.2a38.989,38.989,0,0,0,24.305-9.139h.39c1.4,3.852,2.939,7.561,3.693,12.056-7.03,3.418-20.6,2.879-27.415-.389A11.24,11.24,0,0,1,1490,1071.2Zm2.722,6.223c2.24.236,4.934.857,7.78,1.166,6.113.666,13.708.081,18.082-2.138.158.036.193.193.388.193,1.68,9.518,1.172,21.659-1.945,29.166C1506.35,1098.928,1499.182,1088.533,1492.727,1077.423Z" transform="translate(-549.693 -345.988)"/><path class="i" d="M1586.881,1275.026c-.877-2.66-1.831-5.243-2.791-7.818a5.174,5.174,0,0,1-1.822,2.172c.8,2.169,1.572,4.36,2.28,6.618-2.231,1.334-8.257,3.042-7.584,7,.261,1.529,2.525,2.439,4.861,2.527,3.405.13,10.334-1.74,13.805-4.277,1.175-.857,2.873-2.857,2.722-4.277C1597.931,1272.971,1590.767,1274.454,1586.881,1275.026Zm3.5,6.027c-3.171,1.343-7.019,2.695-10.889,1.36,1.1-2.2,3.722-2.888,5.833-4.083.711.651.718,2,1.75,2.334.567-.212,1.15-.407,1.362-.973.208-1.051-.528-1.158-.388-2.138,1.931-.608,5.4-1.274,7.581-.39C1595.064,1279.143,1592.54,1280.14,1590.382,1281.053Z" transform="translate(-603.21 -470.871)"/><g transform="translate(565.824 615.734)"><path class="j" d="M708.007,825.428a29.236,29.236,0,0,1-2.721,4.861c-1.057,1.648-2.65,5.219-4.472,3.306.032-1.587,1.15-3.094,2.333-4.862C704.371,826.9,706.083,822.963,708.007,825.428Z" transform="translate(-650.453 -824.64)"/><path class="j" d="M1211.454,825.934c5.242-.833,11.541,3.152,10.306,9.139-.659,3.181-4.509,6.332-7.584,6.805a8.08,8.08,0,0,1-9.333-8.75C1205.192,829.955,1207.981,826.486,1211.454,825.934Z" transform="translate(-948.767 -825.341)"/><path class="j" d="M741.855,860.686c-2.066-.372-3.384-2.219-4.666-3.5s-2.865-2.619-3.5-4.472c1.614-2.157,3.9,1.181,5.834,3.111C741.049,857.351,743.49,859.266,741.855,860.686Z" transform="translate(-669.913 -840.842)"/><path class="j" d="M665.971,876.008c-1.838-.5-2.648-2.366-3.694-3.694-1.023-1.3-2.375-2.6-2.916-4.277.409-.434.647-1.038,1.555-.972a40.932,40.932,0,0,1,3.694,4.083C665.588,872.4,667.746,874.445,665.971,876.008Z" transform="translate(-625.917 -849.748)"/><path class="j" d="M1083.893,883.747a41.061,41.061,0,0,0,17.888,3.11,20.616,20.616,0,0,1,3.305-.194c-2.139,3.662-5.5,7.088-10.5,7-5.774-.1-8.9-4.612-10.5-9.333C1083.859,884.3,1083.924,883.976,1083.893,883.747Z" transform="translate(-877.206 -859.626)"/><path class="j" d="M705.811,885.259c-.231,2.334-1.814,4.2-2.918,6.028-.977,1.615-1.853,4.48-4.471,4.472-1.132-1.287.868-3.446,2.138-5.444C701.932,888.159,703.36,883.872,705.811,885.259Z" transform="translate(-648.84 -860.361)"/><path class="j" d="M789.675,889.1c-.034,1.57-1.424,2.655-2.334,3.695a80.89,80.89,0,0,0-5.444,6.417c-.772,1.088-1.256,2.82-2.916,2.916-.006-.189-.238-.151-.389-.194-1.105-2.124,1.706-4.651,3.694-7s3.79-4.828,5.444-6.026A1.24,1.24,0,0,1,789.675,889.1Z" transform="translate(-696.345 -862.449)"/><path class="j" d="M646.009,915.717c-.552,1.963-2.424,3.437-3.694,5.055-.554.705-1.251,1.75-1.945,2.527-.667.748-1.364,1.9-2.722,1.168-.8-1.472,1.167-3.183,2.527-4.862C641.736,917.682,643.879,913.517,646.009,915.717Z" transform="translate(-612.955 -878.18)"/><path class="j" d="M617.6,947.508c-2.054,1.408-3.614-1.475-4.862-2.721-1.44-1.441-3.5-2.757-3.888-4.667.212-.383,1.026-1.164,1.361-.778.1.048.3-.061.389,0a41.564,41.564,0,0,1,3.889,3.695C615.693,944.19,617.579,945.621,617.6,947.508Z" transform="translate(-596.021 -892.473)"/><path class="j" d="M869.475,941.312c-.275,2.481-1.722,4.679-2.723,6.805-.469,1-1.04,2.265-1.555,3.306-.483.973-.8,2.5-2.334,2.333-1.763-1.818.7-4.394,1.555-6.223,1.011-2.15,1.874-4.467,2.917-6.221C867.793,940.878,869.068,940.713,869.475,941.312Z" transform="translate(-746.006 -893.469)"/><path class="j" d="M683.356,951.691c-1.491-1.139.475-3.5,1.555-5.25,1.03-1.673,2.606-4.959,3.889-5.055,2.679-.2.631,2.737,0,3.694s-1.377,1.722-1.751,2.333C685.829,949.419,685.57,951.931,683.356,951.691Z" transform="translate(-639.802 -893.738)"/><path class="j" d="M734.1,954.587c-1.438,1.675-3.679-.415-5.054-1.555-.649-.539-1.377-1.278-2.139-1.945-.714-.624-3.734-3.227-.777-3.5,1.4-.128,3.108,2.344,4.278,3.305C732.162,952.338,733.936,952.691,734.1,954.587Z" transform="translate(-664.682 -897.412)"/><path class="j" d="M658.424,993.991c-1.4,1.183-2.276-.423-3.111-1.166-.883-.785-1.937-1.608-2.722-2.334-1.7-1.564-4.025-3.065-4.667-5.249.361-.431.877-.813,1.36-.584,1.586.752,3.274,2.5,5.25,4.277C656.277,990.5,658.928,992.095,658.424,993.991Z" transform="translate(-619.148 -919.317)"/><path class="j" d="M596.551,993.208c-2.269.383-3.62-2.047-5.055-3.305s-3.893-2.376-4.084-4.666c1.09-1.548,2.123-.031,3.5,1.166.861.749,1.911,1.419,2.527,1.945C595.192,989.843,597.466,991.519,596.551,993.208Z" transform="translate(-583.329 -919.311)"/><path class="j" d="M796.206,989.671c-1.736,4.259-3.619,9.43-5.638,14-.568,1.283-1.174,3.641-3.306,2.722-.677-1.432.674-2.857,1.362-4.473,1.144-2.686,2.333-5.809,3.5-8.749C792.9,991.2,794.237,986.95,796.206,989.671Z" transform="translate(-701.515 -921.802)"/><path class="j" d="M846.724,1011.169a.982.982,0,0,0-.583.583c-1.742.076-2.87-1.4-4.083-2.334a65.278,65.278,0,0,0-7.583-5.055c-1.23-.7-3.03-1.333-3.111-3.11.809-1.614,1.89-.352,3.111.388,1.9,1.152,3.953,2.207,5.833,3.5C842.966,1006.969,846.567,1008.514,846.724,1011.169Z" transform="translate(-727.729 -928.717)"/><path class="j" d="M690.641,1007.334c.4,1.58-.736,3.379-1.749,5.639-.81,1.8-2.246,6.069-4.278,4.083.838-3.958,2.75-6.842,4.473-9.917C689.645,1007.164,690.358,1007.034,690.641,1007.334Z" transform="translate(-640.864 -932.661)"/><path class="j" d="M902.177,1009.962c.466,1.239-.535,2.479-.972,3.89-.831,2.682-1.225,5.408-2.333,7.971-.491,1.135-1.017,2.738-2.721,1.945-.177-2.466,1.8-7.194,2.721-10.111C899.482,1011.719,899.761,1008.519,902.177,1009.962Z" transform="translate(-766.07 -934.121)"/><path class="j" d="M640.346,1026.517c.7,2.286-.7,5.1-1.555,7.388-.807,2.164-1.448,5.231-3.695,5.833-1.592-1.4.217-3.956,1.167-6.417.331-.857.9-2.06,1.361-3.3C638.295,1028.213,638.166,1025.838,640.346,1026.517Z" transform="translate(-611.181 -944.065)"/><path class="j" d="M589.5,1052.424c-.78-1.311.857-3.324,1.945-5.249,1.01-1.79,2.432-5.163,3.888-5.25,2.889-.176.41,2.73-.194,3.694-.639,1.018-1.149,1.972-1.556,2.721C592.523,1050.3,592.013,1053.023,589.5,1052.424Z" transform="translate(-584.443 -953.251)"/><path class="j" d="M827.19,1046.742a31,31,0,0,1-1.75,6.806c-.5,1.57-1.315,5.579-3.111,5.444-2.294-.172.129-4.478.583-5.833,1.042-3.1,1.455-5.107,2.528-7A1.794,1.794,0,0,1,827.19,1046.742Z" transform="translate(-721.805 -955.735)"/><path class="j" d="M715.629,1052.857c.01,2.238-.932,5.161-1.556,7.778-.279,1.177-.553,2.642-.972,3.888-.367,1.094-.925,2.708-2.527,2.335-1.074-.962-.12-2.185.195-3.306.966-3.446,1.55-7.62,2.917-10.7A1.515,1.515,0,0,1,715.629,1052.857Z" transform="translate(-655.937 -959.517)"/><path class="j" d="M872.978,1072.748c-.987,1.665-2.652.379-3.7-.2-2.277-1.256-4.2-2.367-6.61-3.889-.943-.6-2.8-1.566-2.722-2.528a1.018,1.018,0,0,1,1.361-.972,56.307,56.307,0,0,1,6.222,3.5C869.615,1069.868,872.433,1070.744,872.978,1072.748Z" transform="translate(-744.649 -966.963)"/><path class="j" d="M680.818,1079.544c-1.32,1.324-2.472-.84-3.5-2.138-.868-1.1-1.745-2.213-2.333-2.917-1.97-2.357-4.055-3.849-4.666-6.028,1.209-1.994,2.833.389,4.083,1.75,1.01,1.1,1.836,2.122,2.528,2.916C678.9,1075.386,681.2,1077.177,680.818,1079.544Z" transform="translate(-632.402 -968.51)"/><path class="j" d="M930.522,1075.506c.2,2.212-1.046,4.971-1.749,7.583-.528,1.961-.75,6.507-3.7,5.639-.473-1.823.779-4.175,1.556-6.806C927.448,1079.166,927.716,1074.339,930.522,1075.506Z" transform="translate(-783.138 -973.027)"/><path class="j" d="M590.045,1096.955c-1.4,1.262-2.821-.222-3.889-.972a42.676,42.676,0,0,1-3.306-2.722c-2.071-1.8-5.109-3.4-5.444-6.416,1.429-1.754,2.733.957,4.083,2.138a70.969,70.969,0,0,0,6.222,4.861C588.8,1094.619,590.405,1095.4,590.045,1096.955Z" transform="translate(-577.406 -979.504)"/><path class="j" d="M792.586,1096.2c-1.161,1.319-2.553.059-3.5-.583-2.108-1.43-3.823-2.644-6.222-4.278-.768-.523-4.831-3.009-1.749-3.693.995-.221,2.61,1.295,3.305,1.75,2.1,1.373,4.072,2.7,6.026,4.083C791.379,1094.139,792.864,1094.7,792.586,1096.2Z" transform="translate(-697.311 -980.305)"/><path class="j" d="M638.121,1089.361a58.054,58.054,0,0,1-2.333,10.3c-.373,1.066-.455,2.367-2.139,1.945-.85-2.118.227-4.489.778-6.61a26.794,26.794,0,0,1,1.944-6.029A1.7,1.7,0,0,1,638.121,1089.361Z" transform="translate(-610.51 -981.048)"/><path class="j" d="M851.923,1110.653a45.519,45.519,0,0,1-2.723,10.306c-.259.685-.569,2.582-1.944,2.333-1.98-.358-.05-4.012.583-6.027.988-3.141,1.328-5.652,2.528-7.194h.972A.986.986,0,0,0,851.923,1110.653Z" transform="translate(-736.62 -993.591)"/><path class="j" d="M732.5,1114.181c-.113,1.427-1.39,2.5-2.138,3.694-1.508,2.411-2.608,4.844-4.278,7.389-.645.982-1.372,2.809-3.11,2.14-.808-1.685,1.545-4.368,3.11-7,1.327-2.229,3.483-6.931,5.056-7A1.568,1.568,0,0,1,732.5,1114.181Z" transform="translate(-663.471 -995.564)"/><path class="j" d="M963.661,1129.234c-2.182.318-3.9-1.514-6.611-3.11-1.527-.9-5.965-2.631-5.25-4.668.13-.37.815-.925,1.361-.583,1.789,1.193,3.843,2.457,6.028,3.694C960.944,1125.561,964.273,1126.424,963.661,1129.234Z" transform="translate(-798.972 -999.923)"/><path class="j" d="M903.231,1142.482c-.749,1.563-2.59.618-3.889.193a75.993,75.993,0,0,1-8.167-2.917c-1.163-.527-3.15-1.325-2.722-2.722.1-.322.044-.646.779-.778.828-.148,2.712,1.255,3.5,1.555,1.312.5,2.69.783,3.888,1.167C899.5,1139.909,902.586,1140.378,903.231,1142.482Z" transform="translate(-761.486 -1009.087)"/><path class="j" d="M689.9,1156.56c-1.517.484-2.373-.814-3.306-1.556a46.177,46.177,0,0,0-6.222-4.083c-.448-.261-2.869-1.3-2.916-2.14-.154-2.679,3.89-.249,5.054.391,1.028.564,2.031,1.416,3.112,2.139C687.714,1152.7,691.15,1154.23,689.9,1156.56Z" transform="translate(-636.629 -1015.776)"/><path class="j" d="M593.964,1155.961c-.444-1.452,1.012-2.226,1.945-2.918a56.567,56.567,0,0,1,6.222-4.277c.929-.528,2.839-1.659,3.305-.194s-1.8,2.083-2.528,2.528c-.956.578-2.227,1.452-2.916,1.944C597.955,1154.492,596.464,1156.851,593.964,1155.961Z" transform="translate(-587.158 -1015.954)"/><path class="j" d="M635.8,1163.861c.248,1.3-.64,2.738-1.361,4.084-1.336,2.5-2.5,4.644-4.083,7.583-.676,1.257-1.81,3.569-3.305,2.722-1.085-1.932,1.424-4.711,2.917-7.39,1.475-2.644,2.435-5.543,3.888-7A1.478,1.478,0,0,1,635.8,1163.861Z" transform="translate(-606.637 -1025.217)"/><path class="j" d="M843.118,1174.615c-1.317.6-2.436-.394-3.695-.972a44.527,44.527,0,0,0-7.583-2.527c-1.87-.493-4.637-1.248-2.527-2.918,2.408.006,5.671,1.206,8.359,2.14C840.041,1171.16,843.863,1171.677,843.118,1174.615Z" transform="translate(-726.066 -1027.999)"/><path class="j" d="M682.293,1196.952c.715,1.288-.022,3.252-.194,5.249-.169,1.95-.282,4.121-.389,5.834-.08,1.279.266,4.646-1.75,4.277-1.312-.24-.835-1.722-.777-2.917.133-2.815.515-10.224,1.361-12.055C680.594,1196.693,681.813,1196.57,682.293,1196.952Z" transform="translate(-637.572 -1044.891)"/><path class="j" d="M721.3,1207.905c0-2.008,2.941-2.66,5.055-3.306,2.56-.781,4.812-1.379,6.611-2.138.4-.171,1.237.4,1.361.777.741,2.278-4.579,3.1-6.028,3.5-1.346.369-2.613.592-3.695.972C723.582,1208.072,722.271,1209.249,721.3,1207.905Z" transform="translate(-662.58 -1048.261)"/><path class="j" d="M791.393,1227.965c-.669,1.635-2.3,2.766-3.694,3.889-1.254,1.015-2.677,2.984-4.667,2.527-.709-1.751,1.372-3.115,2.528-4.082,1.458-1.22,3.024-2.392,4.278-3.5C790.813,1226.731,791.059,1227.392,791.393,1227.965Z" transform="translate(-699.035 -1062.684)"/><path class="j" d="M733.352,1250.843c.587,2.141-.073,4.689-.39,7.777-.2,1.95-.027,7.144-2.138,6.805-1.844-.3-.585-5.444-.388-7,.353-2.825.711-5,.971-7.388A1.891,1.891,0,0,1,733.352,1250.843Z" transform="translate(-667.631 -1076.81)"/><path class="j" d="M840.721,1255.15c-1.4,3.348-2.97,6.079-4.666,9.917-.262.591-.781,2.765-2.139,2.528-2.207-.385.391-4.761,1.166-6.416a30.85,30.85,0,0,1,3.889-6.806A1.465,1.465,0,0,1,840.721,1255.15Z" transform="translate(-728.724 -1078.98)"/><path class="j" d="M670.05,1266.78c-1.085,1.557-2.852.3-3.889-.388-2.354-1.563-4.15-3.242-6.416-5.055-1.037-.83-2.6-1.714-2.333-3.306.466-.283.737-.659,1.361-.388,2.581,1.116,5.923,4.678,8.749,6.61C668.558,1264.961,670.283,1265.3,670.05,1266.78Z" transform="translate(-624.746 -1080.887)"/><path class="j" d="M771.447,1286.034c.419,2.135-.9,4.663-1.555,7-.6,2.129-.533,5.733-3.111,5.444-1.244-1.089.1-3.732.778-6.027.584-1.982,1.323-6.276,2.528-6.611A3.267,3.267,0,0,1,771.447,1286.034Z" transform="translate(-689.2 -1097.613)"/><path class="j" d="M879.728,1288.089c1.065-.519,2.14.7,3.5,1.36,1.032.5,2.235.883,3.306,1.361,1.432.641,5.92,1.9,5.639,3.5-.43,2.455-5.7-.862-6.806-1.36-1.226-.554-2.207-.878-3.5-1.556C880.646,1290.755,877.4,1289.221,879.728,1288.089Z" transform="translate(-755.871 -1098.891)"/><path class="j" d="M944.291,1310.539c.138,2.194-.778,4.975-1.361,7.583-.25,1.119-.415,2.669-.778,3.888-.326,1.094-.719,2.547-2.333,2.139-1.173-1.751.237-4.34.777-6.61.571-2.4.918-5.2,1.75-6.807.068-.255.342-.3.389-.583A2.164,2.164,0,0,1,944.291,1310.539Z" transform="translate(-791.657 -1112.008)"/><path class="j" d="M815.112,1318.4a1.185,1.185,0,0,1,1.167-1.557c1.932.214,3.714,1.105,6.611,1.75,2.293.511,6.19.554,5.833,2.528-.366,2.024-5.6-.094-6.8-.388C819.048,1320.034,816.723,1319.8,815.112,1318.4Z" transform="translate(-718.087 -1115.984)"/><path class="j" d="M668.584,1318.729c-.031.226.043.346.2.389-1.047,3.074-2.165,6.535-3.306,10.11-.335,1.046-.67,2.623-2.333,2.14-.937-2.02.215-4.518.972-6.611.771-2.13,1.746-4.235,2.527-6.028A1.518,1.518,0,0,1,668.584,1318.729Z" transform="translate(-627.946 -1116.893)"/><path class="j" d="M720.912,1332.483c-1.588.983-2.452-.844-3.305-1.75-1.932-2.048-3.576-3.575-5.833-5.833-.6-.6-4.276-3.589-1.75-4.276,1.163-.317,2.685,1.728,3.5,2.527,1.793,1.756,4.049,3.678,5.834,5.639C720.307,1329.833,721.572,1331.172,720.912,1332.483Z" transform="translate(-655.386 -1118.203)"/><path class="j" d="M888.268,1331.977c.1,2.066-.984,4.6-1.749,6.8-.332.954-.733,2.292-1.168,3.306-.446,1.039-1,2.365-2.527,1.944-.971-1.605.455-3.844,1.167-5.834a52.058,52.058,0,0,1,2.333-6.026c.069-.256.343-.306.388-.584A1.717,1.717,0,0,1,888.268,1331.977Z" transform="translate(-757.995 -1124.696)"/><path class="j" d="M787.872,1359.962c-1.63,1.242-3.667-.792-6.417-1.944-2.2-.924-8.211-1.972-5.444-4.473a45.1,45.1,0,0,1,6.8,2.529C784.868,1356.9,787.853,1357.452,787.872,1359.962Z" transform="translate(-694.542 -1137.709)"/><path class="j" d="M778.5,1502.725a44.281,44.281,0,0,1-1.751,5.834c-.562,1.908-.556,4.287-2.138,5.444-2.391-.648-1-3.65-.389-5.639a39.614,39.614,0,0,1,2.139-5.833c.047-.211.386-.132.388-.388A1.8,1.8,0,0,1,778.5,1502.725Z" transform="translate(-693.337 -1225.64)"/><path class="j" d="M817.9,1520.889c-1.8.1-2.544-1.462-3.5-2.333-1.973-1.8-3.618-3.229-5.834-5.444-.344-.345-4.241-3.536-1.75-4.278.971-.29,2.8,1.678,3.694,2.527,1.876,1.774,4.128,3.932,6.223,5.835C817.864,1518.221,819.3,1519.7,817.9,1520.889Z" transform="translate(-712.71 -1229.611)"/></g></g></svg>