<svg xmlns="http://www.w3.org/2000/svg" width="408" height="315.937" viewBox="0 0 408 315.937"><defs><style>.a{fill:#a4d0c6;}.a,.b,.c,.d,.e,.f,.g,.h,.i,.j,.k,.l,.m,.n,.o,.p{fill-rule:evenodd;}.b{fill:#537d72;}.c{fill:#e0ac01;}.d{fill:#63965f;}.e{fill:#ab9149;}.f{fill:#fec405;}.g{fill:#81a97e;}.h{fill:#ffd9c0;}.i{fill:#fff;}.j{fill:#414042;}.k{fill:#f28562;}.l{fill:#fd9b76;}.m{fill:#ebca6e;}.n{fill:#9f802b;}.o{fill:#f15b40;}.p{fill:#deaf29;}</style></defs><g transform="translate(-1569.869 -221.993)"><g transform="translate(1761.564 451.802)"><path class="a" d="M1990.858,696.86c-2.382.179-4.9.7-7.142.692-4.7,0-9.388-.922-14.28-.922-14.674,0-28.82-3.2-42.151-3.915-1.291-.627-1.745-1.9-2.763-3.226-.959-1.25-2.474-2.064-2.073-4.145.322-1.674,4.969-3.67,7.371-5.067,3.063-1.781,6.078-3.076,8.291-4.375,5.353-3.145,11.368-6.032,16.584-8.755,5.81-3.032,11.773-5.294,17.274-8.061,4.254-2.139,8.9-3.792,13.359-5.528,1.527-.594,2.916-1.577,4.375-2.072.9-.307,2.463-.344,3.225-.691,1.186-.542,1.992-1.682,2.994-2.3,5.316-3.3,14.957-4.4,24.185-3.686a73.766,73.766,0,0,1,14.972,2.535c2.2.655,4.422,1.04,6.679,1.612,2.113.536,4.042,1.672,6.218,2.3,4.481,1.3,9.225,1,13.128,3.224,1,0,.329,1.669,1.153,1.844,5.744,1.934,10.559,4.8,15.432,7.6.989-.008.774-1.222,2.074-.922,4.412,4.5,9.877,7.934,15.661,11.056a1.769,1.769,0,0,1,.231-2.072,10.376,10.376,0,0,0,3.916.46c-.138,2.526.739,4.5.922,6.91a34.748,34.748,0,0,1-8.293,25.336c-1.437,1.748-3.4,2.966-4.146,5.067-2.321.843-4.184,2.609-6.22,3.916a46.591,46.591,0,0,1-22.8,7.83c-14.889.827-23.917-4.4-32.015-11.055a79.983,79.983,0,0,1-9.443-8.521c-2.908-3.325-5.127-7.175-8.29-9.9A55.847,55.847,0,0,1,1990.858,696.86Zm17.734-17.5c-.648.441.317,1.2.23,1.842C2009.42,680.8,2008.921,679.583,2008.591,679.355Z" transform="translate(-1922.383 -644.596)"/></g><g transform="translate(1813.224 462.579)"><path class="b" d="M2028.395,665.132c2.077,2.482,5.73,4.465,9.213,5.99,1.027.45,2.351,1.534,3.455.69-.959-2.119-3.986-2.623-5.988-3.685-2.1-1.112-3.832-2.652-5.76-3.686C2028.575,664.239,2029,665.2,2028.395,665.132Z" transform="translate(-2022.405 -664.414)"/><path class="b" d="M2017.381,670.4c.62,1.993,2.754,3.62,4.607,4.837,1.73,1.138,4.384,2.767,6.679,1.843-1.212-1.63-3.406-2.035-5.067-2.994a16.045,16.045,0,0,1-5.069-4.146C2017.8,669.74,2017.82,670.3,2017.381,670.4Z" transform="translate(-2017.381 -666.915)"/><path class="b" d="M2203.665,684.6c-.053,2.311,1.59,4.212,2.3,6.451a28.31,28.31,0,0,1,1.382,11.285c-.375,3.656-2.166,7.164-3.686,10.134a25.4,25.4,0,0,1-2.534,4.377c-.953,1.165-3.043,1.879-2.533,3.685,1.81.334,2.878-1.7,3.916-2.994,2.3-2.875,3.587-5.679,5.068-9.905a21.839,21.839,0,0,0,1.612-5.987,32.8,32.8,0,0,0-4.376-16.814c-.056-.252-.457-.157-.461-.461C2203.983,684.3,2203.958,684.583,2203.665,684.6Z" transform="translate(-2100.017 -673.511)"/><path class="b" d="M2221.852,701.123c.381,3.077,1.669,6.251,1.611,9.9a23.137,23.137,0,0,1-2.994,10.6c-.437.763-1.952,1.507-.922,2.533,1.863.047,2.908-2.488,3.685-4.375,2.009-4.887,2.7-12.987,0-18.426-.185-.2-.632-.136-.691-.459A1.085,1.085,0,0,1,2221.852,701.123Z" transform="translate(-2109.45 -681.057)"/></g><g transform="translate(1578.289 391.207)"><path class="c" d="M1671.121,533.166h-.461c-1.284,2.3-.69,5.244-.693,7.83,0,31.432-.689,63.953-.689,95.817,0,10,.219,20.02-.23,30.4-.05,1.116-.433,2.36,0,3.454,9.636.346,18.858,1.1,28.789,1.153V534.777c-8.8-.183-17.574-.39-26.027-.922A1.164,1.164,0,0,0,1671.121,533.166Z" transform="translate(-1623.442 -533.166)"/><path class="d" d="M1960.717,555.19c-.88,1.56-2.372,7.372-3.225,10.594a14.415,14.415,0,0,0-.692,3.455c.173.99,2.517,2.579,4.146,3.917,20.862,17.105,40.9,33.494,61.96,50.672,1.588,1.3,3.2,3.122,4.375,3.454,2.521.708,6.755-.067,10.365-.23,17.954-.815,35.643-.553,53.206-1.383,6.1-.287,12.645-.41,18.657-.46.538,0,1.171.644,1.612,0,.329-4.515.233-11.223.46-16.585-4.245-.756-8.57-.309-13.357-.46-1.4-.044-2.848-.494-4.147-.46-1.961.05-3.744.93-5.528.92-2.577-.012-5.358-1.091-8.061-1.152-1.429-.03-2.819.35-4.377.462-1.813.129-3.752-.153-5.527,0-2,.173-4.027.979-5.99,1.152-1.622.141-3.391-.126-5.067,0-1.434.107-2.816.64-4.145.691-1.252.046-2.53-.258-3.687-.231-1.378.033-2.645.449-3.914.462-1.411.013-2.99-.457-4.608-.462-4.417-.012-8.861,1.934-12.206,1.382-1.763-.291-4.166-2.716-6.451-4.376-2.327-1.694-4.578-3.2-6.219-4.606-1.99-1.708-3.73-3.592-5.527-5.3-1.916-1.818-3.958-3.337-5.758-4.837-1.911-1.593-3.852-3.212-5.759-5.068a53.735,53.735,0,0,0-5.526-5.3c-2.125-1.544-4.432-2.853-6.45-4.376-2.079-1.57-3.635-3.56-5.529-5.069-1.294-1.03-2.967-1.861-4.375-2.764s-3.016-1.594-4.377-2.533c-2.245-1.549-4.172-4.052-6.449-5.758C1965.746,558.846,1962.862,557.478,1960.717,555.19Z" transform="translate(-1754.803 -543.214)"/><path class="e" d="M1586.042,601.764c-.508-.127-.326.439-.69.461C1585.445,602.8,1586.407,602.4,1586.042,601.764Z" transform="translate(-1585.352 -564.452)"/></g><g transform="translate(1652.825 392.818)"><path class="f" d="M1722.971,536.128c-.852.707-.463,2.426-.463,3.916V673.173c10.918-.194,21.113-.033,31.1-.691,9.564-.63,18.77-2.5,28.1-3.455a299.545,299.545,0,0,1,29.941-1.842c4.5,0,10.389.056,15.893,0,5.155-.054,10.827-.1,13.591-2.074,2.1-1.5,3.386-6.029,3.686-8.983a52.042,52.042,0,0,0-.232-6.909c-1.241-26.049-.119-53.866-1.382-80.385-.354-7.449-.23-14.929-.23-22.111,0-1.224-.047-2.47,0-3.685.034-.893.547-1.916,0-2.764C1803.092,538.77,1762.763,537.719,1722.971,536.128Z" transform="translate(-1722.42 -536.128)"/><path class="g" d="M2114.732,602.753c.757.168.354-.457,0-.46-3.534-3.486-7.821-6.446-11.977-9.675-9.935-7.716-20.031-15.989-30.172-23.955a69.739,69.739,0,0,1-5.99-4.6,41.509,41.509,0,0,0-4.146-3.917c-5.313-4.126-10.707-7.974-16.353-12.437a22.524,22.524,0,0,1-2.535-2.073c-.522-.832.612-1.527-.46-2.3-25.005,2.033-51.988,4.049-77.621,6.219-1.125.492,1.62,1.618,1.613,1.612.325.261.762.833,1.152,1.153,1.4,1.151,3.146,2.156,4.836,3.455,1.939,1.486,3.7,3.6,5.758,5.066,2.843,2.024,6.084,3.447,8.752,5.527,1.953,1.525,3.689,3.506,5.76,5.068s4.332,2.84,6.448,4.377a52.857,52.857,0,0,1,5.526,5.3c1.785,1.736,3.664,3.505,5.529,5.066,1.9,1.594,4.026,2.975,5.989,4.838,1.735,1.649,3.457,3.524,5.527,5.3,1.689,1.45,3.8,2.846,6.219,4.607,2.115,1.539,4.725,4.1,6.219,4.378,2.162.4,4.724-.707,7.6-1.153,3.124-.484,6.35.258,9.213.231,1.04-.011,2.065-.4,3.224-.46,1.248-.07,2.636.264,3.914.229,1.329-.035,2.564-.577,3.918-.692,1.719-.145,3.559.133,5.3,0,2.049-.155,3.951-.953,5.989-1.151,1.983-.193,3.828.139,5.758,0,1.145-.082,2.214-.414,3.227-.46,3.072-.141,5.448.93,8.521,1.151,2.281.165,4.215-.847,6.22-.922.99-.035,2.154.385,3.224.462C2105.787,602.872,2111.647,602.165,2114.732,602.753Z" transform="translate(-1833.181 -539.413)"/></g><g transform="translate(1569.869 297.906)"><path class="h" d="M2097.432,361.609a1.015,1.015,0,0,0,.922.461C2098.3,361.665,2097.957,361.544,2097.432,361.609Z" transform="translate(-1810.546 -361.593)"/><path class="i" d="M1763.875,555.19c1.034,3.474.182,10.3.461,14.971,4.793-.2,9.915-.068,14.511-.461.237-2.716-.225-5.727-.232-8.521,0-1.934-.3-4.73,1.383-5.529,1.147,3.919-.126,10.26.921,14.28,4.867-.047,9.983.155,14.511-.229a43.139,43.139,0,0,1-.229-7.371c0-2.438-.754-5.862,1.151-6.679,1.009,2.391.22,5.578.461,8.522a35.692,35.692,0,0,1,.23,5.529c5.067-.153,10.75.305,15.433-.23a75.96,75.96,0,0,1-.231-8.291c0-1.824-.544-4.195.922-4.836,1.947,2.886.244,9.428,1.151,13.357,4.61-.151,9.823.3,14.05-.23a80.923,80.923,0,0,1-.23-8.754c-.048-1.714-.706-4.088.92-4.373,1,1.439.841,3.9.922,6.217.085,2.484-.248,5.094.23,7.14h5.758c1.974,0,4.53-.546,4.377,1.151-2.4,1.2-7.353-.134-10.135.692-.014,6.078.078,12.053.461,17.734,2.919.555,8.623-1.231,9.674,1.154-1.924,1.6-7.026.036-9.674.92-.027,5.786.043,11.473.46,16.814,2.29.079,5.461-.106,7.6,0,.647.031,2.219-.457,2.073.69-.471,1.485-2.8.922-4.606.922-1.911,0-3.964-.176-5.3.231.526,4.925-.025,10.926.691,15.661,2.288.4,5.113-.43,7.142-.23.908.089,2.118.129,2.3,1.152-1.871,1.659-7.063,0-9.674.922.389,5.753-.01,12.293.692,17.734,2.9.1,6.138-.15,8.292.691-1.166,2.568-6.026.042-8.522,1.152.277,3.911.118,8.741.23,12.668.041,1.412.648,2.781-.462,3.685-1.835-.5-1.079-3.028-1.151-4.607-.178-3.91-.033-8.847-.692-11.976-4.5-.415-9.529-.3-14.048-.691-.033,4.856.229,10.49.229,15.431,0,2.095.677,4.8-.922,5.758-1.082-1.871-.881-4.562-.922-7.139-.076-5.045.079-10.018-.461-14.282-5.383.011-10.21-.538-15.431-.691-.269,6.041-.179,13.4-.461,19.808-.112,2.575.8,6.26-1.15,7.831-1.357-1.795-.564-4.6-.461-6.909.291-6.637-.146-14.162.229-20.731-4.611-.15-10.118-.629-14.51-.231-.17,6.649-.606,12.97-.922,19.118-.073,1.448.277,3.522-.921,4.376-1.876-.695-1.015-3.437-.922-5.067.344-6.065,1.127-12.97.692-18.656-5.5-.109-10.864-.345-16.585-.231-.515,7.091-1.326,15.3-2.073,22.342-.235,2.209.41,5.369-1.843,6.448-.848-2.063,0-4.486.232-6.678.76-7.289,1.215-14.879,1.842-22.112-5.469.242-10.95-.712-16.123,0-1.091,9.2-1.388,19.572-2.3,28.79-.108,1.089.061,2.938-1.381,3.226-1.164-2.2-.436-5.03-.231-7.6.65-8.154,1.492-16.573,2.073-24.415-2.743-.078-6.16.333-8.981.231-1.161-.041-2.945.469-3.225-.922.425-.78,1.458-.808,2.3-.92,2.948-.395,7.087.174,10.134-.229.228-4.769,1.1-10.1.692-14.742a43.351,43.351,0,0,1-7.14.23c-2.479,0-5.315.611-6.45-.921,2.977-2.013,9.774-.2,13.82-1.153.122-5.409.54-11.736.459-16.582-2.033.076-4.441-.1-6.679,0-1.934.087-4.327,1.106-4.835-.692,1.458-1.336,4.459-1.032,7.139-1.151,1.523-.066,3.176.05,4.607,0-.154-5.682.306-11.978-.232-17.274-1.881,0-4.133,0-6.217,0-2.117,0-4.311.425-5.529-.691.37-1.455,2.308-1.119,3.917-1.152,2.9-.059,6.175.232,8.06,0-.154-5.377.306-11.364-.232-16.354-3.225.107-6.806.232-10.133.231-1.829,0-3.692.337-5.066-.462.819-2.252,4.389-1.382,7.138-1.382,3.049,0,6.209.124,8.293-.46-.151-2.975.1-6.454.23-9.445.083-1.88-.6-4.338.691-5.067,1.526.581.922,4.093.922,6.679,0,2.867-.183,6.012.229,8.062,5.043-.176,10.867.426,15.2-.461.161-4.981-.448-10.732.688-14.74Zm50.442,16.353c-.17,6.082.27,11.553.23,17.5,4.306.455,9.385.136,14.05.229.194-5.112-.249-11.569-.23-17.274a.629.629,0,0,0-.461-.69C1823.637,571.649,1818.907,571.526,1814.317,571.543Zm-17.044,0c.055,5.933.335,11.639.46,17.5H1812.7c.016-6-.068-11.909-.46-17.5Zm-16.584.229q.577,8.291.691,17.045c4.38.533,9.746.081,14.51.23.041-6.029-.415-11.562-.461-17.5C1790.172,571.649,1785.767,571.351,1780.689,571.772Zm-16.354.231c-.108,5.791.408,10.954.23,16.815h15.2c-.4-5.515-.6-11.227-.692-17.045C1774.047,571.733,1769.079,571.757,1764.335,572Zm-17.273.231c.149,5.453-.305,11.513.229,16.584h15.432c-.06-5.7.226-11.743-.461-16.815C1757.106,571.99,1752.369,572.4,1747.062,572.234Zm.229,18.2c-.534,5.3-.08,11.59-.229,17.274,5.3-.078,10.389.05,15.433.231.531-5.3.077-11.592.228-17.275C1757.575,590.586,1752.088,590.854,1747.291,590.43Zm34.319.229c.013,5.822.306,11.364.461,17.045,5.108.039,9.734.01,14.05-.232.154-5.759-.219-10.991-.232-16.583C1790.956,590.989,1786.307,590.8,1781.61,590.66Zm-17.044,0V607.7h15.662c-.05-5.555-.36-10.849-.46-16.354a.628.628,0,0,0-.461-.691Zm49.981.461c.434,5.248-.025,11.387.46,16.584,4.838-.076,9.113.407,14.051.231.179-5.86-.324-11.039-.23-16.814C1823.9,591.433,1819.081,590.434,1814.547,591.121Zm-16.814-.232c-.149,5.755.4,10.814.23,16.583,5.268-.123,9.882.407,15.2.232-.5-5.338.278-11.948-.691-16.815Zm.23,18.658c.327,4.97.221,10.375.23,15.662h15.2c.172-5.468-.27-10.324-.229-15.662C1808.069,609.724,1802.819,608.845,1797.963,609.547Zm-15.892,0c.379,5.073-.024,10.924.461,15.893,4.209-.475,9.244-.123,13.819-.231V609.547C1791.982,609.025,1786.5,609.367,1782.071,609.547Zm32.936,0c-.176,5.475.342,10.254.232,15.662,4.81.026,9.292.381,14.278.231.127-5.424-.4-10.188-.229-15.662C1824.384,609.845,1820.023,609.37,1815.007,609.547Zm-50.441,0c-.387,5.14-.263,10.793-.46,16.122,5.426-.1,10.707-.347,16.352-.23-.2-5.25.465-11.365-.459-15.893Zm-17.735,0c.066,5.749-.488,10.875-.46,16.582,5.288-.161,10.681-.219,15.891-.46.2-5.1.208-10.387.461-15.432a.628.628,0,0,0-.461-.691Zm68.408,17.505c.384,5.527.06,11.763.46,17.275q6.981.5,14.279.689c-.091-5.973-.122-12.007-.462-17.734C1824.509,627.454,1820.211,626.915,1815.239,627.052Zm-17.046,0v16.354c5.069.233,11.025.79,15.664.691-.129-5.4-.337-10.721-.233-16.355-.2-.186-.135-.63-.458-.69Zm-15.892.23c.171,5.468-.272,10.324-.23,15.662,4.687.226,9.58.246,14.28.461V627.052C1791.742,627.2,1786.527,626.751,1782.3,627.282Zm-18.426.232c-.013,5.283-.256,10.339-.691,15.2,5.934-.179,11.17.346,17.045.229.1-5.193.347-10.248.229-15.662C1774.875,627.3,1769.135,627.166,1763.875,627.514Zm-17.5.459c-.271,4.873-.53,9.759-.922,14.51,4.609-.091,10.469.387,15.892.232a139.84,139.84,0,0,0,.691-15.2C1756.8,627.657,1751.551,627.782,1746.371,627.973Z" transform="translate(-1642.825 -449.913)"/><path class="a" d="M1570.228,515.777c-1.2-7.722.886-14.8,2.073-21.421a92.092,92.092,0,0,1,5.528-18.657c4.76-11.763,12.8-19.051,24.184-23.954-.661-1.513-2.128-3.666-1.842-6.45.344-3.345,4.021-6.018,8.523-7.139,9.865-2.458,18.7-.436,27.64.692a120.021,120.021,0,0,0,26.948.691c4.412-.468,8.586-1.441,12.9-1.382,2.219.03,4.51.549,6.68.46,1.252-.051,2.51-.594,3.687-.46,5.285.6,9,8.29,8.06,14.281-.293,1.875-1.264,3.206-1.611,4.837a45.409,45.409,0,0,1,24.644,17.5c3.792,5.232,7.677,11.129,9.214,18.2-24.52-.74-49.292-1.228-73.936-1.842-1.151-.351.544-1.432-.459-1.382-5.038-1.064-7.876.815-11.516,1.151-.775,1.761-2.625,1.967-4.375,2.763-3.055,1.389-6.126,2.853-8.752,4.377-2.9,5.528-2.116,13.873-2.3,21.65-.861,35.5-.657,72.7-1.612,107.564-1.834-.552-3.424-2.029-5.069-3.225a63.975,63.975,0,0,1-5.3-3.686c-2.258-2.057-4.326-5.28-6.91-8.061a51.56,51.56,0,0,1-8.753-13.128,42.062,42.062,0,0,0-2.3-4.378c-4.431-6.93-5.779-15.828-9.9-23.492C1574.64,550.814,1570.228,515.777,1570.228,515.777Zm53.435-.461c-.562.849-.335,1.763-.459,3.225-.566,6.617-4.435,9.735-7.6,14.049C1619.882,528.425,1623.68,523.779,1623.663,515.316Zm0,9.674c-.249.056-.156.458-.459.461C1623.3,526.089,1623.927,525.462,1623.663,524.99Z" transform="translate(-1569.869 -395.99)"/><path class="j" d="M1955.5,400.468c-.666-1.678-2.41-5.014-2.073-6.91.094-.535.5-.735,1.152-1.612a13.927,13.927,0,0,1,5.067-4.376,197.266,197.266,0,0,1,22.342-11.056c3.387-1.487,6.711-3.5,9.9-3.455,4.244.065,5.731,3.771,7.371,6.448,1.479,2.412,2.143,4.222,5.069,5.76,4.767-4.747,11.585-7.288,19.807-8.524a72.479,72.479,0,0,1,19.348,0,40.9,40.9,0,0,1,9.443,2.073c2.861,1.123,5.363,3.113,8.063,4.146,2.422.929,4.991,1.5,7.37,2.3a155.657,155.657,0,0,1,44.914,24.183,89.174,89.174,0,0,1,10.595,8.984c3.1,3.227,5.738,7.11,8.753,11.056a66.31,66.31,0,0,1,7.138,12.666c3.187,7.086,4.9,13.282,3.227,20.731-.394,1.76-.512,3.7-.922,5.3a30.457,30.457,0,0,1-3.915,8.292c-4.012,6.2-9.35,12.329-15.433,16.123-4.086,2.546-8.283,3.765-13.359,5.528,6.242,11.079,6.864,29.869,1.382,41.229a48.489,48.489,0,0,1-3.686,5.988c-1.288,1.924-2.3,4.369-4.377,5.3-1.349-.039-2.926.416-4.144.228-3.253-.495-6.315-3.676-8.293-5.527-.8-.743-2.49-1.295-1.842-2.533,4.092-.363,8.638-.268,12.207-1.152.923-5.156,1.371-12.288.23-17.5-7.761-6.435-16.453-12.847-23.954-19.579-2.65-2.379-5.9-3.94-8.062-6.448-1.222-1.415-1.921-3.259-3.455-4.377-4.132-3.008-9.846-3.284-13.589-7.14-.476-1.493,1.464-1.475.921-2.3-3.1-4.8-6.321-8.9-9.443-14.051-.993-1.641-2.186-3.993-3.454-4.377-1.139-.345-3.506.085-5.528.231-27.672,1.983-58.043,3.429-84.071,5.527a11.4,11.4,0,0,0-2.532,4.838c-.189.77-.065,1.692-.231,2.534-.452,2.3-1.7,4.636-1.843,7.139,4.111,3.49,8.346,6.78,12.437,10.364,10.111,8.857,21.047,17.495,31.324,25.8,2.107,1.7,4.812,2.926,5.991,5.529-13.244,5.029-25.161,11.383-38.465,16.353-5.042-17.132-10.713-34.661-14.741-53.9-4-19.1-11.756-42.195-7.832-64.952,1.724-2.755,2.1-5.616,4.145-7.83,1.613-1.745,4.534-3.017,7.141-4.608.574-.349,1.207-.836,1.843-1.151.7-.345,1.541-.32,2.3-.691,1.343-.654,2.506-1.743,3.685-2.3,1.527-.725,3.324-1.02,4.605-2.074C1957.326,404.772,1956.436,402.836,1955.5,400.468Zm128.983-3.686c.812.8,2.086,1.14,2.765,2.073.233-.149.238-.529.69-.461A13.769,13.769,0,0,0,2084.481,396.782Zm46.526,35.7c-.77.209-.2.516,0,.922C2131.7,433.254,2130.787,432.912,2131.007,432.482Zm-195.779,1.382c-.526.4-.084,1.759-.23,2.533C1935.969,436.319,1935.32,434.366,1935.228,433.864Zm196.7,46.3c-.312-.371-1.04.789-1.613.921C2130.762,482.146,2131.464,480.5,2131.928,480.161Zm-182.881,25.566c-.538-.115.262,2.113.461,2.762C1950.115,507.719,1948.912,506.791,1949.047,505.727Z" transform="translate(-1735.636 -366.823)"/></g><g transform="translate(1583.575 316.35)"><path class="i" d="M1980.107,416.7c1.13,2.069,4.734.96,6.91.69,6.763-.836,13.358-3.659,18.428-6.449,7.2-3.963,13.522-9.526,18.886-14.509.066-.373-.218-.4-.232-.691-.186-.045-.228-.232-.459-.231h-.461c-10.726,8.683-21.631,19.123-39.846,20.5C1982.374,416.079,1980.841,415.5,1980.107,416.7Z" transform="translate(-1770.728 -395.509)"/><path class="i" d="M2104.266,401.45c.151,1.3,1.385,1.226,1.613,2.3.582,2.741-3.556,7.244-5.066,8.523-3.768,3.187-8.44,5.331-10.365,10.135a7.837,7.837,0,0,0-.46,5.3c2.513-1.03,1.386-2.188,1.842-3.685,1.561-5.12,6.865-7.345,10.594-10.825,1.569-1.464,4.669-5.39,5.068-7.832.41-2.526-.479-3.572-2.3-4.376C2104.559,400.823,2104.725,401.447,2104.266,401.45Z" transform="translate(-1820.722 -397.996)"/><path class="i" d="M2074.219,404.846c-.657.882.974,1.069,1.153,1.842-.866,5.748-9.337,7.418-12.44,11.516a9.91,9.91,0,0,0-1.611,4.145c-.109.905-.444,2.763.691,3.685,2.163-1.7.881-3.134,1.383-4.836a5.7,5.7,0,0,1,.921-1.613c2.559-3.5,9.065-5.96,11.284-8.752a6.686,6.686,0,0,0,1.384-3.685C2076.976,405.678,2076.063,403.351,2074.219,404.846Z" transform="translate(-1807.719 -399.549)"/><path class="i" d="M2104.247,428.121c-.3.081-.362.406-.691.461,1.1,4.477-.485,6.884-2.764,9.674a30.277,30.277,0,0,1-2.992,3.684c-3.175,2.709-6.105,3.785-6.911,8.984-.173,1.11-.51,2.853.23,4.146,2.285-1.356,1.389-4.726,2.3-6.679,1.047-2.234,3.438-3.282,5.527-5.067,1.867-1.593,6.008-6.6,6.451-9.675a13.625,13.625,0,0,0-.463-5.066A.632.632,0,0,1,2104.247,428.121Z" transform="translate(-1821.163 -410.387)"/><path class="i" d="M2073.128,431.51c-1.351.689-.581,1.713-.923,2.764a14.893,14.893,0,0,1-3.916,5.528c-1.384,1.238-3.108,1.594-4.375,2.533a12.176,12.176,0,0,0-4.377,8.062c-.159,1.341-.768,3.623.922,4.377,1.39-1.24.769-2.908.92-4.147a9.788,9.788,0,0,1,3.917-7.141c.921-.668,2.247-.858,3.224-1.612a21.722,21.722,0,0,0,5.068-6.449C2074.116,434.046,2074.3,432.322,2073.128,431.51Z" transform="translate(-1806.856 -411.933)"/><path class="i" d="M2034.421,432.356c-.623.708-.256,1.55-.462,2.3a14.046,14.046,0,0,1-3.914,6.219c-3.883,3.432-10.86,5.773-8.752,13.819,2.708-.749,1.262-3.493,1.843-5.3.931-2.894,5.292-4.982,7.6-6.91a16.291,16.291,0,0,0,2.995-3.916C2034.723,436.942,2037.363,433.41,2034.421,432.356Z" transform="translate(-1789.34 -412.319)"/><path class="j" d="M1632.79,454.925a.631.631,0,0,1,.692.463c1.64-.818,1.984-2.6,2.993-3.916,2.173-2.84,5.319-4.09,10.136-4.376a1.614,1.614,0,0,0-1.613-1.612C1639.725,446.04,1633.564,449.527,1632.79,454.925Z" transform="translate(-1612.28 -418.305)"/><path class="j" d="M1711.279,446.6c.115,1.482,1.672,1.609,2.534,2.533,3.533,3.779,2.8,9.305,1.383,14.971-.154.612-.129,1.626-.232,1.842-1.609,3.375-7.295,5.156-9.674,7.832,1.36-4.817,2.416-13.6-.23-18.2-.273-.473-1.111-1.832-1.842-2.073-1.26-.417-2.432-.053-2.533.691-.1.723,2.04.88,2.533,1.383,1.478,1.5,2.029,6.6,1.842,9.672-.156,2.531-1.328,5.853-1.613,8.062-.047.37-.288.526-.23.921.029.2.55.484.46.692-.466,1.071-2.706,1.94-3.915,2.763-1.437.978-2.476,2.079-3.916,2.535.78-4.473,3.308-10.809,3.225-16.123-.024-1.562-.315-4.908-2.3-4.607,1.768,7.3-1.992,15.442-2.766,21.651a7.406,7.406,0,0,1-3.914,1.382c.385-4.073,2.47-10.255,1.614-14.971a3.268,3.268,0,0,0-1.614-2.535c-.976,1.117-.072,2.564,0,3.916.25,4.712-1.315,9.953-2.072,14.05-8.927,1.044-15.542-2.079-21.884-4.376-.169-.638.351-1.189.461-2.073.47-3.733-.2-8.719.692-11.977.327-1.194,1.458-2.257.69-3.224-.876-.246-.99.589-1.382,1.151-1.813,2.6-1.972,9.826-1.841,15.2-3.4-.974-5.574-3.179-8.524-4.606.1-2.994-.781-6.8,0-9.9.575-2.282,2.734-3.256,2.3-5.068-2.665.337-4.1,4.086-4.375,7.371a36.3,36.3,0,0,0,.23,6.22c-3.928-1.833-6.843-4.675-10.365-6.911.242-5.492,2.177-8.432,6.218-10.134,1.3-.548,3.672-.316,4.147-2.3-6.839-.078-11.545,3.961-11.979,11.055-3.381-1.849-6.977-4.647-10.6-6.679-1-.56-2.588-1.725-3.684-.46.585,1.284,2.184,1.447,3.226,2.072,7.432,4.46,14.464,10.069,22.111,14.972,4.123,2.642,8.552,5.588,13.588,7.6,6.084,2.43,12.843,4.817,20.73,3.916,6.614-.758,11.5-4.283,16.355-7.832,4.713-3.449,9.585-6.906,13.127-10.826-.418-3.523,1.237-6.517,1.152-9.672a12.8,12.8,0,0,0-6.219-10.6c-.2-.041-.218.09-.232.23A.629.629,0,0,0,1711.279,446.6Z" transform="translate(-1610.154 -418.496)"/><path class="i" d="M1968.274,469.53c1.52-.276,1.544-2,1.842-2.994.71-2.37,1.21-4.67,2.994-6.219,1.943-1.683,5.154-2.852,7.6-4.146,2.35-1.239,5.659-2.234,5.76-5.757a1.164,1.164,0,0,1-.692-.692c-.837.008-1.012.677-.922,1.613-3.039,4.286-10.911,4.617-14.28,8.982a15.841,15.841,0,0,0-1.842,4.608C1968.286,466.4,1967.166,468.326,1968.274,469.53Z" transform="translate(-1765.113 -420.241)"/><path class="i" d="M2036.629,453.526c-.268-.038-.411.052-.462.23-.928,3.1-1.082,6.423-2.993,8.754-1.229,1.5-3.746,2.05-5.3,3.224-2.6,1.97-4.222,5.369-3.457,10.365.141.908-.04,2.839,1.384,2.764,1.5-1.314-.282-4.4.229-7.14a9.008,9.008,0,0,1,3.224-4.837c1.655-1.21,3.869-1.6,5.3-3.454,1.923-2.494,2.335-4.965,2.765-8.983A3.8,3.8,0,0,1,2036.629,453.526Z" transform="translate(-1790.857 -421.973)"/><path class="i" d="M2071.119,456.723c.635,6.724-3.521,8.2-7.14,11.515-3.3,3.02-4.789,4.788-4.836,10.826-.009.974-.58,2.015.229,2.764,2.372-.641,1.29-4.419,1.613-6.449.48-3.034,4.748-6.312,7.14-8.522,2.354-2.172,5.446-4,4.146-9.444.168-.628-.458-.463-.459-.92C2071.439,456.425,2071.413,456.709,2071.119,456.723Z" transform="translate(-1806.692 -423.325)"/><path class="j" d="M1777.217,457.575c-.111,1.128.717,2.191,1.151,3.455a22.186,22.186,0,0,1,.691,9.212c-.1,1.021-.873,2.1,0,3,2.355-.446,2.19-5.833,1.842-9.214a12.828,12.828,0,0,0-2.3-6.219c-.058-.25-.458-.156-.463-.46C1777.725,457.315,1777.651,457.626,1777.217,457.575Z" transform="translate(-1678.164 -423.718)"/><path class="i" d="M2092.374,491.957c1.453-1.978-.245-5.745.692-8.523.871-2.593,3.308-4.8,5.527-6.681,3.665-3.11,9.366-5.523,7.14-11.516-.082-.3-.405-.362-.461-.692-1.555,1.075-.351,2.746-.691,4.146-.688,2.835-5.119,5.039-7.6,7.142-3.855,3.264-6.683,5.945-5.989,13.127C2091.1,490.056,2091.029,491.761,2092.374,491.957Z" transform="translate(-1821.266 -427.004)"/><path class="i" d="M1990.035,467.511c-.3.082-.363.406-.691.461-.606,2.381-.521,4.521-1.842,6.219-2.051,2.635-6.71,3.588-9.445,5.989a11.275,11.275,0,0,0-2.764,4.375c-.517,1.213-2.123,3.409-.462,5.3,1.433-.464,1.14-2.171,1.384-3a13.127,13.127,0,0,1,1.842-3.915c4.07-5.472,13.616-5.059,12.438-14.741C1990.622,467.692,1990.055,467.874,1990.035,467.511Z" transform="translate(-1767.986 -428.357)"/><path class="i" d="M2160.45,502.707c-3.867-1.116-7.076-3.66-10.134-5.757a35,35,0,0,1-4.376-3.454c-2.477-2.381-4.835-4.239-6.679-7.371-.677-1.147-1.2-3.08-2.994-3.224-1.352.977.123,2.228.69,3.224a26.1,26.1,0,0,0,6.218,7.6,76.827,76.827,0,0,0,14.742,10.135c-6.513,2.155-14.322,3.577-21.651,5.3-2.166.508-4.908.705-6.219,2.534,2.554.748,5.1-.575,7.6-1.152,7.6-1.749,15.865-3.2,23.264-5.3.891-.251,2.019-1.356,3-1.842,7.728-3.839,18.507-4.926,29.941-3.915,1.1.1,2.666.5,3.685-.23.43-1.687-2.03-1.464-3.455-1.612-10.407-1.089-23.213.024-30.4,4.146,5.812-7.708,14.691-14.093,23.493-19.81,1.185-.768,3-1.18,3.455-2.764-.224,0-.179-.281-.23-.459-.187-.045-.228-.232-.461-.232C2178.377,484.858,2168.344,492.715,2160.45,502.707Z" transform="translate(-1839.131 -433.38)"/><path class="j" d="M1712.481,479.787c-.2-.042-.217.091-.231.231.043.2-.09.217-.23.23a69.637,69.637,0,0,1-.922,7.6c-.315,2.586-.957,5.17-.23,7.371,1.7-.332,1.779-3.739,2.073-6.218.142-1.193.086-2.575.231-3.917C1713.436,482.633,1714.136,480.952,1712.481,479.787Z" transform="translate(-1647.748 -433.954)"/><path class="j" d="M1725.125,480.642a45.2,45.2,0,0,1-1.152,10.366c-.524,2.152-2.16,4.389-.92,6.218,1.677-.84,2.032-3.418,2.533-5.529a41.3,41.3,0,0,0,1.151-10.365c-.081-.3-.4-.361-.461-.691Z" transform="translate(-1653.251 -434.347)"/><path class="i" d="M2039.733,482.327c-.373-.065-.4.219-.692.231-.5,3.6.024,6.871-2.534,8.751-1.338.986-4.257,1.228-5.759,2.3-1.785,1.282-3.077,4.425-3.224,6.911-.073,1.24-.059,3,.922,4.145,2.027-.769.839-2.978.922-4.145.134-1.849.986-4.394,2.533-5.529,1.491-1.094,3.842-1.094,5.529-2.3C2040.01,490.84,2041.3,486.344,2039.733,482.327Z" transform="translate(-1792.347 -435.111)"/><path class="i" d="M2110.882,485.109c-.1,1.837,1.252,3.146.461,5.3-.635,1.727-2.636,2.675-4.146,4.608a39.951,39.951,0,0,0-3.456,5.757,7.87,7.87,0,0,0-.459,4.375c.118,1.049.412,3.179,1.844,3.226,1.574-.472.122-2.076,0-3-.482-3.667,1.369-5.956,3.224-8.752,1.956-2.947,7.142-5.53,3.915-11.284-.184-.2-.631-.138-.69-.462A1.094,1.094,0,0,1,2110.882,485.109Z" transform="translate(-1826.877 -436.279)"/><path class="i" d="M2071.312,485.1c.246,4.969.337,7.791-2.993,10.133-2,1.408-5.117,1.794-6.219,3.917a13.618,13.618,0,0,0-1.152,4.375c-.166,2.219-.177,5.5,1.614,6.449,1.154-1.911,0-4.471.229-6.678a7.418,7.418,0,0,1,1.153-3.456c2.009-2.7,6.023-2.693,8.06-5.758,1.586-2.383,1.427-6.275,0-9.213C2071.631,484.8,2071.608,485.087,2071.312,485.1Z" transform="translate(-1807.576 -436.271)"/><path class="i" d="M1993.069,491.877c-.965,1.1.162,2.046,0,3.225-.63,4.6-8.572,5.611-11.057,9.905a19.353,19.353,0,0,0-1.612,4.836c-.292,1.264-1.562,3.914.461,4.606,1.285-1.487.907-3.082,1.151-4.146a14.071,14.071,0,0,1,1.383-3.914c2.086-3.777,6.957-4.632,9.443-7.372,1.619-1.785,2.7-5.117.691-7.37C1993.26,491.61,1993.12,491.7,1993.069,491.877Z" transform="translate(-1770.559 -439.364)"/><path class="j" d="M1616.29,492.492c-.722-.109-.608.622-1.15.691,1.162,1.772,3.523,2.186,5.3,3.226,1.648.966,2.877,2.245,4.376,3.224,2.325,3.587,3.941,7.883,5.989,11.746-5.583-2.8-13.532,0-16.814,3.915-5.431,6.483-5.737,18.292-3.226,28.1,1.63,6.365,4.045,10.094,8.522,13.591,3.119,2.435,6.318,4.275,11.976,3.454.853-.125,2.437-.172,2.534-1.613-1.233-1.151-2.662-.035-4.146,0a14.123,14.123,0,0,1-10.593-4.376c-1.841-1.747-3.855-3.5-4.838-5.757-3.723-8.567-5.224-24.43.922-32.016a14.24,14.24,0,0,1,9.443-4.837,11.278,11.278,0,0,1,2.3,0c2.855.341,4.787,3.244,7.371,1.382-3.841-4.337-4.393-10.037-7.6-14.05C1624.233,496.139,1620.339,494.182,1616.29,492.492Z" transform="translate(-1601.54 -439.748)"/><path class="i" d="M2000.676,514.953c-1.61.749-.078,2.194-.46,3.685-.443,1.72-2.812,2.13-4.607,3.223-3.806,2.321-5.258,6.276-5.757,11.057,2.518.357,2.017-2.211,2.3-3.225a11.792,11.792,0,0,1,1.844-4.148C1996.872,521.886,2005.164,521.087,2000.676,514.953Z" transform="translate(-1775.174 -450)"/><path class="j" d="M1617.545,549.968c2.027,1.05,4.28-.716,6.678-.691,2.66.023,4.751,1.372,6.909,2.072v-1.842a15.962,15.962,0,0,0-11.284-1.152C1618.905,548.66,1617.6,548.781,1617.545,549.968Z" transform="translate(-1605.325 -464.977)"/><path class="j" d="M1617.8,572.437c2.063-.1,3.454-2.034,5.068-3.224a11.161,11.161,0,0,1,8.982-2.073c.052-.9-.494-1.2-.692-1.844-5.473-.5-9.053,1.87-11.975,4.609C1618.466,570.576,1617.1,571.271,1617.8,572.437Z" transform="translate(-1605.354 -472.936)"/><path class="i" d="M2151.648,580.63c1.067,2.169,3.928,2.158,5.99,2.764,6.424,1.894,13.4,4.095,20.5,5.759a167.5,167.5,0,0,0,22.112,4.145c2.125.209,5.1,1.215,6.448-.691-.208-1.386-1.505-.428-2.073-.461-8.942-.5-18.58-2.9-27.639-5.067-8.339-1.994-16.386-4.42-23.264-6.681A1.735,1.735,0,0,0,2151.648,580.63Z" transform="translate(-1848.986 -479.748)"/><path class="j" d="M1634.486,595.148c2.132.334,2.422-2.439,2.993-3.916a31.97,31.97,0,0,1,2.3-5.068c1.181-1.887,2.573-2.677,3.916-4.145-2.484-1.559-5.188,2.774-6.449,5.3C1635.821,590.178,1634.574,593.125,1634.486,595.148Z" transform="translate(-1613.053 -480.445)"/><path class="j" d="M1658.838,587.787a11.172,11.172,0,0,1,.689,5.3c-.161,2.338-1.493,4.566-.689,5.991,2.952-1.26,2.576-7.014,2.073-10.366C1659.984,588.638,1660,587.624,1658.838,587.787Z" transform="translate(-1624.047 -483.219)"/><path class="j" d="M1634.7,601.355c-2.168,1.607-3.828,4.958-5.989,7.832-3.415,4.544-7.718,9.705-12.9,12.9-2.719,1.676-6.128,3.3-9.442,3.224a15.394,15.394,0,0,1-6.222-1.841c-1.614-.761-3.058-2.413-5.066-2.305-.2,1.932,2.443,2.877,4.146,3.686,2.424,1.151,4.885,2.318,8.293,2.073,6.659-.479,12.7-5.713,16.582-9.675,4.653-4.752,8.24-10.5,11.056-14.97C1635.33,601.648,1634.7,601.813,1634.7,601.355Z" transform="translate(-1595.073 -489.417)"/></g><path class="k" d="M1937.432,341.416c-.761.158-1.052.79-1.383,1.379-3.817-1.487-8.981-3.685-13.589-5.065-1.64-.491-3.362-1.087-4.838-1.382-2.857-.574-5.68-.52-7.831.921.07,3.715-.714,8.854-.461,12.9a41.405,41.405,0,0,0,3.455,12.669,59.269,59.269,0,0,0,5.989,11.055,60.713,60.713,0,0,0,7.832,9.215c2.73,2.58,7.23,5.819,10.825,6.218,3.761.418,7.594-1.569,10.825-3.455,9.225-5.387,15.123-14.564,18.658-25.338a37.316,37.316,0,0,0-7.371-5.989c-1.732-1.082-3.908-1.715-5.066-3.454-.05-.815,1.08-.454.919-1.382-.17-1.593-1.371-2.158-1.841-3.454.486-.2,1.36.008,1.611-.921a13.019,13.019,0,0,0-8.061-4.606c-.348.325-.728,1.117-.23,1.612-1.467-.536-3.074-2.194-4.606-.692-3.1-.195-4.186-4.624-7.14-3.455-.233,1.236,1.188,1.57,1.844,2.072a8.319,8.319,0,0,1,2.3,2.075C1938.726,341.962,1937.949,341.817,1937.432,341.416Z" transform="translate(-154.841 -52.014)"/><path class="l" d="M1691.875,365.983a59.164,59.164,0,0,1,12.9,0c5.721.569,11.722,2.683,14.51,6.449a11.361,11.361,0,0,1,2.074,8.062,4.971,4.971,0,0,1,2.073-.231c2.136.824,2.22,5.061,2.533,8.523.265,2.937,1.523,5.593.691,7.139-.7,1.306-2.3,1.092-3.455,1.152a18.52,18.52,0,0,1,.461,4.376c-.325,3.9-3.224,8.218-5.988,10.825-.556.525-1.442.839-2.074,1.381a21.875,21.875,0,0,1-4.377,3.456,33.072,33.072,0,0,1-2.994,1.612c-3.414,1.325-10.035,1.543-14.05.922-4.839-.75-11.238-3.832-14.05-6.45-2.652-2.469-2.628-6.39-3.685-10.364-4.126,6.835-10.532-6.161-8.752-11.055.736-.8,2.221-.85,3.454-1.153-1.469-4.946-.6-10.839-.46-16.584.058-1.087-1.178-1.344-.229-2.074,1.314-.086,1.119,1.338,1.612,2.074.505-.167.765-1.08,1.382-.459.037,2.416-1.213,3.547-1.152,5.987C1676.177,373.814,1681.981,367.5,1691.875,365.983Zm13.819,1.612c.421.172,1.938,1.257,2.074.23C1707.386,367.439,1706.415,367.641,1705.694,367.595Zm-29.713,9.212a12.948,12.948,0,0,0-3.684,8.522C1673.376,382.338,1674.778,379.672,1675.982,376.807Z" transform="translate(-44.488 -65.526)"/><path class="l" d="M2086.89,549.57c.768.7.692,1.781,1.842,2.3,1.337.607,3.249.212,4.836,0,.407.437.214,1.477.691,1.844,6.461.423,11.506,1.659,18.425,1.152,3.017,1.668,4.165,5.2,8.523,5.528.45-3.011-.657-5.659-1.612-7.831a29.414,29.414,0,0,0-3.683-6.218c-2.363-2.964-5.765-5.188-7.6-8.523-1.6.186-4.355.891-6.911.691-1.049-.082-2.769-1.034-3.916-.461-.062.032-.191.452-.228.461-.559.129-1.108-.167-1.615,0-2.056.677-3.737,2.125-5.759,3.224-2.294,1.249-4.743,2.558-5.527,3.456C2082.566,547.246,2083.251,550.109,2086.89,549.57Z" transform="translate(-234.278 -144.084)"/><path class="l" d="M1667.453,533.925c3.12-.083,5.294-2.534,8.061-3,1.3-.214,3.176.189,4.837,0,.919-.1,2.033-.766,2.764-.69,2.39.247,3.382,3.418,5.758,3.226,1.3-.108,1.934-1.332,2.534-2.074,2.193,1,5.774,1.066,6.218-1.152.356-1.773-1.548-3.454-2.533-4.838-1.234-1.734-1.853-3.012-3.224-3.913a20.479,20.479,0,0,0-8.753-2.765c-10.837-.673-22.726,6.063-28.56,9.674-1.953,2.782-5.2,5.636-4.148,11.055.584,3.007,2.58,8.152,4.838,8.522,1.54.253,5.5-2.218,6.45-2.994a20.256,20.256,0,0,0,2.073-2.3A19.48,19.48,0,0,0,1667.453,533.925Z" transform="translate(-36.649 -135.349)"/><g transform="translate(1611.397 270.634)"><path class="m" d="M1663.57,371.9c-3.937-4.846-8.188-8.483-12.438-13.13-1.175-1.284-4.188-4.375-4.608-5.758-.425-1.4-.265-3.96-.229-5.759a34.067,34.067,0,0,1,.462-6.448c.414-1.666,1.684-3.492,2.534-5.3,1.757-3.743,3.425-7.346,5.065-10.825.847-1.793,1.638-3.817,3-5.067,2.694-1.214,6.339,1.1,9.672,1.381,5.825-2.553,14.425-6.169,21.421-8.062,3.112-.841,7.119-2.1,9.213-1.152,4.205,1.909,8.839,4.224,13.127,6.681a82.2,82.2,0,0,1,10.365,18.194c.948,2.378,2.392,4.963,2.534,7.141s-.769,4.3-1.382,6.449c-.627,2.2-1.137,4.327-1.842,6.219-1.508,4.042-2.779,8.136-6.22,9.9-.89-7.06-2.067-13.2-5.987-17.735-8.964-10.371-30.2-10.6-39.387-1.15-3.531,3.63-6.139,11.078-4.607,17.734.712,3.1,3.057,5.556,2.073,8.983C1665.022,374.064,1664.274,372.764,1663.57,371.9Zm26.027-57.813c.427.288,1.857.01,2.763-.231C1694.76,313.221,1690.114,313.483,1689.6,314.085Zm-2.3,5.067c.07.314.577.192.922.229C1688.151,318.848,1687.6,318.851,1687.294,319.152Zm-.231.229c-.072-.311-.575-.189-.921-.229C1686.207,319.685,1686.756,319.681,1687.063,319.381Zm-27.639,2.535c.412.029.486-.282.923-.229C1660.318,321.032,1659.364,321.242,1659.424,321.916Zm17.275.23h-.461v.461h.461Zm43.3,15.431c-.439.026.183.859.229,1.153C1720.856,338.521,1719.995,337.923,1720,337.577Zm-71.632,3c-.726.5-.574,1.884-.691,2.994A6.932,6.932,0,0,0,1648.368,340.572Zm65.413,15.662c-.514.167-.112,1.313.46,1.153C1714.413,356.677,1713.609,356.943,1713.781,356.235Zm-49.521,12.438h-.69c-.037.651.69.537.69,1.153C1664.936,369.627,1663.96,369.244,1664.26,368.672Z" transform="translate(-1646.236 -311.441)"/></g><g transform="translate(1635.641 293.29)"><path class="j" d="M1932.461,360.5c2.4-1.3,2.014-4.244,4.377-5.3a7.231,7.231,0,0,1,4.837,0c1.7.561,2.9,2.288,4.606,2.3.314-1.771-2.26-3.317-3.917-3.915a8.36,8.36,0,0,0-7.83,1.151C1933.062,355.987,1931.621,358.569,1932.461,360.5Z" transform="translate(-1800.943 -353.103)"/><path class="j" d="M1943.217,370.011c-2.045-.42-2.782.625-2.994,1.614-.876,4.078,5.247,4.672,5.3.922C1945.54,370.969,1944.675,370.314,1943.217,370.011Z" transform="translate(-1804.559 -360.773)"/><path class="j" d="M1920.384,376.237c.063,1.858,1.722,3.111,2.075,5.757.337,2.549-.713,5.15.92,6.679.912.853,3.088,1.308,4.836,1.151,1.5-.134,3.836-.747,3.916-2.3-1.746-.92-6.751,2.126-8.062-.922.377-4.368-.37-8.377-2.765-10.6C1920.826,375.908,1920.7,376.164,1920.384,376.237Z" transform="translate(-1795.547 -363.541)"/><path class="n" d="M1741.312,402.972c1.151-.448,1.248-1.7,2.074-2.3a6.015,6.015,0,0,1,3.914-.922c2.407.24,3.917,2.732,5.99,2.3-.537-4.73-11.249-7.2-12.669-1.612C1740.451,401.1,1740.006,402.62,1741.312,402.972Z" transform="translate(-1713.441 -373.232)"/><path class="n" d="M1698.788,407.1c2.848.358,3.711-3.009,6.679-3.224,2.682-.194,3.766,2,6.451,1.842,1.7-3.944-5.672-6.142-8.984-4.376-.357.192-1.017.916-1.612,1.382C1700.127,403.661,1698.263,405.254,1698.788,407.1Z" transform="translate(-1694.412 -374.828)"/><path class="j" d="M1733.195,406.52c-.3.082-.362.406-.69.461a14.438,14.438,0,0,0,0,7.14c.708,2.805,3.373,4.976,2.994,6.449-.6,2.334-5.563,1.2-7.833,1.381.535,1.8,3.28,1.566,4.839,1.383,2-.234,4.191-1.222,4.375-2.764.159-1.325-1.269-2.8-2.072-4.376C1733.415,413.458,1732.951,410.561,1733.195,406.52Z" transform="translate(-1707.628 -377.472)"/><path class="j" d="M1749.376,415.725c5.911.852,3.618-6.026-.462-3.686A3.008,3.008,0,0,0,1749.376,415.725Z" transform="translate(-1717.129 -379.767)"/><path class="j" d="M1709.245,417.4c-1.473,4.056,3.969,4.553,4.145,1.612A2.476,2.476,0,0,0,1709.245,417.4Z" transform="translate(-1699.109 -382.134)"/><path class="j" d="M1709.457,520.677c2.96,1.992,6.141,2.846,8.752,5.068a16.765,16.765,0,0,1,2.764,3.456c.753,1.139,1.093,3.019,2.763,3.454-2.3-6.294-7.5-9.7-13.589-12.209C1709.774,520.384,1709.75,520.665,1709.457,520.677Z" transform="translate(-1699.321 -429.442)"/><path class="j" d="M1699.712,524.675c.418.866,1.238.33,1.844.462a15.761,15.761,0,0,1,7.139,3.915c1.98,1.727,3.506,3.7,5.3,5.528.092-1.161-.894-2.383-1.612-3.224C1709.507,527.99,1705.256,524.359,1699.712,524.675Z" transform="translate(-1694.875 -431.366)"/><path class="j" d="M1690.818,533.577c.715.756,1.938-.161,3-.228a12.418,12.418,0,0,1,6.448,1.382c1.476.838,3.008,2.665,4.376,3.915.589.539,1.037,1.876,2.073,1.382-3.329-3.963-6.418-8.169-14.51-7.37C1691.854,533.079,1691.206,533.2,1690.818,533.577Z" transform="translate(-1690.818 -434.972)"/><path class="j" d="M2087.27,547.091c1.121.76,2.791.416,3.683.229a21.644,21.644,0,0,0,4.377-1.612c1.916-.905,3.494-2.685,5.988-2.995,2.819-.351,6.583,1.763,8.522-.461.039-.267-.05-.41-.23-.46-.055-.892-1.5.378-2.074.46-2.861-.331-5.319-1.159-7.829-.46a22.929,22.929,0,0,0-3.686,2.074,24.851,24.851,0,0,1-6.679,2.3C2088.845,546.286,2087.55,546.059,2087.27,547.091Z" transform="translate(-1871.682 -439.04)"/><path class="j" d="M2089.808,554.717c1.009.136,1.479-.675,2.3-.922,2.885-.871,6.461-.6,9.213-1.612,1.646-.607,2.869-2,4.377-2.3,2.784-.554,5.329.5,8.06,0-.377-1.234-2.144-1.076-3.223-1.152-1.652-.116-4.278-.3-5.759.231-1.5.542-2.738,1.8-4.377,2.3-2.045.628-4.376.535-6.678.921C2092,552.469,2089.684,552.924,2089.808,554.717Z" transform="translate(-1872.838 -442.289)"/><path class="j" d="M2102.914,561.9c.8.629,1.115-.762,1.612-1.153,2.91-.947,5.738-.033,8.523-.69,1.332-.314,2.481-1.392,3.915-1.613,2.1-.323,3.914.666,5.989-.231-.168-1.2-1.7-.6-2.534-.691a15.085,15.085,0,0,0-2.993-.228c-1.867.161-4.427,1.61-6.912,1.84C2107.229,559.438,2102.462,558.5,2102.914,561.9Z" transform="translate(-1878.805 -446.245)"/></g><g transform="translate(1650.382 319.804)"><path class="i" d="M1734.51,442.1a39.628,39.628,0,0,1-16.583,2.071c1.819,4.7,10.135,6.637,14.049,2.994C1733.409,445.832,1733.79,444.042,1734.51,442.1Z" transform="translate(-1717.927 -420.218)"/><path class="i" d="M1946.39,406.7c3.715-.707,5.906-3.321,8.522-4.838a.628.628,0,0,0,.692.461c-.564,2.719-.93,5.17-2.765,7.141-2.283,2.45-7.2,3.118-10.6,1.613-1.279-.568-3.366-1.952-2.534-3.686C1941.849,406.388,1944.415,407.074,1946.39,406.7Zm5.068,0c-.065-.544-.617.264-.922.231C1950.76,407.635,1951.15,406.663,1951.458,406.7Zm-2.306,3.224c.6-.422-1.115.064-1.38.231C1948.047,410.481,1948.561,410.245,1949.152,409.922Z" transform="translate(-1819.019 -401.86)"/></g><g transform="translate(1589.575 399.566)"><path class="o" d="M1610.021,660.655c-1.679,24.784-2.73,53.07-3.915,77.159,17.057.547,35.008,0,52.054-.231,1.334-2.14.922-5.152.922-8.062,0-20.9.468-43.47.229-64.722-2.757-1.631-6.5-1.594-10.133-1.84C1636.454,662.09,1622.487,660.857,1610.021,660.655Z" transform="translate(-1606.106 -599.686)"/><path class="o" d="M1844.965,667.557c5.07,8.949,9.941,18.575,14.281,27.869a282.343,282.343,0,0,1,12.436-27.409c.817-1.535,3.718-7.826,5.3-8.061,1.141-.171,3.211,1.752,4.377,2.534,1.653,1.108,2.966,2.041,4.146,2.993,3.049,2.461,4.979,4.963,7.14,7.141a82.191,82.191,0,0,1,6.911,7.141c1.178,1.444,5.734,6.581,5.527,8.752-.2,2.085-5.134,4.232-7.37,5.3-9.441,4.5-19.107,6.174-30.405,8.06,22.488.469,45.168.745,67.258,1.615.522,8,.085,16.955.229,25.335-48.513-.029-99.258-.416-147.64-.922-3.269-.034-6.544.406-9.675-.46-.785-9.466,1-18.348.922-27.87,22.09.712,44.762.844,66.8,1.612-9.67-5.467-19.666-10.894-25.567-20.269-1.179-1.873-3.8-6.072-2.994-8.982.359-1.3,3.3-2.836,5.067-3.915,2.174-1.33,4.082-2.28,5.76-3.225,4.03-2.27,7.541-5.311,11.746-6.679C1841.741,660.6,1843.07,664.209,1844.965,667.557Zm-26.257,6.911c-.646.439.316,1.2.231,1.842C1819.81,675.808,1819.157,674.9,1818.708,674.468Zm5.988,10.365a22,22,0,0,0,2.994,2.993A21.729,21.729,0,0,0,1824.7,684.832Zm6.91,5.527c-.5.964,1.605,1.306,2.073,2.072C1833.827,691.816,1832.13,691.07,1831.606,690.36Zm62.88,2.072c.527-.532-.717.078-1.151,0C1893.53,693.107,1894.075,692.294,1894.486,692.431Zm-46.3,7.832c.345.269.565.667,1.152.692C1849.132,700.55,1848.912,700.153,1848.19,700.263Z" transform="translate(-1684.196 -598.527)"/><path class="o" d="M2030.881,560.216c-.14-.013-.272-.035-.228-.231-2.975-2.58-6.312-5.5-9.216-8.061-.918-.81-2.587-1.451-2.3-2.994,3.022-.947,7.752.171,11.745-.231,9.554,8.1,19.32,16,29.024,23.955a28.8,28.8,0,0,0,4.836-5.759c.636-.931,2.578-5.839,4.375-6.219,1.947-.409,7.314,2.777,8.521,3.455,1.876,1.054,6.8,3.259,6.68,5.528-.087,1.6-1.837,1.737-2.073,2.764,3.735-.563,7.371-1.229,11.285-1.612,2.668,2.092,5.637,3.883,7.14,7.14-.714,1.628-2.854,1.065-4.376,1.152-4.268.242-9.42.786-13.129,1.381,2.873,1.122,6.364,1.623,8.523,3.456-.9,2.6-2.877,4.587-3.915,7.139-.428,1.055-.372,2.414-1.382,3.225-4.834-2-8.058-5.608-12.207-8.291,7.825,6.378,16.13,12.277,24.185,18.425.82,7.383-1.565,13.458-3.455,18.887-3.364.723-9.006,1.458-12.208.232.158-5.606,3-10.51,3.224-16.814-4.96-6.775-11.927-12.534-17.965-17.966-.828-.746-1.6-1.857-2.764-2.072-.728,2.752-1.715,5.25-2.532,8.521-.629,2.512-.927,7.716-3.457,7.83-.912.043-2.994-1.921-3.917-2.533-1.824-1.209-2.773-1.753-4.146-2.533-1.506-.858-7.7-3.618-7.83-5.528-.078-1.156,1.784-2.63,2.994-3.685,1.49-1.3,2.843-2.322,3.685-3.224,2.08-2.231,4.6-4.608,5.987-7.14-11.481,1.491-24.522,1.426-35.47,3.453-.586,2.673-1.144,5.528-1.84,8.293-.682,2.7-1.12,5.705-2.764,7.6a33.525,33.525,0,0,1-4.377-3.224c-1.2-.92-3.663-2.233-3.914-3.686-.163-.938.5-2.429.921-3.686,1.284-3.828,2.646-7.336,3.225-11.285,3.238-1.293,8.066-.993,11.514-2.074-.117-2.443.16-4.875,0-7.369-.2-3.129-1.293-6.533.232-8.984,2.76.694,4.814,2.1,7.369,3Zm21.191,8.983c.075.539,1,.224,1.152.691C2053.73,569.668,2052.378,568.669,2052.072,569.2Zm28.562,27.409c-.5.363.85.824.921,1.382C2082.315,597.363,2080.606,597.263,2080.634,596.608Zm8.982,5.988c-.43.3.651,1.025,1.382.922C2090.745,603,2089.867,603.112,2089.616,602.6Z" transform="translate(-1789.268 -548.538)"/></g><path class="p" d="M1712,342.675c.254,1.634,2.071.543,3.225.231,1.24-.338,2.969-.57,3.454-1.383C1717.326,339.742,1713.393,341.625,1712,342.675Z" transform="translate(-64.84 -54.195)"/><path class="p" d="M1754.663,346.746c-1.192-2.339-3.948-3.115-5.988-4.607-3.166.7.684,2.143,2.3,3.224C1752.671,346.494,1753.749,347.762,1754.663,346.746Z" transform="translate(-81.019 -54.811)"/><path class="p" d="M1665.824,343.234c-.093,1.2,1.183.452,2.074.461,1.641.011,4.338.383,4.837-.693a1.082,1.082,0,0,1-.231-.69C1670.644,341.939,1665.705,341.634,1665.824,343.234Z" transform="translate(-43.773 -54.754)"/><path class="p" d="M1677.509,358.62c-9.427-1.468-19.815,3.091-26.487,7.141a36.675,36.675,0,0,0-3.226,2.072c-.82.636-2.332,1.715-1.612,2.995,1.1.62,2.047-.823,2.764-1.382a43.356,43.356,0,0,1,9.443-5.527c5.682-2.441,12.832-5.212,19.578-3.455.941-1.061.959-2.019,1.613-3,2.68-4,8.035-5.54,14.281-5.066,8.735.662,14.483,8.167,21.881,11.055,2.254.88,6.686,2.349,8.062-.461-1.206-.626-4.049-.159-5.988-.691-9.279-2.55-14.423-12.694-27.64-11.747C1685.346,350.9,1678.947,353.306,1677.509,358.62Z" transform="translate(-34.73 -58.624)"/><path class="p" d="M1668.774,358.024a14.594,14.594,0,0,0,6.681-1.382C1674.288,354.8,1668.357,356.093,1668.774,358.024Z" transform="translate(-45.112 -61.021)"/><path class="p" d="M1771.719,381.346c.814,1.447,3.062,3.274,4.836,2.3-.644-1.659-2.764-1.842-3.916-2.995C1771.9,380.453,1772.162,381.253,1771.719,381.346Z" transform="translate(-92.085 -72.367)"/><path class="p" d="M1663.038,388.365a12.152,12.152,0,0,0,3.686-2.764C1665.908,383.456,1661.585,386.788,1663.038,388.365Z" transform="translate(-42.369 -74.32)"/><path class="j" d="M2052.106,571.32c-.134,1.537,1.606,1.8,2.534,2.3,5.828,3.179,12.314,6.6,17.968,10.364.768.511,1.548,1.959,2.764,1.381-.281-2.168-2.866-3.038-4.609-4.146a170.427,170.427,0,0,0-17.964-10.364C2052.494,570.941,2052.435,571.266,2052.106,571.32Z" transform="translate(-219.996 -159.155)"/><path class="j" d="M2122.848,594.144c2.211.739,4.617-.919,6.678-1.842,2.168-.973,4.284-2.054,6.219-3,.068-.37-.217-.394-.227-.691-1.732-.305-4.83,1.271-7.142,2.3C2126.3,591.849,2123.878,592.618,2122.848,594.144Z" transform="translate(-252.272 -167.238)"/><path class="j" d="M2064.1,595.813c-.592-1.412-2.694-1.243-4.146-1.381-1.579-.151-3.226-.3-4.837-.462-3.393-.341-7.017-.077-9.212-1.611,5.835-2.026,13.344-.194,18.425,1.842,1.022.41,2.206,1.6,3.227.691-.387-1.352-2.215-1.956-3.686-2.533-3.734-1.464-10.465-3.094-15.663-2.535-1.7.183-4.025.96-4.146,2.3-.346,3.821,11.188,3.553,14.971,3.915C2060.889,596.222,2062.9,597.063,2064.1,595.813Z" transform="translate(-216.325 -167.755)"/><path class="j" d="M2110.563,604.746c1.311,1.609,3.317,2.566,5.067,3.685,3.386,2.165,6.636,4.567,10.135,6.91,1.6,1.069,3.479,2.667,5.528,2.534-.288-1.979-2.635-2.678-4.145-3.685-4.782-3.189-10.18-6.9-15.2-9.9C2111.147,604.1,2110.973,604.541,2110.563,604.746Z" transform="translate(-246.668 -174.384)"/><path class="j" d="M1632.515,666.585c-.3.08-.363.406-.69.46.717,8.546.454,18.331.461,26.949-3.178.522-7.65.088-11.517.231-1.152.041-2.639-.406-3.224.691.591,1.44,2.548.908,3.914.92a323.1,323.1,0,0,1,34.319,2.074c2.115.26,4.313.79,6.219.23-.4-1.424-2.227-1.416-3.455-1.611-4.248-.68-9.252-1.113-13.819-1.382.229-6.424.544-15.4.23-22.572-.07-1.578.712-4.5-.922-5.3-1.34,1.275-.542,3.53-.459,5.3.319,7.038-.4,15.307-.691,22.11-2.488.394-5.775-.349-8.755-.229-.257-8.384.366-19.526-1.151-27.409C1632.919,666.8,1632.518,666.887,1632.515,666.585Z" transform="translate(-21.75 -202.826)"/><path class="j" d="M1879.725,668.714c.187,1.311,1.5,1.668,2.3,2.534,1.45,1.559,2.167,3.97,4.147,5.068,1-1.282-.688-2.921-1.612-4.146a14.519,14.519,0,0,0-3.915-3.916C1880.018,668.086,1880.182,668.711,1879.725,668.714Z" transform="translate(-141.358 -203.573)"/><path class="j" d="M1958.507,678.727c1.917,1.687,5.242-.58,7.831-.461a1.436,1.436,0,0,0,0-1.152C1963.8,676.821,1960.269,677.481,1958.507,678.727Z" transform="translate(-177.299 -207.598)"/><path class="j" d="M1877.251,701.159c-7.334-7.255-14.816-14.359-25.105-18.656-1.811,2.8,1.2,5.49,2.532,7.6,3.928,6.23,8.362,9.764,14.743,13.82.957.61,2.159,2.152,3.453,1.152-.2-1.274-1.611-1.939-2.533-2.535-6.956-4.5-13.7-9.653-17.275-17.964,10.606,4.978,19.32,13.847,27.177,22.341.722.108.65-.577.922-.921a23.936,23.936,0,0,1,2.764,3.455c.725,1.177.871,3.307,2.533,3.685.523-2.085-1.018-3.937-2.072-5.529s-2.309-3.175-3.455-4.607c-5.943-7.416-11.881-14.286-20.269-19.577-.721-.455-1.655-.949-2.536-1.382-.667-.331-1.756-1.222-2.532-.461-.258,1.555,1.68,1.8,2.532,2.3A70.79,70.79,0,0,1,1877.251,701.159Z" transform="translate(-128.519 -209.53)"/><path class="j" d="M1967.826,691.5c1.009,1.895,4.595.71,8.292.92.872.05,4.035.924,4.146-.228.07-.731-1.574-1.1-1.844-1.154-1.4-.285-4.021-.006-6.219,0C1970.492,691.047,1968.788,690.749,1967.826,691.5Z" transform="translate(-181.55 -213.924)"/><path class="j" d="M1900.746,697.5c-.3.083-.362.406-.694.461a17.716,17.716,0,0,0,3.687,6.219c1.782-1.79-1.868-4.353-2.3-6.219C1901.25,697.766,1900.805,697.828,1900.746,697.5Z" transform="translate(-150.632 -216.93)"/><path class="j" d="M1932.118,721.269c1.209.387,2.055-1.01,2.765-1.612,7.224-6.143,20.611-12.737,34.549-8.752-7.81,4.009-18.129,6.393-28.33,8.752-.742.171-3.643.668-3.686,1.382-.1,1.606,3.481.445,4.377.23a193.067,193.067,0,0,0,22.571-6.45c2.707-1.014,5.763-1.866,7.6-3.914-1.78-2.225-5.259-2.218-8.52-2.534a38.934,38.934,0,0,0-29.714,10.134C1933,719.175,1931.482,719.987,1932.118,721.269Z" transform="translate(-165.191 -221.81)"/><path class="j" d="M1615.427,740.462c4.412,1.19,11.326-.119,16.121.69a171.934,171.934,0,0,1,.691,19.117c-.146,3.358-1.266,6.573-.23,9.445,1.543-.346,1.261-2.465,1.382-3.687a133.915,133.915,0,0,0-.231-24.644c2.419-.417,5.827.164,8.293.461,1.289,7.592-.193,16.252-.46,23.954-.032.93-.579,2.173.46,2.765,1.632-.936,1.451-3.546,1.613-5.53a193.288,193.288,0,0,0,.232-20.957,98.614,98.614,0,0,1,12.9,1.381c1.3.209,2.719.78,3.684.23.082-1.927-3.362-1.743-5.527-2.074a178.876,178.876,0,0,0-35.7-2.3C1617.527,739.361,1615.659,738.861,1615.427,740.462Z" transform="translate(-20.784 -235.934)"/><path class="j" d="M1852.193,746.657c2.21.832,4.772.461,7.14.46,14.589,0,29.7-.231,44.454-.229,1.1,0,2.5.078,3.685,0,.814-.055,2.529.512,2.764-.922-3.551-1.127-10.5-.751-16.355-.691-11.412.117-23.8.23-35.7.23C1856.262,745.5,1853.414,744.659,1852.193,746.657Z" transform="translate(-128.798 -238.675)"/><g transform="translate(1739.92 221.993)"><path class="j" d="M1914.886,222.145c14.262-1.537,23.738,8.746,22.573,22.111-.33,3.786-1.8,6.375-2.535,9.214,9.179-.856,16.213,1.069,20.5,6.449a19.479,19.479,0,0,1,2.994,17.274c15.449-3.778,27.533,5.571,27.178,20.269-.08,3.314-.749,7.887-3.455,8.292-.368-1.953.778-2.882,1.152-4.377,2.921-11.647-4.867-22.065-15.2-23.032,4.761,2.381,8.868,7.289,9.442,12.9.418,4.057-.7,8.421-2.993,11.056-2.028,2.328-5.415,3.332-8.984,4.378-4.573,1.338-9.613,2.617-13.82,1.841-4.031-.743-8.838-2.411-9.442-5.3-.223-1.063.23-2.313.229-3.225-.006-3.256-.8-6.963-2.764-8.523-3.138-2.488-9.257-.52-13.128,0a44.509,44.509,0,0,1-15.432-.461,23.288,23.288,0,0,1-8.293-4.146c-.608-.453-1.149-1.8-2.3-1.381a21.09,21.09,0,0,0-3.455,10.6,42.334,42.334,0,0,0,1.845,12.206c.424,1.323,1.789,2.352,1.15,3.686-1.659.408-2.876-1.462-3.915-2.534a44.664,44.664,0,0,1-8.753-11.977c-2.635-5.671-5.335-15.016-4.836-23.032.769-12.385,7.8-19.777,20.036-21.42-1.134-1.284-2.888-2.251-4.144-3.686-3.669-4.183-4.2-11.05-3.686-18.657.145-2.128-.328-5.15,1.842-5.989.593,2.112.144,4.5,0,6.911a59.11,59.11,0,0,0-.228,7.6,14.939,14.939,0,0,0,7.37,12.207C1898.98,239.031,1902.443,223.485,1914.886,222.145Zm-10.364,11.286a12.921,12.921,0,0,1,2.993-3.225c.3-.269.438-.965.692-1.151.541-.4,1.531-.505,2.3-.921.809-.438,1.325-1.046,1.843-1.152,3.2-.655,6.784.513,8.983,1.382a21.452,21.452,0,0,1,9.674,8.062c3.046,5.2-.021,13.851-3.226,18.655,1.284.282,3.211-.777,4.608-1.151,4.258-7.275,4.677-17.208-.232-23.495-4.223-5.407-15.794-9.8-23.033-4.144C1906.964,227.981,1905.615,230.271,1904.521,233.431Zm39.156,22.112c7.3,2.915,12.132,8.29,13.589,17.045.582-9.567-4.812-15.153-12.669-17.045Zm-46.528.69a16.509,16.509,0,0,0-8.751,6.219c-2.738,3.682-4.243,8.629-3.915,15.2a52,52,0,0,0,4.837,19.116c-3.683-9.513-4.707-20.6-.921-29.942A20.823,20.823,0,0,1,1897.149,256.233Zm46.528,1.382a1.635,1.635,0,0,0,.69.461C1944.948,257.977,1943.984,257.58,1943.677,257.615Zm-44.683.691c.543.74.93-.81,0,0Zm47.446.69c-.739-.315,1.765.756,0,0Zm20.731,44.454c-.435.026-.16.762-.691.692.151.691.491-.221.921,0A1.089,1.089,0,0,1,1967.171,303.45Z" transform="translate(-1882.581 -221.993)"/></g><g transform="translate(1599.018 433.733)"><path class="h" d="M2100.657,611.451a2.52,2.52,0,0,0-3.225,2.3c.005,3.009,4.589,2.874,5.069.461A2.184,2.184,0,0,0,2100.657,611.451Z" transform="translate(-1839.695 -611.368)"/><path class="h" d="M2094.77,629.2c-3-1.058-3.8,4.368-.691,4.376C2095.938,633.578,2097.15,630.035,2094.77,629.2Z" transform="translate(-1837.264 -619.439)"/><path class="h" d="M2160.749,659.333a2.186,2.186,0,0,0-2.764,2.532c.275,2.327,4.351,3.025,4.835.463A2.345,2.345,0,0,0,2160.749,659.333Z" transform="translate(-1867.31 -633.222)"/><path class="h" d="M2155.4,674.451c-3.434-1.292-4.092,3.661-1.614,4.146C2155.988,679.03,2158.415,675.587,2155.4,674.451Z" transform="translate(-1864.724 -640.049)"/><path class="h" d="M1626.467,680.007a2.112,2.112,0,0,0-2.994,1.842,5.31,5.31,0,0,0,.69,1.613C1626.188,685.063,1630,681.266,1626.467,680.007Z" transform="translate(-1623.472 -642.61)"/><path class="h" d="M1693.049,682.264c-.288-2.691-4.035-2.511-4.377-.46C1688.231,684.453,1692.358,685.061,1693.049,682.264Z" transform="translate(-1653.202 -642.794)"/><path class="h" d="M1673.751,700.391c-1.206-.268-2.209.025-2.533,1.152-1.187,4.122,5.553,4.22,4.375.231A2.25,2.25,0,0,0,1673.751,700.391Z" transform="translate(-1645.19 -651.939)"/><path class="h" d="M1628.676,705.934c1.856-.422,2.359-1.621,2.074-2.763-.51-2.045-3.641-1.525-3.915.231C1626.607,704.848,1627.607,705.319,1628.676,705.934Z" transform="translate(-1624.991 -652.645)"/><path class="h" d="M1834.887,743.11c-1.893-.506-3.327.185-3.454,1.612-.252,2.825,5.216,4.076,5.527.922C1837.129,743.95,1836.229,743.467,1834.887,743.11Z" transform="translate(-1718.342 -671.394)"/><path class="h" d="M1794.583,745.332c-.213,2.911,3.837,3.305,4.376,1.152C1799.6,743.926,1795.675,742.5,1794.583,745.332Z" transform="translate(-1701.531 -671.774)"/><path class="h" d="M2026.22,749.09c.018-3.479-4.468-3.288-4.6-.69C2021.494,750.725,2025.211,751.7,2026.22,749.09Z" transform="translate(-1805.106 -672.999)"/><path class="h" d="M1986.621,750.483a2.4,2.4,0,0,0,1.841-3.454,3.022,3.022,0,0,0-3.455,0A2.471,2.471,0,0,0,1986.621,750.483Z" transform="translate(-1788.307 -673.01)"/><path class="h" d="M2054.468,748.08c-.594,1.549.146,2.844.691,3.915C2060.635,753.783,2059.241,744.573,2054.468,748.08Z" transform="translate(-1819.995 -673.37)"/><path class="h" d="M1673.793,756.888c1.582-.247,2.737-.991,2.763-2.3.067-3.248-4.5-2.485-4.375.23C1672.233,755.914,1672.731,756.033,1673.793,756.888Z" transform="translate(-1645.693 -675.73)"/><path class="h" d="M1927.184,754.7c-2.328,4.225,4.561,4.81,4.376,1.382C1931.477,754.554,1929.127,753.562,1927.184,754.7Z" transform="translate(-1761.808 -676.532)"/><path class="h" d="M1885.62,759.368c1.416.036,1.9-.868,2.532-1.611C1887.5,752.338,1881.212,757.542,1885.62,759.368Z" transform="translate(-1742.355 -677.058)"/><path class="h" d="M1693.2,759.206c1.689-4.285-5.127-4.231-3.455,0A3.024,3.024,0,0,0,1693.2,759.206Z" transform="translate(-1653.587 -677.356)"/><path class="h" d="M1629.777,757.031c-1.71-.649-2.494.23-2.763.691-1.748,2.983,4.14,5.2,4.144,1.152A1.913,1.913,0,0,0,1629.777,757.031Z" transform="translate(-1624.94 -677.715)"/><path class="h" d="M1815.678,760.632a4.149,4.149,0,0,0-.691-2.072,2.432,2.432,0,0,0-2.763,0,4.4,4.4,0,0,0-.693,1.842,2.369,2.369,0,0,0,2.3,1.841C1814.766,762.17,1814.994,761.4,1815.678,760.632Z" transform="translate(-1709.266 -678.322)"/><path class="h" d="M1831.2,761.723c-1.54,3.646,3.5,4.468,3.915,1.841A2.293,2.293,0,0,0,1831.2,761.723Z" transform="translate(-1718.104 -679.642)"/><path class="h" d="M2034.32,763.594c-.13,3.567,4.371,3.424,4.376.692A2.253,2.253,0,0,0,2034.32,763.594Z" transform="translate(-1810.902 -680.131)"/><path class="h" d="M1962.108,762.081c-.591-.149-.964-.364-1.381-.231a5.347,5.347,0,0,0-1.383,1.841c-.262,2.785,4.763,3.63,4.608.23A2.129,2.129,0,0,0,1962.108,762.081Z" transform="translate(-1776.694 -680)"/><path class="h" d="M2004.634,762.673c-3.429-.732-3.434,4.654,0,4.146A2.083,2.083,0,0,0,2004.634,762.673Z" transform="translate(-1796.187 -680.363)"/><path class="h" d="M1902.5,768.152c-1.722-.4-2.339.444-2.536,1.152-.894,3.256,4.3,4.639,4.606,1.382C1904.739,768.978,1903.807,768.452,1902.5,768.152Z" transform="translate(-1749.564 -682.847)"/><path class="h" d="M1866.509,776.19c3.313.1,2.994-4.361-.231-4.146-.51.783-1.46,1.288-1.382,2.3C1864.972,775.311,1865.816,775.579,1866.509,776.19Z" transform="translate(-1733.609 -684.666)"/><path class="h" d="M1937.051,774.907c-1.707,3.563,3.67,5.351,4.375,2.534A2.7,2.7,0,0,0,1937.051,774.907Z" transform="translate(-1766.377 -685.686)"/><path class="h" d="M1674.911,777.85a2.156,2.156,0,0,0,3.454,2.531A2.156,2.156,0,0,0,1674.911,777.85Z" transform="translate(-1646.811 -687.017)"/><path class="h" d="M1625.933,785.315c1.839-.141,3.071-1.223,2.993-2.765-.172-3.412-4.669-2.312-4.6.461C1624.342,783.96,1624.857,784.488,1625.933,785.315Z" transform="translate(-1623.86 -688.493)"/></g><g transform="translate(1695.503 321.548)"><path class="i" d="M2171.073,405.167c-2.278-.329-4.457.073-4.6,2.533-.142,2.335,1.688,2.486,3.913,3.225,3.491,1.156,7.584,3.649,8.293-.23.41-2.245-1.32-3.257-2.765-3.915A18.821,18.821,0,0,0,2171.073,405.167Z" transform="translate(-1967.672 -405.067)"/><path class="i" d="M2199.785,417.382c-2.213-.688-3.951.652-3.683,2.994.348,3.087,5.019,3.046,5.527.231C2201.915,419.016,2201.562,417.931,2199.785,417.382Z" transform="translate(-1981.182 -410.603)"/><path class="i" d="M2230.84,431.364c-4.193-1.261-4.588,4.723-1.61,5.3C2232.572,437.305,2234.369,432.425,2230.84,431.364Z" transform="translate(-1995.424 -416.985)"/><path class="i" d="M1816.356,501.368c.913-2.932-2.672-5.373-5.067-7.6-2.368-2.2-5.983-5.946-8.523-5.528-1.174.192-1.7.5-1.843,1.381-.284,1.791,2.148,2.495,3.225,3.225a44.646,44.646,0,0,1,5.3,4.606C1811.518,499.527,1813.4,503.492,1816.356,501.368Z" transform="translate(-1800.901 -442.997)"/><path class="i" d="M1831.629,519.055c-1.365,2.78,2.669,3.985,3.685,1.841A2.148,2.148,0,0,0,1831.629,519.055Z" transform="translate(-1814.792 -456.768)"/><path class="i" d="M2218.4,524.913a8.006,8.006,0,0,0-2.533-.231,32.761,32.761,0,0,0-9.444,1.612c-1.6.543-6.99,1.985-6.91,4.146a3.412,3.412,0,0,0,1.842,2.073c1.237.253,3.06-.992,4.607-1.612a43.079,43.079,0,0,1,4.375-1.611c2.485-.626,9.223-.11,9.444-2.535A1.989,1.989,0,0,0,2218.4,524.913Z" transform="translate(-1982.749 -459.631)"/></g></g></svg>