<svg xmlns="http://www.w3.org/2000/svg" xmlns:xlink="http://www.w3.org/1999/xlink" width="17.055" height="23.164" viewBox="0 0 17.055 23.164"><defs><style>.a{fill:none;}.b{clip-path:url(#a);}.c{fill:#e24e24;}.d{fill:#cb3910;}.e{fill:#f8f8f9;}.f{fill:#6a9a66;}.g{fill:#eef0f1;}.h{fill:#81a97e;}</style><clipPath id="a"><rect class="a" width="17.055" height="23.164"/></clipPath></defs><g class="b"><path class="c" d="M12.434,144.186a3.586,3.586,0,0,0-2.192.064,5.26,5.26,0,0,0-1.568.679,4.574,4.574,0,0,0-1.8,3.423,10.992,10.992,0,0,0,.563,3.933A14.02,14.02,0,0,0,8.7,155.467,4.52,4.52,0,0,0,9.8,156.859c.437.323.692.833,1.154,1.1.54.314,1.081.629,1.625.937a7.047,7.047,0,0,0,1.452.675,7.085,7.085,0,0,0,1.556.221,5.839,5.839,0,0,0,1.758-.071,4.208,4.208,0,0,0,1.929-1.182c.281-.281.513-.607.792-.888.174-.175.394-.3.562-.475a7.723,7.723,0,0,0,1.16-2.18,18.776,18.776,0,0,0,.833-2.334,6.754,6.754,0,0,0,.309-1.792,12.641,12.641,0,0,1,.218-1.55,6.209,6.209,0,0,0-.338-3.3,4.471,4.471,0,0,0-2.444-2.329,4.11,4.11,0,0,0-3.294.557,6.384,6.384,0,0,0-1.237,1.006c-.305.319-.569.739-1.061.544-.886-.352-1.43-1.277-2.336-1.613" transform="translate(-6.545 -137.041)"/><path class="d" d="M17.258,165.633a6.253,6.253,0,0,1-2.889-3.217,8.809,8.809,0,0,1-.536-4.338,17.727,17.727,0,0,0,.266-2.606,2.6,2.6,0,0,0-.341-1.3,2.793,2.793,0,0,0-.82-.784,3.511,3.511,0,0,0-1.959-.7,4.628,4.628,0,0,0-2.942,1.638,4.448,4.448,0,0,0-.891,1.065,3.733,3.733,0,0,0-.356,1.248,10.2,10.2,0,0,0,.6,5.105,13.919,13.919,0,0,0,2.381,3.829,8.056,8.056,0,0,0,1.266,1.41,9.057,9.057,0,0,0,2.058,1.187,4.932,4.932,0,0,0,3.7.062,10.637,10.637,0,0,0,1.555-.73c.328-.187,1.295-.623,1.428-.988.143-.392-.549-.45-.813-.472a4.411,4.411,0,0,1-1.7-.412" transform="translate(-6.39 -145.782)"/><path class="e" d="M67.959,210.409a1.929,1.929,0,0,0-1.678-.544,3.088,3.088,0,0,0-2.5,1.9.747.747,0,0,1-.465.415,2.626,2.626,0,0,0-.189-.222,5.859,5.859,0,0,0-2.1-1.276,45.484,45.484,0,0,0-1.318-.372,2.906,2.906,0,0,0-1.274.248,2.3,2.3,0,0,0-1.412,1.886,4.024,4.024,0,0,0,.3,2.369,10.976,10.976,0,0,0,.916,2.072,6.73,6.73,0,0,0,.583.732,6.006,6.006,0,0,1,.653.668,7.573,7.573,0,0,0,1.007,1.281,6.94,6.94,0,0,0,1.445,1.109,2.792,2.792,0,0,0,1.51.462,5.048,5.048,0,0,0,4.125-3,9.109,9.109,0,0,0,.668-1.942,18.4,18.4,0,0,0,.468-3.606,3.164,3.164,0,0,0-.734-2.179m-1.523,4.876a8.832,8.832,0,0,1-.8,2.057,4.577,4.577,0,0,1-1.263,1.636,1.218,1.218,0,0,1-1.426.262c-.212-.146-.311-.366-.5-.536-.243-.221-.511-.408-.742-.644a4.926,4.926,0,0,1-.7-1.061,9.117,9.117,0,0,1-.842-1.553,1.737,1.737,0,0,1,.907-2.4,1.782,1.782,0,0,1,1.127.148,2.068,2.068,0,0,1,.533.264l.015.025c.136.212.3.4.437.615.116.172.161.2.314.033.2-.217.329-.526.506-.762a1.311,1.311,0,0,1,1.164-.549,1.649,1.649,0,0,1,.6.185,1.551,1.551,0,0,1,.68.936,2.7,2.7,0,0,1-.02,1.34" transform="translate(-54.373 -200.365)"/><path class="f" d="M155.959,80.894a9.945,9.945,0,0,1,.1-1.91,3.225,3.225,0,0,1,.925-2.01,1.474,1.474,0,0,1,1.367-.229,2.145,2.145,0,0,1,.832.913,4.784,4.784,0,0,1,.4,1.97,3.493,3.493,0,0,1-.074.8c-.042.164-.046.161-.192.245a5.286,5.286,0,0,0-.84.587c-.268.233-.538.749-.91.847-.249.066-.525-.126-.73-.249a2.963,2.963,0,0,1-.885-.966" transform="translate(-148.901 -73.186)"/><path class="g" d="M63.444,219.58a6.3,6.3,0,0,0-.182,1.378,7.666,7.666,0,0,0,.11.818,1.672,1.672,0,0,0-1.643,1.184,3.222,3.222,0,0,0,.687,2.569,7.246,7.246,0,0,0,1.627,1.979,2.955,2.955,0,0,0,.739.481,1.077,1.077,0,0,0,.486.058c.14-.013.32-.114.459-.083.1.022.184.145.268.214a2.045,2.045,0,0,0,.743.374c.217.065.464.118.473.4.017.493-1.061.786-1.427.894a1.474,1.474,0,0,1-.953.095,7.46,7.46,0,0,1-1.015-.341,7.371,7.371,0,0,1-1.782-1.364,8.347,8.347,0,0,1-1.57-2.105c-.718-1.31-1.635-2.425-1.786-3.961a3.016,3.016,0,0,1,.489-2.367,2.953,2.953,0,0,1,1.307-.68,2.717,2.717,0,0,1,1.592-.026c.221.075.423.171.65.231s.606.11.728.253" transform="translate(-55.99 -209.08)"/><path class="h" d="M157.7,90.533c-.331-.1-.567.132-.9-.2-.655-.666-.241-1.816-.462-2.638-.127-.472-.428-1.079-.9-.6a2.861,2.861,0,0,0-.635,1.526c-.162.831-.463,1.867.17,2.554.236.256.756.7,1.11.7.684-.006,1.042-.855,1.616-1.343" transform="translate(-147.595 -82.986)"/><path d="M15.964,7.764a4.111,4.111,0,0,0-4.977-.987,5.062,5.062,0,0,0-.54-2.681,1.679,1.679,0,0,0-1.1-.788A2.544,2.544,0,0,1,10.329,2.2a1.568,1.568,0,0,0,.6-.8A.987.987,0,0,0,10.161,0,1.911,1.911,0,0,0,8.523,1.25a2.108,2.108,0,0,0,.2,2.042,1.873,1.873,0,0,0-.473.14,2.7,2.7,0,0,0-1.4,2.244,6.414,6.414,0,0,0,.01,1.6,4.311,4.311,0,0,0-1.6-.495h0A4.282,4.282,0,0,0,3.924,6.76,4.6,4.6,0,0,0,.169,10.3a10.412,10.412,0,0,0,.745,5.94,13.226,13.226,0,0,0,3.314,4.767,9.366,9.366,0,0,0,2.578,1.766,5.289,5.289,0,0,0,2.9.321,7.342,7.342,0,0,0,4.8-3.251,16.294,16.294,0,0,0,2.3-6.182c.387-1.974.5-4.232-.833-5.9M8.889,1.4c.2-.445,1.189-1.51,1.621-.767.383.66-.444,1.126-.865,1.434a2.216,2.216,0,0,0-.749.974A2.053,2.053,0,0,1,8.889,1.4m-1.6,5.314a6.751,6.751,0,0,1,.095-1.211A2.105,2.105,0,0,1,8.631,3.8c1.873-.6,1.677,2.186,1.753,3.236a.37.37,0,0,0,.009.055c-.084.052-.168.106-.249.164a5.172,5.172,0,0,0-1.08.964c-.191.244-.352.525-.726.285a1.028,1.028,0,0,1-.2-.185c-.174-.193-.648-.494-.757-.71a1.994,1.994,0,0,1-.09-.893m9.187,4.788a14.575,14.575,0,0,1-.429,2.922,19.508,19.508,0,0,1-.882,2.93,8.83,8.83,0,0,1-3.438,4.379,5.2,5.2,0,0,1-5.5.021A12.138,12.138,0,0,1,.68,12.951c-.211-2.057.213-4.2,2.211-5.208a3.851,3.851,0,0,1,2.9-.214A4.619,4.619,0,0,1,7.12,8.21c.451.33.884.964,1.437,1.125.52.151.981-.771,1.309-1.078a5.318,5.318,0,0,1,1.111-.8A4,4,0,0,1,13.7,7.028c2.051.449,2.815,2.59,2.775,4.478" transform="translate(0 0)"/><path d="M172.049,118.527a15.545,15.545,0,0,0,.021-1.744.232.232,0,0,0-.464,0c-.005.35,0,.7-.009,1.049,0,.137-.006.275-.009.412,0,.094-.005.189-.01.283-.016.3.455.3.471,0" transform="translate(-163.815 -111.286)"/><path d="M191.842,114.582a10.065,10.065,0,0,0,.022-1.737.235.235,0,0,0-.471,0c.005.58-.038,1.158-.038,1.737-.025.317.448.3.486,0" transform="translate(-182.697 -107.523)"/><path d="M209.96,109.926a4.267,4.267,0,0,0-.08-1.752.2.2,0,0,0-.383.052,4.979,4.979,0,0,0,.013.714c-.024.328,0,.663-.036.987s.455.308.486,0" transform="translate(-199.995 -103.148)"/><path d="M62.43,202.558c-1.235-.85-2.975-.119-3.8.968a3.266,3.266,0,0,0-.3.482,3.2,3.2,0,0,1-.236.548c-.2.244-.324-.062-.466-.211a5.147,5.147,0,0,0-.453-.423c-.1-.08-.2-.154-.3-.224-1.7-1.493-4.965-1.629-5.435,1.029a6.569,6.569,0,0,0,.914,4.081,15.408,15.408,0,0,0,2.835,3.712,7.472,7.472,0,0,0,1.857,1.444,2.772,2.772,0,0,0,2.009.042,5.83,5.83,0,0,0,3.26-2.771,10.44,10.44,0,0,0,1.3-4.569c.079-1.359.066-3.243-1.19-4.108m.378,6.35a7.7,7.7,0,0,1-2.038,3.6c-1,.925-2.62,1.635-3.882.823a12.434,12.434,0,0,1-2.922-2.851,10.18,10.18,0,0,1-1.911-3.557c-.366-1.366-.36-3.276,1.311-3.719a3.812,3.812,0,0,1,2.436.295,8.642,8.642,0,0,1,1.7,1.276c.244.19.434.447.747.263.244-.143.328-.512.442-.749a2.892,2.892,0,0,1,1.217-1.266,2.443,2.443,0,0,1,1.963-.229,2.212,2.212,0,0,1,1.2,1.747,9.6,9.6,0,0,1-.262,4.364" transform="translate(-49.054 -193.039)"/><path d="M127.021,272.34c-.812.054-1.3.756-1.653,1.418q-.063-.107-.136-.206c-.552-1.03-2.406-1.351-3.077-.312-.858,1.327.368,3.174,1.2,4.2a5.961,5.961,0,0,0,1.86,1.68c.641.291,1.374-.386,1.763-.825a6.855,6.855,0,0,0,1.267-2.151,4.335,4.335,0,0,0,.3-2.563,1.586,1.586,0,0,0-1.526-1.243m1.211,2.691a6.577,6.577,0,0,1-.884,2.225c-.363.58-1.254,1.885-2.1,1.528a3.549,3.549,0,0,1-.867-.668,7.645,7.645,0,0,1-.784-.818,7.349,7.349,0,0,1-1.205-2.023c-.3-.77-.4-2,.6-2.314a1.976,1.976,0,0,1,1.127.041,2.189,2.189,0,0,1,1.136,1.116.137.137,0,0,0,.235,0c.36-.673.948-1.69,1.874-1.427,1,.282,1.032,1.515.872,2.34" transform="translate(-116.35 -260.016)"/></g></svg>