<svg xmlns="http://www.w3.org/2000/svg" width="63.149" height="59.953" viewBox="0 0 63.149 59.953"><g transform="translate(-168.662 -110.78)"><g transform="translate(168.662 110.78)"><path d="M452.674,195.941l-9.935-6.716h-.008a2.094,2.094,0,0,0-.13-.535,3.4,3.4,0,0,0-.319-1.148l2.263-16.024c-.449-2.618-2.426-.469-2.426-.469l-4.29,14.974h0a3.322,3.322,0,0,0,1.463,6.305,3.241,3.241,0,0,0,1.135-.2.589.589,0,0,0,.131-.013l11.192,5.492C453.777,197.9,452.674,195.941,452.674,195.941Zm-13.186-5.486a.975.975,0,0,1-.2.017,1.464,1.464,0,1,1,1.4-1.9,1.311,1.311,0,0,1,.066.437A1.454,1.454,0,0,1,439.488,190.454Z" transform="translate(-403.069 -162.903)" fill="#f9561f"/><path d="M198.96,375.518H195.8v-.436a3.226,3.226,0,0,0-3.226-3.223h-20.68a3.222,3.222,0,0,0-3.227,3.223v12.185h41.477v-.626a4.043,4.043,0,0,0-1.2-2.872l-7.156-7.089A4.014,4.014,0,0,0,198.96,375.518Zm-.759,8.571v-6.065h1.381l6.61,6.065Z" transform="translate(-168.662 -339.725)" fill="#f9561f"/><path d="M210.629,506.432v3.709a3.217,3.217,0,0,1-3.218,3.223h-1.372a5.076,5.076,0,0,0-10.149,0H184.277a5.076,5.076,0,0,0-10.15,0h-1.679a3.224,3.224,0,0,1-3.226-3.223v-3.709Z" transform="translate(-169.153 -457.735)" fill="#f9561f"/><path d="M219.406,529.225a4.225,4.225,0,1,0,4.227,4.222A4.225,4.225,0,0,0,219.406,529.225Zm0,6.34a2.114,2.114,0,1,1,2.111-2.117A2.115,2.115,0,0,1,219.406,535.565Z" transform="translate(-209.456 -477.722)" fill="#f9561f"/><path d="M398.415,529.225a4.225,4.225,0,1,0,4.225,4.222A4.224,4.224,0,0,0,398.415,529.225Zm0,6.34a2.114,2.114,0,1,1,2.113-2.117A2.114,2.114,0,0,1,398.415,535.565Z" transform="translate(-366.433 -477.722)" fill="#f9561f"/><path d="M306.541,136.985a26.334,26.334,0,0,1-16.232,24.45,2.105,2.105,0,0,1-2.908-1.948h0a2.1,2.1,0,0,1,1.288-1.939A22.121,22.121,0,1,0,258.1,137.11q0,.642.036,1.274a2.108,2.108,0,0,1-2.1,2.235h0a2.105,2.105,0,0,1-2.1-1.984q-.043-.756-.043-1.525a26.33,26.33,0,0,1,52.66-.125Z" transform="translate(-243.392 -110.78)" fill="#f9561f"/></g></g></svg>