<svg xmlns="http://www.w3.org/2000/svg" width="14" height="14" viewBox="0 0 14 14"><defs><style>.a{fill:#fff;}</style></defs><path class="a" d="M6.889,3A3.889,3.889,0,0,0,3,6.889v6.222A3.889,3.889,0,0,0,6.889,17h6.222A3.889,3.889,0,0,0,17,13.111V6.889A3.889,3.889,0,0,0,13.111,3Zm7.778,1.556a.778.778,0,1,1-.778.778A.778.778,0,0,1,14.667,4.556ZM10,6.111A3.889,3.889,0,1,1,6.111,10,3.889,3.889,0,0,1,10,6.111Zm0,1.556A2.333,2.333,0,1,0,12.333,10,2.333,2.333,0,0,0,10,7.667Z" transform="translate(-3 -3)"/></svg>