<svg xmlns="http://www.w3.org/2000/svg" width="215" height="215" viewBox="0 0 215 215"><defs><style>.a{fill:#ffc208;}.b{fill:#fff;}</style></defs><g transform="translate(-1390 -4053)"><g transform="translate(-120)"><circle class="a" cx="107.5" cy="107.5" r="107.5" transform="translate(1510 4053)"/><path class="b" d="M149.265,121.921A46.479,46.479,0,0,0,135.8,107.147a5.41,5.41,0,0,0,2.738-6.711l-2.468-6.852a45.765,45.765,0,0,0,7.751-4.355,7.6,7.6,0,0,0,3.168-7.064l-2.554-22.3v-.007a1.972,1.972,0,0,0-.048-.256c0-.013-.007-.027-.011-.04a2.007,2.007,0,0,0-.074-.219c0-.01-.007-.02-.012-.03a1.977,1.977,0,0,0-.119-.237c-.03-.051-.062-.1-.1-.15a24.189,24.189,0,0,0-7.318-6.138l10.441-14.555a5.419,5.419,0,0,0-4.574-8.575l-14.349.454A1.991,1.991,0,1,0,128.4,34.1l12.76-.4-19.39,10.344-19.126.6,4.8-9.883L119.1,34.39a1.991,1.991,0,1,0-.126-3.981l-11.812.373L86.139,2.209a5.419,5.419,0,0,0-9.569,1.7l-6.9,23.78A52.086,52.086,0,0,1,50.255,5.464a3.346,3.346,0,0,0-3.069-1.991h-.014A3.358,3.358,0,0,0,44.09,5.447a38.913,38.913,0,0,0-2.944,9.488L34.485,10.9a3.389,3.389,0,0,0-5.007,3.862,57.8,57.8,0,0,0,9.316,18.269,1.991,1.991,0,1,0,3.174-2.406,54.936,54.936,0,0,1-8.2-15.5l7.913,4.794A1.991,1.991,0,0,0,44.7,18.4,35.052,35.052,0,0,1,47.186,8.307,56.319,56.319,0,0,0,68.512,31.662l-1.833,6.315L54.044,42.166a52.749,52.749,0,0,1-6.073-4.882,1.992,1.992,0,0,0-2.721,2.909c1.317,1.232,2.7,2.407,4.144,3.515L33.007,49.142a5.419,5.419,0,0,0-1.34,9.626L54.176,74.059a37.827,37.827,0,0,0-6.163,4.113,7.533,7.533,0,0,0-2.67,6.682l2.588,22.588c0,.009,0,.018.005.027a1.956,1.956,0,0,0,.048.25c0,.005,0,.011,0,.016a2.021,2.021,0,0,0,.068.207c.174.443.811,1.6,2.974,2.718,2.333,1.211,5.759,2.053,10.19,2.508l.006,1.006a5.413,5.413,0,0,0,8.741,4.248l6.04-4.687c10.821.694,36.236,4.166,52.792,21.181a3.378,3.378,0,0,0,2.427,1.032,3.413,3.413,0,0,0,1.046-.165,3.365,3.365,0,0,0,2.311-2.719l1.145-7.594,10.087,1.433a3.389,3.389,0,0,0,3.451-4.984ZM125.254,97.153l6.235,6-14.578-4.64A68.625,68.625,0,0,0,125.254,97.153Zm9,3.134-4.5-4.338q1.369-.423,2.625-.879Zm5.361-40.4a40.8,40.8,0,0,1-8.868,5.057c-1.108.471-2.351.949-3.725,1.41l7.4-10.309a22.779,22.779,0,0,1,5.2,3.842ZM123.636,47.553l19.393-10.346-19.66,27.4L112.486,63.1ZM112.743,69.281l-.806-2.239,8.25,1.148A66.735,66.735,0,0,1,112.743,69.281Zm-8.881-36.264-4.8,9.883L87.719,27.49,83.873,5.85ZM79.952,6.547,83.8,28.186,78.463,46.561l-7.915-7.623Zm-22.415,48.9L35.77,52.422,67.784,41.806,75.7,49.429Zm-22.315.915,21.77,3.03,13.621,9.254a56.674,56.674,0,0,0-8.756,2.117c-1.247.413-2.416.852-3.512,1.308ZM50.556,81.238c12.41-10.292,30.969-9.8,38.372-9.109a1.992,1.992,0,1,0,.37-3.966,78.98,78.98,0,0,0-12.615-.2l-14.5-9.852,17.9-5.936a1.991,1.991,0,0,0,1.286-1.335l5.258-18.111L97.8,47.916a2,2,0,0,0,1.667.81l18.85-.6L107.328,63.455a1.992,1.992,0,0,0-.256,1.836l1.529,4.245a81.762,81.762,0,0,1-10.124-.3,1.991,1.991,0,1,0-.359,3.967c16.08,1.454,27.591-1.747,34.417-4.688a46.265,46.265,0,0,0,8.351-4.611l2.144,18.715a3.613,3.613,0,0,1-1.51,3.359C126.2,96.813,105.038,95.22,96.652,94.032c-17.648-2.5-29.754.794-36.8,4a40.4,40.4,0,0,0-8.408,5.063L49.3,84.4a3.562,3.562,0,0,1,1.256-3.162ZM65.2,112.56,65.124,100.2a51.273,51.273,0,0,1,7-1.9Zm-12.351-5.445a34.726,34.726,0,0,1,8.3-5.3l.044,7.345c-4.64-.514-7.1-1.393-8.348-2.048ZM68.779,114.3l8.137-16.741a71.54,71.54,0,0,1,13.68-.189Zm65.553,6.947a1.99,1.99,0,0,0-2.249,1.675L130.82,131.3c-7.608-7.51-17.547-13.218-29.562-16.975a106.956,106.956,0,0,0-20.606-4.2L96.285,98q4.279.6,8.4.8l0,0,20.693,6.586c11.48,5.912,17.191,13.07,19.793,17.4Z" transform="translate(1527.217 4093.025)"/></g></g></svg>