<svg xmlns="http://www.w3.org/2000/svg" xmlns:xlink="http://www.w3.org/1999/xlink" width="81.25" height="81.25" viewBox="0 0 81.25 81.25"><defs><style>.a{fill:#f72163;}.b,.c{fill:#fff;}.b{stroke:rgba(0,0,0,0);stroke-miterlimit:10;}.c{fill-rule:evenodd;}.d{filter:url(#a);}</style><filter id="a" x="0" y="0" width="81.25" height="81.25" filterUnits="userSpaceOnUse"><feOffset dy="5" input="SourceAlpha"/><feGaussianBlur stdDeviation="5" result="b"/><feFlood flood-opacity="0.302"/><feComposite operator="in" in2="b"/><feComposite in="SourceGraphic"/></filter></defs><g transform="translate(-1148.631 -3)"><g class="d" transform="matrix(1, 0, 0, 1, 1148.63, 3)"><rect class="a" width="51.25" height="51.25" rx="10" transform="translate(15 10)"/></g><g transform="translate(861.924 -271.145)"><path class="b" d="M9.377,18.441H5.832a4.5,4.5,0,0,1-1.183-.153,1.511,1.511,0,0,1-.672-.385,2.79,2.79,0,0,1-.548-1.411c-.061-.29-.131-.618-.234-.971a6.839,6.839,0,0,0-.278-.771c-.1-.231-.211-.462-.344-.707-.247-.455-.528-.891-.8-1.313h0A13.394,13.394,0,0,1,.556,10.555a7.164,7.164,0,0,1-.4-1.32A7.548,7.548,0,0,1,.04,8.479C.013,8.21,0,7.929,0,7.644A7.7,7.7,0,0,1,.155,6.1,7.6,7.6,0,0,1,1.305,3.37,7.665,7.665,0,0,1,4.668.6,7.6,7.6,0,0,1,6.1.155a7.718,7.718,0,0,1,3.081,0,7.6,7.6,0,0,1,2.733,1.15,7.666,7.666,0,0,1,2.769,3.363A7.605,7.605,0,0,1,15.132,6.1a7.7,7.7,0,0,1,.155,1.54c0,.293-.013.579-.04.852a7.541,7.541,0,0,1-.112.76,6.687,6.687,0,0,1-.4,1.3,8.2,8.2,0,0,1-.562,1.083c-.205.337-.428.662-.643.975h0c-.288.421-.586.856-.845,1.324a7.336,7.336,0,0,0-.358.739,6.42,6.42,0,0,0-.281.832c-.077.291-.132.562-.186.825a8,8,0,0,1-.21.868,1.8,1.8,0,0,1-.361.666,1.532,1.532,0,0,1-.7.427A4.057,4.057,0,0,1,9.377,18.441ZM4.687,2.12A.873.873,0,0,0,4.4,2.2a4.785,4.785,0,0,0-1.345.856A5.246,5.246,0,0,0,2.074,4.26,6.048,6.048,0,0,0,1.454,5.7a6.57,6.57,0,0,0-.249,1.556A6.391,6.391,0,0,0,1.319,8.74a5.629,5.629,0,0,0,.461,1.384,4.776,4.776,0,0,0,.814,1.184,4.365,4.365,0,0,0,1.172.883.675.675,0,0,0,.3.083.18.18,0,0,0,.181-.089c.031-.075-.016-.183-.13-.3a5.574,5.574,0,0,1-.746-1.076A6.266,6.266,0,0,1,2.877,9.6a7.132,7.132,0,0,1-.244-1.3A7.843,7.843,0,0,1,2.622,6.97a8.086,8.086,0,0,1,.209-1.312,7.712,7.712,0,0,1,.418-1.24A6.827,6.827,0,0,1,3.863,3.3a5.74,5.74,0,0,1,.8-.941c.033-.036.123-.15.1-.208C4.749,2.131,4.725,2.12,4.687,2.12Z" transform="translate(319.077 300.294)"/><path class="c" d="M334.45,301.82a.809.809,0,0,1-1.145-1.145l2.354-2.354a.809.809,0,0,1,1.145,1.145Zm-16.668,16.668a.809.809,0,1,1-1.145-1.145l2.354-2.354a.809.809,0,1,1,1.145,1.145Zm15.524-2.354a.809.809,0,1,1,1.145-1.145l2.354,2.354a.809.809,0,0,1-1.145,1.145Zm-16.668-16.668a.809.809,0,0,1,1.145-1.145l2.354,2.354a.809.809,0,0,1-1.145,1.145Zm20.205,9.748a.81.81,0,1,1,0-1.619h3.329a.81.81,0,1,1,0,1.619Zm-23.573,0a.81.81,0,1,1,0-1.619H316.6a.81.81,0,1,1,0,1.619Zm12.641-14.26a.81.81,0,0,1,1.619,0v3.329a.81.81,0,1,1-1.619,0Z"/><path class="c" d="M523.986,807.066h6.053a.791.791,0,0,1,.782.8V809.3a1.156,1.156,0,0,1-.8.98c-.516.156-.855.879-1.127,1.349-.183.314-.328.309-.635.341h-2.5c-.308-.033-.452-.027-.635-.341-.272-.47-.611-1.193-1.127-1.349a1.156,1.156,0,0,1-.8-.98v-1.434a.791.791,0,0,1,.782-.8" transform="translate(-200.292 -487.483)"/></g></g></svg>