<svg xmlns="http://www.w3.org/2000/svg" xmlns:xlink="http://www.w3.org/1999/xlink" width="222.272" height="57.315" viewBox="0 0 222.272 57.315"><defs><style>.a{fill:none;}.b{fill:#0af;}.c{fill:#7a1dff;}.d{fill:#f72163;}.e{fill:#fd5601;}.f{fill:#ffc208;}.g{clip-path:url(#a);}.h{fill:#9de411;}.i{fill:#161e3f;}</style><clipPath id="a"><rect class="a" width="222.272" height="57.315"/></clipPath></defs><g transform="translate(-148 -79)"><path class="b" d="M163.094,112.133l-6.928,5.034,7.5,23.073,6.928-5.033Z" transform="translate(29.824 -5.854)"/><path class="c" d="M43.18,170.554l6.928,5.034,12.7-9.226,12.7,9.226,6.928-5.033-19.627-14.26Z" transform="translate(115.324 -39.273)"/><path class="d" d="M0,82.35l12.7,9.227L7.849,106.505l6.928,5.033,7.5-23.073L2.647,74.205Z" transform="translate(148 22.846)"/><path class="e" d="M27.366,0,22.515,14.929H6.818L4.172,23.073H28.432L35.93,0Z" transform="translate(144.843 79)"/><path class="f" d="M113.008,0l7.5,23.073h24.261l-2.647-8.145h-15.7L121.571,0Z" transform="translate(62.483 79)"/><g transform="translate(148 79)"><g class="g"><path class="h" d="M110.173,69.512l-2.646-8.145L81.056,80.6,69.941,72.524,67.3,80.668l13.761,10Z" transform="translate(-50.924 -46.438)"/><path class="i" d="M266.742,82.186a10.487,10.487,0,0,0-10.632,10.632A10.717,10.717,0,0,0,267.068,103.7c4.685,0,8.8-3.015,9.94-6.6l-5.54-.937a5.154,5.154,0,0,1-4.359,2.2c-2.729,0-4.644-1.426-4.726-3.585h14.991V93.226c0-6.192-4.44-11.04-10.633-11.04m-4.359,8.31c.081-1.548,2.078-2.974,4.359-2.974,2.363,0,4.155,1.385,4.318,2.974Z" transform="translate(-193.806 -62.193)"/><path class="i" d="M354.931,90.059l-4.2-5.528h-7.211v.326l7.577,9.818-6.926,9.9v.326h7.088l3.667-5.229L358.6,104.9h7.129v-.408l-6.844-9.818,7.536-9.818v-.326h-7.292Z" transform="translate(-259.956 -63.967)"/><path class="i" d="M447.129,61.086h-1.263l-8.229,10.673v.57h3.137V75.3c0,7.944,6.11,12.14,13.036,12.14V81.211c-3.544-.041-6.763-1.792-6.763-5.907V72.33h6.763v-5.54h-6.681Z" transform="translate(-331.174 -46.226)"/><path class="i" d="M528.272,87.129h-.041V83.137l-6.192-.041v20.41h6.192V97.884a9.151,9.151,0,0,1,9.411-9.492l-1.955-5.7c-2.241,0-6.03,1.507-7.415,4.44" transform="translate(-395.044 -62.574)"/><path class="i" d="M605.412,82.48v1.957a8.664,8.664,0,0,0-6.264-2.49c-5.159,0-9.622,4.709-9.622,10.728,0,6.06,4.463,10.851,9.622,10.851a8.485,8.485,0,0,0,6.264-2.638v2.064h5.9V82.48Zm-4.667,15.4a5.18,5.18,0,0,1,0-10.359c2.825,0,4.667,2.293,4.667,5.159,0,2.907-1.842,5.2-4.667,5.2" transform="translate(-446.113 -62.013)"/><rect class="i" width="6.469" height="6.51" transform="translate(168.184 34.43)"/><path class="i" d="M742.252,82.48v1.96a8.661,8.661,0,0,0-6.265-2.492c-5.158,0-9.622,4.709-9.622,10.728,0,6.06,4.463,10.85,9.622,10.85a8.455,8.455,0,0,0,5.9-2.281v1.585c0,2.17-2.047,4.013-4.791,4.013a5.037,5.037,0,0,1-4.3-2.211l-5.65,1.023c1.146,3.6,5.282,6.633,9.99,6.633a10.771,10.771,0,0,0,11.014-10.932V82.48Zm-4.668,15.4a5.18,5.18,0,0,1,0-10.359c2.825,0,4.668,2.293,4.668,5.159,0,2.907-1.842,5.2-4.668,5.2" transform="translate(-549.665 -62.013)"/><path class="i" d="M840.865,90.133c-.164-1.6-1.966-2.989-4.34-2.989-2.293,0-4.3,1.433-4.381,2.989Zm-8.721,4.3c.082,2.17,2.006,3.6,4.749,3.6a5.18,5.18,0,0,0,4.382-2.211l5.568.942c-1.147,3.6-5.282,6.633-9.99,6.633a10.771,10.771,0,0,1-11.014-10.932A10.54,10.54,0,0,1,836.525,81.78c6.224,0,10.687,4.873,10.687,11.1v1.556Z" transform="translate(-624.939 -61.886)"/></g></g></g></svg>