<svg xmlns="http://www.w3.org/2000/svg" width="12.049" height="15.066" viewBox="0 0 12.049 15.066"><defs><style>.a{fill:#d3effb;}.b{fill:#b1e4f9;}.c{fill:#986b54;}.d{fill:#845c47;}.e{fill:#f9f6f9;}.f{fill:#dddaec;}.g{fill:#dd636e;}.h{fill:#365e7d;}.i{fill:#d0cee7;}.j{fill:#407093;}</style></defs><g transform="translate(-51.263)"><path class="a" d="M53.713,10.874h7.15a6.025,6.025,0,1,0-7.15,0Z"/><path class="b" d="M242.924,0c-.133,0-.265,0-.4.013a6.024,6.024,0,0,1,3.178,10.861h.793A6.025,6.025,0,0,0,242.924,0Z" transform="translate(-185.637)"/><path class="c" d="M78.311,421.379H67.824a.3.3,0,0,1-.291-.385l.612-2.143a.3.3,0,0,1,.291-.219H77.7a.3.3,0,0,1,.291.219l.612,2.143A.3.3,0,0,1,78.311,421.379Z" transform="translate(-15.78 -406.313)"/><path class="d" d="M387.317,420.994l-.612-2.143a.3.3,0,0,0-.291-.219H385.6a.3.3,0,0,1,.291.219l.612,2.143a.3.3,0,0,1-.291.385h.818A.3.3,0,0,0,387.317,420.994Z" transform="translate(-324.495 -406.313)"/><g transform="translate(55.849 13.465)"><path class="d" d="M209.761,458.046h-2.423a.227.227,0,0,1,0-.455h2.423a.227.227,0,0,1,0,.455Z" transform="translate(-207.111 -457.591)"/></g><g transform="translate(53.798 5.089)"><g transform="translate(5.155 0)"><path class="c" d="M312.8,174.889a.227.227,0,0,1-.167-.382l1.37-1.482a.227.227,0,1,1,.334.309l-1.37,1.482A.227.227,0,0,1,312.8,174.889Z" transform="translate(-312.576 -172.953)"/></g><g transform="translate(5.983 0.586)"><path class="c" d="M341.492,193.473a.228.228,0,0,1-.063-.009l-.542-.155a.227.227,0,0,1,.125-.437l.542.155a.227.227,0,0,1-.062.446Z" transform="translate(-340.722 -192.863)"/></g><g transform="translate(0)"><path class="c" d="M139.006,174.889a.227.227,0,0,1-.167-.073l-1.37-1.482a.227.227,0,1,1,.334-.309l1.37,1.482a.227.227,0,0,1-.167.382Z" transform="translate(-137.409 -172.953)"/></g><g transform="translate(0 0.586)"><path class="c" d="M137.633,193.472a.227.227,0,0,1-.062-.446l.542-.155a.227.227,0,0,1,.125.437l-.542.155A.226.226,0,0,1,137.633,193.472Z" transform="translate(-137.405 -192.862)"/></g></g><circle class="e" cx="2.221" cy="2.221" r="2.221" transform="translate(55.066 5.449)"/><path class="f" d="M208.476,185.739h0a2.222,2.222,0,0,0-1.816-.545h0a2.214,2.214,0,0,0-1.156.546,2.461,2.461,0,0,0,2.161.406.576.576,0,0,1,.678.309,2.222,2.222,0,0,1-1.684,3.132,2.221,2.221,0,0,0,1.817-3.848Z" transform="translate(-149.702 -179.72)"/><g transform="translate(57.06 6.401)"><path class="g" d="M248.5,218.1a.227.227,0,0,1-.227-.227v-.1a.227.227,0,1,1,.455,0v.1A.227.227,0,0,1,248.5,218.1Z" transform="translate(-248.274 -217.54)"/></g><g transform="translate(57.06 7.3)"><path class="g" d="M248.5,248.654a.227.227,0,0,1-.227-.227v-.1a.227.227,0,1,1,.455,0v.1A.227.227,0,0,1,248.5,248.654Z" transform="translate(-248.274 -248.096)"/></g><g transform="translate(57.06 8.2)"><path class="g" d="M248.5,279.209a.227.227,0,0,1-.227-.227v-.1a.227.227,0,1,1,.455,0v.1A.227.227,0,0,1,248.5,279.209Z" transform="translate(-248.274 -278.651)"/></g><g transform="translate(52.162 0.824)"><g transform="translate(2.325 0.727)"><path class="e" d="M161.044,53.253a.227.227,0,0,1-.227-.227v-.083a.227.227,0,0,1,.455,0v.083A.227.227,0,0,1,161.044,53.253Z" transform="translate(-160.817 -52.715)"/></g><g transform="translate(4.898)"><path class="e" d="M248.5,28.55a.227.227,0,0,1-.227-.227v-.083a.227.227,0,1,1,.455,0v.083A.227.227,0,0,1,248.5,28.55Z" transform="translate(-248.274 -28.012)"/></g><g transform="translate(0.273 6.577)"><path class="e" d="M91.334,252.063a.227.227,0,0,1-.227-.227v-.083a.227.227,0,0,1,.455,0v.083A.227.227,0,0,1,91.334,252.063Z" transform="translate(-91.107 -251.525)"/></g><g transform="translate(8.473 6.739)"><path class="e" d="M369.988,257.572a.227.227,0,0,1-.227-.227v-.083a.227.227,0,0,1,.455,0v.083A.227.227,0,0,1,369.988,257.572Z" transform="translate(-369.761 -257.034)"/></g><g transform="translate(9.566 5.705)"><path class="e" d="M407.12,222.431a.227.227,0,0,1-.227-.227v-.083a.227.227,0,1,1,.455,0v.083A.227.227,0,0,1,407.12,222.431Z" transform="translate(-406.893 -221.893)"/></g><g transform="translate(8.921 2.708)"><path class="e" d="M385.228,120.563a.227.227,0,0,1-.227-.227v-.083a.227.227,0,1,1,.455,0v.083A.227.227,0,0,1,385.228,120.563Z" transform="translate(-385.001 -120.025)"/></g><g transform="translate(7.627 1.116)"><path class="e" d="M341.236,66.485a.227.227,0,0,1-.227-.227v-.083a.227.227,0,0,1,.455,0v.083A.227.227,0,0,1,341.236,66.485Z" transform="translate(-341.009 -65.947)"/></g><g transform="translate(0 4.363)"><path class="e" d="M82.045,176.828a.227.227,0,0,1-.227-.227v-.083a.227.227,0,1,1,.455,0v.083A.227.227,0,0,1,82.045,176.828Z" transform="translate(-81.818 -176.29)"/></g><g transform="translate(2.169 2.919)"><path class="e" d="M155.766,127.735a.227.227,0,0,1-.227-.227v-.083a.227.227,0,1,1,.455,0v.083A.227.227,0,0,1,155.766,127.735Z" transform="translate(-155.539 -127.197)"/></g><g transform="translate(1.755 6.253)"><path class="e" d="M141.692,241.043a.227.227,0,0,1-.227-.227v-.083a.227.227,0,1,1,.455,0v.083A.227.227,0,0,1,141.692,241.043Z" transform="translate(-141.465 -240.505)"/></g><g transform="translate(0.839 2.152)"><path class="e" d="M110.572,101.691a.227.227,0,0,1-.227-.227v-.083a.227.227,0,0,1,.455,0v.083A.227.227,0,0,1,110.572,101.691Z" transform="translate(-110.345 -101.153)"/></g></g><circle class="e" cx="1.882" cy="1.882" r="1.882" transform="translate(55.406 2.179)"/><path class="f" d="M246.215,74.052a1.9,1.9,0,0,0-.3.023,1.882,1.882,0,0,1,0,3.717,1.882,1.882,0,1,0,.3-3.74Z" transform="translate(-188.927 -71.873)"/><g transform="translate(56.423 3.543)"><g transform="translate(0)"><path class="h" d="M226.848,121.069a.227.227,0,0,1-.227-.227v-.211a.227.227,0,0,1,.455,0v.211A.227.227,0,0,1,226.848,121.069Z" transform="translate(-226.621 -120.403)"/></g><g transform="translate(1.274)"><path class="h" d="M270.154,121.069a.227.227,0,0,1-.227-.227v-.211a.227.227,0,0,1,.455,0v.211A.227.227,0,0,1,270.154,121.069Z" transform="translate(-269.927 -120.403)"/></g></g><path class="f" d="M95.235,316.7c-.542.084-.668.336-1.419.336-.9,0-.9-.364-1.8-.364s-.9.364-1.8.364-.9-.364-1.8-.364-.9.364-1.8.364c-.751,0-.877-.252-1.419-.336a6.059,6.059,0,0,0,1.452,1.528l.2.909h6.718l.227-.909A6.059,6.059,0,0,0,95.235,316.7Z" transform="translate(-32.921 -307.356)"/><path class="i" d="M350.543,319.129l.156.909.637-.909a6.06,6.06,0,0,0,1.452-1.528c-.425.066-.594.235-1.009.305A6.06,6.06,0,0,1,350.543,319.129Z" transform="translate(-290.473 -308.255)"/><path class="j" d="M134.513,369.538h7.15v1.445h-7.15Z" transform="translate(-80.8 -358.664)"/><path class="h" d="M355.834,369.538h.637v1.445h-.637Z" transform="translate(-295.609 -358.664)"/></g></svg>