<svg xmlns="http://www.w3.org/2000/svg" xmlns:xlink="http://www.w3.org/1999/xlink" width="17.832" height="22.09" viewBox="0 0 17.832 22.09"><defs><style>.a{fill:none;}.b{clip-path:url(#a);}.c{fill:url(#b);}.d{clip-path:url(#c);}.e{fill:url(#d);}.f{clip-path:url(#e);}.g{fill:url(#f);}.h{clip-path:url(#g);}.i{fill:url(#h);}</style><clipPath id="a"><path class="a" d="M12.668,0C4.856,1.818,4.129,8.144,4.517,9.411a2.28,2.28,0,0,1-.811-2.154C1.2,10.355.494,13.326,1.284,15.746c.24.736-.148.889-1.284-.247,1.926,6.026,5.717,6.26,8.66,6.354a9.424,9.424,0,0,0,9.172-5.563c-1.581,1.334-2.687,2.141-2.443,1.572.35-.815,2.033-1.3,2.2-3.646C17.8,11.1,15.475,11.174,15.9,8.794c-.981.419-1.612,1.188-1.531,2.875C13.875,6.548,10.437,3.936,12.668,0Z"/></clipPath><linearGradient id="b" x1="0.094" y1="0.943" x2="0.097" y2="0.943" gradientUnits="objectBoundingBox"><stop offset="0" stop-color="#fff71c"/><stop offset="0.047" stop-color="#fff71c"/><stop offset="0.186" stop-color="#ffc610"/><stop offset="0.319" stop-color="#ff9f07"/><stop offset="0.424" stop-color="#ff8702"/><stop offset="0.489" stop-color="#ff7f00"/><stop offset="0.81" stop-color="#f15a24"/><stop offset="0.978" stop-color="#cd270a"/><stop offset="1" stop-color="#cd270a"/></linearGradient><clipPath id="c"><path class="a" d="M32.452,46.573a2.835,2.835,0,0,1-1.389-2.516c-2.326,2.84-1.153,8.494.9,10.462a6.782,6.782,0,0,0,8.227.542,8.772,8.772,0,0,0,2.33-2.765c1.667-3.112.333-4.556.889-6.779a3.913,3.913,0,0,0-1.872,3.12c-.259-5.625-5-8.234-3.615-11.684-5.647,1.818-5.859,8.516-5.471,9.618" transform="translate(-29.783 -36.955)"/></clipPath><linearGradient id="d" x1="0.039" y1="0.906" x2="0.043" y2="0.906" gradientUnits="objectBoundingBox"><stop offset="0" stop-color="#fff71c"/><stop offset="0.115" stop-color="#fff71c"/><stop offset="0.258" stop-color="#ffdf16"/><stop offset="0.557" stop-color="#ffa108"/><stop offset="0.716" stop-color="#ff7f00"/><stop offset="1" stop-color="#ff7f00"/></linearGradient><clipPath id="e"><path class="a" d="M59.1,76.646c-.806.293-1.021-1.551-1.054-2.6-2.326,4.966-1.4,7.761.455,10.158a8.214,8.214,0,0,0,2.626.431,9.626,9.626,0,0,0,3.318-.7,22.766,22.766,0,0,1,.79-3.359c1.492-5.751-5.551-8.548-3.627-12.772-5.047,3.234-1.728,8.554-2.509,8.838" transform="translate(-56.663 -67.808)"/></clipPath><linearGradient id="f" x1="-0.115" y1="0.962" x2="-0.11" y2="0.962" gradientUnits="objectBoundingBox"><stop offset="0" stop-color="#fff71c"/><stop offset="0.138" stop-color="#fff71c"/><stop offset="0.452" stop-color="#ffe116"/><stop offset="0.807" stop-color="#ffc50f"/><stop offset="1" stop-color="#ffc50f"/></linearGradient><clipPath id="g"><path class="a" d="M78.131,140.136c-.463.185-1.324-1.143-1.4-1.807a3.834,3.834,0,0,0,0,4.921,4.021,4.021,0,0,0,2.735,1.043H79.5a2.908,2.908,0,0,0,3.011-2.469c.974-4.564-4.452-4.778-3.548-9.842-3.339,4.636-.379,7.976-.828,8.154" transform="translate(-75.842 -131.982)"/></clipPath><linearGradient id="h" x1="-0.375" y1="0.948" x2="-0.368" y2="0.948" gradientUnits="objectBoundingBox"><stop offset="0" stop-color="#fff"/><stop offset="0.145" stop-color="#fff"/><stop offset="0.224" stop-color="#fffefb"/><stop offset="0.297" stop-color="#fffef0"/><stop offset="0.369" stop-color="#fffddd"/><stop offset="0.438" stop-color="#fffcc2"/><stop offset="0.507" stop-color="#fffba0"/><stop offset="0.575" stop-color="#fffa77"/><stop offset="0.641" stop-color="#fff846"/><stop offset="0.691" stop-color="#fff71c"/><stop offset="1" stop-color="#fff71c"/></linearGradient></defs><g class="b"><path class="c" d="M0,0,23.3.619V25.739l-19.713.118Z" transform="translate(-5.852 0.599) rotate(-11.891)"/></g><g transform="translate(2.207 2.738)"><g class="d"><rect class="e" width="19.265" height="22.873" transform="matrix(0.979, -0.206, 0.206, 0.979, -5.103, 0.854)"/></g></g><g transform="translate(4.198 5.024)"><g class="f"><rect class="g" width="14.239" height="18.736" transform="matrix(0.979, -0.206, 0.206, 0.979, -4.338, 0.714)"/></g></g><g transform="translate(5.619 9.779)"><g class="h"><rect class="i" width="10.501" height="13.724" transform="matrix(0.979, -0.206, 0.206, 0.979, -2.982, 0.523)"/></g></g></svg>