<svg xmlns="http://www.w3.org/2000/svg" xmlns:xlink="http://www.w3.org/1999/xlink" width="428.376" height="290.873" viewBox="0 0 428.376 290.873"><defs><style>.a{fill:none;}.b{clip-path:url(#a);}.c{fill:#965fe3;}.d{clip-path:url(#b);}.e{fill:url(#c);}.f{clip-path:url(#d);}.g{fill:url(#e);}.h{clip-path:url(#f);}.i{fill:url(#g);}.j{clip-path:url(#h);}.k{fill:url(#i);}</style><clipPath id="a"><rect class="a" width="390.861" height="196.403"/></clipPath><clipPath id="b"><path class="a" d="M2.377,6.39c7.9,5.215,31.658,22.949,13.357,38.731-2.04,1.777-1.291,6.486,1.94,5.983,24.888-3.867,43.718,13.867,29.863,27.773-2.569,2.57-.391,6.31,3.64,5.643,20.127-3.313,41.187,8.552,50.948,22.255,5.454,7.646,7.393,15.87,3.64,22.358-2.33,4.08,1.473,5.555,3.829,4.471,28.592-13.225,44.487,9.56,49.4,20.153,4.521,9.71,3.614,25.556,3.879,33.869a4.01,4.01,0,0,0,3.7,4.219,4.183,4.183,0,0,0,1.1.151h0a4.051,4.051,0,0,0,3.793-2.873c3.086-7.733,7.583-22.948,15.126-30.569,8.2-8.288,30.872-24.346,53.3-2.229,1.839,1.826,5.932,1.713,5.113-2.909-3.7-20.581,38.707-38.982,66.479-23.49,3.565,1.989,6.877-.793,5.328-4.081-8.325-17.785,15.392-28.087,37.5-16.021,2.871,1.561,5.176-2.62,3.854-4.976-11.89-21.047,16.475-29.687,25.682-31.929,2.543-.618,3.535-1.967,3.552-3.28v-.068a3.411,3.411,0,0,0-3.539-3.177c-11.021.328-39.486,3.149-60.861-.692-10.379-1.864-18.011-4.925-24.788-7.47-7.1-2.683-13.275-4.8-20.619-4.37-21.916,1.247-49.021,25.5-57.674,22.432-7.771-2.746-5.252-8.653-5.089-13.678A179.63,179.63,0,0,1,216.768,43.7c.5-3.54,1.033-7.067,1.486-10.619.466-3.829-5.806-4.6-6.663-.919C209.186,42.6,204.147,63.649,189.4,61.28h-.05a.08.08,0,0,1-.05-.012C174.624,58.5,176.992,37,178.264,26.341c.454-3.74-5.718-5.139-6.562-1.385-.794,3.5-1.487,7-2.217,10.491A174.74,174.74,0,0,1,164.9,53.9c-1.537,4.8-1.172,11.2-9.409,11.16C146.3,65.009,129,33.017,108.813,24.414c-7.31-3.112-14.307-2.972-22.7-2.833a122.934,122.934,0,0,1-24.039-1.386C40.647,16.58,14.827,4.3,4.568.244A3.422,3.422,0,0,0,3.3,0C.448,0-1.974,3.515,2.377,6.39" transform="translate(0 0)"/></clipPath><linearGradient id="c" x1="0.043" y1="0.752" x2="0.044" y2="0.752" gradientUnits="objectBoundingBox"><stop offset="0" stop-color="#3b1e66"/><stop offset="1" stop-color="#190b30"/></linearGradient><clipPath id="d"><path class="a" d="M18.1,2.212c-.794,3.5-1.487,7-2.217,10.491A174.743,174.743,0,0,1,11.3,31.156s-.327,1.184-.894,3.464c-.038.189-.089.378-.139.579C8.63,41.837,5.2,56.688,1.237,79.5c-4.509,25.808,4.61,47.094,6.625,59.664.013.089.026.164.039.239,1.624,8.905,1.171,19.283,1.373,25.481a4.01,4.01,0,0,0,3.7,4.219,4.182,4.182,0,0,0,1.1.151h0a4.051,4.051,0,0,0,3.793-2.873c2.28-5.743,5.353-15.58,9.863-23.4.076-.127.151-.252.214-.378,6.172-11.147,21.916-28.062,26.412-53.845,3.98-22.873,5.782-38.025,6.487-44.8.025-.164.037-.327.05-.491.214-2.054.315-3.212.327-3.49a.283.283,0,0,0,.012-.1,179.63,179.63,0,0,1,1.927-18.918c.5-3.54,1.033-7.067,1.486-10.618.466-3.829-5.806-4.6-6.663-.919C55.586,19.858,50.548,40.9,35.8,38.537h-.05a.08.08,0,0,1-.05-.012C21.025,35.753,23.392,14.253,24.664,3.6,24.932,1.392,22.894,0,21,0a2.788,2.788,0,0,0-2.9,2.212" transform="translate(0)"/></clipPath><linearGradient id="e" x1="-0.585" y1="1.023" x2="-0.581" y2="1.023" gradientUnits="objectBoundingBox"><stop offset="0" stop-color="#251144"/><stop offset="1" stop-color="#4c2a7d"/></linearGradient><clipPath id="f"><path class="a" d="M.1,5.376A6.481,6.481,0,1,0,6.482,0,6.506,6.506,0,0,0,.1,5.376" transform="translate(0)"/></clipPath><linearGradient id="g" x1="-8.677" y1="6.512" x2="-8.643" y2="6.512" gradientUnits="objectBoundingBox"><stop offset="0" stop-color="#ffc15c"/><stop offset="0.995" stop-color="#fa921f"/><stop offset="1" stop-color="#fa921f"/></linearGradient><clipPath id="h"><path class="a" d="M.1,5.375A6.481,6.481,0,1,0,6.48,0,6.48,6.48,0,0,0,.1,5.375" transform="translate(0 0)"/></clipPath><linearGradient id="i" x1="-10.044" y1="6.275" x2="-10.011" y2="6.275" xlink:href="#g"/></defs><g transform="matrix(0.966, 0.259, -0.259, 0.966, 50.833, 0)"><g transform="translate(0 0)"><g class="b"><path class="c" d="M383.871,66.394c-11.021.34-39.473,3.149-60.861-.693-10.378-1.864-18.011-4.925-24.788-7.469-7.1-2.682-13.276-4.786-20.619-4.37-21.9,1.247-49.021,25.506-57.674,22.432-5.718-2.028-5.869-5.744-5.479-9.572v-.013c.025-.164.038-.34.05-.5.013-.012,0-.012,0-.012.138-1.21.3-2.418.34-3.578A180.325,180.325,0,0,1,216.768,43.7c.5-3.54,1.033-7.067,1.486-10.618.466-3.817-5.806-4.6-6.663-.92-2.406,10.454-7.457,31.488-22.193,29.133a.1.1,0,0,0-.051-.012c-.025,0-.025-.013-.05,0C174.624,58.5,176.992,37,178.264,26.34c.454-3.728-5.719-5.138-6.562-1.385-.794,3.5-1.487,7-2.217,10.5A175.286,175.286,0,0,1,164.9,53.9c-.353,1.109-.6,2.28-.881,3.451l-.013.014c-.038.2-.088.39-.139.579a.3.3,0,0,0-.012.05c-.932,3.691-2.356,7.092-8.364,7.067C146.3,65.008,129,33.016,108.813,24.414c-13.225-5.63-25.43-.617-46.741-4.22C40.647,16.579,14.827,4.3,4.568.243,1.312-1.054-2.618,3.1,2.377,6.389,10.28,11.6,34.048,29.338,15.74,45.133c-2.04,1.763-1.3,6.475,1.927,5.97C42.562,47.236,61.392,64.97,47.537,78.876c-2.569,2.582-.391,6.311,3.64,5.643,20.127-3.313,41.2,8.553,50.948,22.256,5.454,7.658,7.394,15.87,3.653,22.357-2.342,4.08,1.473,5.554,3.816,4.471,28.591-13.225,44.486,9.56,49.412,20.152a35.012,35.012,0,0,1,2.443,8.073.157.157,0,0,0,.013.076c.012.05.012.113.025.163.126.643.227,1.3.327,1.965.038.252.076.5.1.755.063.428.113.856.163,1.285.038.3.076.6.1.907.05.4.088.806.126,1.209.038.478.076.944.113,1.422.025.428.063.844.088,1.26.025.391.037.769.063,1.146.013.29.025.579.038.856.025.4.038.806.063,1.2,0,.227.012.453.012.667.038.882.05,1.763.063,2.62,0,.076.013.164.013.24.012.5.012.995.025,1.486v.227c.012,1.7.025,3.312.037,4.811v.125c0,.5.013.983.013,1.462,0,.125,0,.264.013.39,0,.529.012,1.045.025,1.525.1,2.7,1.8,4.08,3.7,4.219a3.973,3.973,0,0,0,4.9-2.72c.177-.428.353-.895.542-1.374.063-.163.126-.34.189-.516.138-.353.277-.731.416-1.109.05-.138.1-.277.151-.428.492-1.3,1.007-2.721,1.549-4.194.063-.151.113-.29.164-.441.163-.428.327-.869.491-1.31l.012-.012c.353-.919.718-1.877,1.1-2.835.05-.113.088-.226.138-.34.177-.44.353-.881.542-1.323.063-.151.113-.29.176-.428.592-1.411,1.209-2.821,1.877-4.219l.189-.416c.2-.428.416-.843.617-1.26.088-.163.164-.315.252-.479.466-.919.957-1.826,1.46-2.708.076-.125.139-.239.2-.365a35.119,35.119,0,0,1,5.063-6.814c8.2-8.288,30.871-24.347,53.3-2.216,1.839,1.814,5.932,1.7,5.113-2.922-3.7-20.569,38.705-38.983,66.478-23.491,3.565,1.99,6.877-.793,5.328-4.081-8.326-17.784,15.392-28.087,37.509-16.021,2.859,1.562,5.164-2.62,3.842-4.975C346.286,83.8,374.651,75.16,383.858,72.918c5.807-1.411,3.527-6.638.013-6.524" transform="translate(0 0)"/></g></g><g transform="translate(3.451 4.408)"><g class="d" transform="translate(0 0)"><rect class="e" width="428.965" height="381.005" transform="translate(-92.305 63.502) rotate(-35.107)"/></g></g><g transform="translate(157.051 27.151)"><g class="f" transform="translate(0)"><rect class="g" width="173.278" height="161.691" transform="translate(-86.781 98.33) rotate(-49.66)"/></g></g><g transform="translate(170.08 74.735)"><g class="h" transform="translate(0 0)"><rect class="i" width="19.242" height="19.113" transform="translate(-6.87 4.465) rotate(-35.107)"/></g></g><g transform="translate(196.304 79.307)"><g class="j" transform="translate(0 0)"><rect class="k" width="19.232" height="19.106" transform="translate(-6.871 4.465) rotate(-35.107)"/></g></g></g></svg>