<svg xmlns="http://www.w3.org/2000/svg" xmlns:xlink="http://www.w3.org/1999/xlink" width="370.862" height="251.82" viewBox="0 0 370.862 251.82"><defs><style>.a{fill:none;}.b{clip-path:url(#a);}.c{fill:#965fe3;}.d{clip-path:url(#b);}.e{fill:url(#c);}.f{clip-path:url(#d);}.g{fill:url(#e);}.h{clip-path:url(#f);}.i{fill:url(#g);}.j{clip-path:url(#h);}.k{fill:url(#i);}</style><clipPath id="a"><rect class="a" width="338.384" height="170.034" transform="translate(0 0)"/></clipPath><clipPath id="b"><path class="a" d="M2.058,160.686c6.842-4.515,27.408-19.868,11.563-33.531-1.766-1.538-1.117-5.615,1.68-5.18,21.547,3.347,37.849-12.006,25.854-24.044-2.224-2.225-.338-5.463,3.151-4.885,17.425,2.868,35.657-7.4,44.108-19.267,4.721-6.62,6.4-13.739,3.151-19.356-2.017-3.532,1.275-4.809,3.315-3.87,24.753,11.45,38.514-8.277,42.767-17.447,3.914-8.406,3.129-22.125,3.359-29.322A3.472,3.472,0,0,1,144.211.131,3.621,3.621,0,0,1,145.166,0h0a3.507,3.507,0,0,1,3.283,2.487c2.672,6.695,6.564,19.867,13.1,26.465,7.1,7.175,26.727,21.078,46.148,1.93,1.592-1.581,5.135-1.483,4.426,2.519-3.205,17.818,33.51,33.749,57.553,20.336,3.086-1.722,5.953.687,4.612,3.533-7.207,15.4,13.326,24.316,32.463,13.87,2.486-1.351,4.481,2.269,3.336,4.308-10.293,18.221,14.263,25.7,22.234,27.643,2.2.535,3.061,1.7,3.075,2.839v.058a2.953,2.953,0,0,1-3.064,2.75c-9.542-.284-34.185-2.726-52.69.6-8.985,1.614-15.593,4.264-21.46,6.467-6.15,2.323-11.493,4.154-17.85,3.783-18.973-1.079-42.439-22.081-49.93-19.42-6.728,2.377-4.547,7.491-4.406,11.842a155.512,155.512,0,0,0,1.669,16.378c.436,3.065.894,6.118,1.287,9.193.4,3.315-5.027,3.98-5.768.8-2.083-9.039-6.445-27.26-19.214-25.21h-.043a.07.07,0,0,0-.043.01c-12.7,2.4-10.654,21.013-9.553,30.238.393,3.238-4.95,4.449-5.681,1.2-.687-3.031-1.287-6.063-1.919-9.083a151.282,151.282,0,0,0-3.969-15.975c-1.331-4.154-1.014-9.694-8.146-9.661-7.96.043-22.932,27.741-40.411,35.188-6.328,2.694-12.386,2.573-19.654,2.453a106.429,106.429,0,0,0-20.812,1.2c-18.548,3.129-40.9,13.761-49.783,17.272a2.963,2.963,0,0,1-1.1.211c-2.466,0-4.563-3.043-.8-5.532"/></clipPath><linearGradient id="c" x1="0.043" y1="0.248" x2="0.044" y2="0.248" gradientUnits="objectBoundingBox"><stop offset="0" stop-color="#3b1e66"/><stop offset="1" stop-color="#190b30"/></linearGradient><clipPath id="d"><path class="a" d="M15.672,144.613c-.687-3.031-1.287-6.063-1.919-9.083a151.282,151.282,0,0,0-3.969-15.975s-.283-1.025-.774-3c-.033-.163-.077-.327-.12-.5-1.418-5.747-4.383-18.6-7.818-38.35-3.9-22.343,3.991-40.772,5.735-51.654.011-.077.022-.142.033-.207,1.406-7.71,1.014-16.694,1.189-22.06A3.472,3.472,0,0,1,11.233.131,3.62,3.62,0,0,1,12.189,0h0a3.507,3.507,0,0,1,3.283,2.487c1.974,4.972,4.634,13.488,8.538,20.259.066.11.131.218.185.327,5.343,9.651,18.973,24.295,22.866,46.616,3.446,19.8,5.006,32.92,5.616,38.787.022.142.032.284.043.425.185,1.778.273,2.781.284,3.021a.245.245,0,0,1,.011.087,155.512,155.512,0,0,0,1.669,16.378c.436,3.065.894,6.118,1.287,9.193.4,3.315-5.027,3.98-5.768.8-2.083-9.039-6.445-27.261-19.214-25.21h-.043a.07.07,0,0,0-.043.01c-12.7,2.4-10.654,21.013-9.553,30.238a2.964,2.964,0,0,1-3.168,3.115,2.414,2.414,0,0,1-2.512-1.915"/></clipPath><linearGradient id="e" x1="-0.585" y1="-0.023" x2="-0.581" y2="-0.023" gradientUnits="objectBoundingBox"><stop offset="0" stop-color="#251144"/><stop offset="1" stop-color="#4c2a7d"/></linearGradient><clipPath id="f"><path class="a" d="M.085,6.591a5.61,5.61,0,1,1,5.527,4.654A5.632,5.632,0,0,1,.085,6.591"/></clipPath><linearGradient id="g" x1="-8.677" y1="-5.512" x2="-8.643" y2="-5.512" gradientUnits="objectBoundingBox"><stop offset="0" stop-color="#ffc15c"/><stop offset="0.995" stop-color="#fa921f"/><stop offset="1" stop-color="#fa921f"/></linearGradient><clipPath id="h"><path class="a" d="M.085,6.584A5.61,5.61,0,1,1,5.61,11.237,5.61,5.61,0,0,1,.085,6.584"/></clipPath><linearGradient id="i" x1="-10.044" y1="-5.275" x2="-10.011" y2="-5.275" xlink:href="#g"/></defs><g transform="matrix(-0.966, 0.259, -0.259, -0.966, 370.862, 164.24)"><g class="b"><path class="c" d="M332.332,108.742c-9.541-.294-34.174-2.726-52.69.6-8.985,1.614-15.593,4.264-21.46,6.466-6.15,2.322-11.493,4.143-17.85,3.784-18.962-1.079-42.439-22.081-49.93-19.421-4.95,1.756-5.081,4.973-4.743,8.287v.011c.022.142.033.294.043.436.011.011,0,.011,0,.011.12,1.047.262,2.094.295,3.1a156.117,156.117,0,0,0,1.668,16.378c.436,3.064.894,6.118,1.287,9.192.4,3.3-5.027,3.981-5.768.8-2.083-9.051-6.456-27.26-19.213-25.221a.085.085,0,0,1-.044.011c-.022,0-.022.011-.043,0-12.7,2.409-10.653,21.023-9.552,30.249.393,3.228-4.951,4.449-5.681,1.2-.687-3.031-1.287-6.063-1.919-9.094a151.751,151.751,0,0,0-3.969-15.963c-.305-.96-.524-1.974-.763-2.988l-.011-.012c-.033-.174-.076-.338-.12-.5a.259.259,0,0,1-.011-.043c-.807-3.2-2.04-6.14-7.241-6.118-7.96.044-22.932,27.741-40.411,35.188-11.45,4.874-22.016.534-40.466,3.653-18.548,3.13-40.9,13.761-49.783,17.272-2.819,1.123-6.221-2.475-1.9-5.321,6.842-4.515,27.419-19.868,11.569-33.542-1.766-1.527-1.123-5.605,1.669-5.169,21.552,3.347,37.854-12.006,25.859-24.044-2.224-2.236-.338-5.463,3.151-4.885,17.425,2.868,35.668-7.4,44.108-19.268,4.721-6.63,6.4-13.739,3.162-19.355-2.028-3.532,1.275-4.808,3.3-3.871,24.752,11.45,38.514-8.276,42.778-17.447a30.311,30.311,0,0,0,2.115-6.989.136.136,0,0,1,.011-.066c.011-.043.011-.1.022-.141.109-.556.2-1.123.283-1.7.033-.218.066-.436.087-.654.055-.37.1-.741.141-1.112.033-.262.066-.524.087-.785.043-.349.076-.7.109-1.047.033-.414.066-.817.1-1.231.022-.371.055-.731.076-1.091.022-.338.032-.666.055-.993.011-.251.022-.5.033-.741.022-.349.033-.7.055-1.036,0-.2.011-.392.011-.578.033-.764.043-1.527.055-2.268,0-.066.011-.142.011-.208.011-.436.011-.861.022-1.287v-.2c.011-1.472.022-2.867.032-4.165V6.711c0-.437.011-.851.011-1.265,0-.109,0-.229.011-.338,0-.458.011-.905.022-1.32A3.465,3.465,0,0,1,144.211.135a3.44,3.44,0,0,1,4.241,2.355c.153.371.306.775.469,1.189.055.141.109.294.164.447.12.306.24.633.36.96.043.119.087.24.131.37.426,1.123.872,2.355,1.341,3.631.055.131.1.251.142.382.141.37.284.752.425,1.134l.011.011c.306.8.622,1.625.949,2.454.043.1.076.2.12.294.153.381.305.763.469,1.145.055.13.1.251.153.37.512,1.221,1.047,2.442,1.625,3.653l.164.36c.174.371.36.73.534,1.091.076.141.142.272.218.414.4.8.829,1.581,1.264,2.344.066.109.12.207.175.316a30.4,30.4,0,0,0,4.383,5.9c7.1,7.175,26.726,21.078,46.148,1.919,1.592-1.57,5.135-1.472,4.427,2.53-3.206,17.807,33.509,33.749,57.553,20.337,3.086-1.723,5.954.687,4.613,3.533-7.208,15.4,13.325,24.316,32.473,13.87,2.475-1.352,4.471,2.268,3.326,4.307-10.294,18.221,14.262,25.7,22.233,27.643,5.027,1.221,3.053,5.747.011,5.648" transform="translate(0 3.813)"/></g><g transform="translate(2.988 0)"><g class="d"><rect class="e" width="371.372" height="329.851" transform="translate(109.788 -158.602) rotate(35.107)"/></g></g><g transform="translate(135.965 0)"><g class="f"><rect class="g" width="150.014" height="139.982" transform="translate(31.566 -29.214) rotate(49.66)"/></g></g><g transform="translate(147.245 94.088)"><g class="h" transform="translate(0 0)"><rect class="i" width="16.658" height="16.547" transform="translate(3.569 -6.157) rotate(35.107)"/></g></g><g transform="translate(169.948 90.137)"><g class="j" transform="translate(0 0)"><rect class="k" width="16.65" height="16.541" transform="translate(3.565 -6.16) rotate(35.107)"/></g></g></g></svg>