<svg xmlns="http://www.w3.org/2000/svg" width="21.238" height="21.238" viewBox="0 0 21.238 21.238"><defs><style>.a{fill:#fff;}</style></defs><path class="a" d="M22.21,22.11h.005V14.32c0-3.81-.82-6.746-5.275-6.746a4.624,4.624,0,0,0-4.165,2.289h-.062V7.93H8.489V22.109h4.4V15.088c0-1.849.35-3.636,2.64-3.636,2.256,0,2.289,2.11,2.289,3.755v6.9Z" transform="translate(-0.977 -0.872)"/><path class="a" d="M.4,7.977H4.8V22.156H.4Z" transform="translate(-0.046 -0.918)"/><path class="a" d="M2.55,0A2.562,2.562,0,1,0,5.1,2.55,2.551,2.551,0,0,0,2.55,0Z"/></svg>