<svg xmlns="http://www.w3.org/2000/svg" width="261.15" height="293.37" viewBox="0 0 261.15 293.37"><defs><style>.a{fill:#d9e9ff;}.b{fill:#a8c9ed;}.c{fill:#ebf3ff;}.d{fill:#fff;}.e{fill:#22009c;}.f{fill:#724df7;}.g{fill:#5732db;}.h{fill:none;stroke:#fff;stroke-miterlimit:10;stroke-width:3.024px;}.i{fill:#e6f0ff;}.j{fill:#6899e3;}.k{opacity:0.29;}.am,.k,.s,.y{mix-blend-mode:multiply;isolation:isolate;}.l{fill:#a8c4e5;}.m{fill:#ffbe3d;}.n{fill:#4857ff;}.o{fill:#616eff;}.p{fill:#173891;}.q{fill:#ffc248;}.r{fill:#6343d9;}.s{opacity:0.4;}.t{fill:#1d0087;}.u{opacity:0.44;}.v{fill:#2c1f9c;}.w{fill:#ffaf6f;}.x{fill:#ffc2b0;}.z{fill:#e8eefa;}.aa{fill:#3b2ad1;}.ab{fill:#9ec2ff;}.ac{fill:#4735de;}.ad{fill:#7363ff;}.ae{fill:#cf8c3b;}.af{opacity:0.51;}.ag{fill:#c6d2f2;}.ah{fill:#e651aa;}.ai{fill:#fd6fc4;}.aj{fill:#e1eaf4;}.ak{fill:#21ded5;}.al{fill:#f09a82;}.am{opacity:0.52;}.an{opacity:0.65;}.ao{fill:#e3f2ff;}</style></defs><g transform="translate(-679.058 -55.967)"><g transform="translate(788.503 55.967)"><g transform="translate(14.448 145.425)"><path class="a" d="M1134.759,622.345l40.131-24.1a5.354,5.354,0,0,0-.078-9.157l-119-70.753L1040.172,567.8Z" transform="translate(-1040.172 -518.332)"/></g><g transform="translate(10.115 0.18)"><path class="b" d="M1120.543,309.121,1036.9,256.126c-5.231-2.885-9.472-10.626-9.472-17.29V64.423c0-6.664,4.241-9.727,9.472-6.841l87.328,48.17c5.231,2.885,9.472,10.627,9.472,17.29V296.631c0,4.384-1.717,6.213-4.6,7.805Z" transform="translate(-1027.43 -56.496)"/></g><g transform="translate(2.72)"><path class="c" d="M1057.816,149.072s-44.777,104.724-44.777,97.749l-7.355-184.6,10.976-5.8c1.611-.759,3.642-.593,5.851.681l87.329,50.419a18.577,18.577,0,0,1,6.576,7.337Z" transform="translate(-1005.684 -55.967)"/></g><g transform="translate(1.747 4.637)"><path class="d" d="M1099.193,317.229l-87.114-48.136c-5.231-2.883-9.257-10.619-9.257-17.278V77.525c0-6.659,4.13-9.72,9.361-6.836l87.066,48.136c5.231,2.883,9.209,10.619,9.209,17.278v174.29C1108.458,317.052,1104.424,320.113,1099.193,317.229Z" transform="translate(-1002.822 -69.603)"/></g><g transform="translate(0 5.284)"><path class="e" d="M1094.056,319.132,1006.942,271c-5.231-2.883-9.258-10.619-9.258-17.278V79.428c0-6.659,4.13-9.72,9.361-6.836l87.066,48.136c5.231,2.883,9.209,10.619,9.209,17.278V312.3C1103.32,318.955,1099.287,322.016,1094.056,319.132Z" transform="translate(-997.684 -71.506)"/></g><g transform="translate(7.591 24.919)"><path class="f" d="M1106.373,326.013l-84.937-46.27a2.669,2.669,0,0,1-1.428-2.333V131.948a2.859,2.859,0,0,1,4.282-2.333l84.937,46.27a2.67,2.67,0,0,1,1.427,2.333V323.68A2.859,2.859,0,0,1,1106.373,326.013Z" transform="translate(-1020.008 -129.25)"/></g><g transform="translate(39.014 31.777)"><path class="g" d="M1141.072,169.757,1114.135,154.2a4.13,4.13,0,0,1-1.719-3.283h0c0-1.26.773-1.845,1.719-1.3l26.937,15.553a4.13,4.13,0,0,1,1.718,3.283h0C1142.791,169.718,1142.017,170.3,1141.072,169.757Z" transform="translate(-1112.417 -149.417)"/></g><g transform="translate(85.216 182.307)"><path class="h" d="M1248.29,617" transform="translate(-1248.29 -617.004)"/></g><g transform="translate(108.967 79.395)"><path class="i" d="M1320.739,318.27h0a1.728,1.728,0,0,1-2.6-1.7V306.178a4.624,4.624,0,0,1,2.6-3.909h0a1.728,1.728,0,0,1,2.6,1.7v10.395A4.623,4.623,0,0,1,1320.739,318.27Z" transform="translate(-1318.14 -302.06)"/><g transform="translate(1.116 0.139)"><path class="j" d="M1324.02,318.68h0a1.728,1.728,0,0,1-2.6-1.7V306.588a4.623,4.623,0,0,1,2.6-3.909h0a1.728,1.728,0,0,1,2.6,1.7v10.4A4.623,4.623,0,0,1,1324.02,318.68Z" transform="translate(-1321.421 -302.469)"/></g><g transform="translate(0 18.921)"><path class="i" d="M1320.739,373.914h0a1.728,1.728,0,0,1-2.6-1.7V361.822a4.623,4.623,0,0,1,2.6-3.909h0a1.728,1.728,0,0,1,2.6,1.7V370A4.623,4.623,0,0,1,1320.739,373.914Z" transform="translate(-1318.14 -357.704)"/></g><g transform="translate(1.116 19.06)"><path class="j" d="M1324.02,374.324h0a1.728,1.728,0,0,1-2.6-1.7V362.232a4.623,4.623,0,0,1,2.6-3.909h0a1.728,1.728,0,0,1,2.6,1.7v10.395A4.623,4.623,0,0,1,1324.02,374.324Z" transform="translate(-1321.421 -358.113)"/></g></g></g><g transform="translate(735.522 281.163)"><path class="a" d="M961.068,783.344l-51.992-30.421L847.844,787.8h0l-4.007,2.282,53,31.011Z" transform="translate(-843.839 -752.923)"/></g><g transform="translate(772.728 300.541)"><g class="k" transform="translate(4.104 2.963)"><path class="l" d="M1032.8,821.641a5.2,5.2,0,0,0-7.516-2.221l-.1.061v0l-3.752,2.2a4.1,4.1,0,0,0-.99.443l-.1.061v0l-4.485,2.664c.012-.006.024-.009.035-.015L973.99,849.448a1.535,1.535,0,0,0-.4.172l-4.4,7.107h0l-4.2,5.974,8.221-1.794,6.39-1.206a2.747,2.747,0,0,0,.48-.785l.173.245,40.091-23.414c-.014.009-.026.02-.039.029-.033.021-.067.037-.1.056v0l5.15-3.013h0l.1-.058a4.391,4.391,0,0,0,.872-.7l3.728-2.186v0l.1-.056A6.506,6.506,0,0,0,1032.8,821.641Z" transform="translate(-964.989 -818.625)"/></g><g transform="translate(46.933)"><path class="m" d="M1104.309,810.705l-.1.061v0l-10.064,5.9a6.506,6.506,0,0,0-2.649,8.18,5.2,5.2,0,0,0,7.515,2.221l10.065-5.9v0l.1-.056a6.506,6.506,0,0,0,2.648-8.18A5.2,5.2,0,0,0,1104.309,810.705Z" transform="translate(-1090.942 -809.911)"/></g><g transform="translate(11.482 6.056)"><path class="n" d="M1035.671,835.8l-45.2,26.4-3.783-5.338,49.536-29.141Z" transform="translate(-986.686 -827.722)"/></g><g transform="translate(8.989 4.346)"><path class="o" d="M981.849,853.544c-.8-2.772-2.614-.628-2.486-4.371l43.808-25.736c4.321-1.156,7.69-1.056,8.214.967Z" transform="translate(-979.356 -822.693)"/></g><g transform="translate(50.873 2.911)"><path class="d" d="M1107.116,819.055l-.1.061v0l-4.485,2.664c3.68-1.955,9.577,7.612,4.443,10.933-.033.021-.067.037-.1.056v0l5.15-3.013v0c.034-.019.068-.036.1-.056C1117.278,826.548,1112.315,815.878,1107.116,819.055Z" transform="translate(-1102.531 -818.471)"/></g><g transform="translate(0.736 30.715)"><path class="d" d="M962.948,900.518l-7.864,12.7L968.96,910.6C971.852,907.392,965.808,898.562,962.948,900.518Z" transform="translate(-955.084 -900.238)"/></g><g transform="translate(0 37.932)"><path class="p" d="M952.92,927.607l4.2-5.974s.6-.64,1.448.567,1.233.2,2.013,1.662.562,1.951.562,1.951Z" transform="translate(-952.92 -921.464)"/></g></g><g transform="translate(807.086 182.113)"><g transform="translate(0)"><path class="q" d="M1082.7,493.023l-29.313-18.52.023-28.434,29.313,18.52Z" transform="translate(-1053.385 -446.07)"/></g><g transform="translate(36.96 24.097)"><path class="r" d="M1196.31,549.319l-34.232-21.628.009-10.756,34.537,21.821Z" transform="translate(-1162.078 -516.936)"/></g><g transform="translate(36.946 41.02)"><path class="r" d="M1182.31,590.267l-20.272-12.808.009-10.756,19.788,12.5Z" transform="translate(-1162.038 -566.703)"/></g><g transform="translate(9.058 19.77)"><path class="d" d="M1085.163,516.2a1.274,1.274,0,0,1-1.177-.79l-3.869-9.45a1.271,1.271,0,0,1,2.353-.963l3.116,7.613,7.23-7.748a1.271,1.271,0,1,1,1.859,1.735l-8.584,9.2A1.271,1.271,0,0,1,1085.163,516.2Z" transform="translate(-1080.022 -504.211)"/></g></g><g transform="translate(806.807 144.769)"><g transform="translate(0)"><path class="q" d="M1081.881,377.539l-29.313-18.519.023-28.434,29.313,18.519Z" transform="translate(-1052.568 -330.586)"/></g><g transform="translate(36.96 24.097)"><path class="r" d="M1195.493,433.835l-34.232-21.628.009-10.756,34.537,21.82Z" transform="translate(-1161.261 -401.452)"/></g><g transform="translate(36.946 41.02)"><path class="r" d="M1181.493,474.783l-20.272-12.808.009-10.756,19.788,12.5Z" transform="translate(-1161.221 -451.219)"/></g><g transform="translate(8.895 19.371)"><path class="d" d="M1084.029,399.944a1.27,1.27,0,0,1-1.177-.79l-4.031-9.848a1.271,1.271,0,0,1,2.353-.963l3.28,8.012,7.23-7.748a1.271,1.271,0,1,1,1.859,1.735l-8.584,9.2A1.271,1.271,0,0,1,1084.029,399.944Z" transform="translate(-1078.726 -387.553)"/></g></g><g transform="translate(806.527 107.426)"><g transform="translate(0)"><path class="q" d="M1081.064,262.055l-29.313-18.52.023-28.434,29.313,18.52Z" transform="translate(-1051.751 -215.102)"/></g><g transform="translate(36.96 24.097)"><path class="r" d="M1194.676,318.351l-34.232-21.628.009-10.756,34.537,21.821Z" transform="translate(-1160.444 -285.968)"/></g><g transform="translate(36.946 41.02)"><path class="r" d="M1180.676,359.3,1160.4,346.491l.009-10.756,19.788,12.5Z" transform="translate(-1160.405 -335.735)"/></g><g transform="translate(8.703 18.904)"><path class="d" d="M1082.84,283.553a1.271,1.271,0,0,1-1.177-.79l-4.223-10.316a1.271,1.271,0,0,1,2.353-.963l3.471,8.479,7.23-7.748a1.271,1.271,0,1,1,1.859,1.735l-8.584,9.2A1.273,1.273,0,0,1,1082.84,283.553Z" transform="translate(-1077.345 -270.694)"/></g></g><g transform="translate(701.816 151.113)"><g class="s" transform="translate(32.449 6.493)"><ellipse class="l" cx="37.745" cy="56.581" rx="37.745" ry="56.581" transform="translate(0 31.716) rotate(-24.843)"/></g><g transform="translate(30.654 10.221)"><path class="t" d="M887.389,393.782c-10.926-6.15-21.484-7.154-30.153-3.85l0-.009-15.98,5.618,2.4,5.318c-3.614,5.262-6.1,12.036-7.071,20.122-3.467,28.865,13.66,63.486,38.254,77.329a43.483,43.483,0,0,0,15.207,5.37l1.35,2.993,10.7-3.594a27.51,27.51,0,0,0,3.643-1.223l.206-.069-.005-.012c10.351-4.4,17.834-15.1,19.7-30.664C929.109,442.246,911.983,407.625,887.389,393.782Z" transform="translate(-836.134 -388.076)"/></g><g transform="translate(0 0)"><ellipse class="f" cx="40.714" cy="61.03" rx="40.714" ry="61.03" transform="translate(0 34.21) rotate(-24.843)"/></g><g transform="translate(12.332 14.283)"><ellipse class="d" cx="32.692" cy="49.005" rx="32.692" ry="49.005" transform="matrix(0.907, -0.42, 0.42, 0.907, 0, 27.47)"/></g><g class="u" transform="translate(26.471 25.945)"><path class="l" d="M862.408,522.657c-19.748-11.116-33.5-38.915-30.716-62.093,1.778-14.8,9.871-24.12,20.629-26.038-14.367-1.785-25.96,8.128-28.131,26.206-2.784,23.177,10.968,50.977,30.716,62.093,7.141,4.019,14.084,5.3,20.175,4.208A34.593,34.593,0,0,1,862.408,522.657Z" transform="translate(-823.832 -434.32)"/></g><g transform="translate(61.349 33.288)"><path class="v" d="M932.009,459.4c-.038,1.961-1.323,3.579-2.871,3.614s-2.772-1.527-2.735-3.488,1.323-3.579,2.871-3.614S932.047,457.442,932.009,459.4Z" transform="translate(-926.403 -455.914)"/></g><g transform="translate(58.024 105.818)"><path class="v" d="M922.23,672.7c-.038,1.961-1.323,3.579-2.871,3.614s-2.772-1.527-2.735-3.488,1.323-3.579,2.871-3.614S922.268,670.741,922.23,672.7Z" transform="translate(-916.624 -669.213)"/></g><g transform="translate(88.531 87.07)"><path class="v" d="M1008.289,619.574c-1.682-.915-2.415-2.775-1.637-4.156s2.773-1.757,4.456-.842,2.415,2.775,1.637,4.156S1009.971,620.489,1008.289,619.574Z" transform="translate(-1006.341 -614.077)"/></g><g transform="translate(28.09 54.301)"><path class="v" d="M830.542,523.208c-1.682-.915-2.415-2.775-1.637-4.156s2.774-1.757,4.456-.842,2.415,2.775,1.637,4.156S832.224,524.123,830.542,523.208Z" transform="translate(-828.594 -517.711)"/></g><g transform="translate(60.927 73.381)"><path class="l" d="M941.259,601.959l-16.036-27.53a.4.4,0,0,1,.125-.561h0a.418.418,0,0,1,.556.177l16.036,27.531a.4.4,0,0,1-.125.561h0A.419.419,0,0,1,941.259,601.959Z" transform="translate(-925.161 -573.821)"/></g><g transform="translate(37.161 70.994)"><path class="v" d="M880.612,570.289l-22.565,13.633a1.822,1.822,0,0,1-2.543-.619h0a1.945,1.945,0,0,1,.72-2.59l22.565-13.633a1.822,1.822,0,0,1,2.543.619h0A1.945,1.945,0,0,1,880.612,570.289Z" transform="translate(-855.269 -566.802)"/></g><g transform="translate(59.592 52.467)"><path class="w" d="M925.9,514.219l-.927,17.91a1.977,1.977,0,0,1-1.964,1.863h0a1.791,1.791,0,0,1-1.769-1.9l.927-17.911a1.978,1.978,0,0,1,1.964-1.864h0A1.79,1.79,0,0,1,925.9,514.219Z" transform="translate(-921.236 -512.316)"/></g><g transform="translate(57.957 68.775)"><path class="w" d="M923.194,565.208a2.419,2.419,0,0,1-3.452,2.351,5.265,5.265,0,0,1-3.315-4.737,2.42,2.42,0,0,1,3.452-2.351A5.264,5.264,0,0,1,923.194,565.208Z" transform="translate(-916.426 -560.274)"/></g><g transform="translate(59.793 70.621)"><path class="d" d="M924.879,567.931a1.092,1.092,0,0,1-1.558,1.061,2.376,2.376,0,0,1-1.5-2.138,1.092,1.092,0,0,1,1.558-1.061A2.375,2.375,0,0,1,924.879,567.931Z" transform="translate(-921.825 -565.704)"/></g></g><g transform="translate(679.058 215.938)"><g transform="translate(47.517 16.091)"><path class="x" d="M818.88,610.979h0a1.555,1.555,0,0,1,.974-1.964l1.5-.507a1.555,1.555,0,0,1,1.964.974h0a1.555,1.555,0,0,1-.974,1.964l-1.5.507A1.555,1.555,0,0,1,818.88,610.979Z" transform="translate(-818.8 -608.428)"/></g><g class="y" transform="translate(7.258 84.935)"><ellipse class="z" cx="15.94" cy="8.331" rx="15.94" ry="8.331"/></g><g transform="translate(14.005 86.199)"><path class="aa" d="M721.253,816.121l2.788-.35c1.865-.845,2.737-1.481,3.568-1l.235.136c.831.48.726,1.326-.234,1.879l-4.1,3.256a2.7,2.7,0,0,1-3.018-.293s-.459-.414-.131-2.156C720.551,816.6,720.486,816.564,721.253,816.121Z" transform="translate(-720.246 -814.605)"/></g><g transform="translate(23.005 91.451)"><path class="aa" d="M748.856,830.049l3.135.59c2.31-.265,3.473-.649,4.2.159l.208.229c.731.807.324,1.685-.906,1.95l-5.561,2.1a3.07,3.07,0,0,1-3.159-1.365s-.352-.607.608-2.375C747.931,830.322,747.873,830.261,748.856,830.049Z" transform="translate(-746.714 -830.049)"/></g><g transform="translate(13.353 49.577)"><path class="x" d="M718.329,706.906l1.1,38.363c.068,2.44,2.887,1.576,3.206.084l.7-35.572Z" transform="translate(-718.329 -706.906)"/></g><g transform="translate(21.467 51.613)"><path class="x" d="M742.19,712.893l2.347,41.345c.108,2.586,2.82,1.7,3.1.127l.675-38.553Z" transform="translate(-742.19 -712.893)"/></g><g transform="translate(19.672 37.253)"><path class="n" d="M747.224,670.663l-2.716,50.014s-1.955,3.047-4.608,0L737.945,679.3l-1.033-8.639Z" transform="translate(-736.912 -670.663)"/></g><g transform="translate(12.404 37)"><path class="n" d="M722.98,671.235l-1.1,43.459a3.533,3.533,0,0,1-5.613-.73l-.726-44.047Z" transform="translate(-715.536 -669.917)"/></g><g transform="translate(14.116 39.045)"><rect class="n" width="12.595" height="7.987" transform="translate(3.593 0) rotate(26.735)"/></g><g transform="translate(0 39.967)"><path class="x" d="M683.622,679.763h0a1.555,1.555,0,0,1-1.059,1.92l-1.524.44a1.555,1.555,0,0,1-1.919-1.059h0a1.555,1.555,0,0,1,1.059-1.92l1.524-.44A1.555,1.555,0,0,1,683.622,679.763Z" transform="translate(-679.059 -678.643)"/></g><g transform="translate(2.654 21.654)"><path class="ab" d="M695.462,624.788l-8.6,18.392,2.75,2.066,13.668-18.938Z" transform="translate(-686.863 -624.788)"/></g><g transform="translate(17.202 1.444)"><path class="x" d="M737.075,575.7c-.888,3.094-3.27,2.97-5.22.95a8.51,8.51,0,0,1-1.842-8.265c.888-3.095,3.189-3.966,5.139-1.945S737.962,572.608,737.075,575.7Z" transform="translate(-729.648 -565.353)"/></g><g transform="translate(19.462 0.532)"><path class="x" d="M744.721,572.951c-.888,3.094-4.2,4.214-6.155,2.194s-2.812-6.166-1.924-9.261,4.6-4.214,6.55-2.195S745.609,569.856,744.721,572.951Z" transform="translate(-736.293 -562.672)"/></g><g transform="translate(18.829 9.092)"><path class="x" d="M735.472,599.129l-.271-.083c-.914-.282-.9-1.537-.534-2.738l1.626-6.731a2.076,2.076,0,0,1,2.335-1.673l.271.083a2.076,2.076,0,0,1,.991,2.7l-1.273,6.732A3.024,3.024,0,0,1,735.472,599.129Z" transform="translate(-734.432 -587.846)"/></g><g transform="translate(16.937)"><path class="v" d="M729.349,571.289s.191,1.7,3.422,2.034c3.078.319,2.726-4.366,5.7-4.851a3.485,3.485,0,0,0,2.21-5.614c-1.287-1.549-4.886-2.359-7.493-1.21S727.707,563.631,729.349,571.289Z" transform="translate(-728.867 -561.107)"/></g><g transform="translate(23.406 7.741)"><path class="x" d="M750.673,585.679a1.417,1.417,0,1,1-.971-1.753A1.417,1.417,0,0,1,750.673,585.679Z" transform="translate(-747.893 -583.871)"/></g><g transform="translate(11.351 14.091)"><path class="ab" d="M713.327,611.6l-.846,16.461s-1.073,3.093,7.679,5.415c7.191,1.908,11.279-1.34,11.7-2.152l-.44-16,6.324,3.868a20.791,20.791,0,0,0-9.909-13.26c-1.527-.862-3.787-1.9-5.633-2.7-2.744-1.2-3.991-.765-6.524.83C714.323,604.91,713.327,611.6,713.327,611.6Z" transform="translate(-712.44 -602.545)"/></g><g transform="translate(25.888 17.614)"><path class="ab" d="M755.19,619.234l7.712,8.412a5.869,5.869,0,0,0,9.32-.885l7.484-12.133-2.908-1.723-7.6,8.821a2.3,2.3,0,0,1-3.472.014c-2.248-2.574-6.044-6.731-7.317-6.97C756.557,614.422,755.19,619.234,755.19,619.234Z" transform="translate(-755.19 -612.906)"/></g><g transform="translate(15.932 1.176)"><path class="n" d="M731.922,568.4a3.044,3.044,0,1,1-2.59-3.819A3.281,3.281,0,0,1,731.922,568.4Z" transform="translate(-725.913 -564.565)"/></g><g transform="translate(5.899 1.55)"><path class="v" d="M709.5,567.716a1.788,1.788,0,0,0-3.209-1.326,7.238,7.238,0,0,0-.951,1.914c-1.823,5.2-10.734,3.392-7.4,13.3,0,0-4.728,5.7,2.438,9.164,1.149.555,2.573.091,3.986-.808a10.174,10.174,0,0,0,4.286-10.74,6.209,6.209,0,0,1,.363-4.242,6.443,6.443,0,0,0,.656-5.134A4.17,4.17,0,0,1,709.5,567.716Z" transform="translate(-696.407 -565.664)"/></g><g transform="translate(19.072 14.162)"><path class="d" d="M739.686,604.494s-2.593-2.033-4.54-1.7C735.146,602.792,735.261,605.4,739.686,604.494Z" transform="translate(-735.146 -602.756)"/></g></g><g transform="translate(735.055 102.585)"><g transform="translate(0)"><g transform="translate(13.106 51.206)"><path class="ac" d="M890.466,355.7a8.222,8.222,0,0,1-7.44-.013c-2.061-1.19-2.071-3.113-.023-4.3a8.222,8.222,0,0,1,7.44.013C892.5,352.59,892.513,354.513,890.466,355.7Z" transform="translate(-881.473 -350.504)"/></g><g transform="translate(10.852 35.337)"><path class="ad" d="M889.825,319.521l-14.982.237V303.835h14.982Z" transform="translate(-874.843 -303.835)"/></g><g transform="translate(10.852 46.831)"><path class="ad" d="M887.639,345.044a11.663,11.663,0,0,1-10.6.024c-2.928-1.691-2.932-4.443-.009-6.147a11.662,11.662,0,0,1,10.6-.024C890.559,340.588,890.563,343.34,887.639,345.044Z" transform="translate(-874.843 -337.636)"/></g><g transform="translate(10.876 37.738)"><path class="ac" d="M889.9,312.831q-.159-.1-.327-.2a15.927,15.927,0,0,0-14.413-.025c-.083.048-.163.1-.243.146v8c.094.058.189.117.288.174a15.926,15.926,0,0,0,14.413.024c.1-.055.19-.112.282-.17Z" transform="translate(-874.914 -310.897)"/></g><g transform="translate(8.101 36.139)"><ellipse class="ad" cx="5.885" cy="10.191" rx="5.885" ry="10.191" transform="matrix(0.005, -1, 1, 0.005, 0, 11.769)"/></g><g transform="translate(8.132 38.498)"><rect class="ad" width="20.382" height="3.757"/></g><g transform="translate(8.101 32.56)"><ellipse class="d" cx="5.885" cy="10.191" rx="5.885" ry="10.191" transform="matrix(0.005, -1, 1, 0.005, 0, 11.769)"/></g><path class="q" d="M879.577,216.753c0-9.3-8.2-16.839-18.323-16.839s-18.323,7.539-18.323,16.839a16.269,16.269,0,0,0,6.347,12.744,15.782,15.782,0,0,1,3.542,7.3,5.848,5.848,0,0,0,3.828,4.317,13.115,13.115,0,0,0,9.107.124,5.742,5.742,0,0,0,3.59-4.229,15.176,15.176,0,0,1,3.519-7.154c.063-.069.119-.136.171-.2A16.3,16.3,0,0,0,879.577,216.753Z" transform="translate(-842.93 -199.914)"/><g transform="translate(11.79 32.889)"><ellipse class="ae" cx="3.658" cy="6.335" rx="3.658" ry="6.335" transform="matrix(0.005, -1, 1, 0.005, 0, 7.316)"/></g><g transform="translate(10.879 15.142)"><path class="ae" d="M883.275,267.261a.476.476,0,0,1-.476-.476l0-12.451-.164-.028a10.411,10.411,0,0,1-1.762-.475V265.7a.476.476,0,0,1-.952,0V253.431a10.351,10.351,0,0,1-2.655-1.823,7.107,7.107,0,0,1-2.316-4.074,2.491,2.491,0,0,1,1.471-2.771,2.743,2.743,0,0,1,2.675.052c1.683,1.083,1.774,4.193,1.777,4.325v3.678a9.6,9.6,0,0,0,1.927.551l.064.011c.294-3.349,1.019-5.337,2.207-6.064a2.285,2.285,0,0,1,2.2-.054,3.263,3.263,0,0,1,2.066,3.919c-.439,1.65-2.216,3.268-5.146,3.268q-.217,0-.443-.012l0,12.348A.476.476,0,0,1,883.275,267.261Zm.533-13.774c2.66.14,4.247-1.188,4.61-2.551a2.325,2.325,0,0,0-1.525-2.8,1.374,1.374,0,0,0-1.326-.007C884.93,248.517,884.131,249.773,883.808,253.487Zm-6-8.091a2.622,2.622,0,0,0-1.017.242,1.579,1.579,0,0,0-.9,1.787c.172,1.5,1.607,3.64,4.026,4.946v-3.214c-.02-.763-.3-2.873-1.341-3.543A1.387,1.387,0,0,0,877.81,245.4Z" transform="translate(-874.924 -244.444)"/></g><g class="af" transform="translate(2.41 6.471)"><ellipse class="d" cx="6.493" cy="4.692" rx="6.493" ry="4.692" transform="translate(0 11.696) rotate(-64.247)"/></g></g></g><g transform="translate(839.986 218.915)"><g transform="translate(0 0)"><g class="y" transform="translate(16.714 95.628)"><ellipse class="z" cx="12.599" cy="6.259" rx="12.599" ry="6.259" transform="translate(0 0.467) rotate(-1.061)"/></g><g transform="translate(35.333 99.32)"><path class="v" d="M1254.024,871.265l-.266-6.537c.1-1.524,1.077-1.834,1.905-2.54a1.036,1.036,0,0,1,1.3-.018l.832.646c1.233.89,1.089,2.542.865,3.593l-.887,5.793C1257.553,873.254,1254.316,874.772,1254.024,871.265Z" transform="translate(-1253.758 -861.949)"/></g><g transform="translate(36.035 94.973)"><path class="ag" d="M1259.606,854.214c0,1.553-3.777,1.556-3.779,0l0-5.048,3.779,0Z" transform="translate(-1255.823 -849.166)"/></g><g transform="translate(17.553 93.069)"><path class="v" d="M1202.238,849.264l5.254-5.21a6.571,6.571,0,0,1,3.37-.439,1.035,1.035,0,0,1,.887.956l.078,1.051c.166,1.511.03,1.73-.9,2.268l-5.527,3.2a3.524,3.524,0,0,1-3.159.134l-.229-.132C1201.206,850.624,1201.307,849.8,1202.238,849.264Z" transform="translate(-1201.468 -843.566)"/></g><g transform="translate(23.62 88.318)"><path class="ag" d="M1223.092,834.642c0,1.553-3.777,1.556-3.778,0l0-5.048,3.779,0Z" transform="translate(-1219.31 -829.594)"/></g><g transform="translate(19.29 41.617)"><path class="aa" d="M1215.192,742.568c-1.48,1.064-3.928,1.041-4.747-.194a244.081,244.081,0,0,1-3.851-46.632l11.736-3.49C1216.252,711.223,1213.766,728.011,1215.192,742.568Z" transform="translate(-1206.577 -692.252)"/></g><g transform="translate(27.609 44.295)"><path class="aa" d="M1243.689,752.653c-1.195,1.779-3.9,1.792-4.7.509l-7.951-53.021,13.637-.011Z" transform="translate(-1231.042 -700.13)"/></g><g transform="translate(26.102 50.832)"><path class="v" d="M1229.9,724.708l-.674,4.78-2.615-10.135a15.907,15.907,0,0,0,1.875.359Z" transform="translate(-1226.611 -719.353)"/></g><g transform="translate(37.459 25.091)"><path class="x" d="M1260.009,647.9l7.055,14.172c.353.767,1.421,11.928,1.421,11.928l3.665.443s-1.077-15.11-1.294-15.873l-4.235-14.918Z" transform="translate(-1260.009 -643.654)"/></g><g transform="translate(45.416 53.344)"><rect class="x" width="3.73" height="5.074" rx="1.865" transform="translate(0 1.444) rotate(-22.778)"/></g><g transform="translate(4.944 22.06)"><path class="x" d="M1178.305,634.738l-4.527,7.383c-.828,1.636-2.624,4.619-3.225,8l-6.166-2.416.22,1.7,8.165,3.607c-.713-3.939,1.7-4.251,3.079-5.913,2.414-2.919,4.809-5.832,4.834-5.958C1180.724,640.947,1178.305,634.738,1178.305,634.738Z" transform="translate(-1164.387 -634.738)"/></g><g transform="translate(15.676 15.818)"><path class="ah" d="M1201.252,616.383l-5.3,9.96a8.157,8.157,0,0,0,5.121,6.153l2-13.468Z" transform="translate(-1195.949 -616.383)"/></g><g transform="translate(18.827 12.611)"><path class="ai" d="M1205.222,638.154a61.988,61.988,0,0,0,.407-18.838c-.008-10.249,3.861-14.045,10.32-11.694l2.668.706c7.8,4.192,11.754,3.979,10.367,12.227l-1.351,18.08C1227.641,647.941,1204.735,649.1,1205.222,638.154Z" transform="translate(-1205.214 -606.95)"/></g><g transform="translate(37.459 29.339)"><path class="ah" d="M1260.009,656.146l3.371,13.948.4,1.358.489-6.725Z" transform="translate(-1260.009 -656.146)"/></g><g transform="translate(26.852 3.4)"><path class="v" d="M1230.515,589.822a5.525,5.525,0,0,0,1.535,1.048c.515.107,6.052-4.374,4.043-9.392-1.272-3.178-7.278-.683-7.278-.683Z" transform="translate(-1228.816 -579.864)"/></g><g transform="translate(26.813 8.01)"><path class="x" d="M1232.271,603.152l-.31.053a1.936,1.936,0,0,1-2.227-1.578l-1.006-5.9a1.935,1.935,0,0,1,1.578-2.227l.31-.053a1.936,1.936,0,0,1,2.227,1.578l1.8,5.527C1234.822,601.6,1233.318,602.973,1232.271,603.152Z" transform="translate(-1228.7 -593.419)"/></g><g transform="translate(35.845 17.58)"><path class="ai" d="M1256.271,631.049l3.9,11.036c.553.856,8.516-3.181,7.835-4.5-.12-.232-4.372-13.562-8.933-15.711C1255.371,620.131,1254.221,626.021,1256.271,631.049Z" transform="translate(-1255.264 -621.563)"/></g><g transform="translate(3.718 31.358)"><path class="l" d="M1179.479,668.891l-1.5-.526-.176-.176-.113-.2-11.285-5.857a.577.577,0,0,0-.5.02l-4.3,2.529-.008-.07-.812.325.037.335h.006a.189.189,0,0,0,.09.087l11.744,6.095a.065.065,0,0,1,.031.046c.246.9.656,1.7,1.423,1.235l4.767-2.815a1.144,1.144,0,0,0,.6-1.027Z" transform="translate(-1160.783 -662.083)"/></g><g transform="translate(2.437 30.871)"><path class="aj" d="M1170.653,671.438l-13.523-7.019c-.157-.081-.154-.225.007-.319l5.742-3.373a.667.667,0,0,1,.576-.023l13.523,7.019c.157.081.154.225-.006.319l-5.742,3.373A.666.666,0,0,1,1170.653,671.438Z" transform="translate(-1157.014 -660.65)"/></g><g transform="translate(13.15 34.52)"><path class="l" d="M1191.821,673.994l-3.273-1.7c-.038-.02-.037-.054,0-.077l1.389-.817a.161.161,0,0,1,.139-.005l3.273,1.7c.038.02.037.054,0,.077l-1.39.816A.161.161,0,0,1,1191.821,673.994Z" transform="translate(-1188.52 -671.383)"/></g><g transform="translate(0.068 25.984)"><path class="d" d="M1164.864,654.045a1.533,1.533,0,0,0-.681-.847l-13.414-6.859a.342.342,0,0,0-.285-.043h0a.157.157,0,0,0-.06.048l-.373.421.377-.033,2.017,7.427a1.533,1.533,0,0,0,.68.847l12.684,6.486.432.414.059.1c.248.05.784-.343.784-.343Z" transform="translate(-1150.049 -646.28)"/></g><g transform="translate(0 26.433)"><path class="ab" d="M1166.006,663.185l-13.414-6.859a1.533,1.533,0,0,1-.68-.847l-2.04-7.508c-.087-.321.077-.461.365-.313l13.415,6.859a1.534,1.534,0,0,1,.68.847l2.039,7.508C1166.458,663.193,1166.3,663.333,1166.006,663.185Z" transform="translate(-1149.848 -647.599)"/></g><g transform="translate(6.572 33.341)"><path class="d" d="M1171.236,669.327c.108.4-.261.489-.825.2a2.555,2.555,0,0,1-1.217-1.244c-.108-.4.261-.489.825-.2A2.558,2.558,0,0,1,1171.236,669.327Z" transform="translate(-1169.175 -667.914)"/></g><g transform="translate(22.47 1.589)"><path class="x" d="M1222.5,575.367c-1.285-1.146-2.626-1.068-3.531,0-1.307-.188-2.455.855-2.876,2.88-.586,2.819.549,6.228,1.834,8.427.885,1.515,4.718,1.808,5.623.679,1.6.177,1.74-2.067,2.171-4.145C1226.3,580.389,1224.369,577.039,1222.5,575.367Z" transform="translate(-1215.931 -574.536)"/></g><g transform="translate(24.619 0.533)"><path class="v" d="M1225.738,575.254s.292,5.332,4.636,5.8c0,0,4.216-3.493-.071-7.947-3.779-3.925-8.055.275-8.055.275Z" transform="translate(-1222.248 -571.432)"/></g><g transform="translate(22.466 2.484)"><path class="ak" d="M1215.923,581.329a5.063,5.063,0,0,1,3.975-2.4l-1.829-1.763S1215.782,577.16,1215.923,581.329Z" transform="translate(-1215.917 -577.17)"/></g><g transform="translate(20.842)"><path class="v" d="M1221.1,576.923c-1.182-1.132,1.04-1.231-1.787.458-7.4,3.837-8.023-1.934-8.023-1.934-.733-1.628,1.456-3.259,3.084-3.992l3.048-1.238a4.8,4.8,0,0,1,5.912,2.184l.164.261C1224.23,574.29,1222.727,576.19,1221.1,576.923Z" transform="translate(-1211.143 -569.864)"/></g><g transform="translate(30.549 9.368)"><path class="x" d="M1242.2,598.94a1.268,1.268,0,1,1-.983-1.5A1.268,1.268,0,0,1,1242.2,598.94Z" transform="translate(-1239.688 -597.414)"/></g><g transform="translate(27.699 12.395)"><path class="al" d="M1231.308,609.01s2.478.335,4.186-2.694c0,0-1.592,3.708-3.9,4.027Z" transform="translate(-1231.308 -606.316)"/></g></g><g transform="translate(27.422 14.411)"><path class="d" d="M1232.829,616.294q-.079,0-.161,0a2.269,2.269,0,0,1-1.857-.846,2.321,2.321,0,0,1-.218-1.847.184.184,0,0,1,.352.111,1.979,1.979,0,0,0,.17,1.529,1.932,1.932,0,0,0,1.572.686c2.456.131,3.581-3.509,3.593-3.546a.184.184,0,0,1,.353.105C1236.587,612.64,1235.465,616.294,1232.829,616.294Z" transform="translate(-1230.493 -612.244)"/></g><g transform="translate(40.095 30.686)"><path class="d" d="M1267.945,666.356a.184.184,0,0,1-.174-.123.206.206,0,0,1,.01-.155c.053-.1.148-.131.546-.245,1.292-.37,5.223-1.5,6.771-5.607a.184.184,0,0,1,.345.13c-1.614,4.284-5.679,5.448-7.015,5.831-.14.04-.283.081-.345.105a.185.185,0,0,1-.078.052A.175.175,0,0,1,1267.945,666.356Zm.174-.245h0Z" transform="translate(-1267.761 -660.107)"/></g></g><g transform="translate(741.717 282.919)"><g class="am" transform="translate(0 3.601)"><path class="l" d="M934.432,782.13c-.471-.1-.941-.184-1.411-.269,2.329-6.446-6.718-11.379-9.877-12.876a3.181,3.181,0,0,0-2.171-.2,59.638,59.638,0,0,0-18.574,8.649,91.31,91.31,0,0,0-15.972,9.494c-.245.187-.483.375-.722.563q-1.474.587-2.936,1.226a68.782,68.782,0,0,0-15.2,9.018,34.449,34.449,0,0,0-4.426,3.734,3.193,3.193,0,0,0,.448,4.86,32.122,32.122,0,0,0,9.217,4.463,21.141,21.141,0,0,0,2.672,7.794c1.128,1.866,3.545,2.411,5.443,2.128a4.251,4.251,0,0,0,2.753-1.378,1.905,1.905,0,0,0,.235-1.939,34.083,34.083,0,0,1-1.587-5.652,25.437,25.437,0,0,0,9.619-2.95c16.857-8.963,3.737-18.637,3.737-18.637l.394-.23,1.223-.712.394-.23s13.615,10.528,30.368-1.434c.186-.133.364-.265.539-.4,2.349.257,3.807.472,3.863.48,2.663.385,4.633-.384,5.361-1.4a1.849,1.849,0,0,0,.156-.259C938.507,784.9,937.411,782.788,934.432,782.13Zm-5.2-1.413q.049-.55.057-1.1A4.192,4.192,0,0,1,929.231,780.717Z" transform="translate(-862.225 -768.68)"/></g><g transform="translate(10.663 6.316)"><path class="aa" d="M896.443,821.1c-3.415-6.059-3.771-12.175-1.06-18.178,2.16-4.781,6.261-9.5,12.19-14.018A99.06,99.06,0,0,1,929.8,776.663l.9.776a112.178,112.178,0,0,0-24.5,20.583c-6.8,7.788-1.24,21.727-1.181,21.873a1.937,1.937,0,0,1-.239,1.972,4.323,4.323,0,0,1-2.8,1.4C900.048,823.555,897.59,823,896.443,821.1Z" transform="translate(-893.585 -776.663)"/></g><g transform="translate(1.431 12.335)"><path class="aa" d="M885.934,802.409a91.828,91.828,0,0,1,23.263-6.764c9.872-1.472,19.518-1.948,29.28.064,3.031.67,4.145,2.82,3.608,3.914a1.88,1.88,0,0,1-.158.263c-.74,1.033-2.744,1.814-5.452,1.423-.225-.034-22.707-3.354-35.65.423-20.966,6.118-34.26,13.606-34.392,13.68l.215-.421C866.727,814.924,873.077,808.039,885.934,802.409Z" transform="translate(-866.434 -794.366)"/></g><g transform="translate(0.131 2.066)"><path class="aa" d="M925,764.474a3.239,3.239,0,0,0-2.209-.2c-4.3,1.123-19.743,5.91-28.991,18.625l-.1.06c-17.584,4.374-26.1,10.887-29.717,14.555a3.229,3.229,0,0,0-.734,1.159l-.632-.179.5,1.986.005,0a3.223,3.223,0,0,0,1.314,1.974c4.983,3.474,16.171,9.241,28.836,2.508,17.144-9.115,3.8-18.954,3.8-18.954l.4-.234,1.244-.725.4-.234s13.847,10.708,30.885-1.458C943,774.076,929.1,766.42,925,764.474Zm-33.426,37.6c-8.351,4.44-16.295,2.224-20.786.165a3.254,3.254,0,0,1-.777-5.407c3.139-2.762,9.114-6.713,19.6-9.584a3.263,3.263,0,0,1,2.62.4l2.1,1.342S904.327,795.293,891.57,802.075Zm35.32-20.582a23.731,23.731,0,0,1-22.637,1.71h0a3.259,3.259,0,0,1-.8-5.216c6.67-6.658,15.413-9.5,18.59-10.357a3.242,3.242,0,0,1,2.38.276C927.748,769.689,936.5,775.355,926.891,781.493Z" transform="translate(-862.61 -764.164)"/></g><g class="an" transform="translate(36.405 1.492)"><path class="ao" d="M969.287,777.134a10.5,10.5,0,0,0,10.3,7.184c8.143-.134,18.9-2.347,20.768-7.694s.28-12.561-3.928-13.963S973.21,768.02,969.287,777.134Z" transform="translate(-969.287 -762.477)"/></g><g class="an" transform="translate(4.049 20.297)"><path class="ao" d="M874.132,832.436a10.5,10.5,0,0,0,10.3,7.184c8.143-.134,18.9-2.346,20.768-7.694s.28-12.561-3.928-13.963S878.055,823.322,874.132,832.436Z" transform="translate(-874.132 -817.779)"/></g><g transform="translate(0.039)"><path class="ad" d="M870.083,796.165a3.254,3.254,0,0,1-.777-5.407c3.139-2.762,9.114-6.713,19.6-9.584a3.265,3.265,0,0,1,2.62.4l2.1,1.343s10,6.3-2.753,13.085C882.519,800.44,874.575,798.225,870.083,796.165Zm33.47-19.036h0a3.259,3.259,0,0,1-.8-5.216c6.67-6.658,15.413-9.5,18.59-10.357a3.245,3.245,0,0,1,2.38.276c3.329,1.782,12.081,7.448,2.472,13.586A23.732,23.732,0,0,1,903.553,777.129Zm-40.277,14.308a3.247,3.247,0,0,0,.455,4.943c4.983,3.474,16.172,9.241,28.836,2.507,17.144-9.115,3.8-18.954,3.8-18.954l.4-.234,1.244-.725.4-.234s13.847,10.708,30.885-1.458c13-9.281-.9-16.937-5-18.883a3.236,3.236,0,0,0-2.209-.2c-4.3,1.123-19.743,5.909-28.991,18.625l-.1.06C875.409,781.255,866.895,787.768,863.276,791.437Z" transform="translate(-862.341 -758.09)"/></g><g transform="translate(4.615 28.434)"><path class="d" d="M877.019,851.156a.132.132,0,0,1-.1-.046c-.067-.078-1.641-1.929-.941-3.758.772-2.017,5.465-4.815,6.885-5.625a.133.133,0,1,1,.132.232c-1.4.8-6.028,3.554-6.768,5.489-.643,1.679.879,3.471.894,3.488a.133.133,0,0,1-.014.188A.131.131,0,0,1,877.019,851.156Z" transform="translate(-875.797 -841.71)"/></g><g transform="translate(37.806 8.999)"><path class="d" d="M974.626,794a.133.133,0,0,1-.1-.046c-.067-.078-1.641-1.93-.941-3.758.773-2.018,5.465-4.816,6.885-5.625a.133.133,0,0,1,.132.232c-1.4.8-6.027,3.553-6.769,5.489-.642,1.678.879,3.471.894,3.488a.134.134,0,0,1-.014.188A.131.131,0,0,1,974.626,794Z" transform="translate(-973.405 -784.554)"/></g><g transform="translate(12.838 30.217)"><path class="d" d="M900.284,854.611h0a.391.391,0,0,1-.294-.467l1.565-6.886a.392.392,0,0,1,.467-.294h0a.391.391,0,0,1,.294.467l-1.565,6.886A.391.391,0,0,1,900.284,854.611Z" transform="translate(-899.98 -846.954)"/></g><g transform="translate(15.458 30.061)"><path class="d" d="M907.83,854.146h0a.187.187,0,0,1-.14-.222l1.656-7.285a.186.186,0,0,1,.222-.14h0a.186.186,0,0,1,.14.222l-1.656,7.285A.186.186,0,0,1,907.83,854.146Z" transform="translate(-907.686 -846.494)"/></g><g transform="translate(45.576 11.49)"><path class="d" d="M996.561,799.536h0a.391.391,0,0,1-.294-.467l1.565-6.886a.391.391,0,0,1,.467-.294h0a.391.391,0,0,1,.294.467l-1.565,6.886A.392.392,0,0,1,996.561,799.536Z" transform="translate(-996.258 -791.878)"/></g><g transform="translate(48.196 11.333)"><path class="d" d="M1004.107,799.071h0a.187.187,0,0,1-.14-.222l1.656-7.285a.187.187,0,0,1,.222-.14h0a.186.186,0,0,1,.14.223l-1.656,7.285A.186.186,0,0,1,1004.107,799.071Z" transform="translate(-1003.963 -791.419)"/></g></g><g transform="translate(867.502 193.232)"><path class="d" d="M1251.658,506.5l-18.4-10.62a6.19,6.19,0,0,1-2.585-4.938V479.929c0-1.9,1.157-2.778,2.585-1.954l18.4,10.62a6.19,6.19,0,0,1,2.585,4.938v11.009C1254.243,506.446,1253.085,507.321,1251.658,506.5Z" transform="translate(-1230.678 -477.665)"/><g transform="translate(7.138 20.204)"><path class="d" d="M1251.669,537.081s2.674,8.024,2.766,7.8,4.755-4.547,4.755-4.547Z" transform="translate(-1251.669 -537.081)"/></g></g><g transform="translate(870.839 201.51)"><path class="q" d="M1244.6,505.766c0,1.292-.913,1.812-2.039,1.162a4.491,4.491,0,0,1-2.039-3.516c0-1.292.913-1.812,2.039-1.162A4.492,4.492,0,0,1,1244.6,505.766Z" transform="translate(-1240.519 -501.97)"/><g transform="translate(6.279 3.687)"><path class="q" d="M1263.063,516.609c0,1.292-.913,1.812-2.039,1.163a4.493,4.493,0,0,1-2.039-3.516c0-1.292.913-1.812,2.039-1.162A4.492,4.492,0,0,1,1263.063,516.609Z" transform="translate(-1258.986 -512.813)"/></g><g transform="translate(12.559 7.374)"><path class="q" d="M1281.531,527.453c0,1.292-.913,1.812-2.038,1.163a4.492,4.492,0,0,1-2.039-3.516c0-1.292.913-1.812,2.039-1.162A4.492,4.492,0,0,1,1281.531,527.453Z" transform="translate(-1277.454 -523.656)"/></g></g></g></svg>