<svg xmlns="http://www.w3.org/2000/svg" xmlns:xlink="http://www.w3.org/1999/xlink" width="126.844" height="173.072" viewBox="0 0 126.844 173.072"><defs><style>.a{fill:#e0af49;}.b{fill:#c7823e;}.c{fill:#e4bb56;}.d{fill:#f0f2f7;}.e{fill:#a1bfa5;}.f{fill:#fcfcfc;}.g{fill:#cadbcb;}.h{fill:#fff;}.i{fill:#eefdfa;}.j{fill:#5abdf7;}.k{fill:#1caafc;}.l{fill:#90d1f7;}.m{filter:url(#c);}.n{filter:url(#a);}</style><filter id="a" x="28.863" y="90.169" width="72.584" height="82.903" filterUnits="userSpaceOnUse"><feOffset dy="5" input="SourceAlpha"/><feGaussianBlur stdDeviation="5" result="b"/><feFlood flood-opacity="0.161"/><feComposite operator="in" in2="b"/><feComposite in="SourceGraphic"/></filter><filter id="c" x="0" y="79.206" width="70.166" height="90.49" filterUnits="userSpaceOnUse"><feOffset dy="5" input="SourceAlpha"/><feGaussianBlur stdDeviation="5" result="d"/><feFlood flood-opacity="0.161"/><feComposite operator="in" in2="d"/><feComposite in="SourceGraphic"/></filter></defs><g transform="matrix(0.995, 0.105, -0.105, 0.995, -928.071, -266.303)"><g transform="translate(981.013 246.432)"><g class="n" transform="matrix(0.99, -0.1, 0.1, 0.99, -30.19, -78.6)"><path class="a" d="M1049.717,382.276l-5.353,41.515,32.78-11.537,4.864-37.7Z" transform="matrix(0.99, 0.1, -0.1, 0.99, -950.48, -381.5)"/></g><g class="m" transform="matrix(0.99, -0.1, 0.1, 0.99, -30.19, -78.6)"><path class="b" d="M1016.342,373.107l-29.511-15.7-4.864,37.7,29.022,19.51Z" transform="matrix(0.99, 0.1, -0.1, 0.99, -918.25, -368.89)"/></g><path class="c" d="M992.424,348.3l32.562-7.927,29.24,15.9-32.291,7.723Z" transform="translate(-987.561 -340.369)"/><g transform="translate(10.038 4.94)"><path class="d" d="M1003.548,398.476l5.143-39,31.446-8.488,6.327,3.5-30.942,8.6-5.318,39.8Z" transform="translate(-1003.548 -350.991)"/><path class="e" d="M1008.691,369.239l6.831,3.619-5.318,39.8-6.656-4.424Z" transform="translate(-1003.548 -360.752)"/></g><g transform="translate(19.966 2.405)"><path class="f" d="M1055.242,400.757l4.923-39.026L1031.9,345.54l-7.009,1.783,27.745,16.175-4.958,39.849Z" transform="translate(-1024.894 -345.54)"/><path class="g" d="M1086.358,380.35l-7.526,1.766-4.969,39.946,7.569-2.664Z" transform="translate(-1051.086 -364.159)"/></g></g><g transform="translate(980.184 164.749)"><g transform="translate(0.315 31.504)"><path class="h" d="M1013.833,294.511l-32.971-55.776.4-.237,30.586,51.742-26.727-57.562.421-.2,28.7,61.812Z" transform="translate(-980.862 -232.483)"/></g><g transform="translate(43.317 48.364)"><path class="h" d="M1073.6,313.66l-.282-.368,51.565-44.56.3.352L1076.6,311.066l48.019-32.487.261.385Z" transform="translate(-1073.316 -268.732)"/></g><path class="i" d="M1076.8,220.825a3.128,3.128,0,0,1-1.4,2.054c-.14.087-.291.178-.458.274-2.321,1.355-7.31,3.592-15.885,4.451a93.055,93.055,0,0,1-23.08-.925q-4.592-.694-9.8-1.836l-1.629-.31v0q-3.312-.707-6.315-1.487a103.2,103.2,0,0,1-21.576-7.926l-.01,0a49.923,49.923,0,0,1-13.2-9.38c-.005,0,0-.006-.009-.007a23.6,23.6,0,0,1-2.734-3.339,3.123,3.123,0,0,1-.43-2.453c8.7-37.053,38.909-36.417,51.387-34.463a.45.45,0,0,0,.01-.074l1.419.317c2,.361,3.357.722,3.836.857l1.017.228.592.128.083.018.229.017a.689.689,0,0,1,.1-.01c.075.006.13.007.17.01.014,0,.025,0,.035,0a.484.484,0,0,1,.05.005h0a55.014,55.014,0,0,1,5.7,1.379C1057.359,171.965,1084.107,184.1,1076.8,220.825Z" transform="translate(-980.183 -164.749)"/><path class="j" d="M1079.725,229.235q-4.592-.694-9.8-1.836l-1.628-.31v0q-3.312-.707-6.315-1.487c2.433-41.907,19.846-55.249,20.912-56.03.036-.028.054-.04.054-.04s.011.018.03.052C1083.608,170.66,1094.269,189.845,1079.725,229.235Z" transform="translate(-1023.936 -167.305)"/><path class="k" d="M1042.942,169.415c-.2.024-.406.047-.6.077-35.286,4.528-41.332,43.256-41.947,48.065a49.923,49.923,0,0,1-13.2-9.38c11.568-38.4,47.266-39.1,54.475-38.831.237,0,.442.016.612.027s.307.013.411.025c.075.006.13.007.17.01.014,0,.025,0,.035,0A.489.489,0,0,1,1042.942,169.415Z" transform="translate(-983.931 -167.192)"/><path class="l" d="M1126.921,230.162c1.788-6.444,10.242-42.6-19.334-60.32-.17-.107-.342-.208-.518-.311.057.017.483.161,1.194.447,6.619,2.605,38.234,17.166,34.543,55.733C1140.484,227.066,1135.495,229.3,1126.921,230.162Z" transform="translate(-1048.052 -167.307)"/></g></g></svg>