<svg xmlns="http://www.w3.org/2000/svg" xmlns:xlink="http://www.w3.org/1999/xlink" width="124.11" height="200.096" viewBox="0 0 124.11 200.096"><defs><style>.a{fill:#e0af49;}.b{fill:#c7823e;}.c{fill:#e4bb56;}.d{fill:#f0f2f7;}.e{fill:#a1bfa5;}.f{fill:#fcfcfc;}.g{fill:#cadbcb;}.h{fill:#fff;}.i{fill:#eefdfa;}.j{fill:#f49272;}.k{fill:#fc561f;}.l{fill:#fdc2ae;}.m{filter:url(#c);}.n{filter:url(#a);}</style><filter id="a" x="37.106" y="102.107" width="83.136" height="90.157" filterUnits="userSpaceOnUse"><feOffset dy="5" input="SourceAlpha"/><feGaussianBlur stdDeviation="5" result="b"/><feFlood flood-opacity="0.161"/><feComposite operator="in" in2="b"/><feComposite in="SourceGraphic"/></filter><filter id="c" x="5.249" y="101.227" width="81.694" height="98.869" filterUnits="userSpaceOnUse"><feOffset dy="5" input="SourceAlpha"/><feGaussianBlur stdDeviation="5" result="d"/><feFlood flood-opacity="0.161"/><feComposite operator="in" in2="d"/><feComposite in="SourceGraphic"/></filter></defs><g transform="translate(-937.251 217.757) rotate(-15)"><g transform="translate(949.962 146.667)"><g class="n" transform="matrix(0.97, 0.26, -0.26, 0.97, 11.71, -114.43)"><path class="a" d="M972.453,120.644l-6.813,43.9,35.1-11.345,6.191-39.87Z" transform="translate(-909.96 263.25) rotate(-15)"/></g><g class="m" transform="matrix(0.97, 0.26, -0.26, 0.97, 11.71, -114.43)"><path class="b" d="M987.037,125.535l-30.884-17.461-6.191,39.87,30.261,21.494Z" transform="translate(-925.32 262.3) rotate(-15)"/></g><path class="c" d="M953.17,111.7l34.766-7.521,30.591,17.669-34.474,7.312Z" transform="translate(-946.979 -104.178)"/><g transform="translate(10.465 5.493)"><path class="d" d="M955.384,156.409l6.522-41.238,33.6-8.147,6.618,3.89L969.056,119.2l-6.73,42.088Z" transform="translate(-955.384 -107.024)"/><path class="e" d="M961.906,111.244l7.15,4.026-6.73,42.088-6.941-4.876Z" transform="translate(-955.384 -103.098)"/></g><g transform="translate(22.317 2.266)"><path class="f" d="M992.265,164.578l6.29-41.274L969.01,105.352l-7.486,1.7,29,17.92-6.349,42.147Z" transform="translate(-961.524 -105.352)"/><path class="g" d="M987.647,114.652l-8.034,1.669L973.25,158.57l8.1-2.619Z" transform="translate(-950.616 -96.7)"/></g></g><g transform="translate(954.637 58.505)"><g transform="translate(0.152 30.126)"><path class="h" d="M981.752,144.3,952.463,80.334l.459-.21,27.171,59.343L957.75,74.275l.477-.164,23.993,70Z" transform="translate(-952.463 -74.112)"/></g><g transform="translate(40.342 58.515)"><path class="h" d="M973.547,131.53l-.264-.43,60.734-42.282.289.415-57.221,39.836,55.537-29.645.238.445Z" transform="translate(-973.284 -88.819)"/></g><path class="i" d="M1054.458,125.544a3.4,3.4,0,0,1-1.747,2.06c-.162.079-.334.158-.527.245-2.66,1.2-8.3,3.05-17.658,3.007a101.132,101.132,0,0,1-24.819-3.614c-3.255-.847-6.712-1.87-10.375-3.092l-1.724-.519,0-.006q-3.5-1.138-6.652-2.32a112.18,112.18,0,0,1-22.4-11l-.01,0a54.171,54.171,0,0,1-13.2-11.624l-.01-.008a25.715,25.715,0,0,1-2.573-3.917,3.385,3.385,0,0,1-.187-2.7c13.589-39.03,46.144-34.921,59.4-31.4a.767.767,0,0,0,.019-.079l1.5.5c2.117.618,3.544,1.16,4.046,1.361l1.071.361.625.207.087.027.245.044a.666.666,0,0,1,.108,0l.184.029c.015.006.027,0,.036.008a.246.246,0,0,1,.052.012h.006a59.893,59.893,0,0,1,6,2.135C1039,70.577,1066.51,86.716,1054.458,125.544Z" transform="translate(-952.384 -58.505)"/><path class="j" d="M991.116,125.014c-3.255-.847-6.712-1.87-10.375-3.092l-1.724-.519,0-.006q-3.5-1.138-6.652-2.32c7.374-44.981,27.69-57.418,28.929-58.142.042-.025.062-.035.062-.035a.435.435,0,0,1,.027.058C1001.945,62.2,1011.284,84.121,991.116,125.014Z" transform="translate(-933.794 -56.277)"/><path class="k" d="M1018.519,61.276c-.22,0-.442,0-.66.014-38.619.892-49.535,42.032-50.743,47.155a54.169,54.169,0,0,1-13.2-11.624c16.842-40.154,55.473-36.867,63.226-35.764.257.031.477.068.66.1s.328.048.44.073l.183.029c.016.006.027,0,.037.008A.243.243,0,0,1,1018.519,61.276Z" transform="translate(-950.956 -56.653)"/><path class="l" d="M1001.961,128.628c2.662-6.758,15.886-44.846-14.047-67.332-.172-.135-.346-.264-.525-.4.06.025.5.23,1.239.62,6.852,3.561,39.345,22.868,30.991,64.1C1016.959,126.821,1011.319,128.67,1001.961,128.628Z" transform="translate(-919.82 -56.277)"/></g></g></svg>