<svg xmlns="http://www.w3.org/2000/svg" xmlns:xlink="http://www.w3.org/1999/xlink" width="67.757" height="219.122" viewBox="0 0 67.757 219.122"><defs><style>.a{fill:#fef2d5;}.b,.c{stroke:none;}.c{fill:#fec22d;}.d{filter:url(#e);}.e{filter:url(#c);}.f{filter:url(#a);}</style><filter id="a" x="24.252" y="0" width="43.505" height="219.122" filterUnits="userSpaceOnUse"><feOffset dx="2" input="SourceAlpha"/><feGaussianBlur stdDeviation="2.5" result="b"/><feFlood flood-color="#fec22d"/><feComposite operator="in" in2="b"/><feComposite in="SourceGraphic"/></filter><filter id="c" x="12.252" y="0" width="43.505" height="219.122" filterUnits="userSpaceOnUse"><feOffset dx="2" input="SourceAlpha"/><feGaussianBlur stdDeviation="2.5" result="d"/><feFlood flood-color="#fec22d"/><feComposite operator="in" in2="d"/><feComposite in="SourceGraphic"/></filter><filter id="e" x="0" y="0" width="43.505" height="219.122" filterUnits="userSpaceOnUse"><feOffset dx="2" input="SourceAlpha"/><feGaussianBlur stdDeviation="2.5" result="f"/><feFlood flood-color="#fec22d"/><feComposite operator="in" in2="f"/><feComposite in="SourceGraphic"/></filter></defs><g transform="translate(-1336.008 -369.5)"><g class="f" transform="matrix(1, 0, 0, 1, 1336.01, 369.5)"><g class="a" transform="translate(-280.86 -142.31)"><path class="b" d="M 337.4880676269531 353.435791015625 C 336.9926147460938 353.435791015625 336.54931640625 353.1047058105469 336.4073181152344 352.6296691894531 L 311.3648071289062 253.6083984375 L 311.3626098632812 253.5995788574219 L 311.3600463867188 253.5908355712891 C 311.0332336425781 252.4716033935547 311.0332336425781 251.2883911132812 311.3600463867188 250.1691589355469 L 311.3626098632812 250.1604156494141 L 311.3648071289062 250.151611328125 L 336.4073181152344 151.1203308105469 C 336.54931640625 150.6452941894531 336.9926147460938 150.314208984375 337.4880676269531 150.314208984375 C 337.5955505371094 150.314208984375 337.7030639648438 150.3298492431641 337.8076171875 150.3606567382812 C 338.097900390625 150.4456634521484 338.3369140625 150.6381530761719 338.4815063476562 150.9029235839844 C 338.6260986328125 151.1676788330078 338.6589965820312 151.472900390625 338.5741271972656 151.7623138427734 L 338.5715942382812 151.77099609375 L 338.5693664550781 151.7797698974609 L 313.6236877441406 249.8865966796875 C 313.2427673339844 251.1891326904297 313.2427368164062 252.5672607421875 313.6236267089844 253.8731689453125 L 338.5693664550781 351.9702453613281 L 338.5715942382812 351.97900390625 L 338.5741271972656 351.9876708984375 C 338.6589965820312 352.277099609375 338.6260986328125 352.5823059082031 338.4815063476562 352.8470764160156 C 338.3369140625 353.1118469238281 338.097900390625 353.3043518066406 337.8085021972656 353.3890991210938 C 337.7030639648438 353.4201965332031 337.5955505371094 353.435791015625 337.4880676269531 353.435791015625 Z"/><path class="c" d="M 337.4880676269531 352.9357299804688 C 337.5476379394531 352.9357299804688 337.6076049804688 352.9269714355469 337.66796875 352.9091796875 C 337.8290405273438 352.8620300292969 337.9620971679688 352.7548522949219 338.0426330566406 352.6073913574219 C 338.1232299804688 352.4598083496094 338.1415710449219 352.2896728515625 338.0942687988281 352.1283874511719 L 338.0891723632812 352.1110229492188 L 338.084716796875 352.0934753417969 L 313.1410217285156 254.0043640136719 C 312.7367248535156 252.6121978759766 312.73681640625 251.1437530517578 313.1412048339844 249.7549743652344 L 338.084716796875 151.6565551757812 L 338.0891723632812 151.6390075683594 L 338.0942687988281 151.6216125488281 C 338.1415710449219 151.4603118896484 338.1232299804688 151.2901916503906 338.0426330566406 151.1426086425781 C 337.9620971679688 150.9951629638672 337.8290405273438 150.8879699707031 337.6662292480469 150.8403167724609 C 337.6075744628906 150.8230285644531 337.5476379394531 150.8142700195312 337.4880676269531 150.8142700195312 C 337.2154235839844 150.8142700195312 336.9710998535156 150.9946746826172 336.88916015625 151.2546844482422 L 311.849609375 250.2741851806641 L 311.8451538085938 250.2918395996094 L 311.8400573730469 250.3093109130859 C 311.5400085449219 251.3368682861328 311.5400085449219 252.4231262207031 311.8400573730469 253.45068359375 L 311.8451538085938 253.4681549072266 L 311.849609375 253.4857940673828 L 336.8891906738281 352.4954223632812 C 336.9711608886719 352.75537109375 337.2154541015625 352.9357299804688 337.4880676269531 352.9357299804688 M 337.4880676269531 353.9358520507812 C 336.7824401855469 353.9358520507812 336.1322631835938 353.4734497070312 335.9249877929688 352.7619934082031 L 310.8800048828125 253.7310028076172 C 310.5270080566406 252.5220031738281 310.5270080566406 251.2380065917969 310.8800048828125 250.0290069580078 L 335.9249877929688 150.9880065917969 C 336.1322326660156 150.2766418457031 336.7825012207031 149.8141479492188 337.4880676269531 149.8141479492188 C 337.6404418945312 149.8141479492188 337.7953796386719 149.8357086181641 337.9490051269531 149.8809967041016 C 338.81298828125 150.1340026855469 339.3070068359375 151.0399932861328 339.0539855957031 151.9029998779297 L 314.1059875488281 250.0189971923828 C 313.7489929199219 251.2339935302734 313.75 252.5260009765625 314.1059875488281 253.7409973144531 L 339.0539855957031 351.8469848632812 C 339.3070068359375 352.7099914550781 338.81298828125 353.6159973144531 337.9490051269531 353.8689880371094 C 337.7954406738281 353.9142761230469 337.640380859375 353.9358520507812 337.4880676269531 353.9358520507812 Z"/></g></g><g class="e" transform="matrix(1, 0, 0, 1, 1336.01, 369.5)"><g class="a" transform="translate(-292.86 -142.31)"><path class="b" d="M 337.4880065917969 353.435791015625 C 336.9926147460938 353.4358520507812 336.5493469238281 353.1047668457031 336.4073181152344 352.629638671875 L 327.0330810546875 315.5626525878906 L 311.3648071289062 253.6083984375 L 311.3626098632812 253.5995788574219 L 311.3600463867188 253.5908355712891 C 311.0332336425781 252.4716033935547 311.0332336425781 251.2883911132812 311.3600463867188 250.1691589355469 L 311.3626098632812 250.1604156494141 L 311.3648071289062 250.151611328125 L 336.4073181152344 151.1203308105469 C 336.54931640625 150.6452941894531 336.9926147460938 150.314208984375 337.4880676269531 150.314208984375 C 337.5955505371094 150.314208984375 337.7030639648438 150.3298492431641 337.8076171875 150.3606567382812 C 338.097900390625 150.4456634521484 338.3369140625 150.6381530761719 338.4815063476562 150.9029235839844 C 338.6260986328125 151.1676788330078 338.6589965820312 151.472900390625 338.5741271972656 151.7623138427734 L 338.5715942382812 151.77099609375 L 338.5693664550781 151.7797698974609 L 313.6236877441406 249.8865966796875 C 313.5274658203125 250.2156066894531 313.4555969238281 250.5510559082031 313.4081420898438 250.8898162841797 L 313.2634887695312 250.8898162841797 L 313.1133422851562 251.0829162597656 C 312.9631958007812 251.2760314941406 313.0103454589844 251.4616088867188 313.0482482910156 251.6107177734375 L 313.1296691894531 251.9309692382812 L 313.5018310546875 253.3944549560547 C 313.5365600585938 253.5538635253906 313.5772705078125 253.7139434814453 313.6228942871094 253.8706207275391 L 314.4566650390625 257.149169921875 L 317.1216125488281 267.628662109375 L 338.5693664550781 351.9702453613281 L 338.5715942382812 351.97900390625 L 338.5741271972656 351.9876708984375 C 338.6589965820312 352.277099609375 338.6260986328125 352.5823059082031 338.4815063476562 352.8470764160156 C 338.3369140625 353.1118469238281 338.097900390625 353.3043518066406 337.8085021972656 353.3890991210938 C 337.7030944824219 353.420166015625 337.5955810546875 353.435791015625 337.4880065917969 353.435791015625 Z"/><path class="c" d="M 337.4879455566406 352.9357299804688 C 337.5476379394531 352.9357299804688 337.6076354980469 352.9269714355469 337.66796875 352.9091796875 C 337.8290405273438 352.8620300292969 337.9620971679688 352.7548522949219 338.0426330566406 352.6073913574219 C 338.1232299804688 352.4598083496094 338.1415710449219 352.2896728515625 338.0942687988281 352.1283874511719 L 338.0891723632812 352.1110229492188 L 338.084716796875 352.0934753417969 L 316.636962890625 267.7518920898438 L 314.0476379394531 257.5696716308594 L 313.140380859375 254.0021209716797 C 313.0934143066406 253.8402404785156 313.0513610839844 253.6748504638672 313.0152282714844 253.5099639892578 L 312.64501953125 252.0541839599609 L 312.5635986328125 251.7338714599609 C 312.5164489746094 251.5482940673828 312.4182739257812 251.1621551513672 312.7185363769531 250.7759704589844 L 312.9749145507812 250.4462738037109 C 313.0194091796875 250.213623046875 313.0748901367188 249.9827880859375 313.1412048339844 249.7549743652344 L 338.084716796875 151.6565551757812 L 338.0891723632812 151.6390075683594 L 338.0942687988281 151.6216125488281 C 338.1415710449219 151.4603118896484 338.1232299804688 151.2901916503906 338.0426330566406 151.1426086425781 C 337.9620971679688 150.9951629638672 337.8290405273438 150.8879699707031 337.6662292480469 150.8403167724609 C 337.6075744628906 150.8230285644531 337.5476379394531 150.8142700195312 337.4880676269531 150.8142700195312 C 337.2154235839844 150.8142700195312 336.9710998535156 150.9946746826172 336.88916015625 151.2546844482422 L 311.849609375 250.2741851806641 L 311.8451538085938 250.2918395996094 L 311.8400573730469 250.3093109130859 C 311.5400085449219 251.3368682861328 311.5400085449219 252.4231262207031 311.8400573730469 253.45068359375 L 311.8451538085938 253.4681549072266 L 311.849609375 253.4857940673828 L 327.5178833007812 315.4400634765625 L 336.8891906738281 352.4953918457031 C 336.9711608886719 352.75537109375 337.2153930664062 352.9357299804688 337.4879455566406 352.9357299804688 M 337.4880676269531 353.9358520507812 C 336.7824401855469 353.9359130859375 336.1322631835938 353.4734497070312 335.9249877929688 352.7619934082031 C 335.9249877929688 352.7619934082031 332.8095092773438 340.4430236816406 326.5482788085938 315.6852722167969 C 320.2870483398438 290.9275207519531 310.8800048828125 253.7310028076172 310.8800048828125 253.7310028076172 C 310.5270080566406 252.5220031738281 310.5270080566406 251.2380065917969 310.8800048828125 250.0290069580078 L 335.9249877929688 150.9880065917969 C 336.1322326660156 150.2766418457031 336.7825012207031 149.8141479492188 337.4880676269531 149.8141479492188 C 337.6404418945312 149.8141479492188 337.7953796386719 149.8357086181641 337.9490051269531 149.8809967041016 C 338.81298828125 150.1340026855469 339.3070068359375 151.0399932861328 339.0539855957031 151.9029998779297 L 314.1059875488281 250.0189971923828 C 313.7940673828125 251.0806427001953 313.7554321289062 252.2010345458984 313.9881591796875 253.2775115966797 C 313.8139953613281 252.5926208496094 313.5082092285156 251.3898773193359 313.5081176757812 251.3898773193359 C 313.5080261230469 251.3898773193359 313.6311340332031 251.8739318847656 313.9887390136719 253.2801666259766 C 314.0220642089844 253.43408203125 314.0610046386719 253.5872650146484 314.1054382324219 253.7390747070312 C 314.6787719726562 255.9937438964844 315.7413024902344 260.1717224121094 317.6062316894531 267.5054321289062 C 323.8432312011719 292.0319213867188 339.0539855957031 351.8469848632812 339.0539855957031 351.8469848632812 C 339.3070068359375 352.7099914550781 338.81298828125 353.6159973144531 337.9490051269531 353.8689880371094 C 337.7954406738281 353.9142761230469 337.640380859375 353.9358520507812 337.4880676269531 353.9358520507812 Z M 314.1059875488281 253.7409973144531 C 314.1058044433594 253.7403259277344 314.1056213378906 253.73974609375 314.1054382324219 253.7390747070312 C 314.0639953613281 253.5761566162109 314.0251770019531 253.4234619140625 313.9887390136719 253.2801666259766 C 313.988525390625 253.2792663574219 313.9883422851562 253.2784118652344 313.9881591796875 253.2775115966797 C 314.0575256347656 253.5503082275391 314.1059875488281 253.7409973144531 314.1059875488281 253.7409973144531 Z"/></g></g><g class="d" transform="matrix(1, 0, 0, 1, 1336.01, 369.5)"><g class="a" transform="translate(-305.12 -142.31)"><path class="b" d="M 337.4880676269531 353.435791015625 C 336.9926147460938 353.435791015625 336.54931640625 353.1047058105469 336.4073181152344 352.6296691894531 L 311.3648071289062 253.6083984375 L 311.3626098632812 253.5995788574219 L 311.3600463867188 253.5908355712891 C 311.0332336425781 252.4716033935547 311.0332336425781 251.2883911132812 311.3600463867188 250.1691589355469 L 311.3626098632812 250.1604156494141 L 311.3648071289062 250.151611328125 L 336.4073181152344 151.1203308105469 C 336.54931640625 150.6452941894531 336.9926147460938 150.314208984375 337.4880676269531 150.314208984375 C 337.5955505371094 150.314208984375 337.7030639648438 150.3298492431641 337.8076171875 150.3606567382812 C 338.097900390625 150.4456634521484 338.3369140625 150.6381530761719 338.4815063476562 150.9029235839844 C 338.6260986328125 151.1676788330078 338.6589965820312 151.472900390625 338.5741271972656 151.7623138427734 L 338.5715942382812 151.77099609375 L 338.5693664550781 151.7797698974609 L 313.6236877441406 249.8865966796875 C 313.2427673339844 251.1891326904297 313.2427368164062 252.5672607421875 313.6236267089844 253.8731689453125 L 338.5693664550781 351.9702453613281 L 338.5715942382812 351.97900390625 L 338.5741271972656 351.9876708984375 C 338.6589965820312 352.277099609375 338.6260986328125 352.5823059082031 338.4815063476562 352.8470764160156 C 338.3369140625 353.1118469238281 338.097900390625 353.3043518066406 337.8085021972656 353.3890991210938 C 337.7030639648438 353.4201965332031 337.5955505371094 353.435791015625 337.4880676269531 353.435791015625 Z"/><path class="c" d="M 337.4880676269531 352.9357299804688 C 337.5476379394531 352.9357299804688 337.6076049804688 352.9269714355469 337.66796875 352.9091796875 C 337.8290405273438 352.8620300292969 337.9620971679688 352.7548522949219 338.0426330566406 352.6073913574219 C 338.1232299804688 352.4598083496094 338.1415710449219 352.2896728515625 338.0942687988281 352.1283874511719 L 338.0891723632812 352.1110229492188 L 338.084716796875 352.0934753417969 L 313.1410217285156 254.0043640136719 C 312.7367248535156 252.6121978759766 312.73681640625 251.1437530517578 313.1412048339844 249.7549743652344 L 338.084716796875 151.6565551757812 L 338.0891723632812 151.6390075683594 L 338.0942687988281 151.6216125488281 C 338.1415710449219 151.4603118896484 338.1232299804688 151.2901916503906 338.0426330566406 151.1426086425781 C 337.9620971679688 150.9951629638672 337.8290405273438 150.8879699707031 337.6662292480469 150.8403167724609 C 337.6075744628906 150.8230285644531 337.5476379394531 150.8142700195312 337.4880676269531 150.8142700195312 C 337.2154235839844 150.8142700195312 336.9710998535156 150.9946746826172 336.88916015625 151.2546844482422 L 311.849609375 250.2741851806641 L 311.8451538085938 250.2918395996094 L 311.8400573730469 250.3093109130859 C 311.5400085449219 251.3368682861328 311.5400085449219 252.4231262207031 311.8400573730469 253.45068359375 L 311.8451538085938 253.4681549072266 L 311.849609375 253.4857940673828 L 336.8891906738281 352.4954223632812 C 336.9711608886719 352.75537109375 337.2154541015625 352.9357299804688 337.4880676269531 352.9357299804688 M 337.4880676269531 353.9358520507812 C 336.7824401855469 353.9358520507812 336.1322631835938 353.4734497070312 335.9249877929688 352.7619934082031 L 310.8800048828125 253.7310028076172 C 310.5270080566406 252.5220031738281 310.5270080566406 251.2380065917969 310.8800048828125 250.0290069580078 L 335.9249877929688 150.9880065917969 C 336.1322326660156 150.2766418457031 336.7825012207031 149.8141479492188 337.4880676269531 149.8141479492188 C 337.6404418945312 149.8141479492188 337.7953796386719 149.8357086181641 337.9490051269531 149.8809967041016 C 338.81298828125 150.1340026855469 339.3070068359375 151.0399932861328 339.0539855957031 151.9029998779297 L 314.1059875488281 250.0189971923828 C 313.7489929199219 251.2339935302734 313.75 252.5260009765625 314.1059875488281 253.7409973144531 L 339.0539855957031 351.8469848632812 C 339.3070068359375 352.7099914550781 338.81298828125 353.6159973144531 337.9490051269531 353.8689880371094 C 337.7954406738281 353.9142761230469 337.640380859375 353.9358520507812 337.4880676269531 353.9358520507812 Z"/></g></g></g></svg>