<svg xmlns="http://www.w3.org/2000/svg" xmlns:xlink="http://www.w3.org/1999/xlink" width="143.548" height="214.516" viewBox="0 0 143.548 214.516"><defs><style>.a{fill:#e0af49;}.b{fill:#c7823e;}.c{fill:#e4bb56;}.d{fill:#f0f2f7;}.e{fill:#a1bfa5;}.f{fill:#fcfcfc;}.g{fill:#cadbcb;}.h{fill:#fff;}.i{fill:#eefdfa;}.j{fill:#f46095;}.k{fill:#f72163;}.l{fill:#f789b0;}.m{filter:url(#c);}.n{filter:url(#a);}</style><filter id="a" x="38.45" y="119.283" width="79.872" height="95.232" filterUnits="userSpaceOnUse"><feOffset dy="5" input="SourceAlpha"/><feGaussianBlur stdDeviation="5" result="b"/><feFlood flood-opacity="0.161"/><feComposite operator="in" in2="b"/><feComposite in="SourceGraphic"/></filter><filter id="c" x="0" y="108.72" width="75.541" height="105.796" filterUnits="userSpaceOnUse"><feOffset dy="5" input="SourceAlpha"/><feGaussianBlur stdDeviation="5" result="d"/><feFlood flood-opacity="0.161"/><feComposite operator="in" in2="d"/><feComposite in="SourceGraphic"/></filter></defs><g transform="translate(-966.283 -164.749)"><g transform="translate(981.283 272.967)"><g class="n" transform="matrix(1, 0, 0, 1, -15, -108.22)"><path class="a" d="M1051.456,384.784l-7.091,55,43.428-15.284,6.444-49.948Z" transform="translate(-990.91 -245.27)"/></g><g class="m" transform="matrix(1, 0, 0, 1, -15, -108.22)"><path class="b" d="M1027.508,378.205l-39.1-20.795-6.444,49.948,38.45,25.847Z" transform="translate(-966.97 -238.69)"/></g><path class="c" d="M992.424,350.87l43.139-10.5,38.739,21.065-42.781,10.231Z" transform="translate(-985.981 -340.369)"/><g transform="translate(13.299 6.545)"><path class="d" d="M1003.548,413.9l6.813-51.666,41.661-11.245,8.383,4.641-40.993,11.4-7.046,52.733Z" transform="translate(-1003.548 -350.991)"/><path class="e" d="M1010.362,369.239l9.05,4.794-7.046,52.733-8.818-5.861Z" transform="translate(-1003.548 -357.994)"/></g><g transform="translate(26.452 3.186)"><path class="f" d="M1065.1,418.694l6.523-51.7-37.443-21.45-9.286,2.362,36.758,21.429-6.568,52.794Z" transform="translate(-1024.894 -345.54)"/><path class="g" d="M1090.417,380.35l-9.971,2.34-6.583,52.923,10.027-3.529Z" transform="translate(-1043.688 -358.9)"/></g></g><g transform="translate(980.184 164.749)"><g transform="translate(0.418 41.738)"><path class="h" d="M1024.543,314.661l-43.682-73.894.531-.314L1021.915,309l-35.409-76.261.558-.259,38.024,81.891Z" transform="translate(-980.862 -232.483)"/></g><g transform="translate(57.389 64.075)"><path class="h" d="M1073.69,328.255l-.374-.488,68.316-59.036.4.466-64.364,55.621,63.617-43.04.345.51Z" transform="translate(-1073.316 -268.732)"/></g><path class="i" d="M1108.182,239.041a4.144,4.144,0,0,1-1.858,2.721c-.185.116-.385.235-.607.364-3.075,1.8-9.685,4.759-21.045,5.9a123.284,123.284,0,0,1-30.577-1.226q-6.084-.92-12.984-2.432l-2.157-.41v-.006q-4.388-.937-8.366-1.971a136.728,136.728,0,0,1-28.585-10.5l-.013,0c-8.729-4.511-14.191-9-17.49-12.427-.007,0,0-.008-.012-.009a31.263,31.263,0,0,1-3.622-4.424,4.138,4.138,0,0,1-.57-3.249c11.522-49.09,51.549-48.247,68.08-45.658a.594.594,0,0,0,.014-.1l1.88.42c2.647.479,4.448.956,5.082,1.136l1.347.3.784.17.11.023.3.023a.912.912,0,0,1,.131-.013c.1.007.172.009.225.014.019,0,.033,0,.046,0a.638.638,0,0,1,.066.007l.006,0a72.893,72.893,0,0,1,7.55,1.826C1082.429,174.309,1117.866,190.392,1108.182,239.041Z" transform="translate(-980.184 -164.749)"/><path class="j" d="M1085.489,248.631q-6.084-.92-12.984-2.432l-2.157-.41v-.006q-4.388-.937-8.366-1.971c3.223-55.52,26.293-73.2,27.7-74.232.048-.037.071-.052.071-.052s.015.023.039.069C1090.633,171.027,1104.757,196.445,1085.489,248.631Z" transform="translate(-1011.577 -166.583)"/><path class="k" d="M1061.053,169.447c-.269.031-.537.063-.8.1-46.749,6-54.759,57.307-55.573,63.679-8.729-4.511-14.191-9-17.49-12.427,15.326-50.868,62.62-51.8,72.171-51.445.314.006.586.022.811.035s.406.018.544.033c.1.007.173.009.226.014.019,0,.033,0,.046,0A.638.638,0,0,1,1061.053,169.447Z" transform="translate(-982.872 -166.502)"/><path class="l" d="M1133.37,249.858c2.369-8.538,13.569-56.44-25.615-79.915-.225-.141-.453-.276-.686-.412.076.022.64.214,1.582.592,8.769,3.451,50.654,22.743,45.765,73.838C1151.339,245.757,1144.729,248.72,1133.37,249.858Z" transform="translate(-1028.881 -166.584)"/></g></g></svg>