<svg xmlns="http://www.w3.org/2000/svg" xmlns:xlink="http://www.w3.org/1999/xlink" width="140" height="60" viewBox="0 0 140 60"><defs><style>.a{fill:#1caafc;opacity:0.1;}.b{fill:#fff;opacity:0.38;}.c{fill:#d1eefe;stroke:#1caafc;stroke-linecap:round;stroke-linejoin:round;stroke-width:0.2px;}.d{filter:url(#i);}.e{filter:url(#g);}.f{filter:url(#e);}.g{filter:url(#c);}.h{filter:url(#a);}</style><filter id="a" x="0" y="0" width="140" height="60" filterUnits="userSpaceOnUse"><feOffset dy="1" input="SourceAlpha"/><feGaussianBlur stdDeviation="5" result="b"/><feFlood flood-color="#d1eefe"/><feComposite operator="in" in2="b"/><feComposite in="SourceGraphic"/></filter><filter id="c" x="91.5" y="12.5" width="33.5" height="33" filterUnits="userSpaceOnUse"><feOffset dx="-2" input="SourceAlpha"/><feGaussianBlur stdDeviation="0.5" result="d"/><feFlood flood-color="#9fc9e2"/><feComposite operator="in" in2="d"/><feComposite in="SourceGraphic"/></filter><filter id="e" x="101.394" y="16.065" width="12.096" height="25.87" filterUnits="userSpaceOnUse"><feOffset dx="-1" input="SourceAlpha"/><feGaussianBlur stdDeviation="0.5" result="f"/><feFlood flood-color="#1ca7f9" flood-opacity="0.349"/><feComposite operator="in" in2="f"/><feComposite in="SourceGraphic"/></filter><filter id="g" x="104.953" y="16.065" width="12.096" height="25.87" filterUnits="userSpaceOnUse"><feOffset dx="-1" input="SourceAlpha"/><feGaussianBlur stdDeviation="0.5" result="h"/><feFlood flood-color="#1ca7f9" flood-opacity="0.349"/><feComposite operator="in" in2="h"/><feComposite in="SourceGraphic"/></filter><filter id="i" x="108.511" y="16.065" width="12.096" height="25.87" filterUnits="userSpaceOnUse"><feOffset dx="-1" input="SourceAlpha"/><feGaussianBlur stdDeviation="0.5" result="j"/><feFlood flood-color="#1ca7f9" flood-opacity="0.349"/><feComposite operator="in" in2="j"/><feComposite in="SourceGraphic"/></filter></defs><g transform="translate(-761 -440)"><g class="h" transform="matrix(1, 0, 0, 1, 761, 440)"><rect class="a" width="110" height="30" rx="15" transform="translate(15 14)"/></g><g class="g" transform="matrix(1, 0, 0, 1, 761, 440)"><circle class="b" cx="15" cy="15" r="15" transform="translate(95 14)"/></g><g transform="translate(864.994 457.665)"><g class="f" transform="matrix(1, 0, 0, 1, -103.99, -17.66)"><path class="c" d="M269.1,242.493a.187.187,0,0,1,0,.144L260.952,253.9h.726l8.154-11.263a.188.188,0,0,0,0-.144l-8.154-11.263h-.726Z" transform="translate(-156.96 -213.57)"/></g><g class="e" transform="matrix(1, 0, 0, 1, -103.99, -17.66)"><path class="c" d="M269.1,242.493a.187.187,0,0,1,0,.144L260.952,253.9h.726l8.154-11.263a.188.188,0,0,0,0-.144l-8.154-11.263h-.726Z" transform="translate(-153.4 -213.57)"/></g><g class="d" transform="matrix(1, 0, 0, 1, -103.99, -17.66)"><path class="c" d="M269.1,242.493a.187.187,0,0,1,0,.144L260.952,253.9h.726l8.154-11.263a.188.188,0,0,0,0-.144l-8.154-11.263h-.726Z" transform="translate(-149.84 -213.57)"/></g></g></g></svg>