<svg xmlns="http://www.w3.org/2000/svg" xmlns:xlink="http://www.w3.org/1999/xlink" width="238.732" height="61.559" viewBox="0 0 238.732 61.559"><defs><style>.a{fill:none;}.b{fill:#0af;}.c{fill:#7a1dff;}.d{fill:#f72163;}.e{fill:#fd5601;}.f{fill:#ffc208;}.g{clip-path:url(#a);}.h{fill:#9de411;}.i{fill:#161e3f;}</style><clipPath id="a"><rect class="a" width="238.732" height="61.559"/></clipPath></defs><g transform="translate(-50 -68.56)"><g transform="translate(50 68.56)"><path class="b" d="M163.607,112.133l-7.441,5.406,8.052,24.782,7.441-5.406Z" transform="translate(-115.363 -82.834)"/><path class="c" d="M43.18,171.61l7.441,5.406,13.64-9.91,13.639,9.91,7.441-5.406L64.261,156.294Z" transform="translate(-31.898 -115.457)"/><path class="d" d="M0,82.953l13.64,9.91L8.43,108.9l7.442,5.406,8.052-24.782L2.842,74.205Z" transform="translate(0 -54.817)"/><path class="e" d="M29.083,0l-5.21,16.034H7.014L4.172,24.782H30.229L38.281,0Z" transform="translate(-3.082 0)"/><path class="f" d="M113.008,0l8.053,24.782h26.057l-2.843-8.748H127.416L122.205,0Z" transform="translate(-83.481 0)"/><g class="g"><path class="h" d="M113.349,70.115l-2.842-8.748L82.075,82.023,70.137,73.35,67.3,82.1l14.78,10.738Z" transform="translate(-49.712 -45.333)"/><path class="i" d="M267.529,82.186a11.263,11.263,0,0,0-11.42,11.42,11.51,11.51,0,0,0,11.77,11.683c5.032,0,9.451-3.238,10.676-7.088L272.6,97.194a5.536,5.536,0,0,1-4.682,2.363c-2.932,0-4.988-1.531-5.076-3.85h16.1V94.043c0-6.651-4.769-11.857-11.42-11.857m-4.682,8.926c.087-1.663,2.232-3.194,4.682-3.194,2.538,0,4.463,1.488,4.638,3.194Z" transform="translate(-189.193 -60.712)"/><path class="i" d="M355.776,90.468l-4.507-5.937h-7.745v.35l8.138,10.545-7.438,10.633v.35h7.613l3.938-5.616,3.938,5.616h7.657v-.438L360.02,95.426l8.094-10.545v-.35h-7.832Z" transform="translate(-253.768 -62.445)"/><path class="i" d="M447.832,61.086h-1.356L437.637,72.55v.612h3.369v3.194c0,8.532,6.563,13.039,14,13.039V82.7c-3.807-.044-7.264-1.925-7.264-6.344V73.162h7.264v-5.95h-7.176Z" transform="translate(-323.291 -45.125)"/><path class="i" d="M528.733,87.458h-.044V83.17l-6.65-.044v21.921h6.65V99.009A9.829,9.829,0,0,1,538.8,88.814l-2.1-6.125c-2.407,0-6.476,1.619-7.964,4.769" transform="translate(-385.64 -61.084)"/><path class="i" d="M606.588,82.52v2.1a9.306,9.306,0,0,0-6.728-2.674c-5.541,0-10.335,5.058-10.335,11.522,0,6.509,4.794,11.654,10.335,11.654a9.114,9.114,0,0,0,6.728-2.833v2.217h6.333V82.52Zm-5.013,16.535a5.564,5.564,0,0,1,0-11.126c3.034,0,5.013,2.463,5.013,5.541,0,3.123-1.979,5.585-5.013,5.585" transform="translate(-435.493 -60.537)"/><rect class="i" width="6.948" height="6.992" transform="translate(180.639 36.979)"/><path class="i" d="M743.428,82.52v2.1a9.3,9.3,0,0,0-6.729-2.677c-5.54,0-10.334,5.057-10.334,11.522,0,6.508,4.794,11.654,10.334,11.654a9.081,9.081,0,0,0,6.333-2.45v1.7c0,2.331-2.2,4.31-5.145,4.31a5.411,5.411,0,0,1-4.618-2.375l-6.069,1.1c1.231,3.87,5.673,7.124,10.73,7.124a11.569,11.569,0,0,0,11.83-11.742V82.52Zm-5.013,16.535a5.563,5.563,0,0,1,0-11.126c3.035,0,5.013,2.463,5.013,5.541,0,3.122-1.979,5.585-5.013,5.585" transform="translate(-536.58 -60.537)"/><path class="i" d="M841.978,90.751c-.176-1.715-2.111-3.21-4.662-3.21-2.462,0-4.617,1.539-4.705,3.21Zm-9.367,4.617c.088,2.331,2.155,3.87,5.1,3.87a5.563,5.563,0,0,0,4.706-2.375l5.981,1.012c-1.232,3.87-5.673,7.124-10.73,7.124a11.568,11.568,0,0,1-11.83-11.741A11.321,11.321,0,0,1,837.316,81.78c6.685,0,11.478,5.233,11.478,11.918v1.671Z" transform="translate(-610.062 -60.412)"/></g></g></g></svg>