<svg xmlns="http://www.w3.org/2000/svg" xmlns:xlink="http://www.w3.org/1999/xlink" width="92.168" height="140.814" viewBox="0 0 92.168 140.814"><defs><style>.a{fill:#e0af49;}.b{fill:#c7823e;}.c{fill:#e4bb56;}.d{fill:#f0f2f7;}.e{fill:#a1bfa5;}.f{fill:#fcfcfc;}.g{fill:#cadbcb;}.h{fill:#fff;}.i{fill:#eefdfa;}.j{fill:#cdf46e;}.k{fill:#9de411;}.l{fill:#e4f7a9;}.m{filter:url(#c);}.n{filter:url(#a);}</style><filter id="a" x="32.918" y="62.197" width="59.25" height="78.617" filterUnits="userSpaceOnUse"><feOffset dy="5" input="SourceAlpha"/><feGaussianBlur stdDeviation="5" result="b"/><feFlood flood-opacity="0.161"/><feComposite operator="in" in2="b"/><feComposite in="SourceGraphic"/></filter><filter id="c" x="5.432" y="70.663" width="63.176" height="70.151" filterUnits="userSpaceOnUse"><feOffset dy="5" input="SourceAlpha"/><feGaussianBlur stdDeviation="5" result="d"/><feFlood flood-opacity="0.161"/><feComposite operator="in" in2="d"/><feComposite in="SourceGraphic"/></filter></defs><g transform="translate(-808.106 -113.902)"><g transform="translate(828.538 180.362)"><g class="n" transform="matrix(1, 0, 0, 1, -20.43, -66.46)"><path class="a" d="M881.608,238.622l5.69,34.642,23.56-17.157-5.165-31.46Z" transform="translate(-833.69 -152.45)"/></g><g class="m" transform="matrix(1, 0, 0, 1, -20.43, -66.46)"><path class="b" d="M866.933,243.142l-27.486-5.509,5.165,31.46,28.012,8.691Z" transform="translate(-819.02 -156.97)"/></g><path class="c" d="M839.447,230.049l24.253-14.2,27.318,5.738-24.085,13.975Z" transform="translate(-839.447 -215.845)"/><g transform="translate(9.612 1.755)"><path class="d" d="M859.444,265.493l-5.253-32.569,23.222-14.386,5.926,1.292-22.789,14.358,5.305,33.258Z" transform="translate(-854.191 -218.537)"/><path class="e" d="M854.191,240.6l6.359,1.264,5.305,33.258-6.412-1.953Z" transform="translate(-854.191 -226.218)"/></g><g transform="translate(11.234 4.447)"><path class="f" d="M893.918,261.413l-5.436-32.539-26.6-6.207-5.2,3.119,26.183,6.319,5.606,33.209Z" transform="translate(-856.678 -222.667)"/><path class="g" d="M902.462,232.188l-5.622,3.23,5.621,33.289,5.44-3.961Z" transform="translate(-870.658 -225.981)"/></g></g><g transform="translate(808.106 113.902)"><g transform="translate(1.465 39.001)"><path class="h" d="M851.852,212.5l-41.5-32.647.235-.3,38.5,30.286L811.8,174l.262-.273L852.1,212.219Z" transform="translate(-810.353 -173.727)"/></g><g transform="translate(50.404 25.298)"><path class="h" d="M885.745,201.964l-.323-.2,26.03-49.06.335.178-24.524,46.222,26.9-38.843.312.216Z" transform="translate(-885.422 -152.707)"/></g><path class="i" d="M888.13,144.549a2.55,2.55,0,0,1-.46,1.974c-.08.108-.168.22-.267.343-1.364,1.715-4.494,4.886-10.755,8.067a75.828,75.828,0,0,1-17.806,6.1q-3.694.828-7.987,1.5l-1.328.244v0q-2.725.44-5.236.733a84.138,84.138,0,0,1-18.729.343h-.008a40.682,40.682,0,0,1-12.8-3.232s0,0-.008,0a19.224,19.224,0,0,1-3.062-1.73,2.547,2.547,0,0,1-1.05-1.736c-4.322-30.714,18.818-39.141,28.873-41.337a.362.362,0,0,0-.014-.059l1.172-.177c1.625-.315,2.763-.442,3.167-.48l.84-.126.488-.077.068-.011.179-.055a.633.633,0,0,1,.072-.037c.059-.018.1-.033.132-.042.012,0,.02-.007.027-.008a.344.344,0,0,1,.039-.01h0a44.94,44.94,0,0,1,4.736-.634C858.952,113.163,882.853,114.5,888.13,144.549Z" transform="translate(-808.106 -113.902)"/><path class="j" d="M875.5,161.477q-3.694.828-7.987,1.5l-1.328.244v0q-2.725.44-5.236.733c-10.512-32.553-1.219-47.825-.64-48.733.02-.032.029-.046.029-.046a.426.426,0,0,1,.038.031C861.175,115.834,874.933,127.264,875.5,161.477Z" transform="translate(-824.765 -114.343)"/><path class="k" d="M846.075,115.169c-.147.078-.294.155-.436.236-25.47,13.848-18.641,45.052-17.689,48.887a40.681,40.681,0,0,1-12.8-3.232c-2.537-32.58,24.375-43.641,29.93-45.566.182-.067.342-.118.474-.16s.237-.08.319-.1c.059-.018.1-.033.132-.042.012,0,.02-.007.027-.008A.345.345,0,0,1,846.075,115.169Z" transform="translate(-810.501 -114.343)"/><path class="l" d="M895.645,155.365c-.542-5.423-4.784-35.384-32.479-40.121-.161-.031-.321-.057-.486-.083.049,0,.415-.02,1.039-.012,5.8.027,34.109,1.764,42.68,32.15C905.036,149.013,901.905,152.184,895.645,155.365Z" transform="translate(-827.102 -114.335)"/></g></g></svg>