<svg xmlns="http://www.w3.org/2000/svg" xmlns:xlink="http://www.w3.org/1999/xlink" width="190.335" height="49.079" viewBox="0 0 190.335 49.079"><defs><style>.a{fill:#fff;}.b{fill:#0af;}.c{fill:#7a1dff;}.d{fill:#f72163;}.e{fill:#fd5601;}.f{fill:#ffc208;}.g{clip-path:url(#a);}.h{fill:#9de42c;}</style><clipPath id="a"><rect class="a" width="190.335" height="49.079"/></clipPath></defs><path class="b" d="M162.1,112.133l-5.933,4.31,6.42,19.758,5.933-4.31Z" transform="translate(-123.634 -88.774)"/><path class="c" d="M43.18,168.505l5.933,4.31,10.875-7.9,10.874,7.9,5.933-4.31L59.988,156.294Z" transform="translate(-34.185 -123.736)"/><path class="d" d="M0,81.18l10.875,7.9L6.721,101.864l5.933,4.31,6.42-19.758L2.266,74.205Z" transform="translate(0 -58.748)"/><path class="e" d="M24.033,0,19.879,12.784H6.438L4.172,19.758H24.946L31.366,0Z" transform="translate(-3.303 0)"/><path class="f" d="M113.008,0l6.42,19.758H140.2l-2.266-6.974H124.5L120.341,0Z" transform="translate(-89.467 0)"/><g class="g"><path class="h" d="M104.012,68.341l-2.266-6.974L79.079,77.836l-9.518-6.915L67.3,77.895l11.784,8.561Z" transform="translate(-53.277 -48.583)"/><path class="a" d="M265.214,82.186a8.98,8.98,0,0,0-9.1,9.1,9.177,9.177,0,0,0,9.384,9.314c4.012,0,7.535-2.582,8.512-5.651l-4.744-.8a4.414,4.414,0,0,1-3.733,1.884c-2.337,0-3.977-1.221-4.047-3.07h12.837V91.64c0-5.3-3.8-9.454-9.1-9.454M261.481,89.3c.07-1.326,1.779-2.547,3.732-2.547,2.023,0,3.558,1.186,3.7,2.547Z" transform="translate(-202.758 -65.066)"/><path class="a" d="M353.292,89.265,349.7,84.531h-6.175v.279l6.489,8.407-5.93,8.477v.279h6.07l3.14-4.478,3.14,4.478h6.1v-.349l-5.861-8.407,6.453-8.407v-.279h-6.244Z" transform="translate(-271.964 -66.922)"/><path class="a" d="M445.765,61.086h-1.081l-7.047,9.14v.488h2.686v2.547c0,6.8,5.232,10.4,11.163,10.4V78.319c-3.035-.035-5.791-1.535-5.791-5.058V70.714h5.791V65.97h-5.721Z" transform="translate(-346.472 -48.361)"/><path class="a" d="M527.376,86.491h-.035V83.073l-5.3-.035v17.477h5.3V95.7a7.836,7.836,0,0,1,8.058-8.128l-1.674-4.884c-1.919,0-5.163,1.291-6.349,3.8" transform="translate(-413.292 -65.464)"/><path class="a" d="M603.129,82.4V84.08a7.419,7.419,0,0,0-5.364-2.132c-4.418,0-8.24,4.032-8.24,9.186,0,5.189,3.822,9.292,8.24,9.292a7.266,7.266,0,0,0,5.364-2.259v1.768h5.049V82.4Zm-4,13.183a4.436,4.436,0,0,1,0-8.871c2.419,0,4,1.964,4,4.418,0,2.49-1.578,4.453-4,4.453" transform="translate(-466.72 -64.877)"/><rect class="a" width="5.54" height="5.575" transform="translate(144.018 29.483)"/><path class="a" d="M739.969,82.4v1.678a7.417,7.417,0,0,0-5.365-2.134c-4.417,0-8.239,4.032-8.239,9.186,0,5.189,3.822,9.291,8.239,9.291a7.24,7.24,0,0,0,5.049-1.954V99.83c0,1.858-1.753,3.436-4.1,3.436a4.314,4.314,0,0,1-3.682-1.893l-4.838.876c.982,3.086,4.523,5.68,8.555,5.68a9.223,9.223,0,0,0,9.432-9.361V82.4Zm-4,13.183a4.436,4.436,0,0,1,0-8.871c2.419,0,4,1.964,4,4.418,0,2.489-1.578,4.453-4,4.453" transform="translate(-575.054 -64.877)"/><path class="a" d="M838.706,88.933c-.141-1.368-1.683-2.56-3.717-2.56-1.963,0-3.681,1.227-3.751,2.56Zm-7.468,3.681c.07,1.858,1.718,3.086,4.067,3.086a4.436,4.436,0,0,0,3.752-1.894l4.768.807c-.982,3.085-4.523,5.68-8.555,5.68a9.223,9.223,0,0,1-9.432-9.361,9.026,9.026,0,0,1,9.151-9.151c5.33,0,9.151,4.173,9.151,9.5v1.332Z" transform="translate(-653.806 -64.744)"/></g></svg>