<svg xmlns="http://www.w3.org/2000/svg" xmlns:xlink="http://www.w3.org/1999/xlink" width="188" height="188" viewBox="0 0 188 188"><defs><style>.a,.b{fill:#0af;}.b{opacity:0.3;}.c{clip-path:url(#a);}</style><clipPath id="a"><rect class="a" width="112.987" height="71.472"/></clipPath></defs><g transform="translate(-866 -1275)"><circle class="b" cx="94" cy="94" r="94" transform="translate(866 1275)"/><g transform="translate(903.506 1333.201)"><g class="c"><path class="a" d="M105.078,30.3l-2.926-11.7a1.769,1.769,0,0,0,1.4-1.73V14.979a7.439,7.439,0,0,0-7.43-7.43H82.794V3.656A3.66,3.66,0,0,0,79.138,0H11.2A3.66,3.66,0,0,0,7.548,3.656v32.08a1.769,1.769,0,0,0,3.538,0V3.656a.118.118,0,0,1,.118-.118H79.138a.118.118,0,0,1,.118.118v32.08a1.769,1.769,0,1,0,3.538,0V33.731h20.879a5.789,5.789,0,0,1,5.5,4.01h-5.5A1.769,1.769,0,0,0,101.9,39.51v3.774a5.55,5.55,0,0,0,5.543,5.543h2.005v7.784h-4.626a11.2,11.2,0,0,0-21.177,0h-.852V43.284a1.769,1.769,0,1,0-3.538,0V56.611H42.55a11.2,11.2,0,0,0-21.177,0H11.2a.118.118,0,0,1-.118-.118V52.6h7.666a1.769,1.769,0,1,0,0-3.538H1.769a1.769,1.769,0,0,0,0,3.538H7.548v3.892A3.66,3.66,0,0,0,11.2,60.15h9.556c0,.039,0,.078,0,.118a11.2,11.2,0,0,0,22.409,0c0-.04,0-.079,0-.118h39.87c0,.039,0,.078,0,.118a11.2,11.2,0,0,0,22.409,0c0-.04,0-.079,0-.118h5.782a1.769,1.769,0,0,0,1.769-1.769V39.51a9.331,9.331,0,0,0-7.909-9.211M82.794,11.087H96.122a3.9,3.9,0,0,1,3.892,3.892V15.1H82.794Zm0,19.106V18.635h15.72l2.89,11.558ZM31.962,67.934a7.666,7.666,0,1,1,7.666-7.666,7.675,7.675,0,0,1-7.666,7.666m62.273,0a7.666,7.666,0,1,1,7.666-7.666,7.675,7.675,0,0,1-7.666,7.666m15.214-22.644h-2.005a2.007,2.007,0,0,1-2.005-2.005V41.279h4.01v4.01Z"/><path class="a" d="M131.923,256.535a3.656,3.656,0,1,0,3.656,3.656,3.66,3.66,0,0,0-3.656-3.656" transform="translate(-99.961 -199.923)"/><path class="a" d="M414.111,256.535a3.656,3.656,0,1,0,3.656,3.656,3.66,3.66,0,0,0-3.656-3.656" transform="translate(-319.877 -199.923)"/><path class="a" d="M233.415,222.331H207a1.769,1.769,0,0,0,0,3.538h26.419a1.769,1.769,0,1,0,0-3.538" transform="translate(-159.938 -173.267)"/><path class="a" d="M41.516,188.126H18.871a1.769,1.769,0,1,0,0,3.538H41.516a1.769,1.769,0,0,0,0-3.538" transform="translate(-13.328 -146.611)"/><path class="a" d="M174.809,77.479a1.769,1.769,0,0,0-2.5,0L156.574,93.211l-8.184-8.184a1.769,1.769,0,0,0-2.5,2.5l9.436,9.435a1.769,1.769,0,0,0,2.5,0l16.983-16.983a1.77,1.77,0,0,0,0-2.5" transform="translate(-113.29 -59.977)"/></g></g></g></svg>