<svg xmlns="http://www.w3.org/2000/svg" xmlns:xlink="http://www.w3.org/1999/xlink" width="81.012" height="22.091" viewBox="0 0 81.012 22.091"><defs><style>.a{fill:#cbabfd;}.b{fill:#e4d3fe;}.c{fill:#7a24fb;}.d{filter:url(#a);}</style><filter id="a" x="64.809" y="6.589" width="5.788" height="8.818" filterUnits="userSpaceOnUse"><feOffset dx="-1" input="SourceAlpha"/><feGaussianBlur stdDeviation="0.5" result="b"/><feFlood flood-color="#7a24fb"/><feComposite operator="in" in2="b"/><feComposite in="SourceGraphic"/></filter></defs><g transform="translate(-146.994 -227.886)"><g transform="translate(146.994 227.886)"><g transform="translate(0 0)"><g transform="translate(0 1.571)"><path class="a" d="M9.206,0h62.6c5.084,0,9.206,4.594,9.206,10.26h0c0,5.667-4.122,10.26-9.206,10.26H9.206C4.122,20.521,0,15.927,0,10.26H0C0,4.594,4.122,0,9.206,0Z" transform="translate(0)"/></g><g transform="translate(0)"><rect class="b" width="81.012" height="20.521" rx="10.26"/></g></g></g><g transform="translate(214.303 235.975)"><g class="d" transform="matrix(1, 0, 0, 1, -67.31, -8.09)"><path class="c" d="M1452.848,462.723a.439.439,0,0,1-.3-.124.554.554,0,0,1-.051-.726l1.6-2.058-1.6-2.059a.554.554,0,0,1,.051-.726.436.436,0,0,1,.657.056l1.856,2.394a.557.557,0,0,1,0,.671l-1.856,2.393A.448.448,0,0,1,1452.848,462.723Z" transform="translate(-1385.07 -448.82)"/></g></g></g></svg>