<svg xmlns="http://www.w3.org/2000/svg" xmlns:xlink="http://www.w3.org/1999/xlink" width="800.922" height="943.164" viewBox="0 0 800.922 943.164"><defs><style>.a{fill:none;}.b{clip-path:url(#a);}.c{opacity:0.45;}.c,.h,.n{mix-blend-mode:multiply;isolation:isolate;}.d{clip-path:url(#c);}.e{fill:#66a9b2;}.f{fill:#fff;}.g{fill:#ffa775;}.i{clip-path:url(#d);}.j{fill:#ba5324;}.k{fill:#9fadb7;}.l{fill:#37447f;}.m{fill:#051033;}.n{opacity:0.9;}.o{clip-path:url(#e);}.p{fill:#b5c1e5;}.q{clip-path:url(#f);}.r{fill:#fdd1a8;}.s{fill:#ff9975;}.t{clip-path:url(#g);}.u{fill:#c9231b;}.v{clip-path:url(#h);}.w{fill:#e9f9ff;}.x{clip-path:url(#i);}.y{fill:#838caa;}.z{clip-path:url(#j);}.aa{clip-path:url(#k);}.ab{clip-path:url(#l);}.ac{fill:#d0f1fc;}.ad{clip-path:url(#m);}.ae{clip-path:url(#n);}.af{fill:#fbc900;}.ag{clip-path:url(#o);}.ah{fill:#fdc8a8;}.ai{clip-path:url(#p);}.aj{fill:#d86a48;}.ak{clip-path:url(#q);}.al{clip-path:url(#r);}.am{fill:#69280f;}.an{clip-path:url(#t);}.ao{clip-path:url(#u);}.ap{clip-path:url(#v);}</style><clipPath id="a"><rect class="a" width="800.922" height="943.164"/></clipPath><clipPath id="c"><rect class="a" width="264" height="136.42"/></clipPath><clipPath id="d"><rect class="a" width="50.358" height="21.257"/></clipPath><clipPath id="e"><rect class="a" width="0.1" height="0.119"/></clipPath><clipPath id="f"><rect class="a" width="34.496" height="37.856"/></clipPath><clipPath id="g"><rect class="a" width="88.207" height="108.106"/></clipPath><clipPath id="h"><rect class="a" width="544.184" height="272.775"/></clipPath><clipPath id="i"><rect class="a" width="14.629" height="12.218"/></clipPath><clipPath id="j"><rect class="a" width="28.727" height="19.271"/></clipPath><clipPath id="k"><rect class="a" width="28.727" height="19.268"/></clipPath><clipPath id="l"><rect class="a" width="125.155" height="570.593"/></clipPath><clipPath id="m"><rect class="a" width="65.403" height="121.536"/></clipPath><clipPath id="n"><rect class="a" width="44.539" height="82.765"/></clipPath><clipPath id="o"><rect class="a" width="48.116" height="133.293"/></clipPath><clipPath id="p"><rect class="a" width="118.25" height="215.782"/></clipPath><clipPath id="q"><rect class="a" width="100.957" height="145.451"/></clipPath><clipPath id="r"><rect class="a" width="100.957" height="145.341"/></clipPath><clipPath id="t"><rect class="a" width="39.995" height="26.475"/></clipPath><clipPath id="u"><rect class="a" width="54.505" height="88.217"/></clipPath><clipPath id="v"><rect class="a" width="26.182" height="32.428"/></clipPath></defs><g class="b"><g class="b"><g class="c" transform="translate(493.601 803.2)"><g class="d"><path class="e" d="M253.3,407.077C336.452,463.449,505.107,546.5,505.107,525.4c0-19.164-23.248-.289-49.846-44.1-2.688-4.428-3.384-60.156-6.166-64.815-8.952-15-47.727-28.809-65.079-12.633-19.772,18.425-189.125-36.373-130.715,3.226" transform="translate(-241.107 -392.335)"/></g></g><path class="f" d="M401.114,310.045c-14.036,12.99-23.379,23.257-23.379,23.257-21.5,67.9-37.636,67.415-23.392,132.3l23.709-5.634c4.457-21.916,10.594-33.181,18.2-60.633,2.9-10.463,6.387-24.329,11.288-34.131,13.6-27.2-6.424-55.156-6.424-55.156" transform="translate(365.433 324.688)"/><path class="g" d="M375.073,450.919s11.088,2.111,8.332-12.021c-.663-3.4-8.455-3.071-8.455-3.071l-4.508-16.4s-.274,3.151-7.992,7.423c-3.214,1.779-16.382,1.191-19.836,1.529-25.744,2.518,7.163,16.881,7.163,16.881Z" transform="translate(348.49 439.232)"/><g class="h" transform="translate(681.978 869.005)"><g class="i"><path class="j" d="M374.708,445.625l-25.3-5.661s-23.408-8.9-14.1-15.485a22.81,22.81,0,0,0,15.764,11.505c11.647,2.391,8.076,2.354,19.952,2.956,4.913.25,8.316-3.595,9.194-7.755,1.4.446,2.582,1.183,2.821,2.418,2.755,14.132-8.332,12.021-8.332,12.021" transform="translate(-333.123 -424.479)"/></g></g><path class="f" d="M349.987,372.982c-1.132-8.4,27.118,18.869,27.118,18.869L382,410.54c4.107,31.57-7.329,25.222-7.5,72.155,0,.567-5.648,4.758-10.025,3.857a6.37,6.37,0,0,1-5.153-5.265c-.772-55.255-6.524-87.37-9.341-108.3" transform="translate(366.481 388.914)"/><path class="k" d="M366.563,336.729c6.455,4.393,14.376,7.28,21.707,10.15-1.49,2.59-3.23,5.1-4.661,7.751-3.742,6.942-7.4,13.811-11.575,20.511-3.867,6.205-7.6,12.191-9.237,19.41-1.427,6.307-1.64,12.807-1.74,19.248-.244,15.252-1.785,32.68,3.4,47.332,2.045,5.779,6.459,9.99,9.878,14.935a76.258,76.258,0,0,1,4.713,7.923c-1.806,7.411-3.435,17.5-3.5,34.989,0,.567-5.648,4.758-10.025,3.857a6.364,6.364,0,0,1-5.151-5.263,696.367,696.367,0,0,0-5.437-80.057l-.6.143c-11.622-52.941-3.02-62.371,12.22-100.928" transform="translate(365.433 352.632)"/><path class="l" d="M375.751,253.906c3.142,17.876,3.8,43.686-.221,62.1-2.711,12.4-11.589,19.784-7.964,25.449,9.057,14.157,18.239,5.65,18.239,5.65,5.849-6.473,54.446-105.408,14.417-103.774-4.9.2-25.367,5.462-24.471,10.57" transform="translate(384.028 254.808)"/><path class="l" d="M342.476,264.612c27.363,13.434,56.69,23.426,74.365,39.7,9.481,8.723-1.662,24.235-5.964,22.808-22.045-7.3-32.27-32.363-75.629-49.273-4.833-1.883,3.4-15.113,7.227-13.231" transform="translate(349.532 276.918)"/><path class="m" d="M406.329,306.033a36.759,36.759,0,0,0,1.14-4.023c2.788-12.779,3.317-29.1,2.332-43.872a6.7,6.7,0,0,0,2.667-1.456c4.551,10.582,2.543,51.553-4.919,53.492-2.567.669-3.009-.86-6.113-1.718-10.509-2.907-19.219-10.361-28.344-15.97-5.679-3.493-11.536-8.287-17.973-10.25-5.634-1.722-11.538.5-17.113-.485a6.69,6.69,0,0,0-1.8-7.773c1.327-1.167,2.678-1.761,3.708-1.255,23.592,11.585,48.624,20.618,66.41,33.31" transform="translate(352.089 268.805)"/><g class="n" transform="translate(574.325 662.225)"><g class="o"><path class="p" d="M280.63,323.546l-.092.045v-.068l.1-.049a.481.481,0,0,0-.008.072" transform="translate(-280.538 -323.474)"/></g></g><path class="f" d="M426.192,310.045c-24.063,36.611-82.055,35.124-82.055,35.124-18.7,61.546-17.567,80.978-19.131,138.82l27.416,2.236c8.973-20.849,22.884-36.692,34.219-83.693,2.545-10.557,22.3-18.879,27.2-28.68,13.6-27.2,12.349-63.808,12.349-63.808" transform="translate(340.355 324.688)"/><path class="f" d="M325.006,399.149c0-10.719,26.487-7.7,26.487-7.7s10.494,1.945,31.351,24.348c19.311,20.743,11.037,31.316,45.207,79.877.411.588-2.238,8.981-7.325,11.211a8,8,0,0,1-9.069-1.72c-41.217-56.475-86.651-99.7-86.651-106.02" transform="translate(340.355 409.529)"/><path class="k" d="M344.137,345.168s57.992,1.488,82.055-35.122c0,0,.033.94.031,2.616a6.029,6.029,0,0,0-.768,2.665c-.694,12.359-10.124,21.477-19.791,28.379-22.436,16.011-55.279,7.092-57.615,17.463-17.62,78.3-17.694,110.6-13.268,121.867,3.8,9.659,75.643,96.881,80.421,102.738a58.117,58.117,0,0,0,5.65,5.884c-.043.023-.082.051-.127.07a8,8,0,0,1-9.069-1.718c-41.215-56.475-86.651-99.7-86.651-106.022,1.564-57.842.43-77.275,19.131-138.82" transform="translate(340.355 324.689)"/><path class="l" d="M341.363,415.05s6.875-15.891,7.651-33.931c.551-12.779-8.51-27.13-6.516-39.1,0,0-16.951-17.092-14.623-24.6,4.2-13.557,18.509-38.791,21.34-41.69,8.044-8.234,11.8-10.5,31.986-21.5,18.814-10.25,43.246-10.912,52.243-10.912,17.293,0,21.805,11.37,24.2,14.04,2.342,2.616-23.158,5.286-23.905,19.488-.85,16.155-8.027,37.442-13.192,50.722-11.743,30.184-4.342,36.543,2.874,52.362,1.775,3.888-29.148,53.611-82.055,35.122" transform="translate(343.129 254.807)"/><path class="g" d="M396.233,455.326s7.088-8.787-6.678-13.012c-3.315-1.02-6.69,6.009-6.69,6.009l-16.593-3.748a14.763,14.763,0,0,1,3.716,13.614c-2.981,14.439-8.175,15.027-6.154,17.848,6.85,9.561,15.489-1.063,15.489-1.063Z" transform="translate(380.54 463.097)"/><g class="h" transform="translate(744.102 905.308)"><g class="q"><path class="j" d="M396.14,455.326l-16.91,19.647s-10.39,12.089-15.762-.979c1.941-.1,6.506,7.589,13.5-.829,7.6-9.145,5.417-7.55,11.542-17.739,2.536-4.215.747-9.028-2.508-11.763,1.054-1.028,2.26-1.72,3.46-1.349,13.766,4.225,6.678,13.012,6.678,13.012" transform="translate(-363.468 -442.211)"/></g></g><path class="m" d="M327.874,288.19c.328-1.06.69-2.219,1.069-3.431h2.279V271.223c3.7,2.166,6.965,4.674,8.527,7.358,5.482,9.413,10.566,31.7,14.869,61.343,1.7,11.716-2.305,28.962,9.014,36.854,10.689,7.454,26.921,2.588,37.081-3.579a66.187,66.187,0,0,0,22.4-23.148c.1.217.2.43.3.649,1.775,3.89-29.148,53.613-82.055,35.124,0,0,6.875-15.891,7.651-33.933.551-12.779-8.508-27.13-6.516-39.1,0,0-16.951-17.094-14.623-24.6" transform="translate(343.129 284.032)"/><path class="r" d="M284.158,282.676c-8.7-12.711-17.076-13.946-13.084-24.972.762-2.1,5.452-6.221,8.353-6.594,4.651-.594,12.936,23.25,12.936,23.25,11.037,4.4-3.175,15.665-8.205,8.316" transform="translate(282.803 262.957)"/><path class="l" d="M378.075,259.572c-22.542,25.676-60.238,44.6-76.812,53.457-6.189,3.308,14.259,19.471,14.259,19.471,9.8.571,118.665-24.941,89.05-58.9-3.622-4.16-22.648-18.413-26.5-14.028" transform="translate(314.269 270.963)"/><path class="l" d="M275.332,271.095c22.565,24.2,40.965,47.006,62.694,57.247,11.653,5.493,12.308-17.131,8.361-19.357-17.87-10.076-44.181-27.193-56.317-45.928-2.819-4.352-17.651,4.915-14.738,8.037" transform="translate(287.94 274.284)"/><path class="m" d="M310.83,295.353c12.453,1.492,25.615-1.075,37.268-5.337,7.393-2.706,24.393-11.593,30.244-2.561a6.269,6.269,0,0,0,.438.6c-25.5,11.767-58.643,18.82-63.845,18.515,0,0-10.7-8.461-14.277-14.394a30.08,30.08,0,0,0,10.173,3.173" transform="translate(314.856 296.887)"/><path class="m" d="M297.454,277.73c-.823-.864-1.691-1.724-2.575-2.582a257.5,257.5,0,0,0,26.106,17.365,25.028,25.028,0,0,1-6.1-1.081c-7.083-2.307-12.433-8.467-17.426-13.7" transform="translate(308.805 288.142)"/><path class="m" d="M278.978,263.561c6.125,12.032,16.734,20.276,26.133,29.849,9.337,9.511,18.5,21.125,32.635,22.825a64.106,64.106,0,0,0,10.76.332c-.442,6.486-3.468,13.356-10.48,10.052-21.729-10.24-40.13-33.05-62.694-57.247-1.243-1.331.743-3.777,3.646-5.81" transform="translate(287.94 276.008)"/><path class="r" d="M398.806,272.269c-1.034,8.175-36.338,6.236-39.862,6.873-3.077.559-5.767,1.84-8.136-.127-3.947-3.282-6.993-11.559-9.43-17.7-3.965-10.011-.493-13.131-3.609-19.191-3.54-6.877-2.784-13.123-2.367-19.743.459-7.288,4.524-13.716,8.768-17.794,9.819-9.432,51.611-19.209,65.591,16.683,1.834,4.713,2.786,16.29-.266,26.71s-10.111,19.682-10.691,24.292" transform="translate(350.858 205.075)"/><path class="r" d="M395.728,256.86c2.319,1.151-3.11,8.8-13.483,12.75-12.922,4.922-31.644,5.982-30.8,3.429,4.154-12.64-4.725-25.263-4.725-31.077s36.261-10.631,41.106-10.631c0,0-4.543,19.352,7.906,25.529" transform="translate(363.089 242.256)"/><path class="s" d="M363.013,255.323c.452,2.807,3.579,6.827,1.7,11.37-1.9,4.578-.878,9.683-2.326,14.615-1.441,4.911,1.933,8.819.424,12.377-3.744,8.838,2.446,14.734,4.187,15.072,26.45,5.1,71.407-20.212,74.466-29.791,3.116-9.749-2.631-8.3-7.519-16.689-2.131-3.658-.581-11.3-4.086-16.476-3.229-4.768-10.99-6.928-13.712-13.551-4.3-10.467-1.02-17.035-5.456-22.769-6.168-7.972-17.242-15.01-34.1-15.766-26.383-1.181-44.72,10.484-44.72,34,0,21.535,27.58,5.476,31.153,27.6" transform="translate(347.533 202.779)"/><g class="h" transform="translate(679.393 404.1)"><g class="t"><path class="u" d="M344.523,197.389c-6.306,6.531-9.837,15.823-5.38,24.464,3.585,6.952,10.171,9.657,17.375,11.436,3.712.913,8.224,1.484,10.979,4.434,3.7,3.961,3.994,11.446,4.039,16.433.088,9.507-1.509,19.019-2.717,28.418-.964,7.509.62,15.129,9.1,16.759,7.468,1.435,17.123-1.091,24.516-2.475a96.575,96.575,0,0,0,17.635-4.94c-16.024,8.539-37.679,15.876-53.074,12.908-1.742-.34-7.931-6.234-4.187-15.072,1.507-3.558-1.865-7.466-.424-12.378,1.447-4.932.428-10.038,2.324-14.615,1.884-4.543-1.243-8.564-1.7-11.37-3.572-22.129-31.153-6.07-31.153-27.6,0-11.853,4.666-20.693,12.664-26.4" transform="translate(-331.861 -197.389)"/></g></g><g class="c" transform="translate(0 546.286)"><g class="v"><path class="e" d="M6.2,432.139C38.636,461.251,165.83,563.917,239.149,534.312c34.334-13.864,117.351-23.469,247.8-37.266,25.576-2.7-103.93-22.947-83.353-32.459C487.347,425.873,542.282,391.876,542.282,364c0-43.586,30.381-97.161-151.661-97.161S-42.735,388.222,6.2,432.139" transform="translate(0 -266.842)"/></g></g><path class="f" d="M434.663,606.309c0,22.52-16.716,48.7-37.147,58.17l-257.8,119.552c-20.429,9.473-37.057-1.2-36.95-23.719l2.69-563.817c.106-22.519,16.675-49.185,36.815-59.257L398.042,9.325c20.141-10.074,36.621.111,36.621,22.63Z" transform="translate(107.619 5.693)"/><path class="l" d="M421.277,586.479c0,23.15-16.943,50.558-37.646,60.911L137.531,802.6c-38.768,0-45.264-28.434-45.264-51.584V178.954c0-23.15,16.941-50.562,37.646-60.917L371,5.88c20.706-10.355,48.31-7.292,66.862,11.258Z" transform="translate(96.625 0)"/><path class="m" d="M282.97,69.124C162.06,126.809,151.183,143.08,113.2,127.249a5.675,5.675,0,0,0-.643-.2A80.161,80.161,0,0,0,93.12,161.935c16.849,10.957,13.583,47.449,13.751,70.887.213,30.016,11.454,526.93,8.881,548.28C137,799.816,165.166,436.116,188.576,450.191c32.672,19.645,64.4,40.809,96.932,60.686a8.936,8.936,0,0,1,1.155-.192c46.834-3.443,91.734-16.038,136.661-28.606L436.972,13.613a58.124,58.124,0,0,0-12.658-9.6C417.687.3,404.17,11.3,282.97,69.124" transform="translate(97.518 3.524)"/><path class="l" d="M433.187,604.957c0,23.15-16.945,50.558-37.651,60.913L141.821,792.757c-20.708,10.357-37.646-.115-37.646-23.265V197.436c0-23.15,16.939-50.562,37.646-60.917L395.536,9.629c20.706-10.353,37.651.115,37.651,23.265Z" transform="translate(109.095 5.899)"/><path class="f" d="M413.236,530.284c0,21.289-15.583,46.5-34.625,56.026L145.246,703.019c-19.043,9.524-34.623-.109-34.623-21.4V197.55c0-21.293,15.579-46.509,34.623-56.029L378.611,24.811c19.041-9.524,34.625.106,34.625,21.4Z" transform="translate(115.847 22.134)"/><path class="f" d="M413.236,596.188c0,21.287-15.583,46.5-34.625,56.026L145.246,768.924c-19.043,9.522-34.623-.111-34.623-21.4V190.21c0-21.291,15.579-46.507,34.623-56.026L378.611,17.473c19.041-9.524,34.625.106,34.625,21.4Z" transform="translate(115.847 14.449)"/><path class="w" d="M205.679,440.149l34.975-17.491C211.634,393.642,139.639,327.9,110.622,298.884v35.149c21.209,21.2,73.852,84.911,95.057,106.116" transform="translate(115.846 312.999)"/><path class="m" d="M105.694,174.4a5,5,0,0,1-10,0V131.261a5,5,0,0,1,10,0Z" transform="translate(100.217 132.227)"/><path class="l" d="M101.252,126.3V169.02a7.185,7.185,0,0,1-5.345,7.358,4.994,4.994,0,0,0,9.567-2.012V131.222a4.989,4.989,0,0,0-4.221-4.919" transform="translate(100.436 132.268)"/><path class="w" d="M355.61,491.481l23-11.5L110.622,178.266v61.274C193.285,322.2,272.945,408.817,355.61,491.481" transform="translate(115.846 186.685)"/><path class="w" d="M378.628,350.054V43.218c0-24.62-18.018-35.753-40.034-24.739L144.249,115.671,378.628,350.054" transform="translate(151.061 14.899)"/><g class="h" transform="translate(454.026 78.892)"><g class="x"><path class="y" d="M236.4,40.987a7.458,7.458,0,0,1-3.965,5.947l-6.7,3.351c-2.191,1.1-3.968.207-3.968-1.984a7.46,7.46,0,0,1,3.968-5.947l6.7-3.349c2.191-1.1,3.965-.209,3.965,1.982" transform="translate(-221.777 -38.536)"/></g></g><g class="h" transform="translate(242.334 177.71)"><g class="z"><path class="y" d="M147.1,89.256a7.461,7.461,0,0,1-3.965,5.949l-20.8,10.4c-2.188,1.1-3.963.207-3.963-1.982a7.463,7.463,0,0,1,3.963-5.949l20.8-10.4c2.191-1.1,3.965-.207,3.965,1.982" transform="translate(-118.372 -86.805)"/></g></g><g class="h" transform="translate(473.978 61.863)"><g class="aa"><path class="y" d="M260.249,32.669a7.461,7.461,0,0,1-3.965,5.949l-20.8,10.4c-2.188,1.1-3.963.207-3.963-1.982a7.463,7.463,0,0,1,3.963-5.949l20.8-10.4c2.191-1.1,3.965-.209,3.965,1.982" transform="translate(-231.522 -30.218)"/></g></g><g class="h" transform="translate(311.584 140.174)"><g class="ab"><path class="ac" d="M277.352,314.536c.213,156.05-27.631,300.115-62.191,321.781S152.412,549.044,152.2,393,179.828,92.881,214.389,71.215s62.75,87.273,62.962,243.321" transform="translate(-152.199 -68.47)"/></g></g><g class="h" transform="translate(306.664 601.889)"><g class="ad"><path class="w" d="M215.2,354.77c0,33.562-14.64,60.77-32.7,60.77s-32.7-27.208-32.7-60.77S164.435,294,182.5,294s32.7,27.206,32.7,60.768" transform="translate(-149.795 -294.002)"/></g></g><g class="h" transform="translate(317.095 621.274)"><g class="ae"><path class="ac" d="M199.429,344.854c0,22.855-9.97,41.383-22.27,41.383s-22.27-18.527-22.27-41.383,9.97-41.383,22.27-41.383,22.27,18.527,22.27,41.383" transform="translate(-154.89 -303.471)"/></g></g><path class="l" d="M210.948,363.853s-5.046,13.493-4.508,21.209,4.51,10.47,4.51,10.47,58.719,8.189,59.853-.076-39.094-26.2-39.094-26.2Z" transform="translate(216.147 381.037)"/><path class="af" d="M232.105,150.517l11.444,11.909s32.684,102.965,32.137,111.818-11.939,11.051-19.094,8.676-29.015-66-29.015-66Z" transform="translate(238.325 157.626)"/><g class="h" transform="translate(465.902 308.142)"><g class="ag"><path class="af" d="M232.105,150.517l11.444,11.909s32.684,102.965,32.137,111.818-11.939,11.051-19.094,8.676-29.015-66-29.015-66Z" transform="translate(-227.577 -150.517)"/></g></g><path class="ah" d="M209.79,359.364l-1.062,28.4s-.328,6.742,8.789,6.827a11.98,11.98,0,0,0,11.628-7.956l4.8-42.511Z" transform="translate(218.584 360.372)"/><path class="l" d="M171.274,430.818c24.051-11.274,38.75-22.81,38.75-22.81s2.647-100.945.19-108.44-6.193-48.56-6.193-48.56l89.669-37.043,17.573,5.835s-2.895,94.449-.194,108.444S287.505,477.7,287.505,477.7s-1.257,23.209-7.307,34.033c-2.432,4.356-8.654,5.808-12.242,5.417-10.985-1.2-11.651-4.643-11.651-4.643s9.565-118.559,9.317-125.055-4.719-38.875-4.719-38.875A283.383,283.383,0,0,0,249.015,401.9c-3,26.082-14.869,37.352-79.59,57.032,0,0-6.432-3.753-6.432-14.722s8.281-13.389,8.281-13.389" transform="translate(170.691 224.07)"/><path class="s" d="M223.9,158.562s35.519-12.965,50.4-9.845,20.173,12.764,21.59,17.631-1.23,198.612-1.23,198.612-117.812,47.758-113.447,17.831c3.816-26.127,3.2-69.372,3.626-74.779a65.89,65.89,0,0,0,.221-9.825l-7.5-105.168Z" transform="translate(185.948 155.233)"/><g class="h" transform="translate(363.51 336.529)"><g class="ai"><path class="aj" d="M287.744,228.858l-73.979,17.758L195.2,168.365l-1.877-3.982L177.562,176.1l7.878,110.548c.02.27-.981,16.032-.981,22.214,0,2.393,25.4,1.23,23.742,12.251-1.063,7.094,35.566,24.933,61.165,36.422l26.444,22.626Z" transform="translate(-177.562 -164.383)"/></g></g><path class="af" d="M298.706,167.381l-100.957,58.4,100.957,58.065L399.663,225.67Z" transform="translate(207.088 175.286)"/><path class="f" d="M239.284,178.454l-22.358,13.106,100.959,58.063,22.356-12.881Z" transform="translate(227.171 186.882)"/><path class="af" d="M348.02,282.906,247.063,341.3V254.029L348.02,195.853Z" transform="translate(258.732 205.103)"/><g class="h" transform="translate(505.794 400.956)"><g class="ak"><path class="af" d="M348.02,282.906,247.063,341.3V254.029L348.02,195.853Z" transform="translate(-247.063 -195.853)"/></g></g><path class="k" d="M288.6,229.325l-22.358,13.106V219.808L288.6,206.927Z" transform="translate(278.814 216.699)"/><path class="af" d="M197.749,282.96l100.957,58.289V253.972L197.749,195.908Z" transform="translate(207.088 205.16)"/><g class="h" transform="translate(404.837 401.066)"><g class="al"><path class="af" d="M197.749,282.96l100.957,58.289V253.972L197.749,195.908Z" transform="translate(-197.749 -195.906)"/></g></g><g class="h" transform="translate(404.837 401.066)"><g class="al"><path class="af" d="M197.749,282.96l100.957,58.289V253.972L197.749,195.908Z" transform="translate(-197.749 -195.906)"/></g></g><path class="am" d="M231.948,237.7a8.736,8.736,0,0,0,3.927,6.813l9.168,5.317c2.158,1.251,3.924.233,3.924-2.264V236.9a8.7,8.7,0,0,0-3.933-6.8l-9.151-5.259c-2.164-1.245-3.935-.219-3.935,2.276Z" transform="translate(242.902 234.909)"/><path class="am" d="M221,231.336a8.736,8.736,0,0,0,3.927,6.813l9.167,5.317c2.158,1.251,3.925.233,3.925-2.262V230.541a8.7,8.7,0,0,0-3.933-6.8l-9.151-5.259c-2.164-1.245-3.935-.221-3.935,2.274Z" transform="translate(231.441 228.249)"/><path class="s" d="M228.095,222s18.085-65.366,9.344-68.723c0,0-49.4,18.579-55.027,32.328s-3.845,25.687-8.576,46.783c0,0-11.186,45.338-8.9,56.937s1.476,12.443,43.237,25.781a585.912,585.912,0,0,0,59.587,15.211l.34-12.089-54.749-34.555L224.195,239.3Z" transform="translate(172.404 160.517)"/><path class="ah" d="M243.3,245.941c-2.387,6.916-33.624,1.943-31.239-4.973s11.02-8.14,18.329-7.839c11.3.465,15.295,5.9,12.91,12.812" transform="translate(221.94 244.096)"/><path class="ah" d="M196.522,192.207c-.158,6.924,8.216,10.717,19.643,10.891,0,0,22.069-.843,21.713-10.169l-.6-52.36c.154-6.907-7.1-12.621-18.529-12.822-11.409-.2-17.082,5.337-17.256,12.283Z" transform="translate(205.801 133.775)"/><g class="h" transform="translate(404.112 293.341)"><g class="an"><path class="ah" d="M236.82,151.6l-38.668-8.312-.757,8.43c8.324,7.4,21.658,17.008,25.957,17.94,3.968.872,13.86-3.91,14.038-6.2Z" transform="translate(-197.395 -143.287)"/></g></g><path class="ah" d="M219.493,125.361l4.266-2.311c3.544-1.886,6.653-.035,7.372,4.135,1.226,7.147-4.69,8.074-4.072,13.694l-9.266-.543Z" transform="translate(228.08 128.088)"/><path class="ah" d="M199.321,132.023l-4.8-.751c-3.974-.583-6.271,2.2-5.558,6.377,1.245,7.141,6.823,5.781,8.813,11.915l8.168-4.011Z" transform="translate(197.751 137.39)"/><path class="ah" d="M254.487,171.5c-2.44,10.156-9.743,24.849-16.55,26.876-7.634,2.246-31.808-7.251-35.91-13.727-11.321-17.889-21.68-67.694,15.268-72.157,9.853-1.181,26.276-8.148,33.052,9.579,4.305,11.28,6.881,37.98,4.139,49.428" transform="translate(200.557 115.359)"/><g class="h" transform="translate(401.668 225.516)"><g class="ao"><path class="ah" d="M249.576,171.5c2.741-11.448.166-38.148-4.139-49.428-6.776-17.727-23.2-10.76-33.052-9.579-6.834.827-12.138,2.991-16.183,6.078a8.253,8.253,0,0,1,1.087.557A70.794,70.794,0,0,1,214.64,134.29c.379.467,1.607-1.574,1.8-1.1,2.412,1.462,9.092,3.855,11.409,4,3.45.215,16.216-4.709,18.087.839,3.837,11.374,4.608,21.649,2.745,30.491-4.772,22.657-15.659,29.857-15.659,29.857,6.807-2.027,14.109-16.72,16.55-26.876" transform="translate(-196.201 -110.157)"/></g></g><path class="l" d="M224.318,105.957c2.442-3.4-.481,14.259,6.772,8.4,3.251-2.627,11.634-1,16.615,6.635l-33.763,11.477c-2.16.182-4.326.371-6.482.628-5.081.6-9.131,5.345-9.384,10.963-2.991-1.29-5.992-2.555-8.957-4.078-1.009-30.815,26.817-22.366,35.2-34.027" transform="translate(198.023 110.502)"/><path class="l" d="M228.157,106.857c1.49,3.755-1.462,9.188-6.588,12.138s-14.72-1.339-16.222-5.1c-1.484-3.755,4.854-.911,9.794-6.455,4.08-4.582,11.516-4.342,13.016-.588" transform="translate(214.814 108.936)"/><path class="l" d="M217.871,125.436c8.347-1.214,10.965,15.7,10.965,15.7,2.32-.512,1.845-13.166-1.718-22.947-2.234-6.123-15.278,8.121-9.247,7.247" transform="translate(226.508 122.164)"/><path class="l" d="M217.871,125.436c8.347-1.214,10.965,15.7,10.965,15.7,2.32-.512,1.845-13.166-1.718-22.947-2.234-6.123-15.278,8.121-9.247,7.247" transform="translate(226.508 122.164)"/><path class="l" d="M254.555,120.537c1.4,5.579.309,12-8.433,16.292-15.69,7.712-20.378-2.864-42.408,4.483-1.888.633,1.906,5.091-3.806,10.912-5.833,5.939-3.075,16.466-3.075,16.466-3.265.276-6.432-23.668-7.055-26.137-3.005-11.954,9.057-26.573,26.937-32.645s34.825-1.323,37.839,10.629" transform="translate(198.261 112.327)"/><path class="l" d="M196.469,163.551c0-.027-3.767-18.968-3.8-24.489-.051-7.775.033-13.2,6.883-17.913,3.317-2.283,13.592-4.217,17.436-5.083,4.862-1.093,7.519-3.74,10.8-7.239a15.425,15.425,0,0,1-2.082.688c-.283-2.7-.366-4.983-1.39-3.556-8.381,11.661-36.207,3.212-35.2,34.027.154.08.311.151.469.231a15.438,15.438,0,0,0,.43,4.162c.62,2.469,3.787,26.413,7.053,26.135a56.774,56.774,0,0,1-.6-6.963" transform="translate(198.023 110.503)"/><path class="s" d="M187.623,121.707c6.918,5.693,26.057,12.375,47.872,12.375s39.5-3.9,39.5-8.713-17.686-8.715-39.5-8.715-51.588,1.994-47.872,5.053" transform="translate(196.152 122.163)"/><path class="s" d="M187.461,137.9c1.331-20.5,17.436-36.711,37.157-36.711S260.443,117.4,261.775,137.9Z" transform="translate(196.314 105.969)"/><g class="h" transform="translate(431.22 208.69)"><g class="ap"><path class="aj" d="M226.049,134.365c.383-.053,9.577-2.24,10.77-2.293-2.743-14.478-12.926-26.1-26.182-30.133,7.591,3.314,16.578,15.532,15.412,32.426" transform="translate(-210.635 -101.937)"/></g></g></g></g></svg>