<svg xmlns="http://www.w3.org/2000/svg" xmlns:xlink="http://www.w3.org/1999/xlink" width="99.012" height="38.521" viewBox="0 0 99.012 38.521"><defs><style>.a{fill:#a4daf8;}.b{fill:#d1eefe;}.c{fill:#1caafc;}.d{filter:url(#c);}.e{filter:url(#a);}</style><filter id="a" x="0" y="0" width="99.012" height="38.521" filterUnits="userSpaceOnUse"><feOffset dy="3" input="SourceAlpha"/><feGaussianBlur stdDeviation="3" result="b"/><feFlood flood-opacity="0.161"/><feComposite operator="in" in2="b"/><feComposite in="SourceGraphic"/></filter><filter id="c" x="73.637" y="12.589" width="5.788" height="8.818" filterUnits="userSpaceOnUse"><feOffset dx="-1" input="SourceAlpha"/><feGaussianBlur stdDeviation="0.5" result="d"/><feFlood flood-color="#1caafc" flood-opacity="0.502"/><feComposite operator="in" in2="d"/><feComposite in="SourceGraphic"/></filter></defs><g transform="translate(-25.994 -221.886)"><g transform="translate(34.994 227.886)"><g transform="translate(0 0)"><g transform="translate(0 1.571)"><path class="a" d="M9.206,0h62.6c5.084,0,9.206,4.594,9.206,10.26h0c0,5.667-4.122,10.26-9.206,10.26H9.206C4.122,20.521,0,15.927,0,10.26H0C0,4.594,4.122,0,9.206,0Z" transform="translate(0)"/></g><g transform="translate(0)"><g class="e" transform="matrix(1, 0, 0, 1, -9, -6)"><rect class="b" width="81.012" height="20.521" rx="10.26" transform="translate(9 6)"/></g></g></g></g><g transform="translate(102.131 235.975)"><g class="d" transform="matrix(1, 0, 0, 1, -76.14, -14.09)"><path class="c" d="M1452.848,462.723a.439.439,0,0,1-.3-.124.554.554,0,0,1-.051-.726l1.6-2.058-1.6-2.059a.554.554,0,0,1,.051-.726.436.436,0,0,1,.657.056l1.856,2.394a.557.557,0,0,1,0,.671l-1.856,2.393A.448.448,0,0,1,1452.848,462.723Z" transform="translate(-1376.25 -442.82)"/></g></g></g></svg>