<svg xmlns="http://www.w3.org/2000/svg" xmlns:xlink="http://www.w3.org/1999/xlink" width="105" height="50" viewBox="0 0 105 50"><defs><style>.a{fill:#fec22d;opacity:0.1;}.b{fill:#fff;opacity:0.38;}.c{fill:#fef2d5;stroke:#fec22d;stroke-linecap:round;stroke-linejoin:round;stroke-width:0.2px;}.d{filter:url(#i);}.e{filter:url(#g);}.f{filter:url(#e);}.g{filter:url(#c);}.h{filter:url(#a);}</style><filter id="a" x="0" y="0" width="105" height="50" filterUnits="userSpaceOnUse"><feOffset dy="1" input="SourceAlpha"/><feGaussianBlur stdDeviation="5" result="b"/><feFlood flood-color="#d1eefe"/><feComposite operator="in" in2="b"/><feComposite in="SourceGraphic"/></filter><filter id="c" x="66.5" y="12.5" width="23.5" height="23" filterUnits="userSpaceOnUse"><feOffset dx="-2" input="SourceAlpha"/><feGaussianBlur stdDeviation="0.5" result="d"/><feFlood flood-color="#fec22d"/><feComposite operator="in" in2="d"/><feComposite in="SourceGraphic"/></filter><filter id="e" x="73.729" y="15.4" width="9.131" height="17.56" filterUnits="userSpaceOnUse"><feOffset dx="-1" input="SourceAlpha"/><feGaussianBlur stdDeviation="0.5" result="f"/><feFlood flood-color="#fec22d"/><feComposite operator="in" in2="f"/><feComposite in="SourceGraphic"/></filter><filter id="g" x="76.102" y="15.4" width="8.606" height="17.56" filterUnits="userSpaceOnUse"><feOffset dx="-1" input="SourceAlpha"/><feGaussianBlur stdDeviation="0.5" result="h"/><feFlood flood-color="#fec22d"/><feComposite operator="in" in2="h"/><feComposite in="SourceGraphic"/></filter><filter id="i" x="77.949" y="15.4" width="9.131" height="17.56" filterUnits="userSpaceOnUse"><feOffset dx="-1" input="SourceAlpha"/><feGaussianBlur stdDeviation="0.5" result="j"/><feFlood flood-color="#fec22d"/><feComposite operator="in" in2="j"/><feComposite in="SourceGraphic"/></filter></defs><g transform="translate(-1215 -439.589)"><g class="h" transform="matrix(1, 0, 0, 1, 1215, 439.59)"><rect class="a" width="75" height="20" rx="10" transform="translate(15 14)"/></g><g class="g" transform="matrix(1, 0, 0, 1, 1215, 439.59)"><circle class="b" cx="10" cy="10" r="10" transform="translate(70 14)"/></g><g transform="translate(1291.329 456.589)"><g class="f" transform="matrix(1, 0, 0, 1, -76.33, -17)"><path class="c" d="M266.383,238.364a.113.113,0,0,1,0,.091l-5.431,7.134h.484l5.436-7.134a.113.113,0,0,0,0-.091l-5.436-7.134h-.484Z" transform="translate(-184.62 -214.23)"/></g><g class="e" transform="matrix(1, 0, 0, 1, -76.33, -17)"><path class="c" d="M265.9,238.364a.123.123,0,0,1,0,.091l-4.951,7.134h.441l4.955-7.134a.123.123,0,0,0,0-.091l-4.955-7.134h-.441Z" transform="translate(-182.25 -214.23)"/></g><g class="d" transform="matrix(1, 0, 0, 1, -76.33, -17)"><path class="c" d="M266.383,238.364a.113.113,0,0,1,0,.091l-5.431,7.134h.484l5.436-7.134a.113.113,0,0,0,0-.091l-5.436-7.134h-.484Z" transform="translate(-180.4 -214.23)"/></g></g></g></svg>