<svg xmlns="http://www.w3.org/2000/svg" xmlns:xlink="http://www.w3.org/1999/xlink" width="105" height="50" viewBox="0 0 105 50"><defs><style>.a{fill:#7a24fb;opacity:0.1;}.b{fill:#fff;opacity:0.38;}.c{fill:#e4d3fe;stroke:#5b45f5;stroke-linecap:round;stroke-linejoin:round;stroke-width:0.2px;}.d{filter:url(#i);}.e{filter:url(#g);}.f{filter:url(#e);}.g{filter:url(#c);}.h{filter:url(#a);}</style><filter id="a" x="0" y="0" width="105" height="50" filterUnits="userSpaceOnUse"><feOffset dy="1" input="SourceAlpha"/><feGaussianBlur stdDeviation="5" result="b"/><feFlood flood-color="#d1eefe"/><feComposite operator="in" in2="b"/><feComposite in="SourceGraphic"/></filter><filter id="c" x="66.5" y="12.5" width="23.5" height="23" filterUnits="userSpaceOnUse"><feOffset dx="-2" input="SourceAlpha"/><feGaussianBlur stdDeviation="0.5" result="d"/><feFlood flood-color="#7a24fb"/><feComposite operator="in" in2="d"/><feComposite in="SourceGraphic"/></filter><filter id="e" x="73.116" y="15.22" width="9.144" height="17.56" filterUnits="userSpaceOnUse"><feOffset dx="-1" input="SourceAlpha"/><feGaussianBlur stdDeviation="0.5" result="f"/><feFlood flood-color="#7a25fb"/><feComposite operator="in" in2="f"/><feComposite in="SourceGraphic"/></filter><filter id="g" x="75.494" y="15.22" width="8.594" height="17.56" filterUnits="userSpaceOnUse"><feOffset dx="-1" input="SourceAlpha"/><feGaussianBlur stdDeviation="0.5" result="h"/><feFlood flood-color="#7a25fb"/><feComposite operator="in" in2="h"/><feComposite in="SourceGraphic"/></filter><filter id="i" x="77.322" y="15.22" width="9.144" height="17.56" filterUnits="userSpaceOnUse"><feOffset dx="-1" input="SourceAlpha"/><feGaussianBlur stdDeviation="0.5" result="j"/><feFlood flood-color="#7a25fb"/><feComposite operator="in" in2="j"/><feComposite in="SourceGraphic"/></filter></defs><g transform="translate(-986.753 -440.411)"><g class="h" transform="matrix(1, 0, 0, 1, 986.75, 440.41)"><rect class="a" width="75" height="20" rx="10" transform="translate(15 14)"/></g><g class="g" transform="matrix(1, 0, 0, 1, 986.75, 440.41)"><circle class="b" cx="10" cy="10" r="10" transform="translate(70 14)"/></g><g transform="translate(1062.468 457.231)"><g class="f" transform="matrix(1, 0, 0, 1, -75.72, -16.82)"><path class="c" d="M266.4,238.364a.113.113,0,0,1,0,.091l-5.444,7.134h.485l5.449-7.134a.113.113,0,0,0,0-.091l-5.449-7.134h-.485Z" transform="translate(-185.24 -214.41)"/></g><g class="e" transform="matrix(1, 0, 0, 1, -75.72, -16.82)"><path class="c" d="M265.892,238.364a.123.123,0,0,1,0,.091l-4.941,7.134h.44l4.945-7.134a.124.124,0,0,0,0-.091l-4.945-7.134h-.44Z" transform="translate(-182.86 -214.41)"/></g><g class="d" transform="matrix(1, 0, 0, 1, -75.72, -16.82)"><path class="c" d="M266.4,238.364a.113.113,0,0,1,0,.091l-5.444,7.134h.485l5.449-7.134a.113.113,0,0,0,0-.091l-5.449-7.134h-.485Z" transform="translate(-181.03 -214.41)"/></g></g></g></svg>