<svg xmlns="http://www.w3.org/2000/svg" xmlns:xlink="http://www.w3.org/1999/xlink" width="105" height="50" viewBox="0 0 105 50"><defs><style>.a{fill:#1caafc;opacity:0.1;}.b{fill:#fff;opacity:0.38;}.c{fill:#d1eefe;stroke:#1caafc;stroke-linecap:round;stroke-linejoin:round;stroke-width:0.2px;}.d{filter:url(#i);}.e{filter:url(#g);}.f{filter:url(#e);}.g{filter:url(#c);}.h{filter:url(#a);}</style><filter id="a" x="0" y="0" width="105" height="50" filterUnits="userSpaceOnUse"><feOffset dy="1" input="SourceAlpha"/><feGaussianBlur stdDeviation="5" result="b"/><feFlood flood-color="#d1eefe"/><feComposite operator="in" in2="b"/><feComposite in="SourceGraphic"/></filter><filter id="c" x="67.5" y="12.5" width="22.5" height="23" filterUnits="userSpaceOnUse"><feOffset dx="-2" input="SourceAlpha"/><feGaussianBlur stdDeviation="0.5" result="d"/><feFlood flood-color="#9fc9e2"/><feComposite operator="in" in2="d"/><feComposite in="SourceGraphic"/></filter><filter id="e" x="73.939" y="15.218" width="8.837" height="17.564" filterUnits="userSpaceOnUse"><feOffset dx="-1" input="SourceAlpha"/><feGaussianBlur stdDeviation="0.5" result="f"/><feFlood flood-color="#1ca7f9" flood-opacity="0.349"/><feComposite operator="in" in2="f"/><feComposite in="SourceGraphic"/></filter><filter id="g" x="76.194" y="15.218" width="8.837" height="17.564" filterUnits="userSpaceOnUse"><feOffset dx="-1" input="SourceAlpha"/><feGaussianBlur stdDeviation="0.5" result="h"/><feFlood flood-color="#1ca7f9" flood-opacity="0.349"/><feComposite operator="in" in2="h"/><feComposite in="SourceGraphic"/></filter><filter id="i" x="78.449" y="15.218" width="8.837" height="17.564" filterUnits="userSpaceOnUse"><feOffset dx="-1" input="SourceAlpha"/><feGaussianBlur stdDeviation="0.5" result="j"/><feFlood flood-color="#1ca7f9" flood-opacity="0.349"/><feComposite operator="in" in2="j"/><feComposite in="SourceGraphic"/></filter></defs><g transform="translate(15.15 14.496)"><g class="h" transform="matrix(1, 0, 0, 1, -15.15, -14.5)"><rect class="a" width="75" height="20" rx="10" transform="translate(15 14)"/></g><g class="g" transform="matrix(1, 0, 0, 1, -15.15, -14.5)"><ellipse class="b" cx="9.5" cy="10" rx="9.5" ry="10" transform="translate(71 14)"/></g><g transform="translate(61.389 2.322)"><g class="f" transform="matrix(1, 0, 0, 1, -76.54, -16.82)"><path class="c" d="M266.114,238.367a.118.118,0,0,1,0,.091l-5.162,7.137h.46l5.167-7.137a.119.119,0,0,0,0-.091l-5.167-7.137h-.46Z" transform="translate(-184.41 -214.41)"/></g><g class="e" transform="matrix(1, 0, 0, 1, -76.54, -16.82)"><path class="c" d="M266.114,238.367a.118.118,0,0,1,0,.091l-5.162,7.137h.46l5.167-7.137a.119.119,0,0,0,0-.091l-5.167-7.137h-.46Z" transform="translate(-182.16 -214.41)"/></g><g class="d" transform="matrix(1, 0, 0, 1, -76.54, -16.82)"><path class="c" d="M266.114,238.367a.118.118,0,0,1,0,.091l-5.162,7.137h.46l5.167-7.137a.119.119,0,0,0,0-.091l-5.167-7.137h-.46Z" transform="translate(-179.9 -214.41)"/></g></g></g></svg>