<svg xmlns="http://www.w3.org/2000/svg" xmlns:xlink="http://www.w3.org/1999/xlink" width="1200" height="628" viewBox="0 0 1200 628"><defs><style>.a{fill:#efefef;}.b{fill:none;}.c{clip-path:url(#a);}.d{opacity:0.057;}.e{opacity:0.98;}.f{opacity:0.395;}.g{opacity:0.053;}.h{fill:url(#b);}.i{fill:url(#c);}.j{fill:url(#d);}.k{fill:url(#e);}.l{fill:url(#g);}.m{fill:url(#h);}.cc,.n{fill:#161e3f;}.o{fill:#707998;}.p{fill:#2e385b;}.q{fill:url(#i);}.r{fill:#0f121e;}.s{fill:url(#j);}.t{fill:url(#k);}.u{fill:url(#l);}.v{fill:url(#m);}.w{fill:url(#p);}.x{fill:url(#q);}.y{fill:url(#r);}.z{fill:#eac25c;}.aa{fill:url(#s);}.ab{fill:url(#t);}.ac{fill:url(#u);}.ad{fill:#fffbf3;}.ae{fill:url(#v);}.af{fill:url(#w);}.ag{fill:url(#x);}.ah{fill:url(#y);}.ai{fill:url(#z);}.aj{fill:url(#aa);}.ak{fill:#222323;}.al{fill:#e8e8e8;}.am,.ap,.ar{opacity:0.55;}.am{fill:url(#ab);}.an{fill:#e5e5e5;}.ao{fill:url(#ac);}.ap{fill:url(#ad);}.aq{fill:url(#ae);}.ar{fill:url(#af);}.as,.ax{fill:#fff;}.at{fill:url(#ag);}.au{fill:url(#ah);}.av{fill:url(#ai);}.aw{fill:url(#aj);}.ax{opacity:0.5;}.ay{fill:url(#ak);}.az{fill:#fc561f;}.ba{fill:url(#al);}.bb{fill:url(#am);}.bc{fill:url(#an);}.bd{fill:url(#ao);}.be{fill:url(#ap);}.bf{fill:url(#aq);}.bg{fill:url(#ar);}.bh{fill:url(#as);}.bi{fill:url(#at);}.bj{fill:url(#au);}.bk{fill:#fd6420;}.bl{fill:#f72163;}.bm{fill:url(#av);}.bn{fill:url(#aw);}.bo{fill:#7a24fb;}.bp{fill:url(#ax);}.bq{fill:url(#ay);}.br{fill:#3e1181;}.bs{fill:url(#az);}.bt{fill:url(#ba);}.bu{fill:url(#bb);}.bv{fill:#0af;}.bw{fill:url(#bc);}.bx{fill:url(#bd);}.by{fill:url(#be);}.bz{fill:url(#bf);}.ca{fill:url(#bg);}.cb{fill:url(#bh);}.cc{font-size:50px;font-family:MarkGEOCAPS-Bold, Mark GEO CAPS;font-weight:700;}.cd{fill:#7a1dff;}.ce{fill:#fd5601;}.cf{fill:#ffc208;}.cg{clip-path:url(#bi);}.ch{fill:#9de411;}.ci{fill:#e0af49;}.cj{fill:#c7823e;}.ck{fill:#e4bb56;}.cl{fill:#f0f2f7;}.cm{fill:#a1bfa5;}.cn{fill:#fcfcfc;}.co{fill:#cadbcb;}.cp{fill:#eefdfa;}.cq{fill:#a173f9;}.cr{fill:#ba90fc;}.cs{fill:#f49272;}.ct{fill:#fdc2ae;}.cu{fill:#5abdf7;}.cv{fill:#1caafc;}.cw{fill:#90d1f7;}.cx{fill:#f46095;}.cy{fill:#f789b0;}.cz{fill:#cdf46e;}.da{fill:#e4f7a9;}.db{fill:#f8d16f;}.dc{fill:#fec22d;}.dd{fill:#fde5a9;}.de{filter:url(#cf);}.df{filter:url(#cd);}.dg{filter:url(#cb);}.dh{filter:url(#bz);}.di{filter:url(#bx);}.dj{filter:url(#bv);}.dk{filter:url(#bt);}.dl{filter:url(#br);}.dm{filter:url(#bp);}.dn{filter:url(#bn);}.do{filter:url(#bl);}.dp{filter:url(#bj);}</style><clipPath id="a"><rect class="a" width="1200" height="628"/></clipPath><linearGradient id="b" x1="33.308" y1="0.5" x2="34.308" y2="0.5" gradientUnits="objectBoundingBox"><stop offset="0" stop-color="gray"/><stop offset="0.639" stop-color="#51514c"/><stop offset="1" stop-color="#3c3c35"/></linearGradient><linearGradient id="c" x1="54.22" y1="0.5" x2="55.22" y2="0.5" gradientUnits="objectBoundingBox"><stop offset="0.003" stop-color="#fff"/><stop offset="0.367" stop-color="#f2f2ff"/><stop offset="1" stop-color="#d2d2ff"/></linearGradient><linearGradient id="d" x1="33.308" y1="0.5" x2="34.308" y2="0.5" gradientUnits="objectBoundingBox"><stop offset="0" stop-color="#595b68"/><stop offset="0.538" stop-color="#37404d"/><stop offset="1" stop-color="#202d3b"/></linearGradient><linearGradient id="e" x1="54.22" y1="0.5" x2="55.22" y2="0.5" gradientUnits="objectBoundingBox"><stop offset="0" stop-color="#fff"/><stop offset="0.559" stop-color="#dae6f8"/><stop offset="1" stop-color="#c3d6f5"/></linearGradient><linearGradient id="g" x1="54.22" y1="0.5" x2="55.22" y2="0.5" xlink:href="#e"/><linearGradient id="h" x1="26.053" y1="0.5" x2="27.053" y2="0.5" xlink:href="#d"/><linearGradient id="i" x1="34.817" y1="0.5" x2="35.817" y2="0.5" xlink:href="#c"/><linearGradient id="j" x1="112.515" y1="0.5" x2="113.515" y2="0.5" gradientUnits="objectBoundingBox"><stop offset="0" stop-color="#dbbafd"/><stop offset="0.108" stop-color="#cfaefc"/><stop offset="0.713" stop-color="#9370fc"/><stop offset="1" stop-color="#7c59fc"/></linearGradient><linearGradient id="k" x1="79.546" y1="0.5" x2="80.546" y2="0.5" xlink:href="#c"/><linearGradient id="l" x1="112.814" y1="0.5" x2="113.814" y2="0.5" xlink:href="#j"/><linearGradient id="m" x1="118.767" y1="0.5" x2="119.767" y2="0.5" xlink:href="#j"/><linearGradient id="p" x1="21408.58" y1="0.5" x2="21409.58" y2="0.5" gradientUnits="objectBoundingBox"><stop offset="0" stop-color="#be73de"/><stop offset="1" stop-color="#514eb7"/></linearGradient><linearGradient id="q" x1="14255.416" y1="0.5" x2="14256.416" y2="0.5" xlink:href="#p"/><linearGradient id="r" x1="26.987" y1="0.5" x2="27.987" y2="0.5" xlink:href="#d"/><linearGradient id="s" x1="310.747" y1="-18.619" x2="311.747" y2="-18.619" gradientUnits="objectBoundingBox"><stop offset="0" stop-color="#b88561"/><stop offset="1" stop-color="#ddb192"/></linearGradient><linearGradient id="t" x1="310.735" y1="-25.296" x2="311.735" y2="-25.296" xlink:href="#s"/><linearGradient id="u" x1="334.058" y1="-44.044" x2="334.058" y2="-41.818" xlink:href="#s"/><linearGradient id="v" x1="-217.982" y1="-53.37" x2="-217.982" y2="-51.519" xlink:href="#c"/><linearGradient id="w" x1="-442.673" y1="0.5" x2="-441.673" y2="0.5" gradientUnits="objectBoundingBox"><stop offset="0" stop-color="#ffd571"/><stop offset="0.251" stop-color="#ffbc60"/><stop offset="0.778" stop-color="#ff7f34"/><stop offset="1" stop-color="#ff6421"/></linearGradient><linearGradient id="x" x1="334.07" y1="-46.282" x2="334.07" y2="-44.056" xlink:href="#c"/><linearGradient id="y" x1="334.06" y1="-44.516" x2="334.06" y2="-42.29" xlink:href="#c"/><linearGradient id="z" x1="334.081" y1="-48.261" x2="334.081" y2="-46.035" xlink:href="#c"/><linearGradient id="aa" x1="351.534" y1="-66.954" x2="351.534" y2="-64.728" xlink:href="#c"/><linearGradient id="ab" x1="-71.621" y1="0.5" x2="-70.621" y2="0.5" gradientUnits="objectBoundingBox"><stop offset="0" stop-color="#78bfff"/><stop offset="1" stop-color="#f9f9f9"/></linearGradient><linearGradient id="ac" x1="-47.19" y1="0.995" x2="-47.179" y2="-0.011" gradientUnits="objectBoundingBox"><stop offset="0" stop-color="#b1ff8d"/><stop offset="0.371" stop-color="#aaff7c"/><stop offset="1" stop-color="#a1ff64"/></linearGradient><linearGradient id="ad" x1="-105.022" x2="-104.022" xlink:href="#ab"/><linearGradient id="ae" x1="-23.756" y1="0.5" x2="-22.756" y2="0.5" gradientUnits="objectBoundingBox"><stop offset="0" stop-color="#99e2ff"/><stop offset="1" stop-color="#61c2f2"/></linearGradient><linearGradient id="af" x1="-10.915" x2="-9.915" xlink:href="#ab"/><linearGradient id="ag" x1="-211.729" y1="0.5" x2="-210.729" y2="0.5" gradientUnits="objectBoundingBox"><stop offset="0" stop-color="#f7f7f7"/><stop offset="1" stop-color="#fff"/></linearGradient><linearGradient id="ah" x1="-513.744" y1="0.5" x2="-512.744" y2="0.5" xlink:href="#ag"/><linearGradient id="ai" x1="-723.442" y1="0.5" x2="-722.442" y2="0.5" xlink:href="#ag"/><linearGradient id="aj" x1="-28.636" y1="0.5" x2="-27.636" y2="0.5" xlink:href="#ae"/><linearGradient id="ak" x1="-592.729" y1="0.5" x2="-555.304" y2="0.5" xlink:href="#w"/><linearGradient id="al" x1="-631.31" y1="0.5" x2="-593.761" y2="0.5" xlink:href="#w"/><linearGradient id="am" x1="-849.5" y1="0.5" x2="-798.674" y2="0.5" xlink:href="#w"/><linearGradient id="an" x1="-17.915" y1="0.5" x2="-16.849" y2="0.5" xlink:href="#w"/><linearGradient id="ao" x1="-728.882" y1="0.5" x2="-687.675" y2="0.5" xlink:href="#w"/><linearGradient id="ap" x1="-558.941" y1="0.5" x2="-536.919" y2="0.5" xlink:href="#w"/><linearGradient id="aq" x1="-27.038" y1="0.5" x2="-25.975" y2="0.5" xlink:href="#w"/><linearGradient id="ar" x1="-667.543" y1="0.5" x2="-642.141" y2="0.5" xlink:href="#w"/><linearGradient id="as" x1="-641.375" y1="0.5" x2="-633.394" y2="0.5" xlink:href="#w"/><linearGradient id="at" x1="-555.216" y1="0.5" x2="-540.518" y2="0.5" xlink:href="#w"/><linearGradient id="au" x1="-540.131" y1="0.5" x2="-526.055" y2="0.5" xlink:href="#w"/><linearGradient id="av" x1="-83.418" y1="0.5" x2="-82.418" y2="0.5" xlink:href="#ag"/><linearGradient id="aw" x1="351.517" y1="-37.993" x2="351.517" y2="-35.767" xlink:href="#c"/><linearGradient id="ax" x1="-182.852" y1="0.5" x2="-181.852" y2="0.5" gradientUnits="objectBoundingBox"><stop offset="0" stop-color="#ffecdc"/><stop offset="0.238" stop-color="#f6dac3"/><stop offset="0.737" stop-color="#dfac86"/><stop offset="1" stop-color="#d39364"/></linearGradient><linearGradient id="ay" x1="-356.506" y1="0.5" x2="-355.506" y2="0.5" xlink:href="#ax"/><linearGradient id="az" x1="-5333.635" y1="0.5" x2="-5332.635" y2="0.5" gradientUnits="objectBoundingBox"><stop offset="0" stop-color="#e3cbba"/><stop offset="0.253" stop-color="#dbbaa1"/><stop offset="0.784" stop-color="#c78e64"/><stop offset="1" stop-color="#bf7c4a"/></linearGradient><linearGradient id="ba" x1="-193.249" y1="0.057" x2="-192.403" y2="0.952" xlink:href="#c"/><linearGradient id="bb" x1="-76.372" y1="0.497" x2="-76.051" y2="0.783" xlink:href="#ax"/><linearGradient id="bc" x1="-252.677" y1="238.607" x2="-252.677" y2="240.332" xlink:href="#c"/><linearGradient id="bd" x1="-223.469" y1="323.857" x2="-223.469" y2="325.849" xlink:href="#c"/><linearGradient id="be" x1="-214.859" y1="318.044" x2="-214.859" y2="320.037" xlink:href="#c"/><linearGradient id="bf" x1="-251.44" y1="0.5" x2="-250.44" y2="0.5" xlink:href="#c"/><linearGradient id="bg" x1="-3604.116" y1="0.5" x2="-3603.116" y2="0.5" xlink:href="#w"/><linearGradient id="bh" x1="-254.135" y1="0.132" x2="-253.688" y2="0.913" xlink:href="#ax"/><clipPath id="bi"><rect class="b" width="238.732" height="61.559"/></clipPath><filter id="bj" x="49.533" y="65.462" width="51.389" height="56.533" filterUnits="userSpaceOnUse"><feOffset dy="5" input="SourceAlpha"/><feGaussianBlur stdDeviation="5" result="bk"/><feFlood flood-opacity="0.161"/><feComposite operator="in" in2="bk"/><feComposite in="SourceGraphic"/></filter><filter id="bl" x="33.856" y="60.204" width="49.207" height="61.79" filterUnits="userSpaceOnUse"><feOffset dy="5" input="SourceAlpha"/><feGaussianBlur stdDeviation="5" result="bm"/><feFlood flood-opacity="0.161"/><feComposite operator="in" in2="bm"/><feComposite in="SourceGraphic"/></filter><filter id="bn" x="533.597" y="41.733" width="83.136" height="90.157" filterUnits="userSpaceOnUse"><feOffset dy="5" input="SourceAlpha"/><feGaussianBlur stdDeviation="5" result="bo"/><feFlood flood-opacity="0.161"/><feComposite operator="in" in2="bo"/><feComposite in="SourceGraphic"/></filter><filter id="bp" x="501.741" y="40.853" width="81.694" height="98.869" filterUnits="userSpaceOnUse"><feOffset dy="5" input="SourceAlpha"/><feGaussianBlur stdDeviation="5" result="bq"/><feFlood flood-opacity="0.161"/><feComposite operator="in" in2="bq"/><feComposite in="SourceGraphic"/></filter><filter id="br" x="704.664" y="736.275" width="131.484" height="142.442" filterUnits="userSpaceOnUse"><feOffset dy="5" input="SourceAlpha"/><feGaussianBlur stdDeviation="5" result="bs"/><feFlood flood-opacity="0.161"/><feComposite operator="in" in2="bs"/><feComposite in="SourceGraphic"/></filter><filter id="bt" x="649.17" y="747.185" width="131.962" height="153.546" filterUnits="userSpaceOnUse"><feOffset dy="5" input="SourceAlpha"/><feGaussianBlur stdDeviation="5" result="bu"/><feFlood flood-opacity="0.161"/><feComposite operator="in" in2="bu"/><feComposite in="SourceGraphic"/></filter><filter id="bv" x="1131.118" y="598.039" width="89.036" height="107.219" filterUnits="userSpaceOnUse"><feOffset dy="5" input="SourceAlpha"/><feGaussianBlur stdDeviation="5" result="bw"/><feFlood flood-opacity="0.161"/><feComposite operator="in" in2="bw"/><feComposite in="SourceGraphic"/></filter><filter id="bx" x="1085.603" y="585.535" width="83.909" height="119.723" filterUnits="userSpaceOnUse"><feOffset dy="5" input="SourceAlpha"/><feGaussianBlur stdDeviation="5" result="by"/><feFlood flood-opacity="0.161"/><feComposite operator="in" in2="by"/><feComposite in="SourceGraphic"/></filter><filter id="bz" x="1132.22" y="-6.839" width="59.25" height="78.617" filterUnits="userSpaceOnUse"><feOffset dy="5" input="SourceAlpha"/><feGaussianBlur stdDeviation="5" result="ca"/><feFlood flood-opacity="0.161"/><feComposite operator="in" in2="ca"/><feComposite in="SourceGraphic"/></filter><filter id="cb" x="1104.733" y="1.627" width="63.176" height="70.151" filterUnits="userSpaceOnUse"><feOffset dy="5" input="SourceAlpha"/><feGaussianBlur stdDeviation="5" result="cc"/><feFlood flood-opacity="0.161"/><feComposite operator="in" in2="cc"/><feComposite in="SourceGraphic"/></filter><filter id="cd" x="-57.638" y="566.835" width="98.766" height="105.668" filterUnits="userSpaceOnUse"><feOffset dy="5" input="SourceAlpha"/><feGaussianBlur stdDeviation="5" result="ce"/><feFlood flood-opacity="0.161"/><feComposite operator="in" in2="ce"/><feComposite in="SourceGraphic"/></filter><filter id="cf" x="-96.177" y="570.316" width="98.408" height="115.294" filterUnits="userSpaceOnUse"><feOffset dy="5" input="SourceAlpha"/><feGaussianBlur stdDeviation="5" result="cg"/><feFlood flood-opacity="0.161"/><feComposite operator="in" in2="cg"/><feComposite in="SourceGraphic"/></filter></defs><g class="c"><rect class="a" width="1200" height="628"/><g class="d" transform="translate(0 60.278)"><g transform="translate(0 1.036)"><g class="e"><path class="f" d="M132.587,2.609S302.18-5.94,294.924,86.16s60.345,70.281,128.547,99.1,44.51,70.237,70.63,101.314,90.454,13.976,107.867,66.524,42.207,89.393,128.547,95.608,86.876,17.558,102.838,49.2,41.545,71.183,121.569,71.183H0V4.056Z" transform="translate(0 -2.4)"/></g></g></g><g transform="translate(22.5 136.065)"><ellipse class="g" cx="300.033" cy="18.363" rx="300.033" ry="18.363" transform="translate(0 380.459)"/><g transform="translate(20.519)"><g transform="translate(0 129.645)"><g transform="translate(217.991 203.553)"><circle class="h" cx="34.512" cy="34.512" r="34.512"/><circle class="i" cx="21.201" cy="21.201" r="21.201" transform="translate(9.533 34.512) rotate(-45)"/></g><g transform="translate(121.874 203.553)"><circle class="j" cx="34.512" cy="34.512" r="34.512"/><circle class="k" cx="21.201" cy="21.201" r="21.201" transform="translate(14.189 13.724)"/></g><g transform="translate(384.91 203.553)"><circle class="j" cx="34.512" cy="34.512" r="34.512"/><circle class="l" cx="21.201" cy="21.201" r="21.201" transform="matrix(0.23, -0.973, 0.973, 0.23, 13.412, 50.275)"/></g><path class="m" d="M2110.987,1206.826h-85.176a26.707,26.707,0,0,1,1.883-15.379c4.409-16.562,20.971-28.93,40.652-28.93s36.189,12.368,40.6,28.93C2110.234,1196.287,2111.525,1201.61,2110.987,1206.826Z" transform="translate(-1559.158 -969.206)"/><path class="n" d="M2201.7,840.652h-36.52v-3.809h34.283Z" transform="translate(-1644.033 -771.438)"/><path class="n" d="M2240.355,867.078l-2.463,1.005a4.868,4.868,0,0,1-6.31-2.582l-8.157-18.96h13.644l5.919,14.107A4.867,4.867,0,0,1,2240.355,867.078Z" transform="translate(-1679.405 -777.327)"/><path class="o" d="M0,0H108.19V222.241H0Z" transform="translate(63.63)"/><rect class="p" width="251.171" height="222.241" transform="translate(171.82)"/><rect class="n" width="71.248" height="192.684" transform="translate(85.138 21.042)"/><path class="n" d="M2045.228,894.316H1915.261V818.587h84.913A24.648,24.648,0,0,1,2023.4,834.6Z" transform="translate(-1492.27 -760.352)"/><path class="q" d="M2124.507,896.737h-66.033V829.951h26.294a21.685,21.685,0,0,1,20.487,14.142Z" transform="translate(-1579.237 -767.253)"/><path class="r" d="M0,0H43.475A21.509,21.509,0,0,1,64.984,21.509v0a0,0,0,0,1,0,0H0a0,0,0,0,1,0,0V0A0,0,0,0,1,0,0Z" transform="translate(422.991 36.727)"/><path class="p" d="M2073.62,1067.071v3.657h20.434v28.929h-52c-4.408-16.562-20.917-28.929-40.6-28.929s-36.243,12.367-40.652,28.929h-45.545v-88.294H2040.5a53.55,53.55,0,0,1,51.621,39.254c.323,1.183.646,2.42.861,3.657a42.412,42.412,0,0,1,.7,4.57c.162,1.183.269,2.42.322,3.656.055.807.055,1.614.055,2.42v2.151Z" transform="translate(-1492.27 -877.416)"/><g transform="translate(577.156 173.201)"><rect class="s" width="20.433" height="3.656" transform="translate(4.194 16.455)"/><path class="t" d="M0,0H19.829A9.074,9.074,0,0,1,28.9,9.074v0a9.074,9.074,0,0,1-9.074,9.074H0a0,0,0,0,1,0,0V0A0,0,0,0,1,0,0Z" transform="translate(0 23.499)"/><path class="u" d="M2338.854,1135.915h-20.379v-3.656h20.057C2338.694,1133.442,2338.8,1134.678,2338.854,1135.915Z" transform="translate(-2314.281 -1124.032)"/><path class="v" d="M2337.833,1114.968h-19.358v-3.657h18.5C2337.3,1112.494,2337.618,1113.731,2337.833,1114.968Z" transform="translate(-2314.281 -1111.311)"/></g><path class="n" d="M1403.281,1251.557a33.766,33.766,0,0,0,1.4,5.054H1000.258v-20.433h404.906A26.709,26.709,0,0,0,1403.281,1251.557Z" transform="translate(-936.628 -1013.937)"/><path class="n" d="M2294.405,1241.878V1254.3a2.341,2.341,0,0,1-2.366,2.312H2239.02a18.6,18.6,0,0,0,1.129-5.054c.537-5.216-.753-10.539-2.043-15.379h50.546A5.749,5.749,0,0,1,2294.405,1241.878Z" transform="translate(-1688.32 -1013.937)"/><g transform="translate(460.772 185.956)"><circle class="j" cx="34.512" cy="34.512" r="34.512" transform="translate(0 48.808) rotate(-45)"/><circle class="k" cx="21.201" cy="21.201" r="21.201" transform="translate(28.897 27.607)"/></g><g transform="translate(551.829 237.428)"><rect class="w" width="0.107" height="0.384"/></g><g transform="translate(466.492 237.428)"><rect class="x" width="0.161" height="0.384"/></g><path class="p" d="M994.63,1214.5l-85.138,53.323H838.244l85.138-53.323Z" transform="translate(-838.244 -1000.772)"/><path class="y" d="M1104.71,1214.5v4.652l-85.192,53.264v-4.592h.054Z" transform="translate(-948.324 -1000.772)"/><rect class="n" width="71.194" height="4.592" transform="translate(0 267.051)"/><g transform="translate(98.197 120.031)"><rect class="z" width="47.225" height="31.457" transform="translate(10.859 27.408) rotate(-0.213)"/><rect class="aa" width="8.745" height="8.453" transform="translate(30.099 27.337) rotate(-0.213)"/><rect class="ab" width="8.745" height="5.992" transform="translate(30.194 52.802) rotate(-0.213)"/><rect class="ac" width="8.147" height="3.495" transform="translate(13.028 53.65) rotate(-0.214)"/><rect class="z" width="47.225" height="37.818" transform="translate(47.225 93.686) rotate(-179.787)"/><rect class="ad" width="30.614" height="8.745" transform="translate(19.266 86.378) rotate(-89.787)"/><rect class="ad" width="8.745" height="7.203" transform="translate(27.985 93.614) rotate(-179.787)"/><rect class="ae" width="8.147" height="4.202" transform="matrix(-1, -0.004, 0.004, -1, 45.161, 91.62)"/><path class="z" d="M1149.141,1151.08v.4l19.24.069,8.747.035h0l6.3-.009.014-40.568-6.163-.022-27.982-.1Z" transform="translate(-1125.235 -1057.883)"/><rect class="ad" width="8.745" height="10.909" transform="translate(52.001 64.015) rotate(-179.787)"/><path class="ad" d="M1198.129,1202.008v.474l8.747.035v-.508l.026-7.227-8.743-.03Z" transform="translate(-1154.984 -1108.811)"/><g transform="translate(34.486)"><path class="z" d="M1176.079,976.023l.052,13.446.065,18.01,19.24-.074,4.36-.013V975.931l-4.478.017Z" transform="translate(-1176.079 -975.931)"/><path class="ad" d="M1225.067,975.949l.035,8.451,4.443-.017v-8.452Z" transform="translate(-1205.827 -975.931)"/><path class="af" d="M1225.31,1040.794l.022,5.989,4.36-.013v-5.994Z" transform="translate(-1205.975 -1015.309)"/><rect class="ag" width="8.147" height="3.495" transform="translate(2.171 26.332) rotate(-0.213)"/></g><g transform="translate(21.582 2.472)"><path class="z" d="M1143.225,1030.576l.117,31.457,19.24-.07,8.742-.035,8.521-.03v-31.461l-8.638.035-8.742.03-14.536.057Z" transform="translate(-1143.225 -1011.502)"/><rect class="ad" width="8.745" height="8.453" transform="translate(19.238 19.002) rotate(-0.214)"/><rect class="ad" width="8.745" height="5.992" transform="translate(19.333 44.467) rotate(-0.213)"/><rect class="ah" width="8.147" height="3.495" transform="translate(2.167 45.316) rotate(-0.213)"/><rect class="ai" width="8.147" height="3.495" transform="translate(15.956 0.03) rotate(-0.213)"/></g></g></g><g transform="translate(65.113 344.791)"><rect class="z" width="44.87" height="29.888" transform="matrix(1, -0.004, 0.004, 1, 0, 0.187)"/><rect class="ad" width="8.309" height="8.031" transform="matrix(1, -0.004, 0.004, 1, 18.371, 21.968)"/><rect class="ad" width="8.309" height="21.857" transform="translate(18.28 0.111) rotate(-0.239)"/><rect class="aj" width="7.741" height="3.321" transform="translate(1.975 1.806) rotate(-0.239)"/></g><g transform="translate(186.964)"><path class="ak" d="M1328.382,340.207H1523.5a14.1,14.1,0,0,1,14.094,14.094V727.267a14.1,14.1,0,0,1-14.094,14.094H1328.382a14.093,14.093,0,0,1-14.092-14.094V354.3A14.093,14.093,0,0,1,1328.382,340.207Z" transform="translate(-1314.29 -340.207)"/><path class="al" d="M1617.6,495.224l42.554,118.693,52.026-26.513.055.107V507.4l-33.5-41.817Z" transform="translate(-1498.48 -416.341)"/><path class="al" d="M1791.209,437.047l26.453,33.022V424.22Z" transform="translate(-1603.902 -391.225)"/><path class="am" d="M1773.263,460.3l33.5,41.817V489.9l-26.453-33.022Z" transform="translate(-1593.005 -411.058)"/><path class="an" d="M1742.492,853.475l45.587,127.149V830.248Z" transform="translate(-1574.318 -637.788)"/><path class="al" d="M1690.045,1225.549l27.5,34.322h38.688v-46.736Z" transform="translate(-1542.47 -870.299)"/><path class="al" d="M1663.448,374.769l15.852,18.675,57.175-25.279h-65.808Z" transform="translate(-1526.319 -357.185)"/><path class="ao" d="M1565.2,394.9l12.023,33.535,35.157-15.545-14.543-17.99Z" transform="translate(-1466.657 -373.417)"/><path class="ap" d="M1662.845,406.865l7.258-3.209-15.852-18.675-.007,0-4.252,3.889H1648.3Z" transform="translate(-1517.122 -367.396)"/><path class="al" d="M1443.977,1281.534h114.355l-26.22-32.726L1449,1264.4l-.554,1.859Z" transform="translate(-1393.043 -891.961)"/><path class="al" d="M1338.676,1164.484v59.79h32.607l5.135-15.516-16.814,3.154-1.365-57.4Z" transform="translate(-1329.099 -834.702)"/><path class="al" d="M1338.676,430.666V703.5l19.059-9.713-6.053-254.765-4.712-3.028Z" transform="translate(-1329.099 -395.139)"/><path class="aq" d="M1338.676,368.165v15.915l14.158,8.618,74.807-14.034h-11.023l-9.8-10.5Z" transform="translate(-1329.099 -357.185)"/><path class="ar" d="M1351.682,417.3l6.053,254.765-19.059,9.713V703.2l19.563-9.969,1.365,57.4,16.814-3.154-5.135,15.516h8.749l4.474-15.277.554-1.859,83.108-15.59,26.22,32.726h9.782l-27.5-34.322,66.185-12.414L1497.272,589.1l45.586-23.227v-21.29l-.054-.107-52.026,26.513L1448.223,452.3l-8.558-23.869L1427.642,394.9l-74.807,14.034-14.158-8.618v8.632l8.294,5.326Z" transform="translate(-1329.099 -373.417)"/><path class="as" d="M1595.814,412.2l8.558,23.869,61.134-29.643,7.048-3.417,26.453-12.827V368.165h-3.6l-57.175,25.279-7.258,3.209Z" transform="translate(-1485.247 -357.185)"/><circle class="at" cx="5.267" cy="5.267" r="5.267" transform="translate(107.297 6.551)"/><path class="au" d="M1559.253,370.059a2.143,2.143,0,1,0,2.143-2.144A2.143,2.143,0,0,0,1559.253,370.059Z" transform="translate(-1463.046 -357.033)"/><circle class="av" cx="1.516" cy="1.516" r="1.516" transform="translate(92.199 11.51)"/><g transform="translate(22.39 21.479)"><path class="as" d="M1371.3,409.183l.193,8.114,6.053,254.765.5,21.168,1.365,57.4,16.814-3.154,8.642-1.62,83.108-15.59,8.506-1.6,66.184-12.414L1517.083,589.1l-6.495-18.112L1468.035,452.3l-8.558-23.869L1447.453,394.9l-74.808,14.034Zm76.1,250.484,77.05,7.49,12.613,35.184-85.757,16.086Zm-5.022-75.571,44.594-21.476,34.735,96.89-74.8-7.27Zm-46.844,22.562L1427.2,591.4l8.632,129.924-37.407,7.017Zm-3.555-149.7L1444.444,444l36.222,101.029-85.616,41.234Zm-.78-32.8,43.226-8.108,7.518,20.975L1391.8,449.415Z" transform="translate(-1371.3 -394.896)"/><path class="an" d="M1565.066,1069.058l3.906,58.759,85.757-16.087-12.612-35.184Z" transform="translate(-1488.966 -804.286)"/><path class="aw" d="M1552.281,843.433l4.526,68.144,74.8,7.269-34.736-96.889Z" transform="translate(-1481.202 -654.232)"/><path class="an" d="M1433.007,910.5l2.893,121.688,37.409-7.016-8.634-129.925Z" transform="translate(-1408.772 -698.737)"/><path class="al" d="M1423.953,532.892l3.071,129.3,85.615-41.234-36.221-101.029Z" transform="translate(-1403.274 -470.826)"/><path class="al" d="M1421.969,456.884l.6,25.251,50.143-12.385-7.518-20.975Z" transform="translate(-1402.069 -427.615)"/></g><path class="as" d="M1338.676,1108.773V1130.2l19.563-9.969,10.143-5.168-8.668-17.007-1.978,1.007Z" transform="translate(-1329.099 -800.414)"/><path class="as" d="M1699.48,807.578l8.668,17,8.224-4.192,45.586-23.228v-21.29l-.055-.107-52.026,26.513Z" transform="translate(-1548.2 -604.703)"/><g transform="translate(137.533 353.661)"><path class="as" d="M1664.475,1241.965l1.536,1.918,26.219,32.726h9.783l-27.5-34.322-1.274-1.589Z" transform="translate(-1664.475 -1240.698)"/></g><g transform="translate(42.184 365.854)"><path class="as" d="M1421.7,1295.461h8.749l4.474-15.277.554-1.859.028-.093-6.031-6.49-.7,2.355-1.935,5.848Z" transform="translate(-1421.699 -1271.742)"/></g><g transform="translate(177.822 44.93)"><path class="as" d="M1767.06,455.875l2.436,3.042,33.5,41.817V488.523L1776.544,455.5l-.716-.892Z" transform="translate(-1767.06 -454.608)"/></g><g transform="translate(131.181 17.585)"><path class="as" d="M1648.3,388.875l14.542,17.99,5.38,6.657,1.878-9.866-15.852-18.675-.007,0Z" transform="translate(-1648.303 -384.981)"/></g><g transform="translate(2.828 22.784)"><path class="as" d="M1338.676,408.686v8.632l8.294,5.326,4.712,3.028,2.489,1.6-1.322-9.957-.014-.01Z" transform="translate(-1331.926 -404.575)"/><path class="as" d="M1321.49,398.219l6.75,4.111v0Z" transform="translate(-1321.49 -398.219)"/></g><path class="ax" d="M1542.858,368.165h-69.41l-13.168,10.5h-43.661l-9.8-10.5h-68.143V746.757h204.182Z" transform="translate(-1329.099 -357.185)"/><g transform="translate(9.565 11.346)"><g transform="translate(44.611 12.564)"><g transform="translate(0 21.981)"><path class="ay" d="M1453.955,460.956c.008-.005.735-.515,2.085-1.364l-1.6-2.536c-1.421.9-2.179,1.426-2.21,1.448Z" transform="translate(-1452.233 -457.056)"/></g><g transform="translate(6.533)"><path class="az" d="M1468.868,420.485c1.421-.809,2.906-1.62,4.414-2.409l1.389,2.655c-1.477.772-2.93,1.565-4.32,2.357Zm123.669-2.977,1.418-2.64c1.467.788,2.942,1.62,4.384,2.471l-1.525,2.58C1595.408,419.088,1593.968,418.277,1592.537,417.508Zm-114.765-1.688c1.5-.722,3.034-1.432,4.559-2.106l1.213,2.74c-1.5.662-3,1.357-4.471,2.066Zm105.932-2.588,1.19-2.751c1.527.661,3.067,1.366,4.577,2.1l-1.306,2.7C1586.693,414.563,1585.192,413.876,1583.7,413.233Zm-96.75-1.477c1.547-.626,3.122-1.236,4.683-1.811l1.035,2.812c-1.531.564-3.077,1.161-4.594,1.776Zm87.587-2.02.944-2.844c1.586.527,3.183,1.1,4.745,1.693l-1.069,2.8C1577.64,410.8,1576.085,410.248,1574.541,409.735Zm-78.163-1.449c1.584-.525,3.2-1.031,4.792-1.5l.849,2.874c-1.564.462-3.145.958-4.7,1.473Zm9.634-2.844c1.627-.421,3.271-.816,4.886-1.174l.649,2.926c-1.581.351-3.191.737-4.785,1.15Zm59.094,1.619.688-2.916c1.626.383,3.266.808,4.876,1.265l-.817,2.883C1568.285,407.85,1566.688,407.435,1565.106,407.062Zm-49.282-3.794c1.651-.3,3.32-.58,4.96-.82l.434,2.965c-1.6.235-3.235.5-4.851.8Zm39.646,1.97.427-2.966c1.656.238,3.328.517,4.969.827l-.557,2.944C1558.711,405.74,1557.083,405.47,1555.47,405.238Zm-29.7-3.424c1.663-.179,3.349-.327,5.011-.44l.2,2.99c-1.623.11-3.27.255-4.894.43Zm19.935,2.451.167-2.992c1.674.094,3.364.225,5.021.39l-.3,2.982C1548.985,404.485,1547.339,404.357,1545.708,404.266Zm-9.9-3.132c1.667-.047,3.35-.058,5.033-.035l-.041,3c-1.642-.023-3.284-.011-4.909.034Z" transform="translate(-1468.868 -401.087)"/></g><g transform="translate(138.659 18.896)"><path class="ba" d="M1807.4,453.115l1.675-2.485q-1.085-.731-2.169-1.431l-1.624,2.518Q1806.344,452.4,1807.4,453.115Z" transform="translate(-1805.285 -449.199)"/></g></g><g transform="translate(45.447 37.253)"><path class="bb" d="M1456.9,466.994l.113-2.994c-1.683-.064-2.61-.049-2.649-.048l.051,3C1454.419,466.948,1455.3,466.935,1456.9,466.994Z" transform="translate(-1454.36 -463.95)"/><g transform="translate(7.651 0.386)"><path class="bc" d="M1596.089,587.4l2.956-.493c.284,1.7.553,3.441.8,5.174l-2.966.423C1596.636,590.793,1596.37,589.076,1596.089,587.4Zm-1.956-10.132,2.927-.644c.371,1.686.727,3.412,1.058,5.129l-2.943.567C1594.85,580.627,1594.5,578.928,1594.134,577.267Zm-2.491-10,2.886-.806c.464,1.663.914,3.367,1.337,5.065l-2.908.724C1592.542,570.575,1592.1,568.9,1591.642,567.262Zm-3.067-9.834,2.832-.98c.565,1.633,1.115,3.309,1.636,4.981l-2.86.891C1589.672,560.678,1589.131,559.032,1588.576,557.428Zm-3.678-9.614,2.761-1.163c.67,1.591,1.328,3.229,1.954,4.869l-2.8,1.07C1586.2,550.982,1585.555,549.375,1584.9,547.814Zm-4.321-9.333,2.672-1.355c.784,1.547,1.555,3.137,2.289,4.725l-2.72,1.258C1582.1,541.553,1581.345,540,1580.577,538.481Zm-4.986-8.988,2.563-1.552c.9,1.485,1.785,3.014,2.634,4.545l-2.621,1.453C1577.337,532.44,1576.47,530.945,1575.591,529.492Zm-5.661-8.572,2.433-1.749c1.017,1.414,2.02,2.87,2.982,4.328l-2.5,1.65C1571.9,523.725,1570.924,522.3,1569.93,520.92Zm-6.33-8.086,2.281-1.943c1.129,1.326,2.248,2.7,3.326,4.074l-2.36,1.847C1565.8,515.467,1564.7,514.129,1563.6,512.834Zm-6.978-7.533,2.112-2.126c1.237,1.228,2.466,2.5,3.655,3.783l-2.2,2.037C1559.031,507.743,1557.831,506.5,1556.623,505.3Zm-7.584-6.922,1.925-2.3c1.337,1.121,2.669,2.286,3.96,3.464l-2.02,2.214C1551.644,500.611,1550.344,499.473,1549.039,498.379Zm-8.14-6.265,1.728-2.448c1.426,1.006,2.851,2.057,4.235,3.122l-1.828,2.375C1543.683,494.122,1542.292,493.1,1540.9,492.114Zm-8.632-5.579,1.524-2.58c1.509.891,3.015,1.821,4.476,2.766l-1.627,2.517C1535.213,488.315,1533.741,487.406,1532.267,486.535Zm-9.055-4.875,1.317-2.692c1.58.773,3.154,1.581,4.68,2.4l-1.421,2.639C1526.3,483.206,1524.757,482.416,1523.212,481.661Zm-9.411-4.166,1.11-2.783c1.623.647,3.254,1.332,4.849,2.038l-1.213,2.741C1516.987,478.8,1515.39,478.127,1513.8,477.494Zm-9.7-3.461.9-2.857c1.664.526,3.341,1.091,4.985,1.677l-1.006,2.822C1507.374,475.1,1505.731,474.55,1504.1,474.034Zm-9.93-2.758.7-2.914c1.7.408,3.411.851,5.092,1.318l-.8,2.887C1497.514,472.11,1495.835,471.675,1494.171,471.276Zm-10.1-2.051.491-2.956c1.712.284,3.454.606,5.176.956l-.6,2.937C1487.45,469.819,1485.743,469.5,1484.066,469.226Zm-10.226-1.307.261-2.985c1.714.15,3.478.341,5.244.567l-.381,2.973C1477.238,468.252,1475.514,468.066,1473.84,467.919Z" transform="translate(-1473.84 -464.934)"/></g><g transform="translate(131.364 132.755)"><path class="bd" d="M1789.127,804.861l2.979-.322q-.139-1.293-.292-2.569l-2.976.354Q1788.989,803.585,1789.127,804.861Z" transform="translate(-1788.839 -801.971)"/></g></g><g transform="translate(42.62 37.702)"><path class="be" d="M1448.88,469.026l2.213-2.021c-1.139-1.248-1.766-1.887-1.792-1.913l-2.137,2.1C1447.169,467.2,1447.782,467.824,1448.88,469.026Z" transform="translate(-1447.163 -465.092)"/><g transform="translate(5.11 5.822)"><path class="bf" d="M1533.906,756.8c.276-1.693.543-3.4.794-5.087l2.964.441c-.253,1.7-.522,3.422-.8,5.128Zm1.516-10.185c.227-1.69.446-3.408.65-5.107l2.975.357c-.206,1.713-.427,3.445-.655,5.149Zm1.227-10.222c.18-1.707.349-3.431.5-5.123l2.984.272c-.155,1.707-.326,3.445-.507,5.166Zm.933-10.252c.13-1.706.249-3.434.354-5.135l2.991.185c-.106,1.715-.226,3.458-.357,5.179Zm.633-10.275c.08-1.708.149-3.438.2-5.143l2.995.1c-.055,1.719-.124,3.464-.2,5.187Zm.33-10.288c.029-1.706.047-3.438.051-5.147l3,.007c0,1.724-.021,3.471-.051,5.192Zm-.08-15.443,3-.083c.047,1.724.083,3.471.1,5.194l-3,.038C1538.547,693.575,1538.512,691.843,1538.465,690.134Zm-.441-10.289,2.992-.173c.1,1.725.188,3.471.261,5.188l-2.994.128C1538.21,683.286,1538.123,681.556,1538.024,679.845Zm-.751-10.27,2.985-.264c.152,1.719.293,3.461.418,5.178l-2.988.219C1537.563,673.005,1537.423,671.279,1537.273,669.575Zm-1.064-10.243,2.975-.355c.2,1.717.4,3.454.576,5.163l-2.981.31C1536.6,662.756,1536.412,661.034,1536.209,659.332Zm-1.375-10.206,2.964-.445c.257,1.709.5,3.439.733,5.143l-2.97.4C1535.333,652.535,1535.089,650.82,1534.834,649.126Zm-1.684-10.16,2.948-.535c.308,1.7.607,3.419.889,5.118l-2.956.49C1533.751,642.355,1533.455,640.649,1533.149,638.966Zm-1.993-10.1,2.931-.625c.357,1.677.708,3.388,1.044,5.089l-2.94.58C1531.859,632.221,1531.51,630.524,1531.156,628.863Zm-2.3-10.039,2.911-.713c.411,1.678.814,3.378,1.2,5.055l-2.921.669C1529.665,622.173,1529.265,620.487,1528.857,618.824Zm-2.6-9.966,2.888-.8c.459,1.657.913,3.345,1.35,5.017l-2.9.757C1527.162,612.174,1526.712,610.5,1526.257,608.858Zm-2.9-9.883,2.863-.887c.512,1.653,1.016,3.326,1.5,4.974l-2.875.844C1524.364,602.272,1523.864,600.613,1523.356,598.975Zm-3.195-9.793,2.835-.972c.56,1.633,1.114,3.292,1.648,4.927l-2.849.93C1521.266,592.445,1520.717,590.8,1520.162,589.182Zm-3.485-9.693,2.8-1.056c.607,1.613,1.21,3.253,1.794,4.877l-2.82,1.013C1517.877,582.714,1517.278,581.088,1516.677,579.49Zm-3.77-9.588,2.772-1.138c.651,1.587,1.3,3.209,1.937,4.82l-2.788,1.1C1514.2,573.083,1513.553,571.475,1512.907,569.9Zm-4.051-9.472,2.737-1.219c.7,1.565,1.4,3.167,2.078,4.762l-2.755,1.179C1510.24,563.57,1509.547,561.981,1508.856,560.43Zm-4.328-9.35,2.7-1.3c.749,1.556,1.495,3.138,2.217,4.7l-2.719,1.258C1506.009,554.19,1505.27,552.623,1504.528,551.08Zm-4.6-9.219,2.661-1.377c.795,1.535,1.587,3.094,2.354,4.632l-2.681,1.338C1501.5,544.927,1500.715,543.382,1499.927,541.86Zm-4.869-9.081,2.62-1.455c.837,1.508,1.675,3.043,2.489,4.561l-2.641,1.416C1496.719,535.8,1495.888,534.275,1495.058,532.78Zm-5.135-8.934,2.576-1.532c.879,1.478,1.761,2.987,2.623,4.486l-2.6,1.493C1491.669,526.807,1490.794,525.311,1489.923,523.846Zm-5.4-8.775,2.528-1.609c.926,1.454,1.854,2.937,2.757,4.406l-2.552,1.57C1486.359,517.982,1485.44,516.512,1484.522,515.07Zm-5.666-8.607,2.477-1.686c.965,1.417,1.938,2.871,2.893,4.32l-2.5,1.648C1480.777,509.309,1479.813,507.868,1478.856,506.463Zm-5.936-8.422,2.421-1.767c1.007,1.38,2.027,2.8,3.032,4.227l-2.449,1.727C1474.927,500.817,1473.917,499.408,1472.92,498.042Zm-6.219-8.214,2.356-1.852c1.05,1.336,2.12,2.723,3.179,4.122l-2.389,1.809C1468.8,492.522,1467.74,491.149,1466.7,489.828Zm-6.528-7.961,2.273-1.952c1.091,1.27,2.218,2.615,3.35,4l-2.318,1.9C1462.361,484.447,1461.249,483.12,1460.173,481.867Z" transform="translate(-1460.173 -479.915)"/></g><g transform="translate(77.523 287.773)"><path class="bg" d="M1647.5,1200.88q.234-1.271.459-2.537l-2.951-.524q-.223,1.256-.455,2.517Z" transform="translate(-1644.551 -1197.819)"/></g></g><g transform="translate(26.571)"><g transform="translate(17.098 34.942)"><path class="bh" d="M1450.143,460.961l2.987-.236c0-.041-.082-1.014-.337-2.659l-2.961.459C1450.068,460.047,1450.142,460.952,1450.143,460.961Z" transform="translate(-1449.832 -458.066)"/></g><path class="az" d="M1421.227,395.194l2.862-.888c.491,1.581.931,3.2,1.31,4.824l-2.918.682C1422.118,398.261,1421.7,396.707,1421.227,395.194Zm-3.505-8.874,2.69-1.321c.721,1.468,1.4,3.012,2.021,4.587l-2.788,1.1C1419.054,389.183,1418.407,387.715,1417.722,386.319Zm-4.941-8.093,2.391-1.807a50.275,50.275,0,0,1,2.829,4.17l-2.56,1.558A47.287,47.287,0,0,0,1412.781,378.226ZM1406.3,371.4l1.911-2.308a42.116,42.116,0,0,1,3.7,3.464l-2.175,2.061A39.155,39.155,0,0,0,1406.3,371.4Z" transform="translate(-1406.298 -369.096)"/></g><g transform="translate(3.006 28.001)"><g transform="translate(38.326 7.049)"><path class="bi" d="M1445.937,462.226l1.748-2.434c-.034-.024-.844-.605-2.276-1.452l-1.526,2.579C1445.189,461.691,1445.93,462.221,1445.937,462.226Z" transform="translate(-1443.883 -458.34)"/></g><path class="az" d="M1375.784,445.892l1-2.824c1.6.569,3.213,1.23,4.786,1.964l-1.268,2.715C1378.818,447.053,1377.3,446.429,1375.784,445.892Zm-29.486-1.728a33.823,33.823,0,0,1,4.844-2.043l.945,2.843a30.875,30.875,0,0,0-4.414,1.862Zm20.044-.525.352-2.976a44.081,44.081,0,0,1,5.123.923l-.7,2.913A41.053,41.053,0,0,0,1366.342,443.639Zm-10.094-2.779a35.64,35.64,0,0,1,5.226-.469l.049,3a32.568,32.568,0,0,0-4.785.428Z" transform="translate(-1346.298 -440.391)"/></g><g transform="translate(0 37.837)"><g transform="translate(39.974)"><path class="bj" d="M1442.927,469.283c.893-1.355,1.4-2.012,1.4-2.019l-2.375-1.828c-.022.03-.566.738-1.529,2.2Z" transform="translate(-1440.425 -465.436)"/></g><g transform="translate(0 6.676)"><path class="bk" d="M1338.644,595.744q.5-2.582,1-5.1l2.938.59q-.5,2.506-1,5.076Zm2.044-10.191q.538-2.577,1.085-5.083l2.928.638q-.543,2.494-1.08,5.058ZM1342.9,575.4q.583-2.572,1.173-5.065l2.916.69q-.587,2.481-1.167,5.038Zm2.393-10.118q.631-2.564,1.268-5.043l2.9.745q-.633,2.466-1.261,5.015Zm2.586-10.073q.684-2.555,1.371-5.016l2.887.805q-.683,2.447-1.363,4.986Zm2.8-10.018c.485-1.667.983-3.345,1.481-4.987l2.867.87c-.495,1.631-.99,3.3-1.472,4.954Zm3.022-9.956c.527-1.663,1.066-3.329,1.6-4.951l2.844.941c-.533,1.61-1.068,3.263-1.591,4.914Zm3.272-9.881c.571-1.65,1.156-3.3,1.738-4.908l2.817,1.021c-.577,1.594-1.157,3.231-1.723,4.867Zm3.548-9.789c.619-1.63,1.255-3.263,1.89-4.855l2.783,1.11c-.629,1.576-1.258,3.194-1.871,4.809Zm3.864-9.678c.677-1.613,1.371-3.224,2.065-4.788l2.739,1.214c-.685,1.546-1.372,3.138-2.041,4.733Zm4.229-9.534c.754-1.606,1.52-3.187,2.276-4.7l2.68,1.34c-.745,1.49-1.5,3.049-2.244,4.632Zm4.68-9.342c.857-1.6,1.718-3.134,2.558-4.572l2.587,1.512c-.823,1.406-1.665,2.913-2.505,4.476Z" transform="translate(-1338.644 -482.434)"/></g></g></g><circle class="az" cx="4.281" cy="4.281" r="4.281" transform="translate(182.901 185.373) rotate(-45)"/><path class="az" d="M1634.554,1196.572a5.4,5.4,0,1,0,5.4-5.4A5.4,5.4,0,0,0,1634.554,1196.572Z" transform="translate(-1508.773 -856.962)"/><circle class="az" cx="4.308" cy="4.308" r="4.308" transform="translate(190.66 40.624)"/><circle class="az" cx="5.926" cy="5.926" r="5.926" transform="translate(48.135 43.139)"/></g><g transform="translate(426.365 153.749)"><path class="bl" d="M1923.852,756.344c0,10.739,15.338,39.925,21.822,51.779,1.737,3.178,2.838,5.11,2.838,5.11s9.157-16.066,16.31-31.7v0c4.588-10.02,8.35-19.864,8.35-25.185,0-11.079-11.039-24.663-24.66-24.663A24.661,24.661,0,0,0,1923.852,756.344Zm9.474.927a15.186,15.186,0,1,1,15.186,15.186A15.188,15.188,0,0,1,1933.326,757.271Z" transform="translate(-1923.852 -731.681)"/><circle class="bm" cx="15.186" cy="15.186" r="15.186" transform="translate(9.474 10.404)"/></g><g transform="translate(72.602 374.658)"><rect class="z" width="44.87" height="29.888" transform="translate(0 0.167) rotate(-0.213)"/><rect class="ad" width="8.309" height="8.031" transform="translate(18.28 0.099) rotate(-0.213)"/><rect class="ad" width="8.309" height="5.693" transform="matrix(1, -0.004, 0.004, 1, 18.37, 24.294)"/><rect class="bn" width="7.741" height="3.321" transform="translate(2.061 25.1) rotate(-0.213)"/></g><g transform="translate(162.081 249.832)"><path class="bo" d="M1327.123,1060.7a126.553,126.553,0,0,1,1.35-21.666c.088-.511.18-1.018.277-1.516a48.8,48.8,0,0,0,.848-10.932,42.16,42.16,0,0,0-.479-5.06c-.742-.382-2.129,1.5-2.129,1.5l-1.857-8.453a17.909,17.909,0,0,0-4.724,2.171,27.316,27.316,0,0,0-7.6,7.48,40.163,40.163,0,0,0-3.479,6.06,105.243,105.243,0,0,0-8.448,30.419Z" transform="translate(-1281.261 -999.549)"/><path class="bp" d="M1359.589,990.848a4.448,4.448,0,0,0,1,2.644,3.717,3.717,0,0,0,3.121,1.441l.913,1.787a5.253,5.253,0,0,0,2.894,1.5,4.27,4.27,0,0,0,1.2,0c1.39-.187,1.867-4.369,2.02-7.944.029-.7.046-1.379.057-2,.006-.289.006-.562.012-.823a31.234,31.234,0,0,0-5.47,1.2,2.194,2.194,0,0,0-.823,1.072c-.222.914.289,2.644-.494,2.814-.6.13-1.294-1.714-2.252-2.672h-.006a1.65,1.65,0,0,0-1.021-.556C1359.958,989.259,1359.578,989.94,1359.589,990.848Z" transform="translate(-1316.915 -983.085)"/><path class="r" d="M1362.555,1370.087s3.865.255,4.3-.1,6.163.571,8.338.234a1.94,1.94,0,0,0,1.591-2.955c-.435-.8-5.966-.96-6.939-1.954a7.263,7.263,0,0,1-1.309-1.712l-5.974.454Z" transform="translate(-1318.716 -1211.505)"/><path class="r" d="M1250.933,1349.014s3.155,2.247,3.71,2.177,4.945,3.722,6.972,4.578a1.94,1.94,0,0,0,2.906-1.678c.051-.912-4.573-3.95-4.879-5.306a7.256,7.256,0,0,1-.214-2.145l-5.323-2.75Z" transform="translate(-1250.933 -1199.532)"/><path class="bq" d="M1365.137,1009.946s.941,2.094,1.929,4.216c.352.76.715,1.521,1.038,2.2.238-5.259,2.786-6.576,2.786-6.576a5.254,5.254,0,0,1-2.894-1.5l-.913-1.787a11.224,11.224,0,0,0-1.708,2.684A4.045,4.045,0,0,0,1365.137,1009.946Z" transform="translate(-1320.284 -994.648)"/><path class="br" d="M1362.637,1014.2l1.857,8.453s.194-.263.48-.576c.47-.516,1.185-1.162,1.65-.922-.148-.922-.272-1.457-.286-1.521a.014.014,0,0,1,0-.009c-.286-.595-.6-1.267-.917-1.941-.871-1.871-1.7-3.724-1.7-3.724A7.834,7.834,0,0,0,1362.637,1014.2Z" transform="translate(-1318.766 -999.179)"/><g transform="translate(47.375 20.442)"><path class="bs" d="M1371.943,1028.389v-.009h-.384Z" transform="translate(-1371.559 -1028.38)"/></g><path class="n" d="M1300.875,1132.024c1.456,5.863,9.494,18.952,15.527,28.252,3.848,5.927,6.881,10.315,6.881,10.315l1.825,52.841,5.973-.456s2.738-50.546,3.66-54.232-7.618-36.719-7.618-36.719Z" transform="translate(-1281.261 -1070.876)"/><path class="n" d="M1259.016,1215.292l5.3,2.766,23.275-47.011,3.392-10.771c-6.033-9.3-14.071-22.39-15.527-28.252,0,0,3.378,34.876,1.765,37.641S1259.016,1215.292,1259.016,1215.292Z" transform="translate(-1255.842 -1070.876)"/><path class="bt" d="M1355.144,1083.3c.446.932.892,1.844,1.338,2.721l9.257-3.995c-.25-1-.531-2.075-.832-3.182Z" transform="translate(-1314.216 -1038.58)"/><path class="bu" d="M1358.555,1090.937c1.313,2.591,2.591,4.867,3.629,6.486.947,1.478,1.7,2.406,2.1,2.526,2.205.646,20.013,8.605,20.013,8.605l1.178-4.18-16.143-10.871s-.561-2.777-1.519-6.56l-5.127,2.21Z" transform="translate(-1316.287 -1043.5)"/><path class="bo" d="M1345.365,1054.123l9.763-4.456a97.429,97.429,0,0,0-3.288-10.139c-1.178-2.932-2.466-5.358-3.789-6.531a9.22,9.22,0,0,0-3.508-2.025,4.3,4.3,0,0,0-5.358,2.992c0,.01-.005.015-.005.025C1338.3,1037.413,1341.731,1046.514,1345.365,1054.123Z" transform="translate(-1304.437 -1009.407)"/><path class="br" d="M1387.992,990.106c6.128.811,5.986-1.3,5.986-1.3s-.619-2.128-5.918-1.521c-.006.261-.006.533-.011.823C1388.038,988.727,1388.021,989.4,1387.992,990.106Z" transform="translate(-1334.163 -982.917)"/><path class="n" d="M1365.152,991.732c.959.959,1.651,2.8,2.252,2.673.783-.171.272-1.9.494-2.815a2.2,2.2,0,0,1,.823-1.072C1367.637,990.847,1366.451,991.244,1365.152,991.732Z" transform="translate(-1320.293 -984.945)"/><path class="bo" d="M1359.009,984.092c-.012-.908.369-1.589,1.157-1.532a1.652,1.652,0,0,1,1.021.556h.006c1.3-.488,2.485-.885,3.569-1.214a31.222,31.222,0,0,1,5.469-1.2c5.3-.607,5.918,1.521,5.918,1.521s.306-1.18-1.464-1.963a10.591,10.591,0,0,0-4.46-.448c-.187.017-.295.028-.295.028a7.1,7.1,0,0,0-1.543-1.992,5.711,5.711,0,0,0-2.428-1.345c-2.729-.709-6.1.9-6.95,2.86S1359.009,984.092,1359.009,984.092Z" transform="translate(-1316.335 -976.329)"/><path class="n" d="M1362.147,1002.826l1.413,4.125a11.238,11.238,0,0,1,1.708-2.684A3.717,3.717,0,0,1,1362.147,1002.826Z" transform="translate(-1318.469 -992.42)"/><rect class="bv" width="3.69" height="92.939" transform="translate(81.546 69.353) rotate(-27.454)"/><path class="bv" d="M0,0H4A0,0,0,0,1,4,0V48.765a2,2,0,0,1-2,2H2a2,2,0,0,1-2-2V0A0,0,0,0,1,0,0Z" transform="translate(124.271 150.577) rotate(-117.454)"/><g transform="translate(107.491 91.193)"><rect class="z" width="44.87" height="38.573" transform="matrix(-0.889, 0.458, -0.458, -0.889, 57.553, 34.289)"/><rect class="ad" width="8.309" height="10.365" transform="translate(28.384 17.586) rotate(152.743)"/><rect class="ad" width="8.309" height="7.347" transform="matrix(-0.889, 0.458, -0.458, -0.889, 41.303, 42.662)"/><rect class="bw" width="7.741" height="4.286" transform="matrix(-0.889, 0.458, -0.458, -0.889, 54.842, 33.325)"/></g><g transform="translate(92.254 60.294)"><rect class="z" width="47.453" height="33.39" transform="translate(57.507 29.622) rotate(152.516)"/><rect class="ad" width="8.788" height="8.972" transform="translate(29.087 16.881) rotate(152.516)"/><rect class="ad" width="8.788" height="6.36" transform="translate(40.356 38.544) rotate(152.517)"/><rect class="bx" width="8.186" height="3.71" transform="translate(54.822 28.97) rotate(152.517)"/><rect class="by" width="8.186" height="3.71" transform="translate(14.696 21.402) rotate(152.517)"/></g><circle class="bv" cx="7.612" cy="7.612" r="7.612" transform="translate(117.262 145.189)"/><circle class="bz" cx="4.386" cy="4.386" r="4.386" transform="translate(118.672 152.801) rotate(-45)"/><path class="bv" d="M1436.35,1135.577a37.013,37.013,0,0,0,2.686,3.594l.757.4,5.283,2.817,3.273-1.7-8.956-5.107Z" transform="translate(-1363.529 -1073.034)"/><path class="ca" d="M1429.254,1144.778v.311l.581-.035C1429.64,1144.963,1429.444,1144.868,1429.254,1144.778Z" transform="translate(-1359.22 -1078.621)"/><path class="cb" d="M1424.1,1135.507s.9.542,2.025,1.1c.191.09.386.185.582.276a9.123,9.123,0,0,0,3.082.967,3.218,3.218,0,0,0,2.566-.862l-.757-.4a37.016,37.016,0,0,1-2.687-3.594h2.225a8.793,8.793,0,0,0-1-.877c-.316-.19-4.857-.792-4.857-.792Z" transform="translate(-1356.089 -1070.453)"/></g><rect class="ad" width="7.07" height="5.433" transform="translate(122.257 328.724) rotate(180)"/></g></g><text class="cc" transform="translate(649.5 232)"><tspan x="0" y="51">შეიძინე და მიიღე </tspan><tspan x="0" y="101">ყველგან, სადაც </tspan><tspan x="0" y="151">გაგიხარდება</tspan></text><g transform="translate(741.134 36.725)"><g transform="translate(50 68.56)"><path class="bv" d="M163.607,112.133l-7.441,5.406,8.052,24.782,7.441-5.406Z" transform="translate(-115.363 -82.834)"/><path class="cd" d="M43.18,171.61l7.441,5.406,13.64-9.91,13.639,9.91,7.441-5.406L64.261,156.294Z" transform="translate(-31.898 -115.457)"/><path class="bl" d="M0,82.953l13.64,9.91L8.43,108.9l7.442,5.406,8.052-24.782L2.842,74.205Z" transform="translate(0 -54.817)"/><path class="ce" d="M29.083,0l-5.21,16.034H7.014L4.172,24.782H30.229L38.281,0Z" transform="translate(-3.082 0)"/><path class="cf" d="M113.008,0l8.053,24.782h26.057l-2.843-8.748H127.416L122.205,0Z" transform="translate(-83.481 0)"/><g class="cg"><path class="ch" d="M113.349,70.115l-2.842-8.748L82.075,82.023,70.137,73.35,67.3,82.1l14.78,10.738Z" transform="translate(-49.712 -45.333)"/><path class="n" d="M267.529,82.186a11.263,11.263,0,0,0-11.42,11.42,11.51,11.51,0,0,0,11.77,11.683c5.032,0,9.451-3.238,10.676-7.088L272.6,97.194a5.536,5.536,0,0,1-4.682,2.363c-2.932,0-4.988-1.531-5.076-3.85h16.1V94.043c0-6.651-4.769-11.857-11.42-11.857m-4.682,8.926c.087-1.663,2.232-3.194,4.682-3.194,2.538,0,4.463,1.488,4.638,3.194Z" transform="translate(-189.193 -60.712)"/><path class="n" d="M355.776,90.468l-4.507-5.937h-7.745v.35l8.138,10.545-7.438,10.633v.35h7.613l3.938-5.616,3.938,5.616h7.657v-.438L360.02,95.426l8.094-10.545v-.35h-7.832Z" transform="translate(-253.768 -62.445)"/><path class="n" d="M447.832,61.086h-1.356L437.637,72.55v.612h3.369v3.194c0,8.532,6.563,13.039,14,13.039V82.7c-3.807-.044-7.264-1.925-7.264-6.344V73.162h7.264v-5.95h-7.176Z" transform="translate(-323.291 -45.125)"/><path class="n" d="M528.733,87.458h-.044V83.17l-6.65-.044v21.921h6.65V99.009A9.829,9.829,0,0,1,538.8,88.814l-2.1-6.125c-2.407,0-6.476,1.619-7.964,4.769" transform="translate(-385.64 -61.084)"/><path class="n" d="M606.588,82.52v2.1a9.306,9.306,0,0,0-6.728-2.674c-5.541,0-10.335,5.058-10.335,11.522,0,6.509,4.794,11.654,10.335,11.654a9.114,9.114,0,0,0,6.728-2.833v2.217h6.333V82.52Zm-5.013,16.535a5.564,5.564,0,0,1,0-11.126c3.034,0,5.013,2.463,5.013,5.541,0,3.123-1.979,5.585-5.013,5.585" transform="translate(-435.493 -60.537)"/><rect class="n" width="6.948" height="6.992" transform="translate(180.639 36.979)"/><path class="n" d="M743.428,82.52v2.1a9.3,9.3,0,0,0-6.729-2.677c-5.54,0-10.334,5.057-10.334,11.522,0,6.508,4.794,11.654,10.334,11.654a9.081,9.081,0,0,0,6.333-2.45v1.7c0,2.331-2.2,4.31-5.145,4.31a5.411,5.411,0,0,1-4.618-2.375l-6.069,1.1c1.231,3.87,5.673,7.124,10.73,7.124a11.569,11.569,0,0,0,11.83-11.742V82.52Zm-5.013,16.535a5.563,5.563,0,0,1,0-11.126c3.035,0,5.013,2.463,5.013,5.541,0,3.122-1.979,5.585-5.013,5.585" transform="translate(-536.58 -60.537)"/><path class="n" d="M841.978,90.751c-.176-1.715-2.111-3.21-4.662-3.21-2.462,0-4.617,1.539-4.705,3.21Zm-9.367,4.617c.088,2.331,2.155,3.87,5.1,3.87a5.563,5.563,0,0,0,4.706-2.375l5.981,1.012c-1.232,3.87-5.673,7.124-10.73,7.124a11.568,11.568,0,0,1-11.83-11.741A11.321,11.321,0,0,1,837.316,81.78c6.685,0,11.478,5.233,11.478,11.918v1.671Z" transform="translate(-610.062 -60.412)"/></g></g></g><g transform="translate(-901.106 -37.87)"><g class="dp" transform="matrix(1, 0, 0, 1, 901.11, 37.87)"><path class="ci" d="M969.169,117.12l-3.53,22.745,18.182-5.878,3.207-20.655Z" transform="translate(-901.11 -37.87)"/></g><g class="do" transform="matrix(1, 0, 0, 1, 901.11, 37.87)"><path class="cj" d="M969.169,117.12l-16-9.046-3.207,20.655,15.677,11.135Z" transform="translate(-901.11 -37.87)"/></g><path class="ck" d="M953.17,108.074l18.011-3.9,15.848,9.154-17.859,3.788Z"/><path class="cl" d="M955.384,132.608l3.379-21.364,17.406-4.221,3.428,2.015-17.13,4.291-3.487,21.8Z"/><path class="cm" d="M958.763,111.244l3.7,2.086-3.487,21.8-3.6-2.526Z"/><path class="cn" d="M977.45,136.035l3.259-21.383-15.306-9.3-3.878.881,15.022,9.284-3.289,21.835Z"/><path class="co" d="M980.708,114.652l-4.162.865-3.3,21.888,4.2-1.357Z"/><path class="as" d="M967.636,110.475l-15.173-33.14.238-.109,14.076,30.743L955.2,74.2l.247-.085,12.43,36.266Z"/><path class="as" d="M973.42,110.946l-.137-.223,31.464-21.9.15.215-29.644,20.637,28.771-15.358.123.231Z"/><path class="cp" d="M1005.264,93.235a1.76,1.76,0,0,1-.9,1.067c-.084.041-.173.082-.273.127a22.151,22.151,0,0,1-9.148,1.558,52.392,52.392,0,0,1-12.858-1.872c-1.686-.439-3.477-.969-5.375-1.6l-.893-.269v0q-1.812-.589-3.446-1.2a58.115,58.115,0,0,1-11.606-5.7l-.005,0a28.063,28.063,0,0,1-6.836-6.022l-.005,0a13.314,13.314,0,0,1-1.333-2.029,1.754,1.754,0,0,1-.1-1.4c7.04-20.22,23.905-18.091,30.772-16.266.007-.024.01-.041.01-.041l.775.261c1.1.32,1.836.6,2.1.7l.555.187.324.107.045.014.127.023a.344.344,0,0,1,.056,0l.1.015c.008,0,.014,0,.019,0a.126.126,0,0,1,.027.006h0a31.032,31.032,0,0,1,3.107,1.106C997.256,64.759,1011.508,73.12,1005.264,93.235Z"/><path class="cq" d="M982.08,94.115c-1.686-.439-3.477-.969-5.375-1.6l-.893-.269v0q-1.812-.589-3.446-1.2c3.82-23.3,14.345-29.746,14.987-30.121l.032-.018a.226.226,0,0,1,.014.03C987.69,61.571,992.528,72.93,982.08,94.115Z"/><path class="cd" d="M987.386,60.9c-.114,0-.229,0-.342.007-20.007.462-25.662,21.775-26.288,24.429a28.063,28.063,0,0,1-6.836-6.022c8.725-20.8,28.738-19.1,32.755-18.528.133.016.247.035.342.051s.17.025.228.038l.1.015c.008,0,.014,0,.019,0A.126.126,0,0,1,987.386,60.9Z"/><path class="cr" d="M994.938,95.987c1.379-3.5,8.23-23.233-7.277-34.882-.089-.07-.179-.137-.272-.2.031.013.261.119.642.321,3.55,1.845,20.383,11.847,16.055,33.208A22.151,22.151,0,0,1,994.938,95.987Z"/></g><g transform="translate(-440.759 157.383) rotate(-15)"><g transform="translate(949.962 146.667)"><g class="dn" transform="matrix(0.97, 0.26, -0.26, 0.97, -483.49, -184.61)"><path class="ci" d="M972.453,120.644l-6.813,43.9,35.1-11.345,6.191-39.87Z" transform="translate(-413.47 202.88) rotate(-15)"/></g><g class="dm" transform="matrix(0.97, 0.26, -0.26, 0.97, -483.49, -184.61)"><path class="cj" d="M987.037,125.535l-30.884-17.461-6.191,39.87,30.261,21.494Z" transform="translate(-428.82 201.93) rotate(-15)"/></g><path class="ck" d="M953.17,111.7l34.766-7.521,30.591,17.669-34.474,7.312Z" transform="translate(-946.979 -104.178)"/><g transform="translate(10.465 5.493)"><path class="cl" d="M955.384,156.409l6.522-41.238,33.6-8.147,6.618,3.89L969.056,119.2l-6.73,42.088Z" transform="translate(-955.384 -107.024)"/><path class="cm" d="M961.906,111.244l7.15,4.026-6.73,42.088-6.941-4.876Z" transform="translate(-955.384 -103.098)"/></g><g transform="translate(22.317 2.266)"><path class="cn" d="M992.265,164.578l6.29-41.274L969.01,105.352l-7.486,1.7,29,17.92-6.349,42.147Z" transform="translate(-961.524 -105.352)"/><path class="co" d="M987.647,114.652l-8.034,1.669L973.25,158.57l8.1-2.619Z" transform="translate(-950.616 -96.7)"/></g></g><g transform="translate(954.637 58.505)"><g transform="translate(0.152 30.126)"><path class="as" d="M981.752,144.3,952.463,80.334l.459-.21,27.171,59.343L957.75,74.275l.477-.164,23.993,70Z" transform="translate(-952.463 -74.112)"/></g><g transform="translate(40.342 58.515)"><path class="as" d="M973.547,131.53l-.264-.43,60.734-42.282.289.415-57.221,39.836,55.537-29.645.238.445Z" transform="translate(-973.284 -88.819)"/></g><path class="cp" d="M1054.458,125.544a3.4,3.4,0,0,1-1.747,2.06c-.162.079-.334.158-.527.245-2.66,1.2-8.3,3.05-17.658,3.007a101.132,101.132,0,0,1-24.819-3.614c-3.255-.847-6.712-1.87-10.375-3.092l-1.724-.519,0-.006q-3.5-1.138-6.652-2.32a112.18,112.18,0,0,1-22.4-11l-.01,0a54.171,54.171,0,0,1-13.2-11.624l-.01-.008a25.715,25.715,0,0,1-2.573-3.917,3.385,3.385,0,0,1-.187-2.7c13.589-39.03,46.144-34.921,59.4-31.4a.767.767,0,0,0,.019-.079l1.5.5c2.117.618,3.544,1.16,4.046,1.361l1.071.361.625.207.087.027.245.044a.666.666,0,0,1,.108,0l.184.029c.015.006.027,0,.036.008a.246.246,0,0,1,.052.012h.006a59.893,59.893,0,0,1,6,2.135C1039,70.577,1066.51,86.716,1054.458,125.544Z" transform="translate(-952.384 -58.505)"/><path class="cs" d="M991.116,125.014c-3.255-.847-6.712-1.87-10.375-3.092l-1.724-.519,0-.006q-3.5-1.138-6.652-2.32c7.374-44.981,27.69-57.418,28.929-58.142.042-.025.062-.035.062-.035a.435.435,0,0,1,.027.058C1001.945,62.2,1011.284,84.121,991.116,125.014Z" transform="translate(-933.794 -56.277)"/><path class="az" d="M1018.519,61.276c-.22,0-.442,0-.66.014-38.619.892-49.535,42.032-50.743,47.155a54.169,54.169,0,0,1-13.2-11.624c16.842-40.154,55.473-36.867,63.226-35.764.257.031.477.068.66.1s.328.048.44.073l.183.029c.016.006.027,0,.037.008A.243.243,0,0,1,1018.519,61.276Z" transform="translate(-950.956 -56.653)"/><path class="ct" d="M1001.961,128.628c2.662-6.758,15.886-44.846-14.047-67.332-.172-.135-.346-.264-.525-.4.06.025.5.23,1.239.62,6.852,3.561,39.345,22.868,30.991,64.1C1016.959,126.821,1011.319,128.67,1001.961,128.628Z" transform="translate(-919.82 -56.277)"/></g></g><g transform="translate(-367.668 879.389) rotate(-24)"><g transform="translate(981.731 317.086)"><g class="dl" transform="matrix(0.91, 0.41, -0.41, 0.91, -288.17, -970.9)"><path class="ci" d="M1054.347,388.956l-9.982,77.424,61.134-21.515,9.071-70.311Z" transform="translate(-386.76 857.44) rotate(-24)"/></g><g class="dk" transform="matrix(0.91, 0.41, -0.41, 0.91, -288.17, -970.9)"><path class="cj" d="M1046.074,386.683l-55.036-29.272-9.071,70.311,54.125,36.385Z" transform="translate(-378.27 856.15) rotate(-24)"/></g><path class="ck" d="M992.424,355.151l60.726-14.783,54.532,29.652-60.222,14.4Z" transform="translate(-983.354 -340.369)"/><g transform="translate(18.72 9.214)"><path class="cl" d="M1003.548,439.549l9.591-72.729,58.645-15.829,11.8,6.533-57.705,16.045-9.918,74.23Z" transform="translate(-1003.548 -350.991)"/><path class="cm" d="M1013.139,369.239l12.74,6.749-9.918,74.231-12.413-8.25Z" transform="translate(-1003.548 -353.41)"/></g><g transform="translate(37.236 4.485)"><path class="cn" d="M1081.491,448.517l9.182-72.782-52.708-30.2-13.071,3.324,51.743,30.165-9.246,74.317Z" transform="translate(-1024.894 -345.54)"/><path class="co" d="M1097.165,380.35l-14.036,3.294-9.267,74.5,14.115-4.968Z" transform="translate(-1031.386 -350.155)"/></g></g><g transform="translate(980.184 164.749)"><g transform="translate(0.588 58.754)"><path class="as" d="M1042.351,348.163l-61.49-104.02.747-.441,57.042,96.5L988.806,232.848l.786-.365,53.525,115.277Z" transform="translate(-980.861 -232.483)"/></g><g transform="translate(80.785 90.197)"><path class="as" d="M1073.842,352.522l-.527-.687,96.166-83.1.568.656-90.6,78.3L1169,287.1l.486.718Z" transform="translate(-1073.315 -268.732)"/></g><path class="cp" d="M1160.364,269.328a5.833,5.833,0,0,1-2.615,3.831c-.261.163-.542.331-.854.512-4.328,2.528-13.633,6.7-29.624,8.3-11,1.1-25.155.983-43.043-1.725q-8.564-1.295-18.277-3.424l-3.037-.578,0-.009q-6.177-1.319-11.777-2.774c-17.062-4.4-30.185-9.6-40.238-14.782l-.018,0c-12.287-6.35-19.977-12.665-24.621-17.493-.01,0-.007-.011-.016-.013a44,44,0,0,1-5.1-6.227,5.824,5.824,0,0,1-.8-4.574c16.22-69.1,72.564-67.916,95.834-64.272a.82.82,0,0,0,.019-.138l2.646.592c3.726.674,6.261,1.346,7.154,1.6l1.9.425,1.1.239.154.033.427.032a1.293,1.293,0,0,1,.184-.018c.14.01.243.013.317.019.027.006.047,0,.065,0a.9.9,0,0,1,.093.01l.009,0a102.593,102.593,0,0,1,10.628,2.571C1124.113,178.206,1174,200.847,1160.364,269.328Z" transform="translate(-980.183 -164.749)"/><path class="cu" d="M1095.072,280.88q-8.564-1.295-18.277-3.424l-3.037-.578,0-.009q-6.176-1.319-11.777-2.774c4.537-78.154,37.012-103.038,39-104.494.068-.052.1-.074.1-.074s.021.033.055.1C1102.314,171.638,1122.2,207.418,1095.072,280.88Z" transform="translate(-991.028 -165.382)"/><path class="cv" d="M1091.166,169.5c-.378.044-.756.089-1.127.143-65.807,8.444-77.083,80.67-78.23,89.639-12.287-6.35-19.977-12.665-24.621-17.493,21.574-71.606,88.149-72.912,101.594-72.419.442.008.825.03,1.142.049s.572.025.766.047c.14.01.243.013.318.019.027.006.047,0,.065,0A.913.913,0,0,1,1091.166,169.5Z" transform="translate(-981.112 -165.354)"/><path class="cw" d="M1144.092,282.606c3.334-12.018,19.1-79.449-36.058-112.5-.317-.2-.637-.389-.966-.579.107.031.9.3,2.227.834,12.344,4.858,71.3,32.015,64.422,103.94C1169.388,276.832,1160.083,281,1144.092,282.606Z" transform="translate(-997.005 -165.383)"/></g></g><g transform="translate(119.118 290.251)"><g transform="translate(981.485 292.852)"><g class="dj" transform="matrix(1, 0, 0, 1, -1100.6, -583.1)"><path class="ci" d="M1052.759,386.664l-8.394,65.108,51.408-18.093,7.628-59.126Z" transform="translate(101.75 233.49)"/></g><g class="di" transform="matrix(1, 0, 0, 1, -1100.6, -583.1)"><path class="cj" d="M1035.876,382.026,989.6,357.411l-7.628,59.126,45.515,30.6Z" transform="translate(118.64 238.12)"/></g><path class="ck" d="M992.424,352.8l51.066-12.431,45.857,24.935-50.642,12.111Z" transform="translate(-984.797 -340.369)"/><g transform="translate(15.742 7.748)"><path class="cl" d="M1003.548,425.461l8.065-61.16,49.316-13.311,9.923,5.494-48.526,13.493-8.34,62.422Z" transform="translate(-1003.548 -350.991)"/><path class="cm" d="M1011.614,369.239l10.713,5.675-8.34,62.422-10.438-6.938Z" transform="translate(-1003.548 -355.928)"/></g><g transform="translate(31.312 3.772)"><path class="cn" d="M1072.488,432.136l7.721-61.2-44.323-25.392-10.992,2.8,43.512,25.367-7.775,62.5Z" transform="translate(-1024.894 -345.54)"/><path class="co" d="M1093.458,380.35l-11.8,2.77-7.793,62.647,11.87-4.177Z" transform="translate(-1038.143 -354.958)"/></g></g><g transform="translate(980.184 164.749)"><g transform="translate(0.495 49.408)"><path class="as" d="M1032.57,329.761l-51.708-87.473.628-.371,47.968,81.146L987.542,232.79l.661-.307,45.011,96.939Z" transform="translate(-980.862 -232.483)"/></g><g transform="translate(67.934 75.849)"><path class="as" d="M1073.759,339.193l-.443-.578,80.869-69.883.477.552-76.19,65.841,75.307-50.949.409.6Z" transform="translate(-1073.315 -268.732)"/></g><path class="cp" d="M1131.7,252.692a4.906,4.906,0,0,1-2.2,3.221c-.219.137-.456.279-.719.43-3.64,2.126-11.464,5.633-24.912,6.981-9.248.921-21.153.826-36.2-1.451q-7.2-1.089-15.37-2.879l-2.554-.486V258.5q-5.194-1.11-9.9-2.333a161.851,161.851,0,0,1-33.837-12.43l-.015,0c-10.333-5.34-16.8-10.65-20.7-14.711-.008,0-.006-.009-.014-.011a37.012,37.012,0,0,1-4.288-5.237,4.9,4.9,0,0,1-.675-3.846c13.64-58.111,61.021-57.112,80.589-54.048a.688.688,0,0,0,.016-.116l2.226.5c3.133.567,5.265,1.132,6.016,1.344l1.594.357.928.2.13.028.359.027a1.078,1.078,0,0,1,.155-.015c.117.009.2.011.267.016.023.005.04,0,.055,0a.753.753,0,0,1,.078.008l.008,0a86.3,86.3,0,0,1,8.937,2.162C1101.217,176.065,1143.166,195.1,1131.7,252.692Z" transform="translate(-980.183 -164.749)"/><path class="cx" d="M1089.808,263.166q-7.2-1.089-15.37-2.879l-2.554-.486v-.007q-5.194-1.11-9.9-2.333c3.815-65.721,31.124-86.647,32.8-87.872.057-.044.084-.062.084-.062s.018.028.047.082C1095.9,171.3,1112.617,201.391,1089.808,263.166Z" transform="translate(-1002.315 -166.042)"/><path class="bl" d="M1074.626,169.471c-.318.037-.636.074-.947.12-55.339,7.1-64.821,67.838-65.785,75.38-10.332-5.34-16.8-10.65-20.7-14.711,18.142-60.215,74.126-61.313,85.432-60.9.372.007.694.026.96.042s.481.021.644.039c.117.009.2.011.267.016.022.005.039,0,.055,0A.754.754,0,0,1,1074.626,169.471Z" transform="translate(-982.079 -165.984)"/><path class="cy" d="M1138.2,264.618c2.8-10.106,16.062-66.811-30.322-94.6-.267-.167-.536-.327-.812-.487.09.026.758.253,1.872.7,10.38,4.086,59.962,26.922,54.174,87.405C1159.474,259.763,1151.65,263.271,1138.2,264.618Z" transform="translate(-1014.514 -166.043)"/></g></g><g transform="translate(291.196 -182.938)"><g transform="translate(828.538 180.362)"><g class="dh" transform="matrix(1, 0, 0, 1, -1119.73, 2.58)"><path class="ci" d="M881.608,238.622l5.69,34.642,23.56-17.157-5.165-31.46Z" transform="translate(265.61 -221.49)"/></g><g class="dg" transform="matrix(1, 0, 0, 1, -1119.73, 2.58)"><path class="cj" d="M866.933,243.142l-27.486-5.509,5.165,31.46,28.012,8.691Z" transform="translate(280.29 -226.01)"/></g><path class="ck" d="M839.447,230.049l24.253-14.2,27.318,5.738-24.085,13.975Z" transform="translate(-839.447 -215.845)"/><g transform="translate(9.612 1.755)"><path class="cl" d="M859.444,265.493l-5.253-32.569,23.222-14.386,5.926,1.292-22.789,14.358,5.305,33.258Z" transform="translate(-854.191 -218.537)"/><path class="cm" d="M854.191,240.6l6.359,1.264,5.305,33.258-6.412-1.953Z" transform="translate(-854.191 -226.218)"/></g><g transform="translate(11.234 4.447)"><path class="cn" d="M893.918,261.413l-5.436-32.539-26.6-6.207-5.2,3.119,26.183,6.319,5.606,33.209Z" transform="translate(-856.678 -222.667)"/><path class="co" d="M902.462,232.188l-5.622,3.23,5.621,33.289,5.44-3.961Z" transform="translate(-870.658 -225.981)"/></g></g><g transform="translate(808.106 113.902)"><g transform="translate(1.465 39.001)"><path class="as" d="M851.852,212.5l-41.5-32.647.235-.3,38.5,30.286L811.8,174l.262-.273L852.1,212.219Z" transform="translate(-810.353 -173.727)"/></g><g transform="translate(50.404 25.298)"><path class="as" d="M885.745,201.964l-.323-.2,26.03-49.06.335.178-24.524,46.222,26.9-38.843.312.216Z" transform="translate(-885.422 -152.707)"/></g><path class="cp" d="M888.13,144.549a2.55,2.55,0,0,1-.46,1.974c-.08.108-.168.22-.267.343-1.364,1.715-4.494,4.886-10.755,8.067a75.828,75.828,0,0,1-17.806,6.1q-3.694.828-7.987,1.5l-1.328.244v0q-2.725.44-5.236.733a84.138,84.138,0,0,1-18.729.343h-.008a40.682,40.682,0,0,1-12.8-3.232s0,0-.008,0a19.224,19.224,0,0,1-3.062-1.73,2.547,2.547,0,0,1-1.05-1.736c-4.322-30.714,18.818-39.141,28.873-41.337a.362.362,0,0,0-.014-.059l1.172-.177c1.625-.315,2.763-.442,3.167-.48l.84-.126.488-.077.068-.011.179-.055a.633.633,0,0,1,.072-.037c.059-.018.1-.033.132-.042.012,0,.02-.007.027-.008a.344.344,0,0,1,.039-.01h0a44.94,44.94,0,0,1,4.736-.634C858.952,113.163,882.853,114.5,888.13,144.549Z" transform="translate(-808.106 -113.902)"/><path class="cz" d="M875.5,161.477q-3.694.828-7.987,1.5l-1.328.244v0q-2.725.44-5.236.733c-10.512-32.553-1.219-47.825-.64-48.733.02-.032.029-.046.029-.046a.426.426,0,0,1,.038.031C861.175,115.834,874.933,127.264,875.5,161.477Z" transform="translate(-824.765 -114.343)"/><path class="ch" d="M846.075,115.169c-.147.078-.294.155-.436.236-25.47,13.848-18.641,45.052-17.689,48.887a40.681,40.681,0,0,1-12.8-3.232c-2.537-32.58,24.375-43.641,29.93-45.566.182-.067.342-.118.474-.16s.237-.08.319-.1c.059-.018.1-.033.132-.042.012,0,.02-.007.027-.008A.345.345,0,0,1,846.075,115.169Z" transform="translate(-810.501 -114.343)"/><path class="da" d="M895.645,155.365c-.542-5.423-4.784-35.384-32.479-40.121-.161-.031-.321-.057-.486-.083.049,0,.415-.02,1.039-.012,5.8.027,34.109,1.764,42.68,32.15C905.036,149.013,901.905,152.184,895.645,155.365Z" transform="translate(-827.102 -114.335)"/></g></g><g transform="translate(-1030.45 774.233) rotate(-21)"><g transform="translate(949.962 165.054)"><g class="df" transform="matrix(0.93, 0.36, -0.36, 0.93, 289.51, -518.58)"><path class="ci" d="M973.874,122.169l-8.234,53.06,42.416-13.712,7.482-48.185Z" transform="translate(-984.75 834.97) rotate(-21)"/></g><g class="de" transform="matrix(0.93, 0.36, -0.36, 0.93, 289.51, -518.58)"><path class="cj" d="M994.769,129.176l-37.325-21.1-7.482,48.186,36.572,25.976Z" transform="translate(-1006.77 835.91) rotate(-21)"/></g><path class="ck" d="M953.17,113.267l42.017-9.089,36.971,21.354-41.664,8.837Z" transform="translate(-945.688 -104.178)"/><g transform="translate(12.648 6.639)"><path class="cl" d="M955.384,166.709l7.882-49.839,40.6-9.846,8,4.7-39.962,10.011L963.773,172.6Z" transform="translate(-955.384 -107.024)"/><path class="cm" d="M963.266,111.244l8.641,4.866-8.134,50.865-8.389-5.893Z" transform="translate(-955.384 -101.398)"/></g><g transform="translate(26.972 2.739)"><path class="cn" d="M998.676,176.93l7.6-49.882-35.707-21.7-9.047,2.055,35.045,21.658L988.9,180Z" transform="translate(-961.524 -105.352)"/><path class="co" d="M990.65,114.652l-9.709,2.017L973.25,167.73l9.794-3.166Z" transform="translate(-945.896 -92.957)"/></g></g><g transform="translate(955.612 58.505)"><g transform="translate(0.184 36.409)"><path class="as" d="M987.86,158.942l-35.4-77.31.555-.254L985.855,153.1l-27-78.787.577-.2,29,84.6Z" transform="translate(-952.463 -74.112)"/></g><g transform="translate(48.756 70.718)"><path class="as" d="M973.6,140.438l-.319-.519,73.4-51.1.349.5-69.154,48.144L1045,101.637l.288.538Z" transform="translate(-973.284 -88.819)"/></g><path class="cp" d="M1075.746,139.525a4.107,4.107,0,0,1-2.111,2.489c-.2.1-.4.191-.637.3-3.215,1.451-10.031,3.686-21.341,3.635a122.226,122.226,0,0,1-30-4.367c-3.933-1.024-8.111-2.261-12.539-3.737l-2.083-.628,0-.007q-4.227-1.375-8.039-2.8a135.57,135.57,0,0,1-27.075-13.3l-.012,0c-8.135-5.345-13.052-10.33-15.948-14.048l-.012-.009a31.058,31.058,0,0,1-3.11-4.733,4.091,4.091,0,0,1-.226-3.259c16.423-47.17,55.767-42.2,71.787-37.946.016-.056.023-.1.023-.1l1.808.609c2.559.747,4.283,1.4,4.89,1.645l1.295.436.756.25.1.033.3.054a.8.8,0,0,1,.131,0l.222.035c.019.007.032,0,.044.009a.288.288,0,0,1,.063.014h.007a72.41,72.41,0,0,1,7.248,2.58C1057.064,73.095,1090.312,92.6,1075.746,139.525Z" transform="translate(-952.384 -58.505)"/><path class="db" d="M995.026,138.386c-3.933-1.024-8.111-2.261-12.539-3.737l-2.083-.628,0-.007q-4.227-1.375-8.039-2.8c8.911-54.363,33.465-69.393,34.962-70.268.051-.03.075-.042.075-.042a.519.519,0,0,1,.033.07C1008.114,62.465,1019.4,88.964,995.026,138.386Z" transform="translate(-925.75 -55.313)"/><path class="dc" d="M1031.991,61.439c-.266,0-.534,0-.8.016-46.674,1.078-59.866,50.8-61.326,56.989-8.135-5.345-13.052-10.33-15.948-14.048,20.354-48.528,67.042-44.555,76.413-43.223.31.037.576.082.8.119s.4.058.532.089l.222.035c.019.007.033,0,.044.009A.291.291,0,0,1,1031.991,61.439Z" transform="translate(-950.337 -55.852)"/><path class="dd" d="M1005,142.753c3.217-8.167,19.2-54.2-16.976-81.375-.208-.163-.418-.32-.635-.478.072.03.609.278,1.5.749,8.282,4.3,47.551,27.637,37.454,77.47C1023.126,140.569,1016.31,142.8,1005,142.753Z" transform="translate(-905.728 -55.313)"/></g></g></g></svg>