<svg xmlns="http://www.w3.org/2000/svg" xmlns:xlink="http://www.w3.org/1999/xlink" width="199.992" height="45" viewBox="0 0 199.992 45"><defs><style>.a,.d,.n{fill:none;}.b{fill:#0af;}.c{fill:#7a1dff;}.d{stroke:#0af;stroke-miterlimit:10;}.e{fill:#f72163;}.f{fill:#fd5601;}.g{fill:#ffc208;}.h{fill:#9de411;}.i{fill:#161e3f;}.j{clip-path:url(#a);}.k{fill:#f26522;}.l{fill:#e51b24;}.m{fill:#f99f1c;}.n{stroke:#161e3f;stroke-linecap:round;stroke-width:2px;}</style><clipPath id="a"><rect class="a" width="57.643" height="45"/></clipPath></defs><g transform="translate(-942 -12.774)"><g transform="translate(942 18.061)"><path class="b" d="M1277.426,450.234l-4.233,3.075,4.58,14.1,4.233-3.075Z" transform="translate(-1249.985 -433.998)"/><path class="c" d="M1264.793,464.354l-7.758,5.636-4.233-3.075,11.991-8.711,11.99,8.712-4.233,3.075Z" transform="translate(-1246.386 -435.405)"/><path class="d" d="M1246.973,443.39" transform="translate(-1245.357 -432.497)"/><path class="e" d="M1246.627,443.39l11.99,8.712-4.58,14.1-4.233-3.075,2.963-9.12-7.758-5.637Z" transform="translate(-1245.01 -432.79)"/><path class="d" d="M1287.754,443.39" transform="translate(-1252.555 -432.497)"/><path class="f" d="M1256.969,439.118l2.964-9.12h5.232l-4.58,14.1h-14.821l1.617-4.976Z" transform="translate(-1245.143 -429.998)"/><path class="g" d="M1273.6,439.118l-2.964-9.12H1265.4l4.58,14.1h14.821l-1.617-4.976Z" transform="translate(-1248.61 -429.998)"/><path class="h" d="M1283.35,446.048l-1.617-4.975-16.17,11.749-6.791-4.933-1.616,4.975,8.407,6.109Z" transform="translate(-1247.154 -432.181)"/><g transform="translate(37.607 8.871)"><path class="i" d="M1297.726,444.83a6.407,6.407,0,0,0-6.5,6.5,6.547,6.547,0,0,0,6.695,6.645,6.409,6.409,0,0,0,6.072-4.032l-3.385-.572a3.149,3.149,0,0,1-2.663,1.344c-1.668,0-2.837-.871-2.887-2.19h9.159v-.945A6.466,6.466,0,0,0,1297.726,444.83Zm-2.663,5.077c.05-.945,1.27-1.817,2.663-1.817a2.455,2.455,0,0,1,2.638,1.817Z" transform="translate(-1291.23 -441.694)"/><path class="i" d="M1313.974,448.63l-2.563-3.377h-4.405v.2l4.629,6L1307.4,457.5v.2h4.33l2.24-3.194,2.24,3.194h4.355v-.249l-4.181-6,4.6-6v-.2h-4.455Z" transform="translate(-1294.015 -441.769)"/><path class="i" d="M1329.789,441.022h-.771l-5.027,6.52v.348h1.916v1.817c0,4.854,3.733,7.416,7.964,7.416v-3.807c-2.166-.026-4.131-1.1-4.131-3.609v-1.817h4.131v-3.384h-4.082Z" transform="translate(-1297.013 -441.022)"/><path class="i" d="M1343.03,447.634h-.025v-2.439l-3.782-.025v12.468h3.782V454.2a5.59,5.59,0,0,1,5.75-5.8l-1.195-3.484A5.465,5.465,0,0,0,1343.03,447.634Z" transform="translate(-1299.702 -441.71)"/><path class="i" d="M1361.108,445.112v1.2a5.293,5.293,0,0,0-3.828-1.521c-3.151,0-5.878,2.876-5.878,6.553,0,3.7,2.727,6.629,5.878,6.629a5.185,5.185,0,0,0,3.828-1.612v1.262h3.6V445.112Zm-2.852,9.4a3.164,3.164,0,0,1,0-6.328,3.181,3.181,0,0,1,0,6.328Z" transform="translate(-1301.852 -441.687)"/></g></g><g transform="translate(1084.349 12.774)"><g class="j" transform="translate(0 0)"><path d="M475.123,303.4V300.4a1.728,1.728,0,0,0-1.823-1.879,1.832,1.832,0,0,0-1.665.845,1.739,1.739,0,0,0-1.566-.845,1.618,1.618,0,0,0-1.427.7v-.577h-.951V303.4h.961V300.67a1.139,1.139,0,0,1,1.2-1.263c.683,0,1.07.447,1.07,1.253V303.4h.961V300.67a1.148,1.148,0,0,1,1.2-1.263c.7,0,1.08.447,1.08,1.253V303.4Zm15.438-4.753h-1.725V297.2h-.961v1.442h-1v.865h1v2.247c0,1.1.386,1.76,1.605,1.76a2.413,2.413,0,0,0,1.288-.368l-.3-.845a1.9,1.9,0,0,1-.911.269c-.515,0-.724-.318-.724-.8v-2.267h1.725Zm8.789-.119a1.463,1.463,0,0,0-1.289.7v-.577h-.941V303.4h.952V300.72c0-.786.377-1.293,1.05-1.293a1.67,1.67,0,0,1,.644.12l.317-.9a2.209,2.209,0,0,0-.733-.129m-13.287.5a3.529,3.529,0,0,0-1.932-.5c-1.2,0-1.932.566-1.932,1.511,0,.776.535,1.243,1.6,1.392l.485.069c.565.079.872.278.872.547,0,.368-.417.606-1.12.606a2.454,2.454,0,0,1-1.575-.5l-.485.746a3.523,3.523,0,0,0,2.051.616c1.367,0,2.12-.637,2.12-1.541,0-.836-.575-1.263-1.615-1.412l-.485-.07c-.446-.06-.842-.2-.842-.517,0-.348.376-.587.941-.587a3.046,3.046,0,0,1,1.476.408Zm14.367,2a2.365,2.365,0,0,0,2.487,2.5,2.476,2.476,0,0,0,1.7-.566l-.5-.746a2.078,2.078,0,0,1-1.238.428,1.618,1.618,0,0,1,0-3.222,2.078,2.078,0,0,1,1.238.428l.5-.746a2.477,2.477,0,0,0-1.7-.566,2.365,2.365,0,0,0-2.487,2.5m-6.659-2.5a2.3,2.3,0,0,0-2.339,2.486,2.333,2.333,0,0,0,2.408,2.506,2.871,2.871,0,0,0,1.942-.666l-.506-.706a2.25,2.25,0,0,1-1.377.5,1.4,1.4,0,0,1-1.457-1.233h3.537c.01-.129.02-.258.02-.4a2.252,2.252,0,0,0-2.229-2.486m-.02.884a1.209,1.209,0,0,1,1.249,1.2h-2.556a1.269,1.269,0,0,1,1.308-1.2m-12.822,1.611v-2.376h-.951v.577a1.874,1.874,0,0,0-1.536-.7,2.5,2.5,0,0,0,0,4.991,1.875,1.875,0,0,0,1.536-.7v.577h.951Zm-3.834,0a1.486,1.486,0,0,1,1.477-1.611,1.62,1.62,0,0,1,0,3.222,1.486,1.486,0,0,1-1.477-1.611m36.562-2.5a1.461,1.461,0,0,0-1.288.7v-.577h-.941V303.4h.951V300.72c0-.786.377-1.293,1.051-1.293a1.671,1.671,0,0,1,.644.12l.317-.9a2.216,2.216,0,0,0-.733-.129m7.632,4.182a.467.467,0,0,1,.186.038.472.472,0,0,1,.152.1.483.483,0,0,1,.1.15.46.46,0,0,1,.038.183.455.455,0,0,1-.038.183.485.485,0,0,1-.1.15.5.5,0,0,1-.152.1.478.478,0,0,1-.186.037.491.491,0,0,1-.19-.037.484.484,0,0,1-.153-.1.471.471,0,0,1-.1-.15.454.454,0,0,1-.038-.183.46.46,0,0,1,.038-.183.469.469,0,0,1,.1-.15.457.457,0,0,1,.153-.1.48.48,0,0,1,.19-.038m0,.84a.352.352,0,0,0,.141-.029.37.37,0,0,0,.115-.078.364.364,0,0,0,.078-.117.38.38,0,0,0,0-.287.363.363,0,0,0-.078-.117.359.359,0,0,0-.256-.107.368.368,0,0,0-.262.627.381.381,0,0,0,.118.078.364.364,0,0,0,.145.029m.027-.589a.2.2,0,0,1,.13.038.125.125,0,0,1,.046.1.119.119,0,0,1-.036.089.175.175,0,0,1-.1.043l.142.165h-.112l-.132-.164h-.043v.164h-.094v-.438Zm-.108.082v.117h.107a.1.1,0,0,0,.059-.015.055.055,0,0,0,0-.087.106.106,0,0,0-.059-.015Zm-11.2-2.02v-2.376h-.952v.577a1.872,1.872,0,0,0-1.536-.7,2.5,2.5,0,0,0,0,4.991,1.874,1.874,0,0,0,1.536-.7v.577h.952Zm-3.835,0a1.486,1.486,0,0,1,1.477-1.611,1.62,1.62,0,0,1,0,3.222,1.486,1.486,0,0,1-1.477-1.611m13.4,0v-4.286h-.952v2.486a1.873,1.873,0,0,0-1.535-.7,2.5,2.5,0,0,0,0,4.991,1.874,1.874,0,0,0,1.535-.7v.577h.952Zm-3.835,0a1.486,1.486,0,0,1,1.477-1.611,1.62,1.62,0,0,1,0,3.222,1.486,1.486,0,0,1-1.477-1.611" transform="translate(-464.707 -258.65)"/><rect class="k" width="17.148" height="28.11" transform="translate(20.247 3.822)"/><path class="l" d="M475.734,136.861a17.87,17.87,0,0,1,6.8-14.055,17.877,17.877,0,1,0,0,28.11,17.87,17.87,0,0,1-6.8-14.055" transform="translate(-453.716 -118.984)"/><path class="m" d="M714.438,251.584v-.576h.231v-.118h-.588v.118h.231v.576Zm1.144,0v-.694H715.4l-.208.477-.208-.477h-.18v.694h.127v-.523l.195.451h.132l.195-.453v.525Z" transform="translate(-658.495 -222.629)"/><path class="m" d="M617.538,136.861a17.8,17.8,0,0,1-28.821,14.055,17.919,17.919,0,0,0,0-28.11,17.8,17.8,0,0,1,28.821,14.055" transform="translate(-559.895 -118.984)"/></g></g><line class="n" y2="30.469" transform="translate(1063.483 18.313)"/></g></svg>