<svg xmlns="http://www.w3.org/2000/svg" xmlns:xlink="http://www.w3.org/1999/xlink" width="68.585" height="64.745" viewBox="0 0 68.585 64.745"><defs><style>.a{fill:#ffe0e3;}.b{fill:#0e91dd;}.c{fill:url(#e);}.d{fill:#1caafc;}.e{filter:url(#h);}.f{filter:url(#f);}.g{filter:url(#c);}.h{filter:url(#a);}</style><filter id="a" x="0" y="0" width="68.435" height="64.7" filterUnits="userSpaceOnUse"><feOffset dy="2" input="SourceAlpha"/><feGaussianBlur stdDeviation="2.5" result="b"/><feFlood flood-opacity="0.051"/><feComposite operator="in" in2="b"/><feComposite in="SourceGraphic"/></filter><filter id="c" x="0.438" y="0.317" width="68.147" height="64.428" filterUnits="userSpaceOnUse"><feOffset dy="2" input="SourceAlpha"/><feGaussianBlur stdDeviation="2.5" result="d"/><feFlood flood-opacity="0.051"/><feComposite operator="in" in2="d"/><feComposite in="SourceGraphic"/></filter><linearGradient id="e" x1="139.072" y1="1.771" x2="141.38" y2="2.27" gradientUnits="objectBoundingBox"><stop offset="0" stop-color="#f85f69"/><stop offset="1" stop-color="#ff8291"/></linearGradient><filter id="f" x="0.438" y="0.317" width="44.453" height="62.771" filterUnits="userSpaceOnUse"><feOffset dy="2" input="SourceAlpha"/><feGaussianBlur stdDeviation="2.5" result="g"/><feFlood flood-opacity="0.051"/><feComposite operator="in" in2="g"/><feComposite in="SourceGraphic"/></filter><filter id="h" x="0.438" y="0.317" width="44.453" height="62.772" filterUnits="userSpaceOnUse"><feOffset dy="2" input="SourceAlpha"/><feGaussianBlur stdDeviation="2.5" result="i"/><feFlood flood-opacity="0.051"/><feComposite operator="in" in2="i"/><feComposite in="SourceGraphic"/></filter></defs><g transform="matrix(0.998, 0.07, -0.07, 0.998, 10.73, 5.5)"><g class="h" transform="matrix(1, -0.07, 0.07, 1, -11.09, -4.74)"><path class="a" d="M493.268,788.8c-.13-.1-13.359-9.865-17.9-22.83-2.009-5.728-1.864-11.719.4-16.385a12.163,12.163,0,0,1,6.914-6.456,11.44,11.44,0,0,1,5.893-.385c4.546.9,8.975,4.363,11.87,9.3,4.527-3.506,9.927-5.054,14.469-4.183a11.234,11.234,0,0,1,5.319,2.547,12.085,12.085,0,0,1,4.012,8.578c.345,5.19-1.748,10.76-5.748,15.325-9.051,10.329-24.975,14.469-25.124,14.5l-.056.011Z" transform="matrix(1, 0.07, -0.07, 1, -410.28, -768.28)"/></g><g class="g" transform="matrix(1, -0.07, 0.07, 1, -11.09, -4.74)"><path class="b" d="M483.9,743.962c6.271-2.146,13.494,1.775,17.669,9.019,6.581-5.158,14.77-6.079,19.75-1.757,5.942,5.153,5.195,15.821-1.754,23.745-9.127,10.42-25.068,14.456-25.068,14.456s-13.266-9.7-17.847-22.8C473.182,756.708,476.469,746.553,483.9,743.962Z" transform="matrix(1, 0.07, -0.07, 1, -411.11, -768.9)"/></g><g class="f" transform="matrix(1, -0.07, 0.07, 1, -11.09, -4.74)"><path class="c" d="M476.654,766.629c-3.472-9.921-.185-20.076,7.25-22.667,6.271-2.146,13.494,1.775,17.669,9.019L494.5,789.424S481.235,779.727,476.654,766.629Z" transform="matrix(1, 0.07, -0.07, 1, -411.11, -768.9)"/></g><g class="e" transform="matrix(1, -0.07, 0.07, 1, -11.09, -4.74)"><path class="d" d="M476.654,766.628c-3.476-9.943-.175-20.1,7.25-22.667,6.271-2.146,13.509,1.769,17.669,9.019L494.5,789.424S481.245,779.732,476.654,766.628Z" transform="matrix(1, 0.07, -0.07, 1, -411.11, -768.9)"/></g></g></svg>