<svg xmlns="http://www.w3.org/2000/svg" width="194.097" height="50.05" viewBox="0 0 194.097 50.05"><defs><style>.a{fill:#0af;}.b{fill:#7a1dff;}.c{fill:none;stroke:#0af;stroke-miterlimit:10;stroke-width:0.75px;}.d{fill:#f72163;}.e{fill:#fd5601;}.f{fill:#ffc208;}.g{fill:#9de411;}.h{fill:#161e3f;}</style></defs><g transform="translate(-503.151 -482.197)"><g transform="translate(503.151 482.197)"><path class="a" d="M665.367,594.33l-6.05,4.4,6.547,20.149,6.05-4.4Z" transform="translate(-626.143 -570.51)"/><path class="b" d="M563.472,647.283l-11.09,8.057-6.05-4.4,17.14-12.452,17.14,12.452-6.05,4.4Z" transform="translate(-537.159 -605.29)"/><path class="c" d="M514.03,556.4" transform="translate(-511.719 -540.639)"/><path class="d" d="M505.462,556.4,522.6,568.855,516.055,589l-6.05-4.4,4.236-13.037-11.09-8.057Z" transform="translate(-503.151 -540.639)"/><path class="c" d="M740,556.4" transform="translate(-689.686 -540.639)"/><path class="e" d="M523.341,495.234l4.236-13.036h7.478l-6.547,20.149H507.323l2.311-7.112Z" transform="translate(-506.437 -482.197)"/><path class="f" d="M627.874,495.234,623.638,482.2h-7.478l6.547,20.149h21.186l-2.311-7.112Z" transform="translate(-592.153 -482.197)"/><path class="g" d="M607.89,550.677l-2.311-7.112-23.115,16.794-9.706-7.052-2.311,7.112,12.017,8.731Z" transform="translate(-556.151 -530.529)"/></g><g transform="translate(557.557 495.174)"><path class="h" d="M768.545,564.383a9.158,9.158,0,0,0-9.285,9.285,9.358,9.358,0,0,0,9.57,9.5c4.091,0,7.684-2.632,8.68-5.763l-4.838-.818a4.5,4.5,0,0,1-3.807,1.921c-2.383,0-4.055-1.245-4.126-3.13H777.83v-1.352C777.83,568.616,773.952,564.383,768.545,564.383Zm-3.806,7.257c.071-1.352,1.814-2.6,3.806-2.6,2.063,0,3.629,1.21,3.771,2.6Z" transform="translate(-759.26 -559.901)"/><path class="h" d="M856.636,571.555l-3.664-4.827h-6.3v.285l6.617,8.573-6.048,8.645v.285h6.19l3.2-4.566,3.2,4.566h6.225v-.356l-5.976-8.573,6.581-8.573v-.285H860.3Z" transform="translate(-828.106 -561.748)"/><path class="h" d="M949.078,543.283h-1.1l-7.186,9.32v.5h2.739v2.6c0,6.937,5.336,10.6,11.384,10.6v-5.443c-3.1-.036-5.905-1.565-5.905-5.158v-2.6h5.905v-4.838h-5.834Z" transform="translate(-902.227 -543.283)"/><path class="h" d="M1030.633,568.763h-.036v-3.486l-5.407-.035v17.823h5.407v-4.909a7.991,7.991,0,0,1,8.218-8.289l-1.708-4.98C1035.151,564.886,1031.842,566.2,1030.633,568.763Z" transform="translate(-968.698 -560.297)"/><path class="h" d="M1106.55,564.61v1.709a7.567,7.567,0,0,0-5.471-2.174c-4.5,0-8.4,4.112-8.4,9.368,0,5.292,3.9,9.475,8.4,9.475a7.412,7.412,0,0,0,5.471-2.3v1.8h5.149V564.61Zm-4.076,13.444a4.523,4.523,0,0,1,0-9.046c2.467,0,4.076,2,4.076,4.505C1106.55,576.052,1104.941,578.054,1102.474,578.054Z" transform="translate(-1021.849 -559.713)"/><rect class="h" width="5.649" height="5.685" transform="translate(92.46 17.089)"/><path class="h" d="M1243.39,564.61v1.711a7.563,7.563,0,0,0-5.471-2.176c-4.5,0-8.4,4.112-8.4,9.368,0,5.291,3.9,9.475,8.4,9.475a7.383,7.383,0,0,0,5.149-1.992v1.384c0,1.9-1.788,3.5-4.183,3.5a4.4,4.4,0,0,1-3.754-1.931l-4.934.894c1,3.146,4.612,5.792,8.724,5.792a9.406,9.406,0,0,0,9.618-9.546V564.61Zm-4.076,13.444a4.523,4.523,0,0,1,0-9.046c2.467,0,4.076,2,4.076,4.505C1243.39,576.052,1241.781,578.054,1239.314,578.054Z" transform="translate(-1129.62 -559.713)"/><path class="h" d="M1342.112,571.271c-.143-1.394-1.716-2.61-3.79-2.61-2,0-3.754,1.251-3.826,2.61Zm-7.616,3.754c.071,1.895,1.752,3.146,4.147,3.146a4.523,4.523,0,0,0,3.826-1.931l4.863.823c-1,3.146-4.612,5.792-8.724,5.792a9.406,9.406,0,0,1-9.618-9.546,9.2,9.2,0,0,1,9.332-9.332c5.435,0,9.332,4.255,9.332,9.69v1.359Z" transform="translate(-1207.962 -559.581)"/></g></g></svg>