<svg xmlns="http://www.w3.org/2000/svg" xmlns:xlink="http://www.w3.org/1999/xlink" width="42.702" height="53.023" viewBox="0 0 42.702 53.023"><defs><style>.a{fill:#ea3939;}.b{clip-path:url(#a);}.c{fill:#fff;}</style><clipPath id="a"><rect width="42.702" height="53.023"/></clipPath></defs><rect class="a" width="42.702" height="46.626" transform="translate(0 6.397)"/><path class="a" d="M41.039,0,38.5,2.44V7.287h2.539V2.44h12.4V7.287h2.44V2.44L53.438,0Z" transform="translate(-25.805)"/><g class="b"><path class="c" d="M79.536,100.351A1.418,1.418,0,1,1,78.118,98.9a1.436,1.436,0,0,1,1.418,1.451" transform="translate(-51.408 -66.288)"/></g><g class="b"><rect class="c" width="5.804" height="1.847" transform="translate(31.689 32.909)"/></g><g class="b"><path class="c" d="M87.551,115.3v.3a4.523,4.523,0,1,1-9.035,0,.913.913,0,0,1,.033-.3H76.9v.3a6.175,6.175,0,1,0,12.333,0v-.3Z" transform="translate(-51.542 -77.28)"/></g><g class="b"><path class="c" d="M96.689,51.7a5.471,5.471,0,0,1,1.649.2,1.855,1.855,0,0,1,.857.561,1.678,1.678,0,0,1,.33.824c.033.33.033.659.033,1.022v8.244a.3.3,0,0,1-.3.33,3.668,3.668,0,0,1-1.385,0,.353.353,0,0,1-.33-.33V54.206a2.676,2.676,0,0,0-.033-.561.927.927,0,0,0-.165-.363.62.62,0,0,0-.363-.165,3.206,3.206,0,0,0-.594-.033h-.627a2.857,2.857,0,0,0-.594.033,1.219,1.219,0,0,0-.363.165.62.62,0,0,0-.165.363,3.4,3.4,0,0,0-.033.627v8.277c0,.165-.1.264-.33.33a3.668,3.668,0,0,1-1.385,0,.322.322,0,0,1-.3-.33V54.206a5.439,5.439,0,0,1,.1-1.121,1.8,1.8,0,0,1,.4-.791,1.933,1.933,0,0,1,.857-.462,6.164,6.164,0,0,1,1.484-.132Z" transform="translate(-62.065 -34.652)"/></g><g class="b"><path class="c" d="M69.011,60.371a3.205,3.205,0,0,0,.033.594.927.927,0,0,0,.165.363.536.536,0,0,0,.363.165,3.8,3.8,0,0,0,.659.033h.33a3.4,3.4,0,0,0,.627-.033.724.724,0,0,0,.4-.165.561.561,0,0,0,.2-.33,3.035,3.035,0,0,0,.066-.627V57.437a1.073,1.073,0,0,0-.231-.824,1.489,1.489,0,0,0-.923-.231h-.528a3.5,3.5,0,0,0-.692.066.475.475,0,0,0-.33.2.988.988,0,0,0-.132.33c0,.132-.033.3-.033.462v2.935ZM72.9,51.633a.711.711,0,0,1,.594.2.757.757,0,0,1,.132.462.7.7,0,0,1-.132.462c-.1.132-.264.2-.594.2H69.836a.761.761,0,0,0-.692.264,2.1,2.1,0,0,0-.132.89V55.26a1.908,1.908,0,0,1,.692-.231,5.922,5.922,0,0,1,.725-.066h.659a5.86,5.86,0,0,1,1.517.165,1.645,1.645,0,0,1,.824.462,1.486,1.486,0,0,1,.363.758,5.166,5.166,0,0,1,.066,1.055v2.935a4.56,4.56,0,0,1-.132,1.253,1.2,1.2,0,0,1-.462.758,1.845,1.845,0,0,1-.89.4,8.981,8.981,0,0,1-1.484.1H69.9a6.339,6.339,0,0,1-1.484-.132,1.864,1.864,0,0,1-.89-.4,1.482,1.482,0,0,1-.462-.758A9.288,9.288,0,0,1,67,60.437V53.842a3.435,3.435,0,0,1,.165-1.088,1.345,1.345,0,0,1,.495-.692,2.248,2.248,0,0,1,.857-.363,7.421,7.421,0,0,1,1.319-.1H72.9Z" transform="translate(-44.907 -34.585)"/></g><g class="b"><path class="c" d="M45.489,51.7a5.471,5.471,0,0,1,1.649.2,1.855,1.855,0,0,1,.857.561,1.678,1.678,0,0,1,.33.824c.033.33.033.659.033,1.022v8.244a.3.3,0,0,1-.3.33,3.668,3.668,0,0,1-1.385,0,.353.353,0,0,1-.33-.33V54.206a2.676,2.676,0,0,0-.033-.561.927.927,0,0,0-.165-.363.62.62,0,0,0-.363-.165,3.206,3.206,0,0,0-.594-.033h-.627a2.857,2.857,0,0,0-.594.033,1.219,1.219,0,0,0-.363.165.62.62,0,0,0-.165.363,3.4,3.4,0,0,0-.033.627v8.277c0,.165-.1.264-.33.33a3.668,3.668,0,0,1-1.385,0,.322.322,0,0,1-.3-.33V54.206a5.44,5.44,0,0,1,.1-1.121,1.8,1.8,0,0,1,.4-.791,1.933,1.933,0,0,1,.857-.462,6.164,6.164,0,0,1,1.484-.132Z" transform="translate(-27.748 -34.652)"/></g><g class="b"><path class="c" d="M17.477,60.239a3.889,3.889,0,0,0,.066.725.767.767,0,0,0,.231.363.825.825,0,0,0,.429.132c.165,0,.363.033.627.033h.33a3.8,3.8,0,0,0,.659-.033.7.7,0,0,0,.594-.594,3.5,3.5,0,0,0,.066-.692V57.535a2.665,2.665,0,0,0-.033-.528.561.561,0,0,0-.2-.33.724.724,0,0,0-.4-.165,3.8,3.8,0,0,0-.659-.033h-.429a3.61,3.61,0,0,0-.725.066.752.752,0,0,0-.4.2,1.032,1.032,0,0,0-.165.33,2.336,2.336,0,0,0-.033.495v2.671Zm2.143-8.606A6.152,6.152,0,0,1,21.1,51.8a1.941,1.941,0,0,1,.89.528,1.8,1.8,0,0,1,.462.857,4.115,4.115,0,0,1,.132,1.154V60.47a3.8,3.8,0,0,1-.165,1.187,1.692,1.692,0,0,1-.495.758,1.969,1.969,0,0,1-.923.4,8.822,8.822,0,0,1-1.451.1H18.467c-.528,0-.989-.033-1.352-.066a2.058,2.058,0,0,1-.956-.33,1.448,1.448,0,0,1-.561-.791,3.853,3.853,0,0,1-.2-1.385v-3a3.725,3.725,0,0,1,.165-1.154,1.5,1.5,0,0,1,.561-.725,2.653,2.653,0,0,1,1.022-.363A10.651,10.651,0,0,1,18.73,55h.561a2.657,2.657,0,0,1,1.253.231V54.04a2.066,2.066,0,0,0-.066-.528.48.48,0,0,0-.2-.3.988.988,0,0,0-.33-.132c-.132,0-.3-.033-.462-.033H18.6a2.573,2.573,0,0,0-.791.1.457.457,0,0,0-.3.495.386.386,0,0,1-.33.4,2.473,2.473,0,0,1-1.385,0,.418.418,0,0,1-.33-.4v-.1a1.682,1.682,0,0,1,.659-1.484A4.35,4.35,0,0,1,18.4,51.6h1.22Z" transform="translate(-10.322 -34.585)"/></g><g class="b"><path class="c" d="M15.4,100.662c0-.2.1-.3.3-.363a2.126,2.126,0,0,1,.659-.1,4.116,4.116,0,0,1,.692.066.353.353,0,0,1,.33.33v8.672a3.028,3.028,0,0,0,.033.594.927.927,0,0,0,.165.363.752.752,0,0,0,.4.2,3.5,3.5,0,0,0,.692.066h.264a3.4,3.4,0,0,0,.627-.033,1.1,1.1,0,0,0,.4-.165.982.982,0,0,0,.231-.363,3.13,3.13,0,0,0,.066-.659l-.033-5.012c0-.2.1-.3.33-.363a2.192,2.192,0,0,1,.692-.1,3.708,3.708,0,0,1,.659.066.422.422,0,0,1,.33.33v5.342a2.732,2.732,0,0,1-.2,1.121,1.461,1.461,0,0,1-.561.692,2.2,2.2,0,0,1-.89.363,6.767,6.767,0,0,1-1.22.1H18.236a5.859,5.859,0,0,1-1.517-.165,1.692,1.692,0,0,1-.857-.495,1.357,1.357,0,0,1-.363-.791,5.34,5.34,0,0,1-.066-1.088v-8.606Z" transform="translate(-10.322 -67.159)"/></g><g class="b"><path class="c" d="M43.335,100.2a3.465,3.465,0,0,1,1.319.2,1.641,1.641,0,0,1,.758.561,1.593,1.593,0,0,1,.725-.561,2.958,2.958,0,0,1,1.121-.2c.429,0,.791,0,1.187.033a2.473,2.473,0,0,1,1.022.3,1.564,1.564,0,0,1,.692.758,3.4,3.4,0,0,1,.264,1.418v8.8c0,.2-.1.3-.33.33a4.023,4.023,0,0,1-1.451,0c-.231-.033-.33-.132-.33-.33l.033-8.606a3.5,3.5,0,0,0-.066-.692.752.752,0,0,0-.2-.4.628.628,0,0,0-.33-.165c-.132,0-.3-.033-.495-.033q-.544,0-.692.3a1.975,1.975,0,0,0-.165.857v5.078c0,.2-.1.3-.33.33a4.023,4.023,0,0,1-1.451,0c-.231-.033-.33-.165-.33-.33V102.8a1.9,1.9,0,0,0-.165-.923.774.774,0,0,0-.659-.264,1.522,1.522,0,0,0-.758.165c-.2.1-.264.4-.264.857v8.837c0,.2-.1.3-.33.33a4.87,4.87,0,0,1-.692.033,4.426,4.426,0,0,1-.692-.033c-.231-.033-.33-.132-.33-.33v-8.9a2.286,2.286,0,0,1,.264-1.253,2.008,2.008,0,0,1,.659-.725,2.2,2.2,0,0,1,.956-.33,9.5,9.5,0,0,1,1.055-.066" transform="translate(-27.078 -67.159)"/></g></svg>