<svg xmlns="http://www.w3.org/2000/svg" width="234.692" height="60.517" viewBox="0 0 234.692 60.517"><defs><style>.a{fill:#0af;}.b{fill:#7a1dff;}.c{fill:none;stroke:#0af;stroke-miterlimit:10;stroke-width:0.75px;}.d{fill:#f72163;}.e{fill:#fd5601;}.f{fill:#ffc208;}.g{fill:#9de411;}.h{fill:#161e3f;}</style></defs><g transform="translate(-503.151 -482.197)"><g transform="translate(503.151 482.197)"><path class="a" d="M666.633,594.33l-7.315,5.315,7.916,24.363,7.315-5.315Z" transform="translate(-619.204 -565.527)"/><path class="b" d="M567.056,649.122l-13.409,9.742-7.315-5.315,20.724-15.057,20.724,15.057-7.315,5.315Z" transform="translate(-535.241 -598.346)"/><path class="c" d="M514.03,556.4" transform="translate(-511.236 -537.342)"/><path class="d" d="M505.946,556.4l20.724,15.057-7.916,24.363-7.315-5.315,5.122-15.763L503.151,565Z" transform="translate(-503.151 -537.342)"/><path class="c" d="M740,556.4" transform="translate(-679.163 -537.342)"/><path class="e" d="M526.691,497.96l5.122-15.763h9.042l-7.916,24.363H507.323l2.794-8.6Z" transform="translate(-506.251 -482.197)"/><path class="f" d="M630.324,497.96,625.2,482.2h-9.042l7.916,24.363h25.616l-2.794-8.6Z" transform="translate(-587.132 -482.197)"/><path class="g" d="M615.721,552.165l-2.794-8.6-27.95,20.307-11.736-8.527-2.794,8.6,14.53,10.557Z" transform="translate(-553.161 -527.802)"/></g><g transform="translate(568.935 497.888)"><path class="h" d="M770.487,564.383A11.073,11.073,0,0,0,759.26,575.61a11.315,11.315,0,0,0,11.571,11.485c4.947,0,9.291-3.183,10.5-6.968l-5.85-.989a5.442,5.442,0,0,1-4.6,2.323c-2.882,0-4.9-1.505-4.989-3.785h15.829V576.04C781.714,569.5,777.025,564.383,770.487,564.383Zm-4.6,8.775c.086-1.635,2.194-3.14,4.6-3.14,2.495,0,4.388,1.463,4.56,3.14Z" transform="translate(-759.26 -558.963)"/><path class="h" d="M858.719,572.565l-4.43-5.837h-7.614v.344l8,10.366-7.312,10.453v.344h7.484l3.871-5.521,3.871,5.521h7.527v-.43l-7.226-10.366,7.958-10.366v-.344h-7.7Z" transform="translate(-824.222 -560.706)"/><path class="h" d="M950.811,543.283h-1.333l-8.689,11.27v.6H944.1v3.14c0,8.388,6.452,12.818,13.765,12.818v-6.581c-3.743-.043-7.14-1.893-7.14-6.237v-3.14h7.14v-5.85h-7.054Z" transform="translate(-894.161 -543.283)"/><path class="h" d="M1031.771,569.574h-.043v-4.215l-6.538-.043v21.55h6.538V580.93a9.662,9.662,0,0,1,9.936-10.022l-2.065-6.022C1037.234,564.886,1033.234,566.478,1031.771,569.574Z" transform="translate(-956.883 -559.337)"/><path class="h" d="M1109.452,564.707v2.066a9.149,9.149,0,0,0-6.615-2.629c-5.447,0-10.16,4.972-10.16,11.327,0,6.4,4.713,11.457,10.16,11.457a8.961,8.961,0,0,0,6.615-2.785v2.18h6.225V564.707Zm-4.929,16.256a5.469,5.469,0,0,1,0-10.938c2.983,0,4.929,2.421,4.929,5.447C1109.452,578.542,1107.506,580.963,1104.523,580.963Z" transform="translate(-1007.036 -558.786)"/><rect class="h" width="6.831" height="6.874" transform="translate(111.798 20.663)"/><path class="h" d="M1246.291,564.707v2.069a9.145,9.145,0,0,0-6.615-2.632c-5.447,0-10.16,4.972-10.16,11.327,0,6.4,4.712,11.456,10.16,11.456a8.928,8.928,0,0,0,6.226-2.409v1.674c0,2.291-2.161,4.237-5.058,4.237a5.319,5.319,0,0,1-4.54-2.335l-5.966,1.081c1.211,3.8,5.577,7,10.549,7a11.373,11.373,0,0,0,11.63-11.543v-19.93Zm-4.928,16.255a5.469,5.469,0,0,1,0-10.938c2.983,0,4.928,2.421,4.928,5.447C1246.291,578.542,1244.346,580.963,1241.363,580.963Z" transform="translate(-1108.727 -558.786)"/><path class="h" d="M1344.856,572.8c-.173-1.686-2.075-3.156-4.583-3.156-2.421,0-4.539,1.513-4.626,3.156Zm-9.208,4.539c.086,2.291,2.118,3.8,5.015,3.8a5.469,5.469,0,0,0,4.626-2.335l5.88.995c-1.211,3.8-5.577,7-10.549,7a11.373,11.373,0,0,1-11.63-11.543,11.129,11.129,0,0,1,11.284-11.284c6.572,0,11.284,5.145,11.284,11.716v1.643Z" transform="translate(-1182.649 -558.661)"/></g></g></svg>