<svg xmlns="http://www.w3.org/2000/svg" width="225.148" height="58.056" viewBox="0 0 225.148 58.056"><defs><style>.a{fill:#0af;}.b{fill:#7a1dff;}.c{fill:none;stroke:#0af;stroke-miterlimit:10;stroke-width:0.75px;}.d{fill:#f72163;}.e{fill:#fd5601;}.f{fill:#ffc208;}.g{fill:#9de411;}.h{fill:#fff;}</style></defs><g transform="translate(-503.151 -482.197)"><g transform="translate(503.151 482.197)"><path class="a" d="M666.335,594.33l-7.018,5.1,7.594,23.372,7.018-5.1Z" transform="translate(-620.836 -566.699)"/><path class="b" d="M566.214,648.69l-12.864,9.345-7.018-5.1,19.881-14.444,19.881,14.445-7.018,5.1Z" transform="translate(-535.692 -599.979)"/><path class="c" d="M514.03,556.4" transform="translate(-511.349 -538.117)"/><path class="d" d="M505.832,556.4l19.881,14.445-7.594,23.372-7.018-5.1L516.015,574l-12.864-9.346Z" transform="translate(-503.151 -538.117)"/><path class="c" d="M740,556.4" transform="translate(-681.637 -538.117)"/><path class="e" d="M525.9,497.319l4.914-15.122h8.675L531.9,505.569H507.323l2.681-8.25Z" transform="translate(-506.295 -482.197)"/><path class="f" d="M629.748,497.319,624.834,482.2h-8.674l7.594,23.372h24.575l-2.681-8.25Z" transform="translate(-588.313 -482.197)"/><path class="g" d="M613.88,551.815l-2.681-8.25-26.813,19.481-11.258-8.18-2.68,8.25,13.939,10.128Z" transform="translate(-553.864 -528.443)"/></g><g transform="translate(566.26 497.25)"><path class="h" d="M770.03,564.383a10.623,10.623,0,0,0-10.77,10.77,10.855,10.855,0,0,0,11.1,11.018c4.745,0,8.913-3.053,10.068-6.685l-5.612-.949a5.221,5.221,0,0,1-4.415,2.228c-2.765,0-4.7-1.444-4.787-3.631H780.8v-1.568C780.8,569.294,776.3,564.383,770.03,564.383Zm-4.415,8.418c.082-1.568,2.1-3.012,4.415-3.012,2.393,0,4.209,1.4,4.374,3.012Z" transform="translate(-759.26 -559.184)"/><path class="h" d="M858.23,572.328l-4.25-5.6h-7.3v.33L854.351,577l-7.015,10.027v.33h7.18l3.714-5.3,3.714,5.3h7.221v-.413L862.232,577l7.634-9.945v-.33H862.48Z" transform="translate(-825.135 -560.951)"/><path class="h" d="M950.4,543.283h-1.279l-8.336,10.811v.578h3.178v3.012c0,8.047,6.189,12.3,13.2,12.3v-6.313c-3.59-.041-6.85-1.816-6.85-5.983v-3.012h6.85V549.06H950.4Z" transform="translate(-896.058 -543.283)"/><path class="h" d="M1031.5,569.384h-.042V565.34l-6.272-.041v20.674h6.272v-5.695a9.27,9.27,0,0,1,9.532-9.615l-1.981-5.777C1036.744,564.886,1032.906,566.413,1031.5,569.384Z" transform="translate(-959.661 -559.563)"/><path class="h" d="M1108.77,564.684v1.982a8.777,8.777,0,0,0-6.346-2.522c-5.226,0-9.747,4.77-9.747,10.867,0,6.138,4.521,10.991,9.747,10.991a8.6,8.6,0,0,0,6.346-2.672v2.091h5.972V564.684Zm-4.728,15.594a5.247,5.247,0,0,1,0-10.493c2.862,0,4.728,2.323,4.728,5.226C1108.77,577.956,1106.9,580.279,1104.042,580.279Z" transform="translate(-1010.518 -559.004)"/><rect class="h" width="6.553" height="6.594" transform="translate(107.251 19.823)"/><path class="h" d="M1245.609,564.684v1.985a8.774,8.774,0,0,0-6.346-2.524c-5.226,0-9.746,4.77-9.746,10.867,0,6.138,4.521,10.99,9.746,10.99a8.566,8.566,0,0,0,5.973-2.31V585.3c0,2.2-2.074,4.065-4.853,4.065a5.1,5.1,0,0,1-4.355-2.24l-5.724,1.037c1.162,3.65,5.35,6.719,10.12,6.719a10.91,10.91,0,0,0,11.157-11.074v-19.12Zm-4.728,15.594a5.247,5.247,0,0,1,0-10.493c2.862,0,4.728,2.323,4.728,5.226C1245.609,577.956,1243.743,580.279,1240.881,580.279Z" transform="translate(-1113.639 -559.004)"/><path class="h" d="M1344.211,572.438c-.166-1.617-1.991-3.028-4.4-3.028-2.323,0-4.355,1.452-4.438,3.028Zm-8.834,4.355c.083,2.2,2.032,3.649,4.811,3.649a5.247,5.247,0,0,0,4.438-2.24l5.641.954c-1.161,3.65-5.351,6.719-10.12,6.719A10.91,10.91,0,0,1,1328.99,574.8a10.676,10.676,0,0,1,10.825-10.825c6.3,0,10.825,4.935,10.825,11.24v1.576Z" transform="translate(-1188.6 -558.878)"/></g></g></svg>