<?xml version="1.0" standalone="no"?>
<!DOCTYPE svg PUBLIC "-//W3C//DTD SVG 20010904//EN"
 "http://www.w3.org/TR/2001/REC-SVG-20010904/DTD/svg10.dtd">
<svg version="1.0" xmlns="http://www.w3.org/2000/svg"
 width="327.000000pt" height="327.000000pt" viewBox="0 0 327.000000 327.000000"
 preserveAspectRatio="xMidYMid meet">

<g transform="translate(0.000000,327.000000) scale(0.100000,-0.100000)"
fill="#000000" stroke="none">
<path d="M74 3263 c-12 -2 -32 -15 -45 -29 -23 -25 -24 -32 -27 -210 l-4 -184
39 5 c50 8 75 -10 78 -58 3 -47 -14 -60 -71 -60 l-44 0 0 -89 c0 -48 2 -88 4
-88 2 0 35 52 72 115 55 95 71 115 90 115 23 0 24 -4 25 -67 1 -38 5 -79 9
-93 6 -16 7 9 5 65 -2 50 -4 90 -5 90 -9 0 -6 153 4 164 8 11 8 13 -1 8 -19
-11 -27 13 -13 38 12 23 14 23 42 9 32 -17 47 -12 45 15 -1 12 -7 17 -18 14
-9 -3 -26 0 -38 7 -18 9 -23 8 -31 -12 -9 -20 -10 -18 -5 11 3 18 5 40 5 47 0
8 11 14 27 14 26 0 26 0 7 -22 l-19 -23 24 20 c17 15 39 20 82 21 33 0 62 4
66 7 3 4 -3 7 -15 7 -12 0 -22 2 -22 5 0 3 23 41 50 85 l50 80 -172 -1 c-95
-1 -183 -4 -194 -6z"/>
<path d="M633 3182 l-51 -87 31 -8 c18 -5 41 -13 52 -18 l20 -9 -20 5 c-38 9
-172 14 -140 5 l30 -8 -35 1 -35 2 0 50 c0 38 -4 50 -15 50 -10 0 -16 -12 -18
-37 -2 -26 -8 -38 -18 -38 -9 0 -12 -5 -8 -11 5 -8 -1 -10 -19 -7 -15 3 -24 1
-21 -3 3 -5 -3 -9 -13 -10 -10 0 -13 -3 -7 -5 6 -3 31 2 55 10 28 10 47 12 53
6 7 -7 1 -10 -14 -11 -32 -2 49 -19 110 -24 l45 -3 -45 7 c-41 6 -43 8 -19 15
14 4 45 6 70 4 42 -3 44 -5 47 -35 2 -22 9 -33 19 -33 12 0 14 9 11 40 -3 37
-2 40 22 41 22 0 23 1 5 8 -11 5 39 8 115 8 88 0 116 -2 80 -6 l-55 -7 54 -4
c34 -3 60 0 70 7 9 7 27 13 41 13 21 0 34 15 75 82 28 46 52 86 53 90 2 5 -23
8 -56 8 l-60 0 5 -43 c4 -36 1 -48 -21 -73 -14 -16 -26 -23 -26 -15 0 9 -8 11
-24 7 -15 -4 -28 0 -36 9 -13 15 -16 87 -5 105 4 6 -38 10 -122 10 l-128 -1
-52 -87z"/>
<path d="M1365 3190 c-39 -67 -51 -80 -73 -80 -57 0 -7 -13 75 -20 l88 -7 -90
-2 c-55 0 -95 3 -102 10 -8 8 -17 8 -33 -1 -22 -12 -79 -18 -184 -19 -51 -1
-57 -3 -46 -16 11 -13 7 -15 -24 -15 -22 0 -35 4 -31 10 3 5 0 8 -7 5 -7 -3
-40 -9 -73 -14 -50 -8 -39 -9 66 -6 69 1 135 7 145 13 10 5 40 10 67 10 47 0
47 0 47 -34 0 -24 5 -34 15 -34 10 0 15 10 15 34 0 42 10 45 155 45 77 0 108
-4 135 -18 23 -11 43 -15 60 -10 22 6 20 7 -12 8 -32 1 -38 5 -38 22 0 21 3
22 89 17 98 -6 116 -12 103 -34 -12 -22 -2 -74 14 -74 9 0 14 12 14 34 0 19 3
36 8 39 4 2 2 3 -5 1 -6 -1 -13 5 -16 15 -3 13 1 17 17 14 30 -5 37 2 94 100
l52 87 -239 0 -239 0 -47 -80z m165 6 c0 -34 -19 -53 -37 -35 -17 17 -3 69 18
69 15 0 19 -7 19 -34z m-283 -122 c-3 -3 -12 -4 -19 -1 -8 3 -5 6 6 6 11 1 17
-2 13 -5z m-184 -21 c-7 -2 -21 -2 -30 0 -10 3 -4 5 12 5 17 0 24 -2 18 -5z"/>
<path d="M2117 3233 c-13 -21 -35 -57 -48 -80 -13 -24 -27 -43 -30 -43 -4 0
-10 16 -13 35 -10 51 -36 47 -33 -5 1 -22 6 -40 11 -40 6 0 21 -11 35 -24 15
-14 37 -26 51 -29 14 -2 19 -2 11 1 -11 3 -8 8 10 19 16 9 17 12 4 7 -33 -11
-58 -10 -63 4 -3 11 12 13 78 8 45 -3 85 -7 87 -10 3 -3 0 -20 -6 -37 -9 -25
-8 -34 1 -40 14 -9 28 7 28 32 0 22 22 30 63 23 24 -4 28 -3 17 5 -25 18 13
14 76 -8 83 -30 133 -34 219 -20 62 10 74 14 56 21 -14 5 -31 4 -43 -3 -11 -6
-32 -8 -46 -5 -20 5 -23 4 -12 -4 11 -7 4 -10 -29 -10 -38 0 -42 2 -31 15 7 9
19 14 27 11 8 -3 11 -2 8 3 -3 5 7 12 22 14 l28 4 -27 2 c-25 1 -28 5 -28 37
0 35 -1 36 -29 31 -40 -8 -54 11 -49 73 l3 50 -162 0 -163 0 -23 -37z m183
-152 c0 -10 -55 -9 -66 2 -4 4 9 7 29 7 21 0 37 -4 37 -9z m215 -1 c3 -5 -2
-10 -12 -11 -11 0 -13 -3 -5 -6 20 -8 3 -23 -26 -23 -21 0 -24 2 -12 10 12 8
10 10 -10 10 -14 1 -47 7 -75 15 l-50 14 92 0 c51 1 95 -3 98 -9z"/>
<path d="M2546 3258 c4 -6 10 -25 13 -42 l7 -30 22 36 c12 19 22 38 22 42 0 3
-16 6 -36 6 -24 0 -33 -4 -28 -12z"/>
<path d="M2811 3186 c-28 -46 -50 -90 -49 -98 2 -10 -12 -12 -62 -10 -46 2
-61 0 -50 -7 8 -6 26 -7 39 -4 18 4 22 3 16 -7 -5 -9 -2 -10 12 -6 16 5 18 1
15 -34 -3 -32 -1 -40 12 -40 12 0 16 10 16 39 0 57 28 68 166 69 60 0 104 -2
97 -5 -8 -3 -4 -13 12 -29 14 -14 23 -29 20 -34 -3 -4 2 -10 10 -14 11 -4 15
-20 15 -56 0 -49 -1 -50 -30 -50 -20 0 -30 -5 -30 -15 0 -10 10 -15 29 -15 34
0 46 -22 35 -66 -5 -19 -4 -25 5 -20 6 4 12 22 12 39 l2 32 7 -35 c7 -30 7
-28 4 13 -3 53 2 65 100 230 58 97 59 97 45 135 -24 62 -57 72 -240 72 l-156
0 -52 -84z m247 6 c2 -18 -1 -32 -7 -32 -6 0 -14 -1 -18 -2 -9 -4 -24 53 -17
64 13 21 39 2 42 -30z m22 -139 c-1 -36 -2 -37 -15 -19 -16 21 -19 39 -8 49
15 16 23 5 23 -30z"/>
<path d="M1948 3093 c6 -2 18 -2 25 0 6 3 1 5 -13 5 -14 0 -19 -2 -12 -5z"/>
<path d="M1840 3078 c0 -4 -15 -9 -32 -11 -18 -2 -7 -4 24 -3 32 1 59 -1 60
-4 2 -4 20 -10 41 -14 27 -5 37 -4 32 3 -3 6 -17 11 -30 11 -29 0 -42 17 -18
23 10 2 -3 4 -29 3 -27 -1 -48 -4 -48 -8z"/>
<path d="M1991 3067 c-13 -21 -12 -21 5 -5 10 10 16 20 13 22 -3 3 -11 -5 -18
-17z"/>
<path d="M810 3076 c0 -2 7 -7 16 -10 8 -3 12 -2 9 4 -6 10 -25 14 -25 6z"/>
<path d="M1585 3070 c-53 -6 -55 -7 -20 -10 50 -3 67 -1 80 11 5 5 7 8 5 7 -3
-1 -32 -4 -65 -8z"/>
<path d="M2838 3073 c7 -3 16 -2 19 1 4 3 -2 6 -13 5 -11 0 -14 -3 -6 -6z"/>
<path d="M2930 3069 c11 -7 7 -9 -20 -8 -19 0 -51 0 -70 -1 -28 -2 -25 -4 20
-10 30 -4 62 -9 70 -12 8 -2 12 -3 7 -1 -19 12 7 21 29 11 23 -11 24 -13 7
-19 -14 -6 -12 -8 10 -8 33 -1 36 15 5 25 -22 7 -22 7 -3 16 16 7 15 8 -8 4
-15 -2 -30 1 -33 5 -3 5 -11 9 -17 9 -7 0 -6 -4 3 -11z"/>
<path d="M738 3053 c7 -3 16 -2 19 1 4 3 -2 6 -13 5 -11 0 -14 -3 -6 -6z"/>
<path d="M1408 3053 c12 -2 32 -2 45 0 12 2 2 4 -23 4 -25 0 -35 -2 -22 -4z"/>
<path d="M318 3043 c7 -3 16 -2 19 1 4 3 -2 6 -13 5 -11 0 -14 -3 -6 -6z"/>
<path d="M778 3043 c7 -3 16 -2 19 1 4 3 -2 6 -13 5 -11 0 -14 -3 -6 -6z"/>
<path d="M2008 3043 c6 -2 18 -2 25 0 6 3 1 5 -13 5 -14 0 -19 -2 -12 -5z"/>
<path d="M2158 3033 c6 -2 18 -2 25 0 6 3 1 5 -13 5 -14 0 -19 -2 -12 -5z"/>
<path d="M3020 3030 c0 -5 5 -10 11 -10 5 0 7 5 4 10 -3 6 -8 10 -11 10 -2 0
-4 -4 -4 -10z"/>
<path d="M1608 3013 c12 -2 30 -2 40 0 9 3 -1 5 -23 4 -22 0 -30 -2 -17 -4z"/>
<path d="M3071 2754 c0 -11 3 -14 6 -6 3 7 2 16 -1 19 -3 4 -6 -2 -5 -13z"/>
<path d="M3097 2763 c-4 -3 -7 -13 -7 -22 1 -13 3 -13 11 2 11 19 8 33 -4 20z"/>
<path d="M3243 2690 c-28 -48 -28 -47 2 -52 24 -5 25 -3 25 43 0 27 -1 49 -2
49 -2 0 -13 -18 -25 -40z"/>
<path d="M3065 2655 c4 -38 6 -83 6 -98 0 -15 4 -25 9 -22 6 4 10 13 10 21 0
10 12 14 40 14 29 0 40 4 40 15 0 18 -60 21 -76 5 -7 -7 -11 -6 -13 5 -6 37
-5 82 2 105 4 14 4 19 1 11 -5 -11 -8 -11 -16 0 -6 9 -7 -11 -3 -56z"/>
<path d="M182 2610 c0 -14 2 -19 5 -12 2 6 2 18 0 25 -3 6 -5 1 -5 -13z"/>
<path d="M172 2555 c0 -16 2 -22 5 -12 2 9 2 23 0 30 -3 6 -5 -1 -5 -18z"/>
<path d="M190 2565 c0 -6 6 -20 14 -31 8 -12 11 -26 6 -33 -4 -7 -6 -23 -4
-35 3 -11 -3 -5 -11 14 -10 24 -14 27 -10 10 2 -14 5 -35 5 -48 0 -13 4 -21 9
-18 5 3 9 -4 9 -17 0 -12 4 -43 8 -69 6 -44 5 -48 -14 -48 -19 0 -21 7 -24 62
l-3 61 -33 -52 c-28 -46 -30 -54 -17 -67 20 -21 8 -44 -24 -44 -22 0 -33 -10
-64 -65 l-37 -64 0 -156 0 -155 39 0 c44 0 57 -12 52 -50 -4 -37 -19 -50 -57
-50 l-34 0 0 -192 c0 -133 3 -188 10 -178 6 8 45 73 87 143 47 80 79 124 83
116 12 -19 22 42 18 114 -2 36 -6 63 -9 61 -3 -1 -7 106 -8 240 -1 236 -1 244
19 249 19 5 20 0 19 -114 0 -78 -4 -119 -11 -119 -7 0 -9 15 -5 42 3 25 2 36
-3 28 -10 -17 -10 -141 1 -134 4 2 10 -4 12 -13 4 -17 5 -17 6 0 1 14 7 16 41
11 33 -5 40 -4 40 10 0 9 -8 16 -19 16 -11 0 -32 5 -46 10 -24 9 -25 12 -14
27 16 19 19 246 5 381 l-9 82 37 0 c25 0 36 4 36 15 0 10 -11 15 -35 15 -27 0
-37 6 -49 28 -8 15 -15 22 -16 17z m-3 -902 c-2 -16 -4 -3 -4 27 0 30 2 43 4
28 2 -16 2 -40 0 -55z"/>
<path d="M3141 2519 c-26 -45 -41 -50 -41 -12 0 72 -16 -18 -19 -109 -1 -25
-5 -28 -36 -28 -26 0 -35 -4 -35 -16 0 -13 8 -15 35 -12 l34 4 0 -101 c-1 -55
-4 -107 -9 -115 -4 -8 -10 -44 -13 -80 -3 -36 -2 -54 2 -40 5 17 8 3 9 -45 1
-38 3 -79 5 -90 2 -16 -5 -21 -35 -23 -27 -2 -38 -8 -38 -19 0 -13 8 -15 41
-10 l41 5 -6 -81 c-3 -45 -7 -113 -10 -152 l-5 -70 12 58 c7 33 15 55 20 51 4
-4 7 0 7 8 0 9 38 81 85 160 l85 145 0 295 0 295 -30 -5 c-17 -2 -40 2 -54 11
-22 15 -24 14 -45 -24z m-64 -431 c-3 -7 -5 -2 -5 12 0 14 2 19 5 13 2 -7 2
-19 0 -25z m163 -28 c0 -15 -7 -20 -25 -20 -14 0 -28 -1 -32 -2 -5 -2 -9 7
-11 20 -3 19 1 22 32 22 29 0 36 -4 36 -20z"/>
<path d="M194 1907 c-2 -7 0 -37 5 -67 l9 -55 -2 67 c-1 69 -3 78 -12 55z"/>
<path d="M3101 1587 c-1 -12 -5 -16 -13 -11 -9 5 -8 2 1 -9 12 -15 11 -20 -3
-35 -17 -19 -23 -67 -7 -58 5 3 7 15 4 25 -3 10 1 22 8 26 9 6 11 0 7 -26 -4
-24 0 -48 14 -74 10 -22 16 -29 12 -15 -4 14 -9 48 -11 76 l-5 50 36 -4 c28
-3 36 -1 36 12 0 12 -9 16 -34 16 -28 0 -35 4 -39 23 -3 16 -5 17 -6 4z"/>
<path d="M171 1559 c-2 -40 10 -89 20 -83 5 3 6 11 2 17 -4 7 -10 30 -14 52
-4 28 -7 32 -8 14z"/>
<path d="M201 1534 c0 -11 3 -14 6 -6 3 7 2 16 -1 19 -3 4 -6 -2 -5 -13z"/>
<path d="M210 1472 c0 -13 -4 -21 -8 -18 -11 6 -14 -106 -3 -122 5 -8 6 8 4
40 -3 39 -2 49 6 38 6 -8 10 -44 9 -80 l-1 -65 -35 0 c-19 0 -37 -6 -39 -12
-3 -9 8 -13 37 -13 l43 0 -7 -52 c-4 -29 -7 -63 -6 -76 0 -13 -5 -33 -11 -44
-8 -14 -8 -18 0 -14 21 14 58 206 39 206 -4 0 -7 34 -6 76 1 52 -3 78 -12 84
-7 4 -9 16 -5 29 5 17 14 21 47 21 27 0 38 4 35 13 -2 7 -21 12 -45 12 -37 0
-42 -3 -42 -23z"/>
<path d="M3236 1468 c-8 -13 -33 -54 -56 -93 -24 -38 -46 -72 -49 -75 -4 -3
-12 -16 -19 -30 l-12 -25 7 25 c3 14 6 32 6 40 0 8 4 21 10 28 5 7 7 15 3 19
-3 3 -6 1 -6 -5 0 -7 -4 -12 -10 -12 -5 0 -10 16 -10 36 0 19 -4 33 -9 29 -5
-3 -7 -20 -4 -38 l5 -33 -41 4 c-34 3 -41 1 -41 -13 0 -14 7 -16 40 -13 l40 4
0 -46 c-1 -25 -7 -56 -15 -70 -16 -28 -20 -53 -5 -30 7 10 9 -6 8 -54 -2 -69
-15 -66 -18 4 -2 20 -4 27 -7 16 -7 -27 7 -107 18 -101 5 4 9 -1 9 -9 0 -9 -5
-16 -11 -16 -11 0 -8 -73 6 -152 7 -38 7 -38 -28 -38 -22 0 -37 -6 -41 -15 -4
-12 3 -15 35 -15 l41 0 -4 -72 c-3 -40 -8 -82 -12 -93 -6 -16 -6 -17 3 -5 8
12 11 3 11 -35 0 -36 -3 -46 -10 -35 -5 8 -10 12 -10 7 0 -4 5 -16 12 -26 6
-10 8 -26 4 -37 -8 -18 -8 -18 -17 1 -8 17 -8 16 -3 -5 14 -58 23 -118 23
-155 l1 -41 -40 4 c-32 3 -40 1 -40 -12 0 -11 9 -16 29 -16 41 0 46 -14 15
-39 -15 -12 -22 -21 -17 -21 5 0 14 5 20 11 7 7 12 5 15 -9 5 -18 -1 -19 -106
-17 -61 2 -120 6 -131 10 -16 5 -17 5 -5 -4 13 -9 13 -11 -2 -11 -10 0 -18 4
-18 8 0 4 -32 6 -71 4 l-71 -4 4 38 c2 30 -1 39 -12 39 -11 0 -15 -11 -15 -38
l0 -37 -100 -1 c-55 -1 -140 0 -190 0 -53 1 -85 -2 -77 -7 8 -5 -16 -9 -61
-10 l-74 -2 5 51 c4 41 2 51 -9 47 -9 -3 -14 -20 -13 -52 l0 -47 -155 1 c-192
2 -250 0 -233 -7 19 -7 -5 -33 -32 -34 -17 -1 -17 -2 -3 -6 22 -6 22 -6 -6
-51 -55 -87 -56 -82 18 -82 63 0 65 1 65 26 0 45 18 67 50 60 18 -3 30 -1 33
7 5 15 47 -52 47 -75 0 -16 12 -18 104 -18 l105 0 37 62 c51 86 66 103 89 105
11 1 39 5 63 9 l42 7 0 -42 c0 -34 3 -42 17 -39 12 2 17 14 17 43 l1 40 40 -3
c22 -2 41 -5 43 -7 4 -4 -70 -131 -88 -152 -5 -7 -10 -15 -10 -18 0 -3 101 -5
225 -5 l225 0 0 44 c0 48 19 72 54 68 25 -3 36 5 59 40 14 23 24 28 55 27 l37
-2 -40 -7 c-35 -6 -36 -7 -10 -8 17 -1 48 5 70 12 38 13 40 17 49 68 5 29 8
84 7 121 -2 80 19 127 56 127 16 0 23 6 23 20 0 11 -4 20 -9 20 -5 0 17 46 50
102 l59 103 0 122 0 123 -38 0 c-45 0 -62 14 -62 52 0 32 24 48 69 48 l31 0 0
205 c0 127 -4 205 -10 205 -5 0 -16 -10 -24 -22z m-159 -545 c-2 -16 -4 -3 -4
27 0 30 2 43 4 28 2 -16 2 -40 0 -55z m-489 -740 c-21 -2 -57 -2 -80 0 -24 2
-7 4 37 4 44 0 63 -2 43 -4z"/>
<path d="M3072 1440 c0 -14 2 -19 5 -12 2 6 2 18 0 25 -3 6 -5 1 -5 -13z"/>
<path d="M252 1290 c0 -14 2 -19 5 -12 2 6 2 18 0 25 -3 6 -5 1 -5 -13z"/>
<path d="M88 1048 l-88 -146 0 -399 0 -398 73 123 c41 67 77 125 80 129 4 3
21 -9 39 -28 18 -19 49 -42 68 -52 34 -17 34 -17 10 0 -59 43 -78 68 -83 111
l-5 42 44 0 c32 0 44 4 44 15 0 17 -41 21 -68 6 -16 -8 -17 9 -15 227 1 131 4
244 8 254 5 13 12 14 38 7 44 -12 47 -12 47 11 0 16 -7 20 -37 20 -56 0 -65
10 -60 61 2 24 1 71 -2 104 l-6 59 -87 -146z m99 -100 c-3 -8 -6 -5 -6 6 -1
11 2 17 5 13 3 -3 4 -12 1 -19z m-97 -209 c0 -15 -7 -19 -34 -19 -54 0 -58 34
-6 42 33 5 40 1 40 -23z"/>
<path d="M202 1015 c0 -16 2 -22 5 -12 2 9 2 23 0 30 -3 6 -5 -1 -5 -18z"/>
<path d="M3051 584 c0 -11 3 -14 6 -6 3 7 2 16 -1 19 -3 4 -6 -2 -5 -13z"/>
<path d="M3254 293 c-6 -10 -48 -80 -93 -157 l-82 -138 61 4 c71 5 110 30 122
76 13 49 6 237 -8 215z"/>
<path d="M191 280 c0 -8 4 -22 9 -30 12 -18 12 -2 0 25 -6 13 -9 15 -9 5z"/>
<path d="M490 235 l0 -35 -72 0 c-64 0 -75 3 -102 28 l-31 27 25 -29 25 -28
-25 6 c-21 5 -21 4 5 -10 23 -11 24 -14 7 -10 -19 3 -30 -9 -77 -87 l-55 -92
232 -3 c128 -1 238 0 244 2 7 3 15 23 19 47 5 29 13 43 26 46 11 3 26 18 34
34 11 20 27 32 55 39 22 6 40 12 40 14 0 2 -25 3 -55 2 -31 0 -60 5 -67 12 -7
7 -17 12 -23 12 -5 0 -3 -5 5 -11 11 -7 3 -9 -30 -4 -25 3 -70 5 -101 5 l-55
-1 4 36 c3 27 1 35 -12 35 -12 0 -16 -9 -16 -35z m-37 -52 c-13 -2 -33 -2 -45
0 -13 2 -3 4 22 4 25 0 35 -2 23 -4z m140 0 c-7 -2 -19 -2 -25 0 -7 3 -2 5 12
5 14 0 19 -2 13 -5z"/>
<path d="M1595 260 c-4 -6 -6 -20 -5 -33 1 -12 2 -27 1 -34 -2 -18 -60 -25
-116 -14 l-50 10 63 -3 c34 -1 62 1 62 6 0 10 -19 11 -125 9 -60 0 -75 2 -60
9 17 9 17 10 -5 4 -14 -4 -51 -9 -82 -11 -32 -3 -58 -8 -58 -12 0 -4 -42 -7
-92 -6 l-93 0 -3 28 c-2 16 -9 27 -19 27 -12 0 -14 -9 -11 -40 l4 -40 -54 0
c-29 0 -62 5 -73 10 -13 7 -25 8 -37 1 -14 -9 -12 -10 13 -11 17 0 41 -7 55
-15 28 -16 54 -20 30 -5 -11 7 -7 10 18 10 39 0 42 -15 5 -26 -21 -5 -24 -8
-10 -11 22 -6 22 -8 -13 -64 l-30 -49 180 0 180 0 -6 29 c-8 40 10 68 47 73
43 7 63 -15 56 -64 -8 -62 17 -47 70 42 47 79 48 80 88 80 23 0 50 6 60 14 16
12 22 11 44 -10 14 -13 30 -24 36 -24 5 0 2 5 -7 11 -26 15 -22 27 10 32 21 3
18 4 -12 6 l-39 1 7 40 c5 31 3 40 -8 40 -8 0 -18 -5 -21 -10z m-217 -77 c-10
-2 -28 -2 -40 0 -13 2 -5 4 17 4 22 1 32 -1 23 -4z"/>
<path d="M183 198 c-20 -21 -24 -31 -15 -40 9 -9 17 -5 33 16 12 16 27 25 36
22 8 -3 11 -2 8 3 -3 5 5 11 17 13 16 3 12 5 -15 9 -31 4 -41 1 -64 -23z"/>
<path d="M1433 213 c9 -2 23 -2 30 0 6 3 -1 5 -18 5 -16 0 -22 -2 -12 -5z"/>
<path d="M1728 193 c12 -2 30 -2 40 0 9 3 -1 5 -23 4 -22 0 -30 -2 -17 -4z"/>
<path d="M815 140 c17 -11 35 -20 40 -20 6 0 -5 9 -23 20 -42 26 -56 26 -17 0z"/>
<path d="M878 113 c7 -3 16 -2 19 1 4 3 -2 6 -13 5 -11 0 -14 -3 -6 -6z"/>
</g>
</svg>
