<?xml version="1.0" encoding="utf-8"?>
<!-- Generator: Adobe Illustrator 24.1.2, SVG Export Plug-In . SVG Version: 6.00 Build 0)  -->
<svg version="1.1" id="Layer_1" xmlns="http://www.w3.org/2000/svg" xmlns:xlink="http://www.w3.org/1999/xlink" x="0px" y="0px"
	 viewBox="0 0 24.5 23.7" style="enable-background:new 0 0 24.5 23.7;" xml:space="preserve">
<style type="text/css">
	.st0{fill:#00AAFF;}
	.st1{fill:#7A1DFF;}
	.st2{fill:none;stroke:#00AAFF;stroke-width:0.75;stroke-miterlimit:10;}
	.st3{fill:#F72163;}
	.st4{fill:#FD5601;}
	.st5{fill:#FFC208;}
	.st6{fill:#9DE411;}
</style>
<g>
	<polygon class="st0" points="18.6,11.3 15.7,13.4 18.8,22.9 21.7,20.9 	"/>
	<polygon class="st1" points="12.5,19.9 7.2,23.7 4.4,21.7 12.5,15.8 20.6,21.7 17.7,23.7 	"/>
	<polygon class="st3" points="1.1,7.5 9.2,13.4 6.1,22.9 3.3,20.9 5.3,14.7 0,10.9 	"/>
	<polygon class="st4" points="8,6.2 10,0 13.6,0 10.5,9.6 0.4,9.6 1.5,6.2 	"/>
	<polygon class="st5" points="16.9,6.2 14.9,0 11.4,0 14.5,9.6 24.5,9.6 23.5,6.2 	"/>
	<path class="st6" d="M24.5,9.6l-1.1-3.4l-11,8l-4.6-3.3l-1.1,3.4c2.8,2.1,5.7,4.1,5.7,4.1L24.5,9.6z"/>
</g>
</svg>
