<svg xmlns="http://www.w3.org/2000/svg" width="61.5" height="67.228" viewBox="0 0 61.5 67.228"><defs><style>.a{fill:none;stroke:#161e3f;stroke-linecap:round;stroke-linejoin:round;stroke-width:1.5px;}</style></defs><g transform="translate(455.551 -3125.196)"><g transform="translate(-454.801 3125.946)"><g transform="translate(17.075 31.593)"><path class="a" d="M-382,3240.376a8.314,8.314,0,0,1-3.429.768,8.308,8.308,0,0,1-3.5-.766l.6-.8a1.889,1.889,0,0,1,.946-.687,1.684,1.684,0,0,1,.381-.069c.759-.061.934.238,1.548.248s.786-.294,1.547-.22a1.7,1.7,0,0,1,.473.109,1.914,1.914,0,0,1,.808.622Z" transform="translate(399.331 -3222.05)"/><path class="a" d="M-386.689,3248.634l.864.669a2.48,2.48,0,0,0,.929.265c.066.006.137.008.2.008h1.3a2.346,2.346,0,0,0,.381-.031,2.448,2.448,0,0,0,.88-.314l.743-.6" transform="translate(397.933 -3228.188)"/><path class="a" d="M-381.458,3227.047c-.053.226-.222.275-.883.734a2.419,2.419,0,0,1-2.479,0c-.66-.459-.83-.508-.883-.734" transform="translate(397.316 -3214.699)"/><g transform="translate(2.478 5.082)"><path class="a" d="M-410.057,3208.029a1.7,1.7,0,0,1,.994-.351,1.712,1.712,0,0,1,1.077.362,4.032,4.032,0,0,0,1.724.882,4.235,4.235,0,0,0,1.358.072,10.056,10.056,0,0,0,1.787-.429c.422-.119.775-.219,1.033-.294" transform="translate(410.057 -3207.678)"/><path class="a" d="M-404.272,3211.581a1.614,1.614,0,0,1,1.269-.858" transform="translate(406.442 -3209.581)"/></g><g transform="translate(16.927 5.082)"><path class="a" d="M-363.564,3208.029a1.7,1.7,0,0,0-.994-.351,1.715,1.715,0,0,0-1.077.362,4.027,4.027,0,0,1-1.724.882,4.232,4.232,0,0,1-1.358.072,10.049,10.049,0,0,1-1.787-.429c-.422-.119-.775-.219-1.033-.294" transform="translate(371.538 -3207.678)"/><path class="a" d="M-359.451,3210.723a1.614,1.614,0,0,1,1.269.858" transform="translate(363.985 -3209.581)"/></g><path class="a" d="M-390.673,3219.66a14.7,14.7,0,0,1-4.093,6.29c-.656.662-1.361,1.267-2.055,1.889-1.208,1.031-2.407,1.933-3.423,2.649a4.67,4.67,0,0,1-5.459,0c-3.3-2.327-8.545-6.609-9.706-10.97a37.86,37.86,0,0,1-1.253-8.337" transform="translate(416.662 -3204.784)"/><path class="a" d="M-400.158,3195.687a4.39,4.39,0,0,0-2.627-1.4,14.387,14.387,0,0,0-4.115,0" transform="translate(410.562 -3194.13)"/><path class="a" d="M-373.988,3196.013a4.26,4.26,0,0,1,2.3-1.329" transform="translate(389.996 -3194.476)"/></g><path class="a" d="M-416.192,3139.5s8.061,6.578,1.82,13.608c-4.079,4.6-11.725,4.337-13.573,11.049a12.662,12.662,0,0,0,1.074,9.325,22.432,22.432,0,0,1,2.339,4.413,7.709,7.709,0,0,1-.128,4.893" transform="translate(439.726 -3134.413)"/><path class="a" d="M-362.043,3194.281a9.418,9.418,0,0,0-.87-12.2c-2.214-2.281-5.431-3.078-7.861-5.064-2.827-2.31-5.185-5.473-5.463-9.221" transform="translate(409.935 -3149.231)"/><path class="a" d="M-412.289,3143.537c.617,2.211.954,4.8-.038,6.965-1.3,2.828-4.2,3.956-6.9,5.039" transform="translate(434.137 -3136.938)"/><path class="a" d="M-392.088,3134.834a20.474,20.474,0,0,1,11.124,5.143c2.26,2.095,3.942,4.934,6.628,6.533" transform="translate(419.144 -3131.5)"/><path class="a" d="M-445.672,3191.4c-3.789-2.165-4.2-6.065-1.859-9.519a4.551,4.551,0,0,0,.922-1.886c.344-2.691-3.164-4.49-4.781-6.07-1.849-1.807-3.629-4.219-3.387-6.946.195-2.188,1.491-4.19,2.657-5.984,1.146-1.761,1.855-3.345,1.418-5.476a21.47,21.47,0,0,0-.753-2.417c-1.471-4.451.1-7.978,2.827-11.5a126.72,126.72,0,0,1,10.211-10.928,19.308,19.308,0,0,1,4.011-3.489A10.315,10.315,0,0,1-429,3125.95c.81.019,1.618.061,2.428.1,1.978.093,3.976-.052,5.963-.1a10.315,10.315,0,0,1,5.411,1.234,19.309,19.309,0,0,1,4.011,3.489,126.648,126.648,0,0,1,10.211,10.928c2.727,3.524,4.3,7.051,2.827,11.5a21.476,21.476,0,0,0-.753,2.417c-.437,2.13.272,3.715,1.418,5.476,1.167,1.793,2.463,3.8,2.657,5.984.242,2.727-1.538,5.139-3.387,6.946-1.617,1.581-5.126,3.379-4.781,6.07a4.551,4.551,0,0,0,.922,1.886c2.343,3.454,1.93,7.354-1.859,9.519" transform="translate(454.801 -3125.946)"/></g><path class="a" d="M-400.792,3253.049s1.756,5.37-.819,7.482" transform="translate(-31.164 -73.409)"/><path class="a" d="M-361.565,3253.049s-1.756,5.37.819,7.482" transform="translate(-54.286 -73.409)"/></g></svg>