<svg xmlns="http://www.w3.org/2000/svg" xmlns:xlink="http://www.w3.org/1999/xlink" width="48" height="48" viewBox="0 0 48 48"><defs><clipPath id="a"><rect width="20.193" height="22.11" fill="none"/></clipPath></defs><g transform="translate(-562 -526)"><rect width="48" height="48" rx="10" transform="translate(562 526)" fill="#161e3f"/><g transform="translate(575.904 537.969)" clip-path="url(#a)"><g transform="translate(-586.903 -447.968)"><path d="M3.27,6.96,12,12.01l8.73-5.05" transform="translate(585 446.998)" fill="none" stroke="#fd5601" stroke-linecap="round" stroke-linejoin="round" stroke-width="2"/><path d="M21,16V8a2,2,0,0,0-1-1.73l-7-4a2,2,0,0,0-2,0l-7,4A2,2,0,0,0,3,8v8a2,2,0,0,0,1,1.73l7,4a2,2,0,0,0,2,0l7-4A2,2,0,0,0,21,16Z" transform="translate(585 446.998)" fill="none" stroke="#fd5601" stroke-linecap="round" stroke-linejoin="round" stroke-width="2"/><line y1="10.08" transform="translate(597 458.998)" fill="none" stroke="#fd5601" stroke-linecap="round" stroke-linejoin="round" stroke-width="2"/></g></g></g></svg>