<svg xmlns="http://www.w3.org/2000/svg" xmlns:xlink="http://www.w3.org/1999/xlink" width="261.15" height="227.889" viewBox="0 0 261.15 227.889"><defs><style>.a,.as{fill:#c97d7f;}.a,.ar{opacity:0.34;mix-blend-mode:multiply;isolation:isolate;}.b{fill:#179d9e;}.c{fill:#463757;}.d{fill:#ffe0e2;}.e{fill:snow;}.f{fill:url(#a);}.aw,.ba,.be,.bg,.bh,.g{fill:none;stroke-linecap:round;stroke-linejoin:round;}.g{stroke:#463757;stroke-width:3.237px;}.h{fill:#ffbabf;}.i{fill:#5981eb;}.j{fill:#ff9963;}.k{fill:#fff;}.l{fill:#e38b5d;}.m{fill:#ffac80;}.n{fill:#57383f;}.o{fill:#875963;}.p{fill:url(#b);}.q{fill:#754d56;}.r{fill:#e6b195;}.s{fill:#ffc5a6;}.t{fill:#593a39;}.u{fill:#cf7279;}.v{fill:#7c64ba;}.w{fill:#e88087;}.x{fill:#584785;}.y{fill:#ab3f4c;}.z{fill:#dd4078;}.aa{fill:#dea749;}.ab{fill:#c74958;}.ac{fill:#913641;}.ad{fill:#45312b;}.ae{fill:#cc6269;}.af{fill:#de999b;}.ag{fill:#503f63;}.ah{fill:#6d5ba1;}.ai{fill:#6b5485;}.aj{fill:#dcefff;}.ak{fill:#7b66b5;}.al{fill:#59466e;}.am{fill:#5d5d87;}.an{fill:#6b5e6d;}.ao{fill:#eda3a5;}.ap{fill:#fff2f2;}.aq{fill:#804e4d;}.at{fill:#56446b;}.au{fill:#ede1e1;}.av{fill:#433878;}.aw{stroke:#ede1e1;stroke-width:1.404px;}.ax{fill:#d64f5f;}.ay{fill:#c27750;}.az{fill:#ba4553;}.ba{stroke:#e38b5d;stroke-width:0.967px;}.bb{fill:#428275;}.bc{fill:#ebaeb0;}.bd{fill:#504078;}.be{stroke:#50a08f;stroke-width:12.726px;}.bf{fill:#50a08f;}.bg{stroke:#4fb8a0;stroke-width:4.267px;}.bh{stroke:#fff;stroke-width:2.579px;}.bi{fill:#3d576e;}.bj{fill:#367876;}.bk{fill:#50718f;}.bl{fill:#6087ab;}</style><linearGradient id="a" y1="0.5" x2="1" y2="0.5" gradientUnits="objectBoundingBox"><stop offset="0.159" stop-color="#f7d1d2"/><stop offset="0.745" stop-color="#f7babb"/></linearGradient><linearGradient id="b" x1="0.061" y1="0.211" x2="0.814" y2="0.719" gradientUnits="objectBoundingBox"><stop offset="0" stop-color="#a8d6cd"/><stop offset="0.632" stop-color="#85d9cb"/><stop offset="1" stop-color="#69c1b2"/></linearGradient></defs><g transform="translate(-2056.754 -161.416)"><path class="a" d="M3301.17,1346.847l-48.121-27.783-82.792,40.467,41.041,23.7.338,11.761,16.384-3.571h0a5.991,5.991,0,0,0,2.116-.7l70.642-40.711C3302.39,1349.075,3302.567,1347.653,3301.17,1346.847Z" transform="translate(-992.509 -1034.815)"/><g transform="translate(2265.949 189.258)"><path class="b" d="M4287.848,866.208s-17.641,4.71-31.193,11.437v-8.916C4263.751,865.372,4274.067,863.073,4287.848,866.208Z" transform="translate(-4244.083 -827.327)"/><path class="b" d="M4133.7,474.86c5.147-7.846,10.005-13.591,10-13.271-.109,8.516-3.082,17.839-6.752,26.163,7.748-7.362,20.183-15.546,36.134-13.8,0,0-30.291,18.026-45,30.2-4.635,3.837-3.433-8.987-6.95-5.923Z" transform="translate(-4121.128 -461.576)"/><path class="b" d="M4256.655,981.736V971.4c9.9-2.7,22.9-2.653,36.391,7.42C4293.046,978.819,4273.569,978.795,4256.655,981.736Z" transform="translate(-4244.083 -922.733)"/></g><g transform="translate(2089.63 161.416)"><path class="c" d="M2594.31,1161.574l-.041-5.1-4.564,3.484-.981-2.043-114.612-59.774a7.353,7.353,0,0,0-5.717.2l-49.653,25.735v-.717l-7.541,3.31-.025-.914.2,4.615c.116.686.629.708,1.1.952l117.961,61.682a6.6,6.6,0,0,0,5.41-.12l57.152-29.765c.87-.454,1.314-1.017,1.317-1.572Z" transform="translate(-2411.176 -995.363)"/><path class="d" d="M2531.314,1152.225l-119.208-62.2c-1.379-.72-1.2-1.989.388-2.82l57.123-29.806a6.606,6.606,0,0,1,5.406-.2l119.208,62.2c1.38.72,1.205,1.989-.388,2.82l-57.123,29.806A6.6,6.6,0,0,1,2531.314,1152.225Z" transform="translate(-2411.176 -958.211)"/><g transform="translate(73.832 9.727)"><path class="e" d="M3136.353,327.765a4.522,4.522,0,0,1,2.154,4.258l-11.181,69.1c-.245,1.524-1.609,2.086-3.045,1.257l-105.833-61.1a4.52,4.52,0,0,1-2.154-4.259l11.179-69.1c.247-1.523,1.609-2.086,3.045-1.257Z" transform="translate(-3016.255 -266.278)"/></g><path class="d" d="M4219.525,813.255c0-.039,0-.078-.005-.118a.1.1,0,0,0,0-.017.091.091,0,0,0,0-.016c0-.028,0-.055-.006-.083s-.008-.077-.013-.116c0-.018-.005-.037-.008-.055s0-.016,0-.024,0-.025,0-.037c-.006-.039-.014-.077-.021-.116s-.014-.073-.022-.11v-.007c-.008-.039-.017-.078-.027-.117s-.019-.077-.03-.115c0-.01-.006-.021-.009-.031l-.006-.022c-.006-.021-.012-.041-.019-.062q-.016-.055-.035-.11c-.009-.028-.02-.056-.028-.083l0-.012a.122.122,0,0,0,0-.012l-.039-.1-.04-.1c-.006-.014-.012-.028-.019-.042l-.008-.018-.016-.039c-.016-.034-.031-.069-.048-.1s-.032-.068-.049-.1l0-.01-.008-.015c-.018-.036-.036-.071-.055-.107s-.037-.065-.056-.1-.023-.044-.036-.065l-.018-.031c-.031-.053-.065-.1-.1-.156-.011-.017-.021-.034-.032-.051a.032.032,0,0,0,0-.008c-.043-.065-.088-.129-.134-.191l-.021-.026-.018-.024c-.017-.021-.032-.043-.049-.064s-.055-.07-.084-.1l-.033-.039-.018-.02-.03-.036-.085-.094-.066-.069-.012-.013-.011-.011c-.03-.031-.062-.062-.094-.092s-.065-.062-.1-.092l0,0,0,0c-.031-.029-.064-.057-.1-.085l-.1-.085-.013-.01-.015-.011c-.025-.02-.05-.04-.077-.059s-.07-.051-.106-.075l-.03-.02-.009-.007h0l-.063-.042-.107-.066-2.563-1.48-3.146,1.9s2.7,1.413,2.736,1.436l.106.07c.036.024.072.05.106.075s.07.053.1.08l.043.035c.055.045.11.091.163.139h0c.054.049.107.1.158.151l.02.019c.05.05.1.1.145.153l.021.024c.046.051.091.1.134.157l.023.029q.064.08.126.164c.021.029.041.058.062.087s.049.07.073.106.054.084.08.127.036.055.052.083.028.05.042.074c.025.044.051.088.074.132l.018.036q.048.092.092.186l.007.016c.031.066.06.132.087.2l.009.021c.026.065.051.131.074.2l.009.025c.022.065.043.13.063.2l.009.03c.019.065.036.13.052.2,0,.01,0,.02.006.03.016.066.029.131.041.2a.291.291,0,0,0,0,.029q.017.1.029.2c0,.009,0,.018,0,.026q.012.1.018.2c0,.033,0,.066,0,.1s0,.078,0,.117,0,.082,0,.122,0,.081-.008.122-.008.087-.013.131-.008.067-.015.1c0,0-.01.067-.028.181l-.277,1.711-.506-.291-3.188,1.726s.762.442.8.465l.106.07c.035.025.071.05.106.075s.07.053.1.08l.044.035c.055.045.11.091.162.139h0c.053.049.105.1.158.151l.019.02c.05.05.1.1.144.153l.022.024c.045.051.09.1.134.157l.022.029q.065.08.126.164c.021.029.041.058.062.087s.05.07.073.106.055.084.081.127c.017.028.035.055.051.083s.028.05.042.075c.025.044.05.088.074.132.007.012.013.024.019.036.032.061.063.124.092.186a.106.106,0,0,1,.006.016q.047.1.088.2a.177.177,0,0,0,.008.021c.026.065.052.131.074.2,0,.009.006.017.009.026q.034.1.063.2l.008.03c.019.065.036.13.052.2,0,.01,0,.02.007.03.015.066.028.131.041.2,0,.01,0,.019,0,.029.011.066.021.132.03.2,0,.009,0,.017,0,.026,0,.028,0,.055.007.083l-9.891,61.129c-.053.324-1.308,2.4-1.023,2.231l.893-.758-1.051,6.5c-.053.324-1.308,2.4-1.024,2.231l3.014-2.554a3.511,3.511,0,0,0,1.2-2.117l10.813-66.831c.052-.324.13-.81.13-.81.006-.033.011-.067.015-.1s.006-.057.009-.086c0,0,0,0,0,0a.048.048,0,0,1,0-.012c0-.009,0-.019,0-.028,0-.04.006-.081.007-.122s0-.065,0-.1v-.025c0-.039,0-.078,0-.117s0-.078-.006-.118a.094.094,0,0,0,0-.017c0-.005,0-.011,0-.016l-.006-.07,1.027-6.346.131-.81c.005-.033.01-.067.015-.1s.006-.057.008-.086c0,0,0,0,0,0a.093.093,0,0,1,0-.012c0-.01,0-.019,0-.028,0-.04.005-.081.007-.122s0-.065,0-.1v-.014a.08.08,0,0,0,0-.011Q4219.526,813.314,4219.525,813.255Z" transform="translate(-4019.187 -738.551)"/><g transform="translate(87.101)"><path class="d" d="M3269.8,222.567l-104.9-60.561h0l-.007,0-.156-.09h0l-.277-.159-.108-.056-.11-.052-.11-.047-.114-.043q-.057-.02-.114-.037c-.041-.012-.081-.023-.121-.034h-.008l-.011,0-.1-.023-.053-.009-.044-.007-.033-.006c-.043-.006-.085-.01-.128-.013h-.012c-.051,0-.1-.005-.15,0h-.017l-.067,0c-.027,0-.054,0-.08,0l-.022,0c-.036,0-.072.01-.107.015l-.058.008-.012,0a1.692,1.692,0,0,0-.207.057l-.014,0-.021.01a1.623,1.623,0,0,0-.251.116l-3.08,1.79a1.617,1.617,0,0,1,.247-.114c.033-.012.066-.022.1-.032s.081-.024.123-.033.1-.02.15-.026l.057-.008a1.94,1.94,0,0,1,.215-.009h.041a2.1,2.1,0,0,1,.226.019l.017,0a2.414,2.414,0,0,1,.245.049l.02.005q.121.032.245.078l.024.009c.087.033.175.071.263.115l.108.056.083.047.581.335h0L3267.1,224.579a.388.388,0,0,0,.389,0l2.306-1.34A.388.388,0,0,0,3269.8,222.567Zm-105.932-60.374Z" transform="translate(-3159.299 -161.416)"/></g><path class="c" d="M3143.1,240.957l-105.834-61.1c-1.437-.829-2.8-.267-3.046,1.257l-11.179,69.1a3.16,3.16,0,0,0-.034.638l-.564,3.489a4.521,4.521,0,0,0,2.154,4.259l105.833,61.1c1.437.829,2.8.268,3.046-1.257l11.181-69.1a3.181,3.181,0,0,0,.033-.639l.564-3.488A4.52,4.52,0,0,0,3143.1,240.957Z" transform="translate(-2948.002 -177.796)"/><path class="f" d="M3170.443,306.128,3070.06,249.261c-1.363-.772-2.646-.361-2.869.917l-10.111,57.973a2.489,2.489,0,0,0,0,.782l-1.045,5.99a3.976,3.976,0,0,0,2.062,3.71L3158.475,375.5c1.363.772,2.648.362,2.869-.917l10.113-57.972a2.507,2.507,0,0,0,0-.782l1.045-5.989A3.977,3.977,0,0,0,3170.443,306.128Z" transform="translate(-2978.479 -240.759)"/><line class="g" x2="108.602" y2="62.68" transform="translate(73.326 93.535)"/></g><g transform="translate(2131.532 269.031)"><g transform="translate(23.469)"><path class="h" d="M3024.469,1216.512a.788.788,0,0,1-.678-.079l-6.233-3.6c-.225-.13-.286-.305-.137-.392l4.129-2.385a.783.783,0,0,1,.678.079l6.233,3.6c.224.13.287.3.136.391Z" transform="translate(-3017.339 -1210.011)"/></g><g transform="translate(30.7 10.741)"><path class="h" d="M3102.428,1332.31a.781.781,0,0,1-.68-.079l-6.232-3.6c-.225-.13-.284-.3-.134-.391l4.131-2.386a.782.782,0,0,1,.674.079l6.233,3.6c.228.132.286.306.14.391Z" transform="translate(-3095.299 -1325.811)"/></g><g transform="translate(27.045 15.2)"><path class="h" d="M3063.021,1380.376a.782.782,0,0,1-.676-.08l-6.235-3.6c-.221-.128-.288-.3-.138-.391l4.131-2.387a.793.793,0,0,1,.675.08l6.234,3.6c.224.129.285.305.14.39Z" transform="translate(-3055.892 -1373.876)"/></g><g transform="translate(17.158 16.062)"><path class="h" d="M2956.433,1389.665a.785.785,0,0,1-.675-.078l-6.234-3.6c-.222-.128-.284-.3-.136-.39l4.131-2.386a.787.787,0,0,1,.677.078l6.234,3.6c.223.129.283.3.134.39Z" transform="translate(-2949.307 -1383.166)"/></g><g transform="translate(0 13.143)"><path class="h" d="M2771.462,1358.615a.784.784,0,0,1-.677-.079l-6.233-3.6c-.225-.13-.287-.305-.138-.391l4.85-2.8a.791.791,0,0,1,.677.079l6.233,3.6c.225.13.283.307.138.391Z" transform="translate(-2764.332 -1351.701)"/></g><g transform="translate(8.578 18.093)"><path class="h" d="M2866.109,1413.227a1.009,1.009,0,0,1-.8-.153l-8.167-4.713c-.293-.169-.413-.378-.264-.464l4.85-2.8a1.018,1.018,0,0,1,.8.152l8.167,4.713c.3.171.411.38.265.465Z" transform="translate(-2856.81 -1405.06)"/></g><g transform="translate(64.423 52.13)"><path class="h" d="M3465.958,1777.14a.77.77,0,0,1-.632-.105l-6.229-3.594c-.227-.131-.311-.3-.187-.368l1.793-1.036a.78.78,0,0,1,.636.108l6.229,3.594c.224.13.305.294.183.365Z" transform="translate(-3458.853 -1772.004)"/></g><g transform="translate(72.752 57.061)"><path class="h" d="M3555.743,1830.3a.77.77,0,0,1-.632-.105l-6.229-3.595c-.227-.131-.311-.3-.187-.367l1.793-1.036a.781.781,0,0,1,.636.108l6.229,3.595c.225.129.306.294.183.365Z" transform="translate(-3548.638 -1825.163)"/></g><g transform="translate(81.584 62.081)"><path class="h" d="M3650.96,1884.375a.77.77,0,0,1-.625-.111l-6.231-3.6c-.223-.129-.313-.292-.194-.362l1.727-1a.783.783,0,0,1,.626.112l6.231,3.6c.225.13.31.292.192.361Z" transform="translate(-3643.858 -1879.279)"/></g><g transform="translate(76.154 55.2)"><path class="h" d="M3592.418,1810.193a.773.773,0,0,1-.625-.111l-6.23-3.6c-.224-.129-.313-.293-.194-.362l1.727-1a.784.784,0,0,1,.627.112l6.23,3.6c.225.13.311.292.192.361Z" transform="translate(-3585.315 -1805.097)"/></g><g transform="translate(19.293 24.273)"><path class="h" d="M3013.789,1498.415a.792.792,0,0,1-.681-.081l-40.562-23.408c-.222-.128-.288-.305-.139-.391l4.85-2.8a.8.8,0,0,1,.678.08l40.563,23.408c.226.13.287.309.141.393Z" transform="translate(-2972.327 -1471.688)"/></g><g transform="translate(11.901 21.733)"><path class="h" d="M2897.495,1447.282a.1.1,0,0,1-.065-.018l-4.764-2.75c-.026-.015-.041-.032-.031-.037l.3-.174a.1.1,0,0,1,.064.018l4.765,2.75c.026.015.04.032.031.038Z" transform="translate(-2892.631 -1444.301)"/></g><g transform="translate(2.478 15.769)"><path class="h" d="M2793.117,1381.375a.042.042,0,0,1-.037,0l-2.023-1.167c-.011-.006-.013-.016,0-.021l.3-.174a.041.041,0,0,1,.037,0l2.023,1.167c.011.007.013.016,0,.022Z" transform="translate(-2791.047 -1380.007)"/></g><g transform="translate(25.7 20.987)"><path class="h" d="M3048.521,1442.764a.788.788,0,0,1-.678-.08l-6.233-3.6c-.221-.127-.286-.306-.138-.391l4.13-2.386a.8.8,0,0,1,.679.079l6.233,3.6c.226.13.286.307.137.392Z" transform="translate(-3041.392 -1436.263)"/></g><g transform="translate(34.284 25.941)"><path class="h" d="M3141.063,1496.168a.788.788,0,0,1-.675-.078l-6.232-3.6c-.224-.129-.287-.306-.139-.392l4.13-2.386a.793.793,0,0,1,.679.08l6.233,3.6c.221.128.283.3.134.39Z" transform="translate(-3133.936 -1489.669)"/></g><g transform="translate(42.868 30.895)"><path class="h" d="M3233.6,1549.571a.785.785,0,0,1-.675-.078l-6.234-3.6c-.223-.128-.284-.3-.136-.39l4.13-2.386a.787.787,0,0,1,.677.077l6.234,3.6c.223.128.283.3.135.39Z" transform="translate(-3226.478 -1543.073)"/></g><g transform="translate(51.448 35.846)"><path class="h" d="M3326.105,1602.953a.784.784,0,0,1-.675-.078l-6.233-3.6c-.226-.13-.287-.306-.139-.391l4.131-2.386a.788.788,0,0,1,.679.079l6.234,3.6c.224.129.283.305.135.391Z" transform="translate(-3318.977 -1596.453)"/></g><g transform="translate(60.033 40.8)"><path class="h" d="M3418.648,1656.358a.794.794,0,0,1-.68-.081l-6.231-3.6c-.222-.128-.283-.3-.136-.39l4.13-2.386a.787.787,0,0,1,.676.078l6.231,3.6c.226.13.288.308.14.393Z" transform="translate(-3411.52 -1649.858)"/></g><g transform="translate(68.617 45.75)"><path class="h" d="M3511.19,1709.718a.79.79,0,0,1-.677-.079l-6.232-3.6c-.225-.13-.286-.306-.139-.391l4.13-2.386a.79.79,0,0,1,.679.079l6.232,3.6c.224.129.285.306.136.392Z" transform="translate(-3504.062 -1703.219)"/></g><g transform="translate(77.199 50.702)"><path class="h" d="M3614.465,1769.317a.788.788,0,0,1-.677-.079l-16.982-9.8c-.225-.13-.285-.306-.138-.391l4.13-2.386a.789.789,0,0,1,.678.079l16.982,9.8c.224.13.285.306.136.391Z" transform="translate(-3596.588 -1756.614)"/></g><g transform="translate(35.585 19.642)"><path class="h" d="M3155.086,1428.263a.771.771,0,0,1-.673-.078l-6.234-3.6c-.224-.129-.287-.3-.137-.389l4.131-2.387a.785.785,0,0,1,.674.079l6.234,3.6c.225.13.282.3.136.388Z" transform="translate(-3147.96 -1421.765)"/></g><g transform="translate(44.173 25.08)"><path class="h" d="M3247.668,1486.888a.782.782,0,0,1-.675-.079l-6.236-3.6c-.222-.128-.285-.3-.135-.388l4.132-2.387a.783.783,0,0,1,.672.078l6.236,3.6c.222.128.284.3.138.389Z" transform="translate(-3240.54 -1480.389)"/></g><g transform="translate(52.754 30.032)"><path class="h" d="M3340.185,1540.279a.786.786,0,0,1-.676-.08l-6.233-3.6c-.22-.127-.289-.3-.14-.391l4.132-2.387a.8.8,0,0,1,.677.081l6.232,3.6c.223.129.286.305.139.39Z" transform="translate(-3333.057 -1533.779)"/></g><g transform="translate(61.338 34.986)"><path class="h" d="M3432.718,1593.677a.781.781,0,0,1-.675-.079l-6.232-3.6c-.225-.13-.288-.3-.138-.391l4.131-2.387a.787.787,0,0,1,.675.08l6.232,3.6c.224.129.284.305.138.39Z" transform="translate(-3425.591 -1587.179)"/></g><g transform="translate(69.922 39.935)"><path class="h" d="M3525.262,1647.039a.781.781,0,0,1-.675-.079l-6.236-3.6c-.225-.13-.286-.3-.136-.389l4.131-2.387a.784.784,0,0,1,.674.079l6.236,3.6c.222.128.285.3.138.389Z" transform="translate(-3518.133 -1640.539)"/></g><g transform="translate(78.505 44.888)"><path class="h" d="M3617.785,1700.433a.778.778,0,0,1-.674-.078l-6.231-3.6c-.227-.131-.29-.305-.141-.392l4.131-2.387a.79.79,0,0,1,.678.082l6.23,3.6c.224.129.284.3.137.389Z" transform="translate(-3610.658 -1693.934)"/></g><g transform="translate(87.088 49.842)"><path class="h" d="M3710.316,1753.831a.779.779,0,0,1-.674-.078l-6.236-3.6c-.222-.128-.284-.3-.134-.388l4.131-2.387a.783.783,0,0,1,.672.078l6.235,3.6c.222.128.283.3.137.389Z" transform="translate(-3703.19 -1747.333)"/></g><g transform="translate(39.246 15.669)"><path class="h" d="M3194.55,1385.428a.783.783,0,0,1-.679-.078l-6.233-3.6c-.222-.128-.283-.3-.133-.39l4.131-2.386a.784.784,0,0,1,.672.078l6.233,3.6c.225.13.286.305.139.39Z" transform="translate(-3187.422 -1378.93)"/></g><g transform="translate(47.826 20.62)"><path class="h" d="M3287.053,1438.81a.782.782,0,0,1-.677-.077l-6.233-3.6c-.224-.129-.287-.3-.136-.392l4.131-2.386a.788.788,0,0,1,.676.08l6.234,3.6c.222.128.283.3.136.389Z" transform="translate(-3279.926 -1432.312)"/></g><g transform="translate(56.41 25.574)"><path class="h" d="M3379.589,1492.211a.784.784,0,0,1-.68-.078l-6.232-3.6c-.223-.129-.284-.3-.133-.391l4.131-2.386a.785.785,0,0,1,.673.079l6.232,3.6c.226.13.287.306.14.391Z" transform="translate(-3372.461 -1485.713)"/></g><g transform="translate(64.99 30.526)"><path class="h" d="M3472.1,1545.595a.778.778,0,0,1-.677-.077l-6.234-3.6c-.224-.129-.286-.3-.135-.392l4.131-2.386a.785.785,0,0,1,.675.08l6.234,3.6c.225.13.283.3.137.389Z" transform="translate(-3464.967 -1539.096)"/></g><g transform="translate(73.577 35.477)"><path class="h" d="M3564.667,1598.972a.781.781,0,0,1-.675-.076l-6.234-3.6c-.226-.13-.285-.3-.135-.391l4.13-2.386a.784.784,0,0,1,.675.08l6.234,3.6c.22.128.281.3.135.388Z" transform="translate(-3557.54 -1592.475)"/></g><g transform="translate(82.159 40.43)"><path class="h" d="M3657.188,1652.365a.786.786,0,0,1-.681-.079l-6.233-3.6c-.221-.127-.285-.3-.134-.391l4.131-2.386a.787.787,0,0,1,.674.079l6.233,3.6c.226.131.287.307.141.391Z" transform="translate(-3650.058 -1645.866)"/></g><g transform="translate(90.741 45.382)"><path class="h" d="M3749.708,1705.757a.783.783,0,0,1-.677-.077l-6.233-3.6c-.225-.13-.285-.3-.135-.391l4.131-2.386a.784.784,0,0,1,.675.079l6.234,3.6c.222.129.283.3.137.389Z" transform="translate(-3742.58 -1699.258)"/></g><g transform="translate(17.78 3.286)"><path class="h" d="M2967.484,1254.436a.784.784,0,0,1-.68-.078l-10.569-6.1c-.225-.13-.287-.305-.136-.392l4.131-2.386a.787.787,0,0,1,.676.08l10.569,6.1c.225.13.286.306.139.39Z" transform="translate(-2956.017 -1245.434)"/></g><g transform="translate(100.676 44.547)"><path class="h" d="M3861.145,1699.256a.785.785,0,0,1-.678-.079l-10.569-6.1c-.22-.127-.285-.3-.136-.391l4.129-2.385a.788.788,0,0,1,.677.078l10.569,6.1c.224.13.286.3.137.391Z" transform="translate(-3849.681 -1690.255)"/></g><g transform="translate(12.093 6.572)"><path class="h" d="M2908.2,1291.032a.776.776,0,0,1-.676-.08l-12.6-7.271c-.225-.13-.289-.3-.139-.391l4.132-2.387a.787.787,0,0,1,.675.08l12.6,7.271c.227.131.286.305.139.39Z" transform="translate(-2894.706 -1280.858)"/></g><g transform="translate(6.406 9.857)"><path class="h" d="M2842.693,1324.028a.789.789,0,0,1-.677-.08l-8.4-4.848c-.225-.13-.286-.306-.138-.391l4.13-2.386a.789.789,0,0,1,.679.079l8.4,4.848c.225.129.285.306.137.392Z" transform="translate(-2833.396 -1316.276)"/></g><g transform="translate(32.053 4.954)"><path class="h" d="M3117.007,1269.914a.785.785,0,0,1-.679-.08l-6.229-3.595c-.225-.13-.287-.306-.137-.392l4.129-2.385a.785.785,0,0,1,.678.079l6.229,3.595c.227.131.288.306.138.392Z" transform="translate(-3109.88 -1263.415)"/></g><g transform="translate(40.595 9.879)"><path class="h" d="M3209.1,1323.014a.788.788,0,0,1-.679-.079l-6.233-3.6c-.223-.129-.286-.305-.137-.391l4.129-2.385a.786.786,0,0,1,.678.079l6.233,3.6c.225.13.287.305.138.392Z" transform="translate(-3201.967 -1316.513)"/></g><g transform="translate(49.178 14.832)"><path class="h" d="M3301.627,1376.411a.779.779,0,0,1-.675-.078l-6.234-3.6c-.222-.129-.284-.3-.135-.391l4.129-2.385a.782.782,0,0,1,.676.078l6.233,3.6c.226.13.284.3.134.39Z" transform="translate(-3294.502 -1369.913)"/></g><g transform="translate(57.762 19.786)"><path class="h" d="M3394.173,1429.818a.787.787,0,0,1-.678-.079l-6.229-3.595c-.226-.13-.287-.306-.138-.392l4.129-2.385a.785.785,0,0,1,.679.079l6.229,3.6c.224.129.287.305.137.392Z" transform="translate(-3387.046 -1423.319)"/></g><g transform="translate(66.343 24.738)"><path class="h" d="M3486.675,1483.2a.777.777,0,0,1-.675-.077l-6.232-3.6c-.226-.13-.287-.306-.138-.392l4.129-2.385a.784.784,0,0,1,.679.079l6.232,3.6c.226.13.283.3.134.389Z" transform="translate(-3479.549 -1476.702)"/></g><g transform="translate(74.929 29.689)"><path class="h" d="M3579.241,1536.574a.785.785,0,0,1-.676-.078l-6.236-3.6c-.222-.129-.283-.3-.134-.39l4.129-2.385a.779.779,0,0,1,.675.077l6.236,3.6c.222.128.284.3.135.39Z" transform="translate(-3572.114 -1530.075)"/></g><g transform="translate(83.509 34.64)"><path class="h" d="M3671.741,1589.954a.786.786,0,0,1-.678-.079l-6.233-3.6c-.225-.13-.288-.306-.139-.392l4.129-2.385a.788.788,0,0,1,.68.08l6.233,3.6c.224.129.286.3.137.391Z" transform="translate(-3664.61 -1583.453)"/></g><g transform="translate(92.093 39.594)"><path class="h" d="M3764.278,1643.355a.779.779,0,0,1-.674-.076l-6.238-3.6c-.221-.128-.282-.3-.133-.389l4.129-2.385a.781.781,0,0,1,.674.077l6.237,3.6c.223.128.283.3.133.389Z" transform="translate(-3757.151 -1636.857)"/></g><g transform="translate(95.67 50.335)"><path class="h" d="M3804.25,1752.775a.954.954,0,0,0-.365-.12.5.5,0,0,0-.307.042l-4.131,2.386a.142.142,0,0,0-.075.179.457.457,0,0,0,.207.211l1.627.939-5.417,3.129a.14.14,0,0,0-.071.18.449.449,0,0,0,.209.211l4.2,2.423a.976.976,0,0,0,.367.122.508.508,0,0,0,.311-.041l9.82-5.672a.137.137,0,0,0,.068-.179.439.439,0,0,0-.21-.212Z" transform="translate(-3795.709 -1752.649)"/></g><g transform="translate(9.723 12.615)"><path class="h" d="M2874.015,1348.989c-.009.005-.039,0-.065-.018l-4.765-2.75c-.026-.015-.041-.032-.031-.038l.3-.174a.1.1,0,0,1,.064.018l4.765,2.75c.027.015.041.032.032.037Z" transform="translate(-2869.151 -1346.008)"/></g></g><path class="h" d="M2967.534,1624.324l-22.509-12.628c-.261-.146-.256-.391.011-.545l9.566-5.506a1.079,1.079,0,0,1,.958-.013l22.51,12.628c.26.146.256.391-.011.545l-9.566,5.506A1.079,1.079,0,0,1,2967.534,1624.324Z" transform="translate(-798.756 -1299.461)"/><g transform="translate(2167.694 216.294)"><path class="i" d="M3171.669,712.925Z" transform="translate(-3171.669 -712.925)"/></g><g transform="translate(2156.954 178.019)"><path class="j" d="M3070.687,368.162l-8.394-4.619c-4.992-2.747-8.033-9.96-6.758-16.027h0c1.275-6.068,6.4-8.785,11.395-6.038l8.393,4.619c4.992,2.747,8.033,9.96,6.759,16.027h0C3080.806,368.193,3075.679,370.909,3070.687,368.162Z" transform="translate(-3055.244 -340.406)"/><path class="j" d="M3227.625,642.883l4.094,5.966.348-5.28Z" transform="translate(-3211.635 -614.825)"/><ellipse class="k" cx="1.514" cy="2.069" rx="1.514" ry="2.069" transform="translate(6.569 9.653) rotate(-16.931)"/><ellipse class="k" cx="1.514" cy="2.069" rx="1.514" ry="2.069" transform="translate(11.608 12.426) rotate(-16.931)"/><ellipse class="k" cx="1.514" cy="2.069" rx="1.514" ry="2.069" transform="matrix(0.957, -0.291, 0.291, 0.957, 16.647, 15.199)"/></g><g transform="translate(2165.995 268.957)"><path class="a" d="M3207.822,1282.46l-34.508-20.528-2.623,11.024h0l-.01.041-2.423,10.19h0l-.051.216-1.12,4.706Zm-12.5-1.584-21.5,2.981,3.286-13.813Z" transform="translate(-3164.453 -1259.033)"/><g transform="translate(0.192 2.314)"><path class="l" d="M3181.492,1276.147l-34.509-20.528-.849,3.568-.046.192h0l-.6,2.52-.009.038h0l-1.119,4.707h0l-.019.08-1.255,5.278-.04.166h0l-.605,2.545,0,.013h0l-1.12,4.707h0l-.012.049-.55,2.315Zm-12.5-1.584-21.5,2.981,3.286-13.813Z" transform="translate(-3140.757 -1255.619)"/></g><g transform="translate(0)"><path class="m" d="M3138.688,1256.85l6.226-26.176,34.509,20.527Zm10.027-18.066-3.285,13.813,21.5-2.981Z" transform="translate(-3138.688 -1230.674)"/><g transform="translate(5.332 3.041)"><path class="k" d="M3196.169,1264.178l.1-.409,2.237-.31-.1.409Z" transform="translate(-3196.169 -1263.459)"/></g><g transform="translate(4.723 5.599)"><path class="k" d="M3189.61,1291.751l.1-.409,2.236-.31-.1.409Z" transform="translate(-3189.61 -1291.032)"/></g><g transform="translate(4.115 8.156)"><path class="k" d="M3183.052,1319.324l.1-.409,2.236-.31-.1.408Z" transform="translate(-3183.052 -1318.605)"/></g><g transform="translate(3.507 10.714)"><path class="k" d="M3176.493,1346.9l.1-.409,2.237-.31-.1.409Z" transform="translate(-3176.493 -1346.179)"/></g><g transform="translate(2.898 13.272)"><path class="k" d="M3169.935,1374.471l.1-.409,2.236-.31-.1.409Z" transform="translate(-3169.935 -1373.752)"/></g><g transform="translate(2.29 15.829)"><path class="k" d="M3163.376,1402.044l.1-.409,2.236-.31-.1.409Z" transform="translate(-3163.376 -1401.325)"/></g><g transform="translate(1.682 18.387)"><path class="k" d="M3156.818,1429.617l.1-.409,2.237-.31-.1.409Z" transform="translate(-3156.818 -1428.898)"/></g><g transform="translate(1.073 20.945)"><path class="k" d="M3150.26,1457.19l.1-.409,2.236-.31-.1.409Z" transform="translate(-3150.26 -1456.471)"/></g><g transform="translate(0.465 23.502)"><path class="k" d="M3143.7,1484.764l.1-.409,2.237-.31-.1.409Z" transform="translate(-3143.702 -1484.045)"/></g></g><path class="l" d="M3138.689,1457.623l.192,2.314,40.735-5.649-.192-2.314Z" transform="translate(-3138.689 -1431.447)"/></g><g transform="translate(2173.919 186.437)"><path class="n" d="M3277.059,472.211l.611-3.105a4.034,4.034,0,0,0-1.617-4.038l-57.406-33.379a3.012,3.012,0,0,0-3.183-.12l0,0-4.358,2.653,2.8,3.993-7.146,36.31s-6.98,5.83-8.2,6.361l-2.157.94-2.437-1.231-.617,3.062,0,0a.774.774,0,0,0,.47.892l36.318,21.117a2.083,2.083,0,0,0,.277.131l5.615,3.264a2.7,2.7,0,0,0,.883.3l12.194,7.09a2.047,2.047,0,0,0,.278.13l5.614,3.265a4.82,4.82,0,0,0,3.788-.05l4.1-1.784c.1-.043.189-.089.275-.135h0l4.581-2.179,0,0a2.221,2.221,0,0,0,1.08-1.621l.611-3.105h0l7.015-35.647.612-3.106Z" transform="translate(-3193.327 -431.161)"/><path class="o" d="M3338.748,540.223,3286.8,509.264a4.033,4.033,0,0,1-1.617-4.038l8.239-41.858c.3-1.529,1.521-2.214,2.711-1.522l58.345,33.925a4.033,4.033,0,0,1,1.617,4.038l-8.238,41.858C3347.558,543.2,3339.938,540.915,3338.748,540.223Z" transform="translate(-3276.603 -458.755)"/><path class="p" d="M3377.933,595.324l-51.966-30.216a3.592,3.592,0,0,1-1.44-3.6l7.337-37.282c.268-1.362,1.355-1.972,2.415-1.355l51.966,30.216a3.593,3.593,0,0,1,1.44,3.6l-7.338,37.282C3380.08,595.331,3378.993,595.941,3377.933,595.324Z" transform="translate(-3312.302 -514.149)"/><path class="q" d="M3270.292,963.58l-36.318-21.117c-.045-.026-.093-.05-.143-.073L3215.106,931.5a2.067,2.067,0,0,0-.278-.13l-5.614-3.265a4.821,4.821,0,0,0-3.789.05l-4.1,1.784c-1.218.531-1.506,1.377-.641,1.88l36.318,21.117a1.568,1.568,0,0,0,.143.073l18.725,10.888a2.046,2.046,0,0,0,.277.131l5.615,3.265a4.821,4.821,0,0,0,3.788-.05l4.283-1.872C3271.055,964.841,3271.157,964.083,3270.292,963.58Z" transform="translate(-3199.553 -881.681)"/><g transform="translate(7.366 48.751)"><path class="r" d="M3278.4,976.765l-5.167-3a.928.928,0,0,1-.459-1.14c.048-.227.283-1.165.283-1.165l.81.447a4.766,4.766,0,0,1,3.746-.049l5.934,2.35c-.115.608-.212,1.2-.3,1.522a1.783,1.783,0,0,1-1.105.991h0A4.765,4.765,0,0,1,3278.4,976.765Z" transform="translate(-3272.738 -970.09)"/><path class="s" d="M3281.439,962l-5.167-3c-.855-.5-.57-1.334.634-1.859h0a4.765,4.765,0,0,1,3.746-.049l5.167,3c.855.5.57,1.334-.634,1.859h0A4.765,4.765,0,0,1,3281.439,962Z" transform="translate(-3275.496 -956.73)"/></g><g transform="translate(18.953 55.741)"><path class="k" d="M3400.129,1035.063l-2.041-1.125a.857.857,0,0,1-.187-1.36h0a1.376,1.376,0,0,1,1.632-.358l2.042,1.125a.857.857,0,0,1,.188,1.36h0A1.377,1.377,0,0,1,3400.129,1035.063Z" transform="translate(-3397.65 -1032.086)"/></g></g><g transform="translate(2251.094 255.196)"><ellipse class="a" cx="7.089" cy="14.27" rx="7.089" ry="14.27" transform="translate(8.871 94.236) rotate(-87.711)"/><path class="t" d="M4089.151,1955.966l1.105-.424,4.521-3.632a5.9,5.9,0,0,1,3.176.19,1.048,1.048,0,0,1,.676,1.08l-.085,1.025c-.073,1.484-.23,1.67-1.17,2.018l-5.577,2.07a3.205,3.205,0,0,1-2.935-.446l-.191-.168C4088,1957.086,4088.211,1956.315,4089.151,1955.966Z" transform="translate(-4076.469 -1868.54)"/><path class="u" d="M4134.349,1481.1c-.122,1.48-2.886.712-3.688-.467-.758-14.258-2.616-26.963-2.592-41.853l9.155-6.647c-1.726,16.829-.949,32.548-2.495,44.134C4134.623,1477.071,4134.425,1479.173,4134.349,1481.1Z" transform="translate(-4112.57 -1397.111)"/><path class="v" d="M4060.736,1189.066s.986-1.533,3.754-10.08c2.709-8.365,7.254-8.83,8.78-7.476s-4.589,8.519-4.589,8.519-1.385,8.9-5.08,10.95C4060.05,1192.949,4060.736,1189.066,4060.736,1189.066Z" transform="translate(-4051.435 -1160.133)"/><path class="t" d="M4242.379,1964.955l1.6-.757,2.119-5.349a6.348,6.348,0,0,1,3.058-1.2,1,1,0,0,1,1.055.69l.318.967c.506,1.378.431,1.615-.317,2.336l-1.545,2.073-1.812,2.433c-.748.721-3.147.884-4.012.636l-.246-.07C4241.727,1966.469,4241.631,1965.676,4242.379,1964.955Z" transform="translate(-4215.82 -1873.877)"/><path class="w" d="M4209.136,1688.434c.252,1.345-2.4,2.184-3.135.909-2.748-6.294-12.633-24.354-7.029-24.314,8.618.062,7.916-9.288,7.1-.783A51.565,51.565,0,0,0,4209.136,1688.434Z" transform="translate(-4175.361 -1604.448)"/><path class="t" d="M4138.768,1482.867a21.959,21.959,0,0,1-.027,8.752,22.921,22.921,0,0,0-.3,6.079l.718,8.112c.532,3.217.269,3.73-.078,5.006,0,0-5.034,7.746-16.78-2.814l-.041-25.038Z" transform="translate(-4107.302 -1443.136)"/><path class="v" d="M4122.75,1199.892c-.175-5.442.433-11.673.222-18.387.7-8,.892-10.2,7.142-10.253l1.625.587a11.431,11.431,0,0,1,2.216,1.085c7.444,4.7,8.973,5.7,8.224,10.327-.2,2.4-1.354-.261-1.839,1.283-.932,2.964-1.591,10.522-.757,16.039a2.84,2.84,0,0,1-1.258,2.838C4134.2,1206.016,4124,1203.291,4122.75,1199.892Z" transform="translate(-4107.715 -1160.426)"/><path class="x" d="M4261.167,1314.479l3.846,10.789-5.4,2.763Z" transform="translate(-4231.911 -1290.368)"/><g transform="translate(16.932 18.282)"><path class="y" d="M4143.942,1252.18l.028-.015-.45,15.417a.185.185,0,0,0,.087.162l9.8,6.045c.121.074-.559-1.042.281-.151l.461-15.776a.185.185,0,0,0-.088-.162l-9.8-6.045a.175.175,0,0,0-.152-.013l0-.007-.354.191Z" transform="translate(-4143.521 -1251.63)"/><rect class="z" width="0.365" height="0.365" transform="translate(9.463 22.042) rotate(-28.326)"/></g><path class="y" d="M4150.853,1259.4l-9.8-6.045a.185.185,0,0,0-.281.152l-.461,15.776a.183.183,0,0,0,.087.162l9.8,6.045a.263.263,0,0,1,.281-.151l.461-15.776A.184.184,0,0,0,4150.853,1259.4Z" transform="translate(-4123.679 -1234.885)"/><path class="k" d="M4112.344,1265.288l.7-.375,1.991-1.073.7-.375,8.549,5.256-.7.375-1.989,1.073-.7.375Z" transform="translate(-4098.304 -1244.085)"/><g transform="translate(13.054 20.369)"><path class="y" d="M4112.248,1280.206l-9.8-6.045a.185.185,0,0,0-.281.152l-.461,15.776a.183.183,0,0,0,.087.162l9.8,6.045c0-.159.105-.332.281-.152l.461-15.775A.185.185,0,0,0,4112.248,1280.206Z" transform="translate(-4101.708 -1274.133)"/><rect class="y" width="0.358" height="0.403" transform="matrix(0.88, -0.474, 0.474, 0.88, 0.242, 0.193)"/><rect class="aa" width="0.269" height="0.403" transform="matrix(0.88, -0.474, 0.474, 0.88, 9.627, 21.947)"/></g><path class="ab" d="M4109.04,1281.935l-9.8-6.045a.184.184,0,0,0-.281.151l-.461,15.776a.185.185,0,0,0,.088.162l9.8,6.045a.184.184,0,0,0,.281-.151l.461-15.776A.184.184,0,0,0,4109.04,1281.935Z" transform="translate(-4085.745 -1255.333)"/><path class="ac" d="M4207.6,1321.047l1.5-.809,1.184-.638,1.5-.809-.485,15.683c0,.161-.215.317-.357.391l-1.245.636-.875.472-1.8,1.006Z" transform="translate(-4184.2 -1294.279)"/><path class="ab" d="M4228.043,1350.162l-.08,3.293c0,.015,0,.031,0,.046l-.088,3.626a1.07,1.07,0,0,0,.007.146v.047c0,.015,0,.031,0,.046l-.088,3.627c-.01.411.2.625.466.473l.379-.215a1.313,1.313,0,0,0,.5-1.023l.08-3.293c0-.015,0-.031,0-.046l.088-3.627a.931.931,0,0,0-.007-.146l0-.047c0-.015,0-.031,0-.046l.088-3.626c.01-.411-.2-.624-.466-.473l-.379.215A1.316,1.316,0,0,0,4228.043,1350.162Z" transform="translate(-4203.035 -1321.573)"/><rect class="w" width="5.217" height="3.834" rx="1.917" transform="translate(18.39 39.761) rotate(-37.731)"/><path class="w" d="M1.917,0h0A1.917,1.917,0,0,1,3.834,1.917V3.3A1.917,1.917,0,0,1,1.917,5.217h0A1.917,1.917,0,0,1,0,3.3V1.917A1.917,1.917,0,0,1,1.917,0Z" transform="matrix(0.749, -0.662, 0.662, 0.749, 0.86, 18.07)"/><path class="w" d="M4194.007,1420.423s9.453.48,13.066-3.727l-2.244-2.857s-1.569,1.361-10.185,3.92Z" transform="translate(-4172.392 -1380.511)"/><path class="v" d="M4281.558,1256.647l.9,13.384,1.422,1.37a2.494,2.494,0,0,0,4.108-1.048,9.763,9.763,0,0,0,.368-2.887,33.418,33.418,0,0,0-2.509-13.192Z" transform="translate(-4251.821 -1235.746)"/><path class="k" d="M4209.362,1184.4s-1.59,4.18-5.026,2.332-.637-4.878-.637-4.878S4207.8,1182.667,4209.362,1184.4Z" transform="translate(-4180.209 -1170.042)"/><path class="w" d="M4012.2,1275.367s-1.983-.67-5.143-10.035l2.207-1.925s4.7,5.554,5.243,10.14C4014.841,1276.323,4012.2,1275.367,4012.2,1275.367Z" transform="translate(-4002.788 -1244.033)"/><path class="ad" d="M3965.635,1106.065h0a.462.462,0,0,1-.561-.332L3961,1089.776a.463.463,0,0,1,.333-.561h0a.462.462,0,0,1,.561.332l4.079,15.957A.463.463,0,0,1,3965.635,1106.065Z" transform="translate(-3960.982 -1085.986)"/><path class="t" d="M4152.971,1076.934a3.782,3.782,0,0,0-.446,3.523c.1.2.233.389.354.581a7.382,7.382,0,0,1,.765,1.6.712.712,0,0,0,.135.273.513.513,0,0,0,.647,0,3.534,3.534,0,0,0,.489-.506c.488-.5,7.135,4.046,7.633,3.552.675-.668.76-8.179.734-9.128-.035-1.21-6.079-.791-6.882-1.7a5.681,5.681,0,0,1-.471-.532h0c-.192-.285-.312-.833-.741-.739-.344.075-.563.629-.729.886C4153.985,1075.494,4153.419,1076.174,4152.971,1076.934Z" transform="translate(-4134.511 -1072.065)"/><path class="w" d="M4203.54,1143.124l-1.273-6.31,3.832,1.448,1.033,5.152C4207.367,1144.257,4204.532,1146.365,4203.54,1143.124Z" transform="translate(-4179.885 -1129.183)"/><path class="w" d="M3.476,0h4.3a3.476,3.476,0,0,1,3.476,3.476v0A3.476,3.476,0,0,1,7.779,6.952h-4.3A3.476,3.476,0,0,1,0,3.476v0A3.476,3.476,0,0,1,3.476,0Z" transform="translate(19.087 11.113) rotate(-80.905)"/><path class="t" d="M4180.518,1059.8c-.913-1.716-3.478-.381-4.586-1.076-1.2-.755-.5-2.005.591-2.913a5,5,0,0,1,2.574-1.079c3.613-.617,6.712,1.463,6.1,5.294,0,0-1.821,3.064-3.462,1.578-.384-.347-.4-.359-.239-.984S4180.824,1060.382,4180.518,1059.8Z" transform="translate(-4155.421 -1054.621)"/><path class="t" d="M4165.371,1080.446s.391-1.739,5.021-3.211.209-.068.209-.068l-3.967-1.746S4164.631,1076.962,4165.371,1080.446Z" transform="translate(-4146.263 -1073.484)"/><path class="t" d="M4216.105,1089.547s3.178,4.667,2.712,7.582c-.385,2.409-3.1,3.808-3.771,7.444a.765.765,0,0,0,1.329.632,10.6,10.6,0,0,1,2.428-2.11c2.371-1.438,4.215-2.929,4.272-4.167.16-3.449-1.782-10.259-1.782-10.259l-5.6-.868Z" transform="translate(-4191.467 -1084.717)"/><path class="ae" d="M4211.193,1177.856s2.059-.4,2.066-.412a8.345,8.345,0,0,1-1.843,1.444Z" transform="translate(-4187.984 -1166.045)"/><path class="w" d="M4221.184,1089.737h0c-.085-.092-.035-.281.115-.42l1.592-1.48c.149-.138.341-.176.428-.084h0c.085.092.034.281-.115.42l-1.592,1.48C4221.462,1089.791,4221.27,1089.829,4221.184,1089.737Z" transform="translate(-4197.01 -1084.626)"/><path class="w" d="M4241.052,1135.717a.814.814,0,0,1-1.371-.424,1.954,1.954,0,0,1,.688-1.954.814.814,0,0,1,1.371.424A1.956,1.956,0,0,1,4241.052,1135.717Z" transform="translate(-4213.779 -1125.826)"/></g><ellipse class="af" cx="19.52" cy="9.462" rx="19.52" ry="9.462" transform="translate(2072.82 360.526)"/><path class="af" d="M2132.684,1744.648l-75.929-44.94,45.436-26.842,76.827,44.356Z" transform="translate(0 -1355.799)"/><path class="c" d="M2486.478,2094.616l3.458-.515c2.3-1.106,3.364-1.922,4.411-1.348l.3.163c1.048.574.941,1.63-.237,2.347l-5.006,4.173a3.363,3.363,0,0,1-3.763-.28s-.583-.5-.225-2.681C2485.618,2095.232,2485.536,2095.19,2486.478,2094.616Z" transform="translate(-385.777 -1736.566)"/><path class="c" d="M2644.495,2177.635l3.425,1.116c2.63.073,3.992-.157,4.69.82l.2.277c.7.977.108,1.852-1.311,1.946l-7.364,1.4c-1.418.094-2.009-.817-2.525-1.97a4.967,4.967,0,0,1,.438-2.953C2642.6,2177.144,2643.36,2177.71,2644.495,2177.635Z" transform="translate(-526.405 -1813.676)"/><path class="v" d="M2649.881,2139.284c.036,1.624-3.913,1.712-3.949.089l-.119-5.276,3.949-.089Z" transform="translate(-530.377 -1774.166)"/><path class="v" d="M2493.969,2070.573c-.057,1.472-4.006,1.561-3.949.089l.185-4.785,3.949-.089Z" transform="translate(-393.076 -1712.273)"/><circle class="ag" cx="2.305" cy="2.305" r="2.305" transform="translate(2074.01 370.521)"/><circle class="ag" cx="2.305" cy="2.305" r="2.305" transform="translate(2075.697 359.425)"/><circle class="ag" cx="2.305" cy="2.305" r="2.305" transform="translate(2105.951 363.488) rotate(-80.854)"/><circle class="ag" cx="2.305" cy="2.305" r="2.305" transform="translate(2108.971 370.754)"/><circle class="ag" cx="2.305" cy="2.305" r="2.305" transform="translate(2089.477 377.821) rotate(-21.762)"/><path class="ah" d="M2465,2176.657l-14.346-8.3,1.159-1.69,15.44,8.417c.561.325.513.945-.107,1.377h0A2.205,2.205,0,0,1,2465,2176.657Z" transform="translate(-354.502 -1803.794)"/><path class="ah" d="M2282.77,2126.369l-15.107-4.026c-.664-.177-.749-.781-.188-1.343h0a2.6,2.6,0,0,1,2.226-.7l13.968,3.722Z" transform="translate(-190.838 -1761.684)"/><path class="ah" d="M2244,2173.9l15.875-7.552,1.611,2.018-15.094,7.181a2.8,2.8,0,0,1-2.513-.1l-.173-.119C2243.095,2174.911,2243.228,2174.267,2244,2173.9Z" transform="translate(-169.262 -1803.505)"/><path class="ah" d="M2421,2126.941l13.006-4.787a3.624,3.624,0,0,1,2.679.116l.182.105c.641.37.485.924-.347,1.23l-13.5,4.97Z" transform="translate(-330.459 -1763.229)"/><path class="ah" d="M2426.924,2184.51l.168-14.626,2.9.227-.164,14.284a1.52,1.52,0,0,1-1.466,1.454h0A1.343,1.343,0,0,1,2426.924,2184.51Z" transform="translate(-335.833 -1806.713)"/><g transform="translate(2091.122 333.957)"><path class="ai" d="M2431.958,1864.592c.818-.585,1.655-1.142,2.527-1.643q.534-.307,1.084-.585.313-.158.631-.3l.207-.094q.476-.208-.132.054a3.41,3.41,0,0,1,.986-.36c.372-.121.749-.228,1.13-.316.3-.068.606-.093.9-.17-.8.214-.5.054-.223.041.195-.01.389-.028.584-.033.267-.006.534,0,.8.019.824.059-.693-.142.081.007a7.205,7.205,0,0,1,.851.218c.09.029.18.069.271.094.489.135-.765-.4-.094-.035.2.112.411.215.609.339.118.074.229.159.347.231.256.157.033.245-.3-.235a3.954,3.954,0,0,0,.522.461c.22.213.409.452.619.674.263.277-.479-.692-.18-.235.079.121.167.235.247.355q.2.305.381.625t.341.663c.1.221.249.728-.069-.188.051.145.115.286.167.431a13.774,13.774,0,0,1,.493,1.665q.092.4.162.8c.029.16.041.329.079.487-.072-.3-.1-.722-.028-.168.108.9.246,1.79.378,2.683q.109.737.216,1.475c.048.337.095.675.142,1.013.027.2.073.6-.039-.292.031.245.065.491.1.736a46.19,46.19,0,0,1,.579,8.938,3.129,3.129,0,0,0,3.112,3.112,3.187,3.187,0,0,0,3.112-3.112,44.915,44.915,0,0,0-.531-8.561q-.29-2.315-.635-4.622c-.067-.458-.137-.916-.2-1.374q-.031-.214-.062-.427c-.083-.561.144,1.121.041.267a16.182,16.182,0,0,0-3.021-8.186,10.444,10.444,0,0,0-7.685-4.058c-4.189-.3-8.337,1.885-11.633,4.242a3.183,3.183,0,0,0-1.116,4.258c.845,1.31,2.842,2.129,4.258,1.116Z" transform="translate(-2427.263 -1854.948)"/></g><g transform="translate(2089.502 341.336)"><path class="aj" d="M2432.085,1950.482h0a1.391,1.391,0,0,1-1.387-1.387V1935.88a1.391,1.391,0,0,1,1.387-1.388h0a1.391,1.391,0,0,1,1.387,1.388v13.215A1.391,1.391,0,0,1,2432.085,1950.482Z" transform="translate(-2428.76 -1934.492)"/><g transform="translate(0 8.839)"><ellipse class="aj" cx="1.409" cy="2.441" rx="1.409" ry="2.441" transform="translate(0.879 2.818) rotate(-89.689)"/><ellipse class="ak" cx="1.915" cy="3.317" rx="1.915" ry="3.317" transform="translate(0 15.51) rotate(-89.689)"/><path class="ak" d="M2415.761,2043.048l.864,11.808h-6.612l.915-12.441Z" transform="translate(-2409.993 -2041.244)"/></g></g><path class="ag" d="M2258.59,1840.467l.022-1.813-2.5-.085-19.547-11.285a4.917,4.917,0,0,0-4.409.183l-16.828,9.716-1.574-.054-.041,1.8h0a1.3,1.3,0,0,0,.757,1.108l21.285,12.289a4.92,4.92,0,0,0,4.409-.183l17.368-10.028a2,2,0,0,0,1.047-1.21h0v-.008A1.04,1.04,0,0,0,2258.59,1840.467Z" transform="translate(-142.403 -1498.148)"/><path class="ag" d="M2235.74,1829.831l-21.285-12.289c-1.125-.65-.983-1.8.316-2.546l17.368-10.027a4.92,4.92,0,0,1,4.409-.183l21.286,12.289c1.125.65.983,1.8-.317,2.546l-17.368,10.027A4.919,4.919,0,0,1,2235.74,1829.831Z" transform="translate(-142.384 -1477.91)"/><path class="al" d="M2477.5,1902.34l-8.476-4.894c-.448-.259-.392-.715.126-1.014l6.916-3.993a1.96,1.96,0,0,1,1.756-.073l8.476,4.894c.448.259.391.715-.126,1.014l-6.916,3.993A1.959,1.959,0,0,1,2477.5,1902.34Z" transform="translate(-370.751 -1557.958)"/><path class="al" d="M2368.117,1971.921l-8.476-4.894c-.448-.259-.391-.715.126-1.014l6.916-3.993a1.959,1.959,0,0,1,1.756-.073l8.476,4.894c.448.259.392.715-.126,1.014l-6.916,3.993A1.958,1.958,0,0,1,2368.117,1971.921Z" transform="translate(-274.517 -1620.592)"/><g transform="translate(2081.958 326.639)"><path class="ai" d="M2333.419,1827.308c1.735-.938,3.618-1.657,5.446-2.438,1.648-.7,3.277-1.462,4.972-2.075q.483-.175.974-.337.256-.085.514-.167c.143-.046.868-.307.068-.025.75-.264,1.55-.45,2.325-.652,1.433-.374,2.884-.71,4.362-.949a2.835,2.835,0,0,0,2.295-3.611,3.742,3.742,0,0,0-4.042-2.557,55.4,55.4,0,0,0-9.625,2.542c-1.673.594-3.275,1.338-4.9,2.03-1.915.818-3.892,1.567-5.709,2.55a2.9,2.9,0,0,0-1.179,4.146c.916,1.432,2.97,2.368,4.5,1.543Z" transform="translate(-2328.465 -1814.454)"/></g><g transform="translate(2069.918 313.428)"><path class="am" d="M2200.433,1691.191l5.423-2.971,5.361-2.937a32.382,32.382,0,0,1,2.908-1.482l-.281.119a9.732,9.732,0,0,1,2.433-.71l-.312.042a5.479,5.479,0,0,1,1.4-.014l-.312-.042a4.276,4.276,0,0,1,1.091.295l-.28-.118a2.6,2.6,0,0,1,.554.3l-.238-.183a1.151,1.151,0,0,1,.192.2l-.184-.238a2.3,2.3,0,0,1,.283.507l-.118-.281a8.314,8.314,0,0,1,.492,2.1l-.042-.312a36.414,36.414,0,0,1,.26,4.322c.019,1.369,0,2.738-.03,4.107-.01.511-.023,1.022-.023,1.533a1.211,1.211,0,0,0,.344.83,1.174,1.174,0,0,0,1.66,0,1.218,1.218,0,0,0,.344-.83c0-.63.019-1.26.031-1.889.018-.9.031-1.8.03-2.693,0-.992-.016-1.984-.064-2.975a29.325,29.325,0,0,0-.291-3.032,7.581,7.581,0,0,0-.642-2.23,2.1,2.1,0,0,0-.185-.31,2.411,2.411,0,0,0-.389-.457,4.1,4.1,0,0,0-1.1-.611,4.186,4.186,0,0,0-.966-.272,6.436,6.436,0,0,0-1.3-.091,8.519,8.519,0,0,0-1.3.169,12,12,0,0,0-2.318.78c-.668.286-1.315.618-1.952.967l-2.192,1.2-4.163,2.281-4.231,2.318-1.08.592a1.174,1.174,0,0,0,1.185,2.027Z" transform="translate(-2198.669 -1680.851)"/></g><path class="q" d="M3303.822,1821.38l.206-.026a1.124,1.124,0,0,0,.972-1.258l-4.417-34.371a1.124,1.124,0,0,0-1.258-.971l-.206.026a1.124,1.124,0,0,0-.972,1.258l4.417,34.371A1.124,1.124,0,0,0,3303.822,1821.38Z" transform="translate(-1117.616 -1457.299)"/><path class="q" d="M2863.212,1885.519h0a1.216,1.216,0,0,1-1.107-1.315l4.776-55.448a1.215,1.215,0,0,1,1.315-1.107h0a1.216,1.216,0,0,1,1.107,1.315l-4.776,55.449A1.215,1.215,0,0,1,2863.212,1885.519Z" transform="translate(-725.044 -1496.219)"/><path class="n" d="M2893.291,2038.008l-2.313-1.583.661-6.661,2.463.385Z" transform="translate(-751.141 -1679.592)"/><path class="q" d="M2057.865,1565.606h0a1.216,1.216,0,0,1-1.107-1.316l3.51-40.753,2.4.443-3.49,40.518A1.216,1.216,0,0,1,2057.865,1565.606Z" transform="translate(0 -1224.314)"/><path class="n" d="M2087.945,1563.49l-2.313-1.582.661-6.661,2.463.385Z" transform="translate(-26.199 -1254.758)"/><path class="n" d="M3305.06,1862.279l2.229-1.7-1-6.618-2.441.51Z" transform="translate(-1122.879 -1523.664)"/><path class="an" d="M2265.912,1586.184l-.293-.043a.859.859,0,0,1-.724-.976l5.312-35.817a.86.86,0,0,1,.976-.724l.293.043a.859.859,0,0,1,.724.976l-5.312,35.818A.859.859,0,0,1,2265.912,1586.184Z" transform="translate(-188.826 -1247.153)"/><g transform="translate(2057.367 274.2)"><path class="ao" d="M2187.072,1337.02h-5.307l-75.156-43.392a5.413,5.413,0,0,0-4.87.2l-33.344,19.251h-4.981v3.591a1.376,1.376,0,0,0,.822,1.42l79.621,45.969a5.413,5.413,0,0,0,4.87-.2l37.153-21.45a1.96,1.96,0,0,0,1.19-1.645h0Z" transform="translate(-2063.393 -1289.551)"/><path class="ap" d="M2143.827,1325.346l-79.621-45.969c-1.249-.721-1.092-1.979.349-2.811l37.153-21.45a5.412,5.412,0,0,1,4.87-.2l79.621,45.969c1.248.721,1.092,1.98-.35,2.812l-37.153,21.45A5.414,5.414,0,0,1,2143.827,1325.346Z" transform="translate(-2063.363 -1254.427)"/></g><g transform="translate(2091.389 332.173)"><path class="ai" d="M2434.83,1882.094c1.519-.892,3.155-1.584,4.748-2.329s3.192-1.548,4.821-2.241l-.743.314a11.562,11.562,0,0,1,2.971-.784l-.827.111c1.076-.144,2.153-.274,3.219-.483a3.209,3.209,0,0,0,2.173-3.828,3.149,3.149,0,0,0-1.43-1.86l-.743-.313a3.132,3.132,0,0,0-1.655,0c-.6.118-1.21.214-1.82.3l.827-.111c-.9.12-1.805.2-2.687.409a15.509,15.509,0,0,0-2.894,1.082c-1.969.9-3.923,1.834-5.885,2.751-1.087.508-2.181,1-3.217,1.613a3.221,3.221,0,0,0-1.43,1.86,2.356,2.356,0,0,0-.056,1.241,2.322,2.322,0,0,0,.37,1.157,3.14,3.14,0,0,0,1.86,1.43,3.244,3.244,0,0,0,2.4-.314Z" transform="translate(-2430.145 -1870.569)"/></g><path class="ah" d="M2144.95,1693.846l-6.937-21.867a2.014,2.014,0,0,1,3.014-2.3l19.87,12.856a3.438,3.438,0,0,1,1.468,2.052l5.551,22.208a1.613,1.613,0,0,1-.684-.175Z" transform="translate(-73.631 -1355.707)"/><g transform="translate(2085.695 282.009)"><path class="w" d="M2373.324,1465.664l3.651-7.11c.507-1.532,1.01-2.765,2.542-2.257l.454.15c1.532.508,3.1,2.2,2.6,3.734l-2.922,7.544C2379.138,1469.258,2372.816,1467.2,2373.324,1465.664Z" transform="translate(-2372.873 -1447.685)"/><path class="w" d="M2439.938,1386.59a3.334,3.334,0,0,1,1.721,2.558c.027.338.378,1.22.389,1.622.027.956.312,4.141.328,4.746a2.811,2.811,0,0,1-.674,2.1c-.733.8-3.5,1.044-3.937,2.126l-2.413-4.982Z" transform="translate(-2429.175 -1384.549)"/><path class="aq" d="M2378.441,1420.166a2.581,2.581,0,0,1-1.56-1.3c-.489-1.39-1.657-3.53-1.293-5.506.492-2.674,8.8-.756,8.8-.756l-2.453,7.131a.96.96,0,0,1-.257.359,2.16,2.16,0,0,1-2.1.416Z" transform="translate(-2374.891 -1407.543)"/><ellipse class="w" cx="1.697" cy="1.132" rx="1.697" ry="1.132" transform="matrix(0.059, -0.998, 0.998, 0.059, 6.302, 11.355)"/><path class="ae" d="M2450.969,1522.079a4.807,4.807,0,0,1-.345-2.4,2.3,2.3,0,0,0,.93.888Z" transform="translate(-2442.962 -1505.295)"/><path class="t" d="M2376.653,1364.6c-9.636-.38-7.751,7.514-7.751,7.514s6.847,2.974,9.282-2.283c.651-1.489,1.851-1.313,2.56-2.071.139-.148.027-.854-.932-1.778A5.2,5.2,0,0,0,2376.653,1364.6Z" transform="translate(-2368.753 -1364.589)"/></g><g transform="translate(2099.041 293.432)"><g class="ar" transform="translate(25.858 12.337)"><path class="as" d="M2754.094,1622.568s9.664-4.2,9.9-4.339l8.7-5.132a.664.664,0,0,0-.029-1.147l-6.08-3.462Z" transform="translate(-2754.094 -1608.488)"/></g><g transform="translate(0 0.546)"><g transform="translate(0 0.733)"><path class="at" d="M2487.841,1506.638l-12.512-7.224v-.733l17.577-9.415,12.512,6.491v.732Z" transform="translate(-2475.329 -1489.267)"/></g><path class="v" d="M2487.841,1498.741l-12.512-7.224,17.577-10.148,12.512,7.224Z" transform="translate(-2475.329 -1481.369)"/></g><g transform="translate(12.959 7.752)"><g transform="translate(0 0.755)"><path class="at" d="M2627.93,1585.1l-12.9-7.448v-.755l18.122-9.707,12.9,6.692v.755Z" transform="translate(-2615.03 -1567.193)"/></g><path class="v" d="M2627.93,1576.961l-12.9-7.447,18.122-10.463,12.9,7.448Z" transform="translate(-2615.03 -1559.051)"/></g><g transform="translate(30.205 8.83)"><rect class="z" width="0.497" height="0.332"/></g><g transform="translate(14.425 8.673)"><path class="au" d="M2641.876,1584.914s-5.649-3.088-11.033-6.5c-.02-.014,0-1.086,0-1.086,2.748-1.745,15.939-8.342,15.939-8.342l11.154,6.486Z" transform="translate(-2630.834 -1568.986)"/></g><g transform="translate(14.432 7.587)"><path class="e" d="M2641.947,1573.2s-5.649-3.088-11.033-6.5c-.172-.127,15.939-9.428,15.939-9.428l11.155,6.486Z" transform="translate(-2630.912 -1557.275)"/></g><g transform="translate(1.5 1.086)"><path class="au" d="M2502.545,1503.122s-5.649-3.089-11.033-6.5c-.02-.015,0-1.086,0-1.086,2.748-1.744,15.939-8.342,15.939-8.342l11.155,5.4v1.086Z" transform="translate(-2491.503 -1487.194)"/></g><g transform="translate(1.508)"><path class="k" d="M2502.617,1491.41s-5.649-3.088-11.033-6.5c-.173-.127,15.938-9.428,15.938-9.428l11.155,6.486Z" transform="translate(-2491.583 -1475.483)"/></g><g transform="translate(14.579 12.874)"><g transform="translate(0 0.917)"><path class="au" d="M2633.079,1624.324c0,.089-.129.161-.288.161s-.288-.072-.288-.161.129-.162.288-.162S2633.079,1624.234,2633.079,1624.324Z" transform="translate(-2632.503 -1624.162)"/></g><g transform="translate(2.762 2.458)"><path class="au" d="M2662.851,1640.937c0,.089-.129.162-.288.162s-.288-.073-.288-.162.129-.161.288-.161S2662.851,1640.848,2662.851,1640.937Z" transform="translate(-2662.274 -1640.775)"/></g><g transform="translate(0.24)"><path class="av" d="M2637.9,1616.944a.048.048,0,0,1-.048-.048,2.994,2.994,0,0,0-1.357-2.34.929.929,0,0,0-.932-.1.916.916,0,0,0-.378.844.048.048,0,0,1-.1,0,1,1,0,0,1,.425-.927,1.019,1.019,0,0,1,1.027.1,3.1,3.1,0,0,1,1.4,2.423A.047.047,0,0,1,2637.9,1616.944Z" transform="translate(-2635.094 -1614.277)"/></g></g><g transform="translate(16.945 11.427)"><g transform="translate(0 0.917)"><ellipse class="au" cx="0.288" cy="0.162" rx="0.288" ry="0.162"/></g><g transform="translate(2.761 2.458)"><ellipse class="au" cx="0.288" cy="0.162" rx="0.288" ry="0.162"/></g><g transform="translate(0.24)"><path class="av" d="M2663.4,1601.342a.048.048,0,0,1-.048-.048,3,3,0,0,0-1.357-2.34.929.929,0,0,0-.931-.1.915.915,0,0,0-.378.844.048.048,0,1,1-.1,0,1.006,1.006,0,0,1,.425-.927,1.019,1.019,0,0,1,1.027.1,3.1,3.1,0,0,1,1.4,2.423A.048.048,0,0,1,2663.4,1601.342Z" transform="translate(-2660.594 -1598.675)"/></g></g><g transform="translate(19.31 9.98)"><g transform="translate(0 0.917)"><ellipse class="au" cx="0.288" cy="0.162" rx="0.288" ry="0.162"/></g><g transform="translate(2.761 2.458)"><ellipse class="au" cx="0.288" cy="0.162" rx="0.288" ry="0.162"/></g><g transform="translate(0.24)"><path class="av" d="M2688.9,1585.74a.048.048,0,0,1-.048-.048,2.994,2.994,0,0,0-1.357-2.34.929.929,0,0,0-.932-.1.916.916,0,0,0-.377.844.048.048,0,0,1-.048.048.048.048,0,0,1-.048-.048,1.006,1.006,0,0,1,.425-.926,1.019,1.019,0,0,1,1.027.1,3.1,3.1,0,0,1,1.4,2.423A.048.048,0,0,1,2688.9,1585.74Z" transform="translate(-2686.095 -1583.073)"/></g></g><g transform="translate(21.739 8.55)"><g transform="translate(0 0.917)"><ellipse class="au" cx="0.288" cy="0.162" rx="0.288" ry="0.162"/></g><g transform="translate(2.762 2.458)"><ellipse class="au" cx="0.288" cy="0.162" rx="0.288" ry="0.162"/></g><g transform="translate(0.24)"><path class="av" d="M2715.086,1570.319a.048.048,0,0,1-.047-.048,3,3,0,0,0-1.357-2.34.929.929,0,0,0-.932-.1.916.916,0,0,0-.377.844.048.048,0,0,1-.1,0,1.006,1.006,0,0,1,.425-.927,1.018,1.018,0,0,1,1.027.1,3.1,3.1,0,0,1,1.405,2.423A.048.048,0,0,1,2715.086,1570.319Z" transform="translate(-2712.277 -1567.652)"/></g></g><g transform="translate(24.123 7.166)"><g transform="translate(0 0.917)"><path class="au" d="M2735.968,1562.788c0,.089-.129.162-.288.162s-.288-.072-.288-.162.129-.161.288-.161S2735.968,1562.7,2735.968,1562.788Z" transform="translate(-2735.391 -1562.626)"/></g><g transform="translate(2.761 2.458)"><ellipse class="au" cx="0.288" cy="0.162" rx="0.288" ry="0.162"/></g><g transform="translate(0.24)"><path class="av" d="M2740.792,1555.407a.048.048,0,0,1-.048-.048,2.994,2.994,0,0,0-1.357-2.34.929.929,0,0,0-.931-.1.916.916,0,0,0-.378.844.048.048,0,1,1-.1,0,1,1,0,0,1,.425-.927,1.018,1.018,0,0,1,1.027.1,3.1,3.1,0,0,1,1.4,2.423A.048.048,0,0,1,2740.792,1555.407Z" transform="translate(-2737.982 -1552.74)"/></g></g></g><g transform="translate(2105.562 309.288)"><path class="w" d="M2545.295,1652.7c1.729,1.042,2.331,1.827,4.448,1.136,2.758-.9,11.259-7.892,13.38-10.306.83-.945-.41-3.3-1.48-2.637-2.56,1.594-9.852,6.493-12.37,7.379a20.827,20.827,0,0,1-2.545.284C2546.508,1648.481,2542.9,1651.258,2545.295,1652.7Z" transform="translate(-2544.479 -1640.775)"/></g><path class="w" d="M2455.351,1571.859l-10.291,3.769,2.089,5,10.206-6.177Z" transform="translate(-352.287 -1269.686)"/><g transform="translate(2076.167 297.386)"><path class="m" d="M2287.072,1516.156a23.324,23.324,0,0,1-3.775-2.468c-6.638-1.122-6.092-4.27-6.092-4.27-3.073-1.412-5.481.577-7.436,5.31-.929,2.25-3.669,13.15-3.669,13.15s-.4,8.613.906,9.158l16.388,8.353a62.867,62.867,0,0,1,.307-9.444c.285-2,3.193-6.538,4.048-7.806.058-.086.813,1.306.844,1.238a4.73,4.73,0,0,0-.078-3.912C2289.889,1522.894,2291.426,1518.4,2287.072,1516.156Z" transform="translate(-2266.043 -1508.974)"/></g><g transform="translate(2092.351 304.245)"><path class="m" d="M2441.005,1595.286l8.452,9.38c2.777,2.273,6.9-2.274,4.761-4.335l-6.722-10.313c-1.29-1.768-3.953-1.947-5.133-.764h0C2441.134,1590.487,2439.745,1593.738,2441.005,1595.286Z" transform="translate(-2440.508 -1588.501)"/></g><path class="k" d="M2383.461,1516.005c-5.78-1.478-9.584,2.229-9.637-6.328,0,0,1.607-.074,2.052.809.782,1.551.8,2.381,3.23,2.5,1.26.059,2.875.087,3.208.726Z" transform="translate(-287.658 -1213.821)"/><path class="l" d="M2507.538,1721.586l2.734,3.035a2.782,2.782,0,0,0,3.191.224c-1.978-.241-2.889-1.637-5.062-3.987C2508.05,1720.478,2507.538,1721.586,2507.538,1721.586Z" transform="translate(-408.97 -1403.972)"/><path class="l" d="M2417.882,1680.511s-3.39,5.134-3.667,6.664-.469,10.028-.469,10.028l-1.839-.112-2.185-8.091,4.9-12.445c.306-.776,1.342.478,1.927,1.072l3.254,3.019-1.007.594Z" transform="translate(-320.228 -1363.036)"/><path class="aw" d="M2450.368,1589.133s-3.518-5.428,1.424-8.873" transform="translate(-356.002 -1277.244)"/><path class="ai" d="M2419.852,1836.312l2.8-.5,4.782-.95,6.611,3.784-11.919,8.766-2.764-6.735Z" transform="translate(-328.972 -1506.223)"/><path class="c" d="M2349.442,1836.156c3.9.939,7.867,1.961,10.09.544,1.02-.607.236-1.447-.435-1.148-2.767.883-5.928.021-9.586-.685a.585.585,0,0,0-.615.552l-.007.122A.585.585,0,0,0,2349.442,1836.156Z" transform="translate(-265.037 -1506.796)"/><path class="l" d="M2530.289,1706.237s3.771-2.6,4.322-4.318,1.634.323,1.634.323.782,2.579-.62,3.911S2532.6,1709.845,2530.289,1706.237Z" transform="translate(-426.333 -1386.245)"/><path class="ah" d="M2117.115,1606.933l-6.937-21.867a2.014,2.014,0,0,1,3.014-2.3l20.485,13.291a3.7,3.7,0,0,1,1.577,2.095l5.6,22.2Z" transform="translate(-48.378 -1277.536)"/><path class="ak" d="M2115.07,1578.476l20.485,13.291a3.7,3.7,0,0,1,1.577,2.095l6.842,27.784a2.76,2.76,0,0,0,1.362.563l.586-.428a1.18,1.18,0,0,0,.448-1.238l-2.122-8.489-5.03-20.277a3.7,3.7,0,0,0-1.577-2.095l-20.485-13.291c-1.423-.921-4.2.624-4.129,2.167C2113.368,1578.569,2114.738,1578.261,2115.07,1578.476Z" transform="translate(-51.052 -1271.282)"/><g transform="translate(2090.587 330.745)"><path class="ak" d="M2423.731,1865.234c2.618-1.435,4.088-2.528,6.706-3.963l3.867-2.119a18.865,18.865,0,0,1,3.5-1.633,4.245,4.245,0,0,1,3.143.006,2.121,2.121,0,0,1,.253.146c-.114-.078-.082-.13-.072-.039.017.153-.073-.161.039.061a2.1,2.1,0,0,0,.134.249c-.02-.047.094.279.124.381a18.057,18.057,0,0,1,.514,4.7c.04,1.654-.013,3.306-.016,4.959a1.175,1.175,0,0,0,2.348,0c0-1.6.054-3.2.02-4.794a21.078,21.078,0,0,0-.6-5.488,3.9,3.9,0,0,0-1.009-1.829,4.969,4.969,0,0,0-3.542-.983c-2.939.215-5.559,1.984-8.074,3.362L2422.4,1863c-1.325.726-1.14,3.3.187,2.574Z" transform="translate(-2421.49 -1854.873)"/></g><path class="w" d="M2555.909,1544.846l-3.41,1.809a1.948,1.948,0,0,1-2.625-.806h0a1.947,1.947,0,0,1,.806-2.625l3.41-1.809a1.947,1.947,0,0,1,2.625.806h0A1.947,1.947,0,0,1,2555.909,1544.846Z" transform="translate(-443.746 -1242.222)"/><path class="ag" d="M2723.066,1612.261h0a.4.4,0,0,1,.541-.154l7.03,3.921a.4.4,0,0,1,.154.542h0a.4.4,0,0,1-.541.154l-7.03-3.921A.4.4,0,0,1,2723.066,1612.261Z" transform="translate(-599.816 -1306.072)"/><path class="w" d="M2715.351,1623.88l-3.41,1.809a1.947,1.947,0,0,1-2.625-.805h0a1.948,1.948,0,0,1,.805-2.625l3.41-1.809a1.948,1.948,0,0,1,2.625.806h0A1.948,1.948,0,0,1,2715.351,1623.88Z" transform="translate(-587.29 -1313.378)"/><g transform="translate(2147.877 314.696)"><g transform="translate(0 0)"><path class="a" d="M3086.685,1785.188l5.036-1.616a2.5,2.5,0,0,0,.46-.2l11.024-6.2a.6.6,0,0,0,.013-1.039l-3.344-1.989Z" transform="translate(-3075.348 -1766.51)"/><path class="ax" d="M2964.722,1707.991l15.056-8.624.028-2.936-15.052,8.242A5.186,5.186,0,0,0,2964.722,1707.991Z" transform="translate(-2964.466 -1696.003)"/><path class="y" d="M2992.232,1733.345l-.429,0v.006l-10.457-6.168a.2.2,0,0,0-.2,0l-14.766,8.341v-.136l-.4.04s.065.351.085.407c.034.1.061.234.128.274l10.782,6.447a.2.2,0,0,0,.2,0l14.946-8.664a.2.2,0,0,0,.1-.165h0Z" transform="translate(-2965.844 -1723.873)"/><path class="ax" d="M2977.16,1778.932l-10.771,2.817-.005.61-.4.04s.065.351.085.408c.034.1.061.234.128.274l10.782,6.447a.2.2,0,0,0,.112.028C2977.124,1789.553,2977.222,1778.9,2977.16,1778.932Z" transform="translate(-2965.844 -1770.851)"/><path class="ay" d="M2985.114,1738.365l-10.035-5.934a1.741,1.741,0,0,1-.06-1.162l14.259-8.054a.2.2,0,0,1,.2,0l10.783,6.361a.2.2,0,0,1,0,.347l-14.944,8.442A.2.2,0,0,1,2985.114,1738.365Z" transform="translate(-2973.972 -1720.278)"/><path class="e" d="M2983.294,1797.864l-10.215-5.958a3.6,3.6,0,0,1,.067-3.161l10.227,6.125Z" transform="translate(-2971.973 -1779.754)"/><path class="au" d="M3086.453,1777.564l14.362-8.259a5.914,5.914,0,0,1,.027-2.936l-14.359,7.932Z" transform="translate(-3075.138 -1759.453)"/><path class="y" d="M2993.668,1703.164l-.429,0v.016l-10.456-6.168a.2.2,0,0,0-.2,0l-14.765,8.341v-.09l-.278,0,0,.333h0a.2.2,0,0,0,.094.208l10.784,6.361a.2.2,0,0,0,.2,0l14.944-8.442a.2.2,0,0,0,.1-.163Z" transform="translate(-2967.252 -1696.5)"/><path class="ax" d="M2978.568,1787.813c-.062-.036-10.75-1.544-10.75-1.544v-.09l-.278,0,0,.333h0a.2.2,0,0,0,.094.208l10.784,6.361a.2.2,0,0,0,.1.028C2978.553,1793.106,2978.568,1787.813,2978.568,1787.813Z" transform="translate(-2967.252 -1777.422)"/><path class="az" d="M2978.452,1706.963l-10.783-6.361a.2.2,0,0,1,0-.347l14.888-8.41a.41.41,0,0,1,.292-.009l10.748,6.341a.2.2,0,0,1,0,.347l-14.944,8.442A.2.2,0,0,1,2978.452,1706.963Z" transform="translate(-2967.282 -1691.813)"/></g><path class="t" d="M2970.708,1796.715a2.859,2.859,0,0,1-.135-2.532l-.269-.138a3.6,3.6,0,0,0,.13,2.564Z" transform="translate(-2969.602 -1784.562)"/></g><g transform="translate(2148.546 311.277)"><g transform="translate(0 0)"><path class="l" d="M2972.342,1673.586l14.314-8.2.026-2.792-14.31,7.836A4.933,4.933,0,0,0,2972.342,1673.586Z" transform="translate(-2972.098 -1662.189)"/><path class="ay" d="M2998.5,1697.69l-.408,0v.006l-9.94-5.864a.191.191,0,0,0-.191,0l-14.037,7.93v-.13l-.378.038s.062.333.081.387c.032.093.058.222.122.26l10.25,6.13a.192.192,0,0,0,.191,0l14.209-8.237a.189.189,0,0,0,.1-.157h0Z" transform="translate(-2973.408 -1688.684)"/><path class="l" d="M2984.166,1741.029l-10.24,2.678-.005.58-.378.038s.062.334.081.387c.032.093.058.222.122.26l10.25,6.13a.19.19,0,0,0,.106.026C2984.131,1751.127,2984.225,1741,2984.166,1741.029Z" transform="translate(-2973.408 -1733.346)"/><path class="ay" d="M2991.728,1702.462l-9.541-5.641a1.657,1.657,0,0,1-.056-1.1l13.556-7.657a.19.19,0,0,1,.19,0l10.251,6.048a.191.191,0,0,1,0,.33l-14.207,8.026A.19.19,0,0,1,2991.728,1702.462Z" transform="translate(-2981.136 -1685.267)"/><path class="e" d="M2990,1759.029l-9.711-5.664a3.416,3.416,0,0,1,.064-3.005l9.723,5.823Z" transform="translate(-2979.235 -1741.811)"/><path class="au" d="M3088.07,1739.728l13.654-7.851a5.625,5.625,0,0,1,.027-2.792l-13.651,7.541Z" transform="translate(-3077.313 -1722.51)"/><path class="ay" d="M2999.861,1669l-.408,0v.015l-9.941-5.864a.189.189,0,0,0-.19,0l-14.037,7.929v-.086l-.264,0,0,.317h0a.189.189,0,0,0,.09.2l10.251,6.048a.19.19,0,0,0,.19,0l14.207-8.026a.188.188,0,0,0,.1-.155Z" transform="translate(-2974.747 -1662.662)"/><path class="l" d="M2985.5,1749.472c-.059-.035-10.22-1.469-10.22-1.469v-.086l-.264,0,0,.317h0a.189.189,0,0,0,.09.2l10.251,6.048a.191.191,0,0,0,.1.027C2985.491,1754.5,2985.5,1749.472,2985.5,1749.472Z" transform="translate(-2974.747 -1739.594)"/><path class="m" d="M2985.395,1672.609l-10.252-6.048a.191.191,0,0,1,0-.33l14.154-8a.389.389,0,0,1,.276-.009l10.218,6.028a.191.191,0,0,1,0,.33l-14.207,8.025A.19.19,0,0,1,2985.395,1672.609Z" transform="translate(-2974.775 -1658.205)"/><line class="ba" y1="7.98" x2="14.017" transform="translate(1.116 0.569)"/></g><path class="ay" d="M2978.033,1757.935a2.718,2.718,0,0,1-.128-2.407l-.255-.131a3.416,3.416,0,0,0,.124,2.438Z" transform="translate(-2976.981 -1746.382)"/></g><g transform="translate(2121.179 208.711)"><path class="bb" d="M2855.065,692.668s11.667-3.85,9.948-19.912C2865.012,672.756,2850.479,680.683,2855.065,692.668Z" transform="translate(-2839.704 -668.175)"/><g transform="translate(0.726 35.056)"><ellipse class="a" cx="11.293" cy="3.606" rx="11.293" ry="3.606" transform="translate(6.111 21.223)"/><g transform="translate(0 0)"><path class="bc" d="M2735.816,1101.713l-28.263-.824,4.563,13.99a5.121,5.121,0,0,0,2.831,3.554,15.158,15.158,0,0,0,13.715.025,5.214,5.214,0,0,0,2.746-3.262h0Z" transform="translate(-2707.412 -1091.651)"/><path class="af" d="M2874.026,1109.769c-3.92,7.829-7.839,15.661-14.131,18.372a14.012,14.012,0,0,0,6.978-1.627,5.215,5.215,0,0,0,2.746-3.262h0Z" transform="translate(-2845.623 -1099.707)"/><ellipse class="k" cx="8.271" cy="14.326" rx="8.271" ry="14.326" transform="matrix(0.005, -1, 1, 0.005, 0, 16.542)"/><ellipse class="bd" cx="7.1" cy="12.297" rx="7.1" ry="12.297" transform="translate(1.936 15.114) rotate(-89.689)"/></g></g><line class="be" y2="34.257" transform="translate(15.231 10.917)"/><path class="bf" d="M2713.306,848.159s.535-12.275-15.094-16.359C2698.212,831.8,2700.474,848.2,2713.306,848.159Z" transform="translate(-2698.212 -812.466)"/><path class="bf" d="M2863.16,785.532s12.166-1.718,13.325-17.83C2876.485,767.7,2860.775,772.923,2863.16,785.532Z" transform="translate(-2847.636 -754.314)"/><path class="bf" d="M2778.119,645.2s5.446-11.618-7.98-21.833C2770.139,623.366,2765.732,640.084,2778.119,645.2Z" transform="translate(-2762.776 -623.366)"/><line class="bg" x1="7.72" y1="20.432" transform="translate(7.658 0.701)"/></g><line class="g" x2="56.89" y2="32.47" transform="translate(2110.105 275.515)"/><line class="bh" x2="45.225" y2="26.296" transform="translate(2192.875 189.529)"/><g transform="translate(2185.315 318.234)"><g transform="translate(9.468 33.726)"><ellipse class="a" cx="9.8" cy="4.165" rx="9.8" ry="4.165" transform="translate(5.303 16.346)"/><g transform="translate(0 0)"><path class="e" d="M3453.239,2136.178l-24.525-.715,3.96,12.14a4.443,4.443,0,0,0,2.457,3.084,13.153,13.153,0,0,0,11.9.022,4.526,4.526,0,0,0,2.383-2.831h0Z" transform="translate(-3428.591 -2127.446)"/><path class="au" d="M3573.177,2143.169c-3.4,6.794-6.8,13.59-12.263,15.943a12.158,12.158,0,0,0,6.055-1.412,4.525,4.525,0,0,0,2.383-2.831h0Z" transform="translate(-3548.53 -2134.438)"/><ellipse class="k" cx="7.177" cy="12.432" rx="7.177" ry="12.432" transform="translate(0 14.355) rotate(-89.689)"/><ellipse class="bd" cx="6.161" cy="10.672" rx="6.161" ry="10.672" transform="translate(1.68 13.116) rotate(-89.689)"/></g></g><path class="bf" d="M3568.8,1793.643c.063.649-4.885,30.37-4.885,30.37l-.895-1,3.263-29.784Z" transform="translate(-3540.971 -1783.227)"/><path class="bf" d="M3488.3,1708.173c.248.731,4.815,33.776,5.49,38.663a.756.756,0,0,1-.488.813h0a.759.759,0,0,1-1.012-.585l-6.565-38.907Z" transform="translate(-3470.85 -1706.05)"/><path class="bf" d="M3543.142,1713.873s-3.165-3.138-1.4-5.106,3.585-4.132,3.585-4.132-.544,5.084.353,5.369-.844-7.336,2.091-7.381,2.925.153,2.925.153-3.16,5.858-2.174,6.7,1.563-7.131,5.993-6.978l2.538,2.234s-5.776,2.075-5.646,4.9,4.506-5.827,7.5-5.433a6.988,6.988,0,0,1,4.622,3.294s-9.8,1.706-9.411,4.144,8.007-5.327,10.593-3.249a12.22,12.22,0,0,1,3.4,3.864s-10.985-.615-11.323,1.309,11.69.018,11.69.018a5.634,5.634,0,0,1,1.236,2.879c.26,1.836-10.153-1.365-11.359,1.227s10.1.49,11.146,3,.56,3.518.56,3.518-6.578-2.288-6.75-1.267,3.977-.267,5.749,6.008c0,0-5.77.451-6.939-1.434s-1.806-2.591-2.249-2.456,2.587,7.348,2.587,7.348-3.8-.041-4.56-2.22-.983-6.194-1.884-6.4.014,8.046.014,8.046a3.733,3.733,0,0,1-3.732-3.643c-.321-3.7-.053-5.591-.8-5.868s-1.462,7.374-.688,9.238c0,0-3.024-.515-3.322-1.641s.907-8.988.907-8.988-3.277,5.06-2.463,7.678l-3.168-2.306s1.465-6.779,3.064-7.052c0,0-.489-2.007-2.157-1.183s-2.365,8.833-2.365,8.833a6.234,6.234,0,0,1-.8-7.492l2.514-4.109s-4.129.14-5.033,3.026c0,0-1.166-6.028,1.829-5.413S3543.142,1713.873,3543.142,1713.873Z" transform="translate(-3518.065 -1700.917)"/><g transform="translate(19.706 4.448)"><path class="bi" d="M3577.973,1847.363a1.2,1.2,0,0,0-.478-.027l.478.027.869,1.375-.047.084c.024-.015.048-.032.073-.044a2.631,2.631,0,0,1,.033,2.847l-1.52.712s-.094-.2-.262-.515l-1.365-2.291a16.053,16.053,0,0,0-1.339-1.741L3576,1845.2A18.756,18.756,0,0,1,3577.973,1847.363Z" transform="translate(-3571.016 -1834.825)"/><path class="bi" d="M3539.824,1740.942c2.9.6,3.3.944,3.317.965-.019-.019-2.167-2.16-1.908-4.01a22.822,22.822,0,0,1,2.794,1.491,4.875,4.875,0,0,1-.583-.587,4.794,4.794,0,0,0-2.085-1.381,2.075,2.075,0,0,1,.387-.618c1.132-1.26,2.284-2.6,2.966-3.4.184.049.365.1.541.16-.109,1.471-.229,4.269.43,4.478.5.158.182-2.125.307-4.193a4.48,4.48,0,0,1,2.218,1.92q.115.215.223.425c-.14.629-.143,1.121.093,1.323.157.134.3.045.456-.2,1.781,3.865,1.527,5.8,1.527,5.8a44.671,44.671,0,0,1-4.844-2.548,7.434,7.434,0,0,1,2.966,4.82s-.084,2.5-1.231,2.069-5.168-6.113-7.12-5.8c0,0,.951.7,2.081,1.741a6.687,6.687,0,0,0-3.269,1.33c-.036-.015-.073-.033-.109-.047,0,0,0,.047.014.13a3.464,3.464,0,0,0-1,1.545S3536.829,1740.326,3539.824,1740.942Z" transform="translate(-3537.771 -1733.4)"/><path class="bi" d="M3557.929,1903.165a1.918,1.918,0,0,1-.416,2.105,5.714,5.714,0,0,1-.088-3.488A10.39,10.39,0,0,0,3557.929,1903.165Z" transform="translate(-3555.392 -1886.164)"/><path class="bj" d="M3622.154,1883.043l.007.073-.025-.04Z" transform="translate(-3614.31 -1869.162)"/></g><path class="bk" d="M3337.97,1686.369c.176-.066,13.037-2.988,15.66,1.911s2.3,7.351,2.3,7.351-5.566-2.469-7.063-4.317-4.908-1.943-4.908-1.943,9.523,2.841,10.094,8.532c0,0-.085,2.5-1.231,2.069s-5.168-6.113-7.12-5.8c0,0,7.588,5.605,5.378,8.544l-1.52.712s-2.481-5.2-5.155-6.232a22.507,22.507,0,0,0,1.328,5.721c.972,2.105-2.713,3.791-2.713,3.791s-4.235-1.864-3.374-4.276.184-6.191.184-6.191-2.207,4.6-1.233,6.766c0,0-2.625-.2-2.983-1.792s2.994-7.431,1.893-8.222-3.828,5.8-2.729,8.135c0,0-4.751.238-4.044-3.12a20.121,20.121,0,0,1,2.565-6.165s-4.427-.019-6.57,6.308c0,0-4.181-7.392,1.925-9.585S3337.97,1686.369,3337.97,1686.369Z" transform="translate(-3325.33 -1685.445)"/><ellipse class="bl" cx="4.192" cy="2.153" rx="4.192" ry="2.153" transform="translate(8.251 2.689) rotate(-5.527)"/></g></g></svg>