<svg xmlns="http://www.w3.org/2000/svg" width="761.821" height="812.927" viewBox="0 0 761.821 812.927"><defs><style>.a{fill:#d9d6ed;}.b{fill:#d7f297;}.c{fill:#9de411;}.ak,.al,.d,.e,.r,.u{fill:none;stroke-linecap:round;stroke-linejoin:round;}.d{stroke:#fffcfa;stroke-width:5.333px;}.ak,.al,.e{stroke:#fff;}.e{stroke-width:9.014px;}.f{fill:#c4c1e3;}.g{fill:#fffcfa;}.h{fill:#aeadd6;}.i{fill:#e6e9ff;}.j{fill:#fff;}.k{fill:#27427a;}.l{fill:#aeabd1;}.m{fill:#5b67f0;opacity:0.21;}.m,.w{mix-blend-mode:multiply;isolation:isolate;}.n{fill:#0af;}.o{fill:#0f2769;}.p{fill:#5981eb;}.q{fill:#4f64e3;}.r,.u{stroke:#0f2769;}.r{stroke-width:8px;}.s{fill:#ffc208;}.t{fill:#1a40a6;}.u{stroke-width:2.667px;}.v{fill:#fd5601;}.w{fill:#637a94;opacity:0.4;}.x{fill:#24307d;}.y{fill:#2f40a6;}.z{fill:#cfd6e0;}.aa{fill:#ffc2b0;}.ab{fill:#ba4141;}.ac{fill:#ed5353;}.ad{fill:#223a6b;}.ae{fill:#0093dd;}.af{fill:#b1bccc;}.ag{fill:#8a9ebd;}.ah{fill:#596fff;}.ai{fill:#c2d8f0;}.aj{fill:#0e2e82;}.ak{stroke-width:15.06px;}.al{stroke-width:10.667px;}</style></defs><path class="a" d="M2741.945,661.707c11.329-41.5,15.9-84.925,11.6-127.9-9.258-92.614,29.243-187.481,106.19-240.5,86-59.258,193.835-48.191,267.424,19.228,33.586,30.769,31.309,43.282,73.075,57.764,32.941,11.422,88.038,55.8,111.443,107.866,43.607,97,29.075,208.216-54.779,265.992-59.151,40.757-110.489,34.462-166.3-2.252-6.82,56.388-35.788,109.227-83.358,141.725-83.553,57.082-193.938,29.291-245.838-61.878C2733.155,772.121,2727.707,713.869,2741.945,661.707Z" transform="translate(-2734.363 -254.737)"/><g transform="translate(507.475 128.591)"><path class="b" d="M2679.864,845.688s133.416-46.822,92.243-249.618C2772.108,596.07,2595.57,699.207,2679.864,845.688Z" transform="translate(-2657.061 -596.07)"/><path class="c" d="M2313.107,933.665s200.262-1.021,238.873-291.557C2551.981,642.108,2267.958,698.593,2313.107,933.665Z" transform="translate(-2297.635 -624.764)"/><line class="d" y1="201.489" x2="171.602" transform="translate(49.302 61.075)"/><line class="d" y1="10.037" x2="47.345" transform="translate(179.612 100.627)"/><line class="d" y1="5.068" x2="68.922" transform="translate(138.166 150.804)"/><line class="d" x2="5.595" y2="52.984" transform="translate(174.017 57.68)"/><line class="d" x2="10.613" y2="69.36" transform="translate(127.553 86.512)"/><line class="d" x2="10.613" y2="69.36" transform="translate(83.896 135.793)"/><path class="e" d="M2522.349,1130.02" transform="translate(-2348.664 -928.864)"/><line class="d" y1="5.068" x2="68.922" transform="translate(97.76 202.435)"/></g><path class="f" d="M3832.072,1973.64l-162.783-117.976,162.783-45.194Z" transform="translate(-3583.002 -1224.374)"/><path class="g" d="M3414.854,459.223s2.853-28.314,24.243-31.653,20.321,11.362,20.321,11.362.357-28.467,24.6-35.184,18.9,32.128,18.9,32.128Z" transform="translate(-3158.49 -347.123)"/><path class="g" d="M4017.777,950.043s-3.6-35.886-30.565-25.915-25.621,28.88-25.621,28.88-.45-37.774-31.014-30.389-23.823,55.648-23.823,55.648Z" transform="translate(-3857.93 -670.409)"/><g transform="translate(213.864 83.029)"><path class="h" d="M2878.52,590.173a49.251,49.251,0,0,1,9.2-28.175l-.142-.114c5.256-7.494,12.406-13.1,20.286-15.1l269.4-68.381a21.476,21.476,0,0,1,18.048,3l16.33,12.3-5.16,525.928a1.392,1.392,0,0,1-.126.694c-.1,19.529-13.138,38.614-29.215,42.694l-272.695,74.012-11.716-9.309c-8.907-7.111-14.2-13.932-14.2-26.831Z" transform="translate(-2878.519 -476.688)"/><path class="i" d="M3040.781,710.123s147.51,340.781,147.017,320.684l-7.34-539.116-17.464-12.653a21.616,21.616,0,0,0-18.257-3.137l-269.666,69.155c-7.888,2.023-14.95,7.743-20.056,15.407Z" transform="translate(-2845.828 -475.129)"/><path class="j" d="M2878.956,1159.316l268.734-68.561c16.137-4.1,28.557-23.49,28.557-43.1V534.511c0-19.606-12.74-32.086-28.877-27.989l-268.584,68.6c-16.137,4.1-28.408,23.531-28.408,43.137v513.148C2850.378,1151.013,2862.819,1163.412,2878.956,1159.316Z" transform="translate(-2832.53 -494.21)"/><path class="k" d="M2864.651,1168.038l268.734-68.561c16.137-4.1,28.557-23.49,28.557-43.1V543.233c0-19.606-12.74-32.086-28.877-27.989l-268.584,68.6c-16.137,4.1-28.408,23.531-28.408,43.137V1140.13C2836.073,1159.735,2848.514,1172.134,2864.651,1168.038Z" transform="translate(-2812.836 -499.646)"/><path class="l" d="M2880.479,667.36a5.82,5.82,0,0,1,4.52-5.9l268.956-68.269c6.027-1.53,13.561,4.485,13.561,10.826v444.823h0v51.432a5.821,5.821,0,0,1-4.521,5.9l-268.956,68.269c-6.027,1.53-13.561-4.485-13.561-10.826V718.793h0Z" transform="translate(-2835.139 -548.561)"/></g><path class="m" d="M2854.6,838.483l246.9-62.929c10.192-2.6,18.531-14.808,18.531-27.134V650.911c0-12.326-8.339-20.286-18.531-17.688l-246.9,62.929c-10.192,2.6-18.531,14.808-18.531,27.135v97.509C2836.072,833.121,2844.411,841.081,2854.6,838.483Z" transform="translate(-2557.065 -490.328)"/><path class="n" d="M2809.065,879.591l246.9-62.929c10.192-2.6,18.531-14.808,18.531-27.135V692.019c0-12.326-8.339-20.286-18.531-17.688l-246.9,62.929c-10.192,2.6-18.531,14.808-18.531,27.135V861.9C2790.535,874.229,2798.874,882.189,2809.065,879.591Z" transform="translate(-2494.372 -515.95)"/><g transform="translate(294.246 204.436)"><ellipse class="o" cx="45.919" cy="58.962" rx="45.919" ry="58.962" transform="translate(80.565 147.535) rotate(-151.313)"/><path class="j" d="M3351.942,1037.616c.211-.149.143-.268-.119-.408-.848-.453-1.528-1.19-2.375-1.643a2.709,2.709,0,0,1-.531-.279,10.113,10.113,0,0,1,0-1.047q-.058-3.451-.116-6.9c-.008-.5-.667-.4-.659.1,0,.174,0,.348.007.522l-.147-2.427-19.324,2.8a14.994,14.994,0,0,1,.21,1.641.362.362,0,0,0-.554.357q.057,3.387.115,6.773a7.381,7.381,0,0,1,.033.771c-.044-.131-.564.612-.7.771-.746.854-2.473,2.122-3.219,2.976-.325.372-3.607,4.146-3.284,3.776.357-.409-2.522,5.543.985,1.707-.785,1.1-8.875,7.017-8.875,7.017l25.547-.831,19.359-10.764Z" transform="translate(-3269.383 -939.583)"/><g transform="translate(50.678 61.929)"><path class="j" d="M3317.346,961.9c-.424.128-.436.92-.006.791,3.411-1.029,2.344,6.279,2.037,8.475.255-2,.9-5.52.494-7.378-.15-.688-1.018-1.288-1.459-1.737s-.907.763-1.506,1.065l-2.24,14.952c.044,0,.087,0,.131,0-.071.235.026.544.3.535,3.749-.137,4.682-5.219,5.1-8.609C3320.5,967.432,3321.01,960.794,3317.346,961.9Z" transform="translate(-3282.663 -961.776)"/><path class="j" d="M3405.119,990.4c-3.741,1.062-4.711-3.728-5.133-6.98-.325-2.5-.858-8.926,2.809-8.995.426-.008.424.783-.006.791-.03,0-.054.011-.084.013a1.156,1.156,0,0,1,.263,0l2.318,14.222a6.493,6.493,0,0,1-.883.276,3.165,3.165,0,0,0,.723-.113C3405.556,989.491,3405.545,990.283,3405.119,990.4Z" transform="translate(-3399.755 -969.663)"/></g><path class="j" d="M3353.119,918.188a9.906,9.906,0,0,0-9.681-6.645c-1.227.059-2.473.271-3.7.434h0l-.189.028h0c-3.71.593-7.355,1.365-10.363,4.737-2.856,3.2-4.122,7.671-4.645,11.92a70.957,70.957,0,0,0,.132,15.26c.344,3.713.242,7.92,1.537,11.235,1.71,4.377,5.067,6.018,8.892,7.129,3.912,1.136,7.74-.629,11.417-3.1,4.114-2.763,6.516-7.723,7.006-12.919.4-4.259.919-8.54,1.151-12.791C3354.953,928.28,3354.916,922.721,3353.119,918.188Z" transform="translate(-3269.959 -868.539)"/><g transform="translate(72.491 62.656)"><path class="p" d="M3340.513,967.715a1.372,1.372,0,0,0-.154-1.779c-.136-.133-.272-.271-.409-.41-.919-.935-1.961-1.995-3.429-1.792a16.1,16.1,0,0,0-4.569,1.288,1.986,1.986,0,0,0-.93,2.121c.138.714.651,1.055,1.246.83h0a15.369,15.369,0,0,1,2.015-.564c.554-.128,1.127-.261,1.712-.45a2.678,2.678,0,0,1,3.01.88.971.971,0,0,0,.83.311A1.04,1.04,0,0,0,3340.513,967.715Zm-8.471-1.119Z" transform="translate(-3330.987 -963.707)"/></g><g transform="translate(56.464 66.29)"><path class="p" d="M3375.216,978.4c1.044-1.305,1.894-1.8,3.03-1.764.583.019,1.156-.016,1.709-.05a13.675,13.675,0,0,1,2.011-.025h0c.594.052,1.113-.44,1.262-1.2.157-.8-.142-1.73-.9-1.854a14.424,14.424,0,0,0-4.559.046c-1.469.227-2.529,1.594-3.464,2.8-.139.18-.278.358-.416.531a1.7,1.7,0,0,0-.4,1.37.819.819,0,0,0,.62.688.791.791,0,0,0,.273.006A1.384,1.384,0,0,0,3375.216,978.4Zm-.887-.865Zm7.884-2.417Z" transform="translate(-3373.46 -973.353)"/></g><path class="q" d="M3336.621,912.064h0q5.7-1.007,11.4-2.315a14.018,14.018,0,0,0,3.868-1.318,2.918,2.918,0,0,0,1.389-1.452,4.171,4.171,0,0,0-.208-2.906,12.867,12.867,0,0,0-10.13-8.635c-4.235-.6-8.68.921-12.844,3.263-3.06,1.721-7.139,4.938-7.345,10.121-.158,3.973,4.718,3.825,6.712,3.922A32.467,32.467,0,0,0,3336.621,912.064Z" transform="translate(-3268.086 -858.419)"/><path class="q" d="M3400.815,937.757h0a1.354,1.354,0,0,0-.061-.62.909.909,0,0,0-.423-.385l-1.585-.9a1.606,1.606,0,0,0-.943-.3c-.629.067-1.127.784-1.456,1.466a14.056,14.056,0,0,0-1.258,6.18,29.164,29.164,0,0,0,.817,6.027c.306,1.389.509,3.5,1.218,4.589.732-.409,1.15-2.612,1.408-3.449q.641-2.077,1.112-4.2A52.3,52.3,0,0,0,3400.815,937.757Z" transform="translate(-3342.698 -883.5)"/><path class="q" d="M3317.453,927.12h0a1.49,1.49,0,0,1,.07-.639,1.423,1.423,0,0,1,.43-.51l1.6-1.367a2.247,2.247,0,0,1,.95-.576c.63-.118,1.118.456,1.437,1.043a11.779,11.779,0,0,1,1.168,5.825,33.123,33.123,0,0,1-.91,6.279c-.327,1.481-.563,3.658-1.29,4.956-.727-.2-1.113-2.281-1.36-3.044q-.611-1.894-1.051-3.879A46.276,46.276,0,0,1,3317.453,927.12Z" transform="translate(-3235.739 -876.311)"/><path class="q" d="M3345.13,1063a3.908,3.908,0,0,0-.555-.52h0a14.86,14.86,0,0,0-5.929-2.139c-2.007-.409-4.621-1.149-7.149-1.866s-5.164-1.463-7.192-1.876l-.343-.07-.126.414c.55,5.978-4.666,11.39-10.308,12.379-5.952,1.046-17.05-.442-16.345-8.623l-.13-.35-.328.162a59.6,59.6,0,0,0-6.395,3.934,58.99,58.99,0,0,1-6.3,3.878,21.341,21.341,0,0,0-5.975,3.879c-1.115,1.125-2.418,3.609-3.7,6.762a36.286,36.286,0,0,0,24.025,9.905C3315.817,1089.5,3333.357,1079.084,3345.13,1063Z" transform="translate(-3241.522 -958.905)"/><path class="q" d="M3326.858,1005l1.557-1.1a40.052,40.052,0,0,1,12.389-6.031l.157-.043a23.375,23.375,0,0,1,8.9-.784l5.529.679-.462,5.532s.262,11.089-12.054,14C3325.9,1021.277,3326.858,1005,3326.858,1005Z" transform="translate(-3271.562 -921.743)"/><path class="j" d="M3345.243,1014.584l1.659-1.082a13.044,13.044,0,0,1,4.143-1.832l1.787-.41a7.639,7.639,0,0,1,2.871-.148l2.887.448-.168,2.951s-.587,4.987-7.01,6.643C3343.324,1023.238,3345.243,1014.584,3345.243,1014.584Z" transform="translate(-3281.611 -930.55)"/><path class="q" d="M3357.829,1031.819l-.721.177c-1.888.465-3.28-.87-3.108-2.982l.21-2.574a5.463,5.463,0,0,1,3.73-4.667l.721-.177c1.889-.465,3.28.87,3.108,2.983l-.21,2.574A5.463,5.463,0,0,1,3357.829,1031.819Z" transform="translate(-3288.175 -937.074)"/></g><g transform="translate(421.625 196.227)"><path class="j" d="M3161.64,852.494l-2.685,6.319a1.373,1.373,0,0,1-.784.759l-6,2.095a1.257,1.257,0,0,0-.577,2l4.344,3.67a.99.99,0,0,1,.3.924l-1.026,6.571a.907.907,0,0,0,1.51.877l5.371-4.051a1.034,1.034,0,0,1,.969-.188l5.371,1.967c.764.28,1.656-.585,1.51-1.463l-1.026-6.173a1.341,1.341,0,0,1,.3-1.04l4.344-5.356c.618-.762.277-1.814-.577-1.78l-6,.235a.821.821,0,0,1-.784-.455l-2.685-5.277C3163.126,851.381,3162.022,851.6,3161.64,852.494Z" transform="translate(-3151.275 -823.016)"/><path class="j" d="M3086.416,833.476l-2.685,6.319a1.372,1.372,0,0,1-.784.759l-6,2.095a1.256,1.256,0,0,0-.577,2l4.344,3.67a.989.989,0,0,1,.3.924l-1.025,6.571a.907.907,0,0,0,1.511.876l5.37-4.051a1.034,1.034,0,0,1,.969-.188l5.371,1.967c.764.28,1.656-.585,1.511-1.463l-1.026-6.173a1.341,1.341,0,0,1,.3-1.04l4.344-5.356c.618-.762.277-1.814-.577-1.78l-6,.235a.822.822,0,0,1-.784-.455l-2.685-5.277C3087.9,832.363,3086.8,832.577,3086.416,833.476Z" transform="translate(-3047.71 -811.163)"/><path class="j" d="M3011.191,814.457l-2.686,6.319a1.369,1.369,0,0,1-.784.759l-6,2.1a1.257,1.257,0,0,0-.577,2l4.345,3.67a.989.989,0,0,1,.3.924l-1.026,6.571a.907.907,0,0,0,1.511.877l5.37-4.051a1.035,1.035,0,0,1,.969-.188l5.37,1.967c.764.279,1.657-.585,1.511-1.463l-1.025-6.173a1.338,1.338,0,0,1,.3-1.04l4.344-5.356c.618-.762.277-1.814-.577-1.78l-6,.235a.822.822,0,0,1-.784-.455l-2.685-5.276C3012.676,813.344,3011.573,813.558,3011.191,814.457Z" transform="translate(-2944.146 -799.309)"/><path class="j" d="M2935.966,795.438l-2.685,6.319a1.372,1.372,0,0,1-.784.759l-6,2.095a1.257,1.257,0,0,0-.577,2l4.344,3.67a.988.988,0,0,1,.3.924l-1.025,6.571a.907.907,0,0,0,1.511.876l5.37-4.051a1.034,1.034,0,0,1,.969-.188l5.37,1.967c.764.279,1.656-.585,1.511-1.463l-1.026-6.174a1.342,1.342,0,0,1,.3-1.04l4.345-5.356c.618-.762.277-1.814-.577-1.78l-6,.235a.821.821,0,0,1-.784-.455l-2.685-5.276C2937.452,794.325,2936.348,794.54,2935.966,795.438Z" transform="translate(-2840.582 -787.455)"/><path class="j" d="M2860.742,776.42l-2.685,6.319a1.37,1.37,0,0,1-.784.759l-6,2.1a1.256,1.256,0,0,0-.577,2l4.344,3.67a.99.99,0,0,1,.3.924l-1.026,6.571a.907.907,0,0,0,1.511.877l5.37-4.051a1.034,1.034,0,0,1,.969-.188l5.37,1.967c.764.28,1.657-.585,1.511-1.463l-1.025-6.173a1.338,1.338,0,0,1,.3-1.04l4.345-5.356c.618-.762.277-1.814-.577-1.78l-6,.235a.822.822,0,0,1-.784-.455l-2.685-5.276C2862.228,775.307,2861.124,775.521,2860.742,776.42Z" transform="translate(-2737.019 -775.602)"/></g><line class="r" y1="35.59" x2="136.272" transform="translate(421.375 244.929)"/><line class="r" y1="23.206" x2="88.854" transform="translate(423.345 281.365)"/><path class="m" d="M2854.6,1301.923l246.9-62.929c10.192-2.6,18.531-14.808,18.531-27.134v-97.509c0-12.326-8.339-20.286-18.531-17.688l-246.9,62.929c-10.192,2.6-18.531,14.808-18.531,27.135v97.509C2836.072,1296.561,2844.411,1304.521,2854.6,1301.923Z" transform="translate(-2557.065 -779.175)"/><path class="g" d="M2809.065,1343.031l246.9-62.929c10.192-2.6,18.531-14.808,18.531-27.135v-97.509c0-12.326-8.339-20.286-18.531-17.688l-246.9,62.929c-10.192,2.6-18.531,14.808-18.531,27.135v97.509C2790.535,1337.669,2798.874,1345.629,2809.065,1343.031Z" transform="translate(-2494.372 -804.797)"/><g transform="translate(421.625 370.82)"><path class="s" d="M3161.64,1315.934l-2.685,6.319a1.373,1.373,0,0,1-.784.759l-6,2.095a1.257,1.257,0,0,0-.577,2l4.344,3.67a.99.99,0,0,1,.3.924l-1.026,6.571a.907.907,0,0,0,1.51.877l5.371-4.051a1.034,1.034,0,0,1,.969-.188l5.371,1.967c.764.28,1.656-.585,1.51-1.463l-1.026-6.173a1.341,1.341,0,0,1,.3-1.04l4.344-5.356c.618-.762.277-1.814-.577-1.78l-6,.235a.821.821,0,0,1-.784-.455l-2.685-5.276C3163.126,1314.821,3162.022,1315.035,3161.64,1315.934Z" transform="translate(-3151.275 -1286.456)"/><path class="s" d="M3086.416,1296.916l-2.685,6.319a1.372,1.372,0,0,1-.784.759l-6,2.1a1.256,1.256,0,0,0-.577,2l4.344,3.67a.989.989,0,0,1,.3.924l-1.025,6.571a.907.907,0,0,0,1.511.876l5.37-4.051a1.033,1.033,0,0,1,.969-.188l5.371,1.966c.764.28,1.656-.585,1.511-1.463l-1.026-6.174a1.341,1.341,0,0,1,.3-1.04l4.344-5.356c.618-.762.277-1.814-.577-1.78l-6,.235a.822.822,0,0,1-.784-.455l-2.685-5.276C3087.9,1295.8,3086.8,1296.017,3086.416,1296.916Z" transform="translate(-3047.71 -1274.602)"/><path class="s" d="M3011.191,1277.9l-2.686,6.319a1.368,1.368,0,0,1-.784.759l-6,2.1a1.257,1.257,0,0,0-.577,2l4.345,3.67a.989.989,0,0,1,.3.924l-1.026,6.571a.907.907,0,0,0,1.511.877l5.37-4.051a1.034,1.034,0,0,1,.969-.188l5.37,1.966c.764.28,1.657-.585,1.511-1.463l-1.025-6.173a1.338,1.338,0,0,1,.3-1.04l4.344-5.356c.618-.762.277-1.814-.577-1.78l-6,.235a.823.823,0,0,1-.784-.455l-2.685-5.277C3012.676,1276.784,3011.573,1277,3011.191,1277.9Z" transform="translate(-2944.146 -1262.749)"/><path class="s" d="M2935.966,1258.878l-2.685,6.319a1.372,1.372,0,0,1-.784.759l-6,2.095a1.257,1.257,0,0,0-.577,2l4.344,3.67a.988.988,0,0,1,.3.924l-1.025,6.571a.907.907,0,0,0,1.511.876l5.37-4.051a1.033,1.033,0,0,1,.969-.188l5.37,1.966c.764.28,1.656-.585,1.511-1.463l-1.026-6.174a1.342,1.342,0,0,1,.3-1.04l4.345-5.356c.618-.762.277-1.814-.577-1.781l-6,.236a.821.821,0,0,1-.784-.455l-2.685-5.276C2937.452,1257.765,2936.348,1257.98,2935.966,1258.878Z" transform="translate(-2840.582 -1250.895)"/><path class="s" d="M2860.742,1239.86l-2.685,6.318a1.37,1.37,0,0,1-.784.759l-6,2.095a1.256,1.256,0,0,0-.577,2l4.344,3.67a.99.99,0,0,1,.3.924l-1.026,6.571a.907.907,0,0,0,1.511.877l5.37-4.051a1.034,1.034,0,0,1,.969-.188l5.37,1.967c.764.28,1.657-.585,1.511-1.463l-1.025-6.173a1.338,1.338,0,0,1,.3-1.04l4.345-5.356c.618-.762.277-1.814-.577-1.781l-6,.235a.822.822,0,0,1-.784-.455l-2.685-5.276C2862.228,1238.747,2861.124,1238.961,2860.742,1239.86Z" transform="translate(-2737.019 -1239.042)"/></g><line class="r" y1="35.59" x2="136.272" transform="translate(421.375 419.522)"/><line class="r" y1="23.206" x2="88.854" transform="translate(423.345 455.958)"/><path class="m" d="M2854.6,1765.363l246.9-62.929c10.192-2.6,18.531-14.808,18.531-27.134v-97.509c0-12.326-8.339-20.286-18.531-17.688l-246.9,62.929c-10.192,2.6-18.531,14.808-18.531,27.135v97.509C2836.072,1760,2844.411,1767.961,2854.6,1765.363Z" transform="translate(-2557.065 -1068.022)"/><path class="n" d="M2809.065,1806.471l246.9-62.929c10.192-2.6,18.531-14.808,18.531-27.135V1618.9c0-12.326-8.339-20.286-18.531-17.688l-246.9,62.929c-10.192,2.6-18.531,14.808-18.531,27.134v97.509C2790.535,1801.109,2798.874,1809.069,2809.065,1806.471Z" transform="translate(-2494.372 -1093.644)"/><g transform="translate(421.625 545.413)"><path class="j" d="M3161.64,1779.374l-2.685,6.319a1.373,1.373,0,0,1-.784.759l-6,2.095a1.257,1.257,0,0,0-.577,2l4.344,3.67a.989.989,0,0,1,.3.924l-1.026,6.571a.907.907,0,0,0,1.51.877l5.371-4.051a1.034,1.034,0,0,1,.969-.188l5.371,1.967c.764.28,1.656-.585,1.51-1.463l-1.026-6.173a1.341,1.341,0,0,1,.3-1.04l4.344-5.356c.618-.762.277-1.814-.577-1.781l-6,.235a.821.821,0,0,1-.784-.455l-2.685-5.276C3163.126,1778.261,3162.022,1778.475,3161.64,1779.374Z" transform="translate(-3151.275 -1749.896)"/><path class="j" d="M3086.416,1760.356l-2.685,6.319a1.372,1.372,0,0,1-.784.759l-6,2.1a1.256,1.256,0,0,0-.577,2l4.344,3.67a.989.989,0,0,1,.3.924l-1.025,6.571a.907.907,0,0,0,1.511.876l5.37-4.051a1.034,1.034,0,0,1,.969-.188l5.371,1.967c.764.279,1.656-.585,1.511-1.463l-1.026-6.173a1.341,1.341,0,0,1,.3-1.04l4.344-5.356c.618-.762.277-1.814-.577-1.781l-6,.235a.822.822,0,0,1-.784-.455l-2.685-5.276C3087.9,1759.242,3086.8,1759.457,3086.416,1760.356Z" transform="translate(-3047.71 -1738.042)"/><path class="j" d="M3011.191,1741.337l-2.686,6.319a1.37,1.37,0,0,1-.784.759l-6,2.095a1.256,1.256,0,0,0-.577,2l4.345,3.67a.989.989,0,0,1,.3.924l-1.026,6.571a.907.907,0,0,0,1.511.877l5.37-4.051a1.034,1.034,0,0,1,.969-.188l5.37,1.967c.764.28,1.657-.585,1.511-1.463l-1.025-6.173a1.338,1.338,0,0,1,.3-1.04l4.344-5.356c.618-.762.277-1.814-.577-1.781l-6,.236a.822.822,0,0,1-.784-.455l-2.685-5.276C3012.676,1740.224,3011.573,1740.438,3011.191,1741.337Z" transform="translate(-2944.146 -1726.189)"/><path class="j" d="M2935.966,1722.318l-2.685,6.319a1.372,1.372,0,0,1-.784.759l-6,2.095a1.257,1.257,0,0,0-.577,2l4.344,3.67a.989.989,0,0,1,.3.924l-1.025,6.571a.907.907,0,0,0,1.511.876l5.37-4.051a1.034,1.034,0,0,1,.969-.188l5.37,1.967c.764.28,1.656-.585,1.511-1.463l-1.026-6.174a1.342,1.342,0,0,1,.3-1.04l4.345-5.356c.618-.762.277-1.814-.577-1.78l-6,.235a.822.822,0,0,1-.784-.455l-2.685-5.276C2937.452,1721.205,2936.348,1721.42,2935.966,1722.318Z" transform="translate(-2840.582 -1714.335)"/><path class="j" d="M2860.742,1703.3l-2.685,6.318a1.37,1.37,0,0,1-.784.759l-6,2.095a1.256,1.256,0,0,0-.577,2l4.344,3.67a.99.99,0,0,1,.3.924l-1.026,6.571a.907.907,0,0,0,1.511.877l5.37-4.051a1.034,1.034,0,0,1,.969-.188l5.37,1.967c.764.28,1.657-.585,1.511-1.463l-1.025-6.173a1.338,1.338,0,0,1,.3-1.04l4.345-5.356c.618-.762.277-1.814-.577-1.78l-6,.235a.822.822,0,0,1-.784-.455l-2.685-5.277C2862.228,1702.187,2861.124,1702.4,2860.742,1703.3Z" transform="translate(-2737.019 -1702.482)"/></g><line class="r" y1="35.59" x2="136.272" transform="translate(421.375 594.115)"/><line class="r" y1="23.206" x2="88.854" transform="translate(423.345 630.551)"/><g transform="translate(293.963 566.246)"><ellipse class="o" cx="45.776" cy="58.779" rx="45.776" ry="58.779" transform="matrix(-0.877, -0.48, 0.48, -0.877, 80.314, 147.075)"/><path class="q" d="M3364.667,1883.3s-17.091,15.848-4.565,46.27l22.8-2.822Z" transform="translate(-3309.581 -1836.011)"/><path class="j" d="M3353.307,1997.255c.211-.148.143-.267-.119-.406-.845-.452-1.522-1.186-2.368-1.638a2.7,2.7,0,0,1-.529-.278,9.989,9.989,0,0,1,0-1.044q-.058-3.44-.116-6.88c-.008-.494-.666-.4-.657.1,0,.173,0,.347.006.52l-.147-2.419L3330.112,1988a14.933,14.933,0,0,1,.209,1.636.361.361,0,0,0-.552.356q.057,3.377.114,6.752a7.33,7.33,0,0,1,.033.769c-.043-.131-.562.61-.7.768-.744.852-2.465,2.115-3.209,2.967-.324.371-3.6,4.133-3.274,3.764.356-.408-2.515,5.526.981,1.7-.782,1.093-8.847,6.995-8.847,6.995l25.468-.828,19.3-10.73Z" transform="translate(-3271.005 -1899.527)"/><g transform="translate(50.52 61.736)"><path class="j" d="M3318.82,1921.774c-.422.128-.434.918-.006.788,3.4-1.026,2.337,6.26,2.031,8.449.254-2,.9-5.5.492-7.355-.149-.686-1.014-1.284-1.455-1.731s-.9.761-1.5,1.062l-2.234,14.906c.044,0,.087,0,.131,0-.072.234.026.543.295.533,3.737-.137,4.668-5.2,5.082-8.582C3321.968,1927.29,3322.472,1920.672,3318.82,1921.774Z" transform="translate(-3284.245 -1921.651)"/><path class="j" d="M3406.32,1950.191c-3.729,1.059-4.7-3.716-5.117-6.958-.324-2.5-.855-8.9,2.8-8.966.425-.008.423.78-.006.789-.031,0-.054.011-.084.013a1.129,1.129,0,0,1,.262-.005l2.31,14.178a6.432,6.432,0,0,1-.88.275,3.121,3.121,0,0,0,.72-.113C3406.755,1949.281,3406.745,1950.071,3406.32,1950.191Z" transform="translate(-3400.972 -1929.514)"/></g><path class="j" d="M3354.481,1878.2a9.875,9.875,0,0,0-9.651-6.625c-1.223.059-2.465.271-3.692.433h0c-.063.008-.125.017-.188.028h0c-3.7.591-7.333,1.361-10.331,4.722-2.847,3.193-4.109,7.647-4.63,11.883a70.718,70.718,0,0,0,.132,15.212c.343,3.7.241,7.9,1.532,11.2,1.7,4.364,5.052,6,8.864,7.107,3.9,1.133,7.716-.627,11.381-3.089,4.1-2.754,6.5-7.7,6.984-12.878.4-4.246.916-8.514,1.148-12.751C3356.309,1888.26,3356.273,1882.719,3354.481,1878.2Z" transform="translate(-3271.581 -1828.705)"/><g transform="translate(73.317 65.341)"><g transform="translate(0)"><path class="p" d="M3355.513,1931.221Z" transform="translate(-3355.513 -1931.221)"/></g></g><path class="q" d="M3338.035,1872.094h0q5.686-1,11.366-2.308a13.967,13.967,0,0,0,3.856-1.314,2.912,2.912,0,0,0,1.385-1.448,4.166,4.166,0,0,0-.207-2.9,12.83,12.83,0,0,0-10.1-8.609c-4.222-.6-8.653.918-12.8,3.253-3.05,1.716-7.117,4.923-7.322,10.089-.157,3.961,4.7,3.813,6.692,3.91A32.347,32.347,0,0,0,3338.035,1872.094Z" transform="translate(-3269.713 -1818.616)"/><path class="q" d="M3402.029,1897.708h0a1.353,1.353,0,0,0-.06-.618.906.906,0,0,0-.422-.384l-1.58-.9a1.6,1.6,0,0,0-.94-.3c-.627.066-1.124.781-1.452,1.461a14.006,14.006,0,0,0-1.254,6.16,29.034,29.034,0,0,0,.814,6.008c.3,1.385.507,3.491,1.214,4.575.729-.408,1.147-2.6,1.4-3.438q.639-2.071,1.109-4.183A52.143,52.143,0,0,0,3402.029,1897.708Z" transform="translate(-3344.094 -1843.62)"/><path class="q" d="M3346.517,2022.561a3.871,3.871,0,0,0-.552-.518h0a14.827,14.827,0,0,0-5.911-2.132c-2-.407-4.606-1.146-7.126-1.86s-5.147-1.459-7.169-1.87l-.342-.07-.125.413c-1.141,5.779-5.763,10.836-11.387,11.822-5.934,1.043-15.885.079-15.183-8.077l-.13-.349-.327.162a59.336,59.336,0,0,0-6.375,3.921,58.809,58.809,0,0,1-6.278,3.865,21.285,21.285,0,0,0-5.957,3.867c-1.112,1.122-2.41,3.6-3.688,6.741a36.174,36.174,0,0,0,23.95,9.875C3317.3,2048.981,3334.781,2038.594,3346.517,2022.561Z" transform="translate(-3243.232 -1918.789)"/><path class="j" d="M3346.629,1974.295l1.654-1.078a12.993,12.993,0,0,1,4.13-1.827l1.781-.408a7.627,7.627,0,0,1,2.862-.148l2.878.446-.168,2.942s-.585,4.971-6.988,6.622C3344.716,1982.922,3346.629,1974.295,3346.629,1974.295Z" transform="translate(-3283.196 -1890.523)"/><path class="q" d="M3302.1,1880.486s15.356,6.261,6.462,39.81l12.126-.751s7.869-36.119-6.658-46.188S3302.1,1880.486,3302.1,1880.486Z" transform="translate(-3229.311 -1827.844)"/><g transform="translate(74.181 66.408)"><path class="p" d="M3339.368,1936.267a.606.606,0,0,0-.13-1.011c-.115-.073-.229-.149-.345-.226a4.133,4.133,0,0,0-2.889-.953,19.066,19.066,0,0,0-3.85.827,1.065,1.065,0,0,0-.784,1.229.785.785,0,0,0,1.051.448h0c.562-.157,1.114-.257,1.7-.363.467-.084.95-.172,1.442-.292a2.95,2.95,0,0,1,2.536.441,1.051,1.051,0,0,0,.7.161A1.014,1.014,0,0,0,3339.368,1936.267Zm-7.138-.466Z" transform="translate(-3331.342 -1934.054)"/></g><g transform="translate(59.181 67.744)"><path class="p" d="M3372.465,1940.653a1.03,1.03,0,0,0,.645-.3,2.888,2.888,0,0,1,2.372-.949c.509.016,1,0,1.476-.01.6-.016,1.157-.032,1.742.007h0c.522.034.9-.234.92-.652a1.1,1.1,0,0,0-1.051-1.039,19.245,19.245,0,0,0-3.95-.021,4,4,0,0,0-2.6,1.52c-.095.1-.188.2-.283.29a.606.606,0,0,0,.11,1.014A1.041,1.041,0,0,0,3372.465,1940.653Zm6.239-2.052h0Z" transform="translate(-3371.513 -1937.599)"/></g><path class="p" d="M3340.3,1993.469a26.921,26.921,0,0,0,8.5-3.051v3.177S3341.148,1996.367,3340.3,1993.469Z" transform="translate(-3269.748 -1902.776)"/></g><g transform="translate(294.367 381.358)"><ellipse class="t" cx="45.996" cy="59.062" rx="45.996" ry="59.062" transform="matrix(-0.877, -0.48, 0.48, -0.877, 80.701, 147.784)"/><path class="j" d="M3349.935,1507.289c.212-.148.144-.268-.119-.408-.849-.453-1.53-1.192-2.379-1.646a2.725,2.725,0,0,1-.531-.28,10.151,10.151,0,0,1,0-1.048l-.116-6.913c-.008-.5-.668-.4-.66.1,0,.174,0,.349.006.523l-.148-2.431-19.356,2.807a15.158,15.158,0,0,1,.21,1.644.363.363,0,0,0-.555.358q.057,3.392.115,6.785a7.6,7.6,0,0,1,.033.772c-.044-.131-.565.613-.7.772-.747.856-2.477,2.125-3.224,2.981-.326.373-3.613,4.153-3.29,3.783.358-.41-2.527,5.552.986,1.709-.786,1.1-8.89,7.028-8.89,7.028l25.591-.832,19.392-10.782Z" transform="translate(-3266.727 -1409.224)"/><g transform="translate(51.273 61.899)"><path class="j" d="M3315.281,1431.444c-.424.128-.436.922-.006.792,3.416-1.031,2.349,6.29,2.041,8.49.255-2.005.9-5.529.495-7.391-.15-.689-1.02-1.29-1.462-1.74s-.909.764-1.508,1.067l-2.244,14.977c.044,0,.087,0,.131,0-.072.235.026.545.3.536,3.755-.137,4.69-5.228,5.106-8.624C3318.445,1436.987,3318.951,1430.337,3315.281,1431.444Z" transform="translate(-3280.54 -1431.321)"/><path class="j" d="M3403.2,1460c-3.747,1.064-4.718-3.734-5.141-6.991-.326-2.508-.86-8.941,2.813-9.01.427-.008.425.784-.006.792-.031,0-.054.011-.084.013a1.132,1.132,0,0,1,.263,0l2.321,14.246a6.5,6.5,0,0,1-.884.276,3.142,3.142,0,0,0,.724-.114C3403.64,1459.083,3403.628,1459.876,3403.2,1460Z" transform="translate(-3397.828 -1439.221)"/></g><path class="j" d="M3351.114,1387.66a9.923,9.923,0,0,0-9.7-6.656c-1.229.059-2.477.272-3.71.435h0l-.188.027h0c-3.716.594-7.368,1.368-10.38,4.745-2.861,3.208-4.129,7.684-4.653,11.94a71.131,71.131,0,0,0,.132,15.286c.345,3.719.242,7.934,1.539,11.254,1.713,4.385,5.076,6.028,8.907,7.141,3.919,1.138,7.753-.63,11.436-3.1,4.121-2.767,6.527-7.736,7.017-12.94.4-4.267.92-8.555,1.154-12.813C3352.951,1397.768,3352.914,1392.2,3351.114,1387.66Z" transform="translate(-3267.304 -1338.06)"/><g transform="translate(73.123 62.628)"><path class="p" d="M3338.487,1437.269a1.375,1.375,0,0,0-.154-1.782c-.136-.133-.272-.271-.41-.411-.921-.937-1.964-2-3.435-1.8a16.125,16.125,0,0,0-4.576,1.29,1.99,1.99,0,0,0-.932,2.125c.139.715.653,1.056,1.249.831h0a15.335,15.335,0,0,1,2.019-.565c.555-.129,1.129-.262,1.714-.451a2.683,2.683,0,0,1,3.015.882.974.974,0,0,0,.831.312A1.043,1.043,0,0,0,3338.487,1437.269Zm-8.485-1.12h0Z" transform="translate(-3328.945 -1433.255)"/></g><g transform="translate(57.069 66.268)"><path class="p" d="M3373.249,1447.973c1.046-1.307,1.9-1.8,3.035-1.766.584.018,1.157-.016,1.712-.05a13.673,13.673,0,0,1,2.015-.025h0c.594.052,1.114-.441,1.264-1.2.158-.8-.142-1.733-.9-1.857a14.441,14.441,0,0,0-4.567.046c-1.471.228-2.533,1.6-3.469,2.8-.14.18-.278.359-.417.532a1.7,1.7,0,0,0-.4,1.372.821.821,0,0,0,.621.688.784.784,0,0,0,.274.007A1.388,1.388,0,0,0,3373.249,1447.973Zm-.888-.867Zm7.9-2.421Z" transform="translate(-3371.489 -1442.917)"/></g><path class="q" d="M3334.588,1381.525h0c3.808-.672,12.046,5.024,15.85,4.15,1.3-.3-1.809-7.085-.556-7.79a2.923,2.923,0,0,0,1.392-1.455,4.183,4.183,0,0,0-.208-2.911,12.891,12.891,0,0,0-10.147-8.65c-4.243-.6-8.7.922-12.865,3.268-3.065,1.724-7.151,4.947-7.357,10.138-.158,3.98,4.726,3.831,6.724,3.929A32.487,32.487,0,0,0,3334.588,1381.525Z" transform="translate(-3265.428 -1327.923)"/><path class="q" d="M3398.891,1407.262h0a1.361,1.361,0,0,0-.061-.621.905.905,0,0,0-.424-.385l-1.588-.9a1.609,1.609,0,0,0-.944-.3c-.63.067-1.13.785-1.459,1.468a14.071,14.071,0,0,0-1.26,6.19,29.178,29.178,0,0,0,.818,6.037c.306,1.391.509,3.508,1.22,4.6.733-.409,1.152-2.616,1.411-3.454q.643-2.081,1.115-4.2A52.363,52.363,0,0,0,3398.891,1407.262Z" transform="translate(-3340.166 -1353.047)"/><path class="q" d="M3343.111,1532.716a3.866,3.866,0,0,0-.556-.521h0a14.893,14.893,0,0,0-5.939-2.142c-2.01-.409-4.629-1.151-7.161-1.869s-5.172-1.465-7.2-1.88l-.344-.07-.125.415c.551,5.988-4.675,11.409-10.326,12.4-5.962,1.048-17.078-.442-16.373-8.637l-.13-.351-.329.162a59.709,59.709,0,0,0-6.406,3.94,59,59,0,0,1-6.309,3.884,21.4,21.4,0,0,0-5.985,3.885c-1.117,1.127-2.421,3.616-3.706,6.774a36.349,36.349,0,0,0,24.066,9.922C3313.749,1559.264,3331.319,1548.827,3343.111,1532.716Z" transform="translate(-3238.818 -1428.578)"/><path class="p" d="M3336.353,1503.906s5.06.237,8.5-3.179l.035,3.306S3337.206,1506.818,3336.353,1503.906Z" transform="translate(-3264.76 -1412.68)"/><path class="q" d="M3314.591,1393.376h0a1.489,1.489,0,0,1,.07-.64,1.427,1.427,0,0,1,.43-.511l1.6-1.369a2.252,2.252,0,0,1,.951-.577c.631-.118,1.12.456,1.439,1.044a11.794,11.794,0,0,1,1.169,5.835,33.111,33.111,0,0,1-.911,6.29c-.328,1.484-.563,3.664-1.292,4.964-.728-.2-1.115-2.285-1.362-3.049q-.612-1.9-1.053-3.886A46.337,46.337,0,0,1,3314.591,1393.376Z" transform="translate(-3231.93 -1343.832)"/></g><path class="u" d="M2790.535,1284.212l15.354-3.706c10.192-2.6,18.531-14.808,18.531-27.135v-97.509c0-12.326-8.339-20.286-18.531-17.688" transform="translate(-2244.294 -805.048)"/><g transform="translate(61.348 356.54)"><path class="n" d="M3910.934,1662.85l-17.028,11.437-12.967,2.828,4.92,11.965,11.912-4.03,16.833-14.3Z" transform="translate(-3806.616 -1488.908)"/><path class="v" d="M3866.738,1643.365h0a5.573,5.573,0,0,0-7.837-.544l-3.022,2.628a5.572,5.572,0,0,0-.544,7.841h0a5.573,5.573,0,0,0,7.837.544l3.023-2.628A5.572,5.572,0,0,0,3866.738,1643.365Z" transform="translate(-3749.952 -1475.578)"/><g transform="translate(71.522)"><path class="w" d="M3543.791,1291.449c-8.035,41.286,19.595,64.59,49.048,65.009s55.247-28.007,57.611-63.491-19.595-64.589-49.048-65.009S3550.584,1256.541,3543.791,1291.449Z" transform="translate(-3486.613 -1217.851)"/><path class="x" d="M3753.4,1580.926l10.95,14.208,24.356-49.566-13.157-9.715Z" transform="translate(-3704.195 -1409.755)"/><path class="y" d="M3793.884,1694.205l-.018-.009,30.194-58.751h0c.832-2.483,3.67-3.941,8.116-3.674,7.745.465,17.4,5.972,21.57,12.3,2.157,3.275,2.407,6.12,1.086,8.045l0,0-7.062,13.771,0,0-29.953,58.414-31.019-16.338Z" transform="translate(-3783.718 -1469.519)"/><ellipse class="x" cx="17.384" cy="6.399" rx="17.384" ry="6.399" transform="translate(30.36 261.284) rotate(-150.834)"/><path class="x" d="M3583.325,1226.33c29.174-16.281,60.357-1.589,69.65,32.815s-6.825,75.492-36,91.773-60.357,1.589-69.65-32.815S3554.15,1242.611,3583.325,1226.33Zm-32.545,88.191c7.893,29.223,38.882,40.845,63.663,27.016s38.47-48.729,30.577-77.952-36.632-45.7-61.412-31.867S3542.887,1285.3,3550.78,1314.521Z" transform="translate(-3492.467 -1212.701)"/><path class="x" d="M3620.925,1286.034c-.063-.756-.122-1.513-.164-2.271-.008-.135-.009-.271-.016-.406-.018-.361-.028-.722-.041-1.083-.016-.439-.041-.878-.05-1.318-.005-.244,0-.489,0-.733,0-.393-.005-.784,0-1.177,0-.3-.007-.6,0-.906,0-.363.023-.727.032-1.09.01-.393.02-.786.035-1.179.008-.194.008-.388.017-.582.024-.516.064-1.032.1-1.549.022-.335.038-.669.064-1,.007-.094.01-.189.018-.283q.111-1.388.266-2.772c0-.011,0-.022,0-.033.01-.084.023-.168.033-.252.094-.816.2-1.632.313-2.446.018-.128.042-.256.061-.384.045-.308.1-.615.146-.922.07-.438.133-.877.209-1.314.049-.28.107-.557.159-.836q.094-.509.193-1.017c.049-.248.09-.5.141-.744.1-.495.216-.986.326-1.479.058-.262.112-.526.173-.787.021-.093.04-.187.062-.28q.3-1.293.646-2.577c.01-.036.021-.073.031-.109.066-.246.141-.489.208-.734.182-.658.362-1.318.559-1.971.031-.1.067-.2.1-.307.164-.538.342-1.07.516-1.6.139-.428.268-.86.414-1.286.027-.078.059-.152.086-.23q.714-2.071,1.529-4.1c.046-.115.083-.233.129-.347.139-.342.292-.677.435-1.017.232-.555.465-1.108.709-1.657.215-.486.44-.967.664-1.448.252-.541.5-1.081.767-1.616.086-.176.165-.357.252-.532.21-.421.432-.834.648-1.251.148-.286.292-.573.444-.857q.712-1.335,1.463-2.642l.013-.024h0l.013-.021q.862-1.487,1.782-2.931c.027-.043.052-.087.079-.13.447-.7.91-1.387,1.376-2.072.094-.138.182-.28.277-.417l.016-.025q.835-1.209,1.71-2.381c.029-.039.059-.075.088-.114.179-.238.365-.468.546-.7.372-.485.74-.973,1.122-1.448.072-.09.148-.174.22-.263.259-.319.526-.63.79-.944.292-.347.576-.7.873-1.043.11-.127.226-.246.336-.372.29-.329.586-.65.881-.974.254-.278.5-.564.759-.838.146-.155.3-.3.446-.454.321-.335.647-.664.974-.992.227-.228.447-.464.677-.689.18-.176.368-.341.549-.514q.5-.475,1-.938c.2-.188.4-.384.608-.569.222-.2.454-.387.678-.583.332-.29.665-.579,1-.862.173-.146.342-.3.516-.444.284-.234.577-.453.865-.682.316-.252.632-.506.953-.752.129-.1.254-.2.384-.3.391-.295.792-.572,1.188-.857.272-.2.54-.4.815-.588.07-.049.138-.1.209-.151q1.082-.746,2.192-1.445l.02-.012c.054-.034.11-.064.164-.1.67-.418,1.345-.826,2.031-1.218q.258-.147.518-.292.843-.471,1.688-.907c.215-.11.429-.208.644-.315q.438-.219.876-.429c.226-.109.452-.228.679-.332.364-.169.729-.318,1.094-.477.262-.115.523-.233.785-.343.108-.045.215-.1.323-.141q1.1-.451,2.2-.845l.012,0q1.122-.4,2.243-.747c.1-.03.195-.053.292-.083.271-.082.542-.153.814-.229.385-.109.77-.227,1.154-.325.192-.049.384-.086.576-.132.337-.082.673-.157,1.009-.232.259-.057.52-.126.778-.179s.544-.094.816-.144c.34-.063.681-.125,1.021-.18.179-.029.36-.068.54-.1.321-.048.64-.075.961-.116.4-.051.8-.1,1.193-.144.14-.014.281-.038.42-.051.331-.031.659-.038.989-.061.429-.03.859-.063,1.287-.08.126,0,.254-.02.38-.024.294-.009.584,0,.877,0,.515-.006,1.029-.011,1.542,0,.144,0,.289,0,.433,0,.57.019,1.137.051,1.7.092.072.005.145.014.217.02.43.034.86.069,1.287.115.272.03.542.072.813.107.2.026.409.051.613.08.744.107,1.486.226,2.221.372l.068.016c.2.04.4.093.6.136.615.132,1.228.27,1.835.429.3.078.588.169.882.254.39.111.784.213,1.171.336.1.031.193.072.291.1.6.194,1.186.411,1.773.632.287.107.576.2.861.318.866.347,1.724.718,2.569,1.123l13.819,6.617c-.845-.4-1.7-.776-2.569-1.123-.284-.113-.574-.21-.86-.318-.588-.221-1.178-.438-1.775-.632-.483-.157-.971-.3-1.459-.439-.295-.084-.588-.176-.885-.254-.607-.159-1.22-.3-1.835-.429-.2-.043-.4-.1-.6-.136-.757-.151-1.521-.277-2.288-.387-.205-.029-.411-.054-.616-.081-.7-.089-1.394-.167-2.1-.222-.073-.006-.145-.014-.218-.02-.708-.052-1.421-.076-2.135-.093-.513-.012-1.028-.007-1.544,0-.417,0-.833.006-1.252.023s-.859.05-1.289.08c-.469.033-.939.064-1.41.112-.4.04-.792.093-1.188.144-.5.064-1,.131-1.505.213-.339.055-.678.117-1.017.179q-.8.148-1.6.323c-.336.074-.673.15-1.01.232-.574.14-1.15.294-1.726.457-.272.077-.544.148-.817.23-.844.254-1.689.526-2.534.83l-.007,0-.005,0c-.84.3-1.68.635-2.52.986-.261.109-.522.228-.783.342q-.888.388-1.776.811-.437.209-.873.427c-.779.39-1.557.789-2.334,1.223-.865.483-1.716.99-2.558,1.516-.051.032-.1.06-.154.092-.82.515-1.627,1.054-2.424,1.609-.273.19-.539.39-.81.584-.53.381-1.058.766-1.577,1.163-.32.245-.634.5-.949.748-.466.371-.929.745-1.385,1.129-.336.283-.669.57-1,.86q-.65.568-1.287,1.153-.5.464-1,.938-.62.593-1.226,1.2c-.327.327-.652.656-.973.991-.406.424-.807.856-1.2,1.291-.3.324-.593.647-.885.977-.408.463-.806.935-1.2,1.409-.264.315-.532.627-.793.948-.456.562-.9,1.135-1.342,1.711-.181.235-.367.466-.545.7q-.929,1.24-1.815,2.521c-.092.133-.177.27-.268.4-.5.73-.988,1.466-1.463,2.214q-.91,1.431-1.766,2.9c-.01.017-.021.033-.031.051l0,.007c-.507.874-.995,1.762-1.472,2.657-.151.284-.3.573-.445.859q-.459.885-.9,1.781c-.262.534-.514,1.074-.766,1.615-.225.482-.45.964-.666,1.452-.242.547-.475,1.1-.706,1.652-.191.455-.382.909-.566,1.367q-.811,2.027-1.529,4.1c-.174.5-.334,1.01-.5,1.516-.174.534-.352,1.067-.516,1.605-.229.752-.445,1.508-.654,2.266-.069.25-.146.5-.212.747q-.395,1.475-.738,2.964c-.061.262-.115.525-.173.787q-.246,1.109-.467,2.223-.1.508-.192,1.017-.2,1.073-.368,2.15c-.049.307-.1.614-.146.922q-.211,1.42-.376,2.845c-.009.078-.021.156-.03.234-.116,1.028-.209,2.059-.289,3.09-.026.336-.042.672-.064,1.007-.046.708-.087,1.416-.115,2.125-.016.4-.025.791-.035,1.187q-.026.995-.029,1.988c0,.394,0,.787,0,1.18.008.686.028,1.371.053,2.056.013.359.023.718.041,1.077q.068,1.343.18,2.681c.011.13.016.261.028.392.091,1.021.2,2.039.334,3.055.037.289.083.578.123.866.1.729.212,1.455.334,2.18q.089.525.186,1.048.189,1.031.408,2.055c.071.331.138.663.213.993.221.973.454,1.943.714,2.907.273,1.011.568,2,.879,2.979.088.278.185.548.277.823.222.671.45,1.337.69,1.991.139.379.285.751.43,1.125.215.555.434,1.106.661,1.647.168.4.34.795.514,1.187q.333.75.681,1.482.313.66.639,1.305.333.661.681,1.306.407.76.832,1.5c.222.385.445.769.674,1.146.358.591.729,1.169,1.1,1.74.235.357.466.722.707,1.071.122.176.246.349.369.523q.631.89,1.288,1.743c.085.111.168.225.255.335q.834,1.063,1.709,2.069l.013.015q.875,1,1.791,1.939c.123.127.25.246.374.371q.693.7,1.406,1.362c.191.177.384.352.577.525q.671.6,1.358,1.173c.175.146.348.295.524.437.625.5,1.257.993,1.9,1.459.091.066.185.126.275.191q.841.6,1.7,1.155c.209.135.42.265.631.4q.732.455,1.477.879c.206.117.41.237.617.35.689.377,1.384.741,2.089,1.078l-13.819-6.617c-.705-.337-1.4-.7-2.088-1.078-.208-.113-.412-.233-.618-.35q-.745-.424-1.477-.879c-.21-.131-.422-.261-.631-.4q-.861-.556-1.7-1.155c-.091-.065-.185-.125-.275-.191-.644-.467-1.278-.955-1.9-1.46-.177-.142-.349-.291-.524-.437q-.688-.571-1.358-1.173c-.194-.174-.386-.348-.577-.525q-.714-.663-1.406-1.362c-.124-.125-.25-.244-.374-.371-.037-.038-.075-.073-.111-.11q-.857-.888-1.679-1.829l-.013-.015q-.821-.94-1.605-1.933c-.035-.044-.069-.092-.1-.136-.086-.11-.17-.225-.256-.337q-.657-.852-1.287-1.742c-.124-.174-.247-.347-.369-.523-.09-.13-.184-.256-.273-.388-.15-.221-.286-.459-.434-.683-.375-.571-.745-1.148-1.1-1.74-.1-.157-.2-.3-.293-.462-.131-.222-.25-.458-.38-.683q-.424-.739-.833-1.5c-.111-.207-.231-.4-.34-.612-.118-.226-.224-.464-.34-.694q-.326-.646-.64-1.305c-.107-.226-.223-.443-.329-.671-.122-.265-.232-.543-.351-.811-.175-.393-.347-.787-.515-1.187-.086-.2-.178-.4-.262-.605-.139-.341-.264-.7-.4-1.042-.145-.374-.291-.745-.43-1.125-.056-.152-.118-.3-.172-.451-.181-.5-.347-1.024-.518-1.538-.091-.275-.188-.545-.276-.823-.021-.068-.046-.133-.067-.2q-.406-1.292-.769-2.623c-.014-.052-.028-.1-.042-.156q-.329-1.217-.615-2.444c-.036-.154-.064-.309-.1-.463-.074-.329-.142-.66-.212-.99-.083-.388-.173-.775-.25-1.164-.058-.3-.1-.6-.159-.9-.064-.349-.127-.7-.186-1.046-.039-.23-.085-.458-.122-.688-.079-.5-.143-1-.212-1.5-.04-.287-.085-.573-.122-.861-.012-.1-.029-.192-.041-.288q-.168-1.352-.289-2.71c0-.02,0-.039,0-.059C3620.942,1286.3,3620.937,1286.165,3620.925,1286.034Z" transform="translate(-3581.08 -1201.137)"/><path class="n" d="M3571.965,1219.384c14.2-7.925,29.494-9.092,43.056-3.293,14.639,6.263,25.383,19.642,30.254,37.674,9.492,35.137-7.06,77.269-36.895,93.918a51.533,51.533,0,0,1-26.67,6.91,44.891,44.891,0,0,1-16.386-3.617c-14.64-6.263-25.384-19.642-30.255-37.674C3525.579,1278.166,3542.13,1236.033,3571.965,1219.384Zm-30.013,91.481c4.286,15.867,13.74,27.639,26.621,33.15a39.5,39.5,0,0,0,14.418,3.183,45.345,45.345,0,0,0,23.467-6.08c26.251-14.65,40.815-51.721,32.463-82.638-4.285-15.867-13.739-27.639-26.62-33.149-11.933-5.1-25.389-4.076-37.885,2.9C3548.165,1242.876,3533.6,1279.948,3541.952,1310.865Z" transform="translate(-3480.178 -1208.192)"/></g><path class="z" d="M3988.586,2246.87c-13.186-4.932-35.616-5.089-50.1-.351-7,2.292-10.858,5.309-11.488,8.371a19.738,19.738,0,0,0-1.963-.762c-7.278-2.381-18.549-2.3-25.175.176s-6.1,6.418,1.181,8.8,18.55,2.3,25.175-.177a10.088,10.088,0,0,0,3.706-2.169,23.552,23.552,0,0,0,6.212,3.272c13.186,4.932,35.616,5.089,50.1.351S4001.771,2251.8,3988.586,2246.87Z" transform="translate(-3895.217 -1850.537)"/><path class="v" d="M3959.281,1991.356c-.665,5.741-8.055.384-8.055-3.99,9.208-29.622,19.046-53.632,30.468-63.531l2.767-62.9,35.1-9.9-17.25,81.835Z" transform="translate(-3938.052 -1606.201)"/><path class="k" d="M3910.419,2257.212l8.343,2.9c6.436.221,9.779-.352,11.451,2.159l.474.712c1.672,2.511.445,3.822-3.281,4.969l-16.778,3.8c-4.9,1.086-6.145-.528-7.365-3.49,0,0-.758-3.7,2.6-8.147C3907.773,2257.582,3907.639,2257.39,3910.419,2257.212Z" transform="translate(-3831.816 -1859.354)"/><path class="v" d="M3947.869,2049.65c-1.833,4.639-9.87,3.624-9.734-.184-8.466-58.525-2.685-62.052-2.9-74.824-.244-14.267-3.01-29.656-13.127-56.706l9.1,1.455a30.072,30.072,0,0,1,25.312,29.441C3956.841,1985.177,3955.086,2013.94,3947.869,2049.65Z" transform="translate(-3864.076 -1647.894)"/><path class="k" d="M3971.48,1856.553l5.428,76.659s-27.1,23.231-60.425-5.636c7.3-10.437,8.206-23.729,7.2-37.875-2.97-13.293.4-24.23,4.214-33.786Z" transform="translate(-3882.312 -1609.239)"/><ellipse class="aa" cx="17.396" cy="9.86" rx="17.396" ry="9.86" transform="translate(62.295 185.521) rotate(-108.659)"/><path class="v" d="M3965.87,1612.082c-.685,8.294-8.528,12.812-14.494,8.678s-10.249-14.21-9.564-22.5,6.076-11.667,12.042-7.533S3966.554,1603.787,3965.87,1612.082Z" transform="translate(-3880.836 -1442.852)"/><path class="v" d="M3967.552,1674.322l-.9-.2a5.669,5.669,0,0,1-4.286-6.747l3.816-17.108a5.669,5.669,0,0,1,6.747-4.286l.9.2a5.669,5.669,0,0,1,4.286,6.747l-1.25,16.978C3976.188,1672.94,3970.586,1675,3967.552,1674.322Z" transform="translate(-3900.889 -1478.309)"/><path class="k" d="M3948.189,1613.827s.111,5.634,9.709,4.263c7.679-1.1,2.68-14.383,9.965-17.115,8.015-3.006,7.472-13.539,3.424-16.816s-13.583-3.508-19.609.726S3932.2,1594.016,3948.189,1613.827Z" transform="translate(-3888.669 -1438.332)"/><ellipse class="v" cx="3.664" cy="3.664" rx="3.664" ry="3.664" transform="translate(72.886 170.378) rotate(-91.937)"/><path class="n" d="M3915.4,1747.65c0-13.46.442-16.324-1.876-31.625-.778-5.132-.405-6.657-.919-11.822-.9-9.08,3.136-25.6,18.111-21.29l1.351.941a31.615,31.615,0,0,1,6.371,2.448c21.877,11.28,30.13,12.615,26.745,26.5-.932,10.4-9.441,13.385-6.2,35.485C3954.487,1763.13,3920.385,1758.271,3915.4,1747.65Z" transform="translate(-3869.811 -1500.974)"/><path class="ab" d="M3955.143,1674.036l-1.245-1.8a5.5,5.5,0,0,0,4.632.268A7.056,7.056,0,0,1,3955.143,1674.036Z" transform="translate(-3878.029 -1494.759)"/><path class="g" d="M3962.746,1680.737a2.618,2.618,0,0,0-3.169,2.991c.343,2.04,1.59,4.482,5.314,5.743,5.157,1.747,10.82.808,13.545.16a.742.742,0,0,0,.209-1.357C3975.576,1686.377,3968.207,1682.056,3962.746,1680.737Z" transform="translate(-3900.628 -1500.01)"/><path class="k" d="M4125.566,2215.235l-1.895,8.7c.558,6.465,1.536,9.739-.773,11.714l-.655.56c-2.309,1.976-4.725.769-5.367-2.681l-5.406-15.678a7.575,7.575,0,0,1,4.07-8.006s2.462-1.422,6.565,1.187C4124.808,2212.744,4125.052,2212.476,4125.566,2215.235Z" transform="translate(-4104.38 -1829.587)"/><path class="k" d="M4034.428,1607.925s-8.307-10.327-15.747,2.437-3.3,27.831-13.883,35.194c0,0,18.514.24,20.585-11.5s.965-21.643,7.6-21.961S4034.428,1607.925,4034.428,1607.925Z" transform="translate(-3975.032 -1452.216)"/><path class="ac" d="M3926.491,2264.2l10.676-.617a1.262,1.262,0,0,0,.444-2.389l-6.681-3.983Z" transform="translate(-3847.489 -1859.354)"/><path class="ac" d="M4109.422,2205.586s2.693,12.531,4.076,14.166l2.618-10.717-1.853-6.288Z" transform="translate(-4094.206 -1825.408)"/><path class="ad" d="M4041.92,1936.595s3.792,6.83,6.6,7.038c0,0-3.656.315-5.811-1.143Z" transform="translate(-4001.176 -1659.524)"/><path class="ad" d="M3931.764,1934.268l-5.428-76.659-9.853,5.8s8.1,68,1.925,77.754A36.49,36.49,0,0,0,3931.764,1934.268Z" transform="translate(-3837.167 -1610.294)"/><path class="v" d="M3817.725,1741.7h0a5.574,5.574,0,0,0-7.792-1l-3.171,2.448a5.572,5.572,0,0,0-1,7.8h0a5.573,5.573,0,0,0,7.792,1l3.171-2.448A5.573,5.573,0,0,0,3817.725,1741.7Z" transform="translate(-3682.135 -1536.712)"/><path class="ae" d="M3915.2,1786.132s-1.124-13.444.679-17.37,8.972-20.634,8.972-20.634l-4.223-5.2c-4.643,8.116-14.29,8.742-15.354,51.476C3905.274,1794.4,3914.1,1792.416,3915.2,1786.132Z" transform="translate(-3826.031 -1538.818)"/><path class="n" d="M3824.58,1749.767l14.794,26.75a6.791,6.791,0,0,0,11.2,1.009L3871.427,1752l-6.956-8.454-13.539,14.66a2.728,2.728,0,0,1-4.5-.739L3837.751,1738Z" transform="translate(-3742.207 -1535.747)"/></g><g transform="translate(588.112 438.735)"><path class="v" d="M2729.406,1482.253h0a4.228,4.228,0,0,0,1.362,5.807l6.855,4.246a4.229,4.229,0,0,0,5.8-1.362h0a4.228,4.228,0,0,0-1.363-5.807l-6.855-4.246A4.229,4.229,0,0,0,2729.406,1482.253Z" transform="translate(-2728.776 -1457.302)"/><path class="af" d="M2608.758,1502.9s-27.633,23.617-35.289,17.446-30.72-23.266-30.72-23.266l-9.875,10.05s33.879,39.5,45,38.779,37.839-17.861,37.839-17.861Z" transform="translate(-2526.635 -1467.784)"/><path class="ag" d="M2552.736,1519.931l-1.386,1.442s33.879,39.5,45,38.779c7.527-.486,22.181-8.486,30.879-13.612L2622.67,1539s-18.247,12.908-26.19,14C2589.5,1553.97,2586.255,1552.621,2552.736,1519.931Z" transform="translate(-2545.111 -1482.026)"/><path class="z" d="M2452.125,2119.269c-10.131-5.47-27.082-5.873-38.459-1.026-1.024-2.327-3.243-4.546-6.695-6.41-10.433-5.634-28.1-5.893-39.465-.579s-12.116,14.19-1.683,19.824c10.131,5.471,27.082,5.873,38.459,1.026,1.024,2.327,3.243,4.546,6.695,6.41,10.433,5.634,28.1,5.894,39.465.579S2462.558,2124.9,2452.125,2119.269Z" transform="translate(-2304.694 -1848.196)"/><path class="k" d="M2469.621,1497.411s8.292,2.307,8.282,6.563a46.078,46.078,0,0,1-.822,8.181l-27.865-5.871,2.886-11.5Z" transform="translate(-2357.303 -1466.35)"/><path class="k" d="M2520.888,2103l15.42-10.573a13.821,13.821,0,0,1,8.265.032c1.425.417,1.691-.651,1.57.687l1.332,5.673c1.3,3.8-1.707,6.083-6.045,7.394l-14.741,4.215c-3.054.988-7.358.432-9.564-1.237l-.625-.473C2514.294,2107.05,2517.625,2104.766,2520.888,2103Z" transform="translate(-2452.26 -1838.461)"/><path class="ah" d="M2528.877,2073.447c-.25,4.4-10.949,3.79-10.7-.609l.813-14.3,10.7.609Z" transform="translate(-2435.068 -1817.725)"/><path class="k" d="M2494.178,1844.283c-4.5,3.346-8.979,3.206-13.438-.355,0,0-7.517-88.406-5.015-133.81l33.722-10.53c-4.229,27.841-13.41,73.555-13.41,73.555C2505.815,1796.058,2497,1824.414,2494.178,1844.283Z" transform="translate(-2398.642 -1594)"/><path class="ad" d="M2501.481,1699.588l-9.457,2.953c-2.591,16.495-6.625,38.058-9.5,52.994a81.346,81.346,0,0,0,0,29.456c3.553,20.285-2.961,42.736-5.312,59.293a14.3,14.3,0,0,1-2,1.247c3.652,1.891,7.318,1.488,11-1.247,2.508-17.661,9.752-42.028,4.463-63.319a44.894,44.894,0,0,1-.322-19.4C2493.353,1746.171,2498.581,1718.678,2501.481,1699.588Z" transform="translate(-2390.676 -1594)"/><path class="ah" d="M2431.3,2103.787c.453,4.382-10.206,5.484-10.659,1.1l-1.471-14.241,10.659-1.1Z" transform="translate(-2299.399 -1837.048)"/><path class="k" d="M2446.183,1873.01c-4.589,3.745-9.047,4.4-13.355,1.524,0,0-3.825-29.36-9.837-60.633-4.653-24.2-11.546-48.516-13.13-67.781l31.33-18.261c-.277,17.124,1,54.817,1.589,70.988a27.1,27.1,0,0,0,2.742,10.863C2452.718,1824.524,2446.183,1873.01,2446.183,1873.01Z" transform="translate(-2313.474 -1611.621)"/><path class="af" d="M2405.738,1586.018a534.041,534.041,0,0,0,.277-57.721c1.856-26.887,12.7-36.137,29.214-28.787l6.871,2.342c19.684,12.426,30.106,12.589,24.956,33.974l-4.846,51.28C2460.525,1611.521,2402.455,1614.631,2405.738,1586.018Z" transform="translate(-2331.334 -1467.784)"/><path class="ag" d="M2451.045,1599.925l-4.846,51.28c-.983,14.238-21.141,21.231-37.124,18.912C2428,1660.635,2441.057,1634.617,2451.045,1599.925Z" transform="translate(-2315.322 -1531.884)"/><g transform="translate(93.469 26.387)"><path class="j" d="M2479.012,1501.795s.541,7.435-10.646,12.755c-5.771,2.744-8.932,7.893-10.641,12.236-1,2.536-2.416,1.126-2.489-1.637-.189-7.188-.275-9.276-1.351-14.67-1.74-8.725,2.936-21.064,3.407-21.12S2479.012,1501.795,2479.012,1501.795Z" transform="translate(-2453.499 -1489.358)"/></g><path class="k" d="M2504.917,1493.776s-10.513,2.386-8.98,12.22l-.74,11.43s-6.832-13.606-2.108-25.4S2504.917,1493.776,2504.917,1493.776Z" transform="translate(-2400.218 -1461.63)"/><path class="k" d="M2448.37,1466.892s1.621,3.121,2.755,3.82,18.189-5.207,17.726-18.894c-.293-8.668-16.751-7.9-16.751-7.9Z" transform="translate(-2347.941 -1434.64)"/><path class="v" d="M2476.208,1496.758l-.824.06a5.09,5.09,0,0,1-5.43-4.694l-1.142-15.7a5.09,5.09,0,0,1,4.694-5.43l.824-.06a5.091,5.091,0,0,1,5.43,4.694l3.315,14.923C2483.278,1493.337,2478.993,1496.555,2476.208,1496.758Z" transform="translate(-2369.859 -1451.481)"/><path class="ab" d="M2474.361,1499.488a13.9,13.9,0,0,0,11.558-5.163s-5.106,9.3-11.238,9.552Z" transform="translate(-2374.792 -1466.067)"/><path class="k" d="M2461.439,1503.367s6.452,9.462-7.2,15.342c0,0-5.5,4.845-6.063,10.6,0,0,4.671-3.115,7.367-4.8S2478.178,1512.574,2461.439,1503.367Z" transform="translate(-2347.07 -1471.702)"/><ellipse class="v" cx="8.643" cy="15.248" rx="8.643" ry="15.248" transform="translate(105.105 34.416) rotate(-171.759)"/><path class="v" d="M2486.545,1451.87c-3.825,6.212-16.213,8.235-19.237,2.637s2.09-16.773,5.914-22.985,9.376-6.71,12.4-1.113S2490.369,1445.658,2486.545,1451.87Z" transform="translate(-2374.615 -1423.804)"/><path class="k" d="M2453.231,1432s-3.9,12.956,6.046,17.817c0,0,13.056-4.69,6.679-18.995-5.62-12.609-19.429-6.287-19.429-6.287Z" transform="translate(-2346.098 -1421.582)"/><path class="k" d="M2503.992,1445.44s2.427-5.416,9.757-6.566l-4.852-4.23S2503.109,1434.909,2503.992,1445.44Z" transform="translate(-2413.75 -1428.87)"/><path class="k" d="M2471.311,1438.5c-1.74-3.51-6.66-4.364-14.1-3.11a6.266,6.266,0,0,1-3.378-.264c-5-2.01-4.621-8.6-4.621-8.6-.343-4.511,2.86-5.942,7.371-6.285l11.748-.893c6.653-.541,11.86,5.788,12.2,10.3l.166.762C2481.039,1434.921,2475.822,1438.154,2471.311,1438.5Z" transform="translate(-2360.1 -1419.317)"/><path class="v" d="M2470.277,1485.643a3.212,3.212,0,1,1-1.051-4.419A3.211,3.211,0,0,1,2470.277,1485.643Z" transform="translate(-2355.849 -1457.604)"/><path class="k" d="M2408.588,2127.216l.759,9.064a54.236,54.236,0,0,0,1.588,7.686,6.541,6.541,0,0,0,5.579,4.085c2.776.189,8.354-4.719,6.365-10.81-1.734-5.309-3.611-10.9-3.611-10.9C2415.353,2128.135,2411.714,2128.759,2408.588,2127.216Z" transform="translate(-2287.393 -1859.979)"/><g transform="translate(93.659 25.318)"><path class="j" d="M2509.788,1491.543h0c-1.4-.548-2.539-2.8-2.539-5.022l5.078,1.987C2512.327,1490.732,2511.19,1492.091,2509.788,1491.543Z" transform="translate(-2507.249 -1486.521)"/></g><path class="k" d="M2514.6,1663.95l24.568,5.275c4.8,1.031,7.474-1.508,5.935-5.644l-13.912-37.394c-1.539-4.136-6.727-8.363-11.53-9.395l-24.568-5.275c-4.8-1.031-7.474,1.509-5.935,5.644l13.913,37.394C2504.611,1658.691,2509.8,1662.919,2514.6,1663.95Z" transform="translate(-2439.824 -1538.966)"/><path class="v" d="M2495.2,1707.081h0a4.513,4.513,0,0,0,4.468,4.123l7.827-.2a3.874,3.874,0,0,0,3.718-4.326h0a4.513,4.513,0,0,0-4.468-4.123l-7.827.2A3.874,3.874,0,0,0,2495.2,1707.081Z" transform="translate(-2407.952 -1595.85)"/><path class="af" d="M2396.253,1567.42s21.916,45.072,14.824,60.443-48.573-2.358-48.573-2.358V1613.03h29.288l-5.89-37.456Z" transform="translate(-2259.223 -1511.625)"/></g><path class="ai" d="M2863.549,2219.11l59.548-14.767c-1.78-2.9-.938-7.645-6.9-11.709l-45.657-31.1c-5.966-4.063-16.571-5.969-23.565-4.234l-59.548,14.767c-6.995,1.735-7.836,6.479-1.869,10.542l45.657,31.1C2837.176,2217.772,2847.78,2219.677,2863.549,2219.11Z" transform="translate(-2339.595 -1440.144)"/><path class="aj" d="M2723.876,2184.018l-1.131,11.786,16.268,2.11,122.478,18.424.95-10.845Z" transform="translate(-2256.776 -1457.195)"/><path class="aj" d="M2798.8,2223.111l59.548-14.767c6.995-1.734,7.836-6.478,1.87-10.542l-45.657-31.1c-5.966-4.063-16.571-5.969-23.565-4.234l-59.548,14.767c-6.994,1.734-7.835,6.479-1.869,10.542l45.657,31.1C2781.206,2222.94,2791.81,2224.845,2798.8,2223.111Z" transform="translate(-2259.613 -1443.365)"/><path class="n" d="M2795.725,2190.161l59.548-14.767c6.994-1.734,7.835-6.479,1.869-10.542l-45.657-31.1c-5.966-4.063-16.571-5.969-23.565-4.235l-59.548,14.767c-6.995,1.734-7.836,6.479-1.87,10.542l45.657,31.1C2778.126,2189.99,2788.731,2191.9,2795.725,2190.161Z" transform="translate(-2255.374 -1422.828)"/><path class="ak" d="M2912.877,2174.318l1.686,22.164-50.2-17.394" transform="translate(-2362.252 -1451.149)"/><path class="ai" d="M3213.418,2305.483l59.548-14.767c-1.779-2.9-.938-7.646-6.9-11.709l-45.657-31.1c-5.966-4.064-16.571-5.969-23.565-4.235l-59.548,14.768c-6.995,1.734-7.836,6.478-1.87,10.542l45.657,31.1C3187.045,2304.145,3197.649,2306.051,3213.418,2305.483Z" transform="translate(-2821.271 -1493.978)"/><path class="aj" d="M3073.745,2270.392l-1.131,11.786,16.268,2.109,122.478,18.424.95-10.845Z" transform="translate(-2738.452 -1511.029)"/><path class="aj" d="M3148.674,2309.484l59.548-14.767c6.995-1.734,7.836-6.478,1.87-10.542l-45.657-31.1c-5.966-4.064-16.57-5.969-23.565-4.235l-59.548,14.768c-6.994,1.734-7.835,6.478-1.869,10.542l45.657,31.1C3131.075,2309.313,3141.679,2311.219,3148.674,2309.484Z" transform="translate(-2741.29 -1497.199)"/><path class="s" d="M3145.593,2276.534l59.548-14.767c6.995-1.734,7.836-6.478,1.869-10.542l-45.657-31.1c-5.966-4.064-16.571-5.969-23.565-4.235l-59.548,14.767c-6.994,1.735-7.836,6.479-1.869,10.542l45.657,31.1C3127.994,2276.363,3138.6,2278.269,3145.593,2276.534Z" transform="translate(-2737.049 -1476.662)"/><path class="al" d="M3186.236,2252.108l2.959,8.6c.167.486-.12.936-.767,1.2l-11.462,4.745c-1.631.675-.681,2.226,1.607,2.625l16.084,2.805a3.782,3.782,0,0,1,2.116,1l7.376,8.285c1.049,1.179,4,1.471,4.993.495l6.981-6.863a2.965,2.965,0,0,1,2.075-.585l16.021.376c2.279.053,3.152-1.317,1.478-2.32l-11.769-7.046c-.665-.4-.977-.907-.834-1.362l2.525-8.053c.359-1.145-2.051-2.285-4.079-1.928l-14.255,2.508a5.2,5.2,0,0,1-2.591-.257l-14.46-5.353C3188.178,2250.22,3185.815,2250.886,3186.236,2252.108Z" transform="translate(-2801.718 -1498.729)"/><path class="v" d="M2749.851,1472.515l6.669,5.221a2.081,2.081,0,0,0,2.912-.355h0a2.081,2.081,0,0,0-.355-2.912l-6.669-5.221a2.081,2.081,0,0,0-2.913.355h0A2.081,2.081,0,0,0,2749.851,1472.515Z" transform="translate(-2164.119 -1011.428)"/></svg>