<svg xmlns="http://www.w3.org/2000/svg" xmlns:xlink="http://www.w3.org/1999/xlink" width="305.786" height="266.839" viewBox="0 0 305.786 266.839"><defs><style>.a,.as{fill:#c97d7f;}.a,.ar{opacity:0.34;mix-blend-mode:multiply;isolation:isolate;}.b{fill:#179d9e;}.c{fill:#463757;}.d{fill:#ffe0e2;}.e{fill:snow;}.f{fill:url(#a);}.aw,.ba,.be,.bg,.bh,.g{fill:none;stroke-linecap:round;stroke-linejoin:round;}.g{stroke:#463757;stroke-width:3.237px;}.h{fill:#ffbabf;}.i{fill:#5981eb;}.j{fill:#ff9963;}.k{fill:#fff;}.l{fill:#e38b5d;}.m{fill:#ffac80;}.n{fill:#57383f;}.o{fill:#875963;}.p{fill:url(#b);}.q{fill:#754d56;}.r{fill:#e6b195;}.s{fill:#ffc5a6;}.t{fill:#593a39;}.u{fill:#cf7279;}.v{fill:#7c64ba;}.w{fill:#e88087;}.x{fill:#584785;}.y{fill:#ab3f4c;}.z{fill:#dd4078;}.aa{fill:#dea749;}.ab{fill:#c74958;}.ac{fill:#913641;}.ad{fill:#45312b;}.ae{fill:#cc6269;}.af{fill:#de999b;}.ag{fill:#503f63;}.ah{fill:#6d5ba1;}.ai{fill:#6b5485;}.aj{fill:#dcefff;}.ak{fill:#7b66b5;}.al{fill:#59466e;}.am{fill:#5d5d87;}.an{fill:#6b5e6d;}.ao{fill:#eda3a5;}.ap{fill:#fff2f2;}.aq{fill:#804e4d;}.at{fill:#56446b;}.au{fill:#ede1e1;}.av{fill:#433878;}.aw{stroke:#ede1e1;stroke-width:1.404px;}.ax{fill:#d64f5f;}.ay{fill:#c27750;}.az{fill:#ba4553;}.ba{stroke:#e38b5d;stroke-width:0.967px;}.bb{fill:#428275;}.bc{fill:#ebaeb0;}.bd{fill:#504078;}.be{stroke:#50a08f;stroke-width:12.726px;}.bf{fill:#50a08f;}.bg{stroke:#4fb8a0;stroke-width:4.267px;}.bh{stroke:#fff;stroke-width:2.579px;}.bi{fill:#3d576e;}.bj{fill:#367876;}.bk{fill:#50718f;}.bl{fill:#6087ab;}</style><linearGradient id="a" y1="0.5" x2="1" y2="0.5" gradientUnits="objectBoundingBox"><stop offset="0.159" stop-color="#f7d1d2"/><stop offset="0.745" stop-color="#f7babb"/></linearGradient><linearGradient id="b" x1="0.061" y1="0.211" x2="0.814" y2="0.719" gradientUnits="objectBoundingBox"><stop offset="0" stop-color="#a8d6cd"/><stop offset="0.632" stop-color="#85d9cb"/><stop offset="1" stop-color="#69c1b2"/></linearGradient></defs><g transform="translate(-2056.754 -161.416)"><path class="a" d="M3334.695,1353.962l-60.444-34.9-103.994,50.83,51.551,29.764.424,14.772,20.58-4.486v0a7.521,7.521,0,0,0,2.657-.876l88.732-51.137C3336.227,1356.76,3336.448,1354.975,3334.695,1353.962Z" transform="translate(-983.765 -1022.767)"/><g transform="translate(2297.28 196.388)"><path class="b" d="M4295.836,866.589s-22.158,5.916-39.181,14.366v-11.2C4265.568,865.539,4278.526,862.651,4295.836,866.589Z" transform="translate(-4240.864 -817.751)"/><path class="b" d="M4136.919,478.262c6.466-9.855,12.567-17.071,12.563-16.67-.137,10.7-3.871,22.407-8.481,32.862,9.732-9.248,25.352-19.527,45.387-17.339,0,0-38.047,22.643-56.529,37.94-5.821,4.819-4.312-11.289-8.73-7.44Z" transform="translate(-4121.128 -461.576)"/><path class="b" d="M4256.655,984.771V971.788c12.441-3.394,28.765-3.333,45.709,9.32C4302.365,981.108,4277.9,981.077,4256.655,984.771Z" transform="translate(-4240.864 -910.659)"/></g><g transform="translate(2098.048 161.416)"><path class="c" d="M2618.968,1177.941l-.047-6.4-5.178,4.377-1.113-2.566-130.044-75.081a7.606,7.606,0,0,0-6.487.254l-56.339,32.325v-.9l-8.556,4.158-.028-1.148.222,5.8c.132.861.713.89,1.244,1.2l133.844,77.478a6.827,6.827,0,0,0,6.138-.151l64.847-37.387a2.486,2.486,0,0,0,1.494-1.974Z" transform="translate(-2411.176 -988.574)"/><path class="d" d="M2547.558,1176.685l-135.326-78.13c-1.566-.9-1.368-2.5.441-3.543l64.846-37.439a6.847,6.847,0,0,1,6.136-.254l135.325,78.13c1.566.9,1.368,2.5-.44,3.543l-64.846,37.439A6.845,6.845,0,0,1,2547.558,1176.685Z" transform="translate(-2411.176 -952.395)"/><g transform="translate(70.5 12.218)"><path class="e" d="M3167.107,343.51a5.679,5.679,0,0,1,2.705,5.349l-14.044,86.8c-.308,1.915-2.021,2.62-3.825,1.578l-132.934-76.749a5.678,5.678,0,0,1-2.705-5.349l14.042-86.8c.31-1.914,2.022-2.62,3.825-1.578Z" transform="translate(-3016.255 -266.278)"/></g><path class="d" d="M4223.728,814.569c0-.049,0-.1-.007-.148a.148.148,0,0,0,0-.021.144.144,0,0,0,0-.02c0-.035,0-.069-.007-.1s-.01-.1-.017-.145c0-.023-.007-.046-.01-.069s0-.02,0-.03,0-.031-.007-.047c-.008-.049-.017-.1-.025-.146s-.018-.092-.028-.138v-.009c-.01-.049-.021-.1-.034-.147s-.024-.1-.038-.145c0-.013-.007-.026-.011-.038l-.008-.028c-.007-.026-.015-.052-.023-.078-.014-.046-.028-.092-.044-.138s-.024-.07-.036-.1c0,0,0-.01-.006-.015s0-.01-.005-.016c-.016-.044-.032-.087-.049-.131s-.033-.084-.051-.125c-.007-.018-.015-.035-.022-.053l-.01-.023c-.007-.016-.014-.033-.021-.049-.02-.043-.039-.086-.06-.129s-.04-.086-.062-.128l-.006-.012-.011-.019c-.022-.045-.045-.09-.069-.134s-.046-.082-.069-.123l-.046-.082-.022-.039c-.039-.066-.082-.131-.123-.2l-.041-.064a.055.055,0,0,0-.007-.01c-.054-.081-.11-.162-.168-.24l-.025-.033-.022-.03-.062-.08q-.052-.066-.105-.13l-.041-.048-.022-.025-.039-.046c-.036-.04-.07-.079-.106-.118l-.083-.087-.015-.016-.013-.014c-.039-.039-.078-.078-.118-.116s-.082-.078-.124-.116l0,0,0,0c-.04-.036-.081-.072-.122-.107s-.087-.072-.131-.107l-.016-.013-.02-.014-.1-.074c-.045-.032-.089-.064-.134-.095l-.038-.025-.011-.009,0,0-.079-.052c-.045-.028-.09-.056-.135-.083l-3.219-1.859-3.951,2.386s3.392,1.775,3.437,1.8.089.058.133.088.09.062.133.095.088.066.131.1l.054.044c.07.056.139.114.205.174h0c.067.061.134.125.2.189l.025.024c.062.062.122.126.182.192l.027.03q.086.1.168.2l.029.036c.054.067.106.136.158.206.027.036.052.073.078.11s.062.088.092.134.067.106.1.16c.022.035.044.069.065.1s.035.062.052.094c.032.055.064.11.093.166l.023.045c.041.077.08.155.116.234,0,.007.006.013.009.02q.058.124.109.25l.011.026c.033.082.064.165.093.248,0,.011.008.021.012.032.028.082.054.164.079.246,0,.013.007.025.011.037q.035.123.065.246c0,.013.005.025.008.038.02.082.036.165.051.247,0,.012,0,.024.006.036q.021.124.037.249c0,.011,0,.022,0,.033q.014.125.022.25,0,.062.006.125c0,.049,0,.1,0,.147s0,.1,0,.154,0,.1-.01.153-.01.11-.017.164-.011.085-.019.127c0,0-.013.084-.036.228l-.348,2.149-.635-.365-4,2.168s.957.555,1,.584.089.058.133.088.09.062.133.095.088.066.131.1l.055.044c.069.056.138.114.2.174h0c.067.061.133.125.2.189l.024.024c.063.062.122.126.181.192l.028.03c.057.065.113.131.168.2l.029.036q.081.1.158.206c.027.036.052.073.077.11s.063.089.092.134.068.106.1.16c.021.035.044.069.064.1s.035.062.053.094c.032.055.063.11.093.166.008.015.016.03.023.045.04.077.08.155.116.234,0,.007.006.013.008.02q.059.124.11.25c0,.009.006.017.01.026q.05.123.093.248c0,.011.008.021.011.032q.042.122.079.246c0,.012.007.025.011.037q.035.122.065.246l.009.038q.028.124.051.247,0,.018.006.036c.014.083.027.166.037.249,0,.011,0,.022,0,.033,0,.035.006.069.009.1l-12.423,76.783c-.066.407-1.643,3.009-1.286,2.8l1.122-.952-1.32,8.16c-.066.407-1.643,3.009-1.286,2.8l3.785-3.209a4.406,4.406,0,0,0,1.5-2.659l13.583-83.945.164-1.018c.008-.042.014-.084.019-.127s.008-.072.012-.108c0,0,0,0,0-.006a.075.075,0,0,1,0-.015c0-.012,0-.024,0-.036,0-.051.008-.1.009-.153s0-.081,0-.122v-.031c0-.049,0-.1,0-.147s0-.1-.007-.148a.15.15,0,0,0,0-.021c0-.007,0-.014,0-.02,0-.029,0-.059-.007-.088l1.29-7.971c.065-.406.165-1.018.165-1.018.006-.042.013-.084.019-.127s.007-.072.011-.108c0,0,0,0,0-.006a.075.075,0,0,1,0-.015c0-.012,0-.024,0-.036,0-.051.007-.1.009-.153s0-.081,0-.122v-.018a.126.126,0,0,0,0-.013C4223.73,814.667,4223.729,814.618,4223.728,814.569Z" transform="translate(-3994.328 -732.774)"/><g transform="translate(87.166)"><path class="d" d="M3298.092,238.226l-131.757-76.07h0l-.009-.005-.2-.113h0l-.348-.2c-.045-.024-.091-.048-.136-.07l-.138-.065-.138-.058c-.048-.019-.1-.037-.144-.054s-.1-.033-.143-.047-.1-.029-.153-.042l-.009,0h0l-.014,0c-.044-.01-.088-.021-.132-.029l-.066-.011-.055-.009-.042-.007c-.054-.007-.107-.012-.161-.016h-.015c-.064,0-.126-.006-.188-.006h-.021c-.029,0-.057,0-.084,0s-.067,0-.1,0l-.028,0c-.046,0-.09.012-.135.019-.024,0-.049.006-.073.01l-.016,0a2.133,2.133,0,0,0-.26.071l-.018.005c-.009,0-.018.009-.027.012a2.03,2.03,0,0,0-.316.146l-3.869,2.248a2.025,2.025,0,0,1,.31-.143c.041-.015.083-.028.126-.041s.1-.03.154-.042.125-.025.188-.033c.024,0,.047-.008.072-.01a2.438,2.438,0,0,1,.271-.012l.052,0a2.641,2.641,0,0,1,.283.023l.021,0a3.034,3.034,0,0,1,.308.062l.025.007q.152.041.308.1l.031.011c.109.042.219.089.33.144.045.022.09.046.135.07l.1.059.729.421h0l131.962,76.188a.488.488,0,0,0,.489,0l2.9-1.683A.488.488,0,0,0,3298.092,238.226Zm-133.059-75.834Z" transform="translate(-3159.299 -161.416)"/></g><path class="c" d="M3174.008,256.7l-132.936-76.751c-1.8-1.042-3.516-.335-3.826,1.578l-14.042,86.8a3.966,3.966,0,0,0-.042.8l-.709,4.382a5.678,5.678,0,0,0,2.705,5.349l132.934,76.749c1.8,1.042,3.518.336,3.826-1.578l14.044-86.8a3.987,3.987,0,0,0,.042-.8l.709-4.382A5.677,5.677,0,0,0,3174.008,256.7Z" transform="translate(-2951.189 -177.368)"/><path class="f" d="M3199.75,320.79l-126.089-71.429c-1.711-.969-3.324-.454-3.6,1.151l-12.7,72.819a3.129,3.129,0,0,0,0,.982l-1.312,7.523a5,5,0,0,0,2.591,4.661l126.088,71.428c1.711.969,3.326.455,3.6-1.151l12.7-72.818a3.148,3.148,0,0,0,0-.983l1.312-7.523A5,5,0,0,0,3199.75,320.79Z" transform="translate(-2980.868 -238.682)"/><line class="g" x2="136.412" y2="78.731" transform="translate(69.863 104.09)"/></g><g transform="translate(2139.196 283.591)"><g transform="translate(29.479)"><path class="h" d="M3026.3,1218.176a.989.989,0,0,1-.852-.1l-7.829-4.518c-.283-.163-.36-.384-.172-.492l5.187-3a.984.984,0,0,1,.852.1l7.83,4.518c.282.163.36.383.171.491Z" transform="translate(-3017.34 -1210.011)"/></g><g transform="translate(38.562 13.492)"><path class="h" d="M3104.254,1333.974a.981.981,0,0,1-.854-.1l-7.829-4.518c-.282-.163-.357-.382-.168-.491l5.188-3a.982.982,0,0,1,.846.1l7.829,4.518c.286.165.36.385.176.491Z" transform="translate(-3095.299 -1325.811)"/></g><g transform="translate(33.971 19.092)"><path class="h" d="M3064.847,1382.041a.983.983,0,0,1-.849-.1l-7.831-4.519c-.278-.16-.362-.382-.173-.49l5.189-3a1,1,0,0,1,.848.1l7.831,4.519c.281.162.358.383.175.49Z" transform="translate(-3055.892 -1373.876)"/></g><g transform="translate(21.552 20.175)"><path class="h" d="M2958.257,1391.329a.986.986,0,0,1-.848-.1l-7.83-4.518c-.279-.161-.356-.383-.171-.49l5.188-3a.989.989,0,0,1,.85.1l7.831,4.519c.28.161.355.383.169.49Z" transform="translate(-2949.307 -1383.166)"/></g><g transform="translate(0 16.509)"><path class="h" d="M2773.288,1360.386a.986.986,0,0,1-.851-.1l-7.829-4.519c-.283-.163-.36-.383-.174-.491l6.092-3.519a.994.994,0,0,1,.851.1l7.829,4.518c.282.163.356.385.173.491Z" transform="translate(-2764.332 -1351.701)"/></g><g transform="translate(10.775 22.726)"><path class="h" d="M2868.491,1415.318a1.267,1.267,0,0,1-1.011-.192l-10.258-5.92c-.368-.212-.519-.474-.331-.582l6.091-3.519a1.279,1.279,0,0,1,1.008.191l10.258,5.92c.372.215.517.478.333.583Z" transform="translate(-2856.81 -1405.06)"/></g><g transform="translate(80.921 65.479)"><path class="h" d="M3467.778,1778.455a.967.967,0,0,1-.793-.132l-7.824-4.515c-.285-.165-.391-.372-.235-.462l2.252-1.3a.979.979,0,0,1,.8.136l7.824,4.515c.282.163.384.369.229.458Z" transform="translate(-3458.853 -1772.004)"/></g><g transform="translate(91.382 71.673)"><path class="h" d="M3557.563,1831.614a.968.968,0,0,1-.794-.132l-7.824-4.515c-.285-.165-.391-.372-.236-.461l2.252-1.3a.981.981,0,0,1,.8.136l7.823,4.515c.282.163.384.369.23.458Z" transform="translate(-3548.638 -1825.163)"/></g><g transform="translate(102.476 77.978)"><path class="h" d="M3652.779,1885.68a.968.968,0,0,1-.785-.139l-7.826-4.516c-.281-.162-.393-.367-.243-.454l2.169-1.253a.982.982,0,0,1,.787.14l7.826,4.516c.282.163.389.367.241.453Z" transform="translate(-3643.858 -1879.279)"/></g><g transform="translate(95.655 69.335)"><path class="h" d="M3594.237,1811.5a.971.971,0,0,1-.785-.139l-7.826-4.517c-.281-.162-.394-.368-.244-.454l2.169-1.253a.984.984,0,0,1,.787.14l7.826,4.516c.282.163.39.367.241.453Z" transform="translate(-3585.315 -1805.097)"/></g><g transform="translate(24.234 30.489)"><path class="h" d="M3024.406,1505.259a.994.994,0,0,1-.855-.1l-50.949-29.4c-.278-.16-.361-.384-.174-.492l6.092-3.519a1,1,0,0,1,.851.1l50.95,29.4c.283.163.36.388.177.493Z" transform="translate(-2972.327 -1471.688)"/></g><g transform="translate(14.948 27.298)"><path class="h" d="M2898.74,1448.046a.124.124,0,0,1-.082-.023l-5.985-3.454c-.033-.019-.051-.04-.04-.047l.379-.219a.122.122,0,0,1,.081.022l5.985,3.454c.033.019.051.041.04.047Z" transform="translate(-2892.631 -1444.301)"/></g><g transform="translate(3.113 19.807)"><path class="h" d="M2793.647,1381.726a.053.053,0,0,1-.047,0l-2.541-1.466c-.014-.008-.016-.02,0-.027l.379-.219a.052.052,0,0,1,.046,0l2.541,1.467c.014.008.016.02,0,.027Z" transform="translate(-2791.047 -1380.007)"/></g><g transform="translate(32.281 26.361)"><path class="h" d="M3050.347,1444.428a.989.989,0,0,1-.852-.1l-7.829-4.518c-.278-.16-.359-.385-.174-.491l5.188-3a1,1,0,0,1,.853.1l7.829,4.518c.284.164.359.385.173.492Z" transform="translate(-3041.392 -1436.263)"/></g><g transform="translate(43.064 32.584)"><path class="h" d="M3142.887,1497.833a.99.99,0,0,1-.848-.1l-7.828-4.518c-.281-.162-.36-.385-.175-.492l5.188-3a1,1,0,0,1,.854.1l7.829,4.518c.278.16.355.383.169.49Z" transform="translate(-3133.936 -1489.669)"/></g><g transform="translate(53.846 38.806)"><path class="h" d="M3235.427,1551.235a.986.986,0,0,1-.848-.1l-7.83-4.519c-.28-.161-.356-.382-.171-.489l5.188-3a.989.989,0,0,1,.85.1l7.83,4.519c.28.161.355.383.169.49Z" transform="translate(-3226.478 -1543.073)"/></g><g transform="translate(64.623 45.025)"><path class="h" d="M3327.931,1604.618a.986.986,0,0,1-.848-.1l-7.83-4.519c-.284-.163-.36-.384-.175-.492l5.188-3a.991.991,0,0,1,.853.1l7.831,4.519c.281.162.356.383.17.491Z" transform="translate(-3318.977 -1596.453)"/></g><g transform="translate(75.406 51.248)"><path class="h" d="M3420.473,1658.022a1,1,0,0,1-.854-.1l-7.827-4.517c-.279-.161-.356-.382-.171-.489l5.188-3a.988.988,0,0,1,.849.1l7.827,4.517c.283.164.362.387.176.494Z" transform="translate(-3411.52 -1649.858)"/></g><g transform="translate(86.188 57.465)"><path class="h" d="M3513.015,1711.383a.992.992,0,0,1-.851-.1l-7.828-4.517c-.282-.163-.36-.385-.174-.492l5.188-3a.993.993,0,0,1,.853.1l7.828,4.517c.281.162.357.384.171.492Z" transform="translate(-3504.062 -1703.219)"/></g><g transform="translate(96.969 63.686)"><path class="h" d="M3619.043,1772.57a.99.99,0,0,1-.85-.1l-21.331-12.31c-.282-.163-.358-.384-.173-.491l5.188-3a.99.99,0,0,1,.852.1l21.331,12.31c.282.163.357.384.171.492Z" transform="translate(-3596.588 -1756.614)"/></g><g transform="translate(44.698 24.672)"><path class="h" d="M3156.911,1429.927a.969.969,0,0,1-.845-.1l-7.831-4.519c-.282-.162-.36-.381-.172-.489l5.189-3a.986.986,0,0,1,.847.1l7.831,4.519c.283.163.355.382.171.488Z" transform="translate(-3147.96 -1421.765)"/></g><g transform="translate(55.484 31.503)"><path class="h" d="M3249.493,1488.552a.982.982,0,0,1-.848-.1l-7.833-4.52c-.278-.161-.357-.379-.17-.488l5.189-3a.984.984,0,0,1,.844.1l7.833,4.52c.279.161.357.383.173.489Z" transform="translate(-3240.54 -1480.389)"/></g><g transform="translate(66.264 37.723)"><path class="h" d="M3342.011,1541.943a.986.986,0,0,1-.849-.1l-7.829-4.518c-.277-.16-.363-.383-.176-.491l5.189-3a1,1,0,0,1,.85.1l7.829,4.518c.28.161.359.384.175.49Z" transform="translate(-3333.057 -1533.779)"/></g><g transform="translate(77.045 43.945)"><path class="h" d="M3434.543,1595.342a.981.981,0,0,1-.848-.1l-7.828-4.517c-.282-.163-.362-.382-.174-.491l5.189-3a.989.989,0,0,1,.848.1l7.828,4.517c.281.162.357.383.174.489Z" transform="translate(-3425.591 -1587.179)"/></g><g transform="translate(87.828 50.162)"><path class="h" d="M3527.088,1648.7a.982.982,0,0,1-.848-.1l-7.832-4.52c-.282-.163-.36-.38-.172-.489l5.189-3a.984.984,0,0,1,.846.1l7.833,4.52c.279.161.357.383.173.489Z" transform="translate(-3518.133 -1640.539)"/></g><g transform="translate(98.608 56.383)"><path class="h" d="M3619.61,1702.1a.977.977,0,0,1-.847-.1l-7.827-4.516c-.285-.164-.364-.383-.177-.492l5.19-3a.992.992,0,0,1,.851.1l7.826,4.517c.281.162.356.382.172.488Z" transform="translate(-3610.658 -1693.934)"/></g><g transform="translate(109.389 62.605)"><path class="h" d="M3712.141,1755.5a.979.979,0,0,1-.847-.1l-7.833-4.52c-.279-.161-.357-.379-.169-.488l5.189-3a.984.984,0,0,1,.844.1l7.832,4.52c.28.161.356.382.173.489Z" transform="translate(-3703.19 -1747.333)"/></g><g transform="translate(49.295 19.681)"><path class="h" d="M3196.375,1387.092a.985.985,0,0,1-.853-.1l-7.83-4.518c-.279-.161-.356-.381-.167-.49l5.189-3a.985.985,0,0,1,.844.1l7.83,4.519c.283.163.359.384.175.49Z" transform="translate(-3187.422 -1378.931)"/></g><g transform="translate(60.073 25.901)"><path class="h" d="M3288.879,1440.474a.982.982,0,0,1-.85-.1l-7.83-4.518c-.281-.162-.36-.383-.17-.492l5.189-3a.99.99,0,0,1,.849.1l7.83,4.518c.278.161.355.382.171.488Z" transform="translate(-3279.926 -1432.312)"/></g><g transform="translate(70.855 32.123)"><path class="h" d="M3381.415,1493.875a.986.986,0,0,1-.854-.1l-7.828-4.518c-.28-.161-.356-.381-.167-.491l5.188-3a.986.986,0,0,1,.846.1l7.828,4.518c.284.164.36.384.176.491Z" transform="translate(-3372.461 -1485.713)"/></g><g transform="translate(81.633 38.343)"><path class="h" d="M3473.921,1547.259a.977.977,0,0,1-.85-.1l-7.83-4.519c-.282-.163-.359-.383-.17-.492l5.189-3a.988.988,0,0,1,.849.1l7.83,4.518c.283.163.356.382.172.488Z" transform="translate(-3464.967 -1539.096)"/></g><g transform="translate(92.419 44.562)"><path class="h" d="M3566.492,1600.636a.981.981,0,0,1-.848-.1l-7.83-4.519c-.283-.163-.358-.382-.169-.492l5.188-3a.985.985,0,0,1,.848.1l7.83,4.519c.277.16.354.381.169.487Z" transform="translate(-3557.54 -1592.475)"/></g><g transform="translate(103.199 50.783)"><path class="h" d="M3659.013,1654.029a.987.987,0,0,1-.855-.1l-7.829-4.518c-.277-.16-.357-.382-.168-.491l5.188-3a.989.989,0,0,1,.846.1l7.829,4.518c.284.164.361.385.177.491Z" transform="translate(-3650.058 -1645.866)"/></g><g transform="translate(113.978 57.004)"><path class="h" d="M3751.533,1707.421a.983.983,0,0,1-.851-.1l-7.83-4.519c-.282-.163-.358-.382-.169-.492l5.188-3a.985.985,0,0,1,.847.1l7.831,4.519c.279.161.356.382.172.489Z" transform="translate(-3742.58 -1699.258)"/></g><g transform="translate(22.334 4.127)"><path class="h" d="M2970.42,1256.741a.985.985,0,0,1-.854-.1l-13.275-7.661c-.283-.163-.36-.383-.171-.493l5.189-3a.989.989,0,0,1,.849.1l13.275,7.661c.283.163.359.384.175.49Z" transform="translate(-2956.017 -1245.434)"/></g><g transform="translate(126.457 55.955)"><path class="h" d="M3864.081,1701.561a.986.986,0,0,1-.852-.1l-13.276-7.661c-.277-.16-.358-.382-.17-.491l5.187-3a.991.991,0,0,1,.851.1l13.275,7.661c.282.163.36.383.172.491Z" transform="translate(-3849.681 -1690.255)"/></g><g transform="translate(15.19 8.255)"><path class="h" d="M2911.658,1293.637a.975.975,0,0,1-.849-.1l-15.826-9.133c-.282-.163-.363-.382-.175-.491l5.19-3a.989.989,0,0,1,.849.1l15.826,9.133c.285.164.359.383.175.49Z" transform="translate(-2894.707 -1280.858)"/></g><g transform="translate(8.047 12.381)"><path class="h" d="M2845.074,1326.013a.991.991,0,0,1-.851-.1l-10.552-6.09c-.282-.163-.359-.384-.173-.491l5.188-3a.991.991,0,0,1,.853.1l10.552,6.089c.282.163.358.385.172.492Z" transform="translate(-2833.396 -1316.276)"/></g><g transform="translate(40.261 6.222)"><path class="h" d="M3118.832,1271.578a.985.985,0,0,1-.853-.1l-7.824-4.515c-.282-.163-.36-.384-.173-.492l5.187-3a.986.986,0,0,1,.852.1l7.824,4.515c.285.165.361.384.174.493Z" transform="translate(-3109.88 -1263.415)"/></g><g transform="translate(50.99 12.409)"><path class="h" d="M3210.923,1324.678a.99.99,0,0,1-.853-.1l-7.829-4.518c-.28-.162-.359-.383-.172-.492l5.187-3a.988.988,0,0,1,.852.1l7.83,4.518c.282.163.361.383.173.492Z" transform="translate(-3201.967 -1316.513)"/></g><g transform="translate(61.772 18.631)"><path class="h" d="M3303.452,1378.075a.978.978,0,0,1-.848-.1l-7.83-4.518c-.279-.162-.357-.382-.169-.49l5.187-3a.983.983,0,0,1,.849.1l7.83,4.518c.283.163.357.381.169.49Z" transform="translate(-3294.502 -1369.913)"/></g><g transform="translate(72.554 24.853)"><path class="h" d="M3396,1431.482a.988.988,0,0,1-.852-.1l-7.825-4.515c-.284-.164-.36-.384-.173-.492l5.186-3a.987.987,0,0,1,.853.1l7.824,4.516c.282.162.361.383.173.492Z" transform="translate(-3387.046 -1423.319)"/></g><g transform="translate(83.332 31.073)"><path class="h" d="M3488.5,1484.864a.975.975,0,0,1-.848-.1l-7.828-4.517c-.284-.164-.36-.384-.173-.492l5.187-3a.986.986,0,0,1,.853.1l7.828,4.517c.284.164.356.381.168.489Z" transform="translate(-3479.549 -1476.702)"/></g><g transform="translate(94.117 37.292)"><path class="h" d="M3581.066,1538.239a.987.987,0,0,1-.849-.1l-7.833-4.52c-.279-.161-.355-.381-.168-.49l5.187-3a.98.98,0,0,1,.848.1l7.833,4.52c.278.161.357.381.169.49Z" transform="translate(-3572.114 -1530.075)"/></g><g transform="translate(104.894 43.511)"><path class="h" d="M3673.567,1591.619a.987.987,0,0,1-.852-.1l-7.829-4.518c-.283-.163-.362-.385-.174-.493l5.187-3a.99.99,0,0,1,.854.1l7.829,4.518c.282.163.36.383.172.491Z" transform="translate(-3664.61 -1583.453)"/></g><g transform="translate(115.676 49.733)"><path class="h" d="M3766.1,1645.02a.978.978,0,0,1-.847-.1l-7.835-4.521c-.278-.161-.354-.381-.167-.489l5.187-3a.98.98,0,0,1,.847.1l7.835,4.521c.28.161.355.38.167.489Z" transform="translate(-3757.151 -1636.857)"/></g><g transform="translate(120.169 63.224)"><path class="h" d="M3806.438,1752.807a1.2,1.2,0,0,0-.459-.15.634.634,0,0,0-.385.052l-5.188,3a.178.178,0,0,0-.094.225.572.572,0,0,0,.259.265l2.044,1.18-6.8,3.93a.176.176,0,0,0-.089.226.562.562,0,0,0,.262.265l5.275,3.044a1.223,1.223,0,0,0,.461.153.638.638,0,0,0,.39-.051l12.334-7.125a.172.172,0,0,0,.086-.225.553.553,0,0,0-.264-.267Z" transform="translate(-3795.71 -1752.649)"/></g><g transform="translate(12.213 15.845)"><path class="h" d="M2875.26,1349.752c-.012.007-.048,0-.082-.023l-5.985-3.454c-.032-.019-.051-.04-.039-.047l.379-.219a.123.123,0,0,1,.081.023l5.985,3.454c.033.019.051.041.04.047Z" transform="translate(-2869.151 -1346.008)"/></g></g><path class="h" d="M2973.347,1629.138l-28.273-15.861c-.328-.184-.321-.492.014-.685l12.015-6.917a1.355,1.355,0,0,1,1.2-.017l28.274,15.861c.327.184.321.492-.014.685l-12.015,6.917A1.356,1.356,0,0,1,2973.347,1629.138Z" transform="translate(-784.606 -1275.852)"/><g transform="translate(2186.656 225.674)"><path class="i" d="M3171.669,712.925Z" transform="translate(-3171.669 -712.925)"/></g><g transform="translate(2173.091 182.27)"><path class="j" d="M3074.641,375.27l-10.543-5.8c-6.271-3.451-10.09-12.51-8.489-20.132h0c1.6-7.622,8.042-11.034,14.313-7.584l10.542,5.8c6.27,3.451,10.091,12.51,8.49,20.132h0C3087.353,375.308,3080.912,378.721,3074.641,375.27Z" transform="translate(-3055.244 -340.406)"/><path class="j" d="M3227.625,642.883l5.142,7.494.437-6.632Z" transform="translate(-3207.54 -607.64)"/><ellipse class="k" cx="1.901" cy="2.599" rx="1.901" ry="2.599" transform="translate(8.251 12.124) rotate(-16.931)"/><ellipse class="k" cx="1.901" cy="2.599" rx="1.901" ry="2.599" transform="translate(14.58 15.608) rotate(-16.931)"/><ellipse class="k" cx="1.901" cy="2.599" rx="1.901" ry="2.599" transform="matrix(0.957, -0.291, 0.291, 0.957, 20.91, 19.091)"/></g><g transform="translate(2182.813 285.998)"><path class="a" d="M3218.253,1287.717l-43.345-25.785-3.294,13.847h0l-.012.051-3.044,12.8h0l-.064.271-1.406,5.911Zm-15.7-1.99-27,3.744,4.127-17.351Z" transform="translate(-3163.778 -1258.29)"/><g transform="translate(0.241 2.906)"><path class="l" d="M3191.923,1281.4l-43.346-25.785-1.066,4.482-.057.241h0l-.753,3.165-.011.048h0l-1.406,5.912h0l-.024.1-1.577,6.63-.05.209h0l-.76,3.2,0,.016h0l-1.406,5.912h0l-.015.061-.691,2.908Zm-15.7-1.99-27,3.744,4.127-17.35Z" transform="translate(-3140.757 -1255.619)"/></g><g transform="translate(0)"><path class="m" d="M3138.688,1263.554l7.821-32.88,43.346,25.784Zm12.595-22.692-4.127,17.35,27-3.744Z" transform="translate(-3138.688 -1230.674)"/><g transform="translate(6.697 3.82)"><path class="k" d="M3196.169,1264.362l.122-.513,2.809-.39-.122.513Z" transform="translate(-3196.169 -1263.459)"/></g><g transform="translate(5.933 7.032)"><path class="k" d="M3189.61,1291.935l.122-.513,2.809-.39-.122.513Z" transform="translate(-3189.61 -1291.032)"/></g><g transform="translate(5.169 10.245)"><path class="k" d="M3183.052,1319.508l.122-.513,2.809-.389-.122.513Z" transform="translate(-3183.052 -1318.606)"/></g><g transform="translate(4.405 13.458)"><path class="k" d="M3176.494,1347.081l.122-.513,2.809-.39-.122.513Z" transform="translate(-3176.494 -1346.179)"/></g><g transform="translate(3.641 16.67)"><path class="k" d="M3169.935,1374.655l.122-.513,2.809-.39-.122.513Z" transform="translate(-3169.935 -1373.752)"/></g><g transform="translate(2.877 19.883)"><path class="k" d="M3163.376,1402.228l.122-.513,2.809-.39-.122.513Z" transform="translate(-3163.376 -1401.325)"/></g><g transform="translate(2.112 23.096)"><path class="k" d="M3156.818,1429.8l.122-.513,2.809-.39-.122.513Z" transform="translate(-3156.818 -1428.898)"/></g><g transform="translate(1.348 26.308)"><path class="k" d="M3150.26,1457.374l.122-.513,2.809-.39-.122.513Z" transform="translate(-3150.26 -1456.471)"/></g><g transform="translate(0.584 29.521)"><path class="k" d="M3143.7,1484.948l.122-.513,2.809-.389-.122.513Z" transform="translate(-3143.702 -1484.045)"/></g></g><path class="l" d="M3138.689,1459.07l.241,2.906,51.166-7.1-.241-2.906Z" transform="translate(-3138.689 -1426.19)"/></g><g transform="translate(2189.179 192.845)"><path class="n" d="M3298.5,482.724l.768-3.9a5.067,5.067,0,0,0-2.031-5.072l-72.106-41.926a3.783,3.783,0,0,0-4-.151l0,0L3215.658,435l3.517,5.016-8.977,45.608s-8.768,7.324-10.3,7.99l-2.71,1.181-3.062-1.547-.775,3.846.006,0a.973.973,0,0,0,.59,1.12l45.618,26.525a2.621,2.621,0,0,0,.348.164l7.053,4.1a3.387,3.387,0,0,0,1.109.371l15.317,8.906a2.563,2.563,0,0,0,.349.164l7.052,4.1a6.054,6.054,0,0,0,4.758-.063l5.145-2.241c.124-.054.237-.111.346-.17h0l5.753-2.736,0,0a2.79,2.79,0,0,0,1.356-2.036l.768-3.9h0l8.812-44.776.768-3.9Z" transform="translate(-3193.326 -431.161)"/><path class="o" d="M3352.482,560.363l-65.249-38.888a5.067,5.067,0,0,1-2.031-5.072l10.348-52.577c.377-1.92,1.91-2.78,3.405-1.911l73.286,42.613a5.065,5.065,0,0,1,2.031,5.072l-10.348,52.577C3363.547,564.1,3353.977,561.233,3352.482,560.363Z" transform="translate(-3274.423 -458.032)"/><path class="p" d="M3391.625,613.939l-65.274-37.954a4.512,4.512,0,0,1-1.809-4.518l9.216-46.829c.337-1.71,1.7-2.476,3.033-1.7l65.274,37.954a4.513,4.513,0,0,1,1.809,4.518l-9.217,46.829C3394.321,613.947,3392.957,614.713,3391.625,613.939Z" transform="translate(-3309.187 -511.976)"/><path class="q" d="M3288.243,972.757l-45.618-26.525c-.056-.033-.117-.063-.179-.092l-23.52-13.676a2.583,2.583,0,0,0-.349-.164l-7.052-4.1a6.055,6.055,0,0,0-4.759.063l-5.145,2.241c-1.53.667-1.892,1.729-.805,2.361l45.618,26.525a1.963,1.963,0,0,0,.18.092l23.52,13.676a2.572,2.572,0,0,0,.348.164l7.052,4.1a6.055,6.055,0,0,0,4.758-.063l5.379-2.351C3289.2,974.341,3289.331,973.389,3288.243,972.757Z" transform="translate(-3199.39 -869.886)"/><g transform="translate(9.252 61.236)"><path class="r" d="M3279.855,978.125l-6.49-3.774a1.165,1.165,0,0,1-.576-1.432c.061-.285.355-1.463.355-1.463l1.017.561a5.987,5.987,0,0,1,4.7-.062l7.454,2.952c-.144.764-.266,1.511-.372,1.911a2.24,2.24,0,0,1-1.388,1.245h0A5.985,5.985,0,0,1,3279.855,978.125Z" transform="translate(-3272.738 -969.74)"/><path class="s" d="M3282.888,963.351l-6.49-3.774c-1.075-.625-.716-1.675.8-2.335h0a5.986,5.986,0,0,1,4.7-.062l6.49,3.774c1.075.625.716,1.675-.8,2.335h0A5.986,5.986,0,0,1,3282.888,963.351Z" transform="translate(-3275.424 -956.73)"/></g><g transform="translate(23.806 70.015)"><path class="k" d="M3400.764,1035.826l-2.564-1.413a1.077,1.077,0,0,1-.235-1.708h0a1.729,1.729,0,0,1,2.05-.45l2.565,1.412a1.077,1.077,0,0,1,.235,1.709h0A1.73,1.73,0,0,1,3400.764,1035.826Z" transform="translate(-3397.65 -1032.086)"/></g></g><g transform="translate(2278.621 265.477)"><ellipse class="a" cx="8.904" cy="17.924" rx="8.904" ry="17.924" transform="translate(11.142 118.368) rotate(-87.711)"/><path class="t" d="M4089.374,1957.042l1.388-.533,5.679-4.562a7.408,7.408,0,0,1,3.989.238,1.315,1.315,0,0,1,.85,1.357l-.106,1.287c-.092,1.864-.29,2.1-1.47,2.535l-7.005,2.6a4.025,4.025,0,0,1-3.687-.56l-.24-.212C4087.923,1958.448,4088.195,1957.48,4089.374,1957.042Z" transform="translate(-4073.446 -1847.228)"/><path class="u" d="M4135.958,1493.643c-.153,1.859-3.625.894-4.632-.587-.953-17.91-3.286-33.867-3.256-52.571l11.5-8.349c-2.167,21.139-1.192,40.883-3.133,55.435C4136.3,1488.578,4136.053,1491.219,4135.958,1493.643Z" transform="translate(-4108.601 -1388.142)"/><path class="v" d="M4060.75,1193.71s1.239-1.926,4.716-12.662c3.4-10.507,9.112-11.091,11.028-9.39s-5.764,10.7-5.764,10.7-1.739,11.177-6.381,13.754C4059.888,1198.588,4060.75,1193.71,4060.75,1193.71Z" transform="translate(-4049.066 -1157.369)"/><path class="t" d="M4242.508,1966.826l2-.95,2.662-6.718a7.976,7.976,0,0,1,3.841-1.5,1.258,1.258,0,0,1,1.325.866l.4,1.214c.636,1.731.541,2.028-.4,2.934l-1.941,2.6-2.277,3.056c-.939.906-3.954,1.11-5.039.8l-.308-.088C4241.689,1968.728,4241.568,1967.732,4242.508,1966.826Z" transform="translate(-4209.147 -1852.425)"/><path class="w" d="M4212.172,1695.543c.317,1.689-3.015,2.743-3.938,1.142-3.452-7.906-15.868-30.591-8.83-30.54,10.825.078,9.943-11.666,8.924-.983A64.764,64.764,0,0,0,4212.172,1695.543Z" transform="translate(-4169.749 -1590.05)"/><path class="t" d="M4143,1482.867a27.588,27.588,0,0,1-.034,10.994,28.781,28.781,0,0,0-.375,7.636l.9,10.189c.667,4.04.337,4.686-.1,6.287,0,0-6.323,9.73-21.078-3.535l-.051-31.45Z" transform="translate(-4103.471 -1432.962)"/><path class="v" d="M4122.759,1207.226c-.22-6.836.543-14.662.278-23.1.879-10.044,1.121-12.812,8.971-12.878l2.042.738a14.379,14.379,0,0,1,2.784,1.363c9.35,5.9,11.271,7.163,10.33,12.971-.25,3.017-1.7-.328-2.311,1.612-1.171,3.723-2,13.217-.952,20.147a3.566,3.566,0,0,1-1.58,3.565C4137.137,1214.918,4124.325,1211.5,4122.759,1207.226Z" transform="translate(-4103.874 -1157.654)"/><path class="x" d="M4261.565,1314.479l4.831,13.552-6.784,3.471Z" transform="translate(-4224.817 -1284.193)"/><g transform="translate(21.268 22.963)"><path class="y" d="M4144.051,1252.321l.036-.019-.566,19.364a.233.233,0,0,0,.11.2l12.307,7.593c.151.094-.7-1.308.353-.19l.579-19.815a.233.233,0,0,0-.11-.2l-12.306-7.593a.222.222,0,0,0-.192-.016l-.005-.009-.446.24Z" transform="translate(-4143.521 -1251.63)"/><rect class="z" width="0.458" height="0.458" transform="translate(11.886 27.686) rotate(-28.326)"/></g><path class="y" d="M4153.552,1260.952l-12.306-7.593a.232.232,0,0,0-.353.19l-.579,19.815a.231.231,0,0,0,.109.2l12.307,7.593a.331.331,0,0,1,.353-.19l.579-19.815A.231.231,0,0,0,4153.552,1260.952Z" transform="translate(-4119.419 -1230.164)"/><path class="k" d="M4112.344,1265.755l.874-.471,2.5-1.347.875-.471,10.738,6.6-.874.471-2.5,1.347-.875.471Z" transform="translate(-4094.708 -1239.123)"/><g transform="translate(16.396 25.585)"><path class="y" d="M4114.946,1281.761l-12.306-7.593a.232.232,0,0,0-.353.19l-.579,19.815a.23.23,0,0,0,.11.2l12.306,7.593c0-.2.132-.417.353-.19l.579-19.815A.232.232,0,0,0,4114.946,1281.761Z" transform="translate(-4101.708 -1274.133)"/><rect class="y" width="0.45" height="0.506" transform="matrix(0.88, -0.474, 0.474, 0.88, 0.304, 0.242)"/><rect class="aa" width="0.338" height="0.506" transform="matrix(0.88, -0.474, 0.474, 0.88, 12.092, 27.567)"/></g><path class="ab" d="M4111.739,1283.49l-12.306-7.593a.231.231,0,0,0-.353.19l-.58,19.815a.233.233,0,0,0,.11.2l12.306,7.593a.232.232,0,0,0,.354-.19l.579-19.815A.233.233,0,0,0,4111.739,1283.49Z" transform="translate(-4082.478 -1250.076)"/><path class="ac" d="M4207.746,1321.625l1.887-1.017,1.487-.8,1.886-1.017-.609,19.7c-.005.2-.27.4-.449.491l-1.564.8-1.1.592-2.262,1.263Z" transform="translate(-4178.355 -1288.002)"/><path class="ab" d="M4228.11,1350.492l-.1,4.137c0,.019,0,.038,0,.057l-.111,4.555a1.459,1.459,0,0,0,.008.183v.059c0,.019,0,.039,0,.057l-.111,4.555c-.013.517.25.785.585.594l.476-.271a1.649,1.649,0,0,0,.631-1.285l.1-4.137c0-.019.005-.039.005-.057l.11-4.555a1.164,1.164,0,0,0-.008-.183l0-.058c0-.019,0-.039,0-.058l.111-4.555c.012-.517-.25-.784-.585-.594l-.477.27A1.651,1.651,0,0,0,4228.11,1350.492Z" transform="translate(-4196.698 -1314.582)"/><rect class="w" width="6.552" height="4.816" rx="2.408" transform="translate(23.099 49.943) rotate(-37.731)"/><path class="w" d="M2.408,0h0A2.408,2.408,0,0,1,4.816,2.408V4.145A2.408,2.408,0,0,1,2.408,6.553h0A2.408,2.408,0,0,1,0,4.145V2.408A2.408,2.408,0,0,1,2.408,0Z" transform="matrix(0.749, -0.662, 0.662, 0.749, 1.08, 22.698)"/><path class="w" d="M4194.007,1422.109s11.874.6,16.412-4.681l-2.819-3.589s-1.971,1.71-12.793,4.923Z" transform="translate(-4166.857 -1371.977)"/><path class="v" d="M4281.558,1257.255l1.13,16.811,1.787,1.721a3.133,3.133,0,0,0,5.161-1.317,12.276,12.276,0,0,0,.462-3.626,41.976,41.976,0,0,0-3.152-16.571Z" transform="translate(-4244.207 -1231.002)"/><path class="k" d="M4211.088,1185.049s-2,5.251-6.313,2.929-.8-6.127-.8-6.127S4209.123,1182.876,4211.088,1185.049Z" transform="translate(-4174.47 -1167.018)"/><path class="w" d="M4013.522,1278.43s-2.49-.842-6.459-12.605l2.772-2.418s5.905,6.977,6.585,12.737C4016.833,1279.631,4013.522,1278.43,4013.522,1278.43Z" transform="translate(-4001.693 -1239.072)"/><path class="ad" d="M3966.827,1110.384h0a.581.581,0,0,1-.7-.417L3961,1089.923a.581.581,0,0,1,.418-.7h0a.581.581,0,0,1,.7.417l5.124,20.044A.581.581,0,0,1,3966.827,1110.384Z" transform="translate(-3960.982 -1085.163)"/><path class="t" d="M4153.154,1077.722a4.749,4.749,0,0,0-.56,4.425c.128.254.293.489.445.729a9.293,9.293,0,0,1,.961,2.014.9.9,0,0,0,.169.342.644.644,0,0,0,.813.006,4.429,4.429,0,0,0,.615-.636c.612-.632,8.962,5.082,9.587,4.462.847-.839.955-10.274.922-11.466-.043-1.52-7.636-.993-8.644-2.133a7.021,7.021,0,0,1-.591-.668h0c-.241-.358-.392-1.047-.931-.928-.433.095-.708.79-.915,1.113C4154.429,1075.914,4153.718,1076.768,4153.154,1077.722Z" transform="translate(-4129.968 -1071.606)"/><path class="w" d="M4203.866,1144.74l-1.6-7.926,4.813,1.818,1.3,6.472C4208.673,1146.163,4205.112,1148.811,4203.866,1144.74Z" transform="translate(-4174.154 -1127.228)"/><path class="w" d="M4.366,0h5.4a4.366,4.366,0,0,1,4.366,4.366v0A4.366,4.366,0,0,1,9.771,8.732h-5.4A4.366,4.366,0,0,1,0,4.366v0A4.366,4.366,0,0,1,4.366,0Z" transform="translate(23.974 13.959) rotate(-80.905)"/><path class="t" d="M4181.853,1061.13c-1.146-2.155-4.368-.479-5.761-1.352-1.51-.948-.629-2.519.743-3.659a6.285,6.285,0,0,1,3.233-1.355c4.539-.775,8.432,1.838,7.661,6.65,0,0-2.287,3.849-4.349,1.982-.482-.436-.5-.451-.3-1.236S4182.238,1061.855,4181.853,1061.13Z" transform="translate(-4150.331 -1054.619)"/><path class="t" d="M4165.413,1081.733s.491-2.185,6.307-4.034.263-.086.263-.086L4167,1075.42S4164.483,1077.357,4165.413,1081.733Z" transform="translate(-4141.412 -1072.988)"/><path class="t" d="M4216.38,1089.994s3.992,5.862,3.407,9.524c-.483,3.026-3.9,4.784-4.737,9.351a.96.96,0,0,0,1.669.794,13.317,13.317,0,0,1,3.049-2.651c2.978-1.806,5.294-3.679,5.367-5.234.2-4.332-2.238-12.886-2.238-12.886l-7.033-1.09Z" transform="translate(-4185.433 -1083.927)"/><path class="ae" d="M4211.193,1177.962s2.586-.5,2.6-.517a10.482,10.482,0,0,1-2.315,1.813Z" transform="translate(-4182.041 -1163.125)"/><path class="w" d="M4221.194,1090.258h0c-.107-.116-.043-.353.144-.527l2-1.859c.188-.174.428-.222.537-.106h0c.107.116.042.353-.144.527l-2,1.859C4221.544,1090.326,4221.3,1090.373,4221.194,1090.258Z" transform="translate(-4190.83 -1083.839)"/><path class="w" d="M4241.417,1136.384a1.023,1.023,0,0,1-1.721-.533,2.453,2.453,0,0,1,.864-2.454,1.023,1.023,0,0,1,1.722.533A2.457,2.457,0,0,1,4241.417,1136.384Z" transform="translate(-4207.161 -1123.959)"/></g><ellipse class="af" cx="24.518" cy="11.885" rx="24.518" ry="11.885" transform="translate(2076.935 392.107)"/><path class="af" d="M2152.127,1763.03l-95.373-56.448,57.071-33.715,96.5,55.715Z" transform="translate(0 -1335.347)"/><path class="c" d="M2486.78,2095.142l4.344-.647c2.885-1.389,4.225-2.414,5.541-1.693l.373.2c1.316.721,1.182,2.048-.3,2.948l-6.287,5.241a4.225,4.225,0,0,1-4.727-.351s-.732-.631-.282-3.368C2485.7,2095.916,2485.6,2095.862,2486.78,2095.142Z" transform="translate(-378.613 -1706.145)"/><path class="c" d="M2645.25,2177.654l4.3,1.4c3.3.092,5.014-.2,5.891,1.029l.248.347c.876,1.227.136,2.326-1.646,2.444l-9.249,1.762c-1.782.118-2.523-1.026-3.171-2.475a6.238,6.238,0,0,1,.551-3.709C2642.865,2177.038,2643.825,2177.749,2645.25,2177.654Z" transform="translate(-516.656 -1781.235)"/><path class="v" d="M2650.923,2140.636c.046,2.04-4.915,2.151-4.96.112l-.149-6.627,4.96-.112Z" transform="translate(-520.426 -1742.76)"/><path class="v" d="M2494.98,2071.8c-.072,1.849-5.032,1.961-4.96.112l.232-6.01,4.96-.112Z" transform="translate(-382.784 -1682.488)"/><circle class="ag" cx="2.895" cy="2.895" r="2.895" transform="translate(2078.428 404.661)"/><circle class="ag" cx="2.895" cy="2.895" r="2.895" transform="translate(2080.548 390.724)"/><circle class="ag" cx="2.895" cy="2.895" r="2.895" transform="translate(2114.273 395.827) rotate(-80.854)"/><circle class="ag" cx="2.895" cy="2.895" r="2.895" transform="translate(2117.816 404.954)"/><circle class="ag" cx="2.895" cy="2.895" r="2.895" transform="translate(2097.857 413.83) rotate(-21.762)"/><path class="ah" d="M2468.671,2179.216l-18.02-10.426,1.456-2.123,19.394,10.573c.7.408.644,1.186-.134,1.73h0A2.769,2.769,0,0,1,2468.671,2179.216Z" transform="translate(-348.003 -1771.613)"/><path class="ah" d="M2286.782,2127.936l-18.976-5.057c-.834-.222-.94-.981-.237-1.687h0a3.265,3.265,0,0,1,2.8-.879l17.544,4.676Z" transform="translate(-185.842 -1730.605)"/><path class="ah" d="M2244.174,2175.834l19.939-9.487,2.023,2.534-18.959,9.021a3.521,3.521,0,0,1-3.157-.121l-.217-.149C2243.037,2177.1,2243.2,2176.295,2244.174,2175.834Z" transform="translate(-164.831 -1771.331)"/><path class="ah" d="M2421,2128.218l16.337-6.013a4.553,4.553,0,0,1,3.365.146l.228.132c.806.465.61,1.16-.436,1.545l-16.961,6.243Z" transform="translate(-321.807 -1732.11)"/><path class="ah" d="M2426.924,2188.255l.211-18.372,3.638.285-.206,17.942a1.91,1.91,0,0,1-1.842,1.827h0A1.687,1.687,0,0,1,2426.924,2188.255Z" transform="translate(-327.04 -1774.455)"/><g transform="translate(2099.923 358.734)"><path class="ai" d="M2433.16,1867.062c1.027-.735,2.079-1.434,3.174-2.063q.671-.386,1.361-.735.393-.2.792-.383l.26-.118q.6-.261-.166.068a4.285,4.285,0,0,1,1.239-.452c.467-.152.94-.286,1.419-.4.371-.085.761-.116,1.127-.214-1.007.268-.627.068-.281.051.245-.012.489-.035.734-.041.335-.008.671,0,1.006.023,1.035.074-.871-.178.1.009a9.05,9.05,0,0,1,1.068.274c.113.037.226.086.34.118.614.17-.961-.5-.118-.044.257.14.516.271.765.426.148.093.287.2.435.291.322.2.042.308-.374-.3a4.975,4.975,0,0,0,.656.578c.277.268.514.568.778.846.331.348-.6-.87-.226-.3.1.152.21.3.31.447q.254.383.478.785t.428.833c.131.277.312.914-.087-.236.063.182.144.359.21.541a17.374,17.374,0,0,1,.62,2.092q.115.5.2,1c.036.2.051.414.1.612-.091-.375-.12-.907-.035-.211.136,1.126.309,2.248.476,3.37q.137.926.271,1.853c.061.424.119.848.178,1.272.034.247.092.75-.048-.368.038.308.081.617.121.925a58.015,58.015,0,0,1,.727,11.226,3.93,3.93,0,0,0,3.909,3.909,4,4,0,0,0,3.909-3.909,56.385,56.385,0,0,0-.667-10.753q-.365-2.907-.8-5.806c-.085-.575-.172-1.15-.256-1.725-.027-.179-.052-.358-.078-.537-.1-.7.181,1.408.052.335a20.327,20.327,0,0,0-3.794-10.282,13.118,13.118,0,0,0-9.653-5.1c-5.262-.377-10.472,2.367-14.612,5.328-1.659,1.187-2.619,3.462-1.4,5.349,1.061,1.646,3.57,2.674,5.348,1.4Z" transform="translate(-2427.263 -1854.948)"/></g><g transform="translate(2097.888 368.002)"><path class="aj" d="M2432.441,1954.576h0a1.748,1.748,0,0,1-1.742-1.743v-16.6a1.748,1.748,0,0,1,1.742-1.743h0a1.748,1.748,0,0,1,1.743,1.743v16.6A1.748,1.748,0,0,1,2432.441,1954.576Z" transform="translate(-2428.263 -1934.492)"/><g transform="translate(0 11.102)"><ellipse class="aj" cx="1.77" cy="3.066" rx="1.77" ry="3.066" transform="translate(1.104 3.54) rotate(-89.689)"/><ellipse class="ak" cx="2.405" cy="4.167" rx="2.405" ry="4.167" transform="translate(0 19.481) rotate(-89.689)"/><path class="ak" d="M2417.233,2043.21l1.085,14.832h-8.305l1.149-15.626Z" transform="translate(-2409.988 -2040.944)"/></g></g><path class="ag" d="M2270.082,1843.955l.028-2.277-3.137-.107-24.553-14.175a6.177,6.177,0,0,0-5.538.23l-21.137,12.2-1.977-.067-.051,2.264h0a1.637,1.637,0,0,0,.95,1.392l26.736,15.436a6.179,6.179,0,0,0,5.539-.23l21.815-12.6a2.514,2.514,0,0,0,1.315-1.52h0v-.009A1.311,1.311,0,0,0,2270.082,1843.955Z" transform="translate(-138.674 -1471.385)"/><path class="ag" d="M2241.385,1836.357l-26.736-15.436c-1.414-.816-1.234-2.255.4-3.2l21.816-12.6a6.18,6.18,0,0,1,5.539-.23l26.736,15.436c1.413.816,1.235,2.255-.4,3.2l-21.816,12.6A6.179,6.179,0,0,1,2241.385,1836.357Z" transform="translate(-138.656 -1451.509)"/><path class="al" d="M2479.745,1904.938l-10.646-6.147c-.563-.325-.492-.9.158-1.273l8.687-5.016a2.461,2.461,0,0,1,2.205-.091l10.647,6.147c.563.325.491.9-.158,1.273l-8.687,5.016A2.46,2.46,0,0,1,2479.745,1904.938Z" transform="translate(-363.966 -1529.119)"/><path class="al" d="M2370.365,1974.52l-10.647-6.147c-.563-.325-.492-.9.158-1.273l8.687-5.016a2.461,2.461,0,0,1,2.206-.091l10.646,6.147c.563.325.492.9-.158,1.273l-8.687,5.016A2.459,2.459,0,0,1,2370.365,1974.52Z" transform="translate(-267.33 -1590.593)"/><g transform="translate(2088.412 354.016)"><path class="ai" d="M2334.688,1830.6c2.179-1.179,4.544-2.081,6.84-3.062,2.07-.884,4.116-1.836,6.245-2.606q.607-.22,1.223-.423.322-.107.646-.21c.179-.057,1.09-.385.085-.031.942-.331,1.947-.565,2.92-.819,1.8-.469,3.622-.892,5.479-1.192a3.561,3.561,0,0,0,2.883-4.535,4.7,4.7,0,0,0-5.078-3.211,69.579,69.579,0,0,0-12.089,3.193c-2.1.746-4.114,1.68-6.15,2.549-2.406,1.027-4.888,1.969-7.172,3.2a3.647,3.647,0,0,0-1.481,5.208c1.15,1.8,3.73,2.975,5.647,1.938Z" transform="translate(-2328.465 -1814.454)"/></g><g transform="translate(2073.289 338.45)"><path class="am" d="M2200.885,1693.839l6.812-3.732,6.734-3.689a40.648,40.648,0,0,1,3.653-1.861l-.353.149a12.224,12.224,0,0,1,3.056-.892l-.392.053a6.877,6.877,0,0,1,1.758-.017l-.392-.053a5.358,5.358,0,0,1,1.37.37l-.352-.149a3.245,3.245,0,0,1,.7.372l-.3-.23a1.429,1.429,0,0,1,.242.247l-.23-.3a2.88,2.88,0,0,1,.356.637l-.148-.352a10.456,10.456,0,0,1,.617,2.633q-.026-.2-.052-.392a45.725,45.725,0,0,1,.327,5.429c.024,1.72,0,3.44-.038,5.159-.012.642-.029,1.284-.03,1.926a1.522,1.522,0,0,0,.431,1.043,1.475,1.475,0,0,0,2.085,0,1.531,1.531,0,0,0,.432-1.043c0-.791.024-1.582.039-2.373.022-1.127.039-2.255.038-3.383,0-1.246-.02-2.493-.08-3.737a36.914,36.914,0,0,0-.365-3.808,9.527,9.527,0,0,0-.806-2.8,2.611,2.611,0,0,0-.233-.39,3.022,3.022,0,0,0-.489-.574,5.152,5.152,0,0,0-1.378-.768,5.254,5.254,0,0,0-1.213-.342,8.086,8.086,0,0,0-1.63-.114,10.717,10.717,0,0,0-1.635.212,15.065,15.065,0,0,0-2.912.98c-.839.359-1.652.776-2.452,1.214l-2.753,1.509-5.229,2.865-5.314,2.912-1.357.743a1.475,1.475,0,0,0,1.489,2.546Z" transform="translate(-2198.669 -1680.851)"/></g><path class="q" d="M3305.278,1830.762l.258-.033a1.412,1.412,0,0,0,1.221-1.58l-5.548-43.172a1.412,1.412,0,0,0-1.58-1.22l-.258.033a1.412,1.412,0,0,0-1.221,1.58l5.548,43.172A1.411,1.411,0,0,0,3305.278,1830.762Z" transform="translate(-1096.747 -1434.19)"/><path class="q" d="M2863.5,1900.339h0a1.527,1.527,0,0,1-1.391-1.652l6-69.648a1.527,1.527,0,0,1,1.652-1.39h0a1.527,1.527,0,0,1,1.39,1.652l-6,69.648A1.526,1.526,0,0,1,2863.5,1900.339Z" transform="translate(-711.513 -1472.09)"/><path class="n" d="M2893.883,2040.119l-2.906-1.988.831-8.366,3.094.484Z" transform="translate(-737.026 -1650.662)"/><path class="q" d="M2058.15,1576.379h0a1.527,1.527,0,0,1-1.39-1.652l4.409-51.189,3.017.557-4.384,50.894A1.527,1.527,0,0,1,2058.15,1576.379Z" transform="translate(0 -1203.417)"/><path class="n" d="M2088.537,1565.6l-2.905-1.987.831-8.366,3.094.484Z" transform="translate(-25.513 -1231.432)"/><path class="n" d="M3305.37,1864.409l2.8-2.134-1.257-8.312-3.066.641Z" transform="translate(-1101.79 -1495.344)"/><path class="an" d="M2266.175,1595.805l-.368-.054a1.079,1.079,0,0,1-.909-1.226l6.672-44.989a1.079,1.079,0,0,1,1.226-.909l.368.054a1.08,1.08,0,0,1,.91,1.226l-6.672,44.99A1.079,1.079,0,0,1,2266.175,1595.805Z" transform="translate(-183.882 -1225.572)"/><g transform="translate(2057.524 288.766)"><path class="ao" d="M2218.742,1348.256h-6.666l-94.4-54.5a6.8,6.8,0,0,0-6.117.254l-41.882,24.181h-6.257v4.511a1.729,1.729,0,0,0,1.033,1.783l100.01,57.741a6.8,6.8,0,0,0,6.117-.254l46.667-26.943a2.461,2.461,0,0,0,1.5-2.066h0Z" transform="translate(-2063.393 -1288.631)"/><path class="ap" d="M2164.432,1343.507l-100.01-57.741c-1.568-.905-1.371-2.486.439-3.531l46.667-26.943a6.8,6.8,0,0,1,6.117-.254l100.01,57.741c1.568.905,1.371,2.486-.439,3.531l-46.667,26.943A6.8,6.8,0,0,1,2164.432,1343.507Z" transform="translate(-2063.363 -1254.427)"/></g><g transform="translate(2100.259 360.554)"><path class="ai" d="M2436.03,1885.045c1.907-1.12,3.962-1.99,5.963-2.926s4.01-1.945,6.055-2.814l-.934.394a14.517,14.517,0,0,1,3.732-.985l-1.039.14c1.352-.181,2.7-.345,4.043-.607a4.031,4.031,0,0,0,2.73-4.809,3.956,3.956,0,0,0-1.8-2.336l-.934-.394a3.934,3.934,0,0,0-2.078,0c-.758.148-1.521.269-2.286.372l1.039-.14c-1.125.15-2.268.256-3.375.514a19.483,19.483,0,0,0-3.635,1.359c-2.473,1.132-4.928,2.3-7.392,3.455-1.365.638-2.74,1.262-4.04,2.026a4.047,4.047,0,0,0-1.8,2.336,2.96,2.96,0,0,0-.07,1.559,2.914,2.914,0,0,0,.464,1.453,3.944,3.944,0,0,0,2.336,1.8,4.075,4.075,0,0,0,3.012-.394Z" transform="translate(-2430.145 -1870.569)"/></g><path class="ah" d="M2146.752,1700.12l-8.713-27.467a2.53,2.53,0,0,1,3.786-2.889l24.958,16.148a4.319,4.319,0,0,1,1.844,2.578l6.972,27.895a2.031,2.031,0,0,1-.859-.219Z" transform="translate(-71.704 -1332.238)"/><g transform="translate(2093.106 301.601)"><path class="w" d="M2373.331,1468.092l4.586-8.93c.637-1.925,1.269-3.473,3.194-2.835l.57.189c1.924.637,3.9,2.766,3.261,4.691l-3.67,9.476C2380.635,1472.607,2372.694,1470.017,2373.331,1468.092Z" transform="translate(-2372.766 -1445.509)"/><path class="w" d="M2441.112,1386.59a4.188,4.188,0,0,1,2.162,3.214c.034.424.475,1.532.489,2.037.034,1.2.391,5.2.412,5.961a3.532,3.532,0,0,1-.847,2.64c-.921,1-4.393,1.312-4.945,2.67l-3.031-6.258Z" transform="translate(-2427.593 -1384.026)"/><path class="aq" d="M2379.19,1422.274a3.241,3.241,0,0,1-1.96-1.636c-.615-1.746-2.082-4.434-1.625-6.917.618-3.359,11.052-.95,11.052-.95l-3.081,8.957a1.207,1.207,0,0,1-.323.451,2.714,2.714,0,0,1-2.636.523Z" transform="translate(-2374.73 -1406.418)"/><ellipse class="w" cx="2.132" cy="1.421" rx="2.132" ry="1.421" transform="matrix(0.059, -0.998, 0.998, 0.059, 7.915, 14.263)"/><path class="ae" d="M2451.077,1522.694s-.795-2.053-.433-3.012a2.893,2.893,0,0,0,1.168,1.115Z" transform="translate(-2441.019 -1501.611)"/><path class="t" d="M2378.676,1364.605c-12.1-.477-9.735,9.438-9.735,9.438s8.6,3.735,11.659-2.868c.817-1.87,2.325-1.649,3.215-2.6.174-.186.034-1.073-1.17-2.233A6.535,6.535,0,0,0,2378.676,1364.605Z" transform="translate(-2368.753 -1364.589)"/></g><g transform="translate(2105.523 314.522)"><g class="ar" transform="translate(32.48 15.497)"><path class="as" d="M2754.094,1626.173s12.139-5.272,12.439-5.45l10.927-6.446a.834.834,0,0,0-.037-1.441l-7.637-4.349Z" transform="translate(-2754.094 -1608.488)"/></g><g transform="translate(0 0.686)"><g transform="translate(0 0.92)"><path class="at" d="M2491.045,1511.087l-15.716-9.073v-.92l22.078-11.826,15.716,8.153v.92Z" transform="translate(-2475.329 -1489.267)"/></g><path class="v" d="M2491.045,1503.189l-15.716-9.073,22.078-12.747,15.716,9.074Z" transform="translate(-2475.329 -1481.369)"/></g><g transform="translate(16.277 9.737)"><g transform="translate(0 0.949)"><path class="at" d="M2631.233,1589.689l-16.2-9.355v-.949l22.762-12.193,16.2,8.406v.949Z" transform="translate(-2615.031 -1567.193)"/></g><path class="v" d="M2631.233,1581.547l-16.2-9.354,22.762-13.142,16.2,9.355Z" transform="translate(-2615.031 -1559.051)"/></g><g transform="translate(37.94 11.091)"><rect class="z" width="0.625" height="0.417"/></g><g transform="translate(18.118 10.894)"><path class="au" d="M2644.7,1588.992s-7.1-3.879-13.858-8.163c-.025-.018,0-1.364,0-1.364,3.451-2.191,20.021-10.478,20.021-10.478l14.011,8.147Z" transform="translate(-2630.834 -1568.986)"/></g><g transform="translate(18.128 9.53)"><path class="e" d="M2644.772,1577.281s-7.1-3.879-13.858-8.163c-.216-.16,20.02-11.843,20.02-11.843l14.011,8.147Z" transform="translate(-2630.913 -1557.275)"/></g><g transform="translate(1.885 1.364)"><path class="au" d="M2505.373,1507.2s-7.1-3.879-13.859-8.164c-.024-.018,0-1.365,0-1.365,3.451-2.191,20.021-10.478,20.021-10.478l14.011,6.782v1.364Z" transform="translate(-2491.504 -1487.194)"/></g><g transform="translate(1.894)"><path class="k" d="M2505.443,1495.489s-7.1-3.879-13.858-8.164c-.217-.16,20.02-11.843,20.02-11.843l14.011,8.147Z" transform="translate(-2491.583 -1475.483)"/></g><g transform="translate(18.313 16.171)"><g transform="translate(0 1.152)"><path class="au" d="M2633.227,1624.365c0,.112-.162.2-.361.2s-.362-.091-.362-.2.162-.2.362-.2S2633.227,1624.253,2633.227,1624.365Z" transform="translate(-2632.503 -1624.162)"/></g><g transform="translate(3.469 3.087)"><path class="au" d="M2663,1640.978c0,.112-.162.2-.362.2s-.362-.091-.362-.2.162-.2.362-.2S2663,1640.866,2663,1640.978Z" transform="translate(-2662.274 -1640.775)"/></g><g transform="translate(0.302)"><path class="av" d="M2638.623,1617.627a.06.06,0,0,1-.06-.06,3.76,3.76,0,0,0-1.7-2.939,1.167,1.167,0,0,0-1.17-.123,1.151,1.151,0,0,0-.474,1.06.06.06,0,1,1-.12,0,1.262,1.262,0,0,1,.534-1.164,1.28,1.28,0,0,1,1.29.123,3.894,3.894,0,0,1,1.764,3.043A.06.06,0,0,1,2638.623,1617.627Z" transform="translate(-2635.094 -1614.277)"/></g></g><g transform="translate(21.284 14.353)"><g transform="translate(0 1.152)"><ellipse class="au" cx="0.362" cy="0.203" rx="0.362" ry="0.203"/></g><g transform="translate(3.469 3.087)"><ellipse class="au" cx="0.362" cy="0.203" rx="0.362" ry="0.203"/></g><g transform="translate(0.302)"><path class="av" d="M2664.123,1602.025a.06.06,0,0,1-.06-.06,3.761,3.761,0,0,0-1.7-2.94,1.167,1.167,0,0,0-1.17-.123,1.15,1.15,0,0,0-.475,1.06.06.06,0,1,1-.12,0,1.263,1.263,0,0,1,.534-1.164,1.281,1.281,0,0,1,1.291.123,3.9,3.9,0,0,1,1.764,3.043A.06.06,0,0,1,2664.123,1602.025Z" transform="translate(-2660.594 -1598.675)"/></g></g><g transform="translate(24.255 12.536)"><g transform="translate(0 1.152)"><ellipse class="au" cx="0.362" cy="0.203" rx="0.362" ry="0.203"/></g><g transform="translate(3.469 3.087)"><ellipse class="au" cx="0.362" cy="0.203" rx="0.362" ry="0.203"/></g><g transform="translate(0.302)"><path class="av" d="M2689.624,1586.423a.06.06,0,0,1-.06-.06,3.761,3.761,0,0,0-1.7-2.939,1.168,1.168,0,0,0-1.17-.123,1.151,1.151,0,0,0-.474,1.06.06.06,0,0,1-.12,0,1.263,1.263,0,0,1,.534-1.164,1.28,1.28,0,0,1,1.29.123,3.894,3.894,0,0,1,1.764,3.043A.06.06,0,0,1,2689.624,1586.423Z" transform="translate(-2686.095 -1583.073)"/></g></g><g transform="translate(27.306 10.739)"><g transform="translate(0 1.152)"><ellipse class="au" cx="0.362" cy="0.203" rx="0.362" ry="0.203"/></g><g transform="translate(3.469 3.087)"><ellipse class="au" cx="0.362" cy="0.203" rx="0.362" ry="0.203"/></g><g transform="translate(0.302)"><path class="av" d="M2715.806,1571a.06.06,0,0,1-.06-.06,3.762,3.762,0,0,0-1.7-2.939,1.168,1.168,0,0,0-1.17-.123,1.151,1.151,0,0,0-.474,1.06.06.06,0,1,1-.12,0,1.263,1.263,0,0,1,.534-1.164,1.28,1.28,0,0,1,1.29.123,3.893,3.893,0,0,1,1.765,3.043A.06.06,0,0,1,2715.806,1571Z" transform="translate(-2712.278 -1567.652)"/></g></g><g transform="translate(30.301 9.001)"><g transform="translate(0 1.152)"><path class="au" d="M2736.115,1562.829c0,.112-.162.2-.362.2s-.362-.091-.362-.2.162-.2.362-.2S2736.115,1562.717,2736.115,1562.829Z" transform="translate(-2735.391 -1562.626)"/></g><g transform="translate(3.469 3.087)"><ellipse class="au" cx="0.362" cy="0.203" rx="0.362" ry="0.203"/></g><g transform="translate(0.302)"><path class="av" d="M2741.511,1556.09a.06.06,0,0,1-.06-.06,3.76,3.76,0,0,0-1.7-2.939,1.167,1.167,0,0,0-1.17-.123,1.15,1.15,0,0,0-.475,1.06.06.06,0,1,1-.12,0,1.263,1.263,0,0,1,.534-1.164,1.279,1.279,0,0,1,1.29.123,3.892,3.892,0,0,1,1.764,3.043A.06.06,0,0,1,2741.511,1556.09Z" transform="translate(-2737.982 -1552.74)"/></g></g></g><g transform="translate(2113.58 333.78)"><path class="w" d="M2545.5,1655.753c2.171,1.309,2.928,2.294,5.587,1.426,3.464-1.131,14.143-9.913,16.806-12.945,1.042-1.187-.515-4.15-1.86-3.312-3.216,2-12.375,8.156-15.538,9.269a26.15,26.15,0,0,1-3.2.357C2547.028,1650.454,2542.5,1653.942,2545.5,1655.753Z" transform="translate(-2544.479 -1640.775)"/></g><path class="w" d="M2457.986,1571.859l-12.926,4.734,2.625,6.281,12.819-7.759Z" transform="translate(-343.063 -1246.108)"/><g transform="translate(2081.139 318.424)"><path class="m" d="M2292.457,1518a29.292,29.292,0,0,1-4.741-3.1c-8.337-1.41-7.652-5.363-7.652-5.363-3.86-1.774-6.884.725-9.34,6.669-1.167,2.827-4.609,16.518-4.609,16.518s-.5,10.819,1.138,11.5l20.585,10.492a78.963,78.963,0,0,1,.385-11.862c.358-2.51,4.01-8.212,5.085-9.806.073-.108,1.022,1.641,1.06,1.554a5.941,5.941,0,0,0-.1-4.914C2296,1526.459,2297.927,1520.819,2292.457,1518Z" transform="translate(-2266.043 -1508.974)"/></g><g transform="translate(2101.466 327.69)"><path class="m" d="M2441.133,1597.024l10.616,11.783c3.488,2.855,8.665-2.857,5.981-5.446l-8.443-12.954c-1.62-2.221-4.965-2.446-6.448-.959h0C2441.294,1591,2439.549,1595.079,2441.133,1597.024Z" transform="translate(-2440.508 -1588.501)"/></g><path class="k" d="M2385.929,1517.626c-7.26-1.856-12.039,2.8-12.105-7.948,0,0,2.019-.094,2.578,1.016.982,1.948,1,2.991,4.057,3.134,1.582.074,3.611.11,4.03.912Z" transform="translate(-280.127 -1191.171)"/><path class="l" d="M2507.538,1721.793l3.435,3.812a3.5,3.5,0,0,0,4.009.281c-2.484-.3-3.629-2.056-6.359-5.008C2508.182,1720.4,2507.538,1721.793,2507.538,1721.793Z" transform="translate(-398.262 -1377.677)"/><path class="l" d="M2419.972,1681.588s-4.258,6.449-4.606,8.37-.588,12.6-.588,12.6l-2.31-.141-2.745-10.164,6.154-15.632c.384-.975,1.685.6,2.421,1.347l4.087,3.792-1.265.747Z" transform="translate(-311.843 -1338.387)"/><path class="aw" d="M2450.679,1591.406s-4.419-6.819,1.789-11.146" transform="translate(-346.681 -1253.53)"/><path class="ai" d="M2419.978,1836.682l3.515-.623,6.007-1.194,8.3,4.753-14.972,11.01-3.471-8.459Z" transform="translate(-320.359 -1478.471)"/><path class="c" d="M2349.584,1836.486c4.9,1.179,9.882,2.464,12.674.683,1.281-.763.3-1.818-.546-1.442-3.476,1.109-7.446.027-12.041-.861a.735.735,0,0,0-.773.694l-.008.153A.735.735,0,0,0,2349.584,1836.486Z" transform="translate(-258.098 -1478.471)"/><path class="l" d="M2530.289,1707.519s4.737-3.265,5.428-5.424,2.052.406,2.052.406.982,3.239-.778,4.913S2533.195,1712.051,2530.289,1707.519Z" transform="translate(-418.362 -1360.406)"/><path class="ah" d="M2118.917,1613.207l-8.713-27.467a2.53,2.53,0,0,1,3.786-2.889l25.73,16.694a4.651,4.651,0,0,1,1.981,2.631l7.03,27.881Z" transform="translate(-47.112 -1255.451)"/><path class="ak" d="M2115.594,1579.081l25.731,16.694a4.653,4.653,0,0,1,1.981,2.631l8.594,34.9a3.467,3.467,0,0,0,1.71.707l.736-.538a1.482,1.482,0,0,0,.563-1.555l-2.665-10.663-6.318-25.47a4.65,4.65,0,0,0-1.981-2.631l-25.731-16.694c-1.788-1.157-5.272.783-5.187,2.722C2113.456,1579.2,2115.176,1578.811,2115.594,1579.081Z" transform="translate(-49.715 -1249.867)"/><g transform="translate(2099.25 358.726)"><path class="ak" d="M2424.3,1867.887c3.289-1.8,5.135-3.176,8.423-4.978l4.858-2.661a23.69,23.69,0,0,1,4.4-2.051,5.332,5.332,0,0,1,3.948.007,2.693,2.693,0,0,1,.318.184c-.143-.1-.1-.163-.09-.049.021.192-.092-.2.049.077a2.677,2.677,0,0,0,.168.313c-.025-.059.118.351.156.479a22.683,22.683,0,0,1,.646,5.9c.051,2.077-.017,4.152-.02,6.229a1.475,1.475,0,0,0,2.949,0c0-2.008.068-4.014.025-6.022a26.473,26.473,0,0,0-.756-6.894,4.9,4.9,0,0,0-1.268-2.3,6.241,6.241,0,0,0-4.449-1.234c-3.691.271-6.983,2.492-10.141,4.223l-10.889,5.966c-1.665.912-1.433,4.146.234,3.234Z" transform="translate(-2421.49 -1854.873)"/></g><path class="w" d="M2557.512,1545.782l-4.283,2.272a2.447,2.447,0,0,1-3.3-1.012h0a2.446,2.446,0,0,1,1.012-3.3l4.283-2.272a2.446,2.446,0,0,1,3.3,1.012h0A2.446,2.446,0,0,1,2557.512,1545.782Z" transform="translate(-435.466 -1219.012)"/><path class="ag" d="M2723.079,1612.314h0a.5.5,0,0,1,.679-.194l8.831,4.925a.5.5,0,0,1,.194.68h0a.5.5,0,0,1-.679.194l-8.831-4.925A.5.5,0,0,1,2723.079,1612.314Z" transform="translate(-588.634 -1281.623)"/><path class="w" d="M2716.954,1624.816l-4.283,2.272a2.445,2.445,0,0,1-3.3-1.012h0a2.447,2.447,0,0,1,1.012-3.3l4.284-2.272a2.446,2.446,0,0,1,3.3,1.012h0A2.446,2.446,0,0,1,2716.954,1624.816Z" transform="translate(-576.331 -1288.838)"/><g transform="translate(2162.514 339.727)"><g transform="translate(0 0)"><path class="a" d="M3086.685,1788.016l6.325-2.03a3.137,3.137,0,0,0,.578-.252l13.847-7.783a.754.754,0,0,0,.016-1.305l-4.2-2.5Z" transform="translate(-3072.445 -1764.554)"/><path class="ax" d="M2964.788,1710.952l18.911-10.833.035-3.688-18.907,10.353A6.515,6.515,0,0,0,2964.788,1710.952Z" transform="translate(-2964.466 -1695.893)"/><path class="y" d="M2998.954,1734.931l-.539,0v.007l-13.134-7.748a.251.251,0,0,0-.251,0l-18.547,10.477,0-.171-.5.05s.083.441.107.512c.042.123.076.293.161.344l13.543,8.1a.252.252,0,0,0,.251,0l18.774-10.883a.249.249,0,0,0,.126-.208h0Z" transform="translate(-2965.808 -1723.033)"/><path class="ax" d="M2980.022,1778.932l-13.53,3.538-.007.766-.5.05s.083.441.107.512c.042.123.076.293.161.344l13.543,8.1a.252.252,0,0,0,.14.035C2979.976,1792.274,2980.1,1778.888,2980.022,1778.932Z" transform="translate(-2965.808 -1768.781)"/><path class="ay" d="M2987.719,1742.251l-12.605-7.453a2.187,2.187,0,0,1-.075-1.459l17.91-10.117a.251.251,0,0,1,.252,0l13.544,7.99a.251.251,0,0,1,0,.436l-18.771,10.6A.252.252,0,0,1,2987.719,1742.251Z" transform="translate(-2973.723 -1719.532)"/><path class="e" d="M2986,1800.2l-12.831-7.483c-.686-1.176-.458-2.42.084-3.971l12.846,7.694Z" transform="translate(-2971.776 -1777.451)"/><path class="au" d="M3086.453,1780.431l18.04-10.374a7.422,7.422,0,0,1,.034-3.688l-18.036,9.964Z" transform="translate(-3072.24 -1757.682)"/><path class="y" d="M3000.36,1704.747l-.539-.005v.02l-13.134-7.748a.252.252,0,0,0-.252,0l-18.546,10.477v-.114l-.349,0,0,.419h.005a.25.25,0,0,0,.118.261l13.545,7.99a.251.251,0,0,0,.251,0l18.771-10.6a.247.247,0,0,0,.126-.2Z" transform="translate(-2967.18 -1696.377)"/><path class="ax" d="M2981.393,1788.232c-.078-.046-13.5-1.94-13.5-1.94v-.114l-.349,0,0,.419h.005a.25.25,0,0,0,.118.261l13.545,7.99a.25.25,0,0,0,.125.035C2981.374,1794.881,2981.393,1788.232,2981.393,1788.232Z" transform="translate(-2967.18 -1775.181)"/><path class="az" d="M2981.239,1710.843l-13.544-7.99a.252.252,0,0,1,0-.436l18.7-10.564a.515.515,0,0,1,.366-.011l13.5,7.964a.252.252,0,0,1,0,.436l-18.771,10.6A.251.251,0,0,1,2981.239,1710.843Z" transform="translate(-2967.208 -1691.813)"/></g><path class="t" d="M2970.857,1797.4a3.591,3.591,0,0,1-.169-3.181l-.337-.173a4.517,4.517,0,0,0,.164,3.221Z" transform="translate(-2969.468 -1782.134)"/></g><g transform="translate(2163.403 335.811)"><g transform="translate(0 0)"><path class="l" d="M2972.4,1676.4l17.979-10.3.033-3.506-17.975,9.842A6.2,6.2,0,0,0,2972.4,1676.4Z" transform="translate(-2972.098 -1662.084)"/><path class="ay" d="M3004.885,1699.2l-.512,0v.007l-12.486-7.366a.241.241,0,0,0-.24,0l-17.632,9.96,0-.163-.475.048s.078.419.1.487c.04.117.072.279.153.327l12.875,7.7a.24.24,0,0,0,.239,0l17.848-10.346a.237.237,0,0,0,.121-.2h0Z" transform="translate(-2973.374 -1687.886)"/><path class="l" d="M2986.886,1741.029l-12.862,3.364-.007.729-.475.047s.078.419.1.487c.04.117.072.279.153.327l12.875,7.7a.237.237,0,0,0,.133.033C2986.842,1753.713,2986.961,1740.987,2986.886,1741.029Z" transform="translate(-2973.374 -1731.379)"/><path class="ay" d="M2994.2,1706.157l-11.984-7.085a2.078,2.078,0,0,1-.071-1.388l17.027-9.619a.239.239,0,0,1,.24,0l12.876,7.6a.239.239,0,0,1,0,.415l-17.845,10.081A.239.239,0,0,1,2994.2,1706.157Z" transform="translate(-2980.899 -1684.559)"/><path class="e" d="M2992.567,1761.249l-12.2-7.114c-.652-1.118-.436-2.3.08-3.775l12.213,7.314Z" transform="translate(-2979.048 -1739.622)"/><path class="au" d="M3088.07,1742.453l17.15-9.862a7.066,7.066,0,0,1,.033-3.506l-17.147,9.472Z" transform="translate(-3074.558 -1720.827)"/><path class="ay" d="M3006.223,1670.5l-.512,0v.019l-12.486-7.366a.238.238,0,0,0-.239,0l-17.632,9.96V1673l-.332,0,0,.4h0a.237.237,0,0,0,.113.248l12.876,7.6a.239.239,0,0,0,.239,0l17.845-10.081a.236.236,0,0,0,.12-.194Z" transform="translate(-2974.677 -1662.545)"/><path class="l" d="M2988.19,1749.871c-.074-.044-12.837-1.844-12.837-1.844v-.108l-.332,0,0,.4h0a.237.237,0,0,0,.113.248l12.876,7.6a.241.241,0,0,0,.12.033C2988.173,1756.191,2988.19,1749.871,2988.19,1749.871Z" transform="translate(-2974.677 -1737.463)"/><path class="m" d="M2988.044,1676.3l-12.877-7.6a.24.24,0,0,1,0-.415l17.779-10.043a.488.488,0,0,1,.347-.011l12.835,7.572a.239.239,0,0,1,0,.415l-17.845,10.081A.239.239,0,0,1,2988.044,1676.3Z" transform="translate(-2974.705 -1658.205)"/><line class="ba" y1="10.023" x2="17.606" transform="translate(1.402 0.714)"/></g><path class="ay" d="M2978.175,1758.586a3.415,3.415,0,0,1-.161-3.024l-.321-.164a4.292,4.292,0,0,0,.156,3.062Z" transform="translate(-2976.854 -1744.073)"/></g><g transform="translate(2131.492 215.239)"><path class="bb" d="M2855.294,697.768s14.655-4.836,12.5-25.012C2867.789,672.756,2849.534,682.713,2855.294,697.768Z" transform="translate(-2835.999 -667.001)"/><g transform="translate(0.911 44.034)"><ellipse class="a" cx="14.185" cy="4.529" rx="14.185" ry="4.529" transform="translate(7.676 26.658)"/><g transform="translate(0 0)"><path class="bc" d="M2743.053,1101.924l-35.5-1.035,5.732,17.572c.214,1.625,1.4,3.218,3.556,4.464,4.772,2.755,12.485,2.769,17.227.031a6.55,6.55,0,0,0,3.449-4.1h0Z" transform="translate(-2707.376 -1089.285)"/><path class="af" d="M2877.645,1109.769c-4.923,9.834-9.846,19.671-17.75,23.076a17.6,17.6,0,0,0,8.765-2.043,6.55,6.55,0,0,0,3.449-4.1h0Z" transform="translate(-2841.969 -1097.13)"/><ellipse class="k" cx="10.389" cy="17.995" rx="10.389" ry="17.995" transform="matrix(0.005, -1, 1, 0.005, 0, 20.778)"/><ellipse class="bd" cx="8.918" cy="15.446" rx="8.918" ry="15.446" transform="translate(2.432 18.985) rotate(-89.689)"/></g></g><line class="be" y2="43.029" transform="translate(19.131 13.712)"/><path class="bf" d="M2717.172,852.348s.671-15.418-18.96-20.548C2698.212,831.8,2701.053,852.4,2717.172,852.348Z" transform="translate(-2698.212 -807.515)"/><path class="bf" d="M2863.223,790.1s15.281-2.158,16.737-22.4C2879.96,767.7,2860.228,774.26,2863.223,790.1Z" transform="translate(-2843.724 -750.885)"/><path class="bf" d="M2780.358,650.791s6.84-14.594-10.024-27.424C2770.334,623.366,2764.8,644.365,2780.358,650.791Z" transform="translate(-2761.086 -623.366)"/><line class="bg" x1="9.697" y1="25.665" transform="translate(9.619 0.88)"/></g><line class="g" x2="71.459" y2="40.785" transform="translate(2117.958 293.402)"/><line class="bh" x2="56.806" y2="33.03" transform="translate(2213.713 196.728)"/><g transform="translate(2204.56 338.985)"><g transform="translate(11.892 42.363)"><ellipse class="a" cx="12.309" cy="5.231" rx="12.309" ry="5.231" transform="translate(6.661 20.532)"/><g transform="translate(0 0)"><path class="e" d="M3459.519,2136.361l-30.806-.9,4.974,15.249a5.58,5.58,0,0,0,3.086,3.874,16.52,16.52,0,0,0,14.949.027,5.685,5.685,0,0,0,2.993-3.556h0Z" transform="translate(-3428.56 -2125.393)"/><path class="au" d="M3576.317,2143.169c-4.272,8.534-8.544,17.071-15.4,20.025a15.272,15.272,0,0,0,7.606-1.773,5.685,5.685,0,0,0,2.993-3.556h0Z" transform="translate(-3545.358 -2132.201)"/><ellipse class="k" cx="9.015" cy="15.616" rx="9.015" ry="15.616" transform="translate(0 18.031) rotate(-89.689)"/><ellipse class="bd" cx="7.739" cy="13.404" rx="7.739" ry="13.404" transform="translate(2.111 16.475) rotate(-89.689)"/></g></g><path class="bf" d="M3570.279,1793.75c.079.815-6.136,38.147-6.136,38.147l-1.124-1.261,4.1-37.411Z" transform="translate(-3535.325 -1780.666)"/><path class="bf" d="M3488.963,1708.177c.311.918,6.048,42.425,6.9,48.564a.95.95,0,0,1-.612,1.022h0a.953.953,0,0,1-1.271-.734l-8.246-48.871Z" transform="translate(-3467.04 -1705.511)"/><path class="bf" d="M3544.518,1716.786s-3.975-3.942-1.755-6.414,4.5-5.19,4.5-5.19-.683,6.386.443,6.743-1.06-9.215,2.626-9.271,3.673.193,3.673.193-3.97,7.358-2.731,8.419,1.963-8.957,7.528-8.765l3.188,2.806s-7.255,2.606-7.092,6.149,5.66-7.32,9.417-6.824,5.806,4.137,5.806,4.137-12.308,2.142-11.821,5.2,10.057-6.691,13.306-4.081a15.348,15.348,0,0,1,4.275,4.854s-13.8-.773-14.223,1.644,14.684.023,14.684.023a7.076,7.076,0,0,1,1.552,3.616c.327,2.307-12.753-1.714-14.268,1.542s12.683.615,14,3.771.7,4.419.7,4.419-8.262-2.874-8.479-1.591,5-.336,7.221,7.547c0,0-7.248.566-8.716-1.8s-2.269-3.255-2.825-3.085,3.25,9.23,3.25,9.23-4.776-.051-5.728-2.789-1.235-7.78-2.366-8.039.018,10.106.018,10.106a4.689,4.689,0,0,1-4.688-4.576c-.4-4.651-.067-7.022-1-7.37s-1.836,9.262-.864,11.6c0,0-3.8-.647-4.173-2.061s1.139-11.29,1.139-11.29-4.116,6.355-3.094,9.644l-3.98-2.9s1.84-8.515,3.849-8.858c0,0-.615-2.521-2.71-1.486s-2.971,11.094-2.971,11.094-4.158-4.25-1-9.411l3.158-5.161s-5.186.176-6.322,3.8c0,0-1.464-7.572,2.3-6.8S3544.518,1716.786,3544.518,1716.786Z" transform="translate(-3513.019 -1700.512)"/><g transform="translate(24.752 5.587)"><path class="bi" d="M3578.884,1847.918a1.5,1.5,0,0,0-.6-.034l.6.034,1.091,1.728-.059.106c.03-.019.061-.04.091-.056.638,1.3.8,2.564.042,3.576l-1.909.894s-.117-.245-.329-.647l-1.715-2.877a20.223,20.223,0,0,0-1.681-2.187l1.994-3.259A23.58,23.58,0,0,1,3578.884,1847.918Z" transform="translate(-3570.146 -1832.17)"/><path class="bi" d="M3540.35,1742.873c3.644.748,4.139,1.186,4.166,1.213-.023-.023-2.721-2.713-2.4-5.037a28.627,28.627,0,0,1,3.51,1.873,6.117,6.117,0,0,1-.733-.738,6.019,6.019,0,0,0-2.619-1.735,2.612,2.612,0,0,1,.486-.776c1.422-1.583,2.869-3.267,3.726-4.273.231.062.459.128.679.2-.137,1.847-.287,5.362.541,5.625.626.2.229-2.669.385-5.266a5.626,5.626,0,0,1,2.786,2.412c.1.18.189.358.28.533-.176.79-.18,1.408.117,1.662.2.168.381.057.573-.249,2.237,4.855,1.918,7.286,1.918,7.286a56.108,56.108,0,0,1-6.085-3.2,9.338,9.338,0,0,1,3.726,6.055s-.106,3.143-1.546,2.6-6.491-7.678-8.943-7.287c0,0,1.194.883,2.615,2.187a8.4,8.4,0,0,0-4.106,1.671c-.046-.019-.091-.042-.137-.059,0,0,.006.059.017.163a4.355,4.355,0,0,0-1.256,1.94S3536.588,1742.1,3540.35,1742.873Z" transform="translate(-3537.771 -1733.4)"/><path class="bi" d="M3558.118,1903.519a2.41,2.41,0,0,1-.523,2.645,7.177,7.177,0,0,1-.111-4.381A12.938,12.938,0,0,0,3558.118,1903.519Z" transform="translate(-3554.931 -1882.164)"/><path class="bj" d="M3622.159,1883.043l.009.091-.032-.051Z" transform="translate(-3612.306 -1865.608)"/></g><path class="bk" d="M3341.207,1686.606c.221-.083,16.375-3.754,19.67,2.4s2.887,9.234,2.887,9.234-6.992-3.1-8.873-5.422-6.165-2.441-6.165-2.441,11.961,3.569,12.678,10.717c0,0-.106,3.143-1.547,2.6s-6.491-7.678-8.943-7.287c0,0,9.531,7.041,6.756,10.732l-1.91.894s-3.116-6.535-6.475-7.828a28.259,28.259,0,0,0,1.668,7.186c1.22,2.645-3.408,4.762-3.408,4.762s-5.32-2.341-4.238-5.371.231-7.776.231-7.776-2.772,5.779-1.549,8.5c0,0-3.3-.25-3.747-2.251s3.76-9.333,2.378-10.328-4.809,7.28-3.428,10.218c0,0-5.968.3-5.08-3.92a25.281,25.281,0,0,1,3.222-7.744s-5.561-.024-8.252,7.924c0,0-5.251-9.285,2.418-12.039S3341.207,1686.606,3341.207,1686.606Z" transform="translate(-3325.33 -1685.445)"/><ellipse class="bl" cx="5.265" cy="2.704" rx="5.265" ry="2.704" transform="translate(10.364 3.378) rotate(-5.527)"/></g></g></svg>