<svg xmlns="http://www.w3.org/2000/svg" xmlns:xlink="http://www.w3.org/1999/xlink" width="261.895" height="293.373" viewBox="0 0 261.895 293.373"><defs><style>.a,.w{fill:#a8c4e5;}.a,.e{opacity:0.4;}.a{mix-blend-mode:multiply;isolation:isolate;}.b{fill:url(#a);}.aa,.c{fill:#fff;}.d{fill:#ffe46e;}.ae,.f,.y{fill:none;}.f{stroke:#97cbff;stroke-width:1.463px;}.ae,.f{stroke-miterlimit:10;}.g{fill:#ffeda1;}.h{fill:url(#b);}.i{fill:#89baf5;}.j{fill:#619de6;}.k{fill:url(#c);}.l{fill:url(#d);}.m{fill:#dbefff;}.n{fill:#29479c;}.o{fill:#ffc2b0;}.p{fill:#4264bf;}.q{fill:#36475c;}.r{fill:#ea8a6c;}.s{fill:#add5f7;}.t{fill:#514677;}.u{fill:#423a66;}.v{fill:#4f80e3;}.x{fill:#e1eaf4;}.y{stroke:#ffc2b0;stroke-linecap:round;stroke-linejoin:round;stroke-width:10.013px;}.z{fill:#edd15d;}.aa{opacity:0.46;}.ab{fill:#513554;}.ac{fill:#fcfeff;}.ad{fill:url(#g);}.ae{stroke:#dea749;stroke-width:1.254px;}.af{fill:#c99334;}</style><linearGradient id="a" y1="0.5" x2="1" y2="0.5" gradientUnits="objectBoundingBox"><stop offset="0" stop-color="#deb949"/><stop offset="0.001" stop-color="#deb849"/><stop offset="0.028" stop-color="#dea749"/><stop offset="0.062" stop-color="#de9b49"/><stop offset="0.11" stop-color="#de9449"/><stop offset="0.242" stop-color="#de9349"/><stop offset="0.839" stop-color="#bd732b"/></linearGradient><linearGradient id="b" y1="0.5" x2="1" y2="0.5" gradientUnits="objectBoundingBox"><stop offset="0.253" stop-color="#de9349"/><stop offset="0.661" stop-color="#de9449"/><stop offset="0.808" stop-color="#de9b49"/><stop offset="0.912" stop-color="#dea749"/><stop offset="0.997" stop-color="#deb849"/><stop offset="1" stop-color="#deb949"/></linearGradient><linearGradient id="c" y1="0.5" x2="1" y2="0.5" gradientUnits="objectBoundingBox"><stop offset="0" stop-color="#436dc2"/><stop offset="0.892" stop-color="#4f80e3"/></linearGradient><linearGradient id="d" y1="0.5" x2="1" y2="0.5" gradientUnits="objectBoundingBox"><stop offset="0.059" stop-color="#a8c7ea"/><stop offset="0.941" stop-color="#bad5eb"/></linearGradient><linearGradient id="g" y1="0.5" x2="1" y2="0.5" gradientUnits="objectBoundingBox"><stop offset="0.172" stop-color="#deb949"/><stop offset="0.882" stop-color="#de9349"/></linearGradient></defs><g transform="translate(-721.053 -171.433)"><ellipse class="a" cx="26.601" cy="15.049" rx="26.601" ry="15.049" transform="translate(895.123 398.443)"/><g transform="translate(885.654 389.689)"><g transform="translate(0 0)"><path class="b" d="M1207.768,746.7a21.49,21.49,0,0,1-.874,6.6c-1.036,3.6-4.283,7.009-9.636,9.517-11.746,5.5-29.151,4.579-38.874-2.065-4.532-3.1-6.593-6.889-6.315-10.613-.047-.348.313-4.969.313-4.969a11.574,11.574,0,0,1,2.115-3.763,19.877,19.877,0,0,1,8.072-6.3c11.746-5.5,29.151-4.579,38.875,2.064C1205.538,739.967,1207.61,743.333,1207.768,746.7Z" transform="translate(-1152.043 -730.259)"/><ellipse class="c" cx="27.61" cy="15.62" rx="27.61" ry="15.62" transform="translate(0.287 0.852)"/><ellipse class="d" cx="27.61" cy="15.62" rx="27.61" ry="15.62" transform="translate(0.286)"/></g></g><g class="e" transform="translate(721.799 199.011)"><g transform="translate(0.925 38.165)"><line class="f" x1="93.153" y2="53.782" transform="translate(0.93)"/><path class="f" d="M886.709,378.541l18.63-10.756.232-20.373-18.63,10.756Z" transform="translate(-811.489 -347.411)"/><path class="f" d="M846.36,401.837l18.63-10.756.233-20.373-18.631,10.756Z" transform="translate(-789.771 -359.95)"/><path class="f" d="M806.011,425.132l18.63-10.756L824.874,394l-18.63,10.756Z" transform="translate(-768.053 -372.49)"/><path class="f" d="M765.662,448.427l18.63-10.756.233-20.373-18.631,10.756Z" transform="translate(-746.334 -385.029)"/><path class="f" d="M725.314,471.723l18.63-10.756.232-20.373-18.63,10.756Z" transform="translate(-724.616 -397.568)"/><path class="f" d="M886.205,422.664l18.631-10.756.233-20.373-18.631,10.756Z" transform="translate(-811.218 -371.161)"/><path class="f" d="M845.856,445.96,864.487,435.2l.232-20.373-18.63,10.756Z" transform="translate(-789.5 -383.7)"/><path class="f" d="M805.508,469.255l18.63-10.756.233-20.373-18.63,10.756Z" transform="translate(-767.781 -396.24)"/><path class="f" d="M724.81,515.846l18.63-10.756.233-20.373-18.63,10.756Z" transform="translate(-724.345 -421.318)"/><path class="f" d="M885.7,466.788l18.631-10.756.232-20.373-18.63,10.756Z" transform="translate(-810.947 -394.911)"/><path class="f" d="M805,513.379l18.63-10.756.233-20.373-18.631,10.756Z" transform="translate(-767.51 -419.99)"/><path class="f" d="M764.655,536.674l18.631-10.756.233-20.373L764.888,516.3Z" transform="translate(-745.792 -432.529)"/><path class="f" d="M724.306,559.969l18.631-10.756.232-20.373L724.539,539.6Z" transform="translate(-724.074 -445.068)"/><path class="f" d="M885.2,510.911l18.63-10.756.233-20.373-18.631,10.756Z" transform="translate(-810.676 -418.661)"/><path class="f" d="M844.849,534.206,863.48,523.45l.233-20.373-18.631,10.756Z" transform="translate(-788.958 -431.2)"/><path class="f" d="M804.5,557.5l18.631-10.756.232-20.373-18.63,10.756Z" transform="translate(-767.239 -443.74)"/><path class="f" d="M764.151,580.8l18.631-10.757.232-20.373-18.63,10.756Z" transform="translate(-745.521 -456.279)"/><path class="f" d="M723.8,604.093l18.63-10.756.233-20.373-18.63,10.756Z" transform="translate(-723.803 -468.818)"/></g><g transform="translate(93.923 0)"><line class="f" x1="93.153" y2="53.782" transform="translate(0.93)"/><path class="f" d="M1088.117,262.289l18.631-10.756.232-20.373-18.63,10.756Z" transform="translate(-1012.898 -231.159)"/><path class="f" d="M1047.769,285.584l18.63-10.756.233-20.373L1048,265.211Z" transform="translate(-991.179 -243.698)"/><path class="f" d="M1007.42,308.88l18.631-10.756.232-20.373-18.63,10.756Z" transform="translate(-969.461 -256.237)"/><path class="f" d="M967.071,332.175l18.63-10.756.233-20.373L967.3,311.8Z" transform="translate(-947.743 -268.776)"/><path class="f" d="M926.722,355.47l18.631-10.756.232-20.373L926.955,335.1Z" transform="translate(-926.025 -281.315)"/><path class="f" d="M1087.614,306.412l18.631-10.756.233-20.373-18.63,10.756Z" transform="translate(-1012.627 -254.909)"/><path class="f" d="M1047.265,329.708l18.63-10.756.233-20.373L1047.5,309.334Z" transform="translate(-990.908 -267.448)"/><path class="f" d="M1006.916,353l18.631-10.756.232-20.373-18.63,10.756Z" transform="translate(-969.19 -279.987)"/><path class="f" d="M926.219,399.594l18.63-10.756.232-20.373-18.63,10.756Z" transform="translate(-925.754 -305.065)"/><path class="f" d="M1087.11,350.535l18.631-10.756.233-20.373-18.63,10.756Z" transform="translate(-1012.356 -278.659)"/><path class="f" d="M1006.412,397.126l18.631-10.756.232-20.373-18.631,10.756Z" transform="translate(-968.919 -303.737)"/><path class="f" d="M966.064,420.422l18.631-10.756.233-20.373L966.3,400.048Z" transform="translate(-947.201 -316.276)"/><path class="f" d="M925.715,443.717l18.631-10.756.232-20.373-18.63,10.756Z" transform="translate(-925.482 -328.815)"/><path class="f" d="M1086.607,394.659l18.63-10.756.232-20.373-18.63,10.756Z" transform="translate(-1012.085 -302.409)"/><path class="f" d="M1046.258,417.954l18.631-10.756.233-20.373-18.63,10.756Z" transform="translate(-990.366 -314.948)"/><path class="f" d="M1005.909,441.25l18.63-10.756.233-20.373-18.63,10.756Z" transform="translate(-968.648 -327.487)"/><path class="f" d="M965.56,464.545l18.631-10.756.233-20.373-18.63,10.756Z" transform="translate(-946.93 -340.026)"/><path class="f" d="M925.211,487.84l18.63-10.756.233-20.373-18.63,10.756Z" transform="translate(-925.211 -352.565)"/></g><g transform="translate(0 96.19)"><line class="f" x1="93.153" y2="53.782" transform="translate(0.93)"/><path class="f" d="M884.705,555.29l18.631-10.756.232-20.373-18.63,10.756Z" transform="translate(-809.486 -524.161)"/><path class="f" d="M844.357,578.586l18.63-10.756.233-20.373-18.631,10.756Z" transform="translate(-787.767 -536.7)"/><path class="f" d="M804.008,601.881l18.63-10.756.233-20.373L804.24,581.508Z" transform="translate(-766.049 -549.239)"/><path class="f" d="M763.659,625.177l18.631-10.756.233-20.373L763.892,604.8Z" transform="translate(-744.331 -561.778)"/><path class="f" d="M723.31,648.472l18.631-10.756.232-20.373L723.543,628.1Z" transform="translate(-722.613 -574.317)"/><path class="f" d="M884.2,599.414l18.63-10.756.233-20.373L884.434,579.04Z" transform="translate(-809.215 -547.911)"/><path class="f" d="M843.853,622.709l18.631-10.756.233-20.373-18.631,10.756Z" transform="translate(-787.496 -560.45)"/><path class="f" d="M803.5,646l18.63-10.756.232-20.373-18.63,10.756Z" transform="translate(-765.778 -572.989)"/><path class="f" d="M722.807,692.6l18.63-10.756.233-20.373-18.631,10.756Z" transform="translate(-722.342 -598.067)"/><path class="f" d="M883.7,643.537l18.631-10.756.233-20.373-18.63,10.756Z" transform="translate(-808.944 -571.661)"/><path class="f" d="M803,690.128l18.63-10.756L821.864,659l-18.631,10.756Z" transform="translate(-765.507 -596.739)"/><path class="f" d="M762.652,713.423l18.631-10.756.233-20.373L762.884,693.05Z" transform="translate(-743.789 -609.278)"/><path class="f" d="M722.3,736.719l18.631-10.756.232-20.373-18.631,10.756Z" transform="translate(-722.07 -621.817)"/><path class="f" d="M883.195,687.66l18.63-10.756.233-20.373-18.631,10.756Z" transform="translate(-808.673 -595.411)"/><path class="f" d="M842.846,710.956,861.476,700.2l.232-20.373-18.63,10.756Z" transform="translate(-786.954 -607.95)"/><path class="f" d="M802.5,734.251l18.63-10.756.232-20.373-18.63,10.756Z" transform="translate(-765.236 -620.489)"/><path class="f" d="M762.148,757.547l18.63-10.756.232-20.373-18.63,10.756Z" transform="translate(-743.518 -633.028)"/><path class="f" d="M721.8,780.842l18.63-10.756.233-20.373-18.63,10.756Z" transform="translate(-721.799 -645.567)"/></g><g transform="translate(92.998 58.026)"><line class="f" x1="93.153" y2="53.782" transform="translate(0.93)"/><path class="f" d="M1086.114,439.038l18.63-10.756.233-20.373-18.631,10.756Z" transform="translate(-1010.895 -407.908)"/><path class="f" d="M1045.765,462.333l18.631-10.756.233-20.373L1046,441.96Z" transform="translate(-989.176 -420.447)"/><path class="f" d="M1005.417,485.629l18.63-10.756.233-20.373-18.63,10.756Z" transform="translate(-967.458 -432.986)"/><path class="f" d="M965.068,508.924,983.7,498.168l.232-20.373L965.3,488.551Z" transform="translate(-945.74 -445.526)"/><path class="f" d="M924.719,532.22l18.63-10.756.233-20.373-18.631,10.756Z" transform="translate(-924.021 -458.065)"/><path class="f" d="M1085.611,483.161l18.63-10.756.233-20.373-18.63,10.756Z" transform="translate(-1010.623 -431.658)"/><path class="f" d="M1045.262,506.457l18.631-10.756.233-20.373-18.631,10.756Z" transform="translate(-988.905 -444.197)"/><path class="f" d="M1004.913,529.752,1023.543,519l.232-20.373-18.63,10.756Z" transform="translate(-967.187 -456.736)"/><path class="f" d="M924.215,576.343l18.631-10.756.233-20.373L924.448,555.97Z" transform="translate(-923.75 -481.815)"/><path class="f" d="M1085.107,527.285l18.631-10.756.232-20.373-18.63,10.756Z" transform="translate(-1010.352 -455.408)"/><path class="f" d="M1004.409,573.875l18.63-10.756.233-20.373L1004.642,553.5Z" transform="translate(-966.916 -480.486)"/><path class="f" d="M964.06,597.171l18.63-10.756.233-20.373L964.293,576.8Z" transform="translate(-945.197 -493.026)"/><path class="f" d="M923.712,620.466l18.631-10.756.232-20.373-18.631,10.756Z" transform="translate(-923.479 -505.565)"/><path class="f" d="M1084.6,571.408l18.63-10.756.233-20.373-18.63,10.756Z" transform="translate(-1010.081 -479.158)"/><path class="f" d="M1044.254,594.7l18.631-10.756.233-20.373-18.631,10.756Z" transform="translate(-988.363 -491.697)"/><path class="f" d="M1003.906,618l18.631-10.756.233-20.373-18.631,10.756Z" transform="translate(-966.645 -504.236)"/><path class="f" d="M963.557,641.294l18.63-10.756.233-20.373-18.631,10.756Z" transform="translate(-944.926 -516.775)"/><path class="f" d="M923.208,664.59l18.63-10.756.233-20.373-18.631,10.756Z" transform="translate(-923.208 -529.315)"/></g></g><path class="g" d="M1098.962,253.13l52.211-30.041L1099.3,193.141l-52.552,29.948Z" transform="translate(-209.714 -11.685)"/><path class="d" d="M1212.038,258V434.308l-52.171,30.041-.041-176.308Z" transform="translate(-270.579 -46.596)"/><path class="h" d="M1098.962,288.041,1099,464.349l-52.252-30.041V258Z" transform="translate(-196.338 -46.596)"/><path class="i" d="M955.786,485.268l51.839-30.135-51.709-29.854L903.883,455.32Z" transform="translate(-113.232 -153.455)"/><path class="j" d="M1016.292,630.71l51.569-30.041V490.138l-51.569,30.041Z" transform="translate(-177.88 -210.646)"/><path class="k" d="M956.176,630.71l-51.569-30.041V490.138l51.569,30.041Z" transform="translate(-110.42 -210.646)"/><path class="c" d="M804.531,665.62l52.033-30.041-51.708-29.854L752.311,635.7Z" transform="translate(-16.423 -262.528)"/><path class="l" d="M805.442,770.829l-53.131-31.85V670.652l53.131,30.041Z" transform="translate(-16.423 -307.811)"/><g transform="translate(778.581 362.714)"><path class="m" d="M865.24,770.553V700.418l52.033-30.041v70.135Z" transform="translate(-865.24 -670.377)"/></g><path class="n" d="M1066.377,301.6l-48.021,93.917-65.8,79.188-60.026,43.172-34.284,51.777,7.118,4.314,33.9-49.618,57.742-40.6,68.737-83.15,45.972-92.07-5.339-6.926" transform="translate(-108.25 -109.164)"/><path class="n" d="M1286,296.678l19.97-11.428-1.154,24.934Z" transform="translate(-338.493 -67.945)"/><g transform="translate(764.35 277.455)"><ellipse class="a" cx="20.294" cy="10.082" rx="20.294" ry="10.082" transform="translate(0.418 94.714) rotate(-1.017)"/><path class="n" d="M825.547,658.957l-2.186-7.009L820.92,649.5c-3.481,2.962-2.755,2.82-2.358,4.493l2.313,5.522c1.441,2.592,2.041,3.216,3.706,3.561h0C825.93,662.808,825.956,661.23,825.547,658.957Z" transform="translate(-816.248 -558.006)"/><g transform="translate(3.1 57.807)"><path class="m" d="M823.321,614.428a2.633,2.633,0,0,0,1.445-.431c.357-.233,8.777-5.807,11.971-14.995,1.567-4.507,3.675-18.82,3.764-19.427a2.652,2.652,0,0,0-5.248-.769c-.586,4-2.363,15.106-3.527,18.454-2.588,7.443-9.791,12.249-9.863,12.3a2.653,2.653,0,0,0,1.457,4.87Z" transform="translate(-820.668 -576.538)"/></g><path class="n" d="M887.392,668.429l-6.615-3.182-3.451.117c-.209,4.567.182,3.939,1.676,4.79l5.614,2.075c2.878.714,3.742.7,5.131-.281h0C890.469,670.776,889.333,669.681,887.392,668.429Z" transform="translate(-848.036 -566.48)"/><g transform="translate(28.515 52.422)"><path class="m" d="M879.063,613.393a2.654,2.654,0,0,0,2.61-2.2c5.411-31.159-.66-44.271-.921-44.814a2.652,2.652,0,0,0-4.787,2.284c.092.2,5.536,12.521.483,41.622a2.655,2.655,0,0,0,2.616,3.107Z" transform="translate(-875.708 -564.877)"/></g><g transform="translate(37.18 19.628)"><path class="o" d="M898.356,501.763c.728,2.467,3.062,7.079,6.108,7.3,4.567.327,4.425-10.9,4.488-13.31.066-2.525,4-2.534,3.93,0-.135,5.167-.514,17.552-8.378,17.249-5.018-.193-8.674-5.906-9.939-10.191-.718-2.431,3.075-3.47,3.79-1.045Z" transform="translate(-894.475 -493.853)"/></g><path class="p" d="M887.122,489.182c2.513,2.019,4.263,5.512,6.017,9.1a2.309,2.309,0,0,1-.9,3.04l-3.507,2.9c-.816.358-2.2-1.173-2.627-1.992l-4.677-9.015a3.2,3.2,0,0,1,1-4.147h0A3.617,3.617,0,0,1,887.122,489.182Z" transform="translate(-850.07 -471.213)"/><path class="q" d="M861.166,491.25l9.481-1.935-1.171-4.669a11.519,11.519,0,0,0-7.3,2.166Z" transform="translate(-839.366 -469.257)"/><g transform="translate(14.596 48.185)"><path class="m" d="M861.7,569.084c-1.451,1-7.887,4.44-9.651,4.4-2.131-.053-3.177-.245-4.7-1.733-1.449-1.412-1.712-3.62-1.775-5.642a3.5,3.5,0,0,1,.223-1.645,3.555,3.555,0,0,1,1.273-1.26c3.882-2.693,11.579-9.438,16.745-6.965C869.781,559.093,864.126,567.4,861.7,569.084Z" transform="translate(-845.565 -555.7)"/></g><path class="p" d="M864.375,488.815c1.055,1.483.886,2.366.751,4.325a4.387,4.387,0,0,1-3.369,3.964l-19.088,4.509s-3.625-6.057.188-8.088c2.053-1.094,8.083-4.1,10.587-5.481C857.123,486.009,861.938,485.389,864.375,488.815Z" transform="translate(-828.572 -470.203)"/><path class="p" d="M865.669,527.145c-.3-.849-.623-19.13,1.018-31.965l-21.658,9.225c-.3,9.711.613,17.421-1.04,29.2Z" transform="translate(-830.12 -474.939)"/><path class="p" d="M851.051,570.461c5.327-1.7,10.762-3.974,13.849-7.454,1.477-.773,1-1.859-.621-2.89h0a6.309,6.309,0,0,0-5.641-.469l-13.5,7.065c-1.477.773-1.355,2.249.271,3.279h0A6.309,6.309,0,0,0,851.051,570.461Z" transform="translate(-830.183 -509.39)"/><path class="c" d="M871.859,491.431s2.311.087,2.911-3.917l1.548-.151c.206.177.655.082.806,1.436a6.12,6.12,0,0,1-.228,2.4l-.666,2.269a.779.779,0,0,1-1.209.393Z" transform="translate(-845.122 -470.732)"/><path class="o" d="M869.278,484.889l1.285-8.155-4.831,2.064-1.043,6.659C864.435,486.551,868.183,489.1,869.278,484.889Z" transform="translate(-841.256 -465.011)"/><rect class="o" width="10.711" height="17.34" rx="5.355" transform="translate(34.098 19.277) rotate(-174.382)"/><path class="n" d="M866.288,459.2a7.7,7.7,0,0,0,5.809.546c2.088-.654,2.271-3.481.769-5.071a10.594,10.594,0,0,0-3.465-2.322c-5.085-2.457-10.784-.362-11.369,5.587,0,0-1.009,8.136,3.67,9.648l.163-.495a1.433,1.433,0,0,0-.129-1.167,1.9,1.9,0,0,1,.779-2.817,3.335,3.335,0,0,0,1.373-2.518A1.8,1.8,0,0,1,866.288,459.2Z" transform="translate(-837.63 -451.344)"/><path class="o" d="M863.573,477.393a1.088,1.088,0,0,0,1.91-.166,2.614,2.614,0,0,0-.345-2.747,1.088,1.088,0,0,0-1.91.166A2.612,2.612,0,0,0,863.573,477.393Z" transform="translate(-840.344 -463.534)"/><path class="r" d="M872.219,490.828a21.076,21.076,0,0,1-2.521-.876,8.359,8.359,0,0,0,2.316,1.839Z" transform="translate(-843.958 -472.125)"/><path class="c" d="M866.238,492.371s-2.671.8-5.122-3.007l-1.8,2.058c-.165.32-.184.358.068.657l3.3,3.894a.9.9,0,0,0,1.421-.036Z" transform="translate(-838.303 -471.809)"/><g transform="translate(38.516 13.567)"><path class="s" d="M898.762,481.03l7.462,2.542-.9,2.638-7.462-2.541c-.458-.156-.629-.874-.381-1.6S898.3,480.874,898.762,481.03Z" transform="translate(-897.368 -480.874)"/><path class="s" d="M901.425,480.771l10.619,3.616-1.279,3.754-10.618-3.616c-.652-.223-.9-1.243-.542-2.28S900.772,480.548,901.425,480.771Z" transform="translate(-898.485 -480.728)"/><path class="n" d="M914.724,483.729l.013.006,13.033,4.044,0,0c.018.005.036.007.053.013.919.313,1.2,1.937.623,3.627s-1.787,2.806-2.707,2.493c-.017-.006-.033-.015-.049-.022l0,0-12.793-4.792h0c-.919-.313-1.254-1.771-.749-3.256S913.8,483.416,914.724,483.729Z" transform="translate(-905.195 -482.311)"/><g transform="translate(14.414 3.452)"><path class="p" d="M932.086,488.278l.016.007,6.3,1.541-2.86,7.651-5.732-2.515h0c-1.142-.389-1.559-2.2-.931-4.047S930.943,487.888,932.086,488.278Z" transform="translate(-928.586 -488.203)"/><ellipse class="s" cx="4.105" cy="2.89" rx="4.105" ry="2.89" transform="matrix(0.322, -0.947, 0.947, 0.322, 4.572, 8.503)"/><path class="n" d="M942.482,495.952c-.558,1.639-.075,3.285,1.079,3.678s2.541-.617,3.1-2.256.075-3.285-1.079-3.678S943.04,494.313,942.482,495.952Z" transform="translate(-935.941 -491.114)"/></g></g><rect class="o" width="4.736" height="4.485" rx="2.242" transform="translate(51.992 14.953) rotate(2.947)"/><g transform="translate(0 25.498)"><path class="o" d="M829.719,509.562c-1.828,3.879-4.582,7.247-6.527,11.072-3.666,7.208-4.914,15.258-5.306,23.258-.123,2.518-4.055,2.533-3.931,0,.4-8.216,1.672-16.392,5.185-23.9,2.038-4.354,5.143-8.084,7.185-12.417,1.078-2.286,4.467-.294,3.394,1.984Z" transform="translate(-813.953 -506.567)"/></g><path class="p" d="M840.677,505.764l-5.521,8.96c-2.164,2.184-7.217-2.524-5.612-4.471l6.046-8.145a3.141,3.141,0,0,1,4.173-.591h0A3.14,3.14,0,0,1,840.677,505.764Z" transform="translate(-822.178 -478.06)"/><path class="p" d="M947.24,496.075a.863.863,0,0,1,1.515-.28c.391.531.53,1.447-.365,3.01C946.728,501.714,946.5,498.656,947.24,496.075Z" transform="translate(-885.481 -475.086)"/><path class="c" d="M946.981,496.027a.521.521,0,1,0,.76-.267A.575.575,0,0,0,946.981,496.027Z" transform="translate(-885.5 -475.218)"/></g><g transform="translate(851.635 171.433)"><g transform="translate(29.874 18.154)"><path class="o" d="M1126.505,213.217c-.774,4.961-2.573,8.587-5.042,12.861-.811,1.4-1.688,2.653-1.417,4.285.372,2.242,1.079,4.374,1.331,6.666.275,2.509-3.655,2.489-3.928,0-.45-4.1-2.315-7.175-.369-11.121,1.022-2.072,2.391-3.947,3.458-5.992a24.635,24.635,0,0,0,2.179-7.742c.388-2.49,4.174-1.432,3.787,1.044Z" transform="translate(-1116.211 -210.751)"/></g><g transform="translate(30.355 17.533)"><path class="c" d="M1128.025,212.591c-1.6,4.559-3.741,8.832-5.526,13.307-1.234,3.093-6.3,1.744-5.05-1.392,1.786-4.477,3.924-8.751,5.527-13.307,1.111-3.158,6.173-1.8,5.05,1.392Z" transform="translate(-1117.251 -209.406)"/></g><g transform="translate(23.845 43.972)"><path class="o" d="M1121.861,271.723c-4.408,1.985-9.828,5.71-12.083,10.141-1.315,2.584-1.12,5.233-.971,8q.391,7.282.78,14.565c.191,3.565-5.353,3.554-5.543,0l-.853-15.924a17.13,17.13,0,0,1,2.424-10.514c3.043-4.665,8.417-8.787,13.448-11.054,3.227-1.454,6.049,3.322,2.8,4.786Z" transform="translate(-1103.153 -266.665)"/></g><g transform="translate(8.051 51.699)"><path class="o" d="M1069.7,301.225c4.011-4.363,6.874-9.474,11.372-13.437,2.787-2.456,5.812-3.814,9.452-2.756,4.384,1.275,8,1.513,11.982-1.158,2.97-1.993,5.748,2.807,2.8,4.786a16.682,16.682,0,0,1-12.314,2.708c-1.5-.248-2.9-.777-4.373-1.122-.608-.143-.556-.171-.877-.127-1.314.176-2.488,1.332-3.4,2.178-4.15,3.859-6.918,8.709-10.722,12.847-2.42,2.632-6.332-1.3-3.92-3.919Z" transform="translate(-1068.948 -283.4)"/></g><path class="t" d="M1072,336.97l-.171-.354a.408.408,0,0,1,.189-.543h0a.409.409,0,0,1,.544.189l.171.354a.408.408,0,0,1-.189.544h0A.408.408,0,0,1,1072,336.97Z" transform="translate(-1062.424 -260.031)"/><path class="u" d="M1071.878,334.44l1.1-1.482a.409.409,0,0,1,.569-.085h0a.408.408,0,0,1,.084.57l-1.1,1.482a.408.408,0,0,1-.569.085h0A.408.408,0,0,1,1071.878,334.44Z" transform="translate(-1062.431 -258.288)"/><g transform="translate(0 68.453)"><path class="n" d="M1066.423,323.314c.156-.968-.233-2.435-.853-2.667l-2.964,1.167-.248-.085c-1.443.4-8.216,1.63-10.317,2.321-1.068.351-.192,1.7-.192,1.7a12.112,12.112,0,0,0,5.625,3.116c1.655.063,1.7-1.493,4.031-2.295.394-.135,1.05-.087.93.228l-1.393,1.676.7.335s2.218-2.227,3.8-3.663A2.292,2.292,0,0,0,1066.423,323.314Z" transform="translate(-1051.511 -320.202)"/><path class="o" d="M1070.336,319.684l-1.836.1s-6.165,2.349-7.367,2.842c-1.395.572,1.03,5.139,8.131.954C1073.532,321.753,1070.336,319.684,1070.336,319.684Z" transform="translate(-1056.488 -319.684)"/></g><path class="v" d="M1111.72,259.2c-9.5,6.027-15.3,11.537-14.945,14.125,0,0,4.735-2.624,8.449-.468,3.672,2.132,2.874,3.964,1.937,4.948-.3.31,1.63,2.359,2.058,2.372,4.4.133,18.037-1.476,18.306-9.783.229-7.041-.734-7.883-.734-7.883S1116.886,265.948,1111.72,259.2Z" transform="translate(-1075.866 -218.676)"/><path class="c" d="M1131.14,216.313s-3.625,5.033-3.427,8.206c.126,2.019,1.443,4.357,1.617,5.012,1.427,5.354.38,6.89.483,8.355,0,0,.865,5.064,13.474,1.05l5.577-14.77Z" transform="translate(-1092.524 -195.59)"/><path class="c" d="M1149.631,222.455c.115-.19,1.306-2.067,1.354-2.284.554-2.5,2.018-4.4-.652-7.71-.556-.689-6.7-4.493-11.5-5.649a5.182,5.182,0,0,0-5.805,2.755,27.181,27.181,0,0,0-1.313,3.759c-.518,4.97,2.066-1.446,2.258,1.326-.008-.067-.021-.136-.027-.2,0,0,.334,4.682.583,8.308.153,2.262.259,3.9.265,4.126,0,.01,0,.025,0,.028l8.036,7.121,4.891-7.744h0Z" transform="translate(-1094.645 -190.401)"/><path class="o" d="M1145.183,206.859s-4.458,4.1-.986,7.393,10.084-3.236,10.084-3.236C1151.135,208.785,1148.078,207.218,1145.183,206.859Z" transform="translate(-1100.688 -190.502)"/><path class="m" d="M1149.59,235.906c-.545.227-2.056,2.254-3.243,3.305-2.305,2.04-5.647,3.219-8.595,2.331a48.017,48.017,0,0,1-8.649-3.786s.891,5.395,0,8.906c-.591,2.331,4.343,4.1,4.343,4.1,5.457,2.046,10.728-.788,10.728-.788l4.045-10.818Z" transform="translate(-1093.249 -206.137)"/><g transform="translate(41.749 15.815)"><path class="j" d="M1143.437,206.042c-1.062,2.278-2.685,6.058-.2,7.823,3.455,2.453,7.644-.29,10.331-2.611.676-.584-.308-1.561-.98-.98-1.94,1.676-5.294,4.1-7.911,2.8-1.866-.929-1.344-2.009-.908-3.611a17.053,17.053,0,0,1,.863-2.72c.375-.8-.82-1.508-1.2-.7Z" transform="translate(-1141.927 -205.685)"/></g><path class="t" d="M1115.125,359.275l-.349-.182a.409.409,0,0,1-.172-.549h0a.408.408,0,0,1,.549-.172l.348.182a.408.408,0,0,1,.172.549h0A.408.408,0,0,1,1115.125,359.275Z" transform="translate(-1085.447 -272.03)"/><path class="u" d="M1114.551,356.55V354.7a.409.409,0,0,1,.407-.407h0a.408.408,0,0,1,.407.407v1.846a.408.408,0,0,1-.407.407h0A.408.408,0,0,1,1114.551,356.55Z" transform="translate(-1085.443 -269.862)"/><g transform="translate(19.489 77.879)"><path class="n" d="M1104.994,342.213c-.452-.871-1.638-1.817-2.275-1.634l-1.684,2.7-.25.079c-.92,1.182-5.627,6.2-6.9,8.011-.649.918.856,1.477.856,1.477a12.114,12.114,0,0,0,6.374-.85c1.367-.935.475-2.211,1.87-4.244.235-.343.792-.7.883-.372l-.12,2.176.758-.145s.454-3.111.866-5.2A2.293,2.293,0,0,0,1104.994,342.213Z" transform="translate(-1093.719 -340.345)"/><path class="o" d="M1105.6,340.1l-1.415,1.172s-3.552,5.56-4.223,6.672c-.779,1.29,3.889,3.513,7.1-4.079C1109.4,339.859,1105.6,340.1,1105.6,340.1Z" transform="translate(-1097.031 -340.099)"/></g><path class="n" d="M1131.325,183.942c-.56,1.58-.709,3.483.319,4.807.188.243.411.458.622.682a10.071,10.071,0,0,1,1.433,1.938.992.992,0,0,0,.25.328.7.7,0,0,0,.864-.162,4.786,4.786,0,0,0,.521-.8c.52-.8,11.393,5.538,11.929,4.752.725-1.064-1.95-13.087-2.232-14.344-.359-1.6-8.3.521-9.6-.479a7.508,7.508,0,0,1-.765-.586h0c-.33-.33-.631-1.029-1.179-.792-.439.19-.587.984-.74,1.368C1132.3,181.762,1131.724,182.814,1131.325,183.942Z" transform="translate(-1094.236 -175.633)"/><path class="o" d="M1146.633,203.083l-2.19-8.453,5.3,1.677,1.782,6.9C1151.9,204.335,1148.218,207.4,1146.633,203.083Z" transform="translate(-1101.533 -183.919)"/><path class="r" d="M1148.039,206.676s2.377-1.217,2.386-1.24a6.273,6.273,0,0,1-1.993,2.405Z" transform="translate(-1103.468 -189.736)"/><rect class="o" width="9.431" height="15.268" rx="4.715" transform="translate(39.031 1.202) rotate(-1.913)"/><path class="n" d="M1142.392,178.442c-1.659-2.049-4.729.393-6.385-.246-1.8-.693-1.187-2.54.032-4.031a6.789,6.789,0,0,1,3.148-2.1c4.651-1.758,9.318.21,9.494,5.47,0,0,.607,7.155-3.59,8.218l-.455-1s2.414-2.663-.158-4.217c-.6-.363-.628-.374-.573-1.248S1142.95,179.131,1142.392,178.442Z" transform="translate(-1096.384 -171.433)"/><path class="o" d="M1156.827,196.37a1.105,1.105,0,0,1-1.888-.473,2.652,2.652,0,0,1,.787-2.7,1.1,1.1,0,0,1,1.888.474A2.653,2.653,0,0,1,1156.827,196.37Z" transform="translate(-1107.124 -182.96)"/><path class="n" d="M1134,186.918s.07-2.417,5.854-5.576.262-.146.262-.146l-5.735-1.3S1132.116,182.471,1134,186.918Z" transform="translate(-1095.51 -175.99)"/><g transform="translate(42.973 26.261)"><path class="o" d="M1159.84,229.73a56.625,56.625,0,0,1,.408,9.763c-.059,3.039.815,6.576-.063,9.56-.568,1.927-2.132,2.779-4.024,3.006-3.221.387-6.483.228-9.716.639-2.5.318-2.478-3.613,0-3.928,2.782-.354,5.543-.415,8.338-.538,1.43-.063,1.6.227,1.736-.955.321-2.82-.286-5.762-.174-8.6a41.058,41.058,0,0,0-.292-7.9c-.369-2.473,3.415-3.54,3.788-1.044Z" transform="translate(-1144.579 -228.307)"/></g><g transform="translate(52.39 22.778)"><path class="c" d="M1170.212,222.524c2.4,6.178,1.8,12.055,1.638,18.519-.083,3.364-5.32,3.377-5.237,0,.149-6.007.777-11.386-1.451-17.127-1.22-3.144,3.842-4.506,5.05-1.392Z" transform="translate(-1164.973 -220.764)"/></g><path class="o" d="M1120.8,264.9h0a2.271,2.271,0,0,1-2.6-1.875l-.777-4.824a2.27,2.27,0,0,1,1.875-2.595h0a2.27,2.27,0,0,1,2.595,1.875l.777,4.824A2.27,2.27,0,0,1,1120.8,264.9Z" transform="translate(-1086.978 -216.723)"/><path class="w" d="M1125.172,272.424l0-.439-.566.219-.121-.279-14.157-8.174a.745.745,0,0,0-.668.028l-6.1,3.519v-.1l-1.127.453v.467h.008a.219.219,0,0,0,.107.121l14.732,8.506a.747.747,0,0,0,.668-.028l7.059-4.076a.273.273,0,0,0,.163-.217Z" transform="translate(-1078.922 -221.089)"/><path class="x" d="M1117.264,275.739l-14.732-8.506c-.17-.1-.149-.272.048-.386l7.059-4.075a.743.743,0,0,1,.668-.028l14.732,8.505c.17.1.149.272-.048.386l-7.059,4.076A.745.745,0,0,1,1117.264,275.739Z" transform="translate(-1078.912 -220.547)"/><path class="w" d="M1132.563,275.415,1129,273.357c-.041-.024-.036-.066.011-.093l1.708-.986a.179.179,0,0,1,.162-.007l3.565,2.058c.041.024.036.066-.011.093l-1.708.987A.18.18,0,0,1,1132.563,275.415Z" transform="translate(-1093.204 -225.701)"/><path class="c" d="M1114.884,259.266a1.6,1.6,0,0,0-.678-1.026l-14.626-8.312a.364.364,0,0,0-.323-.051h0a.206.206,0,0,0-.075.059l-.484.508.44-.039,1.39,8.988a1.6,1.6,0,0,0,.678,1.026l13.831,7.86.447.5.055.123c.28.06.95-.415.95-.415Z" transform="translate(-1076.907 -213.646)"/><path class="n" d="M1115.187,269.906l-14.626-8.312a1.6,1.6,0,0,1-.679-1.026l-1.405-9.087c-.06-.388.147-.557.462-.378l14.626,8.312a1.6,1.6,0,0,1,.679,1.026l1.405,9.087C1115.709,269.915,1115.5,270.084,1115.187,269.906Z" transform="translate(-1076.786 -214.278)"/><path class="o" d="M1136.589,275.7h0a2.271,2.271,0,0,1,1.446-2.856l4.1-1.343a2.271,2.271,0,0,1,2.857,1.446h0a2.271,2.271,0,0,1-1.446,2.856l-4.1,1.342A2.27,2.27,0,0,1,1136.589,275.7Z" transform="translate(-1097.245 -225.234)"/><path class="c" d="M1115.241,270.859c.075.483-.363.591-.978.241a2.62,2.62,0,0,1-1.249-1.507c-.074-.483.364-.591.978-.242A2.623,2.623,0,0,1,1115.241,270.859Z" transform="translate(-1084.611 -224.029)"/><path class="n" d="M1149.816,183.33s4.65,6.087,4.235,10.07c-.343,3.292-3.921,5.388-4.558,10.363a1.037,1.037,0,0,0,1.847.758,14.371,14.371,0,0,1,3.132-3.038c3.1-2.123,3.67-4.383,3.377-6.038s-1.585-13.739-1.585-13.739l-7.133-.71Z" transform="translate(-1104.056 -176.58)"/></g><g transform="translate(926.444 283.355)"><path class="y" d="M1240.384,467.066s10.4,26.113,35.276,35.454" transform="translate(-1240.384 -467.066)"/><ellipse class="a" cx="15.748" cy="9.092" rx="15.748" ry="9.092" transform="translate(23.011 97.18) rotate(-0.311)"/><path class="n" d="M1343.49,687.231l-.8-5.683,1.082-2.817c1.444-.882,2.264-1.234,3.526-.578,1.061.552,1.313,2.529,1.294,3.628l-.617,5.017c-.309,3.653-1.605,3.965-2.734,4.088h0C1343.922,690.909,1343.574,689.439,1343.49,687.231Z" transform="translate(-1295.451 -580.504)"/><path class="n" d="M1290.135,688.752l6.727,1.456.88,2.351c.2,1.68.175,2.572-.949,3.444-.945.733-2.845.135-3.837-.341l-4.3-2.656c-3.19-1.808-2.932-3.115-2.573-4.193h0C1286.613,687.607,1288.094,687.906,1290.135,688.752Z" transform="translate(-1264.872 -585.992)"/><g transform="translate(40.214 21.488)"><path class="o" d="M1330.724,514.094c5.01,4.417,8.44,10.855,11.53,16.686a6.378,6.378,0,0,1,1,3.431c0,4.686-.235,9.13.489,13.819.366,2.364-3.257,3.375-3.627.985a62.855,62.855,0,0,1-.743-13.147,10.732,10.732,0,0,0-.248-2.973c-2.963-5.62-6.215-11.87-11.035-16.119-1.819-1.6.827-4.276,2.635-2.681Z" transform="translate(-1327.477 -513.604)"/></g><path class="z" d="M1330.832,514.129c3.158,2.572,6.552,8.349,9.487,12.674.943,1.117,1.049,2.562.218,2.978l-2.581,1.987c-.685.343-2.031-1.169-2.725-2.159l-8.086-10.221c-1.244-1.774-1.418-3.818-.4-4.729l-.358-1.048C1326.324,512.727,1328.507,512.357,1330.832,514.129Z" transform="translate(-1286.513 -491.722)"/><ellipse class="c" cx="1.8" cy="3.118" rx="1.8" ry="3.118" transform="matrix(0.863, -0.505, 0.505, 0.863, 40.688, 47.076)"/><path class="aa" d="M1304.928,486.089l-.026.711s-.093,2.141,2.014,1.034a4.392,4.392,0,0,0,2.042-3.778S1307.356,483.867,1304.928,486.089Z" transform="translate(-1275.112 -476.209)"/><path class="ab" d="M1308.6,482.809s-1.949-.126-5.015,2.508l-.081.85.022-.011s-.1,2.5,2.651,1.069A4.616,4.616,0,0,0,1308.6,482.809Zm-2.46,4.045c-2.045,1.063-1.973-.792-1.973-.792l.019-.616c2.348-2.043,3.911-1.961,3.911-1.961A3.826,3.826,0,0,1,1306.141,486.854Z" transform="translate(-1274.36 -475.539)"/><path class="ab" d="M1301.326,489.148l1.634-.746.089-.925-1.634.746Z" transform="translate(-1273.187 -478.053)"/><path class="ab" d="M1313.96,483.325l.29-.132a.65.65,0,0,0,.32-.491h0c.02-.2-.093-.3-.251-.231l-.289.132a.654.654,0,0,0-.321.492h0C1313.69,483.294,1313.8,483.4,1313.96,483.325Z" transform="translate(-1279.851 -475.345)"/><path class="ac" d="M1311.955,485.752h0c.068-.081.089-.185.047-.231l-.488-.538c-.042-.046-.131-.018-.2.064h0c-.068.082-.089.185-.047.231l.488.538C1311.8,485.862,1311.886,485.833,1311.955,485.752Z" transform="translate(-1278.526 -476.698)"/><g transform="translate(25.641 60.821)"><path class="p" d="M1304.32,602.353c-2.5,7.333-2.73,15.216-2.495,22.891.175,5.719,1.078,11.488.935,17.209-.094,3.752-5.936,3.766-5.842,0,.147-5.879-.789-11.805-.949-17.684-.218-8,.115-16.332,2.718-23.969,1.206-3.538,6.85-2.019,5.632,1.553Z" transform="translate(-1295.915 -598.789)"/></g><g transform="translate(38.007 54.186)"><path class="p" d="M1330.487,588.036a73.194,73.194,0,0,0-1.981,17.415c0,15.2,8.692,19.187,8.693,25.044,0,1.981-4.2,2.443-5.571.124-3.5-5.926-7.433-11.94-8.3-19a98.528,98.528,0,0,1-.537-13.922,48.721,48.721,0,0,1,2.064-11.211c1-3.62,6.633-2.083,5.633,1.553Z" transform="translate(-1322.697 -584.419)"/></g><path class="p" d="M1312.332,591.847h0c-.539.6,1.778-2.336,1.084-1.917-1.444.873-9.554,6.383-11.241,6.411-2.039.034-.85-1.937-2.368-3.3-1.44-1.292-1.779-3.39-1.919-5.32a3.347,3.347,0,0,1,.147-1.581,3.4,3.4,0,0,1,1.167-1.254c3.6-2.727,10.688-9.476,15.722-7.318C1320.74,580.065,1314.913,588.953,1312.332,591.847Z" transform="translate(-1271.323 -526.321)"/><path class="d" d="M1315.114,513.024c1.067,1.375.94,2.225.889,4.1a4.194,4.194,0,0,1-3.062,3.92l-17.324,5.064s-1.771-6.947,1.791-9.038c1.919-1.127,4.9-2.929,7.233-4.352C1308.074,510.63,1312.65,509.847,1315.114,513.024Z" transform="translate(-1269.877 -490.657)"/><path class="o" d="M1313.9,507.063l-1.527-6.807-4.152,2.794,1.25,6.2C1309.6,510.254,1314.2,509.375,1313.9,507.063Z" transform="translate(-1276.899 -484.931)"/><path class="o" d="M1304.73,478.074s4.162-2.9,4.2,4.146a12.288,12.288,0,0,1-6.969,11.06c-2.5,1.191-5.565-.334-5.7-2.775-.6-3.56-.605-6.888.562-9.752-.165-2.943,1.859-1.9,5.358-2.086Z" transform="translate(-1270.247 -472.673)"/><path class="n" d="M1306.486,490.031s4.814-1.787,4.356-8.561c-.495-7.329-7.236-6.7-10.982-7.058-1.66-.159-2.813-.4-4.512,1.117-1.546,1.378-.1,4.475,2.116,4.675.879.079.476,2.446.654,3.258.315,1.444,1.215,2.15,1.548,3.55.315,1.325,2.268,3.4,3.537,3.547A4.693,4.693,0,0,0,1306.486,490.031Z" transform="translate(-1269.623 -470.957)"/><path class="d" d="M1317.148,550.076c1.143-.447.584-20.3-.606-31.263l-20.187,9.718c.236,9.333,1.514,16.7.565,28.073Z" transform="translate(-1270.511 -494.92)"/><path class="d" d="M1304.453,591.973c4.995-1.84,9.75-3.856,12.511-7.319,1.369-.8,1.174-2.212-.433-3.137h0a6.017,6.017,0,0,0-5.411-.225l-12.511,7.319c-1.369.8-1.174,2.213.433,3.137h0A6.016,6.016,0,0,0,1304.453,591.973Z" transform="translate(-1271.233 -528.259)"/><path class="z" d="M1295.551,538.027l3.582-.608c.137,9.055,1.247,16.328.154,27.445l.055-.018a2.186,2.186,0,0,0,1.318,1.815h0a6.033,6.033,0,0,0,5.408.224,57.979,57.979,0,0,0,6.873-2.9c-2.772,2.125-6.425,3.606-10.214,4.988a6.033,6.033,0,0,1-5.408-.224h0a2.184,2.184,0,0,1-1.318-1.815l-.055.018C1297.059,555.632,1295.653,547.316,1295.551,538.027Z" transform="translate(-1270.078 -504.934)"/><path class="c" d="M1305.1,515.751c4.663-.7,7.813,2.23,8.926-4.486h0a1.491,1.491,0,0,0-2.014.441,4.645,4.645,0,0,1-4.383,1.656,1.478,1.478,0,0,0-1.422.667Z" transform="translate(-1275.218 -490.738)"/><path class="o" d="M1303,496.465c-.1,1.159.493,2.157,1.323,2.228a1.116,1.116,0,0,0,.269-.01,2.035,2.035,0,0,0,1.415-1.96c.1-1.159-.493-2.157-1.324-2.228S1303.1,495.306,1303,496.465Z" transform="translate(-1274.08 -481.828)"/><path class="d" d="M1285.057,526.856l-8.7-5.513c-2.219-2.159,1.4-7.19,3.343-5.588l10.307,4.836c1.236,1.031-.594,4.03-1.246,5.36h0A2.486,2.486,0,0,1,1285.057,526.856Z" transform="translate(-1259.372 -493.107)"/></g><ellipse class="a" cx="26.601" cy="15.049" rx="26.601" ry="15.049" transform="translate(857.892 420.274)"/><g transform="translate(885.654 382.301)"><path class="b" d="M1207.768,730.7a21.49,21.49,0,0,1-.874,6.6c-1.036,3.6-4.283,7.009-9.636,9.517-11.746,5.5-29.151,4.579-38.874-2.064-4.532-3.1-6.593-6.889-6.315-10.613-.047-.348.313-4.969.313-4.969a11.573,11.573,0,0,1,2.115-3.763,19.878,19.878,0,0,1,8.072-6.3c11.746-5.5,29.151-4.579,38.875,2.065C1205.538,723.967,1207.61,727.333,1207.768,730.7Z" transform="translate(-1152.043 -714.259)"/><ellipse class="c" cx="27.61" cy="15.62" rx="27.61" ry="15.62" transform="translate(0.287 0.852)"/><ellipse class="d" cx="27.61" cy="15.62" rx="27.61" ry="15.62" transform="translate(0.286)"/></g><g transform="translate(885.654 380.792)"><path class="b" d="M1207.768,711.679a21.486,21.486,0,0,1-.874,6.6c-1.036,3.6-4.283,7.009-9.636,9.517-11.746,5.5-29.151,4.579-38.874-2.064-4.532-3.1-6.593-6.889-6.315-10.613-.047-.348.313-4.97.313-4.97a11.576,11.576,0,0,1,2.115-3.763,19.881,19.881,0,0,1,8.072-6.3c11.746-5.5,29.151-4.579,38.875,2.064C1205.538,704.943,1207.61,708.308,1207.768,711.679Z" transform="translate(-1152.043 -695.234)"/><ellipse class="c" cx="27.61" cy="15.62" rx="27.61" ry="15.62" transform="translate(0.287 0.852)"/><ellipse class="d" cx="27.61" cy="15.62" rx="27.61" ry="15.62" transform="translate(0.287)"/><ellipse class="ad" cx="19.302" cy="10.92" rx="19.302" ry="10.92" transform="translate(8.575 4.29)"/><ellipse class="ae" cx="24.062" cy="13.612" rx="24.062" ry="13.612" transform="translate(3.894 2.04)"/><path class="af" d="M1177.609,706.91c8.211-3.847,20.379-3.2,27.176,1.443,2.709,1.851,4.155,4.058,4.4,6.287.289-2.669-1.144-5.4-4.4-7.625-6.8-4.645-18.965-5.291-27.176-1.443-4.938,2.314-7.321,5.725-6.958,9.088C1170.967,711.75,1173.326,708.917,1177.609,706.91Z" transform="translate(-1162.04 -698.772)"/><path class="b" d="M1210.1,712.505l-4.419,1.19-5.231-.8-3.011.8-2.211.362-.031,2.542a2.45,2.45,0,0,0,0,.344v.005h0c.072,1.227.986,2.53,1.336,3.576l-1.857.369-3.1-.786.843,1.068,4.249-.018a1.036,1.036,0,0,1-.662,1.048,3.154,3.154,0,0,1-2.683.116l-.9-1.146-.833,0a4.315,4.315,0,0,1-1.142-2.355l-1.646.1-2.378-2.171v2.312a4.184,4.184,0,0,0,.878,2.28l-1.2.386v2.312l2.288,1.524,2.642-1.307a10.043,10.043,0,0,0,8.557.037c1.322-.654,1.805-1.431,1.859-2.239h0v-.01a2.432,2.432,0,0,0,0-.3v-2l-.63.073c-.689-1.378-1.546-2.594-.4-3.163a3.161,3.161,0,0,1,3.372.358,2.547,2.547,0,0,1,1.3,2.341l3.879.107a4.039,4.039,0,0,0,0-.9v-1.41l-.607-1.469,1.74-.861Z" transform="translate(-1170.372 -703.855)"/><path class="c" d="M1188.635,719.65a5.578,5.578,0,0,1-2.22-3.721l4.025-.239a4.2,4.2,0,0,0,1.9,2.976,3.419,3.419,0,0,0,3.663.405c2.617-1.3-3.662-5.418.91-7.681a9.728,9.728,0,0,1,8.285.062l2.616-1.295,2.288,1.524-2.565,1.27a3.664,3.664,0,0,1,1.432,3.372l-3.879-.107a2.547,2.547,0,0,0-1.3-2.341,3.161,3.161,0,0,0-3.372-.358c-2.413,1.194,4.018,5.242-.834,7.643a10.043,10.043,0,0,1-8.557-.037l-2.642,1.307-2.288-1.524Z" transform="translate(-1170.372 -702.592)"/><path class="d" d="M1188.635,718.7a5.576,5.576,0,0,1-2.22-3.721l4.025-.239a4.2,4.2,0,0,0,1.9,2.976,3.418,3.418,0,0,0,3.663.405c2.617-1.295-3.662-5.418.91-7.681a9.728,9.728,0,0,1,8.285.063l2.616-1.3,2.288,1.524-2.565,1.27a3.664,3.664,0,0,1,1.432,3.373l-3.879-.107a2.547,2.547,0,0,0-1.3-2.341,3.161,3.161,0,0,0-3.372-.358c-2.413,1.194,4.018,5.242-.834,7.643a10.042,10.042,0,0,1-8.557-.037l-2.642,1.307-2.288-1.524Z" transform="translate(-1170.372 -702.078)"/></g><g transform="translate(848.169 413.533)"><g transform="translate(0 0)"><path class="b" d="M1097.584,798.344a21.5,21.5,0,0,1-.873,6.6c-1.036,3.6-4.283,7.009-9.636,9.517-11.746,5.5-29.151,4.579-38.874-2.064-4.532-3.1-6.593-6.889-6.315-10.613-.048-.348.313-4.969.313-4.969a11.575,11.575,0,0,1,2.115-3.763,19.879,19.879,0,0,1,8.072-6.3c11.747-5.5,29.152-4.579,38.875,2.064C1095.355,791.608,1097.426,794.974,1097.584,798.344Z" transform="translate(-1041.86 -781.899)"/><ellipse class="c" cx="27.61" cy="15.62" rx="27.61" ry="15.62" transform="translate(0.286 0.852)"/><ellipse class="d" cx="27.61" cy="15.62" rx="27.61" ry="15.62" transform="translate(0.286)"/><ellipse class="ad" cx="19.302" cy="10.92" rx="19.302" ry="10.92" transform="translate(8.575 4.29)"/><ellipse class="ae" cx="24.062" cy="13.612" rx="24.062" ry="13.612" transform="translate(3.894 2.04)"/></g><path class="af" d="M1067.426,793.575c8.212-3.847,20.379-3.2,27.177,1.443,2.709,1.851,4.156,4.059,4.4,6.287.288-2.669-1.144-5.4-4.4-7.626-6.8-4.645-18.964-5.291-27.177-1.443-4.938,2.314-7.321,5.726-6.957,9.088C1060.783,798.415,1063.143,795.582,1067.426,793.575Z" transform="translate(-1051.857 -785.437)"/><path class="b" d="M1099.918,799.17l-4.419,1.19-5.231-.8-3.011.8-2.211.362-.031,2.542a2.412,2.412,0,0,0,0,.344v.005h0c.072,1.227.985,2.53,1.335,3.577l-1.857.369-3.1-.786.843,1.068,4.249-.018a1.035,1.035,0,0,1-.661,1.048,3.154,3.154,0,0,1-2.683.116l-.9-1.146-.833,0a4.325,4.325,0,0,1-1.142-2.354l-1.646.1-2.378-2.171v2.312a4.186,4.186,0,0,0,.878,2.28l-1.2.386v2.311l2.288,1.524,2.642-1.307a10.043,10.043,0,0,0,8.558.037c1.322-.654,1.805-1.431,1.859-2.239h0v-.01a2.36,2.36,0,0,0,0-.3v-2l-.629.072c-.688-1.377-1.546-2.594-.4-3.163a3.16,3.16,0,0,1,3.372.358,2.547,2.547,0,0,1,1.3,2.341l3.88.107a4,4,0,0,0,0-.9v-1.41l-.607-1.469,1.74-.861Z" transform="translate(-1060.189 -790.52)"/><path class="c" d="M1078.452,806.315a5.576,5.576,0,0,1-2.221-3.721l4.024-.239a4.2,4.2,0,0,0,1.9,2.976,3.418,3.418,0,0,0,3.663.405c2.616-1.295-3.662-5.418.91-7.681a9.728,9.728,0,0,1,8.285.063l2.616-1.3,2.288,1.524-2.566,1.27a3.662,3.662,0,0,1,1.432,3.372l-3.88-.107a2.547,2.547,0,0,0-1.3-2.341,3.16,3.16,0,0,0-3.372-.358c-2.413,1.194,4.018,5.242-.834,7.643a10.043,10.043,0,0,1-8.558-.037L1078.2,809.1l-2.288-1.524Z" transform="translate(-1060.189 -789.257)"/><path class="d" d="M1078.452,805.361a5.575,5.575,0,0,1-2.221-3.721l4.024-.239a4.2,4.2,0,0,0,1.9,2.976,3.418,3.418,0,0,0,3.663.405c2.616-1.295-3.662-5.418.91-7.681a9.73,9.73,0,0,1,8.285.063l2.616-1.3,2.288,1.524-2.566,1.27a3.662,3.662,0,0,1,1.432,3.373l-3.88-.107a2.547,2.547,0,0,0-1.3-2.341,3.162,3.162,0,0,0-3.372-.358c-2.413,1.195,4.018,5.242-.834,7.644a10.045,10.045,0,0,1-8.558-.038l-2.642,1.308-2.288-1.524Z" transform="translate(-1060.189 -788.743)"/></g></g></svg>