<svg xmlns="http://www.w3.org/2000/svg" xmlns:xlink="http://www.w3.org/1999/xlink" width="609.036" height="656.899" viewBox="0 0 609.036 656.899"><defs><style>.a{fill:#d9d6ed;}.b{fill:url(#a);}.c{fill:#fff;}.d{fill:#ecebf5;}.e,.f{fill:none;stroke:#6184de;stroke-miterlimit:10;stroke-width:2px;}.f{opacity:0.6;}.g{fill:url(#b);}.h{fill:#8e8e8d;}.i{fill:url(#d);}.j{fill:#9fa6d7;}.k{fill:#a2aeba;}.l{fill:url(#g);}.m{fill:url(#i);}.n{fill:url(#l);}.o{fill:url(#n);}.p{fill:url(#af);}.q{fill:url(#ah);}.r{fill:url(#al);}.s{fill:url(#am);}.t{fill:url(#an);}.u{fill:url(#ao);}.v{fill:url(#ap);}.w{fill:url(#aq);}.x{fill:url(#ar);}.y{fill:url(#as);}.z{opacity:0.5;mix-blend-mode:screen;isolation:isolate;fill:url(#at);}</style><linearGradient id="a" y1="0.5" x2="1" y2="0.5" gradientUnits="objectBoundingBox"><stop offset="0" stop-color="#f28fd5"/><stop offset="1" stop-color="#1cb2f0"/></linearGradient><linearGradient id="b" y1="0.5" x2="1" y2="0.5" gradientUnits="objectBoundingBox"><stop offset="0" stop-color="#65b6fc"/><stop offset="1" stop-color="#8548f0"/></linearGradient><linearGradient id="d" y1="0.5" x2="1" y2="0.5" gradientUnits="objectBoundingBox"><stop offset="0" stop-color="#fff"/><stop offset="1" stop-color="#d3dde7"/></linearGradient><linearGradient id="g" x1="0.494" y1="0.05" x2="0.283" y2="0.963" gradientUnits="objectBoundingBox"><stop offset="0" stop-color="#f7da5c"/><stop offset="1" stop-color="#f15dab"/></linearGradient><linearGradient id="i" x1="0" y1="0.5" x2="1" y2="0.5" xlink:href="#b"/><linearGradient id="l" x1="1.567" y1="0.276" x2="-0.646" y2="0.774" xlink:href="#b"/><linearGradient id="n" x1="0" y1="0.5" x2="1" y2="0.5" xlink:href="#b"/><linearGradient id="af" x1="0" y1="0.5" x2="1.253" y2="0.5" xlink:href="#b"/><linearGradient id="ah" x1="0" y1="0.5" x2="1.224" y2="0.5" xlink:href="#b"/><radialGradient id="al" cx="-0.024" cy="-3.851" r="7.486" gradientTransform="translate(0.337) scale(0.325 1)" gradientUnits="objectBoundingBox"><stop offset="0" stop-color="#78ffd6"/><stop offset="0.187" stop-color="#71f9d9"/><stop offset="0.448" stop-color="#5febe2"/><stop offset="0.751" stop-color="#41d4f0"/><stop offset="1" stop-color="#24bdff"/></radialGradient><radialGradient id="am" cx="-1.587" cy="0.287" r="1.543" gradientTransform="translate(-0.333) scale(1.666 1)" xlink:href="#al"/><radialGradient id="an" cx="-1.191" cy="1.535" r="6.185" gradientTransform="translate(0.227) scale(0.546 1)" xlink:href="#al"/><radialGradient id="ao" cx="0.147" cy="0.445" r="1.864" gradientTransform="translate(-0.101) scale(1.201 1)" xlink:href="#al"/><radialGradient id="ap" cx="1.118" cy="-2.561" r="8.194" gradientTransform="translate(-0.183) scale(1.365 1)" xlink:href="#al"/><radialGradient id="aq" cx="0.106" cy="0.09" r="1.428" gradientTransform="translate(0.136) scale(0.729 1)" xlink:href="#al"/><radialGradient id="ar" cx="3.693" cy="-0.187" r="5.142" gradientTransform="translate(-0.747) scale(2.495 1)" xlink:href="#al"/><radialGradient id="as" cx="0.478" cy="0.341" r="1.268" gradientTransform="translate(-0.142) scale(1.285 1)" xlink:href="#al"/><linearGradient id="at" x1="0.5" y1="0.916" x2="0.5" y2="0.086" gradientUnits="objectBoundingBox"><stop offset="0"/><stop offset="0.418" stop-color="#005768"/><stop offset="1" stop-color="#00d6ff"/></linearGradient></defs><g transform="translate(-2779 -2623)"><g transform="translate(2779 2623)"><path class="a" d="M542.433,331.849C472.126,354.474,405.2,386.4,367.781,408.863c-103.84,62.348-228.859,68.284-228.859,68.284L267.735,590.115s39.58-61.04,258.486-73.049q8.094-.445,16.212-.838Z" transform="translate(66.603 -5.383)"/><path class="a" d="M314.683,427.544c-69.212-44.6-181.064-44.59-249.824,0-34.315,22.257-51.412,51.414-51.33,80.582.082,29.282,17.476,58.575,52.143,80.92,69.22,44.6,181.067,44.6,249.822,0,34.379-22.3,51.481-51.522,51.335-80.753S349.291,449.841,314.683,427.544Z" transform="translate(-13.529 34.397)"/><path class="b" d="M366.829,451.547c.146,29.229-16.956,58.457-51.335,80.753-68.755,44.6-180.6,44.6-249.822,0C31,509.955,13.611,480.662,13.529,451.38v10.049c-.028,29.373,17.364,58.783,52.143,81.2,69.22,44.6,181.067,44.6,249.822,0,34.379-22.3,51.481-51.523,51.335-80.751Z" transform="translate(-13.529 71.002)"/><path class="c" d="M314.683,415.253c-69.212-44.6-181.064-44.59-249.824,0-34.315,22.257-51.412,51.414-51.33,80.582.082,29.282,17.476,58.575,52.143,80.92,69.22,44.6,181.067,44.6,249.822,0,34.379-22.3,51.481-51.523,51.335-80.753S349.291,437.55,314.683,415.253Z" transform="translate(-13.529 26.543)"/><path class="d" d="M175.328,438.174c-19.333-12.458-50.583-12.457-69.791,0-9.587,6.219-14.363,14.363-14.342,22.512.025,8.179,4.883,16.364,14.57,22.606,19.337,12.46,50.583,12.46,69.791,0,9.6-6.228,14.383-14.394,14.342-22.56S185,444.4,175.328,438.174Z" transform="translate(36.104 56.592)"/><path class="e" d="M230.3,430.965c-39.011-22.522-102.055-22.519-140.809,0S50.941,490,89.949,512.528s102.055,22.524,140.807,0S269.313,453.489,230.3,430.965Z" transform="translate(16.525 47.163)"/><path class="f" d="M271.488,425.5c-53.753-32.965-140.62-32.958-194.022,0s-53.112,86.414.636,119.385,140.62,32.968,194.017,0S325.244,458.469,271.488,425.5Z" transform="translate(1.856 38.666)"/><g transform="translate(26.623 0)"><path class="g" d="M179.8,132.669A149.908,149.908,0,0,0,58.67,371.059c21.04,28.693,41.637,60.1,41.558,95.683l-.087,8.187c.875,10.783,8.29,21.445,22.3,29.822,30.463,18.207,80.559,18.7,111.9,1.119,14.756-8.277,22.714-19.09,23.832-30.116.064-3.6.021-7.468.021-8.515.02-35.305,20.162-66.286,41.447-94.462A149.894,149.894,0,0,0,179.8,132.669Z" transform="translate(-29.772 -132.669)"/><path class="h" d="M71.248,381.8c-2.229-13.406,2.139-39.5,9.941-47.629S108.3,315.7,123.9,313.33s60.858-5.432,92.893,16.092,17.172,53.808,11.129,57.924-6.925-35.436-74.273-37.541C86.3,347.724,71.248,381.8,71.248,381.8Z" transform="translate(-3.638 -18.286)"/><path class="g" d="M183.4,435.474c0,23.517-20.395,42.578-45.546,42.578s-45.548-19.06-45.548-42.578S112.7,392.9,137.857,392.9,183.4,411.962,183.4,435.474Z" transform="translate(10.192 33.631)"/><path class="i" d="M248.737,401.233c-.233-.464-3.886-8.215-4.407-8.215-12.085-19.6-49.707-40.96-100.81-36.421C39.44,365.483,33.675,460.781,129.584,478.473,184.071,492.1,270.293,460.089,248.737,401.233Z" transform="translate(-9.577 10.037)"/><path class="j" d="M207.217,371.83c-30.462-18.207-80.556-18.708-111.9-1.129S63.264,417.3,93.736,435.514c30.454,18.2,80.549,18.708,111.891,1.118C236.964,419.059,237.679,390.035,207.217,371.83Z" transform="translate(-3.208 11.225)"/><path class="i" d="M243.979,369.464c-10.962-16.74-36.734-28.39-39.97-28.39a127.066,127.066,0,0,0-18.9-5.166l-.038-.018c-.049,0-.118-.021-.166-.021C97.923,319.217,35.69,375.892,71.889,424.719c4.64,6.315,13.752,13.694,19.923,17.126C171.384,486.159,284.98,433.973,243.979,369.464Z" transform="translate(-9.566 -4.712)"/><path class="j" d="M71.555,361.069c-1.318,12.429,6.068,25.143,22.237,34.808,30.462,18.2,80.558,18.72,111.9,1.142,16.736-9.4,24.74-22.048,23.924-34.574,0,0-35.13,20.5-74.878,20.5S71.555,361.069,71.555,361.069Z" transform="translate(-3.166 13.289)"/><path class="k" d="M230.555,394.4c-.713-10.929,24.384-42.279-22.332-69.55-30.649-17.887-80.443-18.5-111.9-1.116C56.9,345.522,73.66,382.04,72.5,393.026c0,0,43.161,29.121,82.226,29.121S230.555,394.4,230.555,394.4Z" transform="translate(-4.107 -18.668)"/><path class="i" d="M244.6,347.2c0-.018-.018-.028-.018-.036a47.641,47.641,0,0,0-5.333-6.886c-.67-1.341-6.589-6.255-7.664-7.233-19.047-15.015-37.746-17.657-39.963-18.767-1.98,0-30.575-8.725-65.264-.982-42.615,8.6-58.768,31.863-62.912,46.595l-.02.029v.01c-21.663,73.277,129.265,105.289,181.03,38.737C254.478,383.927,255.685,364.88,244.6,347.2Zm-30.413,45.287c-31.34,17.585-81.436,17.087-111.9-1.12s-29.75-47.232,1.59-64.824,81.438-17.077,111.891,1.141S245.524,374.907,214.186,392.488Z" transform="translate(-9.616 -19.286)"/><path class="l" d="M129.33,391.375v60.592a135.5,135.5,0,0,0,43.14-.1V391.375c-.026-1.06-1.911-92.76,52.961-148.276a5.039,5.039,0,1,0-7.168-7.084C172.2,282.616,164,350.893,162.628,378.921a21.2,21.2,0,0,0-23.46-.17c-1.4-28.133-9.661-96.228-55.629-142.736a5.038,5.038,0,1,0-7.166,7.084C131.243,298.614,129.358,390.314,129.33,391.375Z" transform="translate(-0.922 -67.582)"/><g transform="translate(22.353 20.785)"><path class="g" d="M45.929,219.763a4.526,4.526,0,0,0-1.649,4.488c.292,1.814,2.537,1.667,4.883.859s6.65-4.493,4.689-6.55S48.173,217.86,45.929,219.763Z" transform="translate(-42.904 -99.223)"/><path class="m" d="M78.274,162.984c1.685-3.908,2.1-5.358,5.668-7.913s6.086-.133,6.65,1.924-2.691,9.762-7.023,11.144S78.274,162.984,78.274,162.984Z" transform="translate(-21.13 -139.841)"/><path class="g" d="M55.107,287.157s1.983,9.441,5.53,11.745,4.981,3.178,9.829.7c3.3-1.692,162.171-82.434,162.171-82.434s2.306-5.248.167-16.618-29.116-56.445-75.842-55.172c-28.834.785-55.085,19.988-73.826,49.973-.987,1.577-11.632-10.374-16.6-7.128-11.649,7.6,3.147,23.447,10.033,18.667C57.682,243.411,55.107,287.157,55.107,287.157Z" transform="translate(-35.935 -145.35)"/><path class="g" d="M67.339,181.478C64.983,176.8,64.3,169.257,67.583,166s8.362-4.121,11.98.089c3.706,4.316,4.4,10.759-.846,12.126S67.339,181.478,67.339,181.478Z" transform="translate(-29.395 -133.917)"/><path class="n" d="M58.97,235.36c5.969-1.4,8.738,2.357,9.726-4.632s-2.268-11.3-9.254-12.824-11.734,8.7-6.1,13.081Z" transform="translate(-38.655 -99.082)"/><path class="g" d="M56.28,195.944c.533-5.45-.823-7.151,1.495-11.468s10.936-8.285,17.62-5.106c-3.449,2.278-.57,5.738-.143,9.711.98,9.084,1.916,22.006-2.9,32.848-6.923,15.584-29.573,16.34-28.277.91C46.006,214.84,56.28,195.944,56.28,195.944Z" transform="translate(-43.02 -124.345)"/><path class="o" d="M54.422,217.908c-2.219-3.36-2.8-5.37-.61-8.062s4.312-1.875,6.471-.234,6.843,6.843,4.114,9.207C59.708,222.871,54.422,217.908,54.422,217.908Z" transform="translate(-37.643 -105.252)"/><path class="g" d="M208.961,210.337c1.088-2.677,2.126-3.508,1.639-6.055s-4.194-4.122-8-3.39-21.267-.282-22.758,6.441,14.358,18.9,19.759,19.337,8.989-8.836,8.989-8.836Z" transform="translate(43.713 -109.97)"/><path class="g" d="M185.526,171.357c-.367-2.618.674-3.358-1.434-5.268s-6.194-1.329-10.234,3.032-13.189,13.863-10.09,18.834,24.3,3.609,24.3,3.609l3.467-10.257Z" transform="translate(33.102 -132.757)"/><path class="g" d="M132.014,151.458c1.387-1.949,2.585-3.086,5.252-3.062s5.083,1.241,4.824,6.763-7.682,7.138-9.277,3.422A12.564,12.564,0,0,1,132.014,151.458Z" transform="translate(13.086 -143.403)"/><path class="g" d="M77.365,261.137c-5.351,6.8-8.413,12.116-5.189,17.351,2.811,4.568,15.1,4.612,23.209.113.823-.456,6.794,7.944,8.426,7.769,9.683-1.039,21.709,5.643,33,7.363,3.567.543,3.924-2.186,4.97-3.627,1.423-1.964,17.494-3.045,18.152-2.524,5.26,4.171,18.959,6.24,22.7,4.507,13.458-6.233-6.791-25.772-11.852-31.268s2.534-31.244,3.475-45.759-13.021-30.827-26.367-9.447S107.115,242.593,95.3,245.708,77.365,261.137,77.365,261.137Z" transform="translate(-25.869 -113.414)"/><path class="g" d="M138.329,219.834c-2.572.18-8.761,3.819-10.087,5.679s.523,4.089,4.675,4.465,19.342.141,18.479-5.306S143.852,219.441,138.329,219.834Z" transform="translate(10.533 -97.864)"/><path class="g" d="M98.124,232.491c-1.323,2.19-2.59,4.042-4.85,4.43-3.667.634-8.044-4.4-7.094-8.384s7.251-6.494,9.564-3.021A14.349,14.349,0,0,1,98.124,232.491Z" transform="translate(-16.162 -95.171)"/><path class="g" d="M90.963,255.8c9.683-1.039,21.709,5.643,33,7.363,3.567.543,3.924-2.186,4.97-3.627l-.039-16.364-21.206,1.364Z" transform="translate(-13.021 -82.84)"/><path class="g" d="M93.537,241.941c2.334-1.083,1.065-1.278,3.457-1.788s4.77-.275,5.011,3.908-3.144,11.56-7.5,12.232-6.44-4.012-4.481-7.958S93.537,241.941,93.537,241.941Z" transform="translate(-14.094 -84.89)"/><path class="g" d="M197.894,211.973c7.235-10.921,8.857-23.433,6.153-28.126s-10.564-6.782-20.2,2.6-20.891,21.254-10.906,28.3S192.816,219.637,197.894,211.973Z" transform="translate(36.875 -123.292)"/><path class="g" d="M95.916,196.525c-10.095-2.963-14.791-16.158-9.9-23.766s14.96-4.95,19.3.793S109.686,200.566,95.916,196.525Z" transform="translate(-17.427 -130.833)"/><path class="g" d="M274.607,272.308c-1.234,6.3-1.167,10.665-6.255,15.105s-16.4,4.411-21.781-3.265-22.057,8.3-32.642,15.974c-21.163,15.34-33.981-11.436-28.61-24.486s-8.364-80.913-26.984-50.542-30.952,40.714-46.033,46.183c-37.828,13.72-45.171-3.917-44-13.327.975-7.828,6.492-11.675,17.813-11.478s35.453-39.283,42.176-55.349,6.9-31.534,8.584-35.551.567-3.194,7.413-6.328,13.555,4.157,19.4,11.154c4.473,5.353,41.965-.074,52.023,15.963s16.843,32.206,9.074,49.63,20.952,24.8,31.522,24.368S274.607,272.308,274.607,272.308Z" transform="translate(-27.575 -143.339)"/><path class="g" d="M152.556,173.581c3.029-.452,4.87-1.459,7.4.272s2.129,4.162-1.052,7.035-7.346,8.854-7.046,13.886-7.764,14.245-11.662,3.876-11.029-5.689-12.431-10.895-4.119-9.7,4.661-9.072S152.556,173.581,152.556,173.581Z" transform="translate(9.521 -127.759)"/><path class="g" d="M150.745,214.866c1.215-3.4,1.383-2.1,1.215-4.306s-4.071-4.024-8.058-1.665-8.687,3.7-10.178,7.982,4.286,9.31,9.213,5.874A32.189,32.189,0,0,0,150.745,214.866Z" transform="translate(14.153 -105.449)"/><path class="g" d="M162.782,257.1c4.494-.239,4.853-.062,9.085-.906s5.868-4.476,3.335-7.223-19.228-5.353-23.947-8.121-12.29.011-8.975,5.851-1.372,11.023.344,13.035,8.069,1.095,10.577-.215S162.782,257.1,162.782,257.1Z" transform="translate(19.253 -85.009)"/><path class="g" d="M164.586,230.473c-.166-3.006-.216-4.432,2.331-6.345s4.984.069,6.6,2.523,10.329,8.3,13.362,9.654,6.21,10.547-1.108,9.916-14.225,1.952-16.179,3.347-10.519,1.857-7.254-5.515A26.182,26.182,0,0,0,164.586,230.473Z" transform="translate(32.12 -95.496)"/><path class="g" d="M169.64,221.688c-6.361.754-14.384-1.2-15.9-4.439s-.138-5.183,2.681-5.545,12.568-8.246,12.857-12.947,6.409-9.554,8.2-2.885a25.926,25.926,0,0,0,9.341,13.765c3.375,2.573.4,8.456-5.825,7.966S169.64,221.688,169.64,221.688Z" transform="translate(26.692 -115.152)"/><path class="g" d="M163.232,154.614c2.306.733,3.463,2.413,2.857,5.891s-2.288,10.047-2.172,13.248-5.333,5.194-7.563,2.49c-1.751-2.126-9.8-16.089-9.8-16.089l1.118-6.953,8.156.98S160.916,153.881,163.232,154.614Z" transform="translate(22.503 -140.333)"/><path class="p" d="M122.383,178.024c4.011-.166,6.428.574,9.249-1s3.93-4.693-.346-8.574-26.3-10.878-26.3-10.878L96.635,168.88l5.189,19.308Z" transform="translate(-9.397 -137.539)"/><path class="g" d="M114.049,198.52c-.128-3.614-.852-5.912.243-8.535s2.809-3.022,6.117-2.416,18.908-1.844,23.947,3.788,4.76,18.31-2.891,13.524-13.65-4.129-13.65-4.129-5.8,11.211-11.926,5.917C113.349,204.47,114.049,198.52,114.049,198.52Z" transform="translate(1.506 -118.528)"/><path class="q" d="M109.253,194.871c3.571-2.119,4.112-1.31,5.578-4.253s-2.2-5.837-6.553-5.165-19.616,5.081-19.616,5.081L90.9,199.57Z" transform="translate(-14.492 -119.785)"/><path class="g" d="M76.951,197.587c-.823-2.6-1.891-4.517-1.354-7.3s2.59-4.1,7.094-3.213,21.555,16.059,21.817,20.818-11.049,7.443-12.768,5.294-8.764,9.977-11.155,4.322S76.951,197.587,76.951,197.587Z" transform="translate(-22.933 -118.86)"/><path class="g" d="M104.661,218.764c.18-2.64-.167-3.921,1.182-6.082s5.422-3.237,8.279.187,8.7,16.172,5.753,20.568-17.405,3.1-17.405,3.1-10.824-4.163-6-9.625A73.414,73.414,0,0,1,104.661,218.764Z" transform="translate(-10.295 -103.609)"/><path class="g" d="M68.342,238.828c-1.178-.61-1.659-.792-1.777-2.277s1.723-2.655,4.6-3.87,8.13-9.3,13.209-9.244,6.732,2.232,7.189,6.437-9.623,11.632-12.131,14.588-8.017,7.179-8.9,2.721A78.482,78.482,0,0,0,68.342,238.828Z" transform="translate(-28.616 -95.449)"/><path class="r" d="M118.274,239.688c-.793-.059-1.583-.093-2.373-.123-7.215,1.172-12.717,5.827-14.356,12.029-.908,3.427-5.689,3.353-4.683-1.478.634-3.052,2.265-8.071,6.138-9.711-13.407,2.244-23.92,8.464-23.065,15.32,15.533,5.409,33.05,8.625,51.1,9.736-2.575-.356-2.5-3.821-3.147-5.928a18.541,18.541,0,0,0-10.7-4.884c-2.88-.116-2.68-3.275.067-3.481,1.375-.1,7.681.8,9.8,3.363a19.309,19.309,0,0,1,.388-4.57c.626-3.008,5.066-3.127,4.888.682-.318,6.756-.051,14.389,7.266,15.2,7.086.174,14.214.028,21.311-.436C161.52,250.784,137.038,241.093,118.274,239.688Z" transform="translate(-20.1 -85.142)"/><g transform="translate(127.364 4.017)"><path class="s" d="M222.259,239.009A14.713,14.713,0,0,0,220.083,249c.569,3.08-3.6,3.753-4.547.9a17.671,17.671,0,0,1,.661-9.266,25.764,25.764,0,0,1-13.86-.947c-3.131-1.124-2.3-5.07,1.8-4.186,7.61,1.633,13.442,1.572,18.8-4.284,1.946-2.127,3.4-3.78,2.757-6.1a103.582,103.582,0,0,0-11.368-25.554c3.38,8.877-4.155,20.036-12.3,26.405-4.139,3.237-7.205,3.583-8.864,3.649a7.589,7.589,0,0,1-5.663-2.108c-2.693-2.67-2.219-7.328,2.382-11.352,10.151-8.885,19.77-25.371,7.033-38.152q-3.044-2.94-6.317-5.665c1.329,2.311-1.878,6.881-2.268,7.771A18.386,18.386,0,0,0,193.6,191.54c2.485,2.159-.464,4.92-3.111,3.147-1.142-.765-4.94-4.852-5.727-8.441a28.55,28.55,0,0,1-5.858,5.971c-3.647,2.706-6.576-.9-4.389-2.6,9.025-7.018,14.45-18.633,11.739-20.734a123.728,123.728,0,0,0-22.486-13.543c-4.148-1.41-9.59,19.949-5.484,25.4,8.954,11.057,9.1,26.025-.18,40.063-3.231,4.883-4.958,9.828-5.138,14.245.01,3.612,5.946,4.555,11.085,1.972,6.815-3.421,7.869-8.223,7.507-14.774-.188-3.531,3.929-3.542,4.53-.769a17.891,17.891,0,0,1-1.408,11.59,21.98,21.98,0,0,1,9.472,1.024c2.718,1.269,1.331,4.589-1.682,3.6a21.891,21.891,0,0,0-11.467.229,17.533,17.533,0,0,1-5.488,3.342c-5.932,2.291-9.452,2.123-11.683-.162a12.666,12.666,0,0,0,1.8,3.362c4.065,5.371,12.645,7.654,23.76,6.405.939-.161,1.883-.289,2.844-.379,14.034-2.121,28.667.933,34.232,13.7,3,6.881,2.318,13.722-2.29,18.89,10.8-10.5,15.95-22,15.478-33.283h0a101.643,101.643,0,0,0-1.942-16.479C227.7,235.873,225.669,237.332,222.259,239.009Z" transform="translate(-100.765 -143.024)"/><path class="t" d="M173.193,171.925a19.234,19.234,0,0,0-7.243-8.875c-2.917-1.662-.634-4.893,2.357-3.639a15.239,15.239,0,0,1,5.981,5.081c1.119-3.168,2.541-6.725,5.2-6.427a131.419,131.419,0,0,0-25.9-7.81c-3.145.1-6.692,1.583-6.709,5.622-.011,4.162-5.458,4.081-6.151-.42-.567-3.673.5-5.935,3.376-6.681a137.256,137.256,0,0,0-19.036-.949c-7.454.248-7.235,20.087,26.526,23.73a42.436,42.436,0,0,1,21.016,8.136C171.492,178.094,172.4,174.191,173.193,171.925Z" transform="translate(-121.116 -147.801)"/></g><path class="u" d="M134.261,180.528c-5.448.564-10.482,3.213-12.558,5.288-2.342,2.337-5.461-.193-3.549-2.662.824-1.065,5.274-4.676,9.238-5.553a28.742,28.742,0,0,1-6.735-5.007c-3.073-3.157.867-5.971,2.791-4.073a30.941,30.941,0,0,0,14.761,8.343c5.483,1.516,10.516,2.977,16.417.769a45.85,45.85,0,0,1,4.266-2.424c-17.525-7.238-21.9-20.873-16.282-26.254-12.045,2.986-23.256,9.479-33.23,18.772-5.92,8.266-1.731,20.119,2.047,28.524,2.239,4.984-.421,8.723-6.794,8.264s-13.452-11.242-10.151-19.541a142.73,142.73,0,0,0-11.65,19.91c-1.729,6.271.6,10.741,5.292,16.153a30.315,30.315,0,0,0,13.925,9.428c2.657.944,1.124,5.247-3.254,3.788a31.055,31.055,0,0,1-8.928-4.838,14.936,14.936,0,0,1-1.744,7.581c-1.465,2.121-4.645.824-3.432-1.549a14.749,14.749,0,0,0,.22-10.685c-2.9-2.988-6.856-6.527-6.353-10.285a187.524,187.524,0,0,0-7.392,21.96c-2.247,9.559,6.532,20.427,21.093,17.977,15.55-2.608,22.066-12.432,30.208-31.789,1.2-2.854,2.436-5.783,3.767-8.741-4.042,4.712-12.473,5.548-19.541,5.274-4.681-.184-4.139-4.661-1.274-4.607a33.844,33.844,0,0,0,17.061-3.819,34.241,34.241,0,0,0,7.946-5.442,77.166,77.166,0,0,1,17.7-22.755C143.423,184.661,135.257,180.839,134.261,180.528Z" transform="translate(-25.895 -143.047)"/><g transform="translate(37.786 40.574)"><path class="v" d="M77.02,236.2c1.346-2.439,3.317-6.85,7.282-7.546-7.566-.692-14.353-4.421-15.027-13.376a223.446,223.446,0,0,0-2.606,22.961C68.162,240.978,73.415,238,77.02,236.2Z" transform="translate(-66.332 -141.238)"/><path class="w" d="M254.6,260.779c-2.29-5.525-7.61-7.944-14.976-6.776-6.966,1.108-8.108,5.115-7.923,7.013.742,7.5,5.542,10.439,12.885,12.845,3.953,1.295,2.146,4.974-1.159,4.36A24.411,24.411,0,0,1,232.7,273.37a19.017,19.017,0,0,1-3.911,8.425c-2.257,2.219-5.689.044-3.67-2.527a18.1,18.1,0,0,0,3.036-11.3c-1.149-2.168-2.6-7.661-.439-9.8C220.087,262.7,215.1,271.811,213.9,278.71a7.188,7.188,0,0,1-6.963,5.633,7.942,7.942,0,0,1-1.375-.061c-3.978-.516-6.7-3.852-6.068-7.445a37.939,37.939,0,0,1,2.527-8.346,54.45,54.45,0,0,1-9.452,1.536c-3.37.159-3.9-3.542.58-3.814,3.739-.226,8.435-1.213,11.591-3.063a49.288,49.288,0,0,1,8.512-10.647A29.648,29.648,0,0,1,198.829,242.5a25.38,25.38,0,0,1-4.039-7.856c-.113,2.778-5.738,8.766-14.433,10.549-3.263.669-4-3.127-1.1-3.575,2.214-.343,5.591-1.873,9.133-4.871,2.577-2.173,5.281-5.424,5.2-10.024-.049-7.018,2.391-14.606,7.292-22.016,5.193-7.853,6.22-15.551,3.211-21.893-2.431-3.237-7.2-4.014-12.229-.487-6.65,4.66-6.889,9.918-5.3,16.83.857,3.724-3.535,4.353-4.691,1.5a19.144,19.144,0,0,1-.639-12.527,23.938,23.938,0,0,1-10.288.321c-3.132-.939-2.265-4.676,1.134-4.076a23.6,23.6,0,0,0,12.173-1.95c3.354-5.183,11.1-7.884,13.907-6.794-.051-.039-.1-.079-.146-.115a28.432,28.432,0,0,0-34.276.68,59.616,59.616,0,0,0-15.556,17.874c-.515.875-1.837,5.422,2.075,7.487,8.667,4.62,19.021-5.224,24.864,9.121,1.421,3.48-2.522,4.209-3.778,1.66-5.556-11.291-10.769-3.611-18.941-6.2a12.922,12.922,0,0,1,.2,8.367c-1.006,2.913-4.565,2.329-4.121-.477.82-5.13-5.219-8.657-4-13.039-2.037,4.168-3.826,8.426-5.6,12.642a116.58,116.58,0,0,1-7.338,14.7,29.044,29.044,0,0,0-2.4,14.291,25.947,25.947,0,0,0,5.969,14.787c1.651,2.1-2.208,5-4.986,1.626a25.6,25.6,0,0,1-4.112-7.225,17.122,17.122,0,0,1-6.148,5.842c-2.495,1.087-4.37-1.564-1.936-2.986a16.623,16.623,0,0,0,6.52-8.736,9.6,9.6,0,0,1-.225-7.325,53.888,53.888,0,0,1-29.032,18.079c-.769.184-1.557.339-2.357.475-4.411.9-6.781,3.4-8.784,6.119-4.137,5.632-6.086,10.136-6.977,15.069-.465,2.557-5.437,2.221-4.778-1.975a24.185,24.185,0,0,1,1.991-6.355c-2.049,1.423-6.361,3.188-7.663.618-.208,5.2-.221,10.572-.015,16.361,0,0,.239,5.5,8.372,7.61-2.324-6.405,5-12.37,9.385-15.659a39.388,39.388,0,0,1,15.519-6.694c2.5-1.447,3.178-4.545,2.513-9.108-.374-2.56,4.071-2.264,4.914,1.683.465,2.172.413,5.651-1.524,6.455a133.272,133.272,0,0,1,21.645-.349c11.257-.375,18.747-2.259,22.25-5.645,3.68-3.562,3.431-9.577,3.145-16.541-.051-1.167-.1-2.354-.126-3.557a30.122,30.122,0,0,0-8.839-5.894c-2.536-1.174-.547-5.325,3.647-3.485a28.293,28.293,0,0,1,5.33,3.1c.413-4.994,1.755-9.975,5.46-14.338a7.861,7.861,0,0,1,10.228-1.3,6.135,6.135,0,0,1,1.31,9.208c-2.937,3.458-2.7,9.356-2.437,15.594.121,2.947.833,6.351.051,9.1,3.929-3.948,12.46-3.935,16.867-3.162,5.327.933,3.08,4.48-.77,3.978-7.1-.918-15.914,1.433-17.848,7.985a22.106,22.106,0,0,1-5.412,8.207,26.617,26.617,0,0,1-5.683,4.148,41.443,41.443,0,0,1,24.545,11.531c5.137,5.061,12.244,15.838,6.282,18.338a210.54,210.54,0,0,0,34.363-7.487,23.463,23.463,0,0,1-11.913-1.757c-4.588.37-8.887,2.544-10.657,4.263-1.977,1.918-4.53-.216-2.909-2.247a18.081,18.081,0,0,1,7.443-4.44,29.338,29.338,0,0,1-7.146-4.935c-3.181-3.065.657-5.987,2.65-4.148,3.839,3.54,7.915,6.815,15.073,8.571,6.72,1.649,17.764,1.846,27.262-2.995C255.251,284.437,258.056,269.122,254.6,260.779Z" transform="translate(-66.464 -170.105)"/></g><path class="x" d="M54.371,212.167c4.083-4.883,5.281-8.746,5.029-15.886-.251-7.007-3.275-9.956-1.646-14.245a104.84,104.84,0,0,0-13.7,38.364C45.884,216.353,51.934,215.081,54.371,212.167Z" transform="translate(-42.999 -121.906)"/><path class="y" d="M163.413,145.407a135.953,135.953,0,0,0-46.3,10.077c-5.81,2.36-8.218,8.161-9.459,14.32-.51,2.55-5.1,2.862-4.789-1.36a12.874,12.874,0,0,1,3.357-7.874,127.757,127.757,0,0,0-13.412,8.11c-1.852,1.868-.513,5.95.769,8.833,3.7,8.346-4.816,15.9-10.513,9.641-1.573-1.729-3.862-5.927-1.467-9.729A118.735,118.735,0,0,0,66.624,193.17c9.723,21.812,7.276,37.662-1.467,50.23-.574.823-1.174,1.611-1.793,2.382-1.341,2.27-.359,7.707,4.619,9.551,2.642.975.649,5.052-3.662,3.437-3.372-1.259-6.2-5.009-4.742-8.838A50.09,50.09,0,0,1,43.41,260.2c.01.674.02,1.344.043,2.019h0a34.587,34.587,0,0,0,1.334,8.149c.207-2.293,3.4-4.1,4.155-4.589,2.706-1.765,5.563,1.006,3.009,3.157-1.659,1.395-6.092,4.642-4.779,7.59,3.919,8.043,10.9,15.664,20.94,22.366,1.6,1.069,5.038,3.132,4.925,1.095a190.979,190.979,0,0,1,.413-23c-1.734,3.649-6.877,1.906-9.133.823-9.469-4.543-7.979-14.37-1.011-12.317,5.465,1.61,11.221-.684,12-6.217,3.067-21.093,8.99-40.45,17.13-57-4.353-1.611-8.58-.58-13.561,1.541-3.472,1.48-4.93-1.873-2.362-3.4a22.449,22.449,0,0,1,3.39-1.641c-3.367-1.413-6.484-5.72-6.935-6.856-1-2.539,2.406-4.125,3.822-1.614,1.224,2.172,4.77,5.392,9.231,7.007a19.417,19.417,0,0,1,8.461.964c16.612-31.414,41.5-51.741,69.955-52.908Z" transform="translate(-43.41 -145.34)"/></g><path class="z" d="M329.829,282.7A150.029,150.029,0,1,0,58.67,371.059c21.04,28.693,41.522,60.061,41.445,95.643l-.1,9.156c0,7.463,2.967,14,8.067,19.577l.09-28.718c.085-38.432-22.152-71.99-43-100.426A140.373,140.373,0,0,1,37.831,282.7c0-78.279,63.688-141.966,141.968-141.966S321.765,204.418,321.765,282.7a140.24,140.24,0,0,1-28.554,85.219c-22.466,29.737-43.256,62.371-43.279,99.451,0,0-.031,18.9-.1,27.872a36.932,36.932,0,0,0,7.664-12.668c.618-1.814.5-13.278.5-15.2.02-35.305,20.364-66.414,41.648-94.59A148.825,148.825,0,0,0,329.829,282.7Z" transform="translate(-29.772 -132.669)"/></g></g></g></svg>