<svg xmlns="http://www.w3.org/2000/svg" width="780.129" height="632.736" viewBox="0 0 780.129 632.736"><defs><style>.a{fill:#d9d6ed;}.b{fill:#fffcfa;}.c{fill:#aeabd1;}.ad,.ae,.aq,.ar,.au,.d,.e,.p,.r,.u{fill:none;stroke-linecap:round;stroke-linejoin:round;}.d{stroke:#fffcfa;}.d,.r{stroke-width:5.333px;}.ae,.aq,.au,.e{stroke:#fff;}.e{stroke-width:9.014px;}.f{fill:#ed5353;}.g{fill:#d94141;}.h{fill:#27427a;}.i{fill:#e6e9ff;}.j{fill:#fff;}.k{opacity:0.43;}.l{fill:#32559e;}.m{fill:#223a6b;}.n{fill:#aeadd6;}.o{fill:#c5cae8;}.ad,.ar,.p,.r{stroke:#0f2769;}.p{stroke-width:5.394px;}.q{fill:#2e4d8f;}.s{fill:#9591bf;}.t{fill:#6e6b94;}.u{stroke:#aeabd1;}.ad,.u{stroke-width:7.908px;}.v{fill:#5981eb;}.w{fill:#7976a3;}.x{fill:#4d4a75;}.y{fill:#d2e5fa;}.z{fill:#9ca8ff;opacity:0.27;}.aa{fill:#5b67f0;opacity:0.21;}.aa,.ah,.ao{mix-blend-mode:multiply;isolation:isolate;}.ab{fill:#1a40a6;}.ac{fill:#4f64e3;}.ae{stroke-width:7.217px;}.af{fill:#feb31c;}.ag{fill:#596fff;}.ah{fill:#637a94;}.ah,.ao{opacity:0.4;}.ai{fill:#24307d;}.aj{fill:#2f40a6;}.ak{fill:#cfd6e0;}.al{fill:#ffc2b0;}.am{fill:#ba4141;}.an{fill:#4e62e0;}.ao{fill:#a8c4e5;}.ap{fill:#a8acba;}.aq{stroke-width:3.389px;}.ar{stroke-width:2.773px;}.as{fill:#0e2e82;}.at{fill:#3072ff;}.au{stroke-width:7.171px;}</style></defs><g transform="translate(-6238.734 -387.749)"><path class="a" d="M7741.8,672.239c-9.031-28.922-12.857-59.131-9.835-88.972,6.513-64.3-23.861-130.5-83.63-167.874-66.8-41.774-149.975-34.82-206.326,11.53-25.718,21.154-23.875,29.866-56.02,39.645-25.353,7.713-67.585,38.179-85.3,74.2-33,67.118-21.02,144.509,44.113,185.238,45.945,28.731,85.536,24.708,128.373-.425a140.2,140.2,0,0,0,65.325,99.069c64.9,40.244,149.926,21.686,189.369-41.32C7749.339,749.036,7753.146,708.589,7741.8,672.239Z" transform="translate(-729.181)"/><path class="b" d="M8509.261,1345.2s2.417-24.127,20.55-17.423,17.226,19.417,17.226,19.417.3-25.4,20.852-20.432,16.018,37.415,16.018,37.415Z" transform="translate(-1585.575 -655.289)"/><g transform="translate(6383.037 401.269)"><path class="a" d="M7146.077,632.448s-106.834-37.493-73.864-199.883C7072.212,432.565,7213.576,515.153,7146.077,632.448Z" transform="translate(-6960.668 -432.565)"/><path class="c" d="M6908.357,712.069S6748,711.252,6717.079,478.6C6717.079,478.6,6944.512,523.833,6908.357,712.069Z" transform="translate(-6717.079 -464.715)"/><line class="d" x1="137.411" y1="161.343" transform="translate(26.779 48.906)"/><line class="d" x1="37.912" y1="8.037" transform="translate(21.932 80.578)"/><line class="d" x1="55.19" y1="4.058" transform="translate(37.842 120.757)"/><line class="d" x1="4.48" y2="42.427" transform="translate(59.844 46.188)"/><line class="d" x1="8.499" y2="55.54" transform="translate(93.032 69.275)"/><line class="d" x1="8.499" y2="55.54" transform="translate(127.99 108.737)"/><path class="e" d="M6931.185,966.515" transform="translate(-6866.596 -805.438)"/><line class="d" x1="55.19" y1="4.058" transform="translate(70.197 162.101)"/></g><g transform="translate(6238.734 615.08)"><g transform="translate(48.172 82.869)"><path class="a" d="M6406.147,1457.81l0,0,.031-.016a26.292,26.292,0,0,1,5.6-3.066l6.453-3.533c.313-.18.6.126.922-.044l0,.462h0c8.611-5.3,21.7-5.963,37.7-2.766l69.125-10.208c.246-.069.5-.253.749-.317,4.913-2.488,35.559-16.837,36.932-17.249,3.73-2.613,10.476-3.506,19.274-1.979.646.112,1.293.224,1.941.358,1.995-.911,3.365-1.529,3.588-1.6,2.523-1.767,7.082-2.354,13.03-1.322,11.577,2.009,24.012,9.364,27.772,16.429,2.363,4.438.74,7.7-3.661,9.022-.109.077-.784.413-1.848.927.086.152.179.3.259.455,3.495,6.564,1.094,11.4-5.415,13.346-.776.543-20.82,9.945-31.324,14.755l-.6.713a10.805,10.805,0,0,1,2.006,7.957l-.588,4.429c-1.034,7.79-9.578,14.456-18.987,14.814l-.477.018a19.187,19.187,0,0,1-4.7-.388l-17.641,20.81c.043,7.848-3.984,13.813-11.127,17.435l0,0-8.608,4.5q-.987.575-2.068,1.082l-.066.035,0,0c-9.824,4.594-25.11,5-43.608.129-37.352-9.837-73.638-37.463-81.048-61.7C6396.583,1470.941,6399.2,1462.882,6406.147,1457.81Z" transform="translate(-6398.417 -1416.022)"/></g><g transform="translate(45.47 31.49)"><path class="f" d="M6476.773,1412.162l12.362-7.923-84.806-158.533-14.868,9.3Z" transform="translate(-6389.461 -1245.706)"/></g><g transform="translate(196.526 0)"><path class="f" d="M6897.486,1161.142c.9-.753,29.454-17.027,30.588-17.43,3.261-2.725,8.166-3.249,13.889-.908,11.137,4.557,21.132,18.219,22.325,30.516.749,7.724-2.154,13.069-7.176,14.849-.9.753-29.454,17.027-30.589,17.429-3.26,2.725-8.166,3.249-13.889.908-11.137-4.557-21.132-18.219-22.325-30.516C6889.56,1168.267,6892.464,1162.922,6897.486,1161.142Z" transform="translate(-6890.192 -1141.321)"/></g><g transform="translate(193.117 1.57)"><path class="g" d="M6886.185,1166.348c.9-.753,29.454-17.028,30.589-17.43,3.26-2.725,8.167-3.249,13.889-.908,11.137,4.557,21.132,18.219,22.324,30.516.749,7.724-2.154,13.069-7.177,14.849-.9.753-29.454,17.027-30.588,17.43-3.261,2.725-8.167,3.249-13.889.908-11.138-4.557-21.132-18.219-22.325-30.516C6878.259,1173.473,6881.163,1168.127,6886.185,1166.348Z" transform="translate(-6878.891 -1146.526)"/></g><g transform="translate(190.003 22.713)"><path class="h" d="M6921.059,1235.572c1.148-10.647-6.6-19.135-17.309-18.958l-4.746.078a22.527,22.527,0,0,0-21.469,19.6l-8.853,82.065c-1.148,10.648,6.6,19.135,17.309,18.958l4.747-.079a22.527,22.527,0,0,0,21.469-19.6Z" transform="translate(-6868.57 -1216.611)"/></g><g transform="translate(151.692 1.689)"><path class="f" d="M6752.363,1176.237c1.333-1.113,43.566-25.186,45.245-25.78,4.823-4.031,12.079-4.806,20.543-1.343,16.473,6.74,31.257,26.949,33.021,45.137,1.108,11.424-3.187,19.33-10.615,21.963-1.333,1.113-43.566,25.186-45.245,25.78-4.822,4.031-12.079,4.806-20.543,1.343-16.473-6.74-31.257-26.948-33.021-45.136C6740.641,1186.776,6744.935,1178.87,6752.363,1176.237Z" transform="translate(-6741.575 -1146.919)"/></g><g transform="translate(155.338 19.995)"><path class="g" d="M6847.632,1207.6c5.012,7.576,8.426,16.145,9.217,24.307,1.108,11.424-3.187,19.331-10.615,21.963-1.332,1.114-43.566,25.186-45.244,25.781-4.823,4.031-12.08,4.806-20.543,1.342-11.937-4.884-20.935-12.676-26.786-25.811Z" transform="translate(-6753.661 -1207.601)"/></g><g transform="translate(43.013 29.264)"><path class="i" d="M6500.74,1239.812l-119.423,15.708L6466.734,1410l88.452-113.333C6550.33,1262.508,6527.085,1231.05,6500.74,1239.812Z" transform="translate(-6381.317 -1238.328)"/></g><g transform="translate(77.473 45.521)"><path class="a" d="M6495.545,1355.476l47.826,82.515s90.763-108.738,90.207-111.225c-2.926-13.094-8.48-25.353-15.753-34.547Z" transform="translate(-6495.545 -1292.218)"/></g><g transform="translate(98.6 32.837)"><path class="j" d="M6638.229,1250.172l-72.648,9.885,21.184,16.368,60.069-17.414Z" transform="translate(-6565.582 -1250.172)"/></g><g class="k" transform="translate(182.027 5.414)"><path class="j" d="M6889.555,1164.535l-37.761,22.491-9.665-5.616,38.448-22.141Z" transform="translate(-6842.129 -1159.269)"/></g><g transform="translate(12.187 7.363)"><g transform="translate(0 0)"><ellipse class="f" cx="53.714" cy="90.024" rx="53.714" ry="90.024" transform="translate(0 48.469) rotate(-26.819)"/></g></g><g transform="translate(0 15.17)"><g transform="translate(0 0)"><ellipse class="f" cx="53.714" cy="90.024" rx="53.714" ry="90.024" transform="translate(0 48.469) rotate(-26.819)"/></g></g><g transform="translate(11.253 18.631)"><ellipse class="j" cx="49.811" cy="83.48" rx="49.811" ry="83.48" transform="translate(0 44.946) rotate(-26.819)"/></g><g transform="translate(35.132 37.871)"><path class="a" d="M6451.567,1310.324c-12.031-19.411-28.2-31.271-35.458-35.535-32.145-18.881-59.375-2.89-60.82,35.717-.414,11.052.108,23.438,9.955,48.56C6378.566,1314.87,6415.9,1304.583,6451.567,1310.324Z" transform="translate(-6355.194 -1266.86)"/></g><g transform="translate(70.974 74.105)"><path class="a" d="M6549.343,1435.714c.629-16.815-11.184-37.1-26.385-45.309-7.3-3.939-14.042-4.372-19.159-1.907l0-.006-.221.118c-.228.114-.45.232-.671.358l-18.828,10.043a14.5,14.5,0,0,0-2.155,1.15l0,0h0c-4.628,3.013-7.593,8.725-7.888,16.59-.629,16.815,11.185,37.1,26.385,45.309,7.159,3.865,13.792,4.361,18.872,2.049h0l.038-.02a14.515,14.515,0,0,0,1.622-.877l17.329-9.361a14.521,14.521,0,0,0,4.145-2.239l.012-.006,0,0C6546.5,1448.452,6549.07,1443.011,6549.343,1435.714Z" transform="translate(-6474.004 -1386.969)"/></g><g transform="translate(72.045 58.566)"><path class="h" d="M6518.226,1335.459c-.208.114-31.331,18.281-31.331,18.281-.694.324-1.358,1.062-1.992,1.1h0v.073c-5.033,3.053-7.035,8.731-7.33,16.6-.629,16.815,10.144,37.123,24.145,45.347,6.594,3.873,11.178,4.468,17.338,2.075v0l.1-.023a13.5,13.5,0,0,0,1.532-.877s31.943-19.176,33.1-20.141A132.137,132.137,0,0,0,6518.226,1335.459Z" transform="translate(-6477.553 -1335.459)"/></g><g transform="translate(68.052 78.781)"><ellipse class="l" cx="14.815" cy="27.747" rx="14.815" ry="27.747" transform="translate(0 14.485) rotate(-29.266)"/></g><g transform="translate(106.917 58.566)"><path class="m" d="M6634.534,1397.892s-2.209-16.336-14.728-36.4c-6.169-9.888-11.2-16.879-20.854-26.032l-5.8,3.39s25.977,24.257,33.732,63.816Z" transform="translate(-6593.151 -1335.459)"/></g></g><path class="b" d="M8009.1,601.518s-3.617-35.911-30.748-40.146-25.773,14.41-25.773,14.41-.452-36.106-31.2-44.625-23.965,40.749-23.965,40.749Z" transform="translate(-1157.857 -99.454)"/><g transform="translate(6523.786 520.671)"><path class="j" d="M7572.281,925.88c4.947,1.319,8.7,5.933,8.375,10.311L7566.1,1134.768c-.316,4.38-4.588,6.856-9.534,5.537l-364.525-97.157c-4.947-1.318-8.7-5.933-8.375-10.311l14.552-198.579c.322-4.378,4.587-6.856,9.535-5.537Z" transform="translate(-7183.646 -828.367)"/></g><path class="n" d="M7139.794,1639.24l-12.529,12.875-3.595-5.291-362.206-101.816c-4.362-1.226-12.539.729-17.039,4.113l-140.232,104.93-.231-2.068-21.492,14.21-3.3-.463,1.445,8.987a3.793,3.793,0,0,0,3.009,2.96l376.98,106.424c4.362,1.226,11.646-.3,16.145-3.686l157.7-118.437c2.457-1.847,4.233-5.175,4.06-6.776Z" transform="translate(-237.738 -807.89)"/><path class="o" d="M6761.465,1545.008c-4.362-1.226-12.539.729-17.039,4.113l-140.232,104.93-.231-2.068-21.492,14.21-3.3-.463,1.445,8.987a3.793,3.793,0,0,0,3.009,2.96l376.98,106.424a15.864,15.864,0,0,0,6.468.178l-12.138-91.593C6957.4,1690.837,6761.465,1545.008,6761.465,1545.008Z" transform="translate(-237.738 -807.89)"/><path class="i" d="M6958.539,1743.061l-376.917-105.951c-4.362-1.226-4.25-5,.25-8.381l161.348-121.31c4.5-3.383,11.752-5.148,16.114-3.922l376.917,105.951c4.363,1.226,4.25,5-.25,8.382l-161.347,121.31C6970.153,1742.523,6962.9,1744.288,6958.539,1743.061Z" transform="translate(-237.214 -778.887)"/><g transform="translate(6443.257 745.289)"><g transform="translate(0 0)"><path class="n" d="M7210.014,1590.395a3.244,3.244,0,0,1-2.395.259l-22.413-6.169c-.809-.223-1.049-.7-.535-1.066l14.208-10.1a3.243,3.243,0,0,1,2.4-.258l22.413,6.169c.808.222,1.049.7.533,1.065Z" transform="translate(-7103.644 -1572.947)"/><path class="n" d="M7299.122,1678.9a3.229,3.229,0,0,1-2.4.261l-22.411-6.168c-.807-.222-1.041-.7-.522-1.066l14.214-10.1a3.234,3.234,0,0,1,2.381-.255l22.412,6.168c.819.226,1.049.7.544,1.061Z" transform="translate(-7165.872 -1634.753)"/><path class="n" d="M7258.467,1731.694a3.229,3.229,0,0,1-2.39.255l-22.416-6.17c-.795-.219-1.054-.695-.54-1.061l14.217-10.106a3.276,3.276,0,0,1,2.387-.253l22.417,6.17c.8.222,1.044.7.542,1.059Z" transform="translate(-7137.482 -1671.621)"/><path class="n" d="M7143.527,1764.026a3.247,3.247,0,0,1-2.386.258l-22.414-6.169c-.8-.22-1.04-.7-.531-1.061l14.212-10.1a3.262,3.262,0,0,1,2.392-.261l22.414,6.169c.8.221,1.036.7.526,1.064Z" transform="translate(-7057.226 -1694.198)"/><path class="n" d="M6942.317,1776.639a3.245,3.245,0,0,1-2.394.257l-22.413-6.169c-.809-.223-1.05-.7-.538-1.064l16.688-11.864a3.274,3.274,0,0,1,2.394-.256l22.412,6.169c.808.222,1.038.706.537,1.063Z" transform="translate(-6916.703 -1701.778)"/><path class="n" d="M7052.352,1807a4.043,4.043,0,0,1-2.853.131l-29.363-8.082c-1.052-.289-1.5-.823-.989-1.188L7035.834,1786a4.086,4.086,0,0,1,2.845-.132l29.364,8.082c1.064.293,1.5.833,1,1.189Z" transform="translate(-6988.094 -1721.511)"/><path class="n" d="M7710.1,2005.862a3.114,3.114,0,0,1-2.237.146l-22.4-6.164c-.818-.225-1.135-.654-.708-.957l6.17-4.386a3.16,3.16,0,0,1,2.254-.142l22.4,6.164c.808.222,1.115.652.691.953Z" transform="translate(-7452.925 -1867.138)"/><path class="n" d="M7809.422,2034.415a3.118,3.118,0,0,1-2.238.146l-22.4-6.164c-.817-.225-1.136-.654-.71-.957l6.17-4.386a3.162,3.162,0,0,1,2.255-.142l22.4,6.164c.808.222,1.113.652.692.952Z" transform="translate(-7522.285 -1887.077)"/><path class="n" d="M7914.633,2062.652a3.113,3.113,0,0,1-2.213.125l-22.4-6.167c-.8-.221-1.142-.643-.731-.935l5.943-4.226a3.149,3.149,0,0,1,2.219-.123l22.4,6.166c.808.222,1.129.644.724.933Z" transform="translate(-7595.763 -1906.919)"/><path class="n" d="M7848.244,2007.877a3.108,3.108,0,0,1-2.212.125l-22.4-6.166c-.8-.221-1.141-.643-.73-.935l5.942-4.225a3.151,3.151,0,0,1,2.218-.123l22.4,6.166c.806.222,1.129.644.723.933Z" transform="translate(-7549.403 -1868.669)"/><path class="n" d="M7295.72,1873.87a3.264,3.264,0,0,1-2.405.254l-145.848-40.143c-.8-.219-1.053-.7-.54-1.064l16.687-11.863a3.307,3.307,0,0,1,2.4-.256l145.848,40.143c.81.223,1.049.709.549,1.066Z" transform="translate(-7077.29 -1745.952)"/><path class="n" d="M7075.564,1830.907a.369.369,0,0,1-.23-.007l-17.133-4.716c-.094-.026-.146-.066-.115-.088l1.037-.737a.378.378,0,0,1,.23.006l17.132,4.716c.1.026.147.067.116.089Z" transform="translate(-7015.428 -1749.203)"/><path class="n" d="M6952.974,1792.022a.175.175,0,0,1-.131.021l-7.273-2c-.04-.011-.047-.038-.016-.061l1.037-.737a.179.179,0,0,1,.13-.021l7.274,2c.04.011.047.039.015.061Z" transform="translate(-6936.836 -1723.975)"/><path class="n" d="M7245.346,1792.013a3.252,3.252,0,0,1-2.4.255l-22.412-6.168c-.795-.219-1.047-.7-.54-1.064l14.213-10.1a3.292,3.292,0,0,1,2.4-.258l22.411,6.168c.813.224,1.045.7.536,1.067Z" transform="translate(-7128.32 -1713.741)"/><path class="n" d="M7347.655,1820.172a3.258,3.258,0,0,1-2.385.258l-22.409-6.168c-.8-.221-1.05-.7-.543-1.064l14.213-10.1a3.277,3.277,0,0,1,2.4-.258l22.41,6.168c.8.219,1.035.7.526,1.064Z" transform="translate(-7199.771 -1733.407)"/><path class="n" d="M7449.966,1848.328a3.248,3.248,0,0,1-2.386.258l-22.415-6.169c-.8-.221-1.038-.7-.531-1.061l14.213-10.1a3.254,3.254,0,0,1,2.39-.261l22.414,6.169c.8.22,1.036.7.526,1.064Z" transform="translate(-7271.22 -1753.069)"/><path class="n" d="M7552.245,1876.481a3.243,3.243,0,0,1-2.387.258l-22.414-6.169c-.811-.223-1.048-.7-.541-1.064l14.213-10.1a3.261,3.261,0,0,1,2.4-.258l22.414,6.169c.806.222,1.038.7.528,1.064Z" transform="translate(-7342.637 -1772.728)"/><path class="n" d="M7654.56,1904.64a3.279,3.279,0,0,1-2.4.253l-22.406-6.167c-.8-.22-1.037-.7-.529-1.061l14.213-10.1a3.252,3.252,0,0,1,2.39-.261l22.405,6.167c.812.223,1.055.706.545,1.069Z" transform="translate(-7414.088 -1792.392)"/><path class="n" d="M7756.872,1932.763a3.266,3.266,0,0,1-2.393.256l-22.408-6.167c-.807-.223-1.047-.7-.541-1.064l14.213-10.1a3.268,3.268,0,0,1,2.4-.258l22.407,6.167c.8.221,1.043.7.533,1.066Z" transform="translate(-7485.535 -1812.031)"/><path class="n" d="M7897.819,1971.555a3.252,3.252,0,0,1-2.392.256l-61.061-16.806c-.808-.222-1.045-.7-.537-1.062l14.213-10.1a3.256,3.256,0,0,1,2.4-.259l61.062,16.806c.806.222,1.042.7.532,1.066Z" transform="translate(-7556.973 -1831.692)"/><path class="n" d="M7360.295,1759.678a3.192,3.192,0,0,1-2.379.258l-22.416-6.17c-.806-.222-1.049-.693-.535-1.06l14.216-10.107a3.242,3.242,0,0,1,2.382-.254l22.417,6.17c.81.223,1.035.7.531,1.056Z" transform="translate(-7208.599 -1691.165)"/><path class="n" d="M7462.607,1787.837a3.232,3.232,0,0,1-2.385.256l-22.423-6.172c-.8-.219-1.042-.692-.527-1.058l14.217-10.106a3.24,3.24,0,0,1,2.375-.256l22.423,6.172c.8.22,1.04.7.538,1.057Z" transform="translate(-7280.042 -1710.828)"/><path class="n" d="M7564.9,1816a3.241,3.241,0,0,1-2.39.255l-22.412-6.168c-.793-.218-1.06-.7-.544-1.062l14.216-10.106a3.3,3.3,0,0,1,2.393-.251l22.411,6.168c.8.22,1.045.7.542,1.059Z" transform="translate(-7351.471 -1730.493)"/><path class="n" d="M7667.2,1844.15a3.228,3.228,0,0,1-2.387.256l-22.408-6.167c-.808-.223-1.054-.695-.539-1.061l14.216-10.107a3.252,3.252,0,0,1,2.386-.253l22.408,6.167c.8.222,1.042.7.539,1.058Z" transform="translate(-7422.916 -1750.154)"/><path class="n" d="M7769.519,1872.271a3.23,3.23,0,0,1-2.386.256l-22.421-6.171c-.808-.222-1.048-.693-.532-1.059l14.216-10.106a3.233,3.233,0,0,1,2.38-.254l22.42,6.171c.8.22,1.042.7.539,1.058Z" transform="translate(-7494.364 -1769.789)"/><path class="n" d="M7871.806,1900.427a3.214,3.214,0,0,1-2.383.257l-22.4-6.166c-.813-.224-1.061-.7-.545-1.063l14.215-10.106a3.257,3.257,0,0,1,2.394-.251l22.4,6.167c.8.221,1.04.7.536,1.057Z" transform="translate(-7565.801 -1789.454)"/><path class="n" d="M7974.11,1928.581a3.228,3.228,0,0,1-2.385.257l-22.422-6.172c-.8-.22-1.039-.691-.524-1.057L7963,1911.5a3.23,3.23,0,0,1,2.373-.256l22.422,6.171c.8.22,1.038.7.535,1.057Z" transform="translate(-7637.243 -1809.114)"/><path class="n" d="M7400.964,1706.889a3.239,3.239,0,0,1-2.4.262l-22.413-6.169c-.8-.219-1.036-.7-.517-1.065l14.214-10.1a3.241,3.241,0,0,1,2.376-.257l22.413,6.169c.809.223,1.045.7.541,1.059Z" transform="translate(-7236.996 -1654.301)"/><path class="n" d="M7503.237,1735.04a3.238,3.238,0,0,1-2.391.264l-22.413-6.169c-.805-.222-1.047-.7-.529-1.068l14.213-10.105a3.256,3.256,0,0,1,2.388-.253l22.412,6.169c.8.219,1.038.7.533,1.057Z" transform="translate(-7308.416 -1673.96)"/><path class="n" d="M7605.546,1763.2a3.241,3.241,0,0,1-2.4.261l-22.409-6.168c-.8-.22-1.038-.7-.521-1.065l14.214-10.105a3.244,3.244,0,0,1,2.38-.256l22.409,6.168c.812.224,1.049.7.544,1.06Z" transform="translate(-7379.86 -1693.622)"/><path class="n" d="M7707.823,1791.349a3.221,3.221,0,0,1-2.392.264l-22.415-6.169c-.807-.222-1.047-.7-.529-1.068l14.214-10.1a3.25,3.25,0,0,1,2.387-.253l22.415,6.169c.81.223,1.037.7.533,1.057Z" transform="translate(-7451.281 -1713.282)"/><path class="n" d="M7810.163,1819.476a3.231,3.231,0,0,1-2.385.266l-22.416-6.169c-.811-.223-1.043-.7-.525-1.067l14.213-10.1a3.235,3.235,0,0,1,2.384-.254l22.415,6.169c.794.218,1.033.7.528,1.056Z" transform="translate(-7522.753 -1732.924)"/><path class="n" d="M7912.462,1847.633a3.245,3.245,0,0,1-2.406.26l-22.411-6.168c-.794-.219-1.041-.7-.523-1.066l14.214-10.1a3.261,3.261,0,0,1,2.381-.255l22.411,6.168c.815.224,1.053.7.548,1.062Z" transform="translate(-7594.185 -1752.586)"/><path class="n" d="M8014.75,1875.786a3.238,3.238,0,0,1-2.394.264l-22.413-6.169c-.808-.222-1.045-.7-.527-1.067l14.215-10.105a3.241,3.241,0,0,1,2.384-.254l22.415,6.169c.8.22,1.038.7.534,1.058Z" transform="translate(-7665.618 -1772.246)"/><path class="n" d="M7160.726,1640.808a3.243,3.243,0,0,1-2.4.262l-38-10.46c-.809-.223-1.049-.7-.531-1.068l14.214-10.1a3.254,3.254,0,0,1,2.39-.253l38,10.459c.81.223,1.048.7.544,1.06Z" transform="translate(-7058.334 -1605.157)"/><path class="n" d="M8145.835,1847.888a3.246,3.246,0,0,1-2.4.259l-38-10.46c-.793-.219-1.042-.7-.529-1.064l14.208-10.1a3.26,3.26,0,0,1,2.393-.26l38,10.46c.808.222,1.049.7.533,1.065Z" transform="translate(-7746.274 -1749.766)"/><path class="n" d="M7103.151,1688.944a3.209,3.209,0,0,1-2.39.255l-45.3-12.469c-.809-.223-1.055-.7-.541-1.062l14.216-10.106a3.253,3.253,0,0,1,2.389-.252l45.3,12.469c.815.224,1.046.7.542,1.059Z" transform="translate(-7013.033 -1637.368)"/><path class="n" d="M7023.184,1730.9a3.256,3.256,0,0,1-2.394.256l-30.207-8.314c-.809-.223-1.046-.7-.539-1.063l14.213-10.1a3.26,3.26,0,0,1,2.4-.259l30.207,8.314c.808.222,1.044.7.534,1.066Z" transform="translate(-6967.733 -1669.568)"/><path class="n" d="M7312.316,1618.553a3.241,3.241,0,0,1-2.4.257l-22.4-6.165c-.807-.222-1.048-.7-.535-1.066l14.208-10.1a3.246,3.246,0,0,1,2.4-.258l22.4,6.165c.817.225,1.054.7.539,1.066Z" transform="translate(-7175.092 -1592.612)"/><path class="n" d="M7414.139,1646.538a3.255,3.255,0,0,1-2.4.257l-22.413-6.168c-.8-.221-1.046-.7-.534-1.065l14.208-10.1a3.252,3.252,0,0,1,2.4-.259l22.413,6.169c.807.222,1.052.7.537,1.066Z" transform="translate(-7246.19 -1612.153)"/><path class="n" d="M7516.429,1674.691a3.217,3.217,0,0,1-2.387.261l-22.413-6.169c-.8-.221-1.041-.7-.528-1.064l14.209-10.1a3.236,3.236,0,0,1,2.39-.26l22.413,6.169c.811.223,1.04.7.524,1.062Z" transform="translate(-7317.633 -1631.815)"/><path class="n" d="M7618.752,1702.854a3.255,3.255,0,0,1-2.4.258l-22.4-6.165c-.812-.224-1.05-.7-.537-1.066l14.209-10.1a3.24,3.24,0,0,1,2.4-.258l22.4,6.165c.806.222,1.051.7.536,1.066Z" transform="translate(-7389.084 -1651.482)"/><path class="n" d="M7721.02,1731a3.207,3.207,0,0,1-2.385.262l-22.407-6.167c-.812-.224-1.05-.7-.537-1.066l14.208-10.1a3.238,3.238,0,0,1,2.4-.258l22.408,6.167c.812.224,1.038.7.523,1.062Z" transform="translate(-7460.504 -1671.14)"/><path class="n" d="M7823.364,1759.129a3.247,3.247,0,0,1-2.388.26l-22.421-6.171c-.8-.22-1.036-.7-.523-1.062l14.208-10.1a3.228,3.228,0,0,1,2.385-.262l22.421,6.171c.8.219,1.042.7.527,1.063Z" transform="translate(-7531.971 -1690.78)"/><path class="n" d="M7925.639,1787.283a3.247,3.247,0,0,1-2.4.259l-22.41-6.168c-.812-.223-1.054-.7-.541-1.067l14.209-10.1a3.252,3.252,0,0,1,2.4-.257l22.411,6.168c.808.222,1.049.7.534,1.065Z" transform="translate(-7603.383 -1710.439)"/><path class="n" d="M8027.939,1815.435a3.226,3.226,0,0,1-2.383.262l-22.428-6.173c-.8-.219-1.032-.7-.52-1.061l14.208-10.1a3.224,3.224,0,0,1,2.382-.263l22.429,6.173c.8.22,1.035.7.52,1.061Z" transform="translate(-7674.833 -1730.1)"/><path class="n" d="M8079.927,1886.6a3.523,3.523,0,0,0-1.3-.09,2.3,2.3,0,0,0-1.074.347l-14.214,10.1c-.238.17-.342.378-.24.587a1.207,1.207,0,0,0,.757.477l5.851,1.611-18.639,13.25c-.241.171-.33.382-.224.586a1.178,1.178,0,0,0,.763.475l15.1,4.156a3.6,3.6,0,0,0,1.309.095,2.321,2.321,0,0,0,1.088-.348l33.788-24.021c.238-.17.329-.375.22-.582a1.166,1.166,0,0,0-.768-.479Z" transform="translate(-7708.674 -1791.904)"/><path class="n" d="M7046.117,1746.23a.373.373,0,0,1-.231-.007l-17.132-4.716c-.093-.026-.147-.066-.114-.088l1.036-.737a.377.377,0,0,1,.23.007l17.133,4.716c.1.026.147.067.116.089Z" transform="translate(-6994.864 -1690.071)"/></g></g><path class="n" d="M7204.61,1989.913l-82.135-22.107c-.95-.256-.967-1-.034-1.658l33.4-23.531a4.715,4.715,0,0,1,3.422-.728L7241.395,1964c.949.256.966,1,.034,1.658l-33.4,23.531A4.718,4.718,0,0,1,7204.61,1989.913Z" transform="translate(-616.637 -1085.24)"/><ellipse class="p" cx="3.984" cy="3.034" rx="3.984" ry="3.034" transform="matrix(0.485, -0.874, 0.874, 0.485, 6887.159, 852.879)"/><path class="n" d="M8471.915,982.152c0-.027,0-.054,0-.081,0-.113-.006-.227-.013-.341-.006-.09-.015-.18-.024-.27l0-.04c0-.01,0-.02,0-.03-.014-.108-.025-.216-.043-.323s-.034-.214-.055-.321c0-.015-.008-.03-.01-.045l-.009-.044c-.017-.075-.031-.149-.049-.224-.022-.1-.05-.208-.078-.311-.014-.049-.028-.1-.043-.146l-.018-.063c-.011-.033-.02-.066-.029-.1-.032-.1-.065-.205-.1-.307s-.07-.192-.107-.288l0-.011,0-.008c-.04-.1-.081-.2-.125-.3s-.089-.2-.136-.3c-.013-.026-.026-.052-.04-.079s-.018-.038-.026-.057c-.027-.053-.052-.107-.078-.159-.05-.094-.1-.188-.151-.281-.039-.071-.08-.141-.12-.21l-.018-.03-.019-.031q-.078-.132-.161-.262t-.161-.249l-.072-.1-.031-.045c-.022-.032-.044-.065-.068-.1-.06-.085-.121-.169-.184-.252s-.127-.166-.193-.248l-.02-.023c-.009-.013-.021-.025-.029-.037-.07-.087-.142-.173-.215-.258s-.142-.156-.212-.233c-.048-.052-.093-.1-.142-.156-.022-.024-.043-.049-.067-.073-.118-.125-.244-.244-.369-.364-.041-.039-.079-.08-.12-.119l-.02-.018q-.242-.225-.5-.437c-.022-.02-.048-.039-.073-.059s-.045-.036-.065-.054l-.18-.144c-.1-.078-.2-.155-.309-.23l-.118-.084-.062-.043c-.037-.027-.074-.054-.112-.08-.1-.069-.2-.136-.306-.2-.079-.05-.158-.1-.237-.146l-.044-.026-.038-.024c-.11-.066-.221-.13-.334-.192s-.234-.127-.353-.187l-.007,0-.01,0c-.113-.058-.228-.115-.344-.169s-.243-.112-.367-.165l-.048-.019-.05-.021c-.09-.037-.18-.075-.27-.11q-.185-.072-.372-.136l-.1-.035-.034-.013-.012,0-.219-.073c-.123-.038-.247-.075-.371-.109l-8.826-2.353-9.657,7.383s9.254,2.076,9.377,2.114.247.079.368.122.248.089.37.136.245.1.367.15c.052.022.1.046.151.068.2.086.388.177.576.273h0c.192.1.379.2.564.309l.07.04q.264.156.519.325l.078.051q.248.167.487.344c.028.021.057.042.083.064.159.119.313.241.463.367.077.065.152.133.227.2.093.081.187.161.275.244s.2.2.3.3c.065.065.131.128.194.194s.108.118.16.177c.1.1.192.208.284.316.024.029.046.058.071.087.123.148.244.3.359.452l.027.038c.121.162.236.326.348.492l.033.051q.16.244.3.494c.012.021.025.043.036.064.094.164.184.331.268.5.012.025.025.051.038.076.081.167.158.336.229.506l.032.078c.069.171.136.343.194.516.01.025.017.051.025.076.059.175.11.351.158.528l.018.07c.045.179.086.358.118.538.018.09.033.181.047.271.017.108.03.215.042.323s.022.226.029.34.013.227.014.341,0,.247,0,.371q0,.144-.015.288s-.013.191-.038.521l-2.016,27.5c-.555-.147-6.586,8.177-6.4,8.284.023.013-8.868,205.369-8.868,205.369-.068.93-3.5,7.508-2.633,6.861l9.02-9.1a10.715,10.715,0,0,0,3.227-6.661l17.017-237.477c.068-.93.171-2.328.171-2.328.008-.1.013-.192.016-.288s0-.163,0-.244c0,0,0-.009,0-.014S8471.915,982.163,8471.915,982.152Z" transform="translate(-1538.83 -406.666)"/><path class="i" d="M7628.746,751.781l-361.3-96.3h0l-.024-.006-.538-.143h-.005c-.409-.108-.9-.237-.953-.25-.124-.03-.248-.057-.371-.081s-.25-.048-.375-.069-.25-.039-.373-.054-.258-.03-.386-.041-.257-.02-.383-.026-.273-.01-.407-.01h-.064c-.117,0-.233,0-.348.007-.06,0-.118.008-.176.012l-.144.01-.112.008c-.142.013-.282.03-.42.05l-.035,0h0c-.167.025-.33.054-.49.088l-.055.014c-.074.016-.146.036-.218.054s-.174.04-.258.064c-.025.007-.048.017-.072.024-.118.035-.232.075-.346.115-.062.022-.126.039-.187.062-.014.005-.026.013-.04.018a6.854,6.854,0,0,0-.657.3c-.015.007-.032.013-.046.021s-.044.03-.067.042a6.526,6.526,0,0,0-.784.491l-9.477,7.035a6.481,6.481,0,0,1,.768-.482c.1-.056.21-.106.316-.157.128-.061.256-.122.389-.175.157-.064.317-.122.48-.175.062-.02.122-.043.185-.062q.341-.1.7-.172l.133-.024c.243-.044.49-.08.742-.1l.055,0c.267-.022.538-.032.814-.029l.066,0q.406.007.824.05l.082.009c.294.033.592.078.894.138.122.025.245.052.368.081.1.023.191.047.287.072l2,.533h0L7620.6,759.171a1.523,1.523,0,0,0,1.27-.265l7.1-5.267A1,1,0,0,0,7628.746,751.781ZM7264.129,656.7h0Z" transform="translate(-705.941 -186.491)"/><path class="q" d="M7578.062,774.58l-364.53-97.159c-4.947-1.319-9.213,1.159-9.535,5.537l-14.551,198.579a7.1,7.1,0,0,0-.013.776l-1.6,21.818c-.321,4.378,3.428,8.992,8.375,10.311l364.525,97.157c4.947,1.318,9.219-1.158,9.535-5.537l14.557-198.578a6.945,6.945,0,0,0,.013-.787l1.6-21.807C7586.758,780.512,7583.009,775.9,7578.062,774.58Z" transform="translate(-662.77 -202.039)"/><path class="c" d="M7587.714,836.65,7242.3,747.507c-4.688-1.21-8.744.794-9.067,4.478l-2.047,23.447a4.99,4.99,0,0,0-.164.873l-14.6,167.093c-.323,3.684,3.215,7.648,7.9,8.858l345.406,89.142c4.688,1.21,8.749-.793,9.067-4.478l2.049-23.445a5,5,0,0,0,.164-.875l14.6-167.092C7595.939,841.824,7592.4,837.86,7587.714,836.65Z" transform="translate(-682.738 -250.983)"/><line class="p" x1="14.736" y2="11.217" transform="translate(6774.375 927.11)"/><line class="p" x1="14.736" y2="11.217" transform="translate(6755.971 941.407)"/><line class="r" x2="371.133" y2="103.781" transform="translate(6527.975 727.018)"/><g transform="translate(6540.73 518.007)"><path class="s" d="M7353,1011.488l-113.193-29.312,16.749-162.638,113.193,29.312Z" transform="translate(-7239.811 -819.538)"/><g transform="translate(14.625 20.262)"><g transform="translate(213.19 40.804)"><path class="s" d="M8108.183,1213.914,7994.988,1184.6l16.75-162.638,113.192,29.313Z" transform="translate(-7994.988 -1021.964)"/><ellipse class="t" cx="33.618" cy="41.326" rx="33.618" ry="41.326" transform="translate(23.472 41.667) rotate(-18.563)"/><g transform="translate(14.625 106.741)"><path class="c" d="M8314.357,1455.87l1.491,4.7a.919.919,0,0,0,.508.577l4.144,1.692a.909.909,0,0,1,.276,1.483l-3.346,2.573a.776.776,0,0,0-.275.669l.289,4.839a.673.673,0,0,1-1.135.6l-3.562-3.107a.7.7,0,0,0-.68-.163l-3.964,1.3c-.562.185-1.142-.472-.978-1.111l1.146-4.495a.963.963,0,0,0-.145-.77l-2.739-4.037c-.39-.574-.076-1.336.532-1.289l4.268.33a.623.623,0,0,0,.59-.312l2.271-3.794C8313.373,1455.016,8314.146,1455.2,8314.357,1455.87Z" transform="translate(-8226.254 -1431.275)"/><path class="c" d="M8248.92,1436.009l1.491,4.7a.919.919,0,0,0,.509.576l4.143,1.692a.909.909,0,0,1,.277,1.483l-3.348,2.574a.777.777,0,0,0-.274.669l.29,4.839a.675.675,0,0,1-1.137.6l-3.559-3.108a.7.7,0,0,0-.68-.163l-3.964,1.3c-.565.185-1.144-.472-.98-1.111l1.146-4.495a.964.964,0,0,0-.144-.77l-2.74-4.036c-.39-.574-.076-1.336.531-1.289l4.269.33a.624.624,0,0,0,.591-.312l2.27-3.794C8247.934,1435.155,8248.708,1435.341,8248.92,1436.009Z" transform="translate(-8180.557 -1417.406)"/><path class="c" d="M8183.482,1416.148l1.491,4.7a.915.915,0,0,0,.508.577l4.144,1.692a.909.909,0,0,1,.277,1.483l-3.347,2.573a.775.775,0,0,0-.275.669l.29,4.84a.675.675,0,0,1-1.137.6l-3.56-3.108a.7.7,0,0,0-.68-.163l-3.964,1.3c-.563.185-1.143-.472-.979-1.111l1.146-4.494a.967.967,0,0,0-.144-.77l-2.74-4.037c-.39-.574-.076-1.336.532-1.289l4.268.33a.623.623,0,0,0,.59-.312l2.271-3.794C8182.5,1415.294,8183.27,1415.48,8183.482,1416.148Z" transform="translate(-8134.86 -1403.536)"/><path class="c" d="M8118.045,1396.288l1.491,4.7a.918.918,0,0,0,.509.577l4.143,1.692a.909.909,0,0,1,.277,1.483l-3.347,2.573a.775.775,0,0,0-.275.669l.29,4.839a.675.675,0,0,1-1.137.6l-3.561-3.108a.7.7,0,0,0-.679-.163l-3.964,1.3c-.563.185-1.143-.472-.979-1.111l1.147-4.494a.971.971,0,0,0-.145-.77l-2.74-4.037c-.389-.574-.076-1.336.532-1.289l4.269.33a.621.621,0,0,0,.589-.312l2.271-3.794C8117.06,1395.434,8117.834,1395.62,8118.045,1396.288Z" transform="translate(-8089.165 -1389.667)"/><path class="c" d="M8052.607,1376.427l1.491,4.7a.918.918,0,0,0,.508.576l4.144,1.692a.909.909,0,0,1,.277,1.483l-3.346,2.573a.773.773,0,0,0-.276.669l.289,4.84a.674.674,0,0,1-1.136.6l-3.56-3.107a.7.7,0,0,0-.68-.163l-3.964,1.3c-.562.185-1.143-.472-.979-1.111l1.147-4.494a.967.967,0,0,0-.145-.77l-2.74-4.037c-.39-.574-.076-1.336.531-1.289l4.27.33a.621.621,0,0,0,.589-.312l2.271-3.794C8051.622,1375.573,8052.395,1375.759,8052.607,1376.427Z" transform="translate(-8043.467 -1375.798)"/></g><line class="u" x2="79.525" y2="19.887" transform="translate(17.599 137.083)"/><line class="u" x2="48.192" y2="12.051" transform="translate(32.229 153.364)"/><g transform="translate(41.621 45.368)"><path class="t" d="M8222.9,1199.531s10.633,11.862-.768,32.433l-15.756-3.07Z" transform="translate(-8184.227 -1191.333)"/><path class="j" d="M8172.236,1292.586c-.136-.113-.078-.193.118-.277.632-.273,1.17-.752,1.8-1.025a2.071,2.071,0,0,0,.4-.168,7.248,7.248,0,0,0,.091-.726q.334-2.392.671-4.784c.049-.344.5-.246.453.1-.017.12-.032.241-.049.362l.311-1.677,13.278,2.879a10.769,10.769,0,0,0-.286,1.129.243.243,0,0,1,.356.275q-.331,2.347-.659,4.7a4.942,4.942,0,0,0-.09.533c.042-.089.342.452.426.568.448.629,1.548,1.592,2,2.221.2.274,2.168,3.052,1.974,2.78-.215-.3,1.289,3.969-.835,1.137.456.8,5.607,5.3,5.607,5.3l-17.8-1.811-12.621-8.406Z" transform="translate(-8156.992 -1250.59)"/><path class="j" d="M8180.987,1228.046c.284.109.225.66-.063.549-2.3-.879-2.179,4.245-2.151,5.784-.006-1.4-.155-3.875.286-5.145.164-.47.822-.845,1.17-1.135s.569.574.962.812l.287,10.485c-.03,0-.061,0-.091,0,.029.167-.064.377-.253.357-2.611-.277-2.828-3.848-2.829-6.221C8178.3,1231.734,8178.52,1227.1,8180.987,1228.046Z" transform="translate(-8164.625 -1211.158)"/><path class="j" d="M8248.9,1255.062c2.527.918,3.614-2.36,4.188-4.6.442-1.722,1.363-6.153-1.2-6.378-.3-.026-.364.523-.064.549.021,0,.037.01.058.013a.8.8,0,0,0-.184-.016l-2.838,9.758a4.236,4.236,0,0,0,.595.234,2.131,2.131,0,0,1-.5-.114C8248.673,1254.407,8248.612,1254.957,8248.9,1255.062Z" transform="translate(-8213.792 -1222.447)"/><path class="j" d="M8189.6,1190.524a7.415,7.415,0,0,1,7.341-4.144c.854.1,1.707.308,2.555.481h0l.129.028h0c2.545.59,5.027,1.3,6.844,3.788,1.725,2.361,2.227,5.523,2.229,8.5a49.62,49.62,0,0,1-1.4,10.584c-.557,2.56-.846,5.485-2.037,7.723-1.568,2.955-4.059,3.931-6.828,4.518-2.836.6-5.361-.811-7.723-2.7-2.641-2.117-3.9-5.675-3.795-9.3.084-2.976.089-5.972.29-8.933C8187.453,1197.439,8187.954,1193.583,8189.6,1190.524Z" transform="translate(-8170.635 -1182.136)"/><g transform="translate(24.329 19.884)"><path class="v" d="M8213.6,1238.266Z" transform="translate(-8213.603 -1238.266)"/></g><path class="w" d="M8202.5,1184.221h0q-3.905-.974-7.778-2.158a9.368,9.368,0,0,1-2.593-1.1,1.892,1.892,0,0,1-.848-1.075,2.952,2.952,0,0,1,.395-2.007,9.681,9.681,0,0,1,7.825-5.5c3.014-.212,5.993,1.059,8.705,2.885,1.993,1.343,4.572,3.772,4.272,7.379-.23,2.765-3.628,2.426-5.032,2.4A22.485,22.485,0,0,1,8202.5,1184.221Z" transform="translate(-8173.646 -1172.353)"/><path class="w" d="M8252.405,1211.543h0a1,1,0,0,1,.095-.427.693.693,0,0,1,.329-.247l1.187-.549a1.181,1.181,0,0,1,.686-.162c.434.077.722.6.893,1.088a9.519,9.519,0,0,1,.352,4.349,20.812,20.812,0,0,1-1.087,4.143,11.731,11.731,0,0,1-1.245,3.126c-.476-.319-.581-1.868-.69-2.461q-.271-1.472-.419-2.965A35.815,35.815,0,0,1,8252.405,1211.543Z" transform="translate(-8216.317 -1198.747)"/><path class="w" d="M8132.956,1314.111a2.878,2.878,0,0,1,.433-.334h0a10.983,10.983,0,0,1,4.331-1.2c1.438-.187,3.33-.574,5.16-.949s3.738-.766,5.192-.954l.245-.032.053.294a9.759,9.759,0,0,0,6.977,8.782c4.074,1.014,11.14.825,11.347-4.887l.121-.237.216.128a38.907,38.907,0,0,1,4.138,3.039,38.442,38.442,0,0,0,4.073,3,13.908,13.908,0,0,1,3.849,2.98,15.211,15.211,0,0,1,2.009,4.872,26.918,26.918,0,0,1-17.653,5.713C8151.193,1333.921,8139.815,1325.842,8132.956,1314.111Z" transform="translate(-8132.956 -1268.926)"/><path class="j" d="M8210.023,1275.6l-1.069-.83a8.621,8.621,0,0,0-2.74-1.472l-1.215-.37a5.348,5.348,0,0,0-2-.242l-2.058.171-.135,2.056s-.017,3.49,4.336,4.949C8210.625,1281.7,8210.023,1275.6,8210.023,1275.6Z" transform="translate(-8180.341 -1242.411)"/><path class="w" d="M8179.965,1191.936s-11.313,3.614-7.953,27.4l-8.445-1.111s-2.42-25.527,8.638-31.833S8179.965,1191.936,8179.965,1191.936Z" transform="translate(-8154.175 -1180.867)"/><g transform="translate(17.695 20.335)"><path class="w" d="M8191.726,1241.163a.429.429,0,0,1,.178-.7c.087-.045.172-.093.261-.141a3.05,3.05,0,0,1,2.108-.523,13.023,13.023,0,0,1,2.632.763.706.706,0,0,1,.444.893.581.581,0,0,1-.776.261h0c-.38-.137-.759-.233-1.16-.335-.32-.081-.651-.166-.987-.273a2.135,2.135,0,0,0-1.817.184.769.769,0,0,1-.5.078A.669.669,0,0,1,8191.726,1241.163Zm5.049.022h0Z" transform="translate(-8191.611 -1239.762)"/></g><g transform="translate(28.253 21.966)"><path class="w" d="M8231.47,1247.524a.685.685,0,0,1-.427-.24,1.934,1.934,0,0,0-1.584-.776c-.357-.013-.7-.046-1.033-.079-.417-.04-.81-.078-1.224-.08h0c-.369,0-.611-.206-.591-.5a.83.83,0,0,1,.829-.672,13.589,13.589,0,0,1,2.772.177,2.636,2.636,0,0,1,1.692,1.184l.173.216a.43.43,0,0,1-.163.7A.759.759,0,0,1,8231.47,1247.524Zm-4.2-1.731Z" transform="translate(-8226.61 -1245.169)"/></g><path class="w" d="M8198.994,1291.347a18.088,18.088,0,0,1-5.7-2.536l-.272,2.212S8198.15,1293.323,8198.994,1291.347Z" transform="translate(-8174.901 -1253.679)"/></g></g><ellipse class="x" cx="33.618" cy="41.326" rx="33.618" ry="41.326" transform="translate(8.847 21.405) rotate(-18.563)"/><g transform="translate(0 86.479)"><path class="y" d="M7559.179,1253.443l1.491,4.7a.92.92,0,0,0,.508.576l4.144,1.692a.91.91,0,0,1,.278,1.483l-3.347,2.573a.773.773,0,0,0-.276.669l.291,4.84a.675.675,0,0,1-1.137.6l-3.56-3.108a.7.7,0,0,0-.679-.163l-3.964,1.3c-.564.185-1.143-.471-.98-1.111l1.146-4.494a.964.964,0,0,0-.143-.77l-2.741-4.037c-.39-.574-.076-1.336.531-1.289l4.269.33a.622.622,0,0,0,.59-.312l2.27-3.794C7558.194,1252.589,7558.966,1252.775,7559.179,1253.443Z" transform="translate(-7471.076 -1228.849)"/><path class="c" d="M7493.741,1233.583l1.491,4.7a.92.92,0,0,0,.509.576l4.144,1.692a.909.909,0,0,1,.277,1.483l-3.347,2.574a.775.775,0,0,0-.276.669l.291,4.84a.675.675,0,0,1-1.137.6l-3.56-3.108a.7.7,0,0,0-.679-.163l-3.964,1.3c-.564.185-1.143-.472-.98-1.111l1.147-4.494a.967.967,0,0,0-.144-.77l-2.74-4.036c-.39-.574-.076-1.336.531-1.289l4.269.33a.624.624,0,0,0,.59-.313l2.27-3.794C7492.756,1232.728,7493.529,1232.914,7493.741,1233.583Z" transform="translate(-7425.38 -1214.979)"/><path class="c" d="M7428.3,1213.722l1.491,4.7a.923.923,0,0,0,.508.576l4.144,1.692a.91.91,0,0,1,.278,1.483l-3.347,2.573a.773.773,0,0,0-.276.669l.291,4.839a.675.675,0,0,1-1.137.6l-3.56-3.108a.7.7,0,0,0-.679-.163l-3.964,1.3c-.564.185-1.143-.472-.979-1.111l1.146-4.494a.965.965,0,0,0-.144-.77l-2.74-4.037c-.39-.574-.076-1.336.531-1.289l4.268.33a.623.623,0,0,0,.591-.312l2.27-3.794C7427.32,1212.868,7428.092,1213.054,7428.3,1213.722Z" transform="translate(-7379.683 -1201.11)"/><path class="c" d="M7362.867,1193.861l1.491,4.7a.921.921,0,0,0,.509.576l4.144,1.692a.909.909,0,0,1,.277,1.483l-3.347,2.573a.775.775,0,0,0-.276.669l.291,4.84a.675.675,0,0,1-1.137.6l-3.56-3.107a.7.7,0,0,0-.679-.163l-3.964,1.3c-.563.185-1.143-.472-.979-1.111l1.147-4.494a.969.969,0,0,0-.144-.77l-2.74-4.037c-.39-.574-.076-1.336.531-1.289l4.269.33a.624.624,0,0,0,.59-.312l2.271-3.794C7361.882,1193.007,7362.655,1193.193,7362.867,1193.861Z" transform="translate(-7333.987 -1187.241)"/><path class="c" d="M7297.43,1174l1.491,4.7a.92.92,0,0,0,.509.577l4.144,1.692a.909.909,0,0,1,.277,1.483l-3.347,2.574a.773.773,0,0,0-.276.669l.291,4.839a.675.675,0,0,1-1.137.6l-3.56-3.108a.7.7,0,0,0-.679-.163l-3.964,1.3c-.564.185-1.143-.472-.98-1.111l1.147-4.494a.969.969,0,0,0-.144-.77l-2.74-4.037c-.39-.574-.076-1.336.531-1.289l4.268.33a.624.624,0,0,0,.591-.312l2.271-3.794C7296.445,1173.147,7297.218,1173.333,7297.43,1174Z" transform="translate(-7288.29 -1173.372)"/></g><line class="u" x2="79.525" y2="19.887" transform="translate(2.974 116.821)"/><line class="u" x2="48.192" y2="12.051" transform="translate(17.605 133.102)"/><g transform="translate(27.446 26.269)"><path class="j" d="M7417.877,1092.024c-.134-.11-.077-.189.115-.273.62-.272,1.147-.744,1.767-1.015a1.991,1.991,0,0,0,.388-.167,6.858,6.858,0,0,0,.086-.714q.319-2.351.639-4.7c.046-.338.492-.244.446.1-.016.118-.031.237-.047.356l.3-1.649,13.07,2.77a10.49,10.49,0,0,0-.277,1.11.239.239,0,0,1,.352.268q-.313,2.308-.627,4.616a5.208,5.208,0,0,0-.085.525c.042-.088.339.442.421.557.444.616,1.529,1.557,1.974,2.173.193.268,2.146,2.988,1.954,2.722-.212-.295,1.287,3.893-.815,1.12.451.783,5.539,5.181,5.539,5.181l-17.512-1.7-12.449-8.2Z" transform="translate(-7402.903 -1050.718)"/><g transform="translate(13.347 16.515)"><path class="j" d="M7426.127,1028.648c.282.106.225.647-.06.54-2.264-.854-2.122,4.179-2.088,5.691-.013-1.377-.171-3.806.258-5.055.158-.463.8-.833,1.145-1.12s.563.561.95.794l.331,10.3c-.03,0-.061,0-.091,0,.03.164-.062.37-.246.351-2.569-.26-2.8-3.768-2.811-6.1C7423.506,1032.282,7423.7,1027.731,7426.127,1028.648Z" transform="translate(-7423.514 -1028.527)"/><path class="j" d="M7493.085,1054.88c2.488.89,3.543-2.334,4.1-4.534.426-1.693,1.313-6.051-1.2-6.26-.293-.024-.356.515-.06.54.021,0,.036.01.056.012a.809.809,0,0,0-.18-.015l-2.747,9.6a4.262,4.262,0,0,0,.585.227,2.107,2.107,0,0,1-.487-.109C7492.858,1054.238,7492.8,1054.779,7493.085,1054.88Z" transform="translate(-7471.968 -1039.392)"/></g><path class="j" d="M7434.62,991.674a7.289,7.289,0,0,1,7.2-4.1c.84.1,1.68.3,2.514.461h0l.128.027h0c2.5.569,4.95,1.258,6.747,3.692,1.706,2.312,2.215,5.416,2.23,8.338a48.667,48.667,0,0,1-1.326,10.4c-.538,2.517-.808,5.392-1.967,7.6-1.531,2.91-3.975,3.88-6.7,4.468-2.785.6-5.275-.773-7.6-2.621a11.19,11.19,0,0,1-3.774-9.124c.068-2.923.06-5.867.243-8.777C7432.541,998.476,7433.016,994.686,7434.62,991.674Z" transform="translate(-7416.141 -983.4)"/><g transform="translate(17.77 17.354)"><path class="t" d="M7438.293,1033.885a.95.95,0,0,1,.25-1.207c.1-.084.208-.172.314-.262a3.074,3.074,0,0,1,2.5-1.07,10.66,10.66,0,0,1,3.04,1.082,1.293,1.293,0,0,1,.469,1.488c-.153.481-.534.691-.926.511h0a10.146,10.146,0,0,0-1.341-.475c-.371-.112-.755-.228-1.142-.383a1.921,1.921,0,0,0-2.143.467.7.7,0,0,1-.6.176A.67.67,0,0,1,7438.293,1033.885Zm5.919-.387Z" transform="translate(-7438.175 -1031.309)"/></g><g transform="translate(28.612 20.487)"><path class="t" d="M7479.386,1045.383a2.319,2.319,0,0,0-1.941-1.337c-.4-.014-.794-.062-1.172-.11a9.468,9.468,0,0,0-1.382-.106h0c-.414.009-.73-.35-.771-.872-.044-.55.237-1.174.77-1.225a9.982,9.982,0,0,1,3.134.234c.992.22,1.61,1.2,2.156,2.064.082.129.163.257.244.381a1.119,1.119,0,0,1,.167.952.606.606,0,0,1-.483.441.551.551,0,0,1-.188-.007A.894.894,0,0,1,7479.386,1045.383Zm.68-.551Zm-5.229-2Z" transform="translate(-7474.114 -1041.695)"/></g><path class="t" d="M7446.423,985.43h0c-2.562-.627-8.681,2.887-11.224,2.123-.871-.262,1.816-4.745,1.012-5.28a1.862,1.862,0,0,1-.839-1.052,2.894,2.894,0,0,1,.379-1.973,9.518,9.518,0,0,1,7.669-5.441c2.964-.222,5.9,1.014,8.573,2.8,1.966,1.31,4.513,3.686,4.234,7.231-.213,2.717-3.556,2.4-4.936,2.377A22.131,22.131,0,0,1,7446.423,985.43Z" transform="translate(-7418.204 -973.782)"/><path class="t" d="M7496.259,1012.12h0a.928.928,0,0,1,.092-.42.675.675,0,0,1,.322-.244l1.164-.544a1.16,1.16,0,0,1,.673-.162c.427.074.712.585.883,1.065a9.334,9.334,0,0,1,.365,4.272,20.385,20.385,0,0,1-1.05,4.075,11.507,11.507,0,0,1-1.21,3.076c-.469-.311-.579-1.833-.689-2.415q-.274-1.445-.426-2.911A35.046,35.046,0,0,1,7496.259,1012.12Z" transform="translate(-7460.92 -999.591)"/><path class="t" d="M7379.269,1113.275a2.882,2.882,0,0,1,.424-.33h0a10.808,10.808,0,0,1,4.253-1.2c1.414-.19,3.272-.579,5.07-.955s3.671-.769,5.1-.961l.242-.032.052.288c-.862,4.054,2.29,7.977,6.091,8.9,4.011.978,11.768.456,11.946-5.156l.118-.233.213.125a38.286,38.286,0,0,1,4.082,2.968,37.894,37.894,0,0,0,4.02,2.925,13.691,13.691,0,0,1,3.8,2.911,14.957,14.957,0,0,1,2,4.777,26.483,26.483,0,0,1-17.333,5.69C7397.292,1132.656,7386.068,1124.769,7379.269,1113.275Z" transform="translate(-7379.269 -1068.768)"/><path class="t" d="M7443.589,1091.089a8.2,8.2,0,0,1-5.584-2.542l-.292,2.25S7442.767,1093.034,7443.589,1091.089Z" transform="translate(-7420.082 -1053.926)"/><path class="t" d="M7433.3,996.009h0a1.009,1.009,0,0,0,0-.439.906.906,0,0,0-.254-.366l-.992-1a1.443,1.443,0,0,0-.607-.435c-.424-.108-.806.261-1.073.648a8.319,8.319,0,0,0-1.275,3.922,22.188,22.188,0,0,0,.118,4.324,13.328,13.328,0,0,0,.486,3.438c.516-.1.95-1.506,1.182-2.016q.573-1.265,1.038-2.6A32.5,32.5,0,0,0,7433.3,996.009Z" transform="translate(-7414.023 -987.723)"/></g></g></g><path class="z" d="M7351.718,771l-91.051-23.5c-4.687-1.21-8.743.794-9.066,4.478l-2.048,23.447a4.9,4.9,0,0,0-.164.873l-6.684,76.516Z" transform="translate(-701.102 -250.983)"/><path class="aa" d="M7576.238,784.633l-21.923,194.729,153.291,39.813,22.066-195.991Z" transform="translate(-918.708 -277.155)"/><g transform="translate(6614.56 483.831)"><path class="j" d="M7637.837,967.074l-153.292-39.813,24.882-221.013,153.292,39.813Z" transform="translate(-7484.545 -706.248)"/><g transform="translate(34.015 28.34)"><g transform="translate(0 0)"><ellipse class="ab" cx="45.776" cy="55.993" rx="45.776" ry="55.993" transform="matrix(0.956, -0.294, 0.294, 0.956, 0, 26.881)"/><path class="j" d="M7724.977,1069.943c-.185-.16-.1-.269.172-.385.885-.372,1.646-1.03,2.531-1.4a2.847,2.847,0,0,0,.552-.229,9.542,9.542,0,0,0,.146-1.01q.535-3.326,1.069-6.653c.076-.477.7-.336.626.144-.027.167-.052.336-.079.5l.479-2.331,18.351,4.2a15.247,15.247,0,0,0-.43,1.568.335.335,0,0,1,.487.387q-.524,3.265-1.049,6.529a7.467,7.467,0,0,0-.139.742c.061-.123.462.634.574.8.6.882,2.1,2.239,2.71,3.121.264.384,2.923,4.28,2.661,3.9-.29-.422,1.679,5.545-1.191,1.571.611,1.119,7.635,7.458,7.635,7.458l-24.66-2.773-17.282-11.883Z" transform="translate(-7681.688 -980.632)"/><g transform="translate(41.666 54.18)"><path class="j" d="M7739.308,979.975c.393.156.295.922-.1.764-3.165-1.257-3.143,5.88-3.149,8.023.03-1.952-.106-5.4.543-7.16.241-.653,1.166-1.165,1.656-1.564s.774.806,1.313,1.145l.1,14.605c-.043,0-.084,0-.128-.006.037.232-.1.523-.361.493-3.617-.422-3.818-5.4-3.751-8.7C7735.479,985.072,7735.909,978.625,7739.308,979.975Z" transform="translate(-7735.419 -979.791)"/><path class="j" d="M7832.506,1018.59c3.48,1.314,5.084-3.235,5.944-6.341.662-2.391,2.067-8.549-1.479-8.9-.412-.041-.52.723-.1.764.03,0,.051.015.08.019a1.1,1.1,0,0,0-.253-.025l-4.217,13.549a5.949,5.949,0,0,0,.818.334,2.956,2.956,0,0,1-.685-.165C7832.208,1017.674,7832.11,1018.44,7832.506,1018.59Z" transform="translate(-7803.042 -996.242)"/></g><path class="j" d="M7751.131,928.086a10.4,10.4,0,0,1,10.308-5.667c1.181.152,2.36.453,3.531.705h0l.18.041h0c3.516.858,6.943,1.885,9.392,5.372,2.327,3.312,2.937,7.722,2.855,11.864a69.7,69.7,0,0,1-2.242,14.719c-.847,3.557-1.331,7.626-3.046,10.726-2.264,4.093-5.746,5.418-9.609,6.2-3.951.795-7.419-1.2-10.642-3.872-3.606-2.984-5.249-7.958-5-13.01.2-4.143.292-8.314.654-12.435C7747.954,937.685,7748.759,932.323,7751.131,928.086Z" transform="translate(-7701.724 -885.524)"/><g transform="translate(48.008 55.477)"><path class="ac" d="M7756.593,987.688a1.358,1.358,0,0,1,.4-1.706c.15-.117.3-.241.453-.365,1.021-.831,2.178-1.774,3.573-1.465a14.894,14.894,0,0,1,4.252,1.6,1.825,1.825,0,0,1,.608,2.119c-.233.678-.778.968-1.323.7h0a14.257,14.257,0,0,0-1.877-.7c-.52-.167-1.058-.339-1.6-.567a2.718,2.718,0,0,0-3.041.618,1,1,0,0,1-.847.236A.933.933,0,0,1,7756.593,987.688Zm8.37-.426Z" transform="translate(-7756.442 -984.093)"/></g><g transform="translate(63.235 60.115)"><path class="ac" d="M7814.271,1004.772c-.833-1.34-1.588-1.884-2.693-1.936-.568-.027-1.118-.1-1.651-.18a13.251,13.251,0,0,0-1.946-.178h0c-.583,0-1.017-.511-1.058-1.252-.042-.78.377-1.659,1.13-1.72a14,14,0,0,1,4.415.4c1.393.332,2.231,1.734,2.97,2.97.111.184.22.367.33.544a1.579,1.579,0,0,1,.2,1.353.868.868,0,0,1-.7.616.765.765,0,0,1-.266-.015A1.24,1.24,0,0,1,7814.271,1004.772Zm.979-.767Zm-7.31-2.941Z" transform="translate(-7806.918 -999.467)"/></g><path class="ac" d="M7770.336,919.472h0q-5.394-1.412-10.736-3.114a12.845,12.845,0,0,1-3.568-1.571,2.589,2.589,0,0,1-1.146-1.509,4.14,4.14,0,0,1,.6-2.789,13.623,13.623,0,0,1,11.019-7.554c4.191-.253,8.29,1.559,12,4.14,2.728,1.9,6.239,5.318,5.72,10.336-.4,3.847-5.1,3.327-7.051,3.267A30.975,30.975,0,0,1,7770.336,919.472Z" transform="translate(-7707.301 -871.924)"/><path class="ac" d="M7839.038,958.006h0a1.345,1.345,0,0,1,.145-.593.963.963,0,0,1,.462-.339l1.663-.748a1.646,1.646,0,0,1,.956-.216c.6.113.985.844,1.209,1.527a13.274,13.274,0,0,1,.365,6.062,29.308,29.308,0,0,1-1.627,5.754c-.488,1.317-.978,3.341-1.816,4.336-.653-.451-.754-2.61-.888-3.437q-.335-2.054-.5-4.136A49.873,49.873,0,0,1,7839.038,958.006Z" transform="translate(-7765.985 -909.064)"/><path class="ac" d="M7750.951,937.838h0a1.441,1.441,0,0,0,.021-.622,1.263,1.263,0,0,0-.346-.525l-1.364-1.443a2.022,2.022,0,0,0-.841-.629c-.595-.162-1.148.354-1.539.9a11.941,11.941,0,0,0-1.939,5.532,31.524,31.524,0,0,0,.013,6.131c.112,1.455.04,3.574.565,4.883.732-.133,1.4-2.116,1.739-2.833q.855-1.781,1.557-3.663A46.372,46.372,0,0,0,7750.951,937.838Z" transform="translate(-7700.302 -894.045)"/><path class="ac" d="M7670.353,1099.584a4.149,4.149,0,0,1,.61-.459h0a15.327,15.327,0,0,1,6.046-1.607c2-.24,4.64-.753,7.19-1.249s5.209-1.014,7.234-1.256l.343-.041.064.41c-1.362,5.728,2.948,11.354,8.281,12.745,5.627,1.469,16.595.889,17.045-7.062l.175-.328.3.182a53.146,53.146,0,0,1,5.657,4.29,52.647,52.647,0,0,0,5.571,4.229,19.064,19.064,0,0,1,5.257,4.2c.925,1.172,1.844,3.67,2.651,6.813a37.615,37.615,0,0,1-24.669,7.708C7695.107,1127.427,7679.542,1116.017,7670.353,1099.584Z" transform="translate(-7648.315 -1006.046)"/><path class="ac" d="M7772.522,1034.024l-1.358-1.178a36.158,36.158,0,0,0-11.179-6.778l-.146-.053a22.371,22.371,0,0,0-8.526-1.444l-5.456.229-.318,5.375s-1.79,10.683,9.75,14.446C7771.2,1049.808,7772.522,1034.024,7772.522,1034.024Z" transform="translate(-7700.75 -956.871)"/><path class="j" d="M7778.509,1046.629l-1.46-1.172a11.831,11.831,0,0,0-3.763-2.088l-1.677-.533a7.36,7.36,0,0,0-2.763-.365l-2.861.209-.246,2.862s-.122,4.859,5.878,6.953C7779.171,1055.13,7778.509,1046.629,7778.509,1046.629Z" transform="translate(-7714.927 -969.371)"/><path class="ac" d="M7776.892,1065.679l.675.227c1.767.594,3.3-.587,3.427-2.639l.152-2.5a4.9,4.9,0,0,0-2.972-4.792l-.674-.227c-1.767-.595-3.3.587-3.427,2.639l-.154,2.5A4.9,4.9,0,0,0,7776.892,1065.679Z" transform="translate(-7720.634 -978.546)"/></g></g><line class="ad" x2="107.705" y2="27.01" transform="translate(24.23 186.284)"/><line class="ad" x2="65.27" y2="16.368" transform="translate(43.879 208.406)"/><ellipse class="f" cx="18.999" cy="23.212" rx="18.999" ry="23.212" transform="translate(117.864 58.188) rotate(-18.45)"/><path class="ae" d="M7935.455,936.3l5.56,10.469,13.6-13.178" transform="translate(-7799.429 -865.01)"/><g transform="translate(20.528 145.051)"><path class="af" d="M7919.375,1295.838l1.963,6.384a1.229,1.229,0,0,0,.681.783l5.6,2.3a1.232,1.232,0,0,1,.356,2.015l-4.577,3.5a1.065,1.065,0,0,0-.384.909l.33,6.576a.922.922,0,0,1-1.551.819l-4.792-4.222a.948.948,0,0,0-.92-.222l-5.4,1.766c-.77.251-1.545-.641-1.316-1.51l1.616-6.107a1.308,1.308,0,0,0-.185-1.046l-3.667-5.485c-.521-.78-.085-1.815.738-1.751l5.791.448a.855.855,0,0,0,.806-.425l3.133-5.156C7918.049,1294.678,7919.1,1294.93,7919.375,1295.838Z" transform="translate(-7800.024 -1262.43)"/><path class="af" d="M7830.8,1268.861l1.963,6.384a1.229,1.229,0,0,0,.682.783l5.6,2.3a1.232,1.232,0,0,1,.356,2.016l-4.579,3.5a1.065,1.065,0,0,0-.382.909l.33,6.577a.922.922,0,0,1-1.552.819l-4.792-4.222a.944.944,0,0,0-.918-.222l-5.4,1.766c-.77.251-1.546-.641-1.316-1.51l1.616-6.108a1.308,1.308,0,0,0-.185-1.046l-3.668-5.485c-.521-.78-.085-1.815.739-1.752l5.791.448a.855.855,0,0,0,.805-.425l3.132-5.156C7829.47,1267.7,7830.518,1267.953,7830.8,1268.861Z" transform="translate(-7738.166 -1243.591)"/><path class="af" d="M7742.217,1241.884l1.963,6.384a1.228,1.228,0,0,0,.683.783l5.6,2.3a1.233,1.233,0,0,1,.357,2.016l-4.578,3.5a1.063,1.063,0,0,0-.383.909l.33,6.577a.922.922,0,0,1-1.551.819l-4.792-4.222a.947.947,0,0,0-.919-.222l-5.4,1.766c-.769.251-1.546-.641-1.316-1.51l1.616-6.107a1.307,1.307,0,0,0-.185-1.046l-3.667-5.485c-.521-.78-.085-1.815.739-1.751l5.791.448a.856.856,0,0,0,.806-.425l3.132-5.156C7740.891,1240.723,7741.938,1240.975,7742.217,1241.884Z" transform="translate(-7676.309 -1224.752)"/><path class="af" d="M7653.638,1214.906l1.962,6.384a1.23,1.23,0,0,0,.683.783l5.6,2.3a1.232,1.232,0,0,1,.357,2.015l-4.578,3.5a1.064,1.064,0,0,0-.384.909l.33,6.576a.922.922,0,0,1-1.551.819l-4.792-4.223a.947.947,0,0,0-.919-.222l-5.4,1.766c-.768.251-1.544-.641-1.315-1.51l1.616-6.107a1.307,1.307,0,0,0-.185-1.046l-3.667-5.485c-.521-.78-.085-1.815.738-1.751l5.79.448a.855.855,0,0,0,.806-.425l3.133-5.156C7652.312,1213.746,7653.359,1214,7653.638,1214.906Z" transform="translate(-7614.452 -1205.913)"/><path class="af" d="M7565.059,1187.929l1.963,6.384a1.235,1.235,0,0,0,.683.783l5.6,2.3a1.232,1.232,0,0,1,.357,2.016l-4.578,3.5a1.064,1.064,0,0,0-.384.909l.331,6.577a.922.922,0,0,1-1.551.818l-4.792-4.222a.948.948,0,0,0-.92-.222l-5.4,1.766c-.769.251-1.546-.641-1.316-1.51l1.616-6.108a1.312,1.312,0,0,0-.185-1.046l-3.667-5.485c-.521-.78-.085-1.815.738-1.751l5.791.448a.855.855,0,0,0,.805-.425l3.133-5.156C7563.732,1186.769,7564.779,1187.021,7565.059,1187.929Z" transform="translate(-7552.594 -1187.074)"/></g></g><g transform="translate(6755.163 589.99)"><g transform="translate(0 0)"><path class="ag" d="M8302.111,1519.863l13.635,9.158,10.385,2.265-3.94,9.581-9.539-3.228-13.479-11.453Z" transform="translate(-8194.025 -1380.578)"/><path class="f" d="M8273.3,1500h0a4.463,4.463,0,0,1,6.275-.436l2.42,2.1a4.461,4.461,0,0,1,.436,6.279h0a4.463,4.463,0,0,1-6.275.436l-2.42-2.1A4.462,4.462,0,0,1,8273.3,1500Z" transform="translate(-8175.197 -1365.643)"/><path class="ah" d="M8046.162,1135.811c6.434,33.06-15.691,51.721-39.275,52.056s-44.239-22.426-46.133-50.84,15.69-51.72,39.275-52.056S8040.722,1107.858,8046.162,1135.811Z" transform="translate(-7957.601 -1076.877)"/><path class="ai" d="M8199.908,1428.958l-8.768,11.377-19.5-39.69,10.535-7.779Z" transform="translate(-8104.965 -1291.892)"/><path class="aj" d="M8254.5,1538.773l.013-.007-24.178-47.045h0c-.665-1.988-2.938-3.156-6.5-2.942-6.2.373-13.935,4.782-17.271,9.849-1.728,2.622-1.929,4.9-.87,6.443l0,0,5.655,11.027,0,0,23.984,46.775,24.839-13.083Z" transform="translate(-8128.293 -1358.854)"/><ellipse class="ai" cx="13.921" cy="5.124" rx="13.921" ry="5.124" transform="translate(105.041 200.277) rotate(-29.166)"/><path class="ai" d="M8020.81,1082.02c-23.362-13.037-48.332-1.273-55.772,26.277s5.465,60.451,28.826,73.488,48.331,1.273,55.772-26.277S8044.171,1095.057,8020.81,1082.02Zm26.061,70.619c-6.321,23.4-31.135,32.707-50.978,21.633s-30.807-39.02-24.485-62.421,29.333-36.591,49.176-25.518S8053.191,1129.239,8046.871,1152.639Z" transform="translate(-7959.22 -1071.106)"/><path class="ai" d="M8114.693,1126.132c.051-.605.1-1.212.13-1.819.008-.108.009-.217.014-.326.014-.289.022-.578.033-.868.013-.352.033-.7.04-1.056,0-.2,0-.391,0-.587q0-.472,0-.943c0-.242.007-.484,0-.726,0-.291-.02-.582-.026-.872-.009-.315-.017-.629-.028-.944-.007-.156-.007-.311-.015-.467-.019-.414-.051-.827-.078-1.24-.018-.268-.03-.536-.051-.8-.006-.075-.009-.151-.014-.227q-.089-1.111-.214-2.22l0-.026c-.008-.067-.018-.134-.026-.2-.075-.654-.157-1.307-.25-1.959-.015-.1-.034-.2-.05-.308-.036-.247-.077-.492-.116-.739-.057-.351-.107-.7-.168-1.052-.039-.224-.087-.446-.127-.669q-.076-.408-.154-.814c-.04-.2-.073-.4-.113-.6-.081-.4-.173-.79-.262-1.184-.046-.21-.089-.421-.138-.631-.018-.074-.032-.15-.05-.224q-.242-1.036-.518-2.064c-.008-.029-.017-.058-.024-.087-.053-.2-.112-.391-.167-.588-.146-.527-.289-1.055-.448-1.578-.023-.083-.053-.163-.078-.246-.132-.431-.273-.857-.413-1.285-.112-.343-.215-.688-.331-1.029-.021-.062-.048-.122-.068-.184q-.573-1.658-1.226-3.281c-.036-.092-.066-.186-.1-.277-.11-.274-.233-.542-.348-.814-.187-.444-.373-.888-.568-1.327-.172-.39-.353-.774-.531-1.16-.2-.433-.4-.866-.613-1.294-.07-.141-.133-.286-.2-.426-.168-.337-.345-.668-.518-1-.118-.229-.235-.459-.356-.686q-.57-1.069-1.171-2.116a.2.2,0,0,1-.011-.019h0a.181.181,0,0,1-.011-.017q-.69-1.191-1.427-2.346c-.021-.034-.042-.07-.063-.1-.357-.561-.729-1.111-1.1-1.659-.075-.111-.146-.224-.223-.334l-.012-.02q-.669-.968-1.37-1.907c-.022-.031-.048-.06-.07-.091-.144-.191-.293-.375-.437-.564-.3-.388-.593-.779-.9-1.16-.058-.071-.119-.139-.177-.211-.207-.255-.421-.5-.632-.755-.234-.278-.462-.562-.7-.836-.088-.1-.181-.2-.27-.3-.231-.263-.469-.521-.705-.78-.2-.223-.4-.452-.607-.671-.116-.124-.239-.241-.356-.363-.258-.269-.519-.532-.78-.795-.182-.182-.357-.372-.542-.552-.145-.141-.295-.273-.439-.412q-.4-.38-.8-.751c-.163-.15-.32-.308-.486-.456s-.363-.309-.542-.467c-.267-.232-.533-.463-.8-.69-.139-.117-.273-.24-.413-.356-.228-.187-.463-.363-.692-.546-.254-.2-.506-.4-.764-.6-.1-.079-.2-.163-.307-.242-.312-.236-.634-.458-.951-.686-.219-.157-.433-.318-.653-.471-.056-.039-.11-.082-.168-.121q-.866-.6-1.754-1.157l-.017-.009c-.043-.027-.089-.051-.131-.079-.537-.335-1.078-.662-1.627-.975l-.414-.234q-.675-.376-1.352-.726c-.173-.089-.345-.166-.518-.252-.232-.117-.467-.232-.7-.343-.182-.087-.363-.182-.545-.266-.291-.135-.584-.255-.876-.383-.209-.091-.418-.186-.628-.274-.086-.036-.172-.077-.259-.113q-.879-.361-1.759-.677l-.011,0q-.9-.322-1.8-.6c-.077-.024-.156-.042-.233-.066-.219-.066-.435-.123-.651-.184-.308-.087-.617-.181-.925-.26-.153-.04-.307-.069-.46-.106-.271-.065-.539-.126-.809-.186-.208-.046-.416-.1-.623-.143s-.436-.075-.654-.115c-.272-.05-.545-.1-.817-.144-.144-.023-.287-.055-.431-.076-.258-.039-.513-.06-.771-.093-.317-.041-.637-.083-.955-.115-.111-.011-.225-.031-.337-.041-.265-.025-.526-.031-.791-.049-.345-.024-.687-.05-1.03-.064-.1,0-.2-.016-.3-.019-.234-.008-.467,0-.7,0-.412,0-.823-.009-1.233,0-.115,0-.232,0-.348,0-.456.015-.91.041-1.363.073l-.174.016c-.344.027-.689.055-1.031.092-.218.024-.434.057-.651.085-.163.021-.327.041-.489.064-.6.085-1.191.181-1.779.3l-.055.013c-.161.032-.318.074-.479.109-.492.106-.983.216-1.469.344-.237.063-.472.135-.707.2-.312.09-.628.171-.937.269-.078.025-.155.058-.233.083-.479.155-.948.329-1.42.506-.229.086-.461.164-.688.255-.694.278-1.382.575-2.058.9l-11.065,5.3c.677-.324,1.362-.621,2.057-.9.228-.091.46-.168.688-.255.471-.177.943-.351,1.422-.506.387-.126.777-.239,1.168-.351.236-.068.471-.141.708-.2.486-.127.978-.238,1.47-.344.16-.034.317-.077.478-.109.606-.121,1.219-.222,1.833-.31.164-.024.328-.044.493-.065.557-.071,1.117-.133,1.68-.178.059,0,.115-.011.174-.016.567-.041,1.139-.06,1.71-.074.411-.009.824-.005,1.237,0,.334,0,.668.005,1,.019s.688.04,1.031.064c.377.026.752.052,1.13.09.316.032.634.075.952.115.4.052.8.1,1.205.17.271.044.543.094.814.144q.637.118,1.277.259c.27.06.539.12.809.186.462.112.922.235,1.383.366.218.062.437.119.654.184.676.2,1.353.421,2.03.664l0,0,0,0c.674.241,1.346.508,2.019.79.208.087.418.182.627.273.474.207.948.422,1.422.65.233.112.466.226.7.342.625.312,1.247.632,1.869.979.692.387,1.374.793,2.048,1.214.041.025.083.048.123.074.657.413,1.3.844,1.941,1.288.219.152.432.312.649.468.423.305.846.613,1.262.932.255.2.508.4.76.6.372.3.744.6,1.109.9.27.226.536.457.8.689q.519.455,1.03.923.4.371.8.751.5.475.981.964c.262.262.522.525.779.793.325.34.646.686.963,1.034.237.26.476.518.709.782.327.37.646.749.964,1.128.212.253.427.5.636.759.364.45.72.909,1.074,1.37.146.189.294.373.438.564q.744.993,1.453,2.018c.073.106.143.217.215.323.4.584.79,1.174,1.171,1.773q.728,1.146,1.415,2.325c.007.014.017.027.024.041l0,.005c.406.7.8,1.411,1.179,2.128.121.228.236.459.356.688q.366.709.719,1.426c.211.428.413.86.614,1.293.18.386.36.772.532,1.162.2.438.381.88.566,1.323.152.364.306.728.453,1.094q.65,1.623,1.225,3.281c.139.4.268.809.4,1.214.14.428.282.855.413,1.286.184.6.356,1.208.525,1.815.056.2.115.4.169.6q.315,1.181.592,2.373c.048.21.092.421.139.63q.2.888.373,1.781.081.406.154.814.158.859.294,1.721c.039.246.082.492.118.739q.168,1.137.3,2.279c.007.063.018.125.024.188.093.824.167,1.649.23,2.474.021.269.034.538.051.807.036.567.069,1.134.092,1.7.014.317.021.634.029.95q.022.8.023,1.592c0,.315,0,.63,0,.945-.006.549-.022,1.1-.043,1.646-.011.288-.018.575-.033.863q-.053,1.075-.145,2.147c-.008.1-.013.209-.021.314-.073.818-.164,1.633-.268,2.447-.03.232-.065.462-.1.693-.082.583-.17,1.166-.268,1.746-.048.28-.1.56-.149.84q-.152.825-.327,1.646c-.056.265-.11.531-.171.8-.176.779-.363,1.556-.572,2.328-.218.81-.454,1.6-.7,2.386-.07.223-.147.438-.222.659-.178.537-.36,1.07-.552,1.594-.111.3-.229.6-.345.9-.172.444-.347.885-.529,1.319-.134.32-.271.636-.411.95q-.267.6-.546,1.187-.25.528-.512,1.045c-.178.353-.36.7-.545,1.046q-.327.608-.666,1.2c-.178.309-.356.615-.539.917-.288.474-.584.936-.885,1.393-.188.286-.372.578-.565.858-.1.141-.2.28-.3.419q-.5.713-1.032,1.4c-.068.089-.134.18-.2.268q-.668.852-1.368,1.657l-.011.012q-.7.8-1.434,1.553c-.1.1-.2.2-.3.3-.371.372-.745.736-1.127,1.09-.153.142-.308.282-.462.421q-.536.482-1.089.939c-.14.116-.278.236-.42.35-.5.4-1.006.8-1.522,1.169-.073.053-.147.1-.222.153q-.672.48-1.361.924c-.168.108-.337.212-.506.317q-.586.364-1.183.7c-.165.094-.328.189-.494.28-.552.3-1.108.594-1.672.864l11.065-5.3c.564-.27,1.121-.562,1.673-.864.165-.091.329-.186.494-.28q.6-.339,1.183-.7c.168-.105.337-.209.5-.318q.69-.445,1.363-.924c.072-.052.147-.1.221-.153.515-.373,1.022-.765,1.522-1.169.143-.114.28-.233.42-.35q.551-.457,1.088-.939c.154-.139.31-.278.462-.421q.571-.53,1.127-1.09c.1-.1.2-.2.3-.3.029-.03.06-.058.089-.089q.687-.71,1.346-1.464l.01-.012q.656-.753,1.286-1.548c.028-.036.055-.073.082-.109.07-.088.137-.18.207-.27q.524-.682,1.03-1.395c.1-.139.2-.278.295-.419.072-.1.147-.205.219-.311.12-.177.229-.368.348-.547.3-.457.6-.919.884-1.393.076-.126.158-.243.235-.37.1-.178.2-.367.3-.547q.341-.592.667-1.2c.09-.166.186-.323.272-.49s.18-.372.272-.555c.174-.345.346-.693.513-1.046.086-.181.179-.354.264-.537.1-.212.186-.435.281-.65.139-.314.277-.63.411-.951.069-.163.144-.32.21-.484.111-.273.212-.557.32-.835.116-.3.232-.6.344-.9.045-.122.095-.239.138-.362.146-.4.277-.82.415-1.232.073-.221.15-.437.222-.659.018-.054.036-.107.054-.161q.325-1.034.615-2.1l.035-.125q.261-.974.492-1.957c.028-.123.052-.248.079-.37.061-.264.113-.529.17-.794.066-.311.139-.62.2-.932.047-.238.084-.478.127-.717.052-.279.1-.558.149-.837.03-.184.067-.367.1-.551.064-.4.114-.8.17-1.2.032-.23.069-.459.1-.689.011-.077.023-.154.031-.231q.136-1.083.233-2.17l0-.047C8114.681,1126.342,8114.685,1126.237,8114.693,1126.132Z" transform="translate(-8012.254 -1058.15)"/><path class="ag" d="M8011.474,1075.016c-11.372-6.346-23.618-7.28-34.478-2.637-11.723,5.015-20.325,15.728-24.226,30.168-7.6,28.136,5.653,61.873,29.544,75.206a41.263,41.263,0,0,0,21.355,5.533,35.95,35.95,0,0,0,13.122-2.9c11.722-5.015,20.326-15.729,24.227-30.168C8048.618,1122.086,8035.364,1088.348,8011.474,1075.016Zm24.033,73.254c-3.433,12.705-11,22.132-21.317,26.545a31.634,31.634,0,0,1-11.545,2.549,36.309,36.309,0,0,1-18.791-4.869c-21.021-11.731-32.684-41.416-26-66.173,3.431-12.705,11-22.132,21.315-26.545,9.556-4.086,20.33-3.264,30.337,2.32C8030.531,1093.828,8042.193,1123.514,8035.507,1148.27Z" transform="translate(-7950.626 -1066.054)"/><path class="ak" d="M8320.851,2103.125c10.559-3.949,28.52-4.075,40.117-.281,5.609,1.835,8.7,4.251,9.2,6.7a15.707,15.707,0,0,1,1.573-.61c5.827-1.906,14.853-1.843,20.158.141s4.882,5.139-.946,7.045-14.854,1.844-20.159-.142a8.078,8.078,0,0,1-2.968-1.737,18.878,18.878,0,0,1-4.975,2.619c-10.559,3.949-28.52,4.075-40.117.281S8310.292,2107.074,8320.851,2103.125Z" transform="translate(-8203.998 -1785.759)"/><path class="f" d="M8417.729,1820.412c.533,4.6,6.451.308,6.451-3.195-7.374-23.72-15.252-42.946-24.4-50.873l-2.215-50.366-28.105-7.924,13.813,65.53Z" transform="translate(-8243.11 -1511.997)"/><path class="h" d="M8338.242,2114.225l-6.681,2.326c-5.154.177-7.831-.282-9.17,1.729l-.38.57c-1.339,2.01-.356,3.06,2.627,3.979l13.437,3.044c3.918.87,4.919-.423,5.9-2.8,0,0,.606-2.96-2.078-6.524C8340.361,2114.521,8340.467,2114.367,8338.242,2114.225Z" transform="translate(-8209.565 -1795.638)"/><path class="f" d="M8347.295,1880.419c1.467,3.714,7.9,2.9,7.793-.148,6.779-46.864,2.15-49.688,2.325-59.916.194-11.424,2.409-23.747,10.512-45.407l-7.288,1.165a24.083,24.083,0,0,0-20.27,23.575C8340.11,1828.792,8341.515,1851.824,8347.295,1880.419Z" transform="translate(-8222.773 -1558.711)"/><path class="h" d="M8339.063,1713.439l-4.346,61.385s21.7,18.6,48.386-4.513c-5.845-8.357-6.571-19-5.767-30.328,2.378-10.645-.317-19.4-3.373-27.054Z" transform="translate(-8218.849 -1515.4)"/><ellipse class="al" cx="13.93" cy="7.896" rx="13.93" ry="7.896" transform="translate(126.773 143.505) rotate(-71.341)"/><path class="f" d="M8360.011,1464.487c.55,6.642,6.83,10.259,11.607,6.949s8.206-11.378,7.658-18.02-4.865-9.343-9.643-6.032S8359.464,1457.845,8360.011,1464.487Z" transform="translate(-8236.485 -1328.976)"/><path class="f" d="M8389.033,1525.661l.72-.16a4.539,4.539,0,0,0,3.432-5.4l-3.057-13.7a4.54,4.54,0,0,0-5.4-3.432l-.719.161a4.539,4.539,0,0,0-3.432,5.4l1,13.6C8382.116,1524.554,8386.6,1526.2,8389.033,1525.661Z" transform="translate(-8250.796 -1368.703)"/><path class="h" d="M8379.674,1464.44s-.089,4.511-7.775,3.414c-6.149-.878-2.145-11.517-7.98-13.7-6.418-2.407-5.983-10.842-2.74-13.465s10.876-2.809,15.7.581S8392.477,1448.576,8379.674,1464.44Z" transform="translate(-8235.717 -1323.911)"/><path class="f" d="M8373.239,1493.8a2.934,2.934,0,1,0,2.684-3.166A2.934,2.934,0,0,0,8373.239,1493.8Z" transform="translate(-8245.742 -1360.16)"/><path class="ag" d="M8371.168,1591.624c0-10.778-.354-13.072,1.5-25.323.623-4.11.325-5.331.736-9.467.725-7.27-2.511-20.5-14.5-17.048l-1.082.754a25.3,25.3,0,0,0-5.1,1.96c-17.519,9.033-24.128,10.1-21.416,21.221.745,8.329,7.56,10.718,4.966,28.415C8339.867,1604.02,8367.176,1600.129,8371.168,1591.624Z" transform="translate(-8216.056 -1394.097)"/><path class="am" d="M8374.844,1530.69l1-1.439a4.406,4.406,0,0,1-3.709.215A5.644,5.644,0,0,0,8374.844,1530.69Z" transform="translate(-8244.977 -1387.134)"/><path class="b" d="M8390.793,1537.734a2.1,2.1,0,0,1,2.539,2.4,5.76,5.76,0,0,1-4.256,4.6c-4.129,1.4-8.665.647-10.848.128a.6.6,0,0,1-.168-1.087C8380.52,1542.251,8386.421,1538.791,8390.793,1537.734Z" transform="translate(-8248.917 -1393.017)"/><path class="h" d="M8529.578,2071.1l1.518,6.963c-.447,5.177-1.23,7.8.619,9.38l.524.448c1.848,1.582,3.782.615,4.3-2.147l4.329-12.554a6.068,6.068,0,0,0-3.259-6.411s-1.972-1.138-5.258.95C8530.185,2069.1,8529.99,2068.886,8529.578,2071.1Z" transform="translate(-8354.926 -1762.286)"/><path class="h" d="M8424.578,1464.152s6.652-8.269,12.61,1.951,2.643,22.286,11.116,28.182c0,0-14.825.192-16.484-9.209s-.772-17.331-6.083-17.586S8424.578,1464.152,8424.578,1464.152Z" transform="translate(-8280.521 -1339.467)"/><path class="f" d="M8354.193,2119.821l-8.549-.494a1.011,1.011,0,0,1-.355-1.913l5.349-3.19Z" transform="translate(-8225.837 -1795.638)"/><path class="f" d="M8533.019,2062.033s-2.156,10.035-3.264,11.343l-2.1-8.581,1.484-5.035Z" transform="translate(-8353.584 -1757.604)"/><path class="m" d="M8465.437,1793.608s-3.036,5.469-5.281,5.635c0,0,2.927.252,4.651-.915Z" transform="translate(-8306.445 -1571.742)"/><path class="m" d="M8334.718,1776.006l4.346-61.385,7.891,4.641s-6.482,54.448-1.541,62.261A29.206,29.206,0,0,1,8334.718,1776.006Z" transform="translate(-8218.849 -1516.583)"/><path class="f" d="M8223.764,1598.286h0a4.464,4.464,0,0,1,6.24-.8l2.539,1.96a4.461,4.461,0,0,1,.8,6.243h0a4.461,4.461,0,0,1-6.238.8l-2.539-1.96A4.465,4.465,0,0,1,8223.764,1598.286Z" transform="translate(-8140.722 -1434.139)"/><path class="an" d="M8331.236,1634.537s.9-10.766-.543-13.909-7.185-16.523-7.185-16.523l3.381-4.164c3.718,6.5,11.444,7,12.3,41.22C8339.186,1641.161,8332.121,1639.568,8331.236,1634.537Z" transform="translate(-8211.021 -1436.498)"/><path class="ag" d="M8280.327,1604.436l-11.848,21.42a5.437,5.437,0,0,1-8.97.808l-16.7-20.442,5.569-6.77,10.842,11.739a2.184,2.184,0,0,0,3.6-.592l6.955-15.586Z" transform="translate(-8154.669 -1433.058)"/></g></g><g transform="translate(6500.963 655.298)"><path class="h" d="M7360.187,1387.3l-28.489-6.275c-3.833-.844-5.82-5.506-4.415-10.358l13.371-46.172c1.406-4.852,5.692-8.132,9.526-7.287l28.488,6.275c3.833.845,5.821,5.506,4.415,10.358l-13.372,46.171C7368.307,1384.864,7364.021,1388.143,7360.187,1387.3Z" transform="translate(-7260.813 -1304.272)"/><path class="b" d="M7375.189,1390.883l-23.488-5.174c-3.161-.7-4.8-4.539-3.64-8.54l11.024-38.067,34.981,7.706-11.024,38.067C7381.884,1388.875,7378.35,1391.579,7375.189,1390.883Z" transform="translate(-7275.379 -1319.655)"/><path class="h" d="M7240.379,1641.36l23.588,4.116V1620.84l-23.588-4.115Z" transform="translate(-7200.44 -1513.527)"/><path class="f" d="M7375.236,1526.34l-6-13.357,12.607-5.8,3.667,17.634Z" transform="translate(-7290.425 -1437.031)"/><path class="ao" d="M7200.164,1956.867c-10.86-5.488-29.131-5.28-40.81.466a24.415,24.415,0,0,0-5.005,3.2c-7.606-2.193-17.8-1.566-24.722,1.837-8.206,4.037-8.671,10.436-1.041,14.293,7.333,3.706,19.464,3.7,27.683.117.506.306,1.035.606,1.6.893,10.86,5.489,29.131,5.28,40.81-.465S7211.023,1962.355,7200.164,1956.867Z" transform="translate(-7118.579 -1748.277)"/><path class="h" d="M7295.949,1989.76l8.307,1.391c6.084-.824,9.132-1.9,11.105.193l.56.593c.733,1.457-.42,3.792-2.656,4.661l-16.538,6.6c-3.23.766-6.623-.348-6.64-3.238,0,0,.018-8.08,1.492-8.4C7294.54,1990.921,7293.365,1990.373,7295.949,1989.76Z" transform="translate(-7235.153 -1774.029)"/><path class="ap" d="M7304.759,1977.156c-.041,3.386-8.279,3.287-8.238-.1l.133-11.007,8.238.1Z" transform="translate(-7239.646 -1757.472)"/><path class="h" d="M7286.818,1698.7c-2.879,3.9-10.022,3.831-11.561,1.191-.893-15.57-6.146-32.149-.144-53.556l-6.961-64.936,29.018,5.8-6.442,68.551Z" transform="translate(-7219.836 -1488.857)"/><path class="ap" d="M7129.477,1926.608c-1.845,2.466-8.745-2.044-6.9-4.51l6-8.016,6.9,4.51Z" transform="translate(-7117.959 -1721.181)"/><path class="h" d="M7137.737,1699.095c-4.045,2.416-9.5-4.355-10.059-7.107,4.869-13.615,8.068-33.276,20.772-41.038l5.4-36.6c-.461-5.618.582-10.084,2.9-18.3l20.849,12.276-18.586,55.245a14.094,14.094,0,0,1-1.33,2.851Z" transform="translate(-7121.738 -1499.086)"/><path class="f" d="M7276.886,1307.352c.531,6.65-3.3,10.014-8.553,7.516s-7.611-10.547-8.142-17.2.965-9.384,6.219-6.885S7276.355,1300.7,7276.886,1307.352Z" transform="translate(-7214.206 -1285.277)"/><path class="f" d="M7297.667,1297.319c-.185,6.668-6.266,10.626-11.222,7.578s-8.822-10.926-8.636-17.595,4.354-9.6,9.31-6.554S7297.854,1290.651,7297.667,1297.319Z" transform="translate(-7226.575 -1278.063)"/><path class="f" d="M7281.663,1356.367l-.682-.176a4.338,4.338,0,0,1-3.1-5.27l3.359-12.983a4.337,4.337,0,0,1,5.27-3.1l.682.177a4.337,4.337,0,0,1,3.1,5.27l-1.395,12.951C7288.3,1355.534,7283.965,1356.963,7281.663,1356.367Z" transform="translate(-7226.531 -1316.579)"/><path class="h" d="M7260.015,1299.777s1.242,4.494,9.43,3.574c6.178-.695,1.746-11.295,7.4-13.92,7.649-3.55,4.632-11.037,1.249-13.482s-7.679-1.033-12.972.738C7259.527,1278.56,7251.9,1282.893,7260.015,1299.777Z" transform="translate(-7211.683 -1274.639)"/><circle class="f" cx="2.937" cy="2.937" r="2.937" transform="matrix(0.569, -0.822, 0.822, 0.569, 60.001, 18.265)"/><path class="c" d="M7212.618,1448.333c.706-16.373,3.166-20.9,2.367-35.055.31-27.048.854-34.269,9.689-36.092l5.933-.662c1.853.353,3.569,1.206,5.4,1.654,7.67,1.876,12.588,2.295,18.1,5.278,4.906,2.656,5.192,9.758,5.18,15.706,1.325,17.434,1.676,43.679,1.922,52.285C7258.417,1463.767,7217.286,1456.673,7212.618,1448.333Z" transform="translate(-7181.054 -1345.788)"/><path class="am" d="M7321.6,1363.068l-1.074-1.384a4.41,4.41,0,0,0,3.719.013A5.659,5.659,0,0,1,7321.6,1363.068Z" transform="translate(-7256.413 -1335.424)"/><path class="s" d="M7337.172,1458.31l-4.5,4.854c-5.284,21.321-2.835,42.934-11.5,52.03,5.3-.015,10.157-.712,13.75-3.354a5.4,5.4,0,0,0,2.091-4.108Z" transform="translate(-7256.863 -1402.902)"/><path class="j" d="M7268.41,1375.009s-1.435,3.921,3.184,5.38,12.25-1.11,12.25-1.11S7278.764,1373.955,7268.41,1375.009Z" transform="translate(-7219.869 -1344.634)"/><path class="h" d="M7317.4,1321.715h0a.983.983,0,0,1-1.1-.841l-1.738-6.23c-.07-.534,1.319-.218,1.854-.29h0c.533-.072,2.061-.556,2.132-.022l-.307,6.282A.982.982,0,0,1,7317.4,1321.715Z" transform="translate(-7252.245 -1302.185)"/><path class="f" d="M7458.625,1475.012v0a4.933,4.933,0,0,0,6.759,1.635l5.582-3.406a4.932,4.932,0,0,0,1.635-6.759h0a4.932,4.932,0,0,0-6.759-1.635l-5.582,3.407A4.932,4.932,0,0,0,7458.625,1475.012Z" transform="translate(-7352.348 -1406.967)"/><path class="f" d="M7413.08,1491.354s-13.562,20.4-19.441,24.293-10.589-8.7-10.589-8.7l23-21.786Z" transform="translate(-7300.071 -1421.654)"/><path class="c" d="M7319.8,1420.718l15.769,27.789c2.868,7.115,21.125.285,16.847-7.845-.271-.513-21.533-36.183-21.533-36.183S7320.517,1410.446,7319.8,1420.718Z" transform="translate(-7255.906 -1365.31)"/><path class="aq" d="M7375.548,1520.52c3.746,3.632,13.315.4,14.37-5.076" transform="translate(-7294.833 -1442.8)"/><path class="h" d="M7119.808,1943.049l.118,7.635c1.73,5.292,5.7,5.917,4.155,8.019l-1.306,1.139c-1.306,1.325-5.664.917-6.566-.245l-7.664-11.613a7.352,7.352,0,0,1,1.687-8.066s2.271-2.255,3.424-2.286C7116.4,1937.558,7118.838,1940.844,7119.808,1943.049Z" transform="translate(-7107.988 -1737.626)"/><path class="i" d="M7423,1345.674l-17.019-3.235a2.316,2.316,0,0,1-1.769-3.033h0a3,3,0,0,1,3.316-2.066l17.018,3.234a2.316,2.316,0,0,1,1.77,3.033h0A3,3,0,0,1,7423,1345.674Z" transform="translate(-7314.767 -1318.393)"/><path class="ar" d="M7412.866,1412.053c-.928-2.428-3.306-4.345-6.516-5.3-3.547-1.056-7.044-.348-9.175,1.611" transform="translate(-7309.936 -1366.556)"/><ellipse class="ar" cx="4.226" cy="3.779" rx="4.226" ry="3.779" transform="translate(93.887 29.768) rotate(-9.323)"/><line class="ar" x2="22.572" y2="5.43" transform="translate(81.74 45.974)"/><line class="ar" x2="15.944" y2="3.836" transform="translate(85.439 54.288)"/></g><path class="a" d="M7002.538,2251.314l-51.318-14.047c1.695-2.506,1.188-6.674,6.6-10.118l41.391-26.356c5.409-3.444,14.766-4.912,20.794-3.262l51.319,14.047c6.027,1.65,6.534,5.818,1.125,9.262l-41.39,26.356C7025.645,2250.64,7016.289,2252.108,7002.538,2251.314Z" transform="translate(-497.549 -1263.349)"/><path class="as" d="M7011.671,2229.655l.421,10.337-14.316,1.54-107.9,13.817-.308-9.51Z" transform="translate(-454.496 -1286.256)"/><path class="as" d="M6947,2254.606l-51.318-14.047c-6.028-1.649-6.535-5.818-1.126-9.262l41.391-26.356c5.408-3.444,14.766-4.912,20.793-3.262l51.319,14.047c6.028,1.65,6.534,5.818,1.125,9.262l-41.391,26.356C6962.384,2254.789,6953.027,2256.256,6947,2254.606Z" transform="translate(-455.361 -1266.247)"/><path class="f" d="M6945.62,2218.519l-51.318-14.047c-6.027-1.65-6.534-5.818-1.125-9.262l41.39-26.356c5.409-3.444,14.767-4.912,20.794-3.262l51.319,14.047c6.027,1.65,6.535,5.818,1.125,9.262l-41.389,26.356C6961.005,2218.7,6951.648,2220.169,6945.62,2218.519Z" transform="translate(-454.399 -1241.046)"/><path class="a" d="M6633.521,2146.159l-51.318-14.047c1.695-2.505,1.188-6.674,6.6-10.117l41.391-26.357c5.409-3.444,14.766-4.912,20.794-3.262l51.318,14.047c6.028,1.65,6.534,5.818,1.125,9.262l-41.39,26.356C6656.629,2145.486,6647.272,2146.953,6633.521,2146.159Z" transform="translate(-239.854 -1189.917)"/><path class="as" d="M6642.654,2124.5l.421,10.337-14.315,1.54-107.9,13.817-.307-9.51Z" transform="translate(-196.801 -1212.824)"/><path class="as" d="M6577.982,2149.452l-51.319-14.047c-6.027-1.65-6.534-5.818-1.125-9.262l41.391-26.356c5.41-3.444,14.766-4.912,20.794-3.262l51.318,14.047c6.028,1.65,6.535,5.818,1.125,9.262l-41.39,26.356C6593.367,2149.634,6584.009,2151.1,6577.982,2149.452Z" transform="translate(-197.666 -1192.814)"/><path class="at" d="M6576.6,2113.365l-51.319-14.047c-6.027-1.65-6.534-5.818-1.125-9.262l41.39-26.356c5.409-3.444,14.766-4.912,20.793-3.262l51.318,14.047c6.028,1.65,6.535,5.818,1.125,9.262L6597.4,2110.1C6591.988,2113.547,6582.631,2115.015,6576.6,2113.365Z" transform="translate(-196.703 -1167.614)"/><path class="au" d="M7048.452,2224.607l-2.115,16.117,37.2-11.882" transform="translate(-563.973 -1282.731)"/><path class="a" d="M7371.994,2355.56l-51.318-14.047c1.695-2.506,1.189-6.674,6.6-10.118l41.39-26.357c5.408-3.444,14.767-4.912,20.793-3.262l51.319,14.047c6.027,1.65,6.534,5.818,1.125,9.262l-41.391,26.356C7395.1,2354.886,7385.745,2356.354,7371.994,2355.56Z" transform="translate(-755.551 -1336.148)"/><path class="as" d="M7381.127,2333.9l.421,10.337-14.316,1.54-107.9,13.817-.308-9.51Z" transform="translate(-712.497 -1359.055)"/><path class="as" d="M7316.456,2358.853l-51.319-14.047c-6.028-1.65-6.535-5.818-1.125-9.262l41.39-26.356c5.409-3.444,14.767-4.912,20.793-3.262l51.319,14.047c6.028,1.65,6.535,5.818,1.125,9.262l-41.39,26.356C7331.84,2359.035,7322.483,2360.5,7316.456,2358.853Z" transform="translate(-713.363 -1339.045)"/><path class="af" d="M7315.077,2322.766l-51.319-14.047c-6.028-1.65-6.534-5.818-1.125-9.262l41.39-26.357c5.409-3.444,14.766-4.912,20.793-3.262l51.319,14.047c6.027,1.65,6.535,5.818,1.125,9.262l-41.39,26.357C7330.461,2322.948,7321.1,2324.416,7315.077,2322.766Z" transform="translate(-712.401 -1313.844)"/><path class="au" d="M7417.96,2310.429l-3,7.468c-.169.422.059.821.612,1.068l9.786,4.369c1.393.622.487,1.961-1.531,2.267l-14.189,2.152a3.432,3.432,0,0,0-1.9.836l-6.844,7.113c-.974,1.012-3.565,1.212-4.386.339l-5.769-6.138a2.523,2.523,0,0,0-1.786-.552l-14.016.027c-1.993,0-2.69-1.212-1.18-2.058l10.623-5.945c.6-.336.9-.776.795-1.177l-1.818-7.1c-.258-1.009,1.9-1.961,3.657-1.611l12.335,2.464a4.581,4.581,0,0,0,2.275-.176l12.893-4.412C7416.354,2308.739,7418.387,2309.367,7417.96,2310.429Z" transform="translate(-792.052 -1341.747)"/><ellipse class="au" cx="17.678" cy="8.332" rx="17.678" ry="8.332" transform="translate(6364.571 906.337) rotate(-5.324)"/><path class="au" d="M6744.86,2164.057c-.017-.057-7.981-9.991-7.981-9.991" transform="translate(-347.869 -1233.47)"/></g></svg>