<svg xmlns="http://www.w3.org/2000/svg" width="16" height="16" viewBox="0 0 16 16"><defs><style>.a{fill:#fd5601;}</style></defs><path class="a" d="M3.2,2,1.8,2.011a.8.8,0,1,0,.011,1.6L2.671,3.6,5.307,9.927l-.958,1.531A1.688,1.688,0,0,0,5.757,14h8.851a.8.8,0,1,0,0-1.6H5.757c-.089,0-.1-.018-.052-.094h0L6.648,10.8h5.976a1.6,1.6,0,0,0,1.4-.823l2.883-5.189a.8.8,0,0,0-.7-1.187H4.4L3.942,2.492A.8.8,0,0,0,3.2,2ZM5.8,14.8a1.6,1.6,0,1,0,1.6,1.6A1.6,1.6,0,0,0,5.8,14.8Zm8,0a1.6,1.6,0,1,0,1.6,1.6A1.6,1.6,0,0,0,13.808,14.8Z" transform="translate(-1.009 -2)"/></svg>