<svg xmlns="http://www.w3.org/2000/svg" width="260" height="67.043" viewBox="0 0 260 67.043"><defs><style>.a{fill:#161e3f;}.b{fill:#0af;}.c{fill:#7a1dff;}.d{fill:none;stroke:#0af;stroke-miterlimit:10;stroke-width:0.75px;}.e{fill:#f72163;}.f{fill:#fd5601;}.g{fill:#ffc208;}.h{fill:#9de411;}</style></defs><g transform="translate(-213.381 -551.282)"><g transform="translate(286.259 568.664)"><path class="a" d="M375.215,599.224a12.267,12.267,0,0,0-12.437,12.437A12.535,12.535,0,0,0,375.6,624.384c5.48,0,10.293-3.526,11.628-7.72l-6.481-1.1a6.028,6.028,0,0,1-5.1,2.573c-3.193,0-5.432-1.668-5.528-4.193h17.536v-1.811C387.653,604.894,382.458,599.224,375.215,599.224Zm-5.1,9.721c.1-1.811,2.43-3.479,5.1-3.479,2.764,0,4.861,1.62,5.051,3.479Z" transform="translate(-362.778 -593.219)"/><path class="a" d="M427.113,607.058l-4.908-6.466H413.77v.381l8.863,11.484-8.1,11.58v.381h8.292l4.289-6.116,4.289,6.116h8.339v-.477l-8.006-11.484,8.816-11.484v-.381h-8.53Z" transform="translate(-388.895 -593.92)"/><path class="a" d="M479.772,586.915H478.3L468.669,599.4v.667h3.669v3.479c0,9.292,7.148,14.2,15.249,14.2v-7.291c-4.146-.048-7.91-2.1-7.91-6.909v-3.479h7.91v-6.481h-7.815Z" transform="translate(-417.014 -586.915)"/><path class="a" d="M525.194,604.711h-.047v-4.67l-7.244-.047v23.874h7.244v-6.576a10.7,10.7,0,0,1,11.008-11.1l-2.287-6.671C531.246,599.517,526.814,601.28,525.194,604.711Z" transform="translate(-442.231 -593.37)"/><path class="a" d="M575.854,599.708V602a10.134,10.134,0,0,0-7.328-2.912c-6.035,0-11.255,5.508-11.255,12.548,0,7.088,5.221,12.692,11.255,12.692a9.926,9.926,0,0,0,7.328-3.085v2.415h6.9V599.708Zm-5.46,18.009a6.059,6.059,0,0,1,0-12.117c3.3,0,5.46,2.682,5.46,6.035C575.854,615.034,573.7,617.716,570.394,617.716Z" transform="translate(-462.395 -593.148)"/><rect class="a" width="7.567" height="7.615" transform="translate(123.853 22.891)"/><path class="a" d="M655.677,599.708V602a10.132,10.132,0,0,0-7.328-2.915c-6.035,0-11.255,5.508-11.255,12.548,0,7.088,5.221,12.692,11.255,12.692a9.891,9.891,0,0,0,6.9-2.668v1.854c0,2.539-2.395,4.694-5.6,4.694a5.892,5.892,0,0,1-5.029-2.586l-6.61,1.2c1.342,4.215,6.179,7.759,11.687,7.759a12.6,12.6,0,0,0,12.884-12.788V599.708Zm-5.46,18.009a6.059,6.059,0,0,1,0-12.117c3.3,0,5.46,2.682,5.46,6.035C655.677,615.034,653.522,617.716,650.217,617.716Z" transform="translate(-503.279 -593.148)"/><path class="a" d="M712.7,608.757c-.192-1.868-2.3-3.5-5.077-3.5-2.682,0-5.029,1.676-5.125,3.5Zm-10.2,5.029c.1,2.539,2.347,4.215,5.556,4.215a6.058,6.058,0,0,0,5.124-2.586l6.514,1.1c-1.341,4.215-6.178,7.759-11.686,7.759a12.6,12.6,0,0,1-12.884-12.788,12.329,12.329,0,0,1,12.5-12.5c7.28,0,12.5,5.7,12.5,12.979v1.82Z" transform="translate(-532.999 -593.098)"/></g><g transform="translate(213.381 551.282)"><path class="b" d="M312.582,616.692l-8.1,5.888,8.77,26.99,8.1-5.888Z" transform="translate(-260.039 -584.784)"/><path class="c" d="M261.529,654.23l-14.855,10.792-8.1-5.888,22.959-16.68,22.959,16.681-8.1,5.888Z" transform="translate(-226.282 -597.979)"/><path class="d" d="M219.727,594.568" transform="translate(-216.631 -573.452)"/><path class="e" d="M216.476,594.568l22.959,16.681-8.77,26.99-8.1-5.888,5.674-17.463-14.855-10.793Z" transform="translate(-213.381 -573.452)"/><path class="d" d="M351.543,594.568" transform="translate(-284.146 -573.452)"/><path class="f" d="M237.271,568.745l5.674-17.463h10.017l-8.77,26.99H215.814l3.1-9.527Z" transform="translate(-214.627 -551.282)"/><path class="g" d="M294.994,568.745l-5.674-17.463H279.3l8.77,26.99h28.379l-3.1-9.527Z" transform="translate(-247.145 -551.282)"/><path class="h" d="M302.793,596.606l-3.1-9.527-30.963,22.5-13-9.446-3.1,9.527,16.1,11.7Z" transform="translate(-233.487 -569.617)"/></g></g></svg>