<svg xmlns="http://www.w3.org/2000/svg" xmlns:xlink="http://www.w3.org/1999/xlink" viewBox="0 0 628.37 61"><defs><style>.cls-1,.cls-13{fill:none;}.cls-2{fill:#f16122;}.cls-3{clip-path:url(#clip-path);}.cls-4{fill:#ed1d24;}.cls-5{fill:#f99f1c;}.cls-6{fill:#161e3f;}.cls-7{fill:#0af;}.cls-8{fill:#7a1dff;}.cls-9{fill:#f72163;}.cls-10{fill:#fd5601;}.cls-11{fill:#ffc208;}.cls-12{fill:#9de411;}.cls-13{stroke:#000;}</style><clipPath id="clip-path" transform="translate(0 -0.75)"><rect class="cls-1" x="297.37" width="331.5" height="62.5"/></clipPath></defs><g id="Layer_2" data-name="Layer 2"><g id="Layer_1-2" data-name="Layer 1"><rect class="cls-2" x="332.27" y="7.65" width="25.3" height="45.5"/><g class="cls-3"><path class="cls-4" d="M333.87,31.1A28.87,28.87,0,0,1,345,8.3,28.94,28.94,0,1,0,327.07,60,28.57,28.57,0,0,0,345,53.8a28.67,28.67,0,0,1-11.1-22.7" transform="translate(0 -0.75)"/></g><path class="cls-5" d="M388.47,47.9v.2h.4V49h.2v-.9h.3v-.2Zm2.1,0-.3.8-.3-.8h-.3V49h.2v-.8l.3.7h.2l.3-.7V49h.2V47.9Z" transform="translate(0 -0.75)"/><path class="cls-5" d="M391.77,31.1A28.91,28.91,0,0,1,362.87,60,28.57,28.57,0,0,1,345,53.8a29,29,0,0,0,0-45.6,29.65,29.65,0,0,1,17.9-6,28.85,28.85,0,0,1,28.9,28.9" transform="translate(0 -0.75)"/><path d="M449.57,31.3c0-3.4,2.2-6.2,5.8-6.2s5.8,2.7,5.8,6.2-2.3,6.2-5.8,6.2a5.89,5.89,0,0,1-5.8-6.2m15.6,0V21.7H461V24a7.29,7.29,0,0,0-6.1-2.8c-5.4,0-9.6,4.2-9.6,10.1s4.2,10.1,9.6,10.1a7.43,7.43,0,0,0,6.1-2.8v2.3h4.2Zm141.5,0c0-3.4,2.2-6.2,5.8-6.2s5.8,2.7,5.8,6.2-2.3,6.2-5.8,6.2a5.89,5.89,0,0,1-5.8-6.2m20.2,8.7v.3h.5l.1-.1a.1.1,0,0,0-.1-.1h-.5Zm.3-.2c.1,0,.3,0,.3.1a.37.37,0,0,1,.1.3c0,.1,0,.2-.1.2a.37.37,0,0,1-.3.1l.4.4h-.2l-.3-.4H627v.4h-.2V39.8Zm-.1,1.5a.6.6,0,0,0,.4-.1c.1,0,.2-.1.3-.2s.2-.2.2-.3.1-.2.1-.4a.6.6,0,0,0-.1-.4c0-.1-.1-.2-.2-.3s-.2-.2-.3-.2-.2-.1-.4-.1a.6.6,0,0,0-.4.1c-.1,0-.2.1-.3.2s-.2.2-.2.3-.1.2-.1.4a.6.6,0,0,0,.1.4c0,.1.1.2.2.3s.2.2.3.2a.76.76,0,0,0,.4.1m0-2.2a.9.9,0,0,1,.5.1c.1.1.3.1.4.3a1.38,1.38,0,0,1,.3.4.75.75,0,0,1,.1.5.9.9,0,0,1-.1.5c-.1.1-.2.3-.3.4a1.38,1.38,0,0,1-.4.3,1.3,1.3,0,0,1-1,0,1.77,1.77,0,0,1-.7-.7.75.75,0,0,1-.1-.5.9.9,0,0,1,.1-.5c.1-.1.2-.3.3-.4a1.38,1.38,0,0,1,.4-.3,1.09,1.09,0,0,1,.5-.1m-4.9-7.8V13.9H618V24a7.29,7.29,0,0,0-6.1-2.8c-5.4,0-9.6,4.2-9.6,10.1s4.2,10.1,9.6,10.1a7.43,7.43,0,0,0,6.1-2.8v2.3h4.2Zm-105-6.4c2.7,0,4.4,1.7,4.9,4.7h-10c.4-2.8,2.1-4.7,5.1-4.7m0-3.8c-5.6,0-9.6,4.1-9.6,10.1s4.1,10.1,9.9,10.1a11.53,11.53,0,0,0,7.9-2.7l-2.1-3.1a9.14,9.14,0,0,1-5.6,2c-2.7,0-5.2-1.2-5.8-4.7h14.3c0-.5.1-1,.1-1.6.1-5.9-3.7-10.1-9.1-10.1m50.6,10.2c0-3.4,2.2-6.2,5.8-6.2s5.8,2.7,5.8,6.2-2.3,6.2-5.8,6.2a5.89,5.89,0,0,1-5.8-6.2m15.6,0V21.7h-4.2V24a7.29,7.29,0,0,0-6.1-2.8c-5.4,0-9.6,4.2-9.6,10.1s4.2,10.1,9.6,10.1a7.43,7.43,0,0,0,6.1-2.8v2.3h4.2Zm-39.2,0c0,5.8,4.1,10.1,10.3,10.1a9.8,9.8,0,0,0,6.9-2.3l-2-3.4a8.61,8.61,0,0,1-5,1.7c-3.3,0-5.8-2.5-5.8-6.2a5.84,5.84,0,0,1,5.8-6.2,8.38,8.38,0,0,1,5,1.7l2-3.4a9.8,9.8,0,0,0-6.9-2.3c-6.3.1-10.3,4.4-10.3,10.3m53.9-10.2a5.72,5.72,0,0,0-5.1,2.8V21.6h-4.1V40.9h4.2V30.1c0-3.2,1.4-5,4.1-5a6.3,6.3,0,0,1,2.6.5l1.3-3.9a8,8,0,0,0-3-.6m-112.2,2.1a14.69,14.69,0,0,0-7.9-2c-4.9,0-8,2.3-8,6.2,0,3.1,2.3,5.1,6.6,5.7l2,.3c2.3.3,3.4.9,3.4,2,0,1.5-1.5,2.3-4.4,2.3a10.15,10.15,0,0,1-6.4-2l-2,3.3a13.82,13.82,0,0,0,8.3,2.5c5.6,0,8.8-2.6,8.8-6.3,0-3.4-2.5-5.2-6.7-5.8l-2-.3c-1.8-.2-3.3-.6-3.3-1.9s1.4-2.3,3.7-2.3a11.57,11.57,0,0,1,6,1.7Zm54-2.1a5.72,5.72,0,0,0-5.1,2.8V21.6h-4.1V40.9h4.2V30.1c0-3.2,1.4-5,4.1-5a6.3,6.3,0,0,1,2.6.5l1.3-3.9a8,8,0,0,0-3-.6m-35.7.5h-6.8V15.8h-4.2v5.8h-3.9v3.8h3.9v8.8c0,4.5,1.7,7.1,6.7,7.1a9.91,9.91,0,0,0,5.2-1.5l-1.2-3.6a7.83,7.83,0,0,1-3.7,1.1c-2.1,0-2.8-1.3-2.8-3.2V25.4h6.8Zm-62.6,19.3V28.8c0-4.6-2.9-7.6-7.6-7.7a7.55,7.55,0,0,0-6.8,3.4,7.08,7.08,0,0,0-6.4-3.4,6.13,6.13,0,0,0-5.6,2.9V21.6H411V40.9h4.2V30.2c0-3.3,1.9-5.1,4.7-5.1s4.2,1.8,4.2,5.1V40.9h4.2V30.2c0-3.3,1.9-5.1,4.7-5.1s4.2,1.8,4.2,5.1V40.9Z" transform="translate(0 -0.75)"/><path class="cls-6" d="M77.7,22.05a11.16,11.16,0,0,0-11.3,11.3A11.44,11.44,0,0,0,78.1,45c5,0,9.4-3.2,10.6-7l-5.9-1a5.38,5.38,0,0,1-4.6,2.3c-2.9,0-4.9-1.5-5-3.8h16v-1.6C89,27.25,84.3,22.05,77.7,22.05Zm-4.6,8.8c.1-1.6,2.2-3.2,4.6-3.2s4.4,1.5,4.6,3.2Z" transform="translate(0 -0.75)"/><polygon class="cls-6" points="101.2 27.8 96.7 21.9 89 21.9 89 22.3 97.1 32.7 89.7 43.3 89.7 43.6 97.3 43.6 101.2 38 105.1 43.6 112.7 43.6 112.7 43.2 105.4 32.7 113.4 22.3 113.4 21.9 105.7 21.9 101.2 27.8"/><path class="cls-6" d="M123.5,16.55h-1.3L113.4,28v.6h3.3v3.2c0,8.5,6.5,12.9,13.9,12.9v-6.6c-3.8,0-7.2-1.9-7.2-6.3v-3.2h7.2v-5.9h-7.1v-6.1Z" transform="translate(0 -0.75)"/><path class="cls-6" d="M141.9,27h0v-4.3h-6.6v21.7h6.6v-6a9.73,9.73,0,0,1,10-10.1l-2.1-6.1C147.4,22.15,143.4,23.75,141.9,27Z" transform="translate(0 -0.75)"/><path class="cls-6" d="M169.7,22.55v2.1A9.17,9.17,0,0,0,163,22c-5.5,0-10.2,5-10.2,11.4S157.6,45,163,45a9.23,9.23,0,0,0,6.7-2.8v2.2H176V22.55Zm-5,16.4a5.48,5.48,0,0,1-5.5-5.5,5.42,5.42,0,0,1,5.5-5.5c3,0,5,2.4,5,5.5S167.7,39,164.7,39Z" transform="translate(0 -0.75)"/><rect class="cls-6" x="179.2" y="36.7" width="6.9" height="6.9"/><path class="cls-6" d="M205.2,22.55v2.1a9.17,9.17,0,0,0-6.7-2.7c-5.5,0-10.2,5-10.2,11.4S193.1,45,198.5,45a9.4,9.4,0,0,0,6.3-2.4v1.7c0,2.3-2.2,4.3-5.1,4.3a5.35,5.35,0,0,1-4.6-2.4l-6,1.1c1.2,3.8,5.6,7.1,10.6,7.1a11.44,11.44,0,0,0,11.7-11.6V22.55Zm-5,16.4a5.48,5.48,0,0,1-5.5-5.5,5.42,5.42,0,0,1,5.5-5.5c3,0,5,2.4,5,5.5S203.2,39,200.2,39Z" transform="translate(0 -0.75)"/><path class="cls-6" d="M230,30.85c-.2-1.7-2.1-3.2-4.6-3.2s-4.6,1.5-4.7,3.2Zm-9.3,4.6c.1,2.3,2.1,3.8,5.1,3.8a5.53,5.53,0,0,0,4.7-2.4l5.9,1c-1.2,3.8-5.6,7.1-10.6,7.1a11.44,11.44,0,0,1-11.7-11.6A11.21,11.21,0,0,1,225.5,22c6.6,0,11.4,5.2,11.4,11.8v1.7Z" transform="translate(0 -0.75)"/><polygon class="cls-7" points="47.9 29.1 40.5 34.4 48.5 59 55.9 53.6 47.9 29.1"/><polygon class="cls-8" points="32.1 51.2 18.6 61 11.2 55.7 32.1 40.5 53 55.7 45.6 61 32.1 51.2"/><polygon class="cls-9" points="2.8 19.2 23.8 34.4 15.8 59 8.4 53.6 13.6 37.7 0 27.9 2.8 19.2"/><polygon class="cls-10" points="20.6 15.9 25.8 0 34.9 0 27 24.6 1.1 24.6 3.9 15.9 20.6 15.9"/><polygon class="cls-11" points="43.6 15.9 38.4 0 29.3 0 37.3 24.6 63.1 24.6 60.3 15.9 43.6 15.9"/><path class="cls-12" d="M63.1,25.35l-2.8-8.7L32.1,37.15l-11.8-8.6-2.8,8.7c7.3,5.3,14.7,10.6,14.7,10.6Z" transform="translate(0 -0.75)"/><line class="cls-13" x1="267.07" y1="10.5" x2="267.07" y2="50.5"/></g></g></svg>