<svg xmlns="http://www.w3.org/2000/svg" xmlns:xlink="http://www.w3.org/1999/xlink" width="491.183" height="97.942" viewBox="0 0 491.183 97.942"><defs><style>.a{fill:none;}.b{clip-path:url(#a);}.c{fill:#fff;}.d{fill:#f26522;}.e{fill:#e51b24;}.f{fill:#f99f1c;}.g{clip-path:url(#b);}.h{fill:#0af;}.i{fill:#7a1dff;}.j{fill:#f72163;}.k{fill:#fd5601;}.l{fill:#ffc208;}.m{fill:#9de411;}</style><clipPath id="a"><rect class="a" width="125.906" height="97.94"/></clipPath><clipPath id="b"><rect class="a" width="491.183" height="97.942"/></clipPath></defs><g transform="translate(365.277 0.001)"><g class="b"><path class="c" d="M437.031,108.313V101.8a3.765,3.765,0,0,0-3.981-4.089,4,4,0,0,0-3.636,1.839,3.8,3.8,0,0,0-3.42-1.839,3.539,3.539,0,0,0-3.117,1.514V97.968H420.8v10.345h2.1v-5.929a2.482,2.482,0,0,1,2.62-2.75c1.492,0,2.336.975,2.336,2.727v5.952h2.1v-5.929a2.5,2.5,0,0,1,2.619-2.75c1.537,0,2.358.975,2.358,2.727v5.952Zm33.72-10.345h-3.767V94.83h-2.1v3.138H462.7V99.85h2.188v4.891c0,2.4.844,3.83,3.506,3.83a5.282,5.282,0,0,0,2.813-.8l-.649-1.84a4.155,4.155,0,0,1-1.991.585c-1.126,0-1.581-.693-1.581-1.733V99.85h3.767Zm19.2-.259a3.2,3.2,0,0,0-2.815,1.514V97.968h-2.055v10.345h2.078v-5.822c0-1.711.823-2.814,2.294-2.814a3.662,3.662,0,0,1,1.407.261l.691-1.949a4.849,4.849,0,0,0-1.6-.279m-29.022,1.081a7.734,7.734,0,0,0-4.222-1.081c-2.619,0-4.221,1.232-4.221,3.289,0,1.688,1.169,2.706,3.485,3.03l1.06.151c1.233.173,1.906.605,1.906,1.191,0,.8-.91,1.321-2.446,1.321a5.374,5.374,0,0,1-3.441-1.082l-1.06,1.623a7.717,7.717,0,0,0,4.48,1.34c2.986,0,4.632-1.385,4.632-3.352,0-1.82-1.255-2.75-3.528-3.075l-1.059-.152c-.975-.13-1.84-.433-1.84-1.125,0-.758.822-1.278,2.056-1.278a6.683,6.683,0,0,1,3.224.887Zm31.38,4.35a5.157,5.157,0,0,0,5.433,5.431,5.425,5.425,0,0,0,3.722-1.232l-1.083-1.624a4.548,4.548,0,0,1-2.7.93,3.521,3.521,0,0,1,0-7.013,4.544,4.544,0,0,1,2.7.931l1.083-1.624a5.425,5.425,0,0,0-3.722-1.232,5.157,5.157,0,0,0-5.433,5.431m-14.543-5.431c-3.03,0-5.109,2.184-5.109,5.41a5.086,5.086,0,0,0,5.261,5.452,6.285,6.285,0,0,0,4.241-1.448l-1.1-1.537a4.928,4.928,0,0,1-3.007,1.081,3.043,3.043,0,0,1-3.183-2.683h7.727c.023-.28.043-.562.043-.865-.02-3.226-1.969-5.41-4.869-5.41m-.044,1.924a2.636,2.636,0,0,1,2.728,2.619h-5.584a2.767,2.767,0,0,1,2.857-2.619m-28,3.507V97.968h-2.077v1.255a4.1,4.1,0,0,0-3.355-1.514,5.441,5.441,0,0,0,0,10.862,4.1,4.1,0,0,0,3.355-1.513v1.254h2.077Zm-8.375,0a3.239,3.239,0,0,1,3.225-3.507,3.525,3.525,0,0,1,0,7.013,3.238,3.238,0,0,1-3.225-3.506m79.86-5.431a3.2,3.2,0,0,0-2.813,1.514V97.968h-2.056v10.345h2.077v-5.822c0-1.711.823-2.814,2.295-2.814a3.668,3.668,0,0,1,1.407.261l.692-1.949a4.862,4.862,0,0,0-1.6-.279m16.671,9.1a1.025,1.025,0,0,1,.406.082,1.047,1.047,0,0,1,.331.219,1.075,1.075,0,0,1,.224.328,1,1,0,0,1,0,.8,1.071,1.071,0,0,1-.224.327,1.1,1.1,0,0,1-.331.221,1.039,1.039,0,0,1-.406.08,1.054,1.054,0,0,1-.748-.3,1.052,1.052,0,0,1-.223-.327,1.007,1.007,0,0,1,0-.8,1.056,1.056,0,0,1,.223-.328,1.02,1.02,0,0,1,.334-.219,1.057,1.057,0,0,1,.414-.082m0,1.828a.775.775,0,0,0,.309-.064.812.812,0,0,0,.251-.17.793.793,0,0,0,.232-.567.793.793,0,0,0-.232-.565.785.785,0,0,0-.251-.171.773.773,0,0,0-.309-.062.788.788,0,0,0-.8.8.781.781,0,0,0,.231.567.83.83,0,0,0,.257.17.8.8,0,0,0,.315.064m.059-1.281a.429.429,0,0,1,.284.082.272.272,0,0,1,.1.223.26.26,0,0,1-.079.194.383.383,0,0,1-.225.095l.311.36h-.244l-.288-.358h-.094v.358h-.2v-.954Zm-.236.179v.254h.234a.231.231,0,0,0,.129-.033.107.107,0,0,0,.047-.1.1.1,0,0,0-.047-.094.231.231,0,0,0-.129-.032Zm-24.457-4.4V97.968h-2.079v1.255a4.1,4.1,0,0,0-3.355-1.514,5.441,5.441,0,0,0,0,10.862,4.1,4.1,0,0,0,3.355-1.513v1.254h2.079Zm-8.376,0a3.238,3.238,0,0,1,3.225-3.507,3.525,3.525,0,0,1,0,7.013,3.238,3.238,0,0,1-3.225-3.506m29.26,0V93.813h-2.078v5.41a4.1,4.1,0,0,0-3.354-1.514,5.441,5.441,0,0,0,0,10.862,4.1,4.1,0,0,0,3.354-1.513v1.254h2.078Zm-8.376,0a3.239,3.239,0,0,1,3.225-3.507,3.525,3.525,0,0,1,0,7.013,3.239,3.239,0,0,1-3.225-3.506" transform="translate(-414.282 -10.926)"/><rect class="d" width="37.456" height="61.181" transform="translate(44.225 8.318)"/><path class="e" d="M461.515,38.91a38.841,38.841,0,0,1,14.861-30.59,38.909,38.909,0,1,0,0,61.181A38.846,38.846,0,0,1,461.515,38.91" transform="translate(-413.423 -0.001)"/><path class="f" d="M551.619,71.128V69.875h.5v-.256h-1.285v.256h.5v1.253Zm2.5,0v-1.51h-.394l-.454,1.037-.453-1.037h-.394v1.51h.277v-1.14l.426.982h.289l.425-.984v1.142Z" transform="translate(-429.426 -8.108)"/><path class="f" d="M547.627,38.91A38.908,38.908,0,0,1,484.674,69.5a38.915,38.915,0,0,0,0-61.181,38.907,38.907,0,0,1,62.953,30.59" transform="translate(-421.721 -0.001)"/></g></g><g class="g"><path class="c" d="M102.712,43.014A13.273,13.273,0,0,0,89.254,56.471,13.565,13.565,0,0,0,103.125,70.24c5.93,0,11.138-3.816,12.582-8.354L108.694,60.7a6.524,6.524,0,0,1-5.517,2.785c-3.456,0-5.878-1.805-5.982-4.538h18.976v-1.96c0-7.838-5.621-13.973-13.459-13.973M97.2,53.533c.1-1.96,2.629-3.765,5.517-3.765,2.991,0,5.26,1.754,5.466,3.765Z" transform="translate(-10.394 -5.009)"/><path class="c" d="M134.156,50.828l-5.311-7h-9.127v.413l9.591,12.427L120.543,69.2v.413h8.972l4.64-6.619,4.64,6.619h9.024V69.1L139.158,56.67l9.54-12.427V43.83h-9.23Z" transform="translate(-13.942 -5.104)"/><path class="c" d="M164.531,35.66h-1.6L152.517,49.169v.722h3.971v3.764c0,10.056,7.735,15.367,16.5,15.367V61.133c-4.486-.052-8.56-2.269-8.56-7.477V49.891h8.56V42.879h-8.456Z" transform="translate(-17.761 -4.153)"/><path class="c" d="M189.819,48.809h-.051V43.755l-7.838-.05V69.538h7.838V62.422a11.583,11.583,0,0,1,11.911-12.014L199.2,43.189c-2.836,0-7.632,1.908-9.385,5.62" transform="translate(-21.187 -5.03)"/><path class="c" d="M225.559,43.6v2.477a10.964,10.964,0,0,0-7.93-3.151c-6.53,0-12.179,5.96-12.179,13.578,0,7.67,5.648,13.734,12.179,13.734a10.738,10.738,0,0,0,7.93-3.339v2.614h7.463V43.6ZM219.65,63.091a6.556,6.556,0,0,1,0-13.112c3.576,0,5.908,2.9,5.908,6.53,0,3.68-2.333,6.582-5.908,6.582" transform="translate(-23.926 -5)"/><rect class="c" width="8.189" height="8.24" transform="translate(212.879 56.277)"/><path class="c" d="M273.247,43.6v2.48a10.965,10.965,0,0,0-7.93-3.153c-6.529,0-12.178,5.96-12.178,13.578,0,7.669,5.649,13.734,12.178,13.734a10.7,10.7,0,0,0,7.464-2.888v2.007c0,2.746-2.592,5.079-6.064,5.079a6.375,6.375,0,0,1-5.442-2.8l-7.152,1.3c1.452,4.561,6.685,8.4,12.645,8.4A13.633,13.633,0,0,0,280.71,67.5V43.6Zm-5.907,19.487a6.557,6.557,0,0,1,0-13.113c3.576,0,5.907,2.9,5.907,6.531,0,3.679-2.332,6.582-5.907,6.582" transform="translate(-29.48 -5)"/><path class="c" d="M306.825,53.444c-.208-2.022-2.488-3.783-5.494-3.783-2.9,0-5.442,1.813-5.545,3.783Zm-11.039,5.442c.1,2.746,2.539,4.56,6.012,4.56a6.559,6.559,0,0,0,5.546-2.8l7.048,1.192c-1.451,4.561-6.686,8.4-12.645,8.4A13.634,13.634,0,0,1,287.8,56.4a13.341,13.341,0,0,1,13.526-13.527c7.878,0,13.526,6.166,13.526,14.045v1.969Z" transform="translate(-33.517 -4.993)"/><path class="h" d="M63.193,53.45l-8.769,6.371,9.489,29.206,8.769-6.371Z" transform="translate(-6.338 -6.225)"/><path class="i" d="M39.892,81.583,23.818,93.261,15.049,86.89,39.892,68.84,64.736,86.89l-8.77,6.371Z" transform="translate(-1.752 -8.017)"/><path class="j" d="M3.35,40.232l24.843,18.05L18.7,87.487,9.935,81.116l6.14-18.9L0,50.541Z" transform="translate(0 -4.685)"/><path class="k" d="M24.672,33.267l6.141-18.9H41.652L32.162,43.576H1.454L4.8,33.267Z" transform="translate(-0.169 -1.674)"/><path class="l" d="M56.363,33.267l-6.14-18.9H39.383l9.489,29.206H79.581l-3.35-10.309Z" transform="translate(-4.586 -1.674)"/><path class="m" d="M77.726,46.067,74.375,35.758,40.871,60.1,26.8,49.88,23.453,60.188,40.871,72.844Z" transform="translate(-2.731 -4.164)"/><rect class="c" width="4" height="45" transform="translate(321.1 30.041)"/></g></svg>