<svg xmlns="http://www.w3.org/2000/svg" width="19.036" height="28.015" viewBox="0 0 19.036 28.015"><defs><style>.a{fill:#7d4e24;}.b{fill:#633920;}.c{fill:#2a5322;}.d{fill:#2a6322;}.e{fill:#2a7322;}.f{fill:#50972f;}.g{fill:#fbf9ee;}.h{fill:#fc5c75;}.i{fill:#fc3760;}</style></defs><g transform="translate(-46.106 -501.664)"><g transform="translate(54.346 523.954)"><rect class="a" width="1.221" height="5.724" transform="translate(0 0)"/><rect class="b" width="1.336" height="5.724" transform="translate(1.221 0)"/></g><path class="c" d="M46.106,581.945l9.518-16.486,9.518,16.486Z" transform="translate(0 -54.339)"/><path class="d" d="M56.759,566.746,64.7,553l7.939,13.751Z" transform="translate(-9.074 -43.723)"/><path class="e" d="M64.625,549.967,71.4,538.235l6.773,11.732Z" transform="translate(-15.774 -31.151)"/><path class="f" d="M70.3,532l5.932-10.274L82.165,532Z" transform="translate(-20.609 -17.088)"/><circle class="g" cx="0.557" cy="0.557" r="0.557" transform="translate(54.399 509.03)"/><circle class="g" cx="0.899" cy="0.899" r="0.899" transform="translate(58.714 520.126)"/><circle class="g" cx="0.452" cy="0.452" r="0.452" transform="translate(52.037 515.984)"/><path class="g" d="M127.693,653.261a.452.452,0,1,1-.452-.452A.452.452,0,0,1,127.693,653.261Z" transform="translate(-68.724 -128.743)"/><path class="g" d="M128.188,578.073a.348.348,0,1,1-.348-.348A.348.348,0,0,1,128.188,578.073Z" transform="translate(-69.323 -64.787)"/><path class="g" d="M71.809,652.012a.348.348,0,1,1-.348-.348A.348.348,0,0,1,71.809,652.012Z" transform="translate(-21.3 -127.767)"/><path class="g" d="M91.218,663.566a.348.348,0,1,1-.348-.348A.348.348,0,0,1,91.218,663.566Z" transform="translate(-37.832 -137.609)"/><path class="g" d="M150.37,660.33a.348.348,0,1,1-.348-.348A.348.348,0,0,1,150.37,660.33Z" transform="translate(-88.217 -134.853)"/><path class="g" d="M118.022,623.361a.348.348,0,1,1-.348-.348A.348.348,0,0,1,118.022,623.361Z" transform="translate(-60.664 -103.363)"/><path class="g" d="M112.574,595.558a.522.522,0,1,1-.522-.522A.522.522,0,0,1,112.574,595.558Z" transform="translate(-55.728 -79.533)"/><path class="g" d="M90.392,630.679a.522.522,0,1,1-.522-.522A.521.521,0,0,1,90.392,630.679Z" transform="translate(-36.833 -109.448)"/><g transform="translate(54.11 501.664)"><path class="h" d="M101.161,502.692l-1.058.154.765.746-.181,1.053.94-.494v-2.405Z" transform="translate(-100.103 -501.734)"/><path class="i" d="M111.342,504.575l-.181-1.053.765-.746-1.058-.154-.473-.959-.006.012v2.405l.006,0Z" transform="translate(-108.865 -501.664)"/></g></g></svg>