<svg xmlns="http://www.w3.org/2000/svg" width="205.679" height="265.384" viewBox="0 0 205.679 265.384"><defs><style>.a{fill:#00a600;}.b{fill:#6fd62d;}.c{fill:#06b711;}.d{fill:#c12121;}.e{fill:#ad1212;}.f{fill:#ce3636;}.g{fill:#fdd100;}.h{fill:#ffe900;}.i{fill:#ffb901;}.j{fill:#759e86;}.k{fill:#890909;}.l{fill:#991010;}.m{fill:#a81a1a;}.n{fill:#423a38;}.o{fill:#fff;}.p{fill:#f4f1ed;}.q{fill:#e8e3dd;}.r{fill:#f9c785;}.s{fill:#dba767;}.t{fill:#352f2e;}.u{fill:#e25959;}.v{fill:#ffbd9a;}.w{fill:#f2ac8c;}.x{fill:#fc635b;}.y{fill:#f99a98;}</style></defs><g transform="translate(172.397 141.106)"><g transform="translate(0 1.774)"><path class="a" d="M3206.962,1138.955l6.808-10.484,12.484.654,5.676,11.138-6.808,10.485-12.484-.654Z" transform="translate(-3206.962 -1128.47)"/><path class="b" d="M3256.178,1139.6l12.454.652-5.667-11.123-12.454-.652Z" transform="translate(-3243.672 -1128.48)"/><path class="c" d="M3262.394,1199.983l-12.4-.65-6.88,10.5,12.483.654L3262.4,1200Z" transform="translate(-3237.434 -1188.206)"/><path class="d" d="M3281.272,1130.092l5.694,11.124,2.934.154-5.694-11.124Z" transform="translate(-3269.604 -1129.838)"/><path class="e" d="M3274.085,1211.436l2.931.154,6.828-10.5-2.932-.154Z" transform="translate(-3263.545 -1189.558)"/><path class="e" d="M3227.146,1154.587l-6.83,10.5,1.332,2.613,6.83-10.5Z" transform="translate(-3218.219 -1150.486)"/><path class="d" d="M3265.167,1157.246l12.4.551-1.326-2.6-12.4-.551Z" transform="translate(-3254.909 -1150.534)"/></g><g transform="translate(12.64)"><path class="f" d="M3297.7,1124.54c.276-1.985-.092-3.006-1.8-3.236a4.283,4.283,0,0,0-2.034.472,7.177,7.177,0,0,0,1.108-1.73c.569-1.488-2.29-2.531-4.276-2.8s-3.006.107-3.227,1.813c-.217,1.666,2.354,5.319,2.674,5.635.308.462,3.129,3.483,4.734,4.106C3296.362,1129.379,3297.419,1126.525,3297.7,1124.54Zm-8.94-4.53c.052-1.022.638-1.291,1.828-1.226s2.934.549,2.666,1.458a10.533,10.533,0,0,1-2.219,3.025.283.283,0,0,1-.413-.032C3290.5,1123.13,3288.7,1121.032,3288.756,1120.01Zm5.934,7.069a10.517,10.517,0,0,1-3.014-2.234.283.283,0,0,1,.034-.413c.112-.11,2.213-1.9,3.234-1.846s1.287.645,1.217,1.834S3295.6,1127.351,3294.69,1127.079Z" transform="translate(-3287.456 -1117.171)"/></g><path class="e" d="M3293.926,1139.385a9.814,9.814,0,0,1-1.188-1.086.283.283,0,0,1,.034-.413,12.342,12.342,0,0,1,2.215-1.549,4.016,4.016,0,0,1,.9-1.458,7.681,7.681,0,0,0-.965.35,7.207,7.207,0,0,0,1.109-1.73,1.062,1.062,0,0,0,.072-.368,13.039,13.039,0,0,1-2.805,2.235,10.719,10.719,0,0,1-1.207,1.354.283.283,0,0,1-.413-.032,12.454,12.454,0,0,1-1.227-1.623,4.8,4.8,0,0,1-1.737-1.292,16.8,16.8,0,0,0,2.489,4.377c.308.462,3.129,3.483,4.734,4.106a1.014,1.014,0,0,0,.6.05C3295.952,1141.962,3292.855,1140.073,3293.926,1139.385Z" transform="translate(-3275.878 -1130.625)"/></g><g transform="translate(154.488 140.94)"><g transform="translate(0 2.244)"><path class="g" d="M3092.909,1143.818l6.413-12.648,14.16-.77,7.747,11.878-6.414,12.648-14.16.77Z" transform="translate(-3092.909 -1130.401)"/><path class="h" d="M3141.7,1143.031l14.126-.768-7.736-11.862-14.126.768Z" transform="translate(-3127.521 -1130.401)"/><path class="i" d="M3162.809,1205.942l-14.069.765-6.493,12.669,14.159-.77,6.413-12.648Z" transform="translate(-3134.5 -1194.08)"/><path class="d" d="M3168.863,1132.422l7.766,11.86,3.327-.181-7.766-11.861Z" transform="translate(-3156.937 -1131.952)"/><path class="e" d="M3177.379,1220.619l3.325-.181,6.434-12.666-3.325.181Z" transform="translate(-3164.115 -1195.623)"/><path class="e" d="M3117.57,1163.13l-6.437,12.666,1.817,2.787,6.437-12.667Z" transform="translate(-3108.272 -1157.991)"/><path class="d" d="M3153.974,1161.267l14.056-.875-1.81-2.775-14.056.875Z" transform="translate(-3142.86 -1153.342)"/></g><g transform="translate(13.02)"><path class="f" d="M3188.019,1123.5c.072-2.272-.466-3.38-2.417-3.433a4.854,4.854,0,0,0-2.238.778,8.161,8.161,0,0,0,1.042-2.085c.462-1.747-2.889-2.578-5.161-2.638s-3.378.483-3.421,2.435c-.043,1.905,3.3,5.715,3.7,6.032.4.485,3.949,3.552,5.835,4.06C3187.1,1129.114,3187.947,1125.768,3188.019,1123.5Zm-10.63-4.031c-.066-1.159.563-1.533,1.913-1.6s3.376.265,3.184,1.322a11.947,11.947,0,0,1-2.137,3.68.322.322,0,0,1-.47.014C3179.735,1122.773,3177.454,1120.624,3177.389,1119.465Zm7.546,7.258a11.951,11.951,0,0,1-3.669-2.156.321.321,0,0,1-.012-.47c.113-.138,2.266-2.413,3.426-2.473s1.53.572,1.594,1.922S3185.992,1126.92,3184.935,1126.723Z" transform="translate(-3175.822 -1116.112)"/></g><path class="e" d="M3184.674,1137.559a11.1,11.1,0,0,1-1.471-1.082.321.321,0,0,1-.012-.47,14.029,14.029,0,0,1,2.312-2.014,4.54,4.54,0,0,1,.843-1.754,8.658,8.658,0,0,0-1.046.511,8.148,8.148,0,0,0,1.041-2.085,1.2,1.2,0,0,0,.036-.424,14.768,14.768,0,0,1-2.894,2.86,12.135,12.135,0,0,1-1.2,1.673.321.321,0,0,1-.47.014,14.216,14.216,0,0,1-1.58-1.682,5.453,5.453,0,0,1-2.116-1.248,19.048,19.048,0,0,0,3.336,4.636c.4.485,3.949,3.551,5.835,4.06a1.153,1.153,0,0,0,.68-.016C3187.27,1140.22,3183.549,1138.463,3184.674,1137.559Z" transform="translate(-3164.739 -1128.022)"/></g><path class="j" d="M3038.48,1860.358c0,1.755-10.477,3.178-23.4,3.178s-23.4-1.423-23.4-3.178,10.476-3.178,23.4-3.178S3038.48,1858.6,3038.48,1860.358Z" transform="translate(-2853.086 -1599.873)"/><g transform="translate(132.745 165.22)"><path class="k" d="M2974.879,1271.441s32.062-8.2,42.127,31.317-16.4,72.7-45.11,58.9S2954,1283.371,2974.879,1271.441Z" transform="translate(-2954.443 -1270.735)"/><path class="l" d="M2981.43,1375.1s26.038-6.661,34.213,25.433-13.322,59.041-36.635,47.839S2964.475,1384.787,2981.43,1375.1Z" transform="translate(-2963.201 -1358.228)"/><path class="m" d="M3209.368,1532.133c.5,5.2-1.395,9.635-4.23,9.908s-5.54-3.722-6.04-8.921,1.4-9.635,4.231-9.908S3208.868,1526.933,3209.368,1532.133Z" transform="translate(-3160.613 -1483.555)"/><path class="m" d="M3229.346,1666.622a2.672,2.672,0,1,1-2.672-2.672A2.671,2.671,0,0,1,3229.346,1666.622Z" transform="translate(-3181.675 -1602.205)"/></g><g transform="translate(12.322 176.056)"><g transform="translate(133.968 0.208)"><path class="d" d="M3056.875,1341.24l17.249,11.616s.54,3.141-2.207,3.491-31.214-7.324-31.214-7.324S3044.956,1339.69,3056.875,1341.24Z" transform="translate(-3040.704 -1341.067)"/><path class="e" d="M3043.628,1367.208a13.974,13.974,0,0,0-2.924,3.851s28.468,7.674,31.214,7.324a2.323,2.323,0,0,0,1.821-1.118C3069.627,1376.219,3054.379,1372.179,3043.628,1367.208Z" transform="translate(-3040.704 -1363.103)"/><g transform="translate(31.012 5.788)"><path class="n" d="M3258.7,1382.18c.356-.149,4.781-5.468,5.778-4s-.789,4.112-.789,4.112,8.907-1.531,9.926,3.823-8.859,8.619-17.171,3.272C3256.439,1389.389,3254.342,1383.987,3258.7,1382.18Z" transform="translate(-3253.15 -1377.926)"/><path class="o" d="M3242.834,1401.568a1.639,1.639,0,0,1,.869,1.248,13.516,13.516,0,0,1-.6,4.545c-.538,1.16-1.182,2.15-2.247,1.951s-2.318-.318-2.576-1.14a15.771,15.771,0,0,1,.665-5.692c.49-1.206.913-1.277,1.662-1.291A4.852,4.852,0,0,1,3242.834,1401.568Z" transform="translate(-3238.2 -1397.53)"/></g></g><g transform="translate(0 0)"><path class="d" d="M2319.991,1339.913l-17.249,11.615s-.54,3.141,2.206,3.491,31.214-7.324,31.214-7.324S2331.91,1338.362,2319.991,1339.913Z" transform="translate(-2284.617 -1339.739)"/><path class="e" d="M2335.542,1365.88a13.964,13.964,0,0,1,2.924,3.851s-28.468,7.674-31.214,7.324a2.322,2.322,0,0,1-1.82-1.118C2309.542,1374.891,2324.79,1370.851,2335.542,1365.88Z" transform="translate(-2286.92 -1361.775)"/><g transform="translate(0 5.788)"><path class="n" d="M2202.534,1380.854c-.356-.149-4.781-5.468-5.778-4s.79,4.111.79,4.111-8.906-1.531-9.926,3.823,8.858,8.619,17.17,3.272C2204.79,1388.063,2206.888,1382.661,2202.534,1380.854Z" transform="translate(-2187.547 -1376.6)"/><path class="o" d="M2284.109,1400.24a1.639,1.639,0,0,0-.869,1.248,13.516,13.516,0,0,0,.6,4.545c.538,1.16,1.182,2.15,2.247,1.95s2.318-.318,2.576-1.14a15.777,15.777,0,0,0-.665-5.692c-.49-1.206-.913-1.277-1.662-1.291A4.854,4.854,0,0,0,2284.109,1400.24Z" transform="translate(-2268.209 -1396.202)"/></g></g></g><g transform="translate(65.259 220.085)"><path class="j" d="M2603.143,1846.074c0,2.943-17.567,5.328-39.237,5.328s-39.237-2.386-39.237-5.328,17.567-5.328,39.237-5.328S2603.143,1843.132,2603.143,1846.074Z" transform="translate(-2524.669 -1806.104)"/><g transform="translate(2.162)"><path class="d" d="M2575.986,1622.84c-3.058-.741-26.567-6.127-37.546.736,0,0,16,16.164,16.49,27.1h4.571s4.174-14.582,16.484-14.845c12.31.263,16.23,14.866,16.23,14.866l4.825-.021c.49-10.939,16.49-27.1,16.49-27.1C2602.553,1616.713,2579.044,1622.1,2575.986,1622.84Z" transform="translate(-2538.44 -1620.131)"/><path class="f" d="M2549.836,1621.372c-4.3.375-8.333,1.335-11.4,3.249,0,0,16,16.164,16.49,27.1h.656c1.027-11.653-5.268-24.529-5.268-24.529S2550.1,1624.335,2549.836,1621.372Z" transform="translate(-2538.44 -1621.177)"/><path class="e" d="M2885.2,1650.687l1.814-.008c.49-10.939,16.49-27.1,16.49-27.1-5.33-3.332-13.614-3.776-21.077-3.267a63.833,63.833,0,0,0,2.176,9.894s5.524-.581,4.942,1.817C2889.056,1634.031,2886.067,1641.254,2885.2,1650.687Z" transform="translate(-2828.41 -1620.132)"/><g transform="translate(9.488 29.531)"><g transform="translate(43.059)"><path class="n" d="M2882.608,1830.5s-.588,5.488.46,6.159,10.558,1.382,10.936,0-3.478-2.849-5.363-3.729-.965-2.095-1.3-2.43A8.511,8.511,0,0,0,2882.608,1830.5Z" transform="translate(-2880.974 -1826.715)"/><path class="o" d="M2873.213,1811.76a1.557,1.557,0,0,0,1.06.988,13.785,13.785,0,0,0,4.464.142c1.2-.316,2.257-.756,2.237-1.764s.065-2.175-.682-2.538a16.089,16.089,0,0,0-5.577-.26c-1.238.265-1.374.642-1.507,1.327A4.317,4.317,0,0,0,2873.213,1811.76Z" transform="translate(-2873.083 -1808.198)"/></g><path class="n" d="M2610.286,1830.5s.587,5.488-.46,6.159-10.558,1.382-10.936,0,3.478-2.849,5.362-3.729.965-2.095,1.3-2.43A8.512,8.512,0,0,1,2610.286,1830.5Z" transform="translate(-2598.865 -1826.715)"/><path class="o" d="M2639.517,1811.76a1.555,1.555,0,0,1-1.06.988,13.785,13.785,0,0,1-4.464.142c-1.2-.316-2.257-.756-2.236-1.764s-.066-2.175.682-2.538a16.087,16.087,0,0,1,5.577-.26c1.238.265,1.374.642,1.507,1.327A4.323,4.323,0,0,1,2639.517,1811.76Z" transform="translate(-2626.592 -1808.198)"/></g></g></g><g transform="translate(47.972 163.142)"><path class="d" d="M2521.1,1263.53c-20.805-8.319-44.711-5.806-49.494-5.187-4.784-.618-28.689-3.131-49.5,5.187,0,0-11.038,16.614-6.39,31.257,4.579,14.426,36.6,21.063,55.887,20.987,19.283.076,51.307-6.56,55.887-20.987C2532.145,1280.145,2521.1,1263.53,2521.1,1263.53Z" transform="translate(-2414.581 -1257.504)"/><path class="f" d="M2425.351,1288.245q-1.627.559-3.238,1.2s-11.038,16.615-6.39,31.257c1.695,5.339,7.15,9.609,14.325,12.869C2415.43,1323.741,2420.3,1302,2425.351,1288.245Z" transform="translate(-2414.581 -1283.418)"/><path class="e" d="M2862.114,1320.805c18.111-2.179,39.008-8.72,42.642-20.162,4.648-14.643-6.393-31.257-6.393-31.257a83.264,83.264,0,0,0-19.18-4.936c4.02,8.346,10.013,20.267,10.013,20.267S2902.089,1314.551,2862.114,1320.805Z" transform="translate(-2791.839 -1263.359)"/><g transform="translate(0.075 34.216)"><path class="p" d="M2527.9,1478.469c-4.58,14.426-36.6,21.063-55.887,20.987-19.284.076-51.308-6.56-55.886-20.987a23.431,23.431,0,0,1-.743-3.068,30.92,30.92,0,0,0,.815,12.932c4.572,15.247,36.556,22.262,55.814,22.182,19.259.08,51.241-6.934,55.814-22.182a30.924,30.924,0,0,0,.815-12.93A23.519,23.519,0,0,1,2527.9,1478.469Z" transform="translate(-2415.061 -1475.4)"/></g></g><path class="q" d="M2989.928,1475.412a23.594,23.594,0,0,1-.742,3.066c-2.591,8.158-13.956,13.824-26.832,17.194,1,1.252,2.865,4.724-.093,10.858,12.881-3.561,24.262-9.554,26.852-18.189A30.916,30.916,0,0,0,2989.928,1475.412Z" transform="translate(-2828.289 -1278.052)"/><path class="n" d="M2524.492,1429.988a.745.745,0,0,0-1.023-.32h0l-.013.007-.023.01,0,0a3.812,3.812,0,0,0-.425.232c-25.607,16.545-52.222,21.638-79.1,15.141-20.058-4.849-32.826-14.707-33.1-14.918a3.939,3.939,0,0,0-1.185-.642.647.647,0,0,0-.858.426c-.313.674-.274,6.67.269,8.061a4.228,4.228,0,0,0,1.567,1.97c0,.014.007.027.011.041a106.488,106.488,0,0,0,31.116,13.1,102.838,102.838,0,0,0,24.558,3,101.366,101.366,0,0,0,14.01-.974,113.358,113.358,0,0,0,40.914-14.453.171.171,0,0,0,.135-.023c.372-.222.743-.443,1.1-.686l.05-.029a.053.053,0,0,0,0-.006,4.282,4.282,0,0,0,1.665-1.983A25.64,25.64,0,0,0,2524.492,1429.988Z" transform="translate(-2361.536 -1239.313)"/><g transform="translate(94.132 204.436)"><path class="r" d="M2730.243,1524.035a48.761,48.761,0,0,1-.043,5.783,57.33,57.33,0,0,1-9.667.815,54.663,54.663,0,0,1-8.382-.634c-.046-1.758-.071-3.875-.013-5.678,3.308-.124,9.307-.286,18.1-.286m.034-3.562c-14.5,0-21.438.433-21.438.433-.568,3.553-.142,12.079-.142,12.079a57.066,57.066,0,0,0,11.837,1.21,55.3,55.3,0,0,0,12.96-1.423,49.066,49.066,0,0,0,0-12.292q-1.667-.008-3.216-.007Z" transform="translate(-2708.543 -1520.473)"/></g><path class="s" d="M2730.278,1520.473c-14.5,0-21.438.433-21.438.433a46.861,46.861,0,0,0-.292,6.6c.9.28,2.1.631,3.573,1.008-.022-1.391-.024-2.876.018-4.194,3.308-.124,9.307-.286,18.1-.286a48.754,48.754,0,0,1-.043,5.783,56.8,56.8,0,0,1-7.319.767,92.52,92.52,0,0,0,10.765.788,48.565,48.565,0,0,0-.153-10.893Q2731.828,1520.472,2730.278,1520.473Z" transform="translate(-2614.412 -1316.037)"/><path class="t" d="M3037.853,1430.661a.745.745,0,0,0-1.023-.32h0l-.013.007-.023.01,0,0a3.834,3.834,0,0,0-.425.232,125.1,125.1,0,0,1-14.491,8.091,40.762,40.762,0,0,1-4.323,10.826,123.987,123.987,0,0,0,17.015-8.169.17.17,0,0,0,.135-.023c.372-.222.743-.443,1.1-.685l.05-.029s0,0,0-.006a4.28,4.28,0,0,0,1.665-1.983A25.656,25.656,0,0,0,3037.853,1430.661Z" transform="translate(-2874.896 -1239.987)"/><g transform="translate(34.903 0)"><path class="d" d="M2504.748,335.432s-9.6,13.841-31.815,20.5c-26.965,8.085-33.491,28.77-34.975,38.818,0,0,40.223-20.179,106.864,0C2544.822,394.75,2546.307,359.094,2504.748,335.432Z" transform="translate(-2421.218 -317.079)"/><path class="f" d="M2506.162,336.256c-.468-.276-.935-.552-1.413-.824,0,0-9.6,13.841-31.815,20.5-26.965,8.085-33.491,28.77-34.975,38.818,0,0,10.03-2.705,20.138-5.144,4.563-12.042,8.91-21.64,22.63-30.557C2500.355,346.29,2505.272,338.032,2506.162,336.256Z" transform="translate(-2421.218 -317.079)"/><path class="u" d="M2505.5,555.811c1.554,1.118.634,5.054-2.054,8.791s-6.129,5.859-7.683,4.741-.634-5.054,2.055-8.79S2503.948,554.693,2505.5,555.811Z" transform="translate(-2469.31 -502.602)"/><path class="e" d="M2914.947,401.534s1.429-34.409-37.919-58.055l.879,1.27s23.405,24.572,17.106,51.732C2901.363,397.775,2908.009,399.433,2914.947,401.534Z" transform="translate(-2791.342 -323.863)"/><ellipse class="p" cx="11.527" cy="11.391" rx="11.527" ry="11.391" transform="translate(70.246 0)"/><path class="p" d="M2455.637,721.241a233.372,233.372,0,0,0-108.225,0s-16.92,23.121-16.03,61.567c.59,25.459,20.448,48.555,47.845,59.93a97.512,97.512,0,0,0,22.3,6.269,96.4,96.4,0,0,0,23.958.744c.487-5.531,7.739-11.161,11.661-13.824q1.239-.763,2.441-1.561l.036-.022h0c18.931-12.551,31.579-31.3,32.048-51.536C2472.557,744.362,2455.637,721.241,2455.637,721.241Z" transform="translate(-2331.349 -636.826)"/><path class="q" d="M2917.032,726.228c1.958,16.622,4.563,39.042,4.563,39.042s21.284.532,18.357,22.082-18.889,37.78-28.468,46.826c-6.708,6.336-9.891,16.587-2.878,25.268l.161-.013c.487-5.531,7.739-11.161,11.661-13.824q1.238-.763,2.441-1.561l.036-.022h0c18.931-12.551,31.579-31.3,32.048-51.536.89-38.446-16.03-61.567-16.03-61.567A166.15,166.15,0,0,0,2917.032,726.228Z" transform="translate(-2814.633 -646.51)"/><path class="v" d="M2546.725,751.7c-1.6-5.682-5.083-15.278-5.083-15.278a395.422,395.422,0,0,0-47.268-5.163v-.014l-.185.007-.185-.007v.014a395.422,395.422,0,0,0-47.268,5.163s-3.486,9.6-5.083,15.278,1.6,15.909,14.814,17.8c13.147,1.884,26.149-1.6,37.723-1.64,11.573.038,24.576,3.524,37.723,1.64C2545.128,767.614,2548.323,757.386,2546.725,751.7Z" transform="translate(-2424.012 -650.743)"/><path class="w" d="M2975.412,768.587c-1.6-5.682-5.083-15.278-5.083-15.278-4.56-.788-9.009-1.46-13.242-2.032-2.324.959-4.063,1.741-4.063,1.741s10.752,5.667,11.77,14.676c.786,6.955-5.1,15.9-14.979,19.213a62.215,62.215,0,0,0,10.783-.518C2973.815,784.5,2977.01,774.269,2975.412,768.587Z" transform="translate(-2852.699 -667.627)"/><path class="o" d="M2517.437,647.679s-23.945-12.084-64.278-9.358-47.322,11.151-48.682,18.892,26.992-2.45,56.666-2.4c28.986.054,50.027,9.29,56.838,8.29S2521.937,650.576,2517.437,647.679Z" transform="translate(-2392.954 -572.07)"/><path class="n" d="M2562.666,846.679a1.983,1.983,0,0,1-.211-.011,1.957,1.957,0,0,1-1.738-2.154,8.248,8.248,0,0,1,7.725-7.649,7.666,7.666,0,0,1,7.69,5.456,1.957,1.957,0,0,1-3.737,1.16c-.1-.307-1.038-2.888-3.7-2.711a4.35,4.35,0,0,0-4.084,4.16A1.957,1.957,0,0,1,2562.666,846.679Z" transform="translate(-2524.69 -739.76)"/><g transform="translate(31.412 85.52)"><path class="o" d="M2547.971,763.175s-12.442.1-15.8,7.364c0,0-1.765,2.815.04,4.744s3.788-1.982,6.657-3.789c4.255-2.68,7.457-1.151,9.47-2.256S2550.771,763.229,2547.971,763.175Z" transform="translate(-2531.393 -763.175)"/><path class="o" d="M2871.06,763.175s12.443.1,15.805,7.364c0,0,1.765,2.815-.04,4.744s-3.787-1.982-6.656-3.789c-4.256-2.68-7.457-1.151-9.47-2.256S2868.259,763.229,2871.06,763.175Z" transform="translate(-2816.049 -763.175)"/><g transform="translate(50.742 11.569)"><path class="n" d="M2868.09,846.679a1.99,1.99,0,0,0,.211-.011,1.957,1.957,0,0,0,1.737-2.154,8.247,8.247,0,0,0-7.724-7.649,7.665,7.665,0,0,0-7.69,5.456,1.957,1.957,0,0,0,3.737,1.16c.1-.307,1.038-2.888,3.7-2.711a4.351,4.351,0,0,1,4.085,4.16A1.956,1.956,0,0,0,2868.09,846.679Z" transform="translate(-2854.537 -836.848)"/></g></g><path class="x" d="M2503.023,915.049a6.234,6.234,0,1,1-6.234-6.234A6.233,6.233,0,0,1,2503.023,915.049Z" transform="translate(-2465.556 -800.426)"/><path class="x" d="M2943.841,915.049a6.234,6.234,0,1,1-6.234-6.234A6.234,6.234,0,0,1,2943.841,915.049Z" transform="translate(-2837.154 -800.426)"/><path class="x" d="M2703.009,916.33c0,5.051-6.8,9.146-15.192,9.146s-15.193-4.095-15.193-9.146,6.8-9.145,15.193-9.145S2703.009,911.279,2703.009,916.33Z" transform="translate(-2619.035 -799.052)"/><path class="x" d="M2782.073,927.614c-.454,1.5-2.844,2.109-5.34,1.356s-4.152-2.582-3.7-4.084,2.845-2.109,5.34-1.356S2782.526,926.111,2782.073,927.614Z" transform="translate(-2703.616 -812.557)"/><path class="o" d="M2422.874,878.436c-120.068-19.28-71.72-128.933-71.72-128.933l.683-.976c-1.469.378-2.943.77-4.424,1.195,0,0-16.92,23.121-16.03,61.566.59,25.459,20.448,48.555,47.845,59.93a97.149,97.149,0,0,0,43.646,7.218Z" transform="translate(-2331.349 -665.307)"/><path class="p" d="M3021.73,683.172c7.125,1.689,12.3,3,15.089,2.586,6.813-1,3.956-12.533-.544-15.43a85.747,85.747,0,0,0-16.359-5.539c3.123,1.52,6.1,3.56,6.6,5.962C3027.482,675.4,3029.459,681.4,3021.73,683.172Z" transform="translate(-2911.792 -594.719)"/><path class="o" d="M2796.707,246.96a7.509,7.509,0,1,1-7.509-7.421A7.465,7.465,0,0,1,2796.707,246.96Z" transform="translate(-2710.974 -236.244)"/><path class="y" d="M2777.094,925.988c-.261,1.566-2.582,2.483-5.183,2.049s-4.5-2.055-4.236-3.621,2.581-2.483,5.183-2.049S2777.354,924.422,2777.094,925.988Z" transform="translate(-2699.14 -811.76)"/></g><g transform="translate(171.865 153.486)"><g transform="translate(0 1.613)"><path class="g" d="M3203.572,1234.307l.726-19.1,16.907-8.923,16.181,10.181-.726,19.1-16.907,8.923Z" transform="translate(-3203.572 -1206.28)"/><path class="h" d="M3224.613,1225.348l16.866-8.9-16.159-10.167-16.866,8.9Z" transform="translate(-3207.688 -1206.28)"/><path class="i" d="M3324.234,1271.024l-16.8,8.866-.811,19.174,16.906-8.922.726-19.1Z" transform="translate(-3290.443 -1260.858)"/><path class="d" d="M3250.118,1229.726l16.195,10.148,3.972-2.1-16.195-10.147Z" transform="translate(-3242.809 -1224.277)"/><path class="e" d="M3348.573,1313.472l3.97-2.1.741-19.137-3.97,2.095Z" transform="translate(-3325.804 -1278.742)"/><path class="e" d="M3242.384,1286.829l-.744,19.139,3.8,2.389.744-19.139Z" transform="translate(-3235.663 -1274.18)"/><path class="d" d="M3250.242,1240.977l16.719-8.994-3.781-2.379-16.719,8.994Z" transform="translate(-3239.727 -1225.942)"/></g><g transform="translate(8.095)"><path class="f" d="M3273.244,1201.3c-1.193-2.823-2.475-3.876-4.9-2.842a6.547,6.547,0,0,0-2.3,2.214,10.984,10.984,0,0,0,.1-3.141c-.419-2.4-4.99-1.53-7.807-.322s-3.864,2.495-2.817,4.91c1.021,2.358,7.258,5.141,7.927,5.3.766.366,6.838,2.123,9.434,1.683C3275.284,1208.7,3274.437,1204.125,3273.244,1201.3Zm-15.29,1.055c-.733-1.382-.173-2.2,1.44-3.043s4.283-1.578,4.644-.175c.4,1.568-.4,5.453-.543,5.711,0,0-.085.377-.567.282C3262.692,1205.086,3258.688,1203.739,3257.954,1202.356Zm13.333,4.634c-1.57.4-5.452-.427-5.709-.572a.433.433,0,0,1-.279-.569c.061-.232,1.415-4.232,2.8-4.959s2.2-.162,3.035,1.455S3272.691,1206.637,3271.287,1206.991Z" transform="translate(-3255.124 -1196.011)"/></g><path class="e" d="M3276.72,1212.184a14.974,14.974,0,0,1-2.412-.5.432.432,0,0,1-.279-.569,18.845,18.845,0,0,1,1.7-3.769,6.14,6.14,0,0,1,.044-2.623,11.664,11.664,0,0,0-.992,1.216,10.966,10.966,0,0,0,.1-3.141,1.62,1.62,0,0,0-.195-.54,19.878,19.878,0,0,1-1.933,5.133,16.359,16.359,0,0,1-.524,2.725s-.084.377-.567.282a19.1,19.1,0,0,1-2.883-1.169,7.338,7.338,0,0,1-3.294-.336,25.667,25.667,0,0,0,6.7,3.8c.767.366,6.838,2.123,9.434,1.683a1.549,1.549,0,0,0,.823-.4C3281.4,1213.979,3275.852,1213.925,3276.72,1212.184Z" transform="translate(-3255.759 -1201.28)"/></g><g transform="translate(0 147.81)"><g transform="translate(0 1.87)"><path class="a" d="M2109.077,1204.262l.842-22.148,19.6-10.345,18.76,11.8-.841,22.148-19.6,10.345Z" transform="translate(-2109.077 -1171.769)"/><path class="b" d="M2133.471,1193.876l19.554-10.32-18.734-11.787-19.554,10.32Z" transform="translate(-2113.848 -1171.769)"/><path class="c" d="M2248.969,1246.832l-19.476,10.279-.94,22.23,19.6-10.344.841-22.148Z" transform="translate(-2209.793 -1235.045)"/><path class="d" d="M2163.04,1198.95l18.776,11.765,4.606-2.431-18.776-11.765Z" transform="translate(-2154.566 -1192.633)"/><path class="e" d="M2277.188,1296.044l4.6-2.429.859-22.187-4.6,2.429Z" transform="translate(-2250.791 -1255.779)"/><path class="e" d="M2154.074,1265.155l-.862,22.189,4.4,2.769.863-22.189Z" transform="translate(-2146.281 -1250.491)"/><path class="d" d="M2163.184,1212l19.384-10.427-4.383-2.758-19.384,10.427Z" transform="translate(-2150.993 -1194.565)"/></g><g transform="translate(9.385)"><path class="f" d="M2189.853,1166c-1.383-3.273-2.87-4.494-5.676-3.295a7.6,7.6,0,0,0-2.669,2.567,12.742,12.742,0,0,0,.116-3.641c-.486-2.782-5.786-1.773-9.052-.373s-4.479,2.893-3.266,5.692c1.184,2.733,8.415,5.959,9.19,6.149.889.425,7.927,2.462,10.938,1.952C2192.218,1174.575,2191.236,1169.27,2189.853,1166Zm-17.726,1.223c-.851-1.6-.2-2.545,1.669-3.528s4.965-1.83,5.384-.2c.468,1.818-.463,6.323-.63,6.622,0,0-.1.437-.658.327C2177.62,1170.384,2172.977,1168.822,2172.126,1167.22Zm15.458,5.373c-1.82.458-6.32-.495-6.619-.663a.5.5,0,0,1-.324-.659c.071-.268,1.64-4.907,3.248-5.749s2.546-.188,3.519,1.687S2189.212,1172.183,2187.584,1172.593Z" transform="translate(-2168.845 -1159.863)"/></g><path class="e" d="M2193.882,1178.612a17.425,17.425,0,0,1-2.8-.575.5.5,0,0,1-.323-.66,21.875,21.875,0,0,1,1.965-4.37,7.116,7.116,0,0,1,.052-3.041,13.454,13.454,0,0,0-1.151,1.41,12.741,12.741,0,0,0,.116-3.641,1.88,1.88,0,0,0-.226-.626,23.069,23.069,0,0,1-2.241,5.951,18.914,18.914,0,0,1-.608,3.159s-.1.437-.657.327a22.146,22.146,0,0,1-3.343-1.355,8.511,8.511,0,0,1-3.819-.389,29.756,29.756,0,0,0,7.766,4.4c.889.425,7.927,2.461,10.938,1.952a1.8,1.8,0,0,0,.955-.466C2199.306,1180.694,2192.875,1180.631,2193.882,1178.612Z" transform="translate(-2169.58 -1165.971)"/></g></svg>