<svg xmlns="http://www.w3.org/2000/svg" width="172.34" height="265.831" viewBox="0 0 172.34 265.831"><defs><style>.a{fill:#c12121;}.b{fill:#ad1212;}.c{fill:#423a38;}.d{fill:#fff;}.e{fill:#759e86;}.f{fill:#ce3636;}.g{fill:#f4f1ed;}.h{fill:#e8e3dd;}.i{fill:#f9c785;}.j{fill:#dba767;}.k{fill:#352f2e;}.l{fill:#e25959;}.m{fill:#ffbd9a;}.n{fill:#f2ac8c;}.o{fill:#fc635b;}.p{fill:#f99a98;}</style></defs><g transform="translate(0)"><g transform="translate(139.043 133.556)"><path class="a" d="M4824.881,1797.85l17.951-11.748s3.2.744,2.436,3.5-19.462,26.746-19.462,26.746S4818.635,1808.563,4824.881,1797.85Z" transform="translate(-4822.326 -1769.709)"/><path class="b" d="M4822.333,1818.835a14.4,14.4,0,0,0,2.491,4.322s18.7-23.994,19.462-26.746a2.4,2.4,0,0,0-.333-2.178C4841.312,1797.723,4831.364,1810.6,4822.333,1818.835Z" transform="translate(-4821.345 -1776.523)"/><g transform="translate(18.077)"><path class="c" d="M4761.165,1697.625c0-.4-3.284-6.736-1.487-7.094s3.593,2.4,3.593,2.4,2.11-9.082,7.61-7.907,4.647,11.875-3.765,17.636C4767.116,1702.658,4761.139,1702.49,4761.165,1697.625Z" transform="translate(-4759.14 -1684.917)"/><path class="d" d="M4803.558,1766.079a1.69,1.69,0,0,1,1.535-.326,13.942,13.942,0,0,1,4.08,2.393c.888.976,1.571,1.985.955,2.918s-1.231,2.076-2.116,1.993a16.282,16.282,0,0,1-5.146-2.911c-.95-.949-.849-1.38-.562-2.1A5.005,5.005,0,0,1,4803.558,1766.079Z" transform="translate(-4802.105 -1752.589)"/></g></g><g transform="translate(0 190.532)"><path class="a" d="M5545.788,2039.1l-11.883,17.863s.72,3.208,3.477,2.462,26.892-19.262,26.892-19.262S5556.547,2032.935,5545.788,2039.1Z" transform="translate(-5517.45 -2036.611)"/><path class="b" d="M5558.669,2042.961a14.417,14.417,0,0,1,4.3,2.524s-24.135,18.516-26.892,19.262a2.4,2.4,0,0,1-2.176-.35C5537.415,2061.781,5550.37,2051.931,5558.669,2042.961Z" transform="translate(-5516.149 -2041.932)"/><g transform="translate(0 17.85)"><path class="c" d="M5726.065,2148.864c-.4,0-6.709-3.334-7.082-1.54s2.37,3.61,2.37,3.61-9.1,2.042-7.964,7.55,11.84,4.737,17.665-3.632C5731.054,2154.853,5730.93,2148.875,5726.065,2148.864Z" transform="translate(-5713.292 -2146.793)"/><path class="d" d="M5696.764,2148.675a1.693,1.693,0,0,0-.338,1.532,13.941,13.941,0,0,0,2.363,4.1c.969.9,1.973,1.586,2.909.977s2.086-1.215,2.009-2.1a16.268,16.268,0,0,0-2.872-5.167c-.942-.958-1.373-.859-2.093-.578A5.014,5.014,0,0,0,5696.764,2148.675Z" transform="translate(-5683.204 -2147.17)"/></g></g><path class="e" d="M5029.624,2439.031c0,3.036,18.124,5.5,40.481,5.5s40.48-2.461,40.48-5.5-18.123-5.5-40.48-5.5S5029.624,2435.994,5029.624,2439.031Z" transform="translate(-4982.066 -2178.697)"/><g transform="translate(48.816 219.095)"><path class="a" d="M5082.13,2215.713c3.155-.765,27.409-6.321,38.736.759,0,0-16.507,16.676-17.013,27.962h-4.716s-4.307-15.044-17.007-15.316c-12.7.271-16.745,15.337-16.745,15.337l-4.978-.021c-.506-11.286-17.014-27.962-17.014-27.962C5054.721,2209.392,5078.975,2214.948,5082.13,2215.713Z" transform="translate(-5043.394 -2212.918)"/><path class="f" d="M5049.444,2214.16c4.433.386,8.6,1.378,11.757,3.352,0,0-16.508,16.676-17.014,27.962h-.677c-1.06-12.022,5.435-25.307,5.435-25.307S5049.175,2217.216,5049.444,2214.16Z" transform="translate(-4983.728 -2213.959)"/><path class="b" d="M5406.259,2244.441l-1.871-.008c-.506-11.286-17.014-27.962-17.014-27.962,5.5-3.438,14.046-3.9,21.747-3.371a65.955,65.955,0,0,1-2.245,10.208s-5.7-.6-5.1,1.875C5402.278,2227.258,5405.362,2234.709,5406.259,2244.441Z" transform="translate(-5387.374 -2212.917)"/><g transform="translate(9.79 30.468)"><path class="c" d="M5399.18,2423.3s.606,5.662-.475,6.354-10.893,1.426-11.282,0,3.588-2.939,5.532-3.847,1-2.161,1.34-2.507S5397.97,2422.735,5399.18,2423.3Z" transform="translate(-5387.396 -2419.393)"/><path class="d" d="M5386.042,2404.659a1.607,1.607,0,0,1-1.094,1.02,14.234,14.234,0,0,1-4.605.146c-1.24-.326-2.329-.78-2.308-1.82s-.067-2.244.7-2.619a16.606,16.606,0,0,1,5.754-.268c1.277.274,1.418.663,1.555,1.369A4.446,4.446,0,0,1,5386.042,2404.659Z" transform="translate(-5372.707 -2400.984)"/><g transform="translate(44.425)"><path class="c" d="M5103.987,2423.3s-.605,5.662.475,6.354,10.892,1.426,11.283,0-3.588-2.939-5.532-3.847-1-2.161-1.341-2.507S5105.2,2422.735,5103.987,2423.3Z" transform="translate(-5102.302 -2419.393)"/><path class="d" d="M5136.845,2404.659a1.606,1.606,0,0,0,1.094,1.02,14.233,14.233,0,0,0,4.605.146c1.239-.326,2.328-.78,2.307-1.82s.068-2.244-.7-2.619a16.6,16.6,0,0,0-5.754-.268c-1.277.274-1.418.663-1.556,1.369A4.458,4.458,0,0,0,5136.845,2404.659Z" transform="translate(-5136.71 -2400.984)"/></g></g></g><g transform="translate(27.108 159.399)"><g transform="translate(0.818)"><path class="a" d="M4933.426,1863.907c19.635-12.2,44.372-13.958,49.343-14.193,4.748-1.49,28.579-8.353,51.214-3.654,0,0,14.208,14.887,12.126,30.6-2.05,15.48-33.384,28-52.987,31.395-19.575,3.554-53.3,2.586-60.556-11.243C4925.205,1882.775,4933.426,1863.907,4933.426,1863.907Z" transform="translate(-4929.504 -1844.439)"/><path class="f" d="M4929.5,1850.527q1.754.275,3.505.635s14.207,14.887,12.125,30.6c-.758,5.729-5.529,11.051-12.23,15.655C4945.979,1884.8,4937.118,1863.585,4929.5,1850.527Z" transform="translate(-4828.529 -1849.541)"/><path class="b" d="M5391.844,1966.484c-18.791,1.052-41.2-1.824-46.952-12.793-7.362-14.036.859-32.9.859-32.9a85.884,85.884,0,0,1,18.592-8.471c-2.578,9.2-6.518,22.393-6.518,22.393S5350.109,1967.338,5391.844,1966.484Z" transform="translate(-5341.829 -1901.319)"/><g transform="translate(1.756 28.971)"><path class="g" d="M4920.482,2046.666c7.253,13.829,40.981,14.8,60.556,11.243,19.6-3.4,50.937-15.915,52.987-31.395a24.339,24.339,0,0,0,.2-3.25,31.933,31.933,0,0,1,1.5,13.283c-1.895,16.313-33.12,29.205-52.7,32.6-19.55,3.553-53.3,2.195-60.7-12.47a31.9,31.9,0,0,1-3.159-12.988A24.356,24.356,0,0,0,4920.482,2046.666Z" transform="translate(-4919.176 -2023.264)"/></g></g><path class="h" d="M5431.654,2149.323a24.259,24.259,0,0,0,1.307,2.981c4.1,7.821,16.669,11.527,30.356,12.63-.785,1.451-2.058,5.315,2.052,11.013-13.728-1.295-26.368-5.331-30.557-13.635A31.917,31.917,0,0,1,5431.654,2149.323Z" transform="translate(-5429.088 -2099.93)"/><path class="c" d="M4922.265,1998.684a.768.768,0,0,1,.982-.509v0l.015,0,.025.007,0,0a3.859,3.859,0,0,1,.474.159c29,12.191,56.949,12.566,83.086,1.119,19.5-8.542,30.694-20.858,30.931-21.121a4.066,4.066,0,0,1,1.087-.866.668.668,0,0,1,.948.278c.439.628,1.48,6.726,1.18,8.237a4.357,4.357,0,0,1-1.236,2.284c0,.015,0,.029,0,.044a109.848,109.848,0,0,1-29.247,18.917,106.136,106.136,0,0,1-24.407,7.47,104.554,104.554,0,0,1-14.407,1.536,116.941,116.941,0,0,1-44.168-7.305.175.175,0,0,1-.142,0c-.418-.158-.834-.316-1.237-.5l-.056-.02,0-.006a4.418,4.418,0,0,1-2.048-1.714A26.471,26.471,0,0,1,4922.265,1998.684Z" transform="translate(-4922.243 -1955.845)"/><g transform="translate(47.073 44.903)"><path class="i" d="M5199.579,2128.648a50.293,50.293,0,0,0,1.086,5.866,59.156,59.156,0,0,0,9.967-.914,56.431,56.431,0,0,0,8.4-2.155c-.27-1.794-.626-3.949-1.01-5.77-3.382.47-9.505,1.387-18.443,2.973m-.677-3.612c14.734-2.615,21.856-3.425,21.856-3.425,1.218,3.507,2.322,12.244,2.322,12.244a58.9,58.9,0,0,1-11.806,3.364,57.051,57.051,0,0,1-13.422.89,50.593,50.593,0,0,1-2.216-12.486q1.692-.308,3.266-.587Z" transform="translate(-5195.636 -2121.611)"/></g><path class="j" d="M5204.056,2125.036c14.734-2.615,21.856-3.425,21.856-3.425a48.317,48.317,0,0,1,1.487,6.654c-.861.445-2.024,1.02-3.448,1.667-.229-1.417-.495-2.926-.775-4.257-3.383.47-9.505,1.387-18.443,2.973a50.1,50.1,0,0,0,1.087,5.866,58.482,58.482,0,0,0,7.572-.541,95.394,95.394,0,0,1-10.794,2.742,50.136,50.136,0,0,1-1.808-11.093Q5202.482,2125.315,5204.056,2125.036Z" transform="translate(-5153.717 -2076.708)"/><path class="k" d="M5507.21,2106.091a.768.768,0,0,1,.982-.509v0l.016,0,.025.007,0,0a3.973,3.973,0,0,1,.474.159,129.041,129.041,0,0,0,16.178,5.607c.782,1.734,3.243,6.878,6.343,10.218a127.937,127.937,0,0,1-18.757-5.231.177.177,0,0,1-.143,0c-.418-.158-.834-.316-1.236-.5l-.056-.02,0-.006a4.421,4.421,0,0,1-2.049-1.714A26.487,26.487,0,0,1,5507.21,2106.091Z" transform="translate(-5507.188 -2063.251)"/></g><g transform="translate(4.184)"><path class="a" d="M5113.466,978.717s12.252,12.328,36.015,15.089c28.85,3.351,39.208,23.187,42.527,33.127,0,0-44.5-13.246-108.556,19.266C5083.452,1046.2,5075.516,1010.246,5113.466,978.717Z" transform="translate(-5076.281 -959.569)"/><path class="f" d="M5082.762,979.809c.425-.364.85-.729,1.287-1.092,0,0,12.252,12.328,36.014,15.089,28.85,3.351,39.208,23.187,42.528,33.127,0,0-10.676-.939-21.384-1.595-6.806-11.41-12.952-20.376-28.5-26.961C5090.47,988.954,5083.985,981.453,5082.762,979.809Z" transform="translate(-5046.864 -959.569)"/><path class="l" d="M5153.316,1141.874c-1.377,1.416.267,5.248,3.671,8.56s7.283,4.847,8.66,3.431-.268-5.248-3.672-8.559S5154.693,1140.459,5153.316,1141.874Z" transform="translate(-5061.757 -1095.853)"/><path class="b" d="M5580.373,1054.849s-7.656-34.7,28.052-65.81l-.664,1.448s-19.346,29.18-8.05,55.635C5593.494,1048.582,5587.042,1051.464,5580.373,1054.849Z" transform="translate(-5573.202 -968.219)"/><path class="g" d="M5491.085,874.364a11.893,11.893,0,1,0,9.655-13.65A11.823,11.823,0,0,0,5491.085,874.364Z" transform="translate(-5465.078 -860.527)"/><path class="g" d="M4905.939,1332.658a240.778,240.778,0,0,1,109.938-19.511s21.357,20.436,27.382,59.651c3.991,25.968-12.015,53.01-37.8,69.5a100.587,100.587,0,0,1-21.52,10.389,99.462,99.462,0,0,1-24.2,5.075c-1.492-5.531-9.874-9.943-14.338-11.94q-1.395-.552-2.761-1.146l-.042-.015h0c-21.493-9.337-37.722-26.1-41.847-46.574C4892.92,1359.2,4905.939,1332.658,4905.939,1332.658Z" transform="translate(-4898.247 -1239.054)"/><path class="h" d="M5431.143,1384.5c1.008,17.238,2.4,40.483,2.4,40.483s-21.525,4.378-14.667,25.742,26,34.973,37.36,42.435c7.957,5.227,13.038,15.066,7.479,25.15l-.166.016c-1.492-5.531-9.873-9.943-14.337-11.94q-1.4-.552-2.761-1.146l-.042-.015h0c-21.494-9.337-37.722-26.1-41.847-46.574-7.836-38.894,5.184-65.431,5.184-65.431A171.428,171.428,0,0,1,5431.143,1384.5Z" transform="translate(-5402.061 -1299.611)"/><path class="m" d="M5055.676,1366.78c.6-6.06,2.409-16.436,2.409-16.436a407.9,407.9,0,0,1,47.086-13.766l0-.015.189-.026.188-.041,0,.014a408.188,408.188,0,0,1,48.947-3.277s5.271,9.119,7.918,14.6,1.246,16.449-11.839,20.756c-13.015,4.284-26.852,3.086-38.616,5.135-11.749,2.125-24.329,8.01-38.023,8.467C5060.167,1382.653,5055.077,1372.84,5055.676,1366.78Z" transform="translate(-5043.399 -1256.652)"/><path class="n" d="M5540.484,1432.26c.6-6.06,2.409-16.436,2.409-16.436,4.49-1.623,8.889-3.108,13.085-4.452,2.533.555,4.442,1.037,4.442,1.037s-9.9,7.7-9.31,17.03c.455,7.207,8.048,15.228,18.679,16.817a64.226,64.226,0,0,1-11.047,1.418C5544.976,1448.134,5539.885,1438.32,5540.484,1432.26Z" transform="translate(-5528.208 -1322.133)"/><path class="d" d="M5043.729,1267.052s22.146-16.592,63.608-21.094,50.083,2.8,52.858,10.415-27.861,2.377-57.994,7.783c-29.435,5.28-49.145,18.457-56.244,18.669S5039.68,1270.806,5043.729,1267.052Z" transform="translate(-5037.82 -1182.358)"/><path class="c" d="M5187.535,1436.875a2.021,2.021,0,0,0,1.588-2.551,8.509,8.509,0,0,0-9.226-6.377c-4.787.534-6.564,4.767-6.828,6.929a2.019,2.019,0,0,0,4.005.5c.047-.33.534-3.121,3.271-3.421a4.489,4.489,0,0,1,4.9,3.49A2.019,2.019,0,0,0,5187.535,1436.875Z" transform="translate(-5088.104 -1335.972)"/><g transform="translate(31.253 80.65)"><path class="d" d="M5156.178,1358.669s12.658-2.138,17.383,4.632c0,0,2.3,2.541.814,4.826s-4.2-1.33-7.445-2.649c-4.806-1.955-7.783.175-10.027-.585S5153.343,1359.229,5156.178,1358.669Z" transform="translate(-5102.032 -1358.348)"/><path class="d" d="M5510.229,1402.948s-12.621,2.349-14.729,10.331c0,0-1.285,3.177.9,4.811s3.49-2.7,6.079-5.049c3.84-3.489,7.367-2.514,9.213-4S5513.083,1402.5,5510.229,1402.948Z" transform="translate(-5495.124 -1395.699)"/><g transform="translate(7.139 19.419)"><path class="c" d="M5466.794,1489.456a2.021,2.021,0,0,1-2.369-1.849,8.508,8.508,0,0,1,6.467-9.162c4.679-1.146,7.8,2.217,8.8,4.156a2.019,2.019,0,0,1-3.588,1.853c-.158-.293-1.574-2.747-4.248-2.086a4.489,4.489,0,0,0-3.4,4.962A2.018,2.018,0,0,1,5466.794,1489.456Z" transform="translate(-5464.402 -1478.213)"/></g></g><path class="o" d="M5092.912,1492.016a6.431,6.431,0,1,0,5.208-7.456A6.431,6.431,0,0,0,5092.912,1492.016Z" transform="translate(-4991.577 -1383.379)"/><path class="o" d="M5526.945,1569.049a6.432,6.432,0,1,0,5.209-7.456A6.432,6.432,0,0,0,5526.945,1569.049Z" transform="translate(-5495.927 -1447.932)"/><path class="o" d="M5269.28,1535.23c.91,5.131,8.559,8.064,17.082,6.552s14.7-6.9,13.784-12.03-8.559-8.064-17.082-6.551S5268.369,1530.1,5269.28,1535.23Z" transform="translate(-5214.71 -1415.511)"/><path class="o" d="M5373.481,1550.377c.732,1.444,3.27,1.63,5.669.415s3.752-3.371,3.02-4.815-3.27-1.63-5.669-.415S5372.749,1548.933,5373.481,1550.377Z" transform="translate(-5313.707 -1433.909)"/><path class="d" d="M4898.246,1460.071c118.493-41.233,49.611-143.9,49.611-143.9l-.87-.869c1.56.119,3.128.252,4.709.416,0,0,21.357,20.436,27.381,59.651,3.991,25.968-12.015,53.01-37.8,69.5a100.235,100.235,0,0,1-43.036,15.2Z" transform="translate(-4834.065 -1241.622)"/><path class="g" d="M5675.321,1349.376c-6.933,3-11.955,5.26-14.861,5.347-7.1.212-6.277-12.018-2.229-15.772a88.5,88.5,0,0,1,15.62-8.576c-2.9,2.107-5.552,4.716-5.627,7.246C5668.077,1342.521,5667.151,1348.972,5675.321,1349.376Z" transform="translate(-5652.322 -1254.257)"/><path class="d" d="M5495.106,886.655a7.748,7.748,0,1,0,6.29-8.892A7.7,7.7,0,0,0,5495.106,886.655Z" transform="translate(-5461.535 -874.868)"/><path class="p" d="M5368.052,1548.383c.548,1.543,3.07,2.057,5.634,1.147s4.2-2.9,3.65-4.442-3.069-2.057-5.633-1.147S5367.5,1546.84,5368.052,1548.383Z" transform="translate(-5307.917 -1432.848)"/></g><g transform="translate(69.715 128.909)"><path class="c" d="M5292.64,1658.531l5.773-1.106,5.774-1.106a2.2,2.2,0,0,1,2.86,1.729c.46,2.4-2.447,7.468-6.969,8.079-4.425,1.1-9-2.535-9.458-4.933A2.2,2.2,0,0,1,5292.64,1658.531Z" transform="translate(-5290.564 -1656.233)"/><path class="o" d="M5316.372,1687.521c.2,1.061,1.906,1.626,3.8,1.262s3.272-1.518,3.069-2.579-1.905-1.624-3.8-1.26S5316.169,1686.463,5316.372,1687.521Z" transform="translate(-5310.91 -1680.201)"/></g></g></svg>