<svg xmlns="http://www.w3.org/2000/svg" width="40.176" height="38.864" viewBox="0 0 40.176 38.864"><defs><style>.a{fill:#fff;}</style></defs><g transform="translate(-1243.359 -1142.491)"><path class="a" d="M1344.09,1223.094l-4.7,3.413,1.429,4.4,5.913,4.3,1.043-.758Z" transform="translate(-68.876 -57.809)"/><path class="a" d="M1291.127,1247.223l-8.611,6.256-1.043-.758,2.259-6.952,3.741-2.718,3.654,2.655,3.654-2.655,9.655,7.015-4.7,3.413Z" transform="translate(-27.335 -72.124)"/><path class="a" d="M1243.758,1200.969h7.309l3.742,2.719-1.4,4.3,3.654,2.655-3.688,11.35-4.7-3.413,3.289-10.123-8.611-6.256Z" transform="translate(0 -41.942)"/><path class="a" d="M1258.231,1152.615l3.29-10.123h1.289l2.259,6.953-2.825,8.693h-16.451l1.795-5.523Z" transform="translate(-1.745)"/><path class="a" d="M1249.7,1185.778" transform="translate(-4.551 -31.046)"/><path class="a" d="M1318.377,1152.615l-3.289-10.123h-5.807l5.084,15.646h5.539l7.6-5.523Z" transform="translate(-47.28)"/><path class="a" d="M1311.69,1183.812l-1.794-5.523-17.949,13.041-7.537-5.476-1.794,5.523,9.331,6.779Z" transform="translate(-28.155 -25.675)"/></g></svg>