<svg xmlns="http://www.w3.org/2000/svg" width="52.019" height="43" viewBox="0 0 52.019 43"><defs><style>.a{fill:#fff;}.b{fill:#f26724;}</style></defs><path class="a" d="M50.122,8.466C49.763,7.9,44.424,0,35.169,0H15.378a11.606,11.606,0,0,0-11.6,11.6V33.318c0,.641-1,.285-1,.285a3.06,3.06,0,0,0-.855-.144A1.915,1.915,0,0,0,0,35.382c0,2.284,3.56,3.2,4.984,3.2a6.514,6.514,0,0,0,1.209-.071A11.748,11.748,0,0,0,15.378,43H35.1A11.606,11.606,0,0,0,46.7,31.4V19.507s2.419-3.061,2.7-3.346h0s1.922-2.634,2.419-3.628.071-1.424-1.709-4.058" transform="translate(0)"/><path class="b" d="M39.616,34.38a4.124,4.124,0,0,0,1.445.229c2.166,0,3.1-.917,3.1-1.985,0-1.223-1.589-1.223-1.734-2.367-.217-1.375-.072-7.485,2.166-10.846l1.517.688a2.245,2.245,0,0,0,.939.229,1.339,1.339,0,0,0,1.011-.535,30.884,30.884,0,0,0,3.9-5.652c.217-.382-2.96-4.583-4.694-6.034a6.9,6.9,0,0,0-11.046,3.358,32.97,32.97,0,0,1-9.964,5.046c-4.838,1.375-9.82.076-13.141.306a6.666,6.666,0,0,0-4.933,2.2A7.477,7.477,0,0,0,6.262,24.3c.072,3.972,2.671,7.562,2.671,11.3a4.222,4.222,0,0,1-1.082,2.947A3.767,3.767,0,0,1,5.1,39.8c-1.877,0-1.949-.764-2.527-.764a.442.442,0,0,0-.393.082A.5.5,0,0,0,2,39.5c0,.993,2.317,1.91,3.61,1.91a5.628,5.628,0,0,0,4.906-2.6,4.286,4.286,0,0,0,4.333,2.673c2.743,0,3.9-1.375,3.9-2.52,0-.917-.506-1.3-.939-1.91A2.878,2.878,0,0,1,17.3,35.3a12.177,12.177,0,0,0,1.445.076c1.949,0,2.6-.841,2.6-1.681,0-1.07-1.156-.993-1.156-2.749,0-1.375.722-1.757,1.3-1.757.65,0,3.177.229,6.282.611,1.011.076,3.544,1.146,3.544,5.347v1.528c0,2.52.939,5.729,5.272,5.729,2.888,0,4.549-1.681,4.549-2.979,0-.841-.65-1.146-1.011-1.681a4.137,4.137,0,0,1-.506-3.361" transform="translate(-0.94 -3.056)"/><path class="a" d="M63.471,19.1a.371.371,0,1,0,.371.371.362.362,0,0,0-.371-.371" transform="translate(-16.363 -5.42)"/><path class="a" d="M65.918,17a.318.318,0,1,0,.318.318A.3.3,0,0,0,65.918,17" transform="translate(-17.538 -4.834)"/><path class="a" d="M67.165,14.7a.265.265,0,1,0,.265.265.284.284,0,0,0-.265-.265" transform="translate(-18.149 -4.19)"/><path class="a" d="M47.024,17.248a.424.424,0,1,0-.424-.424c.053.265.212.424.424.424" transform="translate(-13.234 -4.643)"/><path class="a" d="M49.971,36.2a.378.378,0,0,0-.371.424.409.409,0,0,0,.371.424.418.418,0,0,0,.424-.424c-.053-.212-.212-.424-.424-.424" transform="translate(-14.1 -10.249)"/><path class="a" d="M54.424,37a.424.424,0,1,0,.424.424c-.053-.265-.212-.424-.424-.424" transform="translate(-15.336 -10.475)"/><path class="a" d="M50.524,29.4a.424.424,0,1,0,0,.848.39.39,0,0,0,.424-.424.418.418,0,0,0-.424-.424" transform="translate(-14.228 -8.324)"/><path class="a" d="M53.164,23.548a.428.428,0,1,0-.37-.424.424.424,0,0,0,.37.424" transform="translate(-15.001 -6.426)"/><path class="a" d="M41.324,20.448a.424.424,0,1,0-.424-.424c.053.265.212.424.424.424" transform="translate(-11.615 -5.549)"/><path class="a" d="M45.624,34.7a.424.424,0,1,0,.424.424c-.053-.265-.212-.424-.424-.424" transform="translate(-12.837 -9.824)"/><path class="a" d="M43.524,24.148a.378.378,0,0,0,.371-.424.409.409,0,0,0-.371-.424.424.424,0,0,0,0,.848" transform="translate(-12.252 -6.597)"/><path class="a" d="M38.724,29.2a.424.424,0,1,0,.424.424.456.456,0,0,0-.424-.424" transform="translate(-10.878 -8.267)"/><path class="a" d="M46.524,27.648a.424.424,0,1,0-.424-.424c.053.265.212.424.424.424" transform="translate(-13.092 -7.587)"/><path class="a" d="M34.624,21.7a.424.424,0,1,0,.424.424.418.418,0,0,0-.424-.424" transform="translate(-9.713 -6.143)"/><path class="a" d="M36.324,25.6a.424.424,0,1,0,.424.424c-.053-.265-.212-.424-.424-.424" transform="translate(-10.195 -7.248)"/><path class="a" d="M41.824,32.1a.424.424,0,1,0,.424.424c-.053-.212-.212-.424-.424-.424" transform="translate(-11.757 -9.088)"/><path class="a" d="M49.524,20.748a.424.424,0,1,0-.424-.424c.053.265.212.424.424.424" transform="translate(-13.945 -5.634)"/><path class="a" d="M55.024,30.8a.424.424,0,1,0,.424.424.418.418,0,0,0-.424-.424" transform="translate(-15.507 -8.72)"/><path class="a" d="M56.924,24.7a.424.424,0,0,0,0,.848.39.39,0,0,0,.424-.424.418.418,0,0,0-.424-.424" transform="translate(-16.045 -6.993)"/><path class="a" d="M56.424,18.5a.424.424,0,1,0,.424.424.39.39,0,0,0-.424-.424" transform="translate(-15.903 -5.239)"/><path class="a" d="M60.024,19.6a.424.424,0,1,0,.424.424.456.456,0,0,0-.424-.424" transform="translate(-14.717 -5.549)"/><path class="a" d="M53.824,16.2a.424.424,0,1,0,.424.424c-.053-.265-.212-.424-.424-.424" transform="translate(-15.166 -4.586)"/><path class="a" d="M52.324,13.3a.424.424,0,1,0,.424.424c-.053-.212-.212-.424-.424-.424" transform="translate(-14.739 -3.766)"/><path class="a" d="M55.424,13.3a.424.424,0,1,0,.424.424.456.456,0,0,0-.424-.424" transform="translate(-15.62 -3.766)"/><path class="a" d="M52.2,11.018a.342.342,0,0,1,.318-.318.305.305,0,0,1,.318.318.318.318,0,0,1-.636,0" transform="translate(-14.878 -5.031)"/><path class="a" d="M54.1,8.765a.265.265,0,1,1,.265.265.284.284,0,0,1-.265-.265" transform="translate(-15.449 -3.997)"/><path class="a" d="M56.5,7.712a.212.212,0,1,1,.212.212.228.228,0,0,1-.212-.212" transform="translate(-16.162 -3.526)"/><path class="a" d="M66.9,12.912a.212.212,0,1,1,.212.212.228.228,0,0,1-.212-.212" transform="translate(-18.149 -3.628)"/><path class="a" d="M66.3,20.412a.212.212,0,1,1,.212.212c-.053,0-.159-.106-.212-.212" transform="translate(-17.867 -5.77)"/><path class="a" d="M67.4,19.012a.212.212,0,1,1,.212.212.228.228,0,0,1-.212-.212" transform="translate(-18.384 -5.37)"/><path class="a" d="M65.2,21.912a.212.212,0,1,1,.212.212.228.228,0,0,1-.212-.212" transform="translate(-17.35 -6.198)"/><path class="a" d="M63.9,23.212a.212.212,0,1,1,.212.212c-.106,0-.159-.106-.212-.212" transform="translate(-16.739 -6.57)"/><path class="a" d="M68.4,17.512a.212.212,0,1,1,.212.212.228.228,0,0,1-.212-.212" transform="translate(-18.855 -4.941)"/><path class="a" d="M69.1,16.212a.212.212,0,1,1,.212.212c-.106,0-.159-.053-.212-.212" transform="translate(-19.184 -4.57)"/><path class="a" d="M20.591,41.285a6.416,6.416,0,0,1-.477-5.086c1.113-2.861,4.344-2.49,4.344-2.49a3.722,3.722,0,0,0-1.7-.318A4.237,4.237,0,0,0,18.9,37.947a4.877,4.877,0,0,0,1.7,3.338" transform="translate(-4.866 -7.622)"/><path class="a" d="M11.107,27.869A3.4,3.4,0,0,1,10.1,25.432a3.506,3.506,0,0,1,3.444-3.444c1.96-.106,5.563.477,7.894.159.8,3.55,3.444,6.04,5.4,7.629-2.384-1.06-4.768-3.868-7.523-5.4-2.861-1.589-5.775-1.854-7.311-.424a3.958,3.958,0,0,0-.9,3.921" transform="translate(-4.749 -5.041)"/><path class="a" d="M25.9,39.9c.159,1.007-1.7,1.377-1.7,1.377,1.7.318,2.225-.583,2.225-.583a4.045,4.045,0,0,0-.53-.795" transform="translate(-6.703 -11.151)"/><path class="a" d="M50.678,40.9h0s-1.113,1.536-.318,4.4a5.721,5.721,0,0,1-1.96,1s2.543.318,3.338-1.007c-1.589-1.219-1.113-4.185-1.06-4.4" transform="translate(-13.112 -10.259)"/><path class="a" d="M60.346,10.273a1.687,1.687,0,0,0-2.066,1.166,1.646,1.646,0,0,0,1.536,1.8,1.687,1.687,0,0,0,2.066-1.166,1.646,1.646,0,0,0-1.536-1.8m1.272,1.748a1.23,1.23,0,0,1-1.483.848,1.166,1.166,0,0,1-1.06-1.272,1.23,1.23,0,0,1,1.483-.848,1.166,1.166,0,0,1,1.06,1.272" transform="translate(-14.085 -2.763)"/><path class="a" d="M62.094,12.67a.683.683,0,0,1,.795-.477.64.64,0,0,1,.583.689.683.683,0,0,1-.8.477.64.64,0,0,1-.583-.689" transform="translate(-15.886 -3.426)"/><path class="a" d="M57.024,38.3h0c.583,1.113-1.325,1.536-1.325,1.536,1.377.212,2.119-.583,2.119-.954a3.43,3.43,0,0,1-.795-.583" transform="translate(-15.459 -10.674)"/><path class="a" d="M35.43,31.306s.265.318.689.742a17,17,0,0,0,1.7,1.43,12.958,12.958,0,0,0,1.854,1.166,3.484,3.484,0,0,0,.636.318,2.227,2.227,0,0,1,.265.106,2.227,2.227,0,0,0-.265-.106,3.641,3.641,0,0,1-.689-.318,15.915,15.915,0,0,1-1.96-1.113,13.435,13.435,0,0,1-1.748-1.377,7.771,7.771,0,0,1-.742-.742.161.161,0,0,1,0-.212.4.4,0,0,1,.265.106h0" transform="translate(-9.07 -8.207)"/><path class="a" d="M60.909,10.305a2.862,2.862,0,0,0-4.821-.212A.451.451,0,1,1,55.4,9.51,3.241,3.241,0,0,1,57.89,8.4a3.2,3.2,0,0,1,3.02,1.907" transform="translate(-12.688 -3.947)"/><path class="a" d="M54.847,19.2a6.97,6.97,0,0,1-3.55-1.43,7.419,7.419,0,0,1-2.225-2.49c-.053-.159-.053-.371.106-.424a.286.286,0,0,1,.424.106,8.055,8.055,0,0,0,2.119,2.7A7.807,7.807,0,0,0,54.847,19.2" transform="translate(-12.552 -3.831)"/><path class="a" d="M50.862,23.267A8.6,8.6,0,0,1,45.3,20.512a11.633,11.633,0,0,1-1.748-2.437.309.309,0,1,1,.53-.318,10.442,10.442,0,0,0,2.066,3.073,8.006,8.006,0,0,0,4.715,2.437" transform="translate(-10.668 -4.376)"/><path class="a" d="M37.721,20.488a.3.3,0,0,1,.371.212,11.321,11.321,0,0,0,2.7,4.344,10.04,10.04,0,0,0,6.623,2.967,10.146,10.146,0,0,1-7.152-2.967,11.719,11.719,0,0,1-2.7-4.132.281.281,0,0,1,.159-.424" transform="translate(-8.463 -4.749)"/><path class="a" d="M57.859,14.919a3.11,3.11,0,0,0,1.748.53A2.151,2.151,0,0,0,61.886,13.7a2.5,2.5,0,0,1-2.49,2.225,3.692,3.692,0,0,1-1.854-.424.334.334,0,0,1-.159-.424c.159-.159.371-.265.477-.159" transform="translate(-13.665 -3.76)"/></svg>