<svg xmlns="http://www.w3.org/2000/svg" xmlns:xlink="http://www.w3.org/1999/xlink" width="283" height="56" viewBox="0 0 283 56"><defs><style>.a{fill:none;}.b{clip-path:url(#a);}.c{fill:#f26522;}.d{fill:#e51b24;}.e{fill:#f99f1c;}.f{clip-path:url(#b);}.g{fill:#161e3f;}.h{fill:#0af;}.i{fill:#7a1dff;}.j{fill:#f72163;}.k{fill:#fd5601;}.l{fill:#ffc208;}.m{fill:#9de411;}</style><clipPath id="a"><rect class="a" width="72.542" height="55.999"/></clipPath><clipPath id="b"><rect class="a" width="283" height="56"/></clipPath></defs><g transform="translate(210.458 0.001)"><g class="b"><path d="M430.151,102.1V98.379a2.161,2.161,0,0,0-2.294-2.338,2.311,2.311,0,0,0-2.095,1.051,2.194,2.194,0,0,0-1.971-1.051,2.045,2.045,0,0,0-1.8.865v-.717h-1.2V102.1h1.21v-3.39a1.424,1.424,0,0,1,1.509-1.572c.86,0,1.346.557,1.346,1.559v3.4h1.21v-3.39a1.436,1.436,0,0,1,1.509-1.572c.886,0,1.359.557,1.359,1.559v3.4Zm19.428-5.915h-2.17V94.394H446.2v1.794h-1.26v1.076h1.26v2.8c0,1.374.486,2.19,2.02,2.19a3.061,3.061,0,0,0,1.621-.457l-.374-1.052a2.408,2.408,0,0,1-1.147.334c-.648,0-.911-.4-.911-.991V97.265h2.17Zm11.06-.148a1.848,1.848,0,0,0-1.622.865v-.717h-1.184V102.1h1.2V98.775c0-.978.474-1.609,1.322-1.609a2.125,2.125,0,0,1,.811.149l.4-1.114a2.813,2.813,0,0,0-.922-.16m-16.721.618a4.483,4.483,0,0,0-2.432-.618c-1.509,0-2.432.7-2.432,1.88,0,.965.673,1.547,2.008,1.732l.611.086c.711.1,1.1.346,1.1.681,0,.458-.524.755-1.409.755a3.112,3.112,0,0,1-1.983-.619l-.611.928a4.471,4.471,0,0,0,2.581.766c1.721,0,2.669-.792,2.669-1.917,0-1.041-.723-1.573-2.033-1.758l-.61-.087c-.562-.074-1.06-.248-1.06-.643,0-.433.473-.73,1.185-.73a3.873,3.873,0,0,1,1.858.507ZM462,99.146a2.96,2.96,0,0,0,3.13,3.105,3.141,3.141,0,0,0,2.145-.7l-.624-.929a2.634,2.634,0,0,1-1.558.532,2.012,2.012,0,0,1,0-4.01,2.631,2.631,0,0,1,1.558.532l.624-.929a3.141,3.141,0,0,0-2.145-.7A2.96,2.96,0,0,0,462,99.146m-8.379-3.105a2.871,2.871,0,0,0-2.943,3.093,2.919,2.919,0,0,0,3.031,3.117,3.639,3.639,0,0,0,2.444-.828l-.636-.879a2.853,2.853,0,0,1-1.732.618,1.75,1.75,0,0,1-1.834-1.534H456.4c.013-.16.025-.321.025-.495a2.815,2.815,0,0,0-2.805-3.093m-.025,1.1a1.514,1.514,0,0,1,1.571,1.5h-3.217a1.589,1.589,0,0,1,1.646-1.5m-16.135,2.005V96.189h-1.2v.717a2.369,2.369,0,0,0-1.933-.865,3.11,3.11,0,0,0,0,6.211,2.37,2.37,0,0,0,1.933-.865v.717h1.2Zm-4.825,0a1.858,1.858,0,0,1,1.858-2.005,2.014,2.014,0,0,1,0,4.01,1.857,1.857,0,0,1-1.858-2m46.012-3.105a1.844,1.844,0,0,0-1.621.865v-.717h-1.185V102.1h1.2V98.775c0-.978.474-1.609,1.322-1.609a2.128,2.128,0,0,1,.811.149l.4-1.114a2.821,2.821,0,0,0-.923-.16m9.6,5.2a.594.594,0,0,1,.234.047.6.6,0,0,1,.191.125.615.615,0,0,1,.129.187.566.566,0,0,1,0,.456.613.613,0,0,1-.129.187.633.633,0,0,1-.191.126.6.6,0,0,1-.234.046.609.609,0,0,1-.431-.172.6.6,0,0,1-.128-.187.572.572,0,0,1,0-.456.6.6,0,0,1,.128-.187.588.588,0,0,1,.192-.125.614.614,0,0,1,.239-.047m0,1.045a.449.449,0,0,0,.178-.036.457.457,0,0,0,.243-.242.461.461,0,0,0,.036-.179.452.452,0,0,0-.036-.178.457.457,0,0,0-.1-.145.451.451,0,0,0-.323-.133.457.457,0,0,0-.428.278.453.453,0,0,0-.035.178.461.461,0,0,0,.035.179.469.469,0,0,0,.1.145.478.478,0,0,0,.148.1.461.461,0,0,0,.182.036m.034-.733a.249.249,0,0,1,.163.047.155.155,0,0,1,.057.127.148.148,0,0,1-.045.111.222.222,0,0,1-.13.054l.179.206h-.141l-.166-.2h-.054v.2h-.118v-.546Zm-.136.1v.145h.135a.134.134,0,0,0,.074-.019.061.061,0,0,0,.027-.055.059.059,0,0,0-.027-.054.134.134,0,0,0-.074-.018Zm-14.091-2.514V96.189h-1.2v.717a2.368,2.368,0,0,0-1.933-.865,3.11,3.11,0,0,0,0,6.211,2.37,2.37,0,0,0,1.933-.865v.717h1.2Zm-4.826,0a1.857,1.857,0,0,1,1.858-2.005,2.014,2.014,0,0,1,0,4.01,1.857,1.857,0,0,1-1.858-2m16.859,0V93.813h-1.2v3.093a2.368,2.368,0,0,0-1.932-.865,3.11,3.11,0,0,0,0,6.211,2.369,2.369,0,0,0,1.932-.865v.717h1.2Zm-4.826,0a1.858,1.858,0,0,1,1.858-2.005,2.014,2.014,0,0,1,0,4.01,1.858,1.858,0,0,1-1.858-2" transform="translate(-417.044 -46.421)"/><rect class="c" width="21.581" height="34.981" transform="translate(25.481 4.756)"/><path class="d" d="M441.132,22.247a22.148,22.148,0,0,1,8.562-17.49,22.453,22.453,0,0,0-36.271,17.49,22.453,22.453,0,0,0,36.271,17.491,22.15,22.15,0,0,1-8.562-17.491" transform="translate(-413.423 -0.001)"/><path class="e" d="M551.288,70.481v-.716h.291v-.146h-.74v.146h.291v.716Zm1.439,0v-.863H552.5l-.262.593-.261-.593h-.227v.863h.16V69.83l.245.561h.166l.245-.563v.653Z" transform="translate(-480.886 -34.449)"/><path class="e" d="M520.945,22.247a22.453,22.453,0,0,1-36.271,17.491,22.146,22.146,0,0,0,0-34.981,22.452,22.452,0,0,1,36.271,17.49" transform="translate(-448.403 -0.001)"/></g></g><g class="f"><path class="g" d="M97.008,43.014a7.618,7.618,0,0,0-7.754,7.694,7.786,7.786,0,0,0,7.992,7.872c3.417,0,6.417-2.182,7.249-4.777l-4.04-.678a3.768,3.768,0,0,1-3.179,1.592c-1.991,0-3.387-1.032-3.446-2.595h10.933V51a7.688,7.688,0,0,0-7.755-7.989m-3.179,6.014c.06-1.12,1.515-2.153,3.179-2.153,1.723,0,3.03,1,3.15,2.153Z" transform="translate(-43.818 -21.284)"/><path class="g" d="M128.037,47.831l-3.06-4h-5.259v.236l5.526,7.105-5.05,7.164v.236h5.17l2.674-3.784,2.674,3.784h5.2v-.3l-4.991-7.105,5.5-7.105V43.83H131.1Z" transform="translate(-58.774 -21.688)"/><path class="g" d="M159.439,35.66h-.921l-6,7.724V43.8H154.8v2.152c0,5.749,4.456,8.786,9.507,8.786V50.224c-2.585-.03-4.932-1.3-4.932-4.275V43.8h4.932v-4.01h-4.872Z" transform="translate(-74.876 -17.645)"/><path class="g" d="M186.475,46.4h-.03v-2.89l-4.516-.029V58.255h4.516V54.186a6.649,6.649,0,0,1,6.863-6.869l-1.426-4.127a6.531,6.531,0,0,0-5.407,3.213" transform="translate(-89.316 -21.371)"/><path class="g" d="M217.036,43.316v1.417a6.342,6.342,0,0,0-4.569-1.8c-3.762,0-7.017,3.407-7.017,7.764,0,4.385,3.254,7.853,7.017,7.853a6.209,6.209,0,0,0,4.569-1.909v1.494h4.3V43.316Zm-3.4,11.142a3.748,3.748,0,0,1,0-7.5,3.461,3.461,0,0,1,3.4,3.734,3.47,3.47,0,0,1-3.4,3.763" transform="translate(-100.863 -21.243)"/><rect class="g" width="4.718" height="4.711" transform="translate(122.652 32.178)"/><path class="g" d="M264.724,43.316v1.418a6.343,6.343,0,0,0-4.569-1.8c-3.761,0-7.016,3.407-7.016,7.764,0,4.385,3.255,7.853,7.016,7.853a6.193,6.193,0,0,0,4.3-1.651v1.148c0,1.57-1.494,2.9-3.494,2.9a3.682,3.682,0,0,1-3.135-1.6l-4.121.741c.836,2.608,3.852,4.8,7.286,4.8a7.826,7.826,0,0,0,8.033-7.912V43.316Zm-3.4,11.142a3.749,3.749,0,0,1,0-7.5,3.461,3.461,0,0,1,3.4,3.734,3.47,3.47,0,0,1-3.4,3.763" transform="translate(-124.275 -21.243)"/><path class="g" d="M298.764,48.917c-.12-1.156-1.434-2.163-3.165-2.163-1.672,0-3.135,1.037-3.195,2.163Zm-6.36,3.111c.06,1.57,1.463,2.607,3.464,2.607a3.788,3.788,0,0,0,3.2-1.6l4.061.681c-.836,2.608-3.852,4.8-7.286,4.8a7.826,7.826,0,0,1-8.033-7.912,7.8,7.8,0,1,1,15.586.3v1.126Z" transform="translate(-141.294 -21.214)"/><path class="h" d="M59.477,53.45l-5.052,3.643,5.467,16.7,5.052-3.643Z" transform="translate(-26.719 -26.448)"/><path class="i" d="M29.362,76.126,20.1,82.8,15.049,79.16,29.362,68.84,43.676,79.16,38.623,82.8Z" transform="translate(-7.388 -34.063)"/><path class="j" d="M1.93,40.232l14.314,10.32-5.467,16.7L5.724,63.608,9.261,52.8,0,46.126Z" transform="translate(0 -19.908)"/><path class="k" d="M14.831,25.175l3.538-10.8h6.245l-5.467,16.7H1.454l1.93-5.894Z" transform="translate(-0.714 -7.111)"/><path class="l" d="M49.166,25.175l-3.537-10.8H39.383l5.467,16.7H62.543l-1.93-5.894Z" transform="translate(-19.335 -7.111)"/><path class="m" d="M54.723,41.652l-1.931-5.894-19.3,13.919-8.106-5.844-1.929,5.894,10.036,7.236Z" transform="translate(-11.514 -17.694)"/><rect class="g" width="2.305" height="25.73" transform="translate(185.005 17.177)"/></g></svg>