<svg xmlns="http://www.w3.org/2000/svg" width="49.443" height="49.443" viewBox="0 0 49.443 49.443"><path d="M24.721,0A24.721,24.721,0,1,0,49.443,24.722,24.75,24.75,0,0,0,24.721,0Zm0,44.948A20.227,20.227,0,1,1,44.948,24.722,20.249,20.249,0,0,1,24.721,44.948Z" fill="#fff"/><path d="M148,70a3,3,0,1,0,3,3A3,3,0,0,0,148,70Z" transform="translate(-123.277 -59.512)" fill="#fff"/><path d="M152.247,140A2.247,2.247,0,0,0,150,142.247v13.484a2.247,2.247,0,0,0,4.495,0V142.247A2.247,2.247,0,0,0,152.247,140Z" transform="translate(-127.526 -119.024)" fill="#fff"/></svg>