<svg xmlns="http://www.w3.org/2000/svg" width="59" height="59" viewBox="0 0 59 59"><g transform="translate(-63 -943)"><rect width="59" height="59" rx="10" transform="translate(63 943)" fill="#7a1dff" opacity="0.3"/><g transform="translate(79.178 952.267)"><path d="M2.073,41.466H20.042a2.036,2.036,0,0,0,2.073-2.073V31.1H20.733v2.073H1.382V4.838H20.733V6.911h1.382V2.073A2.036,2.036,0,0,0,20.042,0H2.073A2.036,2.036,0,0,0,0,2.073V39.393A2.036,2.036,0,0,0,2.073,41.466Zm18.66-6.911v4.838a.653.653,0,0,1-.691.691H2.073a.653.653,0,0,1-.691-.691V34.555ZM2.073,1.382H20.042a.653.653,0,0,1,.691.691V3.455H1.382V2.073A.653.653,0,0,1,2.073,1.382Zm0,0" fill="#7a1dff"/><path d="M112,98.971v5.667a14.453,14.453,0,0,0,7.187,12.509l1.8,1.037,1.8-1.037a14.453,14.453,0,0,0,7.187-12.509V98.971L120.984,96Zm16.586,5.667a13.115,13.115,0,0,1-6.5,11.334l-1.106.622-1.106-.622a13.2,13.2,0,0,1-6.5-11.334v-4.7l7.6-2.557,7.6,2.557Zm0,0" transform="translate(-102.325 -87.706)" fill="#7a1dff"/><path d="M204.691,181.061c4.354-2.488,6.565-6.5,6.565-11.818V168h-1.382v1.175c0,4.838-2,8.362-5.874,10.643Zm0,0" transform="translate(-186.377 -153.487)" fill="#7a1dff"/><path d="M104,424h4.147v1.382H104Zm0,0" transform="translate(-95.016 -387.372)" fill="#7a1dff"/></g></g></svg>