<svg xmlns="http://www.w3.org/2000/svg" width="59" height="59" viewBox="0 0 59 59"><defs><style>.a,.b{fill:#fd5601;}.a{opacity:0.3;}</style></defs><g transform="translate(-255 -1102)"><rect class="a" width="59" height="59" rx="10" transform="translate(255 1102)"/><g transform="translate(268 1115.629)"><path class="b" d="M7.163,23.617a.7.7,0,0,1-.493-.2,12.527,12.527,0,0,1,0-17.719.7.7,0,0,1,.984.984,11.132,11.132,0,0,0,0,15.749.7.7,0,0,1-.493,1.189Z" transform="translate(1.177 0.832)"/><path class="b" d="M5.388,27.4a.7.7,0,0,1-.493-.2,16.695,16.695,0,0,1,0-23.622.7.7,0,0,1,.984.984,15.3,15.3,0,0,0,0,21.652A.7.7,0,0,1,5.388,27.4Z" transform="translate(0 0)"/><path class="b" d="M20.326,27.4a.7.7,0,0,1-.493-1.188,15.3,15.3,0,0,0,0-21.653.7.7,0,1,1,.984-.984,16.691,16.691,0,0,1,0,23.621.689.689,0,0,1-.491.2Z" transform="translate(7.699)"/><path class="b" d="M18.206,23.617a.7.7,0,0,1-.493-1.188,11.134,11.134,0,0,0,0-15.75.7.7,0,0,1,.984-.984,12.524,12.524,0,0,1,0,17.717.689.689,0,0,1-.491.2Z" transform="translate(6.868 0.832)"/><path class="b" d="M10.582,26.276a.695.695,0,0,1-.671-.881l2.441-8.864H7.7a.7.7,0,0,1-.557-1.112L15.469,4.28a.7.7,0,0,1,1.245.529l-1.236,7.544h4.749a.7.7,0,0,1,.551,1.121L11.133,26A.7.7,0,0,1,10.582,26.276Zm-1.5-11.138h4.178a.7.7,0,0,1,.671.881L12.2,22.343l6.616-8.6H14.657a.694.694,0,0,1-.53-.245.7.7,0,0,1-.157-.564l.909-5.544Z" transform="translate(2.746 0.247)"/></g></g></svg>