<svg xmlns="http://www.w3.org/2000/svg" width="76.974" height="115.461" viewBox="0 0 76.974 115.461"><defs><style>.a{fill:#7a1dff;}</style></defs><path class="a" d="M5.773,115.461H55.806a5.67,5.67,0,0,0,5.773-5.773V86.6H57.73v5.773H3.849V13.47H57.73v5.773h3.849V5.773A5.67,5.67,0,0,0,55.806,0H5.773A5.67,5.67,0,0,0,0,5.773V109.688A5.67,5.67,0,0,0,5.773,115.461ZM57.73,96.217v13.47a1.818,1.818,0,0,1-1.924,1.924H5.773a1.818,1.818,0,0,1-1.924-1.924V96.217ZM5.773,3.849H55.806A1.818,1.818,0,0,1,57.73,5.773V9.622H3.849V5.773A1.818,1.818,0,0,1,5.773,3.849Zm0,0"/><path class="a" d="M112,104.274v15.78a40.245,40.245,0,0,0,20.013,34.831l5,2.887,5-2.887a40.244,40.244,0,0,0,20.013-34.831v-15.78L137.016,96Zm46.184,15.78A36.519,36.519,0,0,1,140.1,151.613l-3.079,1.732-3.079-1.732a36.755,36.755,0,0,1-18.089-31.559V106.969l21.168-7.12,21.168,7.12Zm0,0" transform="translate(-85.059 -72.908)"/><path class="a" d="M205.924,204.369c12.123-6.928,18.281-18.089,18.281-32.907V168h-3.849v3.272c0,13.47-5.58,23.284-16.357,29.635Zm0,0" transform="translate(-154.929 -127.588)"/><path class="a" d="M104,424h11.546v3.849H104Zm0,0" transform="translate(-78.983 -322.01)"/></svg>