<svg xmlns="http://www.w3.org/2000/svg" width="153.414" height="110.325" viewBox="0 0 153.414 110.325"><defs><style>.a{fill:#9de411;}</style></defs><g transform="translate(0 -3.371)"><path class="a" d="M22.113,88.713a3.21,3.21,0,0,1-2.263-.933,57.516,57.516,0,0,1,.006-81.354,3.2,3.2,0,0,1,4.519,4.519,51.111,51.111,0,0,0,0,72.309,3.2,3.2,0,0,1-2.263,5.459Z" transform="translate(16.177 11.432)"/><path class="a" d="M24.738,113.7a3.21,3.21,0,0,1-2.263-.933A76.652,76.652,0,0,1,22.481,4.306,3.2,3.2,0,1,1,27,8.825a70.247,70.247,0,0,0,0,99.412,3.2,3.2,0,0,1-2.263,5.459Z" transform="translate(0 0)"/><path class="a" d="M22.827,113.7a3.193,3.193,0,0,1-2.263-5.453A69.853,69.853,0,0,0,41.173,58.531,69.827,69.827,0,0,0,20.565,8.825a3.2,3.2,0,0,1,4.519-4.519A76.176,76.176,0,0,1,47.565,58.531a76.176,76.176,0,0,1-22.481,54.225,3.165,3.165,0,0,1-2.256.94Z" transform="translate(105.848)"/><path class="a" d="M20.707,88.713a3.193,3.193,0,0,1-2.263-5.453A50.82,50.82,0,0,0,33.428,47.1,50.794,50.794,0,0,0,18.445,10.945a3.2,3.2,0,0,1,4.519-4.519A57.132,57.132,0,0,1,39.82,47.1,57.132,57.132,0,0,1,22.964,87.773a3.165,3.165,0,0,1-2.256.94Z" transform="translate(94.417 11.432)"/><path class="a" d="M23.444,106.275a3.19,3.19,0,0,1-3.081-4.046l11.206-40.7H10.193a3.193,3.193,0,0,1-2.557-5.107L45.881,5.284A3.2,3.2,0,0,1,51.6,7.713L45.919,42.353h21.8A3.193,3.193,0,0,1,70.254,47.5l-44.279,57.53A3.2,3.2,0,0,1,23.444,106.275ZM16.579,55.137H35.762a3.194,3.194,0,0,1,3.081,4.046l-7.99,29.034L61.228,48.745H42.154a3.187,3.187,0,0,1-2.435-1.125A3.221,3.221,0,0,1,39,45.031L43.17,19.577Z" transform="translate(37.749 3.394)"/></g></svg>