<svg xmlns="http://www.w3.org/2000/svg" xmlns:xlink="http://www.w3.org/1999/xlink" width="200.484" height="51.697" viewBox="0 0 200.484 51.697"><defs><style>.a{fill:none;}.b{fill:#0af;}.c{fill:#7a1dff;}.d{fill:#f72163;}.e{fill:#fd5601;}.f{fill:#ffc208;}.g{clip-path:url(#a);}.h{fill:#9de411;}.i{fill:#161e3f;}</style><clipPath id="a"><rect class="a" width="200.484" height="51.697"/></clipPath></defs><path class="b" d="M162.415,112.133l-6.249,4.54,6.762,20.812,6.249-4.54Z" transform="translate(-121.9 -87.528)"/><path class="c" d="M43.18,169.156l6.249,4.54,11.455-8.322L72.338,173.7l6.249-4.54-17.7-12.862Z" transform="translate(-33.706 -122)"/><path class="d" d="M0,81.551l11.455,8.322L7.079,103.339l6.249,4.54,6.762-20.812L2.387,74.205Z" transform="translate(0 -57.923)"/><path class="e" d="M25.092,0,20.717,13.465H6.559L4.172,20.812H26.054L32.817,0Z" transform="translate(-3.256 0)"/><path class="f" d="M113.008,0l6.763,20.811h21.883l-2.387-7.346H125.108L120.732,0Z" transform="translate(-88.211 0)"/><g class="g"><path class="h" d="M105.97,68.713l-2.387-7.346L79.707,78.714,69.682,71.43l-2.387,7.346,12.412,9.018Z" transform="translate(-52.529 -47.902)"/><path class="i" d="M265.7,82.186a9.459,9.459,0,0,0-9.59,9.59,9.666,9.666,0,0,0,9.884,9.811c4.226,0,7.937-2.719,8.966-5.953l-5-.845a4.649,4.649,0,0,1-3.932,1.984c-2.462,0-4.189-1.286-4.262-3.234H275.29v-1.4c0-5.585-4.005-9.958-9.59-9.958m-3.932,7.5c.073-1.4,1.874-2.682,3.932-2.682,2.131,0,3.748,1.249,3.895,2.682Z" transform="translate(-199.913 -64.153)"/><path class="i" d="M353.813,89.517l-3.785-4.986h-6.5v.294l6.835,8.855-6.247,8.929v.294h6.393l3.307-4.716,3.307,4.716h6.43v-.368l-6.173-8.856,6.8-8.855v-.294H357.6Z" transform="translate(-268.148 -65.983)"/><path class="i" d="M446.2,61.086H445.06l-7.423,9.627v.514h2.829V73.91c0,7.165,5.512,10.95,11.758,10.95V79.238c-3.2-.037-6.1-1.617-6.1-5.328V71.227h6.1v-5H446.2Z" transform="translate(-341.61 -47.682)"/><path class="i" d="M527.661,86.694h-.037v-3.6l-5.585-.037v18.409h5.585V96.395a8.254,8.254,0,0,1,8.488-8.562l-1.764-5.144c-2.021,0-5.438,1.36-6.687,4.005" transform="translate(-407.493 -64.545)"/><path class="i" d="M603.855,82.428v1.765a7.815,7.815,0,0,0-5.651-2.246c-4.653,0-8.679,4.247-8.679,9.676,0,5.466,4.026,9.787,8.679,9.787a7.654,7.654,0,0,0,5.651-2.379v1.862h5.318V82.428Zm-4.21,13.886a4.672,4.672,0,0,1,0-9.344c2.548,0,4.21,2.068,4.21,4.653,0,2.622-1.662,4.69-4.21,4.69" transform="translate(-460.171 -63.967)"/><rect class="i" width="5.835" height="5.872" transform="translate(151.698 31.055)"/><path class="i" d="M740.694,82.428V84.2a7.811,7.811,0,0,0-5.65-2.248c-4.653,0-8.679,4.247-8.679,9.676,0,5.466,4.026,9.787,8.679,9.787a7.627,7.627,0,0,0,5.318-2.058v1.43c0,1.957-1.847,3.619-4.321,3.619a4.543,4.543,0,0,1-3.878-1.994l-5.1.923c1.034,3.25,4.764,5.983,9.011,5.983a9.715,9.715,0,0,0,9.935-9.861V82.428Zm-4.21,13.886a4.672,4.672,0,0,1,0-9.344c2.548,0,4.21,2.068,4.21,4.653,0,2.622-1.662,4.69-4.21,4.69" transform="translate(-566.986 -63.967)"/><path class="i" d="M839.392,89.314c-.148-1.44-1.773-2.7-3.915-2.7-2.068,0-3.878,1.292-3.952,2.7Zm-7.866,3.878c.074,1.957,1.81,3.25,4.284,3.25a4.672,4.672,0,0,0,3.952-1.995l5.023.85c-1.034,3.25-4.764,5.983-9.011,5.983a9.715,9.715,0,0,1-9.935-9.86,9.507,9.507,0,0,1,9.639-9.639c5.613,0,9.639,4.395,9.639,10.008v1.4Z" transform="translate(-644.632 -63.836)"/></g></svg>