<svg xmlns="http://www.w3.org/2000/svg" width="34.694" height="34.694" viewBox="0 0 34.694 34.694"><defs><style>.a{fill:#fff;}</style></defs><path class="a" d="M31.91,22.773a19.7,19.7,0,0,1-6.186-.985,2.828,2.828,0,0,0-2.75.58l-3.9,2.945A21.558,21.558,0,0,1,9.38,15.621l2.858-3.8a2.8,2.8,0,0,0,.69-2.841,19.728,19.728,0,0,1-.989-6.2A2.787,2.787,0,0,0,9.155,0H2.784A2.787,2.787,0,0,0,0,2.784a31.946,31.946,0,0,0,31.91,31.91,2.787,2.787,0,0,0,2.784-2.784V25.556A2.787,2.787,0,0,0,31.91,22.773Z"/></svg>