<svg xmlns="http://www.w3.org/2000/svg" xmlns:xlink="http://www.w3.org/1999/xlink" width="158.471" height="244.719" viewBox="0 0 158.471 244.719"><defs><style>.a{fill:#e0af49;}.b{fill:#c7823e;}.c{fill:#e4bb56;}.d{fill:#f0f2f7;}.e{fill:#a1bfa5;}.f{fill:#fcfcfc;}.g{fill:#cadbcb;}.h{fill:#fff;}.i{fill:#eefdfa;}.j{fill:#f8d16f;}.k{fill:#fec22d;}.l{fill:#fde5a9;}.m{filter:url(#c);}.n{filter:url(#a);}</style><filter id="a" x="59.705" y="125.945" width="98.766" height="105.668" filterUnits="userSpaceOnUse"><feOffset dy="5" input="SourceAlpha"/><feGaussianBlur stdDeviation="5" result="b"/><feFlood flood-opacity="0.161"/><feComposite operator="in" in2="b"/><feComposite in="SourceGraphic"/></filter><filter id="c" x="21.167" y="129.425" width="98.408" height="115.294" filterUnits="userSpaceOnUse"><feOffset dy="5" input="SourceAlpha"/><feGaussianBlur stdDeviation="5" result="d"/><feFlood flood-opacity="0.161"/><feComposite operator="in" in2="d"/><feComposite in="SourceGraphic"/></filter></defs><g transform="translate(-913.107 333.342) rotate(-21)"><g transform="translate(949.962 165.054)"><g class="n" transform="matrix(0.93, 0.36, -0.36, 0.93, 21.96, -149.03)"><path class="a" d="M973.874,122.169l-8.234,53.06,42.416-13.712,7.482-48.185Z" transform="translate(-867.41 394.08) rotate(-21)"/></g><g class="m" transform="matrix(0.93, 0.36, -0.36, 0.93, 21.96, -149.03)"><path class="b" d="M994.769,129.176l-37.325-21.1-7.482,48.186,36.572,25.976Z" transform="translate(-889.43 395.02) rotate(-21)"/></g><path class="c" d="M953.17,113.267l42.017-9.089,36.971,21.354-41.664,8.837Z" transform="translate(-945.688 -104.178)"/><g transform="translate(12.648 6.639)"><path class="d" d="M955.384,166.709l7.882-49.839,40.6-9.846,8,4.7-39.962,10.011L963.773,172.6Z" transform="translate(-955.384 -107.024)"/><path class="e" d="M963.266,111.244l8.641,4.866-8.134,50.865-8.389-5.893Z" transform="translate(-955.384 -101.398)"/></g><g transform="translate(26.972 2.739)"><path class="f" d="M998.676,176.93l7.6-49.882-35.707-21.7-9.047,2.055,35.045,21.658L988.9,180Z" transform="translate(-961.524 -105.352)"/><path class="g" d="M990.65,114.652l-9.709,2.017L973.25,167.73l9.794-3.166Z" transform="translate(-945.896 -92.957)"/></g></g><g transform="translate(955.612 58.505)"><g transform="translate(0.184 36.409)"><path class="h" d="M987.86,158.942l-35.4-77.31.555-.254L985.855,153.1l-27-78.787.577-.2,29,84.6Z" transform="translate(-952.463 -74.112)"/></g><g transform="translate(48.756 70.718)"><path class="h" d="M973.6,140.438l-.319-.519,73.4-51.1.349.5-69.154,48.144L1045,101.637l.288.538Z" transform="translate(-973.284 -88.819)"/></g><path class="i" d="M1075.746,139.525a4.107,4.107,0,0,1-2.111,2.489c-.2.1-.4.191-.637.3-3.215,1.451-10.031,3.686-21.341,3.635a122.226,122.226,0,0,1-30-4.367c-3.933-1.024-8.111-2.261-12.539-3.737l-2.083-.628,0-.007q-4.227-1.375-8.039-2.8a135.57,135.57,0,0,1-27.075-13.3l-.012,0c-8.135-5.345-13.052-10.33-15.948-14.048l-.012-.009a31.058,31.058,0,0,1-3.11-4.733,4.091,4.091,0,0,1-.226-3.259c16.423-47.17,55.767-42.2,71.787-37.946.016-.056.023-.1.023-.1l1.808.609c2.559.747,4.283,1.4,4.89,1.645l1.295.436.756.25.1.033.3.054a.8.8,0,0,1,.131,0l.222.035c.019.007.032,0,.044.009a.288.288,0,0,1,.063.014h.007a72.41,72.41,0,0,1,7.248,2.58C1057.064,73.095,1090.312,92.6,1075.746,139.525Z" transform="translate(-952.384 -58.505)"/><path class="j" d="M995.026,138.386c-3.933-1.024-8.111-2.261-12.539-3.737l-2.083-.628,0-.007q-4.227-1.375-8.039-2.8c8.911-54.363,33.465-69.393,34.962-70.268.051-.03.075-.042.075-.042a.519.519,0,0,1,.033.07C1008.114,62.465,1019.4,88.964,995.026,138.386Z" transform="translate(-925.75 -55.313)"/><path class="k" d="M1031.991,61.439c-.266,0-.534,0-.8.016-46.674,1.078-59.866,50.8-61.326,56.989-8.135-5.345-13.052-10.33-15.948-14.048,20.354-48.528,67.042-44.555,76.413-43.223.31.037.576.082.8.119s.4.058.532.089l.222.035c.019.007.033,0,.044.009A.291.291,0,0,1,1031.991,61.439Z" transform="translate(-950.337 -55.852)"/><path class="l" d="M1005,142.753c3.217-8.167,19.2-54.2-16.976-81.375-.208-.163-.418-.32-.635-.478.072.03.609.278,1.5.749,8.282,4.3,47.551,27.637,37.454,77.47C1023.126,140.569,1016.31,142.8,1005,142.753Z" transform="translate(-905.728 -55.313)"/></g></g></svg>