<svg xmlns="http://www.w3.org/2000/svg" width="270" height="270" viewBox="0 0 270 270"><defs><style>.a{fill:#5b56ff;}.b{fill:#fff;}</style></defs><g transform="translate(-825 -4025)"><g transform="translate(-1588 648)"><circle class="a" cx="135" cy="135" r="135" transform="translate(2413 3377)"/><g transform="translate(2465.968 3432.729)"><g transform="translate(4)"><path class="b" d="M155.4,118.228h-.963a26.708,26.708,0,0,0-1.6-3.868l.672-.669a4.657,4.657,0,0,0,0-6.589l-5.533-5.53a4.679,4.679,0,0,0-6.6,0l-.678.681a27.7,27.7,0,0,0-3.889-1.607V99.7a4.655,4.655,0,0,0-1.945-3.787q.079-1.616.081-3.254A64.418,64.418,0,0,0,123.615,56.1h0l9.247-9.222a10.039,10.039,0,0,0,0-14.2,10.1,10.1,0,0,0-14.212,0l-8.81,8.794h0A64.969,64.969,0,0,0,88.123,30.361V20.1h2.062a4.3,4.3,0,0,0,4.295-4.292V10.048A10.071,10.071,0,0,0,84.41,0H55.393a10.071,10.071,0,0,0-10.07,10.048v5.759A4.3,4.3,0,0,0,49.618,20.1h2.059V30.364A64.929,64.929,0,0,0,29.964,41.477l-8.815-8.8a10.1,10.1,0,0,0-14.211,0,10.04,10.04,0,0,0,0,14.193L16.191,56.1h0A64.364,64.364,0,0,0,4.855,92.66a65.058,65.058,0,0,0,99.376,55.087L108.5,152a4.672,4.672,0,0,0,6.592,0l.681-.678a27.1,27.1,0,0,0,3.88,1.607v.954a4.668,4.668,0,0,0,4.67,4.654h7.828a4.662,4.662,0,0,0,4.66-4.654v-.954a27.881,27.881,0,0,0,3.889-1.607l.681.678a4.672,4.672,0,0,0,6.592,0l5.533-5.518a4.657,4.657,0,0,0,0-6.586l-.678-.681a26.723,26.723,0,0,0,1.607-3.868h.963a4.662,4.662,0,0,0,4.66-4.654v-7.806a4.666,4.666,0,0,0-4.66-4.663ZM121.928,35.971a5.443,5.443,0,0,1,7.656,0,5.4,5.4,0,0,1,0,7.616l-8.764,8.74a65.142,65.142,0,0,0-7.4-7.857ZM49.968,15.455V10.048a5.421,5.421,0,0,1,5.425-5.4H84.41a5.421,5.421,0,0,1,5.425,5.4v5.406ZM83.478,20.1v9.094a65.569,65.569,0,0,0-27.156,0V20.1ZM10.216,43.583a5.4,5.4,0,0,1,0-7.611,5.443,5.443,0,0,1,7.656,0l8.518,8.5h0a65.326,65.326,0,0,0-7.405,7.854Zm92.752,96.311a4.69,4.69,0,0,0-1.316,3.988A60.282,60.282,0,1,1,53.965,34.545a65.379,65.379,0,0,1,15.941-2.127c22.251-.291,60.532,20.223,60.4,60.242,0,.8-.015,1.589-.046,2.378h-5.933a4.673,4.673,0,0,0-4.5,3.428,50.429,50.429,0,0,0,.282-5.326q0-1.314-.065-2.61h2.92a2.322,2.322,0,1,0,0-4.645h-3.375A50.729,50.729,0,0,0,71.736,42.63V39.747a2.322,2.322,0,0,0-4.645,0V42.63a50.5,50.5,0,0,0-26.85,9.156,2.323,2.323,0,0,0,2.669,3.8,45.822,45.822,0,0,1,24.181-8.308v2.784a2.322,2.322,0,0,0,4.645,0V47.277a46.081,46.081,0,0,1,43.147,38.607H112.6a2.322,2.322,0,1,0,0,4.645h2.781q.074,1.3.074,2.61a45.769,45.769,0,0,1-.721,8.11,4.678,4.678,0,0,0-6.236.325l-5.533,5.527a4.657,4.657,0,0,0,0,6.589l.672.669a27.133,27.133,0,0,0-1.607,3.868h-.96a4.672,4.672,0,0,0-4.67,4.663v7.432a45.824,45.824,0,0,1-13.838,6.825V119.228A30.988,30.988,0,0,0,101.27,90.923a2.322,2.322,0,1,0-4.645,0,26.324,26.324,0,0,1-17.189,24.555,2.318,2.318,0,0,0-1.517,2.177v20.617a45.731,45.731,0,0,1-5.211.669v-3.694a2.322,2.322,0,1,0-4.645,0v3.79a45.711,45.711,0,0,1-7.153-.765V117.655a2.323,2.323,0,0,0-1.517-2.177A26.1,26.1,0,0,1,53.717,69.3a7.537,7.537,0,0,1,2.709-1.35l.053,21.115A13.727,13.727,0,0,0,69.259,102.7a1.759,1.759,0,0,0,.313,0,13.727,13.727,0,0,0,12.779-13.64V71.944a37.9,37.9,0,0,1,.053-4A7.511,7.511,0,0,1,85.11,69.3,26.37,26.37,0,0,1,94.777,81.3a2.322,2.322,0,1,0,4.31-1.728A31,31,0,0,0,87.723,65.457c-1.186-.808-4.8-3.267-7.682-1.6-2.815,1.626-2.292,5.583-2.369,7.586a4.55,4.55,0,0,0,.034.5V89.062a9.07,9.07,0,0,1-8.292,9,9.069,9.069,0,0,1-8.289-9s.01-17.678.006-17.868c-.052-2.374.474-5.712-2.341-7.338-2.883-1.666-6.5.793-7.686,1.6a30.74,30.74,0,0,0,5.162,53.771V137.15a46.017,46.017,0,0,1-32.9-44.011c0-.548.009-1.093.031-1.638h3.8a2.322,2.322,0,0,0,0-4.645H23.8A45.832,45.832,0,0,1,34.813,62.84a2.322,2.322,0,0,0-3.487-3.069,50.5,50.5,0,0,0-12.21,27.085H16.844a2.322,2.322,0,0,0,0,4.645h1.9c-.015.545-.025,1.09-.025,1.638a50.679,50.679,0,0,0,39.165,49.244s0,0,.006,0a2.812,2.812,0,0,0,.328.074h.006a.011.011,0,0,0,.009,0,50.824,50.824,0,0,0,9.825,1.223v1.886a2.322,2.322,0,1,0,4.645,0V143.6a50.791,50.791,0,0,0,7.884-1.133.019.019,0,0,0,.012,0c.006,0,.009,0,.015,0a2.3,2.3,0,0,0,.328-.077h.006a50.51,50.51,0,0,0,17.508-7.825,4.672,4.672,0,0,0,2.61.8h.96a26.794,26.794,0,0,0,1.61,3.868Zm52.436-9.187H152.7a2.319,2.319,0,0,0-2.248,1.75,22.447,22.447,0,0,1-2.483,5.976,2.323,2.323,0,0,0,.35,2.833l1.914,1.932-5.533,5.521-.034,0-1.907-1.9a2.323,2.323,0,0,0-2.818-.356,23.132,23.132,0,0,1-6.017,2.483,2.319,2.319,0,0,0-1.753,2.251l-.015,2.706h-7.828a.033.033,0,0,1-.025-.012V151.19a2.319,2.319,0,0,0-1.753-2.251,22.729,22.729,0,0,1-6-2.483,2.322,2.322,0,0,0-2.821.356l-1.911,1.9h-.031l-3.617-3.623-1.914-1.914,1.907-1.914a2.318,2.318,0,0,0,.526-2.465,2.116,2.116,0,0,0-.176-.368,22.811,22.811,0,0,1-2.493-5.982,2.321,2.321,0,0,0-2.248-1.743h-2.7c-.009,0-.019-.009-.025-.009v-7.806l.025-.019h2.7a2.309,2.309,0,0,0,.839-.158l0,0a2.316,2.316,0,0,0,1.406-1.582c.022-.084.043-.164.065-.248v0a22.853,22.853,0,0,1,2.428-5.735,2.319,2.319,0,0,0-.353-2.836l-1.907-1.92,5.558-5.53,1.66,1.663.251.251a2.324,2.324,0,0,0,2.833.356c.6-.356,1.22-.687,1.855-.988v0a23.411,23.411,0,0,1,4.149-1.5,2.322,2.322,0,0,0,1.743-2.248V99.7l.025-.019,5.571.012,2.273.006v2.688a2.32,2.32,0,0,0,1.672,2.226.676.676,0,0,0,.074.022,23.148,23.148,0,0,1,6.017,2.493,2.324,2.324,0,0,0,2.827-.359l1.935-1.911,5.537,5.543-1.911,1.9a2.319,2.319,0,0,0-.353,2.836,22.447,22.447,0,0,1,2.483,5.976,2.318,2.318,0,0,0,2.248,1.753l2.722.019Z" transform="translate(-4)"/><path class="b" d="M371.039,354.388a32.908,32.908,0,0,0-4.679-.539,17.257,17.257,0,0,0-13.6,7.094,17.16,17.16,0,0,0-1.3,18.18,17.256,17.256,0,1,0,19.582-24.735Zm-4.323,29.259a12.586,12.586,0,0,1-12.621-12.578c0-6.261,5.28-13.922,15.523-12.247,5.645.923,9.726,6.3,9.726,12.247a12.618,12.618,0,0,1-12.628,12.578Z" transform="translate(-242.481 -244.28)"/></g></g></g></g></svg>