<svg xmlns="http://www.w3.org/2000/svg" xmlns:xlink="http://www.w3.org/1999/xlink" width="188" height="188" viewBox="0 0 188 188"><defs><style>.a,.b{fill:#ffc208;}.b{opacity:0.3;}.c{clip-path:url(#a);}</style><clipPath id="a"><rect class="a" width="92.093" height="92.031"/></clipPath></defs><g transform="translate(-1489 -1275)"><circle class="b" cx="94" cy="94" r="94" transform="translate(1489 1275)"/><g transform="translate(1537 1323)"><g class="c"><path class="a" d="M90.672,18.4h-7.5a7.752,7.752,0,0,0,.956-7.225L81.857,5.069A7.784,7.784,0,0,0,71.221.75L53.238,9.291a5.4,5.4,0,0,0-3.149-1.01H42a5.4,5.4,0,0,0-3.15,1.011L20.871.75A7.785,7.785,0,0,0,10.235,5.069L7.962,11.177a7.805,7.805,0,0,0,.369,6.261,7.65,7.65,0,0,0,.588.963H1.42A1.421,1.421,0,0,0,0,19.823V30.055a1.421,1.421,0,1,0,2.843,0V21.244h9.873c.158.056.318.107.481.152L25.128,24.68a94.957,94.957,0,0,0-6.993,12.766H2.842V35.74A1.421,1.421,0,0,0,0,35.74v3.127A1.422,1.422,0,0,0,1.42,40.289H6.489V90.608A1.421,1.421,0,0,0,7.911,92.03H84.181A1.421,1.421,0,0,0,85.6,90.608V82.355a1.421,1.421,0,0,0-2.843,0v6.832H54.573V41.163a76.108,76.108,0,0,1,8.006,24.484,1.421,1.421,0,0,0,1.054,1.171,1.4,1.4,0,0,0,.352.044A1.42,1.42,0,0,0,65.12,66.3a79.26,79.26,0,0,0,5.658-8.642,80.978,80.978,0,0,1,8.307,6.5,1.421,1.421,0,0,0,2.352-1.267,95.34,95.34,0,0,0-6.249-22.6h7.571V76.67a1.421,1.421,0,0,0,2.843,0V40.289h5.069a1.421,1.421,0,0,0,1.421-1.421V19.823A1.42,1.42,0,0,0,90.672,18.4M72.44,3.318A4.942,4.942,0,0,1,79.193,6.06l2.272,6.106a4.943,4.943,0,0,1-3.321,6.488L55.518,24.883V18.052C60.6,14.938,73.282,8.516,76.437,12.97a1.421,1.421,0,1,0,2.319-1.643c-2.435-3.438-7.567-3.605-15.255-.5a67.727,67.727,0,0,0-7.984,3.927V13.709a5.4,5.4,0,0,0-.442-2.144ZM42,11.122h8.086a2.59,2.59,0,0,1,2.587,2.586V25.457a2.589,2.589,0,0,1-2.587,2.586H42a2.589,2.589,0,0,1-2.586-2.586V13.709A2.589,2.589,0,0,1,42,11.122M39.614,37.445a75.769,75.769,0,0,1,4.431-6.559h4a75.486,75.486,0,0,1,4.431,6.559Zm-28.753-21.3a4.892,4.892,0,0,1-.235-3.975L12.9,6.059a4.941,4.941,0,0,1,6.751-2.742l17.365,8.248a5.4,5.4,0,0,0-.442,2.144v1.13a67.9,67.9,0,0,0-8.124-4.009c-7.687-3.109-12.819-2.942-15.255.5a1.421,1.421,0,0,0,2.319,1.643c3.185-4.5,16.072,2.09,21.06,5.169v6.744L13.95,18.655a4.888,4.888,0,0,1-3.088-2.513m26.35,11.865a5.453,5.453,0,0,0,3.432,2.707,79.074,79.074,0,0,0-13.37,31.132,77.742,77.742,0,0,1-4.214-6.907,1.421,1.421,0,0,0-2.026-.514A82.333,82.333,0,0,0,14.11,59.48a92.859,92.859,0,0,1,13.9-34.007ZM9.332,40.289H16.9a95.341,95.341,0,0,0-6.25,22.6,1.421,1.421,0,0,0,2.352,1.267,80.893,80.893,0,0,1,8.308-6.5A79.223,79.223,0,0,0,26.972,66.3a1.421,1.421,0,0,0,1.135.566,1.4,1.4,0,0,0,.352-.045,1.42,1.42,0,0,0,1.054-1.171,76.152,76.152,0,0,1,8.006-24.485V89.188H9.332Zm31.029,0h11.37v48.9H40.361Zm30.7,14.136a1.422,1.422,0,0,0-2.027.514,77.768,77.768,0,0,1-4.213,6.907A79.057,79.057,0,0,0,51.448,30.714a5.45,5.45,0,0,0,3.432-2.707l9.206-2.534a92.913,92.913,0,0,1,13.9,34.008,82.458,82.458,0,0,0-6.924-5.055M89.25,37.446H73.958A94.992,94.992,0,0,0,66.966,24.68L78.9,21.4c.162-.045.322-.1.48-.152H89.25Z" transform="translate(0.001 0.001)"/></g></g></g></svg>