<svg xmlns="http://www.w3.org/2000/svg" xmlns:xlink="http://www.w3.org/1999/xlink" width="71.847" height="101.359" viewBox="0 0 71.847 101.359"><defs><style>.a{fill:#e0af49;}.b{fill:#c7823e;}.c{fill:#e4bb56;}.d{fill:#f0f2f7;}.e{fill:#a1bfa5;}.f{fill:#fcfcfc;}.g{fill:#cadbcb;}.h{fill:#fff;}.i{fill:#eefdfa;}.j{fill:#a173f9;}.k{fill:#7a1dff;}.l{fill:#ba90fc;}.m{filter:url(#c);}.n{filter:url(#a);}</style><filter id="a" x="15.677" y="44.827" width="51.389" height="56.533" filterUnits="userSpaceOnUse"><feOffset dy="5" input="SourceAlpha"/><feGaussianBlur stdDeviation="5" result="b"/><feFlood flood-opacity="0.161"/><feComposite operator="in" in2="b"/><feComposite in="SourceGraphic"/></filter><filter id="c" x="0" y="39.569" width="49.207" height="61.79" filterUnits="userSpaceOnUse"><feOffset dy="5" input="SourceAlpha"/><feGaussianBlur stdDeviation="5" result="d"/><feFlood flood-opacity="0.161"/><feComposite operator="in" in2="d"/><feComposite in="SourceGraphic"/></filter></defs><g transform="translate(-934.962 -58.505)"><g class="n" transform="matrix(1, 0, 0, 1, 934.96, 58.5)"><path class="a" d="M969.169,117.12l-3.53,22.745,18.182-5.878,3.207-20.655Z" transform="translate(-934.96 -58.5)"/></g><g class="m" transform="matrix(1, 0, 0, 1, 934.96, 58.5)"><path class="b" d="M969.169,117.12l-16-9.046-3.207,20.655,15.677,11.135Z" transform="translate(-934.96 -58.5)"/></g><path class="c" d="M953.17,108.074l18.011-3.9,15.848,9.154-17.859,3.788Z"/><path class="d" d="M955.384,132.608l3.379-21.364,17.406-4.221,3.428,2.015-17.13,4.291-3.487,21.8Z"/><path class="e" d="M958.763,111.244l3.7,2.086-3.487,21.8-3.6-2.526Z"/><path class="f" d="M977.45,136.035l3.259-21.383-15.306-9.3-3.878.881,15.022,9.284-3.289,21.835Z"/><path class="g" d="M980.708,114.652l-4.162.865-3.3,21.888,4.2-1.357Z"/><path class="h" d="M967.636,110.475l-15.173-33.14.238-.109,14.076,30.743L955.2,74.2l.247-.085,12.43,36.266Z"/><path class="h" d="M973.42,110.946l-.137-.223,31.464-21.9.15.215-29.644,20.637,28.771-15.358.123.231Z"/><path class="i" d="M1005.264,93.235a1.76,1.76,0,0,1-.9,1.067c-.084.041-.173.082-.273.127a22.151,22.151,0,0,1-9.148,1.558,52.392,52.392,0,0,1-12.858-1.872c-1.686-.439-3.477-.969-5.375-1.6l-.893-.269v0q-1.812-.589-3.446-1.2a58.115,58.115,0,0,1-11.606-5.7l-.005,0a28.063,28.063,0,0,1-6.836-6.022l-.005,0a13.314,13.314,0,0,1-1.333-2.029,1.754,1.754,0,0,1-.1-1.4c7.04-20.22,23.905-18.091,30.772-16.266.007-.024.01-.041.01-.041l.775.261c1.1.32,1.836.6,2.1.7l.555.187.324.107.045.014.127.023a.344.344,0,0,1,.056,0l.1.015c.008,0,.014,0,.019,0a.126.126,0,0,1,.027.006h0a31.032,31.032,0,0,1,3.107,1.106C997.256,64.759,1011.508,73.12,1005.264,93.235Z"/><path class="j" d="M982.08,94.115c-1.686-.439-3.477-.969-5.375-1.6l-.893-.269v0q-1.812-.589-3.446-1.2c3.82-23.3,14.345-29.746,14.987-30.121l.032-.018a.226.226,0,0,1,.014.03C987.69,61.571,992.528,72.93,982.08,94.115Z"/><path class="k" d="M987.386,60.9c-.114,0-.229,0-.342.007-20.007.462-25.662,21.775-26.288,24.429a28.063,28.063,0,0,1-6.836-6.022c8.725-20.8,28.738-19.1,32.755-18.528.133.016.247.035.342.051s.17.025.228.038l.1.015c.008,0,.014,0,.019,0A.126.126,0,0,1,987.386,60.9Z"/><path class="l" d="M994.938,95.987c1.379-3.5,8.23-23.233-7.277-34.882-.089-.07-.179-.137-.272-.2.031.013.261.119.642.321,3.55,1.845,20.383,11.847,16.055,33.208A22.151,22.151,0,0,1,994.938,95.987Z"/></g></svg>