<svg xmlns="http://www.w3.org/2000/svg" xmlns:xlink="http://www.w3.org/1999/xlink" width="121" height="121" viewBox="0 0 121 121"><defs><style>.a,.b{fill:#fec22d;}.a{opacity:0.197;}.c{filter:url(#a);}</style><filter id="a" x="0" y="0" width="121" height="121" filterUnits="userSpaceOnUse"><feOffset dy="5" input="SourceAlpha"/><feGaussianBlur stdDeviation="5" result="b"/><feFlood flood-opacity="0.161"/><feComposite operator="in" in2="b"/><feComposite in="SourceGraphic"/></filter></defs><g transform="translate(-1225 -363)"><g class="c" transform="matrix(1, 0, 0, 1, 1225, 363)"><rect class="a" width="91" height="91" rx="10" transform="translate(15 10)"/></g><g transform="translate(1255.13 388.014)"><g transform="translate(0 0)"><path class="b" d="M59.619,21.78,52.911,4.341A6.4,6.4,0,0,0,44.641.673L44.5.73,10.978,14.625A6.368,6.368,0,0,0,7.44,22.773l.922,2.46H6.248A6.255,6.255,0,0,0,0,31.48V53.972A6.255,6.255,0,0,0,6.248,60.22H48.732a6.255,6.255,0,0,0,6.248-6.248V31.48a6.141,6.141,0,0,0-.09-1.012L56.05,30A6.421,6.421,0,0,0,59.619,21.78ZM6.248,27.232H48.732a4.242,4.242,0,0,1,4.223,4H2.024A4.242,4.242,0,0,1,6.248,27.232ZM16.295,21.21l6.682-3.342L24.35,21.3l-6.682,3.341ZM52.98,53.972a4.253,4.253,0,0,1-4.248,4.248H6.248A4.253,4.253,0,0,1,2,53.972V41.227H52.98Zm0-14.745H2v-6H52.98ZM55.3,28.152l-1.045.423a6.251,6.251,0,0,0-5.524-3.342H20.964l5.1-2.552a1,1,0,0,0,.482-1.266l-2.12-5.3a1,1,0,0,0-1.3-.557q-.039.016-.076.034l-8.476,4.24A1,1,0,0,0,14.1,21.1l1.653,4.132H10.5L9.313,22.076a4.376,4.376,0,0,1,2.431-5.6L45.262,2.583A4.392,4.392,0,0,1,51,4.958q.022.052.042.105L57.752,22.5A4.413,4.413,0,0,1,55.3,28.152Z" transform="translate(0 -0.243)"/><path class="b" d="M266.865,363.414a6,6,0,0,0,6.026,0,6,6,0,1,0,0-10.372,6,6,0,1,0-6.026,10.372Zm7.7-8.941a3.958,3.958,0,0,1,1.327-.244,4,4,0,1,1-1.327,7.753A5.974,5.974,0,0,0,274.562,354.473Zm-1.671,1.138a3.925,3.925,0,0,1,0,5.234A3.925,3.925,0,0,1,272.891,355.611Zm-3-1.382a3.956,3.956,0,0,1,1.327.244,5.974,5.974,0,0,0,0,7.509,3.991,3.991,0,1,1-1.327-7.753Z" transform="translate(-230.907 -308.247)"/><rect class="b" width="1.999" height="10.436" transform="translate(42.979 22.457) rotate(-113.966)"/><rect class="b" width="15.17" height="1.998" transform="matrix(0.908, -0.419, 0.419, 0.908, 35.8, 18.517)"/></g></g></g></svg>