<svg xmlns="http://www.w3.org/2000/svg" xmlns:xlink="http://www.w3.org/1999/xlink" width="121" height="121" viewBox="0 0 121 121"><defs><style>.a,.b{fill:#7a24fb;}.a{opacity:0.197;}.c{filter:url(#a);}</style><filter id="a" x="0" y="0" width="121" height="121" filterUnits="userSpaceOnUse"><feOffset dy="5" input="SourceAlpha"/><feGaussianBlur stdDeviation="5" result="b"/><feFlood flood-opacity="0.161"/><feComposite operator="in" in2="b"/><feComposite in="SourceGraphic"/></filter></defs><g transform="translate(-998 -363)"><g class="c" transform="matrix(1, 0, 0, 1, 998, 363)"><rect class="a" width="91" height="91" rx="10" transform="translate(15 10)"/></g><g transform="translate(1028.36 387.058)"><g transform="translate(0 0)"><g transform="translate(5.206 5.996)"><path class="b" d="M102.523,61.952h-.07l-.06-.06L78.544,48.1a1,1,0,0,0-1,0L53.734,61.852l-.07.06h-.07a1,1,0,0,0-.34.59.278.278,0,0,0,0,.09.22.22,0,0,0,0,.08v27.5a1,1,0,0,0,.5.87l23.789,13.8h.16a.86.86,0,0,0,.68,0h.16l23.819-13.75a1,1,0,0,0,.5-.87V62.552A1,1,0,0,0,102.523,61.952Zm-13.08-5.24L67.624,69.3l-2.3-1.33,21.819-12.59ZM66.624,71.031v4L64.3,73.7v-4Zm11.42-20.9,7.1,4.09-21.819,12.6-7.1-4.1Zm-1,52.108-21.809-12.6v-2.81L77.044,99.42Zm0-5.13L55.234,84.521V64.452l7.07,4.09v5.77a1,1,0,0,0,.51.87l4.31,2.47a.992.992,0,0,0,1.5-.86v-4.6l8.42,4.86Zm1-21.789-8.42-4.86,21.819-12.6,8.42,4.85Zm22.819,14.319-21.819,12.6V99.42l21.819-12.59Zm0-5.13L79.043,97.11V77.051l21.819-12.6Z" transform="translate(-53.251 -47.968)"/></g><g transform="translate(18.039)"><rect class="b" width="2" height="2"/></g><g transform="translate(33.039)"><rect class="b" width="2" height="2"/></g><g transform="translate(0.04 14.999)"><rect class="b" width="2" height="2"/></g><g transform="translate(58.038 14.499)"><rect class="b" width="2" height="2"/></g><g transform="translate(48.998 1)"><rect class="b" width="2" height="2"/></g><g transform="translate(48.998 5)"><rect class="b" width="2" height="2"/></g><g transform="translate(46.998 3)"><rect class="b" width="2" height="2"/></g><g transform="translate(50.998 3)"><rect class="b" width="2" height="2"/></g><g transform="translate(55.998 54.998)"><rect class="b" width="2" height="2"/></g><g transform="translate(55.998 58.998)"><rect class="b" width="2" height="2"/></g><g transform="translate(53.998 56.998)"><rect class="b" width="2" height="2"/></g><g transform="translate(57.998 56.998)"><rect class="b" width="2" height="2"/></g><g transform="translate(2 54.998)"><rect class="b" width="2" height="2"/></g><g transform="translate(2 58.998)"><rect class="b" width="2" height="2"/></g><g transform="translate(0 56.998)"><rect class="b" width="2" height="2"/></g><g transform="translate(4 56.998)"><rect class="b" width="2" height="2"/></g><g transform="translate(6 2)"><rect class="b" width="2" height="2"/></g><g transform="translate(6 6)"><rect class="b" width="2" height="2"/></g><g transform="translate(4 4)"><rect class="b" width="2" height="2"/></g><g transform="translate(8 4)"><rect class="b" width="2" height="2"/></g></g></g></g></svg>