<svg xmlns="http://www.w3.org/2000/svg" xmlns:xlink="http://www.w3.org/1999/xlink" width="126.546" height="190.301" viewBox="0 0 126.546 190.301"><defs><style>.a{fill:#e0af49;}.b{fill:#c7823e;}.c{fill:#e4bb56;}.d{fill:#f0f2f7;}.e{fill:#a1bfa5;}.f{fill:#fcfcfc;}.g{fill:#cadbcb;}.h{fill:#fff;}.i{fill:#eefdfa;}.j{fill:#5abdf7;}.k{fill:#1caafc;}.l{fill:#90d1f7;}.m{filter:url(#c);}.n{filter:url(#a);}</style><filter id="a" x="44.956" y="92.086" width="81.59" height="88.773" filterUnits="userSpaceOnUse"><feOffset dy="5" input="SourceAlpha"/><feGaussianBlur stdDeviation="5" result="b"/><feFlood flood-opacity="0.161"/><feComposite operator="in" in2="b"/><feComposite in="SourceGraphic"/></filter><filter id="c" x="14.939" y="95.058" width="81.095" height="95.243" filterUnits="userSpaceOnUse"><feOffset dy="5" input="SourceAlpha"/><feGaussianBlur stdDeviation="5" result="d"/><feFlood flood-opacity="0.161"/><feComposite operator="in" in2="d"/><feComposite in="SourceGraphic"/></filter></defs><g transform="translate(23.374 -666)"><g transform="matrix(0.946, -0.326, 0.326, 0.946, 3.986, 774.752)"><g class="n" transform="matrix(0.95, 0.33, -0.33, 0.95, 9.54, -111.73)"><path class="a" d="M5.349,7.718,0,49.206,32.759,37.677,37.619,0Z" transform="matrix(0.95, -0.33, 0.33, 0.95, 59.96, 114.33)"/></g><g class="m" transform="matrix(0.95, 0.33, -0.33, 0.95, 9.54, -111.73)"><path class="b" d="M34.352,15.686,4.861,0,0,37.677l29,19.5Z" transform="matrix(0.95, -0.33, 0.33, 0.95, 29.94, 116.24)"/></g><path class="c" d="M0,7.921,32.54,0,61.762,15.889l-32.27,7.718Z" transform="translate(4.861)"/><g transform="translate(10.031 4.937)"><path class="d" d="M0,47.455,5.139,8.482,36.565,0l6.323,3.5L11.966,12.1,6.652,51.876Z"/><path class="e" d="M5.139,0l6.827,3.616L6.652,43.393,0,38.972Z" transform="translate(0 8.482)"/></g><g transform="translate(19.953 2.404)"><path class="f" d="M30.328,55.181l4.92-39L7,0,0,1.781,27.727,17.946,22.772,57.769Z"/><path class="g" d="M12.487,0,4.966,1.765,0,41.686l7.564-2.662Z" transform="translate(22.761 16.18)"/></g></g><g transform="matrix(0.946, -0.326, 0.326, 0.946, -23.374, 697.839)"><g transform="translate(0.315 31.484)"><path class="h" d="M32.95,61.988,0,6.249l.4-.236L30.967,57.721,4.257.2,4.678,0,33.36,61.772Z"/></g><g transform="translate(43.289 48.333)"><path class="h" d="M.282,44.9,0,44.531,51.531,0l.3.352L3.285,42.307,51.273,9.841l.261.385Z"/></g><path class="i" d="M96.551,56.04a3.126,3.126,0,0,1-1.4,2.053c-.14.087-.29.178-.458.274-2.319,1.354-7.305,3.59-15.874,4.448a92.994,92.994,0,0,1-23.065-.925q-4.589-.694-9.794-1.835l-1.628-.31v0q-3.31-.707-6.311-1.486a103.133,103.133,0,0,1-21.562-7.921l-.01,0A49.891,49.891,0,0,1,3.256,40.958c-.005,0,0-.006-.009-.007A23.584,23.584,0,0,1,.515,37.614a3.121,3.121,0,0,1-.43-2.451C8.777-1.866,38.969-1.23,51.439.723a.445.445,0,0,0,.01-.074l1.418.317c2,.361,3.355.721,3.833.857l1.016.228.591.128.083.018.229.017a.692.692,0,0,1,.1-.01c.075.006.13.007.17.01.014,0,.025,0,.035,0a.488.488,0,0,1,.05.005h0A54.975,54.975,0,0,1,64.673,3.6C77.126,7.211,103.856,19.343,96.551,56.04Z"/><path class="j" d="M17.731,59.669q-4.589-.694-9.794-1.835l-1.627-.31v0Q3,56.813,0,56.033C2.431,14.154,19.833.82,20.9.04c.036-.028.054-.04.054-.04s.011.018.03.052C21.612,1.131,32.266,20.3,17.731,59.669Z" transform="translate(38.021 2.221)"/><path class="k" d="M55.717.1c-.2.024-.405.047-.6.077C19.85,4.7,13.808,43.4,13.193,48.209A49.893,49.893,0,0,1,0,38.835C11.561.465,47.235-.235,54.44.029c.237,0,.442.016.612.027s.306.013.411.025c.075.006.13.007.17.01.014,0,.025,0,.035,0A.488.488,0,0,1,55.717.1Z" transform="translate(3.256 2.123)"/><path class="l" d="M19.84,60.592C21.626,54.152,30.075,18.019.518.311.348.2.176.1,0,0,.057.017.483.161,1.193.447,7.808,3.05,39.4,17.6,35.714,56.144,33.395,57.5,28.409,59.733,19.84,60.592Z" transform="translate(58.978 2.223)"/></g></g></svg>