<svg xmlns="http://www.w3.org/2000/svg" xmlns:xlink="http://www.w3.org/1999/xlink" width="188" height="188" viewBox="0 0 188 188"><defs><style>.a,.b{fill:#0af;}.b{opacity:0.3;}.c{clip-path:url(#a);}</style><clipPath id="a"><rect class="a" width="111.999" height="74.666"/></clipPath></defs><g transform="translate(-866 -1275)"><circle class="b" cx="94" cy="94" r="94" transform="translate(866 1275)"/><g transform="translate(904.001 1331.334)"><g class="c"><path class="a" d="M100.332,0H11.666A11.683,11.683,0,0,0,0,11.667V63A11.683,11.683,0,0,0,11.666,74.666h88.666A11.683,11.683,0,0,0,112,63V11.667A11.682,11.682,0,0,0,100.332,0m7,63a7.008,7.008,0,0,1-7,7H11.666a7.008,7.008,0,0,1-7-7V11.667a7.008,7.008,0,0,1,7-7h88.666a7.008,7.008,0,0,1,7,7V63Z"/><path class="a" d="M109.665,64H2.333A2.334,2.334,0,0,0,0,66.333v14a2.334,2.334,0,0,0,2.333,2.333H109.666A2.334,2.334,0,0,0,112,80.333v-14A2.335,2.335,0,0,0,109.665,64m-2.333,14H4.667V68.667H107.332V78Z" transform="translate(0 -50)"/><path class="a" d="M94.333,213.334h-28a2.333,2.333,0,1,0,0,4.667h28a2.333,2.333,0,1,0,0-4.667" transform="translate(-50 -166.668)"/><path class="a" d="M94.333,256h-28a2.333,2.333,0,0,0,0,4.667h28a2.333,2.333,0,0,0,0-4.667" transform="translate(-50 -200.001)"/><path class="a" d="M374.333,192h-4.667a7.008,7.008,0,0,0-7,7v4.667a7.008,7.008,0,0,0,7,7h4.667a7.008,7.008,0,0,0,7-7V199a7.008,7.008,0,0,0-7-7m2.333,11.667A2.334,2.334,0,0,1,374.333,206h-4.667a2.334,2.334,0,0,1-2.333-2.333V199a2.334,2.334,0,0,1,2.333-2.333h4.667A2.334,2.334,0,0,1,376.667,199Z" transform="translate(-283.334 -150)"/></g></g></g></svg>