<svg xmlns="http://www.w3.org/2000/svg" xmlns:xlink="http://www.w3.org/1999/xlink" width="188" height="188" viewBox="0 0 188 188"><defs><style>.a,.b{fill:#f72163;}.b{opacity:0.3;}.c{clip-path:url(#a);}</style><clipPath id="a"><rect class="a" width="81" height="74" transform="translate(0.277 -0.494)"/></clipPath></defs><g transform="translate(-245 -1275)"><circle class="b" cx="94" cy="94" r="94" transform="translate(245 1275)"/><g transform="translate(298.884 1333.021)"><g class="c" transform="translate(-0.161 -0.526)"><path class="a" d="M26.437,48.079h43.6a2.4,2.4,0,0,0,2.311-1.743L81.962,12.68A2.4,2.4,0,0,0,79.65,9.616H20.893L19.174,1.882A2.4,2.4,0,0,0,16.828,0H2.4a2.4,2.4,0,0,0,0,4.808H14.9l8.679,39.058a7.211,7.211,0,0,0,2.865,13.829H70.035a2.4,2.4,0,1,0,0-4.808H26.443a2.4,2.4,0,0,1-.006-4.807M76.463,14.424,68.221,43.271H28.371l-6.41-28.847Z" transform="translate(-0.007 0.446)"/><path class="a" d="M150,367.212A7.212,7.212,0,1,0,157.212,360,7.22,7.22,0,0,0,150,367.212m7.212-2.4a2.4,2.4,0,1,1-2.4,2.4,2.407,2.407,0,0,1,2.4-2.4" transform="translate(-125.968 -301.859)"/><path class="a" d="M362,367.212A7.212,7.212,0,1,0,369.212,360,7.22,7.22,0,0,0,362,367.212m7.212-2.4a2.4,2.4,0,1,1-2.4,2.4,2.407,2.407,0,0,1,2.4-2.4" transform="translate(-303.992 -301.859)"/></g></g></g></svg>