<svg xmlns="http://www.w3.org/2000/svg" width="215" height="215" viewBox="0 0 215 215"><defs><style>.a{fill:#0af;}.b{fill:#fff;}</style></defs><g transform="translate(-315 -4053)"><circle class="a" cx="107.5" cy="107.5" r="107.5" transform="translate(315 4053)"/><g transform="translate(355.902 4094.861)"><g transform="translate(39.439 99.127)"><path class="b" d="M157.862,385.934a2.694,2.694,0,0,0-.147-.485,2.618,2.618,0,0,0-.238-.444,2.51,2.51,0,0,0-.713-.713,2.55,2.55,0,0,0-.447-.238,2.425,2.425,0,0,0-.483-.147,2.542,2.542,0,0,0-1.007,0,2.5,2.5,0,0,0-.485.147,2.621,2.621,0,0,0-.444.238,2.581,2.581,0,0,0-.95,1.157,2.5,2.5,0,0,0-.147.485,2.48,2.48,0,0,0,0,1.007,2.426,2.426,0,0,0,.147.483,2.39,2.39,0,0,0,.238.447,2.511,2.511,0,0,0,.713.713,2.605,2.605,0,0,0,.444.238,2.5,2.5,0,0,0,.485.147,2.482,2.482,0,0,0,1.007,0,2.425,2.425,0,0,0,.483-.147,2.551,2.551,0,0,0,.447-.238,2.51,2.51,0,0,0,.713-.713,2.55,2.55,0,0,0,.238-.447,2.606,2.606,0,0,0,.147-.483,2.48,2.48,0,0,0,0-1.007Z" transform="translate(-152.75 -383.857)"/></g><g transform="translate(0 80.037)"><path class="b" d="M118.768,331.884c-.01-.026-.02-.051-.031-.077-2.376-5.561-7.95-7.616-14.546-5.363L86.2,331.418a11.792,11.792,0,0,0-7.3-7.191l-.068-.024L59.06,317.493a20.394,20.394,0,0,0-16.453-7.571c-6.745,0-12.712,4.627-16.126,9.671H2.582A2.582,2.582,0,0,0,0,322.175v32.552a2.582,2.582,0,0,0,2.582,2.582H17.933a2.582,2.582,0,0,0,2.582-2.582V352.5h7.2a2.582,2.582,0,0,0,2.582-2.582v-.743c4.2.366,5.577,1.162,9.431,3.385a156.258,156.258,0,0,0,15.512,7.92c.037.017.075.033.113.048a23.176,23.176,0,0,0,8.307,1.566,20.58,20.58,0,0,0,8.554-1.832l39.76-14.236c.071-.025.14-.054.209-.085C115.982,344.191,121.644,339.263,118.768,331.884ZM15.351,352.145H5.164V324.757H15.351Zm9.781-4.811H20.515V324.757h4.617Zm84.986-6.131L70.377,355.432c-.035.012-.082.031-.116.045l-.1.045a16.735,16.735,0,0,1-12.858.219,149.575,149.575,0,0,1-14.991-7.657c-4.225-2.436-6.261-3.611-12.011-4.085V323.2c2.447-4.011,7.194-8.117,12.31-8.117,8.775,0,12.493,5.707,12.639,5.938a2.582,2.582,0,0,0,1.37,1.093l20.52,6.965c3.277,1.23,5.009,4.037,4.213,6.835a5.031,5.031,0,0,1-6.181,3.472l-23.132-7.331a2.582,2.582,0,1,0-1.56,4.923l23.173,7.343.074.022a10.135,10.135,0,0,0,7.75-.9,10.126,10.126,0,0,0,4.843-6.117q.089-.314.158-.627l19.386-5.37c2.8-.956,6.475-1.3,8.112,2.468C115.665,338.223,111.263,340.657,110.119,341.2Z" transform="translate(0 -309.922)"/></g><g transform="translate(87.592 31.904)"><path class="b" d="M344.365,125.575a2.51,2.51,0,0,0-.15-.485,2.446,2.446,0,0,0-.238-.444,2.509,2.509,0,0,0-.713-.713,2.619,2.619,0,0,0-.444-.238,2.571,2.571,0,0,0-1.492-.147,2.425,2.425,0,0,0-.483.147,2.547,2.547,0,0,0-.447.238,2.508,2.508,0,0,0-.713.713,2.619,2.619,0,0,0-.238.444,2.5,2.5,0,0,0-.147.485,2.479,2.479,0,0,0,0,1.007,2.423,2.423,0,0,0,.147.483,2.547,2.547,0,0,0,.238.447,2.508,2.508,0,0,0,.713.713,2.548,2.548,0,0,0,.447.238,2.609,2.609,0,0,0,.483.147,2.544,2.544,0,0,0,.5.052,2.59,2.59,0,0,0,.506-.052,2.733,2.733,0,0,0,.483-.147,2.62,2.62,0,0,0,.444-.238,2.509,2.509,0,0,0,.713-.713,2.385,2.385,0,0,0,.238-.447,2.432,2.432,0,0,0,.15-.483,2.606,2.606,0,0,0,0-1.007Z" transform="translate(-339.25 -123.498)"/></g><g transform="translate(7.666 0.023)"><g transform="translate(0 0)"><path class="b" d="M151.638,8.768H136.287A2.582,2.582,0,0,0,133.7,11.35v2.229h-7.2a2.582,2.582,0,0,0-2.582,2.582V16.9c-4.2-.366-5.577-1.162-9.431-3.385A156.232,156.232,0,0,0,98.981,5.6c-.037-.017-.075-.033-.114-.048a21.966,21.966,0,0,0-16.86.265l-10.39,3.72L62.86.779a2.582,2.582,0,0,0-3.651,0L30.457,29.531a2.561,2.561,0,0,0,0,3.652L79.588,82.314a2.79,2.79,0,0,0,3.652,0l26.249-26.249c.682.059,1.391.091,2.125.091,6.746,0,12.712-4.627,16.126-9.671h23.9A2.582,2.582,0,0,0,154.22,43.9V11.35A2.582,2.582,0,0,0,151.638,8.768Zm-90.6-2.511,5.885,5.885a11.257,11.257,0,0,1-11.77,0ZM41.819,37.242l-5.885-5.885,5.885-5.885a11.257,11.257,0,0,1,0,11.77ZM81.414,76.836,75.53,70.953a11.241,11.241,0,0,1,11.767,0Zm9.6-9.6a16.408,16.408,0,0,0-19.207,0L45.538,40.961a16.408,16.408,0,0,0,0-19.209l5.891-5.891a16.408,16.408,0,0,0,19.209,0l5.584,5.584a10.234,10.234,0,0,0-7.683,5.629,14.716,14.716,0,1,0,16.92,18.217l8.718,2.959a16.484,16.484,0,0,0,2.735,13.086Zm-15.7-25.384.068.024,5.163,1.752A9.554,9.554,0,1,1,67.583,32.713,11.431,11.431,0,0,0,75.319,41.849Zm25.314,15.767a11.293,11.293,0,0,1-1.65-5.369,20.076,20.076,0,0,0,4.554,2.465Zm23.29-14.743c-2.447,4.012-7.193,8.118-12.31,8.118a18.792,18.792,0,0,1-2.693-.19l-.01,0a14.788,14.788,0,0,1-9.564-5.234c-.053-.077-.277-.371-.31-.42a2.573,2.573,0,0,0-1.423-1.183L77.084,37c-3.276-1.23-5.008-4.035-4.214-6.833l0-.005,0-.006a5.03,5.03,0,0,1,6.179-3.463l23.132,7.33a2.582,2.582,0,0,0,1.56-4.923l-18.4-5.83-.161-.161,0,0-9.525-9.525,8.187-2.932.089-.034.027-.011.1-.045a16.733,16.733,0,0,1,12.858-.219,149.563,149.563,0,0,1,14.992,7.657c4.225,2.437,6.261,3.611,12.011,4.085ZM133.7,41.32h-4.617V18.743H133.7Zm15.351,0H138.869V13.932h10.188Z" transform="translate(-29.691 -0.023)"/></g></g></g></g></svg>