<svg xmlns="http://www.w3.org/2000/svg" xmlns:xlink="http://www.w3.org/1999/xlink" width="110.014" height="30" viewBox="0 0 110.014 30"><defs><style>.a{fill:#fcde98;}.b{fill:#fef2d5;}.c{fill:#fec22d;}.d{filter:url(#a);}</style><filter id="a" x="88.228" y="9.486" width="6.786" height="10.9" filterUnits="userSpaceOnUse"><feOffset dx="-1" input="SourceAlpha"/><feGaussianBlur stdDeviation="0.5" result="b"/><feFlood flood-color="#fcde98"/><feComposite operator="in" in2="b"/><feComposite in="SourceGraphic"/></filter></defs><g transform="translate(-1229.493 -454.657)"><g transform="translate(491.493 -518.343)"><g transform="translate(738 975.133)"><path class="a" d="M12.5,0H97.512c6.9,0,12.5,6.238,12.5,13.933h0c0,7.7-5.6,13.933-12.5,13.933H12.5C5.6,27.867,0,21.629,0,13.934H0C0,6.238,5.6,0,12.5,0Z" transform="translate(0)"/></g><g transform="translate(738 973)"><rect class="b" width="110.014" height="27.867" rx="13.933"/></g></g><g transform="translate(1320.221 465.643)"><g class="d" transform="matrix(1, 0, 0, 1, -90.73, -10.99)"><path class="c" d="M1453.015,464.806a.6.6,0,0,1-.412-.168.752.752,0,0,1-.069-.987l2.167-2.8-2.167-2.8a.752.752,0,0,1,.069-.987.592.592,0,0,1,.892.076l2.52,3.251a.757.757,0,0,1,0,.911l-2.52,3.25A.608.608,0,0,1,1453.015,464.806Z" transform="translate(-1361.65 -445.92)"/></g></g></g></svg>