<svg xmlns="http://www.w3.org/2000/svg" xmlns:xlink="http://www.w3.org/1999/xlink" width="626.604" height="417.185" viewBox="0 0 626.604 417.185"><defs><style>.a{opacity:0.053;}.b{fill:url(#a);}.c{fill:url(#b);}.d{fill:url(#c);}.e{fill:url(#d);}.f{fill:url(#f);}.g{fill:url(#g);}.h{fill:#161e3f;}.i{fill:#707998;}.j{fill:#2e385b;}.k{fill:url(#h);}.l{fill:#0f121e;}.m{fill:url(#i);}.n{fill:url(#j);}.o{fill:url(#k);}.p{fill:url(#l);}.q{fill:url(#o);}.r{fill:url(#p);}.s{fill:url(#q);}.t{fill:#eac25c;}.u{fill:url(#r);}.v{fill:url(#s);}.w{fill:url(#t);}.x{fill:#fffbf3;}.y{fill:url(#u);}.z{fill:url(#v);}.aa{fill:url(#w);}.ab{fill:url(#x);}.ac{fill:url(#y);}.ad{fill:url(#z);}.ae{fill:#222323;}.af{fill:#e8e8e8;}.ag,.aj,.al{opacity:0.55;}.ag{fill:url(#aa);}.ah{fill:#e5e5e5;}.ai{fill:url(#ab);}.aj{fill:url(#ac);}.ak{fill:url(#ad);}.al{fill:url(#ae);}.am,.ar{fill:#fff;}.an{fill:url(#af);}.ao{fill:url(#ag);}.ap{fill:url(#ah);}.aq{fill:url(#ai);}.ar{opacity:0.5;}.as{fill:url(#aj);}.at{fill:#fc561f;}.au{fill:url(#ak);}.av{fill:url(#al);}.aw{fill:url(#am);}.ax{fill:url(#an);}.ay{fill:url(#ao);}.az{fill:url(#ap);}.ba{fill:url(#aq);}.bb{fill:url(#ar);}.bc{fill:url(#as);}.bd{fill:url(#at);}.be{fill:#fd6420;}.bf{fill:#f72163;}.bg{fill:url(#au);}.bh{fill:url(#av);}.bi{fill:#7a24fb;}.bj{fill:url(#aw);}.bk{fill:url(#ax);}.bl{fill:#3e1181;}.bm{fill:url(#ay);}.bn{fill:url(#az);}.bo{fill:url(#ba);}.bp{fill:#0af;}.bq{fill:url(#bb);}.br{fill:url(#bc);}.bs{fill:url(#bd);}.bt{fill:url(#be);}.bu{fill:url(#bf);}.bv{fill:url(#bg);}</style><linearGradient id="a" x1="33.308" y1="0.5" x2="34.308" y2="0.5" gradientUnits="objectBoundingBox"><stop offset="0" stop-color="gray"/><stop offset="0.639" stop-color="#51514c"/><stop offset="1" stop-color="#3c3c35"/></linearGradient><linearGradient id="b" x1="54.22" y1="0.5" x2="55.22" y2="0.5" gradientUnits="objectBoundingBox"><stop offset="0.003" stop-color="#fff"/><stop offset="0.367" stop-color="#f2f2ff"/><stop offset="1" stop-color="#d2d2ff"/></linearGradient><linearGradient id="c" x1="33.308" y1="0.5" x2="34.308" y2="0.5" gradientUnits="objectBoundingBox"><stop offset="0" stop-color="#595b68"/><stop offset="0.538" stop-color="#37404d"/><stop offset="1" stop-color="#202d3b"/></linearGradient><linearGradient id="d" x1="54.22" y1="0.5" x2="55.22" y2="0.5" gradientUnits="objectBoundingBox"><stop offset="0" stop-color="#fff"/><stop offset="0.559" stop-color="#dae6f8"/><stop offset="1" stop-color="#c3d6f5"/></linearGradient><linearGradient id="f" x1="54.22" y1="0.5" x2="55.22" y2="0.5" xlink:href="#d"/><linearGradient id="g" x1="26.053" y1="0.5" x2="27.053" y2="0.5" xlink:href="#c"/><linearGradient id="h" x1="34.817" y1="0.5" x2="35.817" y2="0.5" xlink:href="#b"/><linearGradient id="i" x1="112.515" y1="0.5" x2="113.515" y2="0.5" gradientUnits="objectBoundingBox"><stop offset="0" stop-color="#dbbafd"/><stop offset="0.108" stop-color="#cfaefc"/><stop offset="0.713" stop-color="#9370fc"/><stop offset="1" stop-color="#7c59fc"/></linearGradient><linearGradient id="j" x1="79.546" y1="0.5" x2="80.546" y2="0.5" xlink:href="#b"/><linearGradient id="k" x1="112.814" y1="0.5" x2="113.814" y2="0.5" xlink:href="#i"/><linearGradient id="l" x1="118.767" y1="0.5" x2="119.767" y2="0.5" xlink:href="#i"/><linearGradient id="o" x1="21408.58" y1="0.5" x2="21409.58" y2="0.5" gradientUnits="objectBoundingBox"><stop offset="0" stop-color="#be73de"/><stop offset="1" stop-color="#514eb7"/></linearGradient><linearGradient id="p" x1="14255.416" y1="0.5" x2="14256.416" y2="0.5" xlink:href="#o"/><linearGradient id="q" x1="26.987" y1="0.5" x2="27.987" y2="0.5" xlink:href="#c"/><linearGradient id="r" x1="310.747" y1="-18.619" x2="311.747" y2="-18.619" gradientUnits="objectBoundingBox"><stop offset="0" stop-color="#b88561"/><stop offset="1" stop-color="#ddb192"/></linearGradient><linearGradient id="s" x1="310.735" y1="-25.296" x2="311.735" y2="-25.296" xlink:href="#r"/><linearGradient id="t" x1="334.058" y1="-44.044" x2="334.058" y2="-41.818" xlink:href="#r"/><linearGradient id="u" x1="-217.982" y1="-53.37" x2="-217.982" y2="-51.519" xlink:href="#b"/><linearGradient id="v" x1="-442.673" y1="0.5" x2="-441.673" y2="0.5" gradientUnits="objectBoundingBox"><stop offset="0" stop-color="#ffd571"/><stop offset="0.251" stop-color="#ffbc60"/><stop offset="0.778" stop-color="#ff7f34"/><stop offset="1" stop-color="#ff6421"/></linearGradient><linearGradient id="w" x1="334.07" y1="-46.282" x2="334.07" y2="-44.056" xlink:href="#b"/><linearGradient id="x" x1="334.06" y1="-44.516" x2="334.06" y2="-42.29" xlink:href="#b"/><linearGradient id="y" x1="334.081" y1="-48.261" x2="334.081" y2="-46.035" xlink:href="#b"/><linearGradient id="z" x1="351.534" y1="-66.954" x2="351.534" y2="-64.728" xlink:href="#b"/><linearGradient id="aa" x1="-71.621" y1="0.5" x2="-70.621" y2="0.5" gradientUnits="objectBoundingBox"><stop offset="0" stop-color="#78bfff"/><stop offset="1" stop-color="#f9f9f9"/></linearGradient><linearGradient id="ab" x1="-47.19" y1="0.995" x2="-47.179" y2="-0.011" gradientUnits="objectBoundingBox"><stop offset="0" stop-color="#b1ff8d"/><stop offset="0.371" stop-color="#aaff7c"/><stop offset="1" stop-color="#a1ff64"/></linearGradient><linearGradient id="ac" x1="-105.022" x2="-104.022" xlink:href="#aa"/><linearGradient id="ad" x1="-23.756" y1="0.5" x2="-22.756" y2="0.5" gradientUnits="objectBoundingBox"><stop offset="0" stop-color="#99e2ff"/><stop offset="1" stop-color="#61c2f2"/></linearGradient><linearGradient id="ae" x1="-10.915" x2="-9.915" xlink:href="#aa"/><linearGradient id="af" x1="-211.729" y1="0.5" x2="-210.729" y2="0.5" gradientUnits="objectBoundingBox"><stop offset="0" stop-color="#f7f7f7"/><stop offset="1" stop-color="#fff"/></linearGradient><linearGradient id="ag" x1="-513.744" y1="0.5" x2="-512.744" y2="0.5" xlink:href="#af"/><linearGradient id="ah" x1="-723.442" y1="0.5" x2="-722.442" y2="0.5" xlink:href="#af"/><linearGradient id="ai" x1="-28.636" y1="0.5" x2="-27.636" y2="0.5" xlink:href="#ad"/><linearGradient id="aj" x1="-592.729" y1="0.5" x2="-555.304" y2="0.5" xlink:href="#v"/><linearGradient id="ak" x1="-631.31" y1="0.5" x2="-593.761" y2="0.5" xlink:href="#v"/><linearGradient id="al" x1="-849.5" y1="0.5" x2="-798.674" y2="0.5" xlink:href="#v"/><linearGradient id="am" x1="-17.915" y1="0.5" x2="-16.849" y2="0.5" xlink:href="#v"/><linearGradient id="an" x1="-728.882" y1="0.5" x2="-687.675" y2="0.5" xlink:href="#v"/><linearGradient id="ao" x1="-558.941" y1="0.5" x2="-536.919" y2="0.5" xlink:href="#v"/><linearGradient id="ap" x1="-27.038" y1="0.5" x2="-25.975" y2="0.5" xlink:href="#v"/><linearGradient id="aq" x1="-667.543" y1="0.5" x2="-642.141" y2="0.5" xlink:href="#v"/><linearGradient id="ar" x1="-641.375" y1="0.5" x2="-633.394" y2="0.5" xlink:href="#v"/><linearGradient id="as" x1="-555.216" y1="0.5" x2="-540.518" y2="0.5" xlink:href="#v"/><linearGradient id="at" x1="-540.131" y1="0.5" x2="-526.055" y2="0.5" xlink:href="#v"/><linearGradient id="au" x1="-83.418" y1="0.5" x2="-82.418" y2="0.5" xlink:href="#af"/><linearGradient id="av" x1="351.517" y1="-37.993" x2="351.517" y2="-35.767" xlink:href="#b"/><linearGradient id="aw" x1="-182.852" y1="0.5" x2="-181.852" y2="0.5" gradientUnits="objectBoundingBox"><stop offset="0" stop-color="#ffecdc"/><stop offset="0.238" stop-color="#f6dac3"/><stop offset="0.737" stop-color="#dfac86"/><stop offset="1" stop-color="#d39364"/></linearGradient><linearGradient id="ax" x1="-356.506" y1="0.5" x2="-355.506" y2="0.5" xlink:href="#aw"/><linearGradient id="ay" x1="-5333.635" y1="0.5" x2="-5332.635" y2="0.5" gradientUnits="objectBoundingBox"><stop offset="0" stop-color="#e3cbba"/><stop offset="0.253" stop-color="#dbbaa1"/><stop offset="0.784" stop-color="#c78e64"/><stop offset="1" stop-color="#bf7c4a"/></linearGradient><linearGradient id="az" x1="-193.249" y1="0.057" x2="-192.403" y2="0.952" xlink:href="#b"/><linearGradient id="ba" x1="-76.372" y1="0.497" x2="-76.051" y2="0.783" xlink:href="#aw"/><linearGradient id="bb" x1="-252.677" y1="238.607" x2="-252.677" y2="240.332" xlink:href="#b"/><linearGradient id="bc" x1="-223.469" y1="323.857" x2="-223.469" y2="325.849" xlink:href="#b"/><linearGradient id="bd" x1="-214.859" y1="318.044" x2="-214.859" y2="320.037" xlink:href="#b"/><linearGradient id="be" x1="-251.44" y1="0.5" x2="-250.44" y2="0.5" xlink:href="#b"/><linearGradient id="bf" x1="-3604.116" y1="0.5" x2="-3603.116" y2="0.5" xlink:href="#v"/><linearGradient id="bg" x1="-254.135" y1="0.132" x2="-253.688" y2="0.913" xlink:href="#aw"/></defs><ellipse class="a" cx="300.033" cy="18.363" rx="300.033" ry="18.363" transform="translate(0 380.459)"/><g transform="translate(20.519)"><g transform="translate(0 129.645)"><g transform="translate(217.991 203.553)"><circle class="b" cx="34.512" cy="34.512" r="34.512"/><circle class="c" cx="21.201" cy="21.201" r="21.201" transform="translate(9.533 34.512) rotate(-45)"/></g><g transform="translate(121.874 203.553)"><circle class="d" cx="34.512" cy="34.512" r="34.512"/><circle class="e" cx="21.201" cy="21.201" r="21.201" transform="translate(14.189 13.724)"/></g><g transform="translate(384.91 203.553)"><circle class="d" cx="34.512" cy="34.512" r="34.512"/><circle class="f" cx="21.201" cy="21.201" r="21.201" transform="matrix(0.23, -0.973, 0.973, 0.23, 13.412, 50.275)"/></g><path class="g" d="M2110.987,1206.826h-85.176a26.707,26.707,0,0,1,1.883-15.379c4.409-16.562,20.971-28.93,40.652-28.93s36.189,12.368,40.6,28.93C2110.234,1196.287,2111.525,1201.61,2110.987,1206.826Z" transform="translate(-1559.158 -969.206)"/><path class="h" d="M2201.7,840.652h-36.52v-3.809h34.283Z" transform="translate(-1644.033 -771.438)"/><path class="h" d="M2240.355,867.078l-2.463,1.005a4.868,4.868,0,0,1-6.31-2.582l-8.157-18.96h13.644l5.919,14.107A4.867,4.867,0,0,1,2240.355,867.078Z" transform="translate(-1679.405 -777.327)"/><path class="i" d="M0,0H108.19V222.241H0Z" transform="translate(63.63)"/><rect class="j" width="251.171" height="222.241" transform="translate(171.82)"/><rect class="h" width="71.248" height="192.684" transform="translate(85.138 21.042)"/><path class="h" d="M2045.228,894.316H1915.261V818.587h84.913A24.648,24.648,0,0,1,2023.4,834.6Z" transform="translate(-1492.27 -760.352)"/><path class="k" d="M2124.507,896.737h-66.033V829.951h26.294a21.685,21.685,0,0,1,20.487,14.142Z" transform="translate(-1579.237 -767.253)"/><path class="l" d="M0,0H43.475A21.509,21.509,0,0,1,64.984,21.509v0a0,0,0,0,1,0,0H0a0,0,0,0,1,0,0V0A0,0,0,0,1,0,0Z" transform="translate(422.991 36.727)"/><path class="j" d="M2073.62,1067.071v3.657h20.434v28.929h-52c-4.408-16.562-20.917-28.929-40.6-28.929s-36.243,12.367-40.652,28.929h-45.545v-88.294H2040.5a53.55,53.55,0,0,1,51.621,39.254c.323,1.183.646,2.42.861,3.657a42.412,42.412,0,0,1,.7,4.57c.162,1.183.269,2.42.322,3.656.055.807.055,1.614.055,2.42v2.151Z" transform="translate(-1492.27 -877.416)"/><g transform="translate(577.156 173.201)"><rect class="m" width="20.433" height="3.656" transform="translate(4.194 16.455)"/><path class="n" d="M0,0H19.829A9.074,9.074,0,0,1,28.9,9.074v0a9.074,9.074,0,0,1-9.074,9.074H0a0,0,0,0,1,0,0V0A0,0,0,0,1,0,0Z" transform="translate(0 23.499)"/><path class="o" d="M2338.854,1135.915h-20.379v-3.656h20.057C2338.694,1133.442,2338.8,1134.678,2338.854,1135.915Z" transform="translate(-2314.281 -1124.032)"/><path class="p" d="M2337.833,1114.968h-19.358v-3.657h18.5C2337.3,1112.494,2337.618,1113.731,2337.833,1114.968Z" transform="translate(-2314.281 -1111.311)"/></g><path class="h" d="M1403.281,1251.557a33.766,33.766,0,0,0,1.4,5.054H1000.258v-20.433h404.906A26.709,26.709,0,0,0,1403.281,1251.557Z" transform="translate(-936.628 -1013.937)"/><path class="h" d="M2294.405,1241.878V1254.3a2.341,2.341,0,0,1-2.366,2.312H2239.02a18.6,18.6,0,0,0,1.129-5.054c.537-5.216-.753-10.539-2.043-15.379h50.546A5.749,5.749,0,0,1,2294.405,1241.878Z" transform="translate(-1688.32 -1013.937)"/><g transform="translate(460.772 185.956)"><circle class="d" cx="34.512" cy="34.512" r="34.512" transform="translate(0 48.808) rotate(-45)"/><circle class="e" cx="21.201" cy="21.201" r="21.201" transform="translate(28.897 27.607)"/></g><g transform="translate(551.829 237.428)"><rect class="q" width="0.107" height="0.384"/></g><g transform="translate(466.492 237.428)"><rect class="r" width="0.161" height="0.384"/></g><path class="j" d="M994.63,1214.5l-85.138,53.323H838.244l85.138-53.323Z" transform="translate(-838.244 -1000.772)"/><path class="s" d="M1104.71,1214.5v4.652l-85.192,53.264v-4.592h.054Z" transform="translate(-948.324 -1000.772)"/><rect class="h" width="71.194" height="4.592" transform="translate(0 267.051)"/><g transform="translate(98.197 120.031)"><rect class="t" width="47.225" height="31.457" transform="translate(10.859 27.408) rotate(-0.213)"/><rect class="u" width="8.745" height="8.453" transform="translate(30.099 27.337) rotate(-0.213)"/><rect class="v" width="8.745" height="5.992" transform="translate(30.194 52.802) rotate(-0.213)"/><rect class="w" width="8.147" height="3.495" transform="translate(13.028 53.65) rotate(-0.214)"/><rect class="t" width="47.225" height="37.818" transform="translate(47.225 93.686) rotate(-179.787)"/><rect class="x" width="30.614" height="8.745" transform="translate(19.266 86.378) rotate(-89.787)"/><rect class="x" width="8.745" height="7.203" transform="translate(27.985 93.614) rotate(-179.787)"/><rect class="y" width="8.147" height="4.202" transform="matrix(-1, -0.004, 0.004, -1, 45.161, 91.62)"/><path class="t" d="M1149.141,1151.08v.4l19.24.069,8.747.035h0l6.3-.009.014-40.568-6.163-.022-27.982-.1Z" transform="translate(-1125.235 -1057.883)"/><rect class="x" width="8.745" height="10.909" transform="translate(52.001 64.015) rotate(-179.787)"/><path class="x" d="M1198.129,1202.008v.474l8.747.035v-.508l.026-7.227-8.743-.03Z" transform="translate(-1154.984 -1108.811)"/><g transform="translate(34.486)"><path class="t" d="M1176.079,976.023l.052,13.446.065,18.01,19.24-.074,4.36-.013V975.931l-4.478.017Z" transform="translate(-1176.079 -975.931)"/><path class="x" d="M1225.067,975.949l.035,8.451,4.443-.017v-8.452Z" transform="translate(-1205.827 -975.931)"/><path class="z" d="M1225.31,1040.794l.022,5.989,4.36-.013v-5.994Z" transform="translate(-1205.975 -1015.309)"/><rect class="aa" width="8.147" height="3.495" transform="translate(2.171 26.332) rotate(-0.213)"/></g><g transform="translate(21.582 2.472)"><path class="t" d="M1143.225,1030.576l.117,31.457,19.24-.07,8.742-.035,8.521-.03v-31.461l-8.638.035-8.742.03-14.536.057Z" transform="translate(-1143.225 -1011.502)"/><rect class="x" width="8.745" height="8.453" transform="translate(19.238 19.002) rotate(-0.214)"/><rect class="x" width="8.745" height="5.992" transform="translate(19.333 44.467) rotate(-0.213)"/><rect class="ab" width="8.147" height="3.495" transform="translate(2.167 45.316) rotate(-0.213)"/><rect class="ac" width="8.147" height="3.495" transform="translate(15.956 0.03) rotate(-0.213)"/></g></g></g><g transform="translate(65.113 344.791)"><rect class="t" width="44.87" height="29.888" transform="matrix(1, -0.004, 0.004, 1, 0, 0.187)"/><rect class="x" width="8.309" height="8.031" transform="matrix(1, -0.004, 0.004, 1, 18.371, 21.968)"/><rect class="x" width="8.309" height="21.857" transform="translate(18.28 0.111) rotate(-0.239)"/><rect class="ad" width="7.741" height="3.321" transform="translate(1.975 1.806) rotate(-0.239)"/></g><g transform="translate(186.964)"><path class="ae" d="M1328.382,340.207H1523.5a14.1,14.1,0,0,1,14.094,14.094V727.267a14.1,14.1,0,0,1-14.094,14.094H1328.382a14.093,14.093,0,0,1-14.092-14.094V354.3A14.093,14.093,0,0,1,1328.382,340.207Z" transform="translate(-1314.29 -340.207)"/><path class="af" d="M1617.6,495.224l42.554,118.693,52.026-26.513.055.107V507.4l-33.5-41.817Z" transform="translate(-1498.48 -416.341)"/><path class="af" d="M1791.209,437.047l26.453,33.022V424.22Z" transform="translate(-1603.902 -391.225)"/><path class="ag" d="M1773.263,460.3l33.5,41.817V489.9l-26.453-33.022Z" transform="translate(-1593.005 -411.058)"/><path class="ah" d="M1742.492,853.475l45.587,127.149V830.248Z" transform="translate(-1574.318 -637.788)"/><path class="af" d="M1690.045,1225.549l27.5,34.322h38.688v-46.736Z" transform="translate(-1542.47 -870.299)"/><path class="af" d="M1663.448,374.769l15.852,18.675,57.175-25.279h-65.808Z" transform="translate(-1526.319 -357.185)"/><path class="ai" d="M1565.2,394.9l12.023,33.535,35.157-15.545-14.543-17.99Z" transform="translate(-1466.657 -373.417)"/><path class="aj" d="M1662.845,406.865l7.258-3.209-15.852-18.675-.007,0-4.252,3.889H1648.3Z" transform="translate(-1517.122 -367.396)"/><path class="af" d="M1443.977,1281.534h114.355l-26.22-32.726L1449,1264.4l-.554,1.859Z" transform="translate(-1393.043 -891.961)"/><path class="af" d="M1338.676,1164.484v59.79h32.607l5.135-15.516-16.814,3.154-1.365-57.4Z" transform="translate(-1329.099 -834.702)"/><path class="af" d="M1338.676,430.666V703.5l19.059-9.713-6.053-254.765-4.712-3.028Z" transform="translate(-1329.099 -395.139)"/><path class="ak" d="M1338.676,368.165v15.915l14.158,8.618,74.807-14.034h-11.023l-9.8-10.5Z" transform="translate(-1329.099 -357.185)"/><path class="al" d="M1351.682,417.3l6.053,254.765-19.059,9.713V703.2l19.563-9.969,1.365,57.4,16.814-3.154-5.135,15.516h8.749l4.474-15.277.554-1.859,83.108-15.59,26.22,32.726h9.782l-27.5-34.322,66.185-12.414L1497.272,589.1l45.586-23.227v-21.29l-.054-.107-52.026,26.513L1448.223,452.3l-8.558-23.869L1427.642,394.9l-74.807,14.034-14.158-8.618v8.632l8.294,5.326Z" transform="translate(-1329.099 -373.417)"/><path class="am" d="M1595.814,412.2l8.558,23.869,61.134-29.643,7.048-3.417,26.453-12.827V368.165h-3.6l-57.175,25.279-7.258,3.209Z" transform="translate(-1485.247 -357.185)"/><circle class="an" cx="5.267" cy="5.267" r="5.267" transform="translate(107.297 6.551)"/><path class="ao" d="M1559.253,370.059a2.143,2.143,0,1,0,2.143-2.144A2.143,2.143,0,0,0,1559.253,370.059Z" transform="translate(-1463.046 -357.033)"/><circle class="ap" cx="1.516" cy="1.516" r="1.516" transform="translate(92.199 11.51)"/><g transform="translate(22.39 21.479)"><path class="am" d="M1371.3,409.183l.193,8.114,6.053,254.765.5,21.168,1.365,57.4,16.814-3.154,8.642-1.62,83.108-15.59,8.506-1.6,66.184-12.414L1517.083,589.1l-6.495-18.112L1468.035,452.3l-8.558-23.869L1447.453,394.9l-74.808,14.034Zm76.1,250.484,77.05,7.49,12.613,35.184-85.757,16.086Zm-5.022-75.571,44.594-21.476,34.735,96.89-74.8-7.27Zm-46.844,22.562L1427.2,591.4l8.632,129.924-37.407,7.017Zm-3.555-149.7L1444.444,444l36.222,101.029-85.616,41.234Zm-.78-32.8,43.226-8.108,7.518,20.975L1391.8,449.415Z" transform="translate(-1371.3 -394.896)"/><path class="ah" d="M1565.066,1069.058l3.906,58.759,85.757-16.087-12.612-35.184Z" transform="translate(-1488.966 -804.286)"/><path class="aq" d="M1552.281,843.433l4.526,68.144,74.8,7.269-34.736-96.889Z" transform="translate(-1481.202 -654.232)"/><path class="ah" d="M1433.007,910.5l2.893,121.688,37.409-7.016-8.634-129.925Z" transform="translate(-1408.772 -698.737)"/><path class="af" d="M1423.953,532.892l3.071,129.3,85.615-41.234-36.221-101.029Z" transform="translate(-1403.274 -470.826)"/><path class="af" d="M1421.969,456.884l.6,25.251,50.143-12.385-7.518-20.975Z" transform="translate(-1402.069 -427.615)"/></g><path class="am" d="M1338.676,1108.773V1130.2l19.563-9.969,10.143-5.168-8.668-17.007-1.978,1.007Z" transform="translate(-1329.099 -800.414)"/><path class="am" d="M1699.48,807.578l8.668,17,8.224-4.192,45.586-23.228v-21.29l-.055-.107-52.026,26.513Z" transform="translate(-1548.2 -604.703)"/><g transform="translate(137.533 353.661)"><path class="am" d="M1664.475,1241.965l1.536,1.918,26.219,32.726h9.783l-27.5-34.322-1.274-1.589Z" transform="translate(-1664.475 -1240.698)"/></g><g transform="translate(42.184 365.854)"><path class="am" d="M1421.7,1295.461h8.749l4.474-15.277.554-1.859.028-.093-6.031-6.49-.7,2.355-1.935,5.848Z" transform="translate(-1421.699 -1271.742)"/></g><g transform="translate(177.822 44.93)"><path class="am" d="M1767.06,455.875l2.436,3.042,33.5,41.817V488.523L1776.544,455.5l-.716-.892Z" transform="translate(-1767.06 -454.608)"/></g><g transform="translate(131.181 17.585)"><path class="am" d="M1648.3,388.875l14.542,17.99,5.38,6.657,1.878-9.866-15.852-18.675-.007,0Z" transform="translate(-1648.303 -384.981)"/></g><g transform="translate(2.828 22.784)"><path class="am" d="M1338.676,408.686v8.632l8.294,5.326,4.712,3.028,2.489,1.6-1.322-9.957-.014-.01Z" transform="translate(-1331.926 -404.575)"/><path class="am" d="M1321.49,398.219l6.75,4.111v0Z" transform="translate(-1321.49 -398.219)"/></g><path class="ar" d="M1542.858,368.165h-69.41l-13.168,10.5h-43.661l-9.8-10.5h-68.143V746.757h204.182Z" transform="translate(-1329.099 -357.185)"/><g transform="translate(9.565 11.346)"><g transform="translate(44.611 12.564)"><g transform="translate(0 21.981)"><path class="as" d="M1453.955,460.956c.008-.005.735-.515,2.085-1.364l-1.6-2.536c-1.421.9-2.179,1.426-2.21,1.448Z" transform="translate(-1452.233 -457.056)"/></g><g transform="translate(6.533)"><path class="at" d="M1468.868,420.485c1.421-.809,2.906-1.62,4.414-2.409l1.389,2.655c-1.477.772-2.93,1.565-4.32,2.357Zm123.669-2.977,1.418-2.64c1.467.788,2.942,1.62,4.384,2.471l-1.525,2.58C1595.408,419.088,1593.968,418.277,1592.537,417.508Zm-114.765-1.688c1.5-.722,3.034-1.432,4.559-2.106l1.213,2.74c-1.5.662-3,1.357-4.471,2.066Zm105.932-2.588,1.19-2.751c1.527.661,3.067,1.366,4.577,2.1l-1.306,2.7C1586.693,414.563,1585.192,413.876,1583.7,413.233Zm-96.75-1.477c1.547-.626,3.122-1.236,4.683-1.811l1.035,2.812c-1.531.564-3.077,1.161-4.594,1.776Zm87.587-2.02.944-2.844c1.586.527,3.183,1.1,4.745,1.693l-1.069,2.8C1577.64,410.8,1576.085,410.248,1574.541,409.735Zm-78.163-1.449c1.584-.525,3.2-1.031,4.792-1.5l.849,2.874c-1.564.462-3.145.958-4.7,1.473Zm9.634-2.844c1.627-.421,3.271-.816,4.886-1.174l.649,2.926c-1.581.351-3.191.737-4.785,1.15Zm59.094,1.619.688-2.916c1.626.383,3.266.808,4.876,1.265l-.817,2.883C1568.285,407.85,1566.688,407.435,1565.106,407.062Zm-49.282-3.794c1.651-.3,3.32-.58,4.96-.82l.434,2.965c-1.6.235-3.235.5-4.851.8Zm39.646,1.97.427-2.966c1.656.238,3.328.517,4.969.827l-.557,2.944C1558.711,405.74,1557.083,405.47,1555.47,405.238Zm-29.7-3.424c1.663-.179,3.349-.327,5.011-.44l.2,2.99c-1.623.11-3.27.255-4.894.43Zm19.935,2.451.167-2.992c1.674.094,3.364.225,5.021.39l-.3,2.982C1548.985,404.485,1547.339,404.357,1545.708,404.266Zm-9.9-3.132c1.667-.047,3.35-.058,5.033-.035l-.041,3c-1.642-.023-3.284-.011-4.909.034Z" transform="translate(-1468.868 -401.087)"/></g><g transform="translate(138.659 18.896)"><path class="au" d="M1807.4,453.115l1.675-2.485q-1.085-.731-2.169-1.431l-1.624,2.518Q1806.344,452.4,1807.4,453.115Z" transform="translate(-1805.285 -449.199)"/></g></g><g transform="translate(45.447 37.253)"><path class="av" d="M1456.9,466.994l.113-2.994c-1.683-.064-2.61-.049-2.649-.048l.051,3C1454.419,466.948,1455.3,466.935,1456.9,466.994Z" transform="translate(-1454.36 -463.95)"/><g transform="translate(7.651 0.386)"><path class="aw" d="M1596.089,587.4l2.956-.493c.284,1.7.553,3.441.8,5.174l-2.966.423C1596.636,590.793,1596.37,589.076,1596.089,587.4Zm-1.956-10.132,2.927-.644c.371,1.686.727,3.412,1.058,5.129l-2.943.567C1594.85,580.627,1594.5,578.928,1594.134,577.267Zm-2.491-10,2.886-.806c.464,1.663.914,3.367,1.337,5.065l-2.908.724C1592.542,570.575,1592.1,568.9,1591.642,567.262Zm-3.067-9.834,2.832-.98c.565,1.633,1.115,3.309,1.636,4.981l-2.86.891C1589.672,560.678,1589.131,559.032,1588.576,557.428Zm-3.678-9.614,2.761-1.163c.67,1.591,1.328,3.229,1.954,4.869l-2.8,1.07C1586.2,550.982,1585.555,549.375,1584.9,547.814Zm-4.321-9.333,2.672-1.355c.784,1.547,1.555,3.137,2.289,4.725l-2.72,1.258C1582.1,541.553,1581.345,540,1580.577,538.481Zm-4.986-8.988,2.563-1.552c.9,1.485,1.785,3.014,2.634,4.545l-2.621,1.453C1577.337,532.44,1576.47,530.945,1575.591,529.492Zm-5.661-8.572,2.433-1.749c1.017,1.414,2.02,2.87,2.982,4.328l-2.5,1.65C1571.9,523.725,1570.924,522.3,1569.93,520.92Zm-6.33-8.086,2.281-1.943c1.129,1.326,2.248,2.7,3.326,4.074l-2.36,1.847C1565.8,515.467,1564.7,514.129,1563.6,512.834Zm-6.978-7.533,2.112-2.126c1.237,1.228,2.466,2.5,3.655,3.783l-2.2,2.037C1559.031,507.743,1557.831,506.5,1556.623,505.3Zm-7.584-6.922,1.925-2.3c1.337,1.121,2.669,2.286,3.96,3.464l-2.02,2.214C1551.644,500.611,1550.344,499.473,1549.039,498.379Zm-8.14-6.265,1.728-2.448c1.426,1.006,2.851,2.057,4.235,3.122l-1.828,2.375C1543.683,494.122,1542.292,493.1,1540.9,492.114Zm-8.632-5.579,1.524-2.58c1.509.891,3.015,1.821,4.476,2.766l-1.627,2.517C1535.213,488.315,1533.741,487.406,1532.267,486.535Zm-9.055-4.875,1.317-2.692c1.58.773,3.154,1.581,4.68,2.4l-1.421,2.639C1526.3,483.206,1524.757,482.416,1523.212,481.661Zm-9.411-4.166,1.11-2.783c1.623.647,3.254,1.332,4.849,2.038l-1.213,2.741C1516.987,478.8,1515.39,478.127,1513.8,477.494Zm-9.7-3.461.9-2.857c1.664.526,3.341,1.091,4.985,1.677l-1.006,2.822C1507.374,475.1,1505.731,474.55,1504.1,474.034Zm-9.93-2.758.7-2.914c1.7.408,3.411.851,5.092,1.318l-.8,2.887C1497.514,472.11,1495.835,471.675,1494.171,471.276Zm-10.1-2.051.491-2.956c1.712.284,3.454.606,5.176.956l-.6,2.937C1487.45,469.819,1485.743,469.5,1484.066,469.226Zm-10.226-1.307.261-2.985c1.714.15,3.478.341,5.244.567l-.381,2.973C1477.238,468.252,1475.514,468.066,1473.84,467.919Z" transform="translate(-1473.84 -464.934)"/></g><g transform="translate(131.364 132.755)"><path class="ax" d="M1789.127,804.861l2.979-.322q-.139-1.293-.292-2.569l-2.976.354Q1788.989,803.585,1789.127,804.861Z" transform="translate(-1788.839 -801.971)"/></g></g><g transform="translate(42.62 37.702)"><path class="ay" d="M1448.88,469.026l2.213-2.021c-1.139-1.248-1.766-1.887-1.792-1.913l-2.137,2.1C1447.169,467.2,1447.782,467.824,1448.88,469.026Z" transform="translate(-1447.163 -465.092)"/><g transform="translate(5.11 5.822)"><path class="az" d="M1533.906,756.8c.276-1.693.543-3.4.794-5.087l2.964.441c-.253,1.7-.522,3.422-.8,5.128Zm1.516-10.185c.227-1.69.446-3.408.65-5.107l2.975.357c-.206,1.713-.427,3.445-.655,5.149Zm1.227-10.222c.18-1.707.349-3.431.5-5.123l2.984.272c-.155,1.707-.326,3.445-.507,5.166Zm.933-10.252c.13-1.706.249-3.434.354-5.135l2.991.185c-.106,1.715-.226,3.458-.357,5.179Zm.633-10.275c.08-1.708.149-3.438.2-5.143l2.995.1c-.055,1.719-.124,3.464-.2,5.187Zm.33-10.288c.029-1.706.047-3.438.051-5.147l3,.007c0,1.724-.021,3.471-.051,5.192Zm-.08-15.443,3-.083c.047,1.724.083,3.471.1,5.194l-3,.038C1538.547,693.575,1538.512,691.843,1538.465,690.134Zm-.441-10.289,2.992-.173c.1,1.725.188,3.471.261,5.188l-2.994.128C1538.21,683.286,1538.123,681.556,1538.024,679.845Zm-.751-10.27,2.985-.264c.152,1.719.293,3.461.418,5.178l-2.988.219C1537.563,673.005,1537.423,671.279,1537.273,669.575Zm-1.064-10.243,2.975-.355c.2,1.717.4,3.454.576,5.163l-2.981.31C1536.6,662.756,1536.412,661.034,1536.209,659.332Zm-1.375-10.206,2.964-.445c.257,1.709.5,3.439.733,5.143l-2.97.4C1535.333,652.535,1535.089,650.82,1534.834,649.126Zm-1.684-10.16,2.948-.535c.308,1.7.607,3.419.889,5.118l-2.956.49C1533.751,642.355,1533.455,640.649,1533.149,638.966Zm-1.993-10.1,2.931-.625c.357,1.677.708,3.388,1.044,5.089l-2.94.58C1531.859,632.221,1531.51,630.524,1531.156,628.863Zm-2.3-10.039,2.911-.713c.411,1.678.814,3.378,1.2,5.055l-2.921.669C1529.665,622.173,1529.265,620.487,1528.857,618.824Zm-2.6-9.966,2.888-.8c.459,1.657.913,3.345,1.35,5.017l-2.9.757C1527.162,612.174,1526.712,610.5,1526.257,608.858Zm-2.9-9.883,2.863-.887c.512,1.653,1.016,3.326,1.5,4.974l-2.875.844C1524.364,602.272,1523.864,600.613,1523.356,598.975Zm-3.195-9.793,2.835-.972c.56,1.633,1.114,3.292,1.648,4.927l-2.849.93C1521.266,592.445,1520.717,590.8,1520.162,589.182Zm-3.485-9.693,2.8-1.056c.607,1.613,1.21,3.253,1.794,4.877l-2.82,1.013C1517.877,582.714,1517.278,581.088,1516.677,579.49Zm-3.77-9.588,2.772-1.138c.651,1.587,1.3,3.209,1.937,4.82l-2.788,1.1C1514.2,573.083,1513.553,571.475,1512.907,569.9Zm-4.051-9.472,2.737-1.219c.7,1.565,1.4,3.167,2.078,4.762l-2.755,1.179C1510.24,563.57,1509.547,561.981,1508.856,560.43Zm-4.328-9.35,2.7-1.3c.749,1.556,1.495,3.138,2.217,4.7l-2.719,1.258C1506.009,554.19,1505.27,552.623,1504.528,551.08Zm-4.6-9.219,2.661-1.377c.795,1.535,1.587,3.094,2.354,4.632l-2.681,1.338C1501.5,544.927,1500.715,543.382,1499.927,541.86Zm-4.869-9.081,2.62-1.455c.837,1.508,1.675,3.043,2.489,4.561l-2.641,1.416C1496.719,535.8,1495.888,534.275,1495.058,532.78Zm-5.135-8.934,2.576-1.532c.879,1.478,1.761,2.987,2.623,4.486l-2.6,1.493C1491.669,526.807,1490.794,525.311,1489.923,523.846Zm-5.4-8.775,2.528-1.609c.926,1.454,1.854,2.937,2.757,4.406l-2.552,1.57C1486.359,517.982,1485.44,516.512,1484.522,515.07Zm-5.666-8.607,2.477-1.686c.965,1.417,1.938,2.871,2.893,4.32l-2.5,1.648C1480.777,509.309,1479.813,507.868,1478.856,506.463Zm-5.936-8.422,2.421-1.767c1.007,1.38,2.027,2.8,3.032,4.227l-2.449,1.727C1474.927,500.817,1473.917,499.408,1472.92,498.042Zm-6.219-8.214,2.356-1.852c1.05,1.336,2.12,2.723,3.179,4.122l-2.389,1.809C1468.8,492.522,1467.74,491.149,1466.7,489.828Zm-6.528-7.961,2.273-1.952c1.091,1.27,2.218,2.615,3.35,4l-2.318,1.9C1462.361,484.447,1461.249,483.12,1460.173,481.867Z" transform="translate(-1460.173 -479.915)"/></g><g transform="translate(77.523 287.773)"><path class="ba" d="M1647.5,1200.88q.234-1.271.459-2.537l-2.951-.524q-.223,1.256-.455,2.517Z" transform="translate(-1644.551 -1197.819)"/></g></g><g transform="translate(26.571)"><g transform="translate(17.098 34.942)"><path class="bb" d="M1450.143,460.961l2.987-.236c0-.041-.082-1.014-.337-2.659l-2.961.459C1450.068,460.047,1450.142,460.952,1450.143,460.961Z" transform="translate(-1449.832 -458.066)"/></g><path class="at" d="M1421.227,395.194l2.862-.888c.491,1.581.931,3.2,1.31,4.824l-2.918.682C1422.118,398.261,1421.7,396.707,1421.227,395.194Zm-3.505-8.874,2.69-1.321c.721,1.468,1.4,3.012,2.021,4.587l-2.788,1.1C1419.054,389.183,1418.407,387.715,1417.722,386.319Zm-4.941-8.093,2.391-1.807a50.275,50.275,0,0,1,2.829,4.17l-2.56,1.558A47.287,47.287,0,0,0,1412.781,378.226ZM1406.3,371.4l1.911-2.308a42.116,42.116,0,0,1,3.7,3.464l-2.175,2.061A39.155,39.155,0,0,0,1406.3,371.4Z" transform="translate(-1406.298 -369.096)"/></g><g transform="translate(3.006 28.001)"><g transform="translate(38.326 7.049)"><path class="bc" d="M1445.937,462.226l1.748-2.434c-.034-.024-.844-.605-2.276-1.452l-1.526,2.579C1445.189,461.691,1445.93,462.221,1445.937,462.226Z" transform="translate(-1443.883 -458.34)"/></g><path class="at" d="M1375.784,445.892l1-2.824c1.6.569,3.213,1.23,4.786,1.964l-1.268,2.715C1378.818,447.053,1377.3,446.429,1375.784,445.892Zm-29.486-1.728a33.823,33.823,0,0,1,4.844-2.043l.945,2.843a30.875,30.875,0,0,0-4.414,1.862Zm20.044-.525.352-2.976a44.081,44.081,0,0,1,5.123.923l-.7,2.913A41.053,41.053,0,0,0,1366.342,443.639Zm-10.094-2.779a35.64,35.64,0,0,1,5.226-.469l.049,3a32.568,32.568,0,0,0-4.785.428Z" transform="translate(-1346.298 -440.391)"/></g><g transform="translate(0 37.837)"><g transform="translate(39.974)"><path class="bd" d="M1442.927,469.283c.893-1.355,1.4-2.012,1.4-2.019l-2.375-1.828c-.022.03-.566.738-1.529,2.2Z" transform="translate(-1440.425 -465.436)"/></g><g transform="translate(0 6.676)"><path class="be" d="M1338.644,595.744q.5-2.582,1-5.1l2.938.59q-.5,2.506-1,5.076Zm2.044-10.191q.538-2.577,1.085-5.083l2.928.638q-.543,2.494-1.08,5.058ZM1342.9,575.4q.583-2.572,1.173-5.065l2.916.69q-.587,2.481-1.167,5.038Zm2.393-10.118q.631-2.564,1.268-5.043l2.9.745q-.633,2.466-1.261,5.015Zm2.586-10.073q.684-2.555,1.371-5.016l2.887.805q-.683,2.447-1.363,4.986Zm2.8-10.018c.485-1.667.983-3.345,1.481-4.987l2.867.87c-.495,1.631-.99,3.3-1.472,4.954Zm3.022-9.956c.527-1.663,1.066-3.329,1.6-4.951l2.844.941c-.533,1.61-1.068,3.263-1.591,4.914Zm3.272-9.881c.571-1.65,1.156-3.3,1.738-4.908l2.817,1.021c-.577,1.594-1.157,3.231-1.723,4.867Zm3.548-9.789c.619-1.63,1.255-3.263,1.89-4.855l2.783,1.11c-.629,1.576-1.258,3.194-1.871,4.809Zm3.864-9.678c.677-1.613,1.371-3.224,2.065-4.788l2.739,1.214c-.685,1.546-1.372,3.138-2.041,4.733Zm4.229-9.534c.754-1.606,1.52-3.187,2.276-4.7l2.68,1.34c-.745,1.49-1.5,3.049-2.244,4.632Zm4.68-9.342c.857-1.6,1.718-3.134,2.558-4.572l2.587,1.512c-.823,1.406-1.665,2.913-2.505,4.476Z" transform="translate(-1338.644 -482.434)"/></g></g></g><circle class="at" cx="4.281" cy="4.281" r="4.281" transform="translate(182.901 185.373) rotate(-45)"/><path class="at" d="M1634.554,1196.572a5.4,5.4,0,1,0,5.4-5.4A5.4,5.4,0,0,0,1634.554,1196.572Z" transform="translate(-1508.773 -856.962)"/><circle class="at" cx="4.308" cy="4.308" r="4.308" transform="translate(190.66 40.624)"/><circle class="at" cx="5.926" cy="5.926" r="5.926" transform="translate(48.135 43.139)"/></g><g transform="translate(426.365 153.749)"><path class="bf" d="M1923.852,756.344c0,10.739,15.338,39.925,21.822,51.779,1.737,3.178,2.838,5.11,2.838,5.11s9.157-16.066,16.31-31.7v0c4.588-10.02,8.35-19.864,8.35-25.185,0-11.079-11.039-24.663-24.66-24.663A24.661,24.661,0,0,0,1923.852,756.344Zm9.474.927a15.186,15.186,0,1,1,15.186,15.186A15.188,15.188,0,0,1,1933.326,757.271Z" transform="translate(-1923.852 -731.681)"/><circle class="bg" cx="15.186" cy="15.186" r="15.186" transform="translate(9.474 10.404)"/></g><g transform="translate(72.602 374.658)"><rect class="t" width="44.87" height="29.888" transform="translate(0 0.167) rotate(-0.213)"/><rect class="x" width="8.309" height="8.031" transform="translate(18.28 0.099) rotate(-0.213)"/><rect class="x" width="8.309" height="5.693" transform="matrix(1, -0.004, 0.004, 1, 18.37, 24.294)"/><rect class="bh" width="7.741" height="3.321" transform="translate(2.061 25.1) rotate(-0.213)"/></g><g transform="translate(162.081 249.832)"><path class="bi" d="M1327.123,1060.7a126.553,126.553,0,0,1,1.35-21.666c.088-.511.18-1.018.277-1.516a48.8,48.8,0,0,0,.848-10.932,42.16,42.16,0,0,0-.479-5.06c-.742-.382-2.129,1.5-2.129,1.5l-1.857-8.453a17.909,17.909,0,0,0-4.724,2.171,27.316,27.316,0,0,0-7.6,7.48,40.163,40.163,0,0,0-3.479,6.06,105.243,105.243,0,0,0-8.448,30.419Z" transform="translate(-1281.261 -999.549)"/><path class="bj" d="M1359.589,990.848a4.448,4.448,0,0,0,1,2.644,3.717,3.717,0,0,0,3.121,1.441l.913,1.787a5.253,5.253,0,0,0,2.894,1.5,4.27,4.27,0,0,0,1.2,0c1.39-.187,1.867-4.369,2.02-7.944.029-.7.046-1.379.057-2,.006-.289.006-.562.012-.823a31.234,31.234,0,0,0-5.47,1.2,2.194,2.194,0,0,0-.823,1.072c-.222.914.289,2.644-.494,2.814-.6.13-1.294-1.714-2.252-2.672h-.006a1.65,1.65,0,0,0-1.021-.556C1359.958,989.259,1359.578,989.94,1359.589,990.848Z" transform="translate(-1316.915 -983.085)"/><path class="l" d="M1362.555,1370.087s3.865.255,4.3-.1,6.163.571,8.338.234a1.94,1.94,0,0,0,1.591-2.955c-.435-.8-5.966-.96-6.939-1.954a7.263,7.263,0,0,1-1.309-1.712l-5.974.454Z" transform="translate(-1318.716 -1211.505)"/><path class="l" d="M1250.933,1349.014s3.155,2.247,3.71,2.177,4.945,3.722,6.972,4.578a1.94,1.94,0,0,0,2.906-1.678c.051-.912-4.573-3.95-4.879-5.306a7.256,7.256,0,0,1-.214-2.145l-5.323-2.75Z" transform="translate(-1250.933 -1199.532)"/><path class="bk" d="M1365.137,1009.946s.941,2.094,1.929,4.216c.352.76.715,1.521,1.038,2.2.238-5.259,2.786-6.576,2.786-6.576a5.254,5.254,0,0,1-2.894-1.5l-.913-1.787a11.224,11.224,0,0,0-1.708,2.684A4.045,4.045,0,0,0,1365.137,1009.946Z" transform="translate(-1320.284 -994.648)"/><path class="bl" d="M1362.637,1014.2l1.857,8.453s.194-.263.48-.576c.47-.516,1.185-1.162,1.65-.922-.148-.922-.272-1.457-.286-1.521a.014.014,0,0,1,0-.009c-.286-.595-.6-1.267-.917-1.941-.871-1.871-1.7-3.724-1.7-3.724A7.834,7.834,0,0,0,1362.637,1014.2Z" transform="translate(-1318.766 -999.179)"/><g transform="translate(47.375 20.442)"><path class="bm" d="M1371.943,1028.389v-.009h-.384Z" transform="translate(-1371.559 -1028.38)"/></g><path class="h" d="M1300.875,1132.024c1.456,5.863,9.494,18.952,15.527,28.252,3.848,5.927,6.881,10.315,6.881,10.315l1.825,52.841,5.973-.456s2.738-50.546,3.66-54.232-7.618-36.719-7.618-36.719Z" transform="translate(-1281.261 -1070.876)"/><path class="h" d="M1259.016,1215.292l5.3,2.766,23.275-47.011,3.392-10.771c-6.033-9.3-14.071-22.39-15.527-28.252,0,0,3.378,34.876,1.765,37.641S1259.016,1215.292,1259.016,1215.292Z" transform="translate(-1255.842 -1070.876)"/><path class="bn" d="M1355.144,1083.3c.446.932.892,1.844,1.338,2.721l9.257-3.995c-.25-1-.531-2.075-.832-3.182Z" transform="translate(-1314.216 -1038.58)"/><path class="bo" d="M1358.555,1090.937c1.313,2.591,2.591,4.867,3.629,6.486.947,1.478,1.7,2.406,2.1,2.526,2.205.646,20.013,8.605,20.013,8.605l1.178-4.18-16.143-10.871s-.561-2.777-1.519-6.56l-5.127,2.21Z" transform="translate(-1316.287 -1043.5)"/><path class="bi" d="M1345.365,1054.123l9.763-4.456a97.429,97.429,0,0,0-3.288-10.139c-1.178-2.932-2.466-5.358-3.789-6.531a9.22,9.22,0,0,0-3.508-2.025,4.3,4.3,0,0,0-5.358,2.992c0,.01-.005.015-.005.025C1338.3,1037.413,1341.731,1046.514,1345.365,1054.123Z" transform="translate(-1304.437 -1009.407)"/><path class="bl" d="M1387.992,990.106c6.128.811,5.986-1.3,5.986-1.3s-.619-2.128-5.918-1.521c-.006.261-.006.533-.011.823C1388.038,988.727,1388.021,989.4,1387.992,990.106Z" transform="translate(-1334.163 -982.917)"/><path class="h" d="M1365.152,991.732c.959.959,1.651,2.8,2.252,2.673.783-.171.272-1.9.494-2.815a2.2,2.2,0,0,1,.823-1.072C1367.637,990.847,1366.451,991.244,1365.152,991.732Z" transform="translate(-1320.293 -984.945)"/><path class="bi" d="M1359.009,984.092c-.012-.908.369-1.589,1.157-1.532a1.652,1.652,0,0,1,1.021.556h.006c1.3-.488,2.485-.885,3.569-1.214a31.222,31.222,0,0,1,5.469-1.2c5.3-.607,5.918,1.521,5.918,1.521s.306-1.18-1.464-1.963a10.591,10.591,0,0,0-4.46-.448c-.187.017-.295.028-.295.028a7.1,7.1,0,0,0-1.543-1.992,5.711,5.711,0,0,0-2.428-1.345c-2.729-.709-6.1.9-6.95,2.86S1359.009,984.092,1359.009,984.092Z" transform="translate(-1316.335 -976.329)"/><path class="h" d="M1362.147,1002.826l1.413,4.125a11.238,11.238,0,0,1,1.708-2.684A3.717,3.717,0,0,1,1362.147,1002.826Z" transform="translate(-1318.469 -992.42)"/><rect class="bp" width="3.69" height="92.939" transform="translate(81.546 69.353) rotate(-27.454)"/><path class="bp" d="M0,0H4A0,0,0,0,1,4,0V48.765a2,2,0,0,1-2,2H2a2,2,0,0,1-2-2V0A0,0,0,0,1,0,0Z" transform="translate(124.271 150.577) rotate(-117.454)"/><g transform="translate(107.491 91.193)"><rect class="t" width="44.87" height="38.573" transform="matrix(-0.889, 0.458, -0.458, -0.889, 57.553, 34.289)"/><rect class="x" width="8.309" height="10.365" transform="translate(28.384 17.586) rotate(152.743)"/><rect class="x" width="8.309" height="7.347" transform="matrix(-0.889, 0.458, -0.458, -0.889, 41.303, 42.662)"/><rect class="bq" width="7.741" height="4.286" transform="matrix(-0.889, 0.458, -0.458, -0.889, 54.842, 33.325)"/></g><g transform="translate(92.254 60.294)"><rect class="t" width="47.453" height="33.39" transform="translate(57.507 29.622) rotate(152.516)"/><rect class="x" width="8.788" height="8.972" transform="translate(29.087 16.881) rotate(152.516)"/><rect class="x" width="8.788" height="6.36" transform="translate(40.356 38.544) rotate(152.517)"/><rect class="br" width="8.186" height="3.71" transform="translate(54.822 28.97) rotate(152.517)"/><rect class="bs" width="8.186" height="3.71" transform="translate(14.696 21.402) rotate(152.517)"/></g><circle class="bp" cx="7.612" cy="7.612" r="7.612" transform="translate(117.262 145.189)"/><circle class="bt" cx="4.386" cy="4.386" r="4.386" transform="translate(118.672 152.801) rotate(-45)"/><path class="bp" d="M1436.35,1135.577a37.013,37.013,0,0,0,2.686,3.594l.757.4,5.283,2.817,3.273-1.7-8.956-5.107Z" transform="translate(-1363.529 -1073.034)"/><path class="bu" d="M1429.254,1144.778v.311l.581-.035C1429.64,1144.963,1429.444,1144.868,1429.254,1144.778Z" transform="translate(-1359.22 -1078.621)"/><path class="bv" d="M1424.1,1135.507s.9.542,2.025,1.1c.191.09.386.185.582.276a9.123,9.123,0,0,0,3.082.967,3.218,3.218,0,0,0,2.566-.862l-.757-.4a37.016,37.016,0,0,1-2.687-3.594h2.225a8.793,8.793,0,0,0-1-.877c-.316-.19-4.857-.792-4.857-.792Z" transform="translate(-1356.089 -1070.453)"/></g><rect class="x" width="7.07" height="5.433" transform="translate(122.257 328.724) rotate(180)"/></g></svg>