<svg xmlns="http://www.w3.org/2000/svg" xmlns:xlink="http://www.w3.org/1999/xlink" width="58.986" height="80.703" viewBox="0 0 58.986 80.703"><defs><style>.a{fill:#e0af49;}.b{fill:#c7823e;}.c{fill:#e4bb56;}.d{fill:#f0f2f7;}.e{fill:#a1bfa5;}.f{fill:#fcfcfc;}.g{fill:#cadbcb;}.h{fill:#fff;}.i{fill:#eefdfa;}.j{fill:#f8d16f;}.k{fill:#fec22d;}.l{fill:#fde5a9;}.m{filter:url(#c);}.n{filter:url(#a);}</style><filter id="a" x="10.41" y="26.722" width="48.576" height="50.44" filterUnits="userSpaceOnUse"><feOffset dy="5" input="SourceAlpha"/><feGaussianBlur stdDeviation="5" result="b"/><feFlood flood-opacity="0.161"/><feComposite operator="in" in2="b"/><feComposite in="SourceGraphic"/></filter><filter id="c" x="0" y="27.663" width="48.479" height="53.04" filterUnits="userSpaceOnUse"><feOffset dy="5" input="SourceAlpha"/><feGaussianBlur stdDeviation="5" result="d"/><feFlood flood-opacity="0.161"/><feComposite operator="in" in2="d"/><feComposite in="SourceGraphic"/></filter></defs><g transform="translate(-904.027 298.655) rotate(-21)"><g transform="translate(949.962 87.287)"><g class="n" transform="matrix(0.93, 0.36, -0.36, 0.93, 1.05, -42.13)"><path class="a" d="M967.864,115.719l-2.224,14.333,11.458-3.7,2.021-13.016Z" transform="translate(-916.71 281.8) rotate(-21)"/></g><g class="m" transform="matrix(0.93, 0.36, -0.36, 0.93, 1.05, -42.13)"><path class="b" d="M962.066,113.774l-10.082-5.7-2.021,13.016,9.879,7.017Z" transform="translate(-910.6 281.54) rotate(-21)"/></g><path class="c" d="M953.17,106.633l11.35-2.455,9.987,5.768-11.255,2.387Z" transform="translate(-951.148 -104.178)"/><g transform="translate(3.416 1.793)"><path class="d" d="M955.384,123.146l2.129-13.463,10.968-2.66,2.16,1.27L959.847,111l-2.2,13.74Z" transform="translate(-955.384 -107.024)"/><path class="e" d="M957.513,111.244l2.334,1.314-2.2,13.74-2.266-1.592Z" transform="translate(-955.384 -108.585)"/></g><g transform="translate(7.286 0.74)"><path class="f" d="M971.56,124.687l2.053-13.475-9.645-5.861-2.444.555,9.467,5.85-2.073,13.759Z" transform="translate(-961.524 -105.352)"/><path class="g" d="M977.95,114.652l-2.623.545L973.25,128.99l2.646-.855Z" transform="translate(-965.86 -108.792)"/></g></g><g transform="translate(951.489 58.505)"><g transform="translate(0.05 9.835)"><path class="h" d="M962.025,97.027l-9.562-20.884.15-.069,8.87,19.373-7.294-21.282.156-.053,7.833,22.854Z" transform="translate(-952.463 -74.112)"/></g><g transform="translate(13.17 19.103)"><path class="h" d="M973.37,102.763l-.086-.14,19.827-13.8.094.135-18.68,13,18.131-9.678.078.145Z" transform="translate(-973.284 -88.819)"/></g><path class="i" d="M985.707,80.391a1.109,1.109,0,0,1-.57.672c-.053.026-.109.052-.172.08a13.959,13.959,0,0,1-5.765.982,33.016,33.016,0,0,1-8.1-1.18c-1.062-.277-2.191-.611-3.387-1.01l-.563-.17v0q-1.142-.371-2.172-.757a36.623,36.623,0,0,1-7.314-3.593h0a17.684,17.684,0,0,1-4.308-3.795l0,0a8.392,8.392,0,0,1-.84-1.279,1.105,1.105,0,0,1-.061-.88c4.436-12.742,15.064-11.4,19.392-10.25,0-.015.006-.026.006-.026l.488.164c.691.2,1.157.379,1.321.444l.35.118.2.067.028.009.08.014a.217.217,0,0,1,.035,0l.06.009.012,0,.017,0h0a19.554,19.554,0,0,1,1.958.7C980.661,62.446,989.642,67.715,985.707,80.391Z" transform="translate(-952.384 -58.505)"/><path class="j" d="M978.488,81.831c-1.063-.277-2.191-.611-3.387-1.01l-.563-.17v0q-1.142-.371-2.172-.757c2.407-14.685,9.04-18.745,9.444-18.981l.02-.011a.137.137,0,0,1,.009.019C982.023,61.323,985.072,68.481,978.488,81.831Z" transform="translate(-959.775 -59.391)"/><path class="k" d="M975.009,60.75c-.072,0-.144,0-.216,0-12.608.291-16.171,13.722-16.566,15.394a17.686,17.686,0,0,1-4.308-3.795c5.5-13.109,18.11-12.036,20.641-11.676.084.01.156.022.216.032s.107.016.144.024l.06.009.012,0Z" transform="translate(-952.952 -59.241)"/><path class="l" d="M992.146,83.011c.869-2.206,5.186-14.641-4.586-21.982-.056-.044-.113-.086-.171-.129.019.008.164.075.4.2,2.237,1.163,12.845,7.466,10.117,20.927A13.958,13.958,0,0,1,992.146,83.011Z" transform="translate(-965.33 -59.391)"/></g></g></svg>