<svg xmlns="http://www.w3.org/2000/svg" xmlns:xlink="http://www.w3.org/1999/xlink" width="13.103" height="20.516" viewBox="0 0 13.103 20.516"><defs><style>.a{fill:#e4d3fe;stroke:#7a24fb;stroke-linecap:round;stroke-linejoin:round;stroke-width:0.2px;}.b{filter:url(#e);}.c{filter:url(#c);}.d{filter:url(#a);}</style><filter id="a" x="0" y="0" width="8.701" height="20.516" filterUnits="userSpaceOnUse"><feOffset dx="-1" input="SourceAlpha"/><feGaussianBlur stdDeviation="0.5" result="b"/><feFlood flood-color="#7a24fb"/><feComposite operator="in" in2="b"/><feComposite in="SourceGraphic"/></filter><filter id="c" x="2.201" y="0" width="8.701" height="20.516" filterUnits="userSpaceOnUse"><feOffset dx="-1" input="SourceAlpha"/><feGaussianBlur stdDeviation="0.5" result="d"/><feFlood flood-color="#7a24fb"/><feComposite operator="in" in2="d"/><feComposite in="SourceGraphic"/></filter><filter id="e" x="4.401" y="0" width="8.701" height="20.516" filterUnits="userSpaceOnUse"><feOffset dx="-1" input="SourceAlpha"/><feGaussianBlur stdDeviation="0.5" result="f"/><feFlood flood-color="#7a24fb"/><feComposite operator="in" in2="f"/><feComposite in="SourceGraphic"/></filter></defs><g transform="translate(-873.651 -563.079)"><g class="d" transform="matrix(1, 0, 0, 1, 873.65, 563.08)"><path class="a" d="M265.99,239.833a.174.174,0,0,1,0,.11l-5.038,8.6h.449l5.043-8.6a.175.175,0,0,0,0-.11l-5.043-8.6h-.449Z" transform="translate(-258.35 -229.63)"/></g><g class="c" transform="matrix(1, 0, 0, 1, 873.65, 563.08)"><path class="a" d="M265.99,239.833a.174.174,0,0,1,0,.11l-5.038,8.6h.449l5.043-8.6a.175.175,0,0,0,0-.11l-5.043-8.6h-.449Z" transform="translate(-256.15 -229.63)"/></g><g class="b" transform="matrix(1, 0, 0, 1, 873.65, 563.08)"><path class="a" d="M265.99,239.833a.174.174,0,0,1,0,.11l-5.038,8.6h.449l5.043-8.6a.175.175,0,0,0,0-.11l-5.043-8.6h-.449Z" transform="translate(-253.95 -229.63)"/></g></g></svg>