<svg xmlns="http://www.w3.org/2000/svg" width="60" height="60" viewBox="0 0 60 60"><defs><style>.a{fill:#7a1dff;}.b{fill:#fff;}</style></defs><g transform="translate(-1804.878 -1034.299)"><rect class="a" width="60" height="60" rx="10" transform="translate(1804.878 1034.299)"/><g transform="translate(1819.615 1048.891)"><path class="b" d="M28.092,20.048a17.341,17.341,0,0,1-5.446-.867,2.489,2.489,0,0,0-2.421.51l-3.434,2.592a18.979,18.979,0,0,1-8.533-8.531l2.516-3.345a2.469,2.469,0,0,0,.607-2.5,17.367,17.367,0,0,1-.871-5.455A2.454,2.454,0,0,0,8.06,0H2.451A2.454,2.454,0,0,0,0,2.451,28.123,28.123,0,0,0,28.092,30.542a2.454,2.454,0,0,0,2.451-2.451V22.5A2.454,2.454,0,0,0,28.092,20.048Z"/></g></g></svg>