<svg xmlns="http://www.w3.org/2000/svg" xmlns:xlink="http://www.w3.org/1999/xlink" width="278.216" height="90.252" viewBox="0 0 278.216 90.252"><defs><style>.a{fill:none;}.b{clip-path:url(#a);}.c{fill:#fff;}</style><clipPath id="a"><rect class="a" width="278.216" height="90.252"/></clipPath></defs><g class="b"><path d="M17.864,90.247c-.72,0-1.42-.009-2.133-.026a29.7,29.7,0,0,1-4.41-.385,13.85,13.85,0,0,1-3.91-1.293,12.738,12.738,0,0,1-3.3-2.4,12.633,12.633,0,0,1-2.409-3.3,13.582,13.582,0,0,1-1.281-3.91,29.58,29.58,0,0,1-.392-4.424C.02,74.019,0,72.363,0,72.363v-54.5s.021-1.63.033-2.109a29.123,29.123,0,0,1,.389-4.417A13.66,13.66,0,0,1,1.707,7.411,12.7,12.7,0,0,1,4.1,4.112,13.152,13.152,0,0,1,7.41,1.7a13.712,13.712,0,0,1,3.9-1.284A29.893,29.893,0,0,1,15.738.028L17.866,0H260.34l2.154.031a29.066,29.066,0,0,1,4.384.382,14.01,14.01,0,0,1,3.943,1.293,13.213,13.213,0,0,1,5.7,5.71,13.69,13.69,0,0,1,1.262,3.891,30.928,30.928,0,0,1,.411,4.452c.007.668.007,1.387.007,2.1.019.885.019,1.727.019,2.576v49.38c0,.856,0,1.694-.019,2.536,0,.767,0,1.47-.009,2.194a30.187,30.187,0,0,1-.4,4.372,13.545,13.545,0,0,1-1.274,3.94,12.913,12.913,0,0,1-2.4,3.27,12.759,12.759,0,0,1-3.3,2.411,13.8,13.8,0,0,1-3.935,1.3,29.7,29.7,0,0,1-4.41.385c-.691.017-1.416.026-2.119.026l-2.558,0Z" transform="translate(0.001)"/><path class="c" d="M44.012,28.027a11.675,11.675,0,0,1,5.559-9.8,11.95,11.95,0,0,0-9.416-5.092c-3.959-.415-7.8,2.371-9.822,2.371-2.057,0-5.165-2.329-8.513-2.26a12.541,12.541,0,0,0-10.554,6.436c-4.563,7.9-1.158,19.512,3.211,25.9,2.187,3.126,4.742,6.62,8.088,6.5,3.272-.137,4.495-2.088,8.444-2.088,3.914,0,5.061,2.088,8.473,2.008,3.511-.057,5.726-3.14,7.833-6.3a25.907,25.907,0,0,0,3.584-7.3,11.28,11.28,0,0,1-6.887-10.379" transform="translate(12.369 17.804)"/><path class="c" d="M25.577,16.082a11.494,11.494,0,0,0,2.628-8.237,11.7,11.7,0,0,0-7.569,3.917,10.955,10.955,0,0,0-2.7,7.93,9.67,9.67,0,0,0,7.637-3.61" transform="translate(24.357 10.665)"/><path class="c" d="M52.134,38.584H40.967L38.285,46.5H33.554l10.58-29.3h4.915L59.625,46.5H54.815ZM42.123,34.929h8.852L46.611,22.078h-.12Z" transform="translate(45.613 23.386)"/><path class="c" d="M65.879,31.38c0,6.637-3.553,10.9-8.914,10.9a7.242,7.242,0,0,1-6.722-3.737h-.1v10.58H45.758V20.7H50v3.553h.08a7.577,7.577,0,0,1,6.8-3.777c5.422,0,8.994,4.285,8.994,10.905m-4.506,0c0-4.325-2.234-7.168-5.646-7.168-3.35,0-5.6,2.9-5.6,7.168,0,4.3,2.253,7.187,5.6,7.187,3.412,0,5.646-2.822,5.646-7.187" transform="translate(62.204 27.829)"/><path class="c" d="M75.844,31.38c0,6.637-3.553,10.9-8.914,10.9a7.242,7.242,0,0,1-6.722-3.737h-.1v10.58H55.723V20.7h4.245v3.553h.08a7.577,7.577,0,0,1,6.8-3.777c5.422,0,8.994,4.285,8.994,10.905m-4.506,0c0-4.325-2.234-7.168-5.646-7.168-3.35,0-5.6,2.9-5.6,7.168,0,4.3,2.253,7.187,5.6,7.187,3.412,0,5.646-2.822,5.646-7.187" transform="translate(75.75 27.829)"/><path class="c" d="M73.423,38.62c.326,2.9,3.147,4.813,7.005,4.813,3.695,0,6.354-1.909,6.354-4.528,0-2.274-1.6-3.636-5.4-4.568l-3.8-.915c-5.382-1.3-7.878-3.815-7.878-7.9,0-5.054,4.4-8.527,10.66-8.527,6.191,0,10.436,3.473,10.58,8.527H86.52c-.267-2.923-2.683-4.688-6.215-4.688s-5.948,1.786-5.948,4.384c0,2.072,1.543,3.291,5.318,4.223l3.23.793c6.009,1.423,8.508,3.836,8.508,8.123,0,5.481-4.367,8.914-11.311,8.914-6.5,0-10.884-3.353-11.167-8.652Z" transform="translate(93.711 23.104)"/><path class="c" d="M86.8,18.425v5.056h4.063v3.471H86.8V38.728c0,1.831.814,2.683,2.6,2.683a14.048,14.048,0,0,0,1.442-.1v3.452a12.036,12.036,0,0,1-2.435.2c-4.325,0-6.012-1.623-6.012-5.766V26.952H79.289V23.481H82.4V18.425Z" transform="translate(107.786 25.047)"/><path class="c" d="M85.192,31.4c0-6.722,3.957-10.945,10.131-10.945,6.193,0,10.134,4.223,10.134,10.945,0,6.738-3.921,10.945-10.134,10.945S85.192,38.14,85.192,31.4m15.8,0c0-4.61-2.114-7.331-5.665-7.331s-5.665,2.742-5.665,7.331c0,4.629,2.112,7.328,5.665,7.328s5.665-2.7,5.665-7.328" transform="translate(115.81 27.808)"/><path class="c" d="M95.313,20.7h4.181v3.636h.1a5.1,5.1,0,0,1,5.139-3.86,7,7,0,0,1,1.5.165v4.1a6.12,6.12,0,0,0-1.97-.262,4.414,4.414,0,0,0-4.594,4.233,4.685,4.685,0,0,0,.024.68V42.06H95.313Z" transform="translate(129.569 27.828)"/><path class="c" d="M119.613,35.806c-.59,3.879-4.365,6.54-9.2,6.54-6.215,0-10.072-4.164-10.072-10.844,0-6.7,3.879-11.047,9.888-11.047,5.91,0,9.626,4.061,9.626,10.537v1.5H104.77v.264a5.566,5.566,0,0,0,5.051,6.033,5.7,5.7,0,0,0,.7.019,4.836,4.836,0,0,0,4.934-3.006Zm-14.822-6.375H115.47a5.133,5.133,0,0,0-4.841-5.415c-.132-.007-.267-.009-.4-.007a5.409,5.409,0,0,0-5.441,5.375Z" transform="translate(136.408 27.808)"/><path class="c" d="M39.885,7.865a6.227,6.227,0,0,1,6.656,5.766,6.3,6.3,0,0,1-.033,1.229c0,4.5-2.43,7.083-6.623,7.083H34.8V7.865Zm-2.9,12.087h2.654A4.426,4.426,0,0,0,44.321,15.8a4.492,4.492,0,0,0-.038-.908,4.434,4.434,0,0,0-4.643-5.035H36.985Z" transform="translate(47.305 10.67)"/><path class="c" d="M40.822,14.746a5.033,5.033,0,1,1,10.02,0,5.034,5.034,0,0,1-10.02.977,4.826,4.826,0,0,1,0-.977m7.864,0c0-2.3-1.033-3.65-2.85-3.65s-2.848,1.347-2.848,3.65c0,2.322,1.026,3.657,2.848,3.657s2.85-1.345,2.85-3.657" transform="translate(55.46 12.55)"/><path class="c" d="M57.5,19.944H55.328l-2.2-7.824h-.165l-2.187,7.824H48.625L45.7,9.32h2.126l1.9,8.107h.158L52.067,9.32H54.08l2.185,8.107h.165L58.324,9.32h2.1Z" transform="translate(62.12 12.67)"/><path class="c" d="M52.981,9.444H55v1.687h.158a3.175,3.175,0,0,1,3.171-1.892A3.453,3.453,0,0,1,62,13.191v6.878h-2.1V13.717c0-1.708-.743-2.555-2.293-2.555a2.434,2.434,0,0,0-2.548,2.319,2.187,2.187,0,0,0,.012.373v6.215h-2.1Z" transform="translate(72.023 12.545)"/><rect class="c" width="2.098" height="14.772" transform="translate(137.367 17.842)"/><path class="c" d="M60.359,14.746a5.033,5.033,0,1,1,10.02,0,5.034,5.034,0,1,1-10.02.974,4.8,4.8,0,0,1,0-.974m7.864,0c0-2.3-1.033-3.65-2.85-3.65s-2.848,1.347-2.848,3.65c0,2.322,1.026,3.657,2.848,3.657s2.85-1.345,2.85-3.657" transform="translate(82.019 12.55)"/><path class="c" d="M65.527,17.059c0-1.913,1.425-3.015,3.952-3.171l2.878-.168v-.915c0-1.123-.741-1.758-2.175-1.758-1.17,0-1.982.432-2.213,1.182H65.938c.215-1.826,1.932-3,4.341-3,2.664,0,4.167,1.326,4.167,3.572v7.258h-2.02V18.569h-.165a3.575,3.575,0,0,1-3.192,1.668,3.207,3.207,0,0,1-3.523-2.86,2.883,2.883,0,0,1-.019-.319m6.83-.908v-.887l-2.6.165c-1.463.1-2.126.595-2.126,1.531,0,.958.831,1.512,1.97,1.512a2.5,2.5,0,0,0,2.744-2.239Z" transform="translate(89.078 12.551)"/><path class="c" d="M70.475,17.016c0-3.357,1.725-5.483,4.41-5.483A3.5,3.5,0,0,1,78.143,13.4H78.3V7.562h2.1v14.77H78.388V20.654h-.168a3.69,3.69,0,0,1-3.336,1.854c-2.7,0-4.41-2.128-4.41-5.493m2.166,0c0,2.253,1.062,3.61,2.838,3.61s2.86-1.376,2.86-3.6-1.1-3.61-2.86-3.61-2.838,1.366-2.838,3.6" transform="translate(95.804 10.28)"/><path class="c" d="M78.371,14.746a5.033,5.033,0,1,1,10.02,0,5.034,5.034,0,0,1-10.02.977,4.826,4.826,0,0,1,0-.977m7.864,0c0-2.3-1.033-3.65-2.85-3.65s-2.848,1.347-2.848,3.65c0,2.322,1.026,3.657,2.848,3.657s2.85-1.345,2.85-3.657" transform="translate(106.505 12.55)"/><path class="c" d="M83.8,9.444h2.017v1.687h.158a3.177,3.177,0,0,1,3.171-1.892,3.453,3.453,0,0,1,3.676,3.952v6.878h-2.1V13.717c0-1.708-.743-2.555-2.293-2.555a2.437,2.437,0,0,0-2.548,2.319,2.464,2.464,0,0,0,.012.373v6.215H83.8Z" transform="translate(113.913 12.545)"/><path class="c" d="M94.822,8.2v2.694h2.3v1.765h-2.3v5.464c0,1.111.458,1.6,1.5,1.6a7.58,7.58,0,0,0,.8-.05v1.748a7.139,7.139,0,0,1-1.142.106c-2.331,0-3.261-.821-3.261-2.869v-6H91.038V10.893h1.685V8.2Z" transform="translate(123.757 11.146)"/><path class="c" d="M94.831,7.562H96.91v5.854h.165a3.266,3.266,0,0,1,3.239-1.9,3.5,3.5,0,0,1,3.685,3.3,3.237,3.237,0,0,1-.026.658v6.859h-2.1V15.992c0-1.7-.79-2.558-2.272-2.558a2.479,2.479,0,0,0-2.673,2.272,2.523,2.523,0,0,0,0,.422v6.205h-2.1Z" transform="translate(128.914 10.28)"/><path class="c" d="M109.395,17.194a4.315,4.315,0,0,1-4.6,3.074,4.819,4.819,0,0,1-4.908-5.483,4.9,4.9,0,0,1,4.207-5.509,4.835,4.835,0,0,1,.691-.042c2.956,0,4.74,2.02,4.74,5.356v.731h-7.5v.118a2.811,2.811,0,0,0,2.562,3.034c.09.007.179.009.267.009a2.551,2.551,0,0,0,2.529-1.288Zm-7.376-3.423h5.365a2.56,2.56,0,0,0-2.366-2.746c-.083-.007-.165-.007-.248-.007a2.717,2.717,0,0,0-2.751,2.683Z" transform="translate(135.719 12.551)"/></g></svg>