<svg xmlns="http://www.w3.org/2000/svg" width="124" height="124" viewBox="0 0 124 124"><g transform="translate(-932 -2062)"><g transform="translate(932 2062)"><circle cx="62" cy="62" r="62" fill="#f72163" opacity="0.3"/><circle cx="46" cy="46" r="46" transform="translate(16 16)" fill="#f72163"/><g transform="translate(45 41)"><path d="M1246.865,279.916a17.414,17.414,0,0,0-17.394,17.393c0,7.028,6.725,15.943,12.128,23.107.308.412.613.815.907,1.2h8.716c.3-.389.6-.793.91-1.2,5.4-7.165,12.125-16.08,12.125-23.107A17.414,17.414,0,0,0,1246.865,279.916Zm0,35.854c-4.033-5.352-10.392-13.9-10.392-18.461a10.391,10.391,0,0,1,20.783,0C1257.256,301.869,1250.9,310.418,1246.865,315.77Z" transform="translate(-1229.471 -279.916)" fill="#fff"/><circle cx="4.631" cy="4.631" r="4.631" transform="translate(12.763 12.764)" fill="#fff"/></g></g></g></svg>