<svg xmlns="http://www.w3.org/2000/svg" width="17.007" height="15.283" viewBox="0 0 17.007 15.283"><g transform="translate(0 0)"><path d="M1468.483,281.1a4.685,4.685,0,0,0-3.119-.11,2.713,2.713,0,0,1-4.576,0,4.685,4.685,0,0,0-3.119.11,5.037,5.037,0,0,0-3.1,4.578c0,2.956,2.668,6.535,5.89,9.287a4.164,4.164,0,0,0,2.614,1.095h0a4.164,4.164,0,0,0,2.613-1.095c3.222-2.751,5.89-6.33,5.89-9.287A5.037,5.037,0,0,0,1468.483,281.1Zm-5.408,12.6c-3.35-2.591-5.866-5.952-5.866-8.018a2.411,2.411,0,0,1,1.439-2.13,1.893,1.893,0,0,1,.707-.134,4.119,4.119,0,0,1,2.766,1.535l.954,1,.954-1c1.242-1.3,2.476-1.8,3.474-1.4a2.411,2.411,0,0,1,1.439,2.13C1468.943,287.746,1466.426,291.107,1463.075,293.7Z" transform="translate(-1454.572 -280.779)" fill="#f72163"/></g></svg>