<svg xmlns="http://www.w3.org/2000/svg" width="257.463" height="45.846" viewBox="0 0 257.463 45.846"><g transform="translate(0 0)"><g transform="translate(0 0)"><g transform="translate(41.925 2.698)"><path d="M236.847,271.876a3.4,3.4,0,1,1,3.412,3.386A3.39,3.39,0,0,1,236.847,271.876Zm.464,7.6h5.9V308.19h-5.9Z" transform="translate(-236.847 -268.491)" fill="#1a1818"/><path d="M275.92,269.058c7.644,0,12.967,5.269,12.967,12.94,0,7.7-5.432,12.995-13.158,12.995h-8.463v13.459h-6.115V269.058Zm-8.654,20.8h7.016c5.324,0,8.354-2.866,8.354-7.835s-3.03-7.807-8.327-7.807h-7.043Z" transform="translate(-248.046 -268.752)" fill="#1a1818"/><path d="M320.365,269.058h5.842v15.479h.136c1.583-3.358,4.722-5.3,9.091-5.3,6.306,0,10.074,4.2,10.074,10.7v18.509h-5.924V291.089c0-4.231-2.129-6.77-6.279-6.77-4.368,0-7.044,3-7.044,7.535v16.6h-5.9Z" transform="translate(-275.331 -268.752)" fill="#1a1818"/><path d="M374.634,302.77c0-9.227,5.433-14.878,13.623-14.878s13.623,5.651,13.623,14.878c0,9.255-5.406,14.906-13.623,14.906S374.634,312.025,374.634,302.77Zm21.239,0c0-6.361-3-10.019-7.616-10.019s-7.617,3.658-7.617,10.019c0,6.389,3,10.047,7.617,10.047C392.9,312.817,395.873,309.159,395.873,302.77Z" transform="translate(-300.337 -277.431)" fill="#1a1818"/><path d="M433.207,288.434h5.624v4.8h.136c1.556-3.276,4.614-5.3,9.037-5.3,6.333,0,9.964,4.041,9.964,10.62v18.591h-5.924V299.709c0-4.313-2.02-6.689-6.115-6.689-4.149,0-6.824,2.948-6.824,7.4v16.735h-5.9Z" transform="translate(-327.326 -277.454)" fill="#1a1818"/><path d="M512.778,308.694c-.819,5.241-5.787,8.982-12.366,8.982-8.436,0-13.541-5.705-13.541-14.77,0-9.009,5.187-15.014,13.3-15.014,7.971,0,12.94,5.624,12.94,14.332v2.02H492.823v.355c0,5,3,8.3,7.725,8.3,3.358,0,5.842-1.693,6.633-4.2Zm-19.929-8.572h14.36c-.136-4.395-2.921-7.48-7.043-7.48S493.15,295.781,492.849,300.122Z" transform="translate(-352.054 -277.431)" fill="#1a1818"/></g><path d="M197.483,270.336a9.607,9.607,0,0,0,2.21-6.848,9.527,9.527,0,0,0-6.314,3.268,8.99,8.99,0,0,0-2.264,6.581,7.946,7.946,0,0,0,6.368-3" transform="translate(-173.826 -263.488)" fill="#1a1818"/><path d="M184.935,282.62c-3.517-.21-6.507,2-8.186,2s-4.252-1.891-7.034-1.839a10.372,10.372,0,0,0-8.817,5.356c-3.779,6.513-1,16.174,2.678,21.479,1.784,2.624,3.935,5.514,6.769,5.41,2.678-.105,3.727-1.734,6.982-1.734s4.2,1.734,7.032,1.681c2.939-.052,4.777-2.625,6.561-5.253a23.315,23.315,0,0,0,2.938-6.039,9.536,9.536,0,0,1-5.719-8.666,9.72,9.72,0,0,1,4.618-8.14,10.054,10.054,0,0,0-7.821-4.252" transform="translate(-159.095 -272.297)" fill="#1a1818"/></g><g transform="translate(212.896 1.281)"><g transform="translate(8.088 13.405)"><path d="M572.306,303.268c.225,1.438,1.675,2.293,3.622,2.293,1.913,0,3.22-.926,3.22-2.185,0-1.129-.807-1.77-2.958-2.21l-1.806-.356c-3.421-.677-5.1-2.317-5.1-4.87,0-3.136,2.733-5.215,6.546-5.215,4,0,6.521,2.091,6.581,5.239h-3.386c-.118-1.461-1.39-2.34-3.195-2.34-1.77,0-2.958.831-2.958,2.091,0,1.057.831,1.71,2.85,2.115l1.818.368c3.623.725,5.2,2.185,5.2,4.787,0,3.35-2.625,5.464-6.913,5.464-4.087,0-6.808-1.948-6.914-5.18Z" transform="translate(-568.92 -290.724)" fill="#1a1818"/><path d="M610.519,308.417H599.162V291.275h11.357v2.958H602.75v4.134h7.328v2.756H602.75v4.324h7.769Z" transform="translate(-582.855 -290.978)" fill="#1a1818"/></g><g transform="translate(0 0)"><path d="M583.8,269.487l1.456,0c.388,0,.779.005,1.181.017a16.151,16.151,0,0,1,2.423.21,7.327,7.327,0,0,1,2.081.684,6.856,6.856,0,0,1,3.012,3.019,7.406,7.406,0,0,1,.68,2.066,16.723,16.723,0,0,1,.21,2.432c.011.393.015.789.016,1.169l0,16.646,0,1.462c0,.391-.005.788-.016,1.187a16.668,16.668,0,0,1-.209,2.414,7.317,7.317,0,0,1-.685,2.088,6.888,6.888,0,0,1-3.011,3.01,7.386,7.386,0,0,1-2.077.681,16.386,16.386,0,0,1-2.433.21c-.4.011-.79.015-1.169.018l-1.458,0-16.635,0c-.4,0-.789-.007-1.2-.018a16.311,16.311,0,0,1-2.419-.209,7.417,7.417,0,0,1-2.079-.68,6.9,6.9,0,0,1-3.016-3.015,7.328,7.328,0,0,1-.683-2.077,16.662,16.662,0,0,1-.21-2.431c-.011-.381-.015-.767-.018-1.174l0-16.643,0-1.448c0-.406.008-.8.018-1.2a16.532,16.532,0,0,1,.209-2.414,7.443,7.443,0,0,1,.678-2.078,6.963,6.963,0,0,1,1.273-1.753,6.885,6.885,0,0,1,1.744-1.267,7.413,7.413,0,0,1,2.087-.684,16.173,16.173,0,0,1,2.424-.209c.393-.011.783-.016,1.164-.017l16.656,0m0-3.624-16.657,0c-.42,0-.843.006-1.268.018a19.529,19.529,0,0,0-2.961.265,10.994,10.994,0,0,0-3.089,1.021,10.523,10.523,0,0,0-4.6,4.6,11.027,11.027,0,0,0-1.02,3.086,20.058,20.058,0,0,0-.265,2.96c-.011.421-.016.841-.019,1.273l0,1.463,0,16.667c0,.42.008.841.019,1.256a20.112,20.112,0,0,0,.265,2.966,10.986,10.986,0,0,0,1.022,3.088,10.527,10.527,0,0,0,4.6,4.6,11.009,11.009,0,0,0,3.085,1.019,19.764,19.764,0,0,0,2.965.265c.422.012.842.016,1.265.019l16.66,0,1.467,0c.422,0,.842-.007,1.266-.019a19.777,19.777,0,0,0,2.964-.265,10.965,10.965,0,0,0,3.084-1.019,10.518,10.518,0,0,0,4.6-4.6,10.976,10.976,0,0,0,1.023-3.09,20.063,20.063,0,0,0,.265-2.96c.011-.424.015-.849.017-1.266l0-1.47,0-16.656c0-.423-.006-.847-.017-1.267a20.131,20.131,0,0,0-.265-2.967,10.994,10.994,0,0,0-1.022-3.081,10.482,10.482,0,0,0-4.6-4.6,10.917,10.917,0,0,0-3.085-1.021,19.5,19.5,0,0,0-2.967-.266c-.424-.012-.847-.017-1.267-.018l-1.465,0Z" transform="translate(-553.92 -265.863)" fill="#1a1818"/></g></g></g></svg>