<?xml version="1.0" encoding="utf-8"?>
<!-- Generator: Adobe Illustrator 24.1.2, SVG Export Plug-In . SVG Version: 6.00 Build 0)  -->
<svg version="1.1" id="Layer_1" xmlns="http://www.w3.org/2000/svg" xmlns:xlink="http://www.w3.org/1999/xlink" x="0px" y="0px"
	 viewBox="0 0 200 52.2" style="enable-background:new 0 0 200 52.2;" xml:space="preserve">
<style type="text/css">
	.st0{fill:#FFFFFF;}
	.st1{fill:#00AAFF;}
	.st2{fill:#7A1DFF;}
	.st3{fill:none;stroke:#00AAFF;stroke-width:0.75;stroke-miterlimit:10;}
	.st4{fill:#F72163;}
	.st5{fill:#FD5601;}
	.st6{fill:#FFC208;}
	.st7{fill:#9DE411;}
</style>
<g>
	<g>
		<path class="st0" d="M65.6,18.5c-5.4,0-9.5,4.2-9.5,9.5c0,5.5,4.2,9.7,9.7,9.7c4.2,0,7.8-2.7,8.8-5.9L69.7,31c-1,1.3-2.2,2-3.9,2
			c-2.4,0-4.1-1.3-4.2-3.2H75v-1.4C75,22.8,71.1,18.5,65.6,18.5z M61.7,25.9c0.1-1.4,1.8-2.6,3.9-2.6s3.7,1.2,3.8,2.6H61.7z"/>
		<polygon class="st0" points="85.2,24 81.4,19 75,19 75,19.3 81.8,28.1 75.6,36.9 75.6,37.2 81.9,37.2 85.2,32.5 88.4,37.2 
			94.8,37.2 94.8,36.8 88.7,28.1 95.4,19.3 95.4,19 88.9,19 		"/>
		<path class="st0" d="M103.8,14h-1.1l-7.3,9.5V24h2.8v2.6c0,7.1,5.4,10.8,11.6,10.8v-5.5c-3.2,0-6-1.6-6-5.3V24h6v-4.1v-0.8h-5.9
			L103.8,14L103.8,14z"/>
		<path class="st0" d="M119.2,22.6L119.2,22.6v-3.5h-5.5v18.1h5.5v-5c0-5.4,4.1-8.4,8.4-8.4l-1.7-5.1
			C123.8,18.6,120.4,20,119.2,22.6z"/>
		<path class="st0" d="M142.4,19v1.7c-1.3-1.3-3.2-2.2-5.6-2.2c-4.6,0-8.6,4.2-8.6,9.5c0,5.4,4,9.6,8.6,9.6c2.4,0,4.2-1,5.6-2.3v1.8
			h5.2V19H142.4z M138.2,32.6c-2.5,0-4.6-2-4.6-4.6c0-2.5,2-4.6,4.6-4.6c2.5,0,4.2,2,4.2,4.6S140.7,32.6,138.2,32.6z"/>
		<rect x="150.3" y="31.4" class="st0" width="5.8" height="5.8"/>
		<path class="st0" d="M172,19v1.7c-1.3-1.3-3.2-2.2-5.6-2.2c-4.6,0-8.6,4.2-8.6,9.5c0,5.4,4,9.6,8.6,9.6c2.2,0,3.9-0.8,5.2-2V37
			c0,1.9-1.8,3.6-4.3,3.6c-1.6,0-2.8-0.7-3.8-2l-5,0.9c1,3.2,4.7,5.9,8.9,5.9c5.5,0,9.8-4.2,9.8-9.7v-3.8v-0.8V19H172z M167.8,32.6
			c-2.5,0-4.6-2-4.6-4.6c0-2.5,2-4.6,4.6-4.6c2.5,0,4.2,2,4.2,4.6S170.3,32.6,167.8,32.6z"/>
		<path class="st0" d="M192.7,25.9c-0.1-1.4-1.7-2.7-3.9-2.7c-2,0-3.8,1.3-3.9,2.7H192.7z M184.9,29.7c0.1,1.9,1.8,3.2,4.2,3.2
			c1.6,0,2.9-0.7,3.9-2l5,0.8c-1,3.2-4.7,5.9-8.9,5.9c-5.5,0-9.8-4.2-9.8-9.7c0-5.2,4-9.5,9.5-9.5s9.5,4.3,9.5,9.9v1.4
			C198.3,29.7,184.9,29.7,184.9,29.7z"/>
	</g>
	<g>
		<polygon class="st1" points="40.6,25 34.5,29.5 41.2,50 47.3,45.5 		"/>
		<polygon class="st2" points="27.5,43.5 16.2,51.7 10,47.2 27.5,34.6 45,47.2 38.8,51.7 		"/>
		<path class="st3" d="M3.1,16.8"/>
		<polygon class="st4" points="3.1,16.8 20.5,29.5 13.8,50 7.7,45.5 12,32.3 0.7,24.1 		"/>
		<path class="st3" d="M51.9,16.8"/>
		<polygon class="st5" points="17.9,14 22.2,0.8 29.8,0.8 23.2,21.3 1.6,21.3 4,14 		"/>
		<polygon class="st6" points="37.1,14 32.8,0.8 25.2,0.8 31.8,21.3 53.4,21.3 51,14 		"/>
		<path class="st7" d="M53.4,21.3L51,14L27.5,31.1l-9.9-7.2l-2.4,7.2c6.1,4.4,12.2,8.9,12.2,8.9L53.4,21.3z"/>
	</g>
</g>
</svg>
