<svg xmlns="http://www.w3.org/2000/svg" width="53.003" height="51.272" viewBox="0 0 53.003 51.272"><g transform="translate(-752.536 -1883.082)"><path d="M1285.735,631.884l-6.2,4.5,1.885,5.8,7.8,5.668,1.376-1Z" transform="translate(-491.175 1281.268)" fill="#fff"/><path d="M1234.355,657.345l-11.36,8.254-1.376-1,2.98-9.171,4.936-3.586,4.821,3.5,4.821-3.5,12.737,9.254-6.2,4.5Z" transform="translate(-454.863 1268.755)" fill="#fff"/><path d="M1184.031,609.76h9.642l4.937,3.587-1.841,5.667,4.821,3.5-4.865,14.973-6.2-4.5,4.339-13.355-11.36-8.254Z" transform="translate(-430.969 1295.138)" fill="#fff"/><path d="M1202.348,564.637l4.339-13.355h1.7l2.98,9.172-3.727,11.468h-21.7l2.368-7.286Z" transform="translate(-432.494 1331.8)" fill="#fff"/><path d="M1261.427,564.637l-4.34-13.355h-7.661l6.707,20.641h7.308l10.028-7.286Z" transform="translate(-472.297 1331.8)" fill="#fff"/><path d="M1261.119,594.366l-2.368-7.286-23.68,17.2-9.943-7.224-2.367,7.286,12.31,8.944Z" transform="translate(-455.58 1309.357)" fill="#fff"/></g></svg>