<svg xmlns="http://www.w3.org/2000/svg" width="442.274" height="422.923" viewBox="0 0 442.274 422.923"><defs><style>.a{fill:#81a97e;}.a,.b,.c,.d,.e,.f,.g,.h,.i{fill-rule:evenodd;}.b{fill:#ffdac0;}.c{fill:#e24e24;}.d{fill:#f28562;}.e{fill:#372330;}.f{fill:#ffdbc0;}.g{fill:#f18462;}.h{fill:#ff9b76;}.i{fill:#fff;}</style></defs><g transform="translate(-177.772 -114.646)"><g transform="translate(177.772 114.646)"><g transform="translate(1.828 119.74)"><path class="a" d="M1255.456,2180.971c.575.494-2.269.309-2.922.648C1252.057,2181.225,1254.358,2180.864,1255.456,2180.971Z" transform="translate(-1032.435 -1921.442)"/><path class="a" d="M545.3,1391.426c-1.338-.141-1.371,3.818-3.9,3.569-2.193-1.885.38-4.212.324-5.517-1.888,1.146-3.89,4.979-5.518,7.466-.877.638-2.079.95-1.946,2.6-.434.54-1.839.109-2.273.649-9.174,17.491-16.662,37.542-22.4,59.4-2.447,9.318-5.165,17.39-4.544,28.563.089,1.659.924,3.51,0,4.542-2.406,0-1.884-3.239-1.949-5.192-.491-14.669,3.771-25.788,7.141-38.948a203.025,203.025,0,0,1,10.062-28.562c7.869-18.585,16.815-35.331,27.914-49.661a176.242,176.242,0,0,1,39.922-37.649c15.605-10.743,33.36-17.955,52.257-24.993,1.643-.325.89,1.513,2.271.65,9.676-2.029,20.032-4.659,30.834-6.815,12.776-2.551,25.62-6.042,38.948-3.571,5.944,1.1,12.128,3.769,16.229,8.44,9.638,10.972,7.118,36.889,8.114,57.772,1.027,21.6.951,43.1,2.921,62.644,1.943,19.259,6.794,37.685,11.035,54.527,2.188,8.684,3.733,17.66,6.815,25.967,5.032,13.555,11.548,33.428.325,45.439-10.57-.4-21.484.828-31.482,1.3-.9.042-3.022,1.014-3.247-.649-.573-1.656,2.219-1.973,3.247-2.274,4.342-1.266,9.523-2.779,14.282-3.894,5.489-1.286,15.641-2.365,15.578-8.439-.081-7.694-9.194-2.819-13.956-1.622-10,2.512-22.2,5.074-29.861,9.086-16.043,2.713-32.558,11.216-52.257,12.334a78.486,78.486,0,0,1-13.632,0c-3.555-.436-7.966-2.236-11.682-3.569-3.809-1.367-7.9-2.807-10.711-4.543-3.444-2.131-5.694-5.688-9.089-7.466-3.275-6.665-7.943-14.136-11.361-22.72-1.587-3.989-3.415-7.789-5.193-11.685-3.689-8.093-5.462-15.162-7.464-25.641-.666-3.484-1-12.408-3.572-12.659-1.732-.168-4.249,5.718-5.192,7.466a64.083,64.083,0,0,1-4.868,7.466c-3.706,5.314-6.08,11.025-10.386,13.632-9.5-31.93-16.193-72.324-12.66-114.574-6.9,14.105-10.375,33.413-12.657,53.231-.769,6.662-1.883,13.627-1.622,20.123.142,3.58,1.437,6.5,1.3,9.738-2.672-.458-3.011-3.678-3.247-5.843-.66-6.087-.042-12.85.651-19.148,1.878-17.1,4.57-36.143,9.736-49.661-3.383,3.414-5.938,10.574-8.437,16.229-.794,1.793-1.221,4.458-3.247,4.542-1.872-1.249-.25-4.083.325-5.517C539.283,1402.757,543.15,1396.932,545.3,1391.426Z" transform="translate(-503.068 -1297.105)"/></g><g transform="translate(165.899 126.837)"><path class="b" d="M1107.835,1554.56c.612-1.99,3.658-.371,4.868,0-2.142-2.725-6.627-3.109-7.788-6.816,1.521-1.587,3.681.238,5.518.324-.246-2.351-4-1.2-3.572-4.22,1.165-.849,2.89-.011,3.9.326-.858-.982-2.763-.916-2.921-2.6,1.088-1.13.386-2.038,1.3-3.245,2.293-.27,4.06,1.462,5.518.975.772-1.742-3.518-.952-2.6-3.9.682-.955,1.84.143,2.6,0,1.21-.229,1.022-.982,2.271-.975,3.852.027,7.8,2.754,11.686,3.247,2.293-3.334,3.644-7.61,5.518-11.36-1.468-1.316-3.606-1.681-5.193-2.922-1.8-1.4-3.051-3.8-4.867-5.843-1.691-1.894-3.424-3.6-4.869-5.518a210.18,210.18,0,0,0-19.474-22.719,73.446,73.446,0,0,1-5.193-5.517c-4.012-4.928-8.436-8.923-12.335-14.282-8.312-7.309-18.948-11.107-20.122-24.993a79.232,79.232,0,0,1,2.922-26.94,146.711,146.711,0,0,1,32.456-57.125c23.147-25.18,50.744-41.369,99.319-38.948,14.976.746,27.076,5.9,37.325,12.009,1.359.811,2.467,2.134,3.9,2.921,1.358.75,2.932.866,4.218,1.624a99.913,99.913,0,0,1,9.414,6.815c33.215,25.417,58.274,61.665,72.7,105.812,2.631,8.05,4.417,17.15,6.168,26.29,3.13,16.353,4.974,35.014,2.6,53.555-1.558,12.152-3.27,23.583-6.493,33.756-4.114,12.986-10.657,25.381-19.474,34.079-14.038,13.855-38.913,20.1-67.837,18.826a215.438,215.438,0,0,1-40.571-5.842c-12.166-2.9-23.347-7.643-34.729-11.684-20.847-7.4-40-18.5-53.878-33.108-.748-.786-2.623-1.681-1.624-3.247,2.018-.01,4.092,2.3,5.842,3.9,1.839,1.672,3.319,3.84,5.193,5.194.85.273,1.163-.99,2.6-.651.748.178.822,1.184,1.624,1.3.262.061.323.326.651.326-4.39-4.415-9.652-8.408-13.632-13.633C1109.674,1558.336,1107.463,1556.655,1107.835,1554.56Zm60.046-228.823c14.234.37,29.043,1.9,41.544,2.921C1197.613,1325.613,1181.844,1323.726,1167.881,1325.737Zm-14.932,19.475c.275-1.024,1.674-.925,1.947-1.948h-1.621C1153.114,1343.679,1152.454,1345.2,1152.95,1345.212Zm-32.781,210c-1.729-.655-4.219-2.265-5.519-2.27C1116.47,1553.482,1118.85,1557.234,1120.168,1555.208Zm2.271,10.064a13.9,13.9,0,0,1-2.271-5.518c-3.278-.4-6.213-2.873-8.765-2.921C1114.993,1559.518,1118.871,1563.648,1122.439,1565.272Zm2.272,5.193c-.16-.235-1.39-1.584-.973-.974C1124.283,1570.288,1124.936,1570.791,1124.711,1570.465Z" transform="translate(-1061.868 -1321.278)"/></g><g transform="translate(165.984 136.164)"><path class="c" d="M1108.039,1577c.612-1.99,3.658-.372,4.867,0-2.142-2.725-6.626-3.109-7.788-6.816,1.521-1.587,3.681.238,5.518.325-.246-2.351-4-1.2-3.572-4.22,1.165-.849,2.889-.012,3.9.325-.858-.982-2.763-.916-2.921-2.6.856-1.153.682-1.545.971-2.919,1.943-1.142,4.414,1.276,5.843.65.772-1.741-3.518-.953-2.6-3.9.683-.956,1.841.143,2.6,0,1.211-.229,1.022-.982,2.271-.975,3.852.027,7.8,2.754,11.686,3.247,2.293-3.334,3.645-7.61,5.518-11.361-1.468-1.316-3.606-1.68-5.194-2.922-1.8-1.405-3.05-3.8-4.867-5.843-1.691-1.894-3.424-3.6-4.869-5.518a210.3,210.3,0,0,0-19.474-22.719,73.371,73.371,0,0,1-5.193-5.518c-4.012-4.927-8.436-8.923-12.335-14.282-7.785-6.688-18.974-11.369-20.122-24.992a80.825,80.825,0,0,1,.322-11.685c.754-11.217,3.986-19.724,7.467-28.238,11.424-27.959,29.142-50.349,52.9-65.889,4.86-3.178,10.037-6.313,15.579-8.114a203.01,203.01,0,0,1-5.84,38.3,193.138,193.138,0,0,0-5.518,38.624c-.515,11.72.19,24.03-.325,35.379-.179,3.926-.163,7.971,0,11.685.639,14.571,2.58,28.285,7.789,39.922,2.433,5.437,5.9,10.511,8.114,15.9,2.227,5.422,4.161,11.577,9.736,13.956,1.545.354,1.2-1.183,2.6-.975,14.205.988,28.408,2.892,41.871,5.193a93.441,93.441,0,0,1,12.982,2.922c1.882.616,3.906,1.564,5.843,2.272,1.858.682,3.819,1.539,5.518-.325-1.563-5.148-4.633-8.345-5.842-13.307-.761-3.124-.693-6.736-1.3-10.061-1.611-8.816-3.069-20.105-2.6-30.836.561-12.784,2.8-25.642,4.869-38.3,1.965-12.043,4.252-24.334,7.788-35.055,7.481-22.682,13.224-45.017,20.772-65.238.25-1.266,1.451.628,1.948.973,23.851,16.551,43.416,39.227,58.1,65.565,7.491,13.437,14.71,27.961,19.8,44.142,2.5,7.961,4.163,16.96,5.843,25.965,2.411,12.953,4.578,25.324,3.893,40.9-.32,7.29-1.836,14.518-2.6,21.421-2.294,20.807-9.237,38.692-19.15,51.932-14.055,18.772-37.341,25.643-69.133,25.641-14.889,0-29.135-2.305-42.2-5.194-12.738-2.817-24.362-7.558-35.7-11.683-20.038-7.288-38.347-16.927-52.254-30.835-1.735-1.735-5.08-3.159-4.871-6.168,2.018-.009,4.092,2.3,5.842,3.9,1.839,1.672,3.318,3.839,5.194,5.193.829.732.824-1.337,2.6-.651.256.719,1.136.814,1.624,1.3.262.061.323.326.651.326-4.39-4.414-9.651-8.408-13.632-13.632C1109.878,1580.774,1107.667,1579.092,1108.039,1577Zm12.333.647c-1.728-.654-4.218-2.265-5.519-2.27C1116.674,1575.92,1119.054,1579.672,1120.372,1577.645Zm2.271,10.064a13.911,13.911,0,0,1-2.271-5.517c-3.278-.4-6.212-2.873-8.765-2.921C1115.2,1581.956,1119.075,1586.085,1122.643,1587.709Zm2.272,5.193c-.159-.235-1.389-1.583-.973-.974C1124.487,1592.725,1125.139,1593.229,1124.915,1592.9Z" transform="translate(-1062.156 -1353.042)"/></g><g transform="translate(252.219 25.65)"><path class="d" d="M1386.264,976.811c12.373-1.39,22.3,6.505,27.912,14.605,2.7,3.893,5.647,8.779,6.818,12.984,1.638,5.884,1.834,13.517,1.622,20.121-.4,12.479-3.951,22.582-9.087,30.185-1.186,1.757-2.932,3.493-3.246,5.194-.729,3.927.879,9.818,2.271,12.983,1.262,2.87,3.883,5.313,5.844,8.763.9,1.593,1.75,3.737,2.6,5.518a50.152,50.152,0,0,1,4.868,25.318,59.658,59.658,0,0,1-2.921,13.632c-.732,2.172-1.976,4.3-2.922,6.491-.969,2.25-1.617,4.772-2.6,6.492-.871,1.531-2.464,3.155-3.572,4.867a35.135,35.135,0,0,1-12.008,12.01c-2.44,1.426-7.385,3.742-11.685,3.9-4.691.168-8.688-1.565-12.657-3.571-7.418-3.744-13.6-9.851-16.553-16.228-4.731-10.218-5.131-26.7-.975-38.3a56.606,56.606,0,0,1,4.546-10.062c.951-1.651,2.01-3.3,2.922-4.87,1.825-3.155,4.213-6.517,5.193-10.062.727-2.638,1.271-8.782.325-11.36-.482-1.306-2.113-2.28-3.571-3.57-7.108-6.292-12.326-18.627-13.308-32.131-.885-12.162.925-25.718,5.519-34.406C1366.344,986.332,1375.943,977.969,1386.264,976.811Z" transform="translate(-1355.861 -976.651)"/></g><g transform="translate(220.627 0)"><path class="e" d="M1745.353,1408.14c1.53-.436.941,1.2,1.3,1.948a45.506,45.506,0,0,1,2.921,6.491c3.516,11.36.683,22.335-5.192,31.161-4.57,6.861-11.638,15.586-8.114,26.29a15.009,15.009,0,0,0,2.921,4.542c.806,1.052,2.846,2.665,1.948,4.869-2.034-.186-3.032-2.165-3.9-3.245-2.588-3.251-4.411-7.131-3.893-13.956.829-10.932,9.295-18.1,12.981-27.913,1.295-3.447,2.773-7.194,2.921-10.711.292-6.858-2.68-12.512-4.867-18.5-.092-.525.307-.559.324-.974Z" transform="translate(-1590.856 -1255.748)"/><path class="e" d="M1324.862,900.494c7.827-4.263,21.987-.825,28.239,2.272,11.1,5.5,17.921,17.938,18.825,32.458.378,6.1-.478,11.594-.324,17.526.079,3.144.956,6.2.975,9.412a59.707,59.707,0,0,1-1.625,14.281c-.712,2.692-2.986,5.551-2.921,7.791.064,2.071,5.055,8.7,6.493,10.711,6.29,8.776,12.105,15.985,16.553,26.291.8,1.846,1.244,4.044,2.921,5.518.809,6.656,4.113,10.816,4.544,17.851-.084,1.384,2.652-.056,1.947,1.948,2.644,20.259-6.38,33.008-13.308,46.089-2.549,4.811-6.032,11.04-4.867,16.553,1.114,5.274,5.3,9.506,7.464,14.281-8.21,3.69-18.167,5.634-27.911,7.79-5.846-9.69-5.165-27.1,0-37.325,2.95-5.846,7.147-11.527,6.815-19.475-5.249,11.58-16.3,22.782-15.254,39.923.416,6.921,2.675,11.229,4.218,17.527-9.56,1.526-22.82,1.851-29.211-2.6a54.819,54.819,0,0,1-7.14-32.457c.394-5.518,2.419-10.751,4.218-15.9,1.771-5.074,3.24-10.372,5.194-14.931,3.972-9.261,8.587-18.2,9.414-30.509a54.006,54.006,0,0,0-3.571-23.695c-1.326-3.318-3.717-7.416-2.922-12.982,1.011-7.085,6.894-11.868,9.414-18.825,3.929-10.861,4.475-25.6.973-37.325-1.113-3.721-2.365-7.647-4.219-10.062-2.684-3.491-7.181-5.5-10.711-8.439-1.709-1.426-3.5-2.846-5.193-4.22a21.873,21.873,0,0,1-2.6-2.272c-.678-.77-.888-2-1.949-2.6-14.766-.911-22.766,5.414-29.212,15.254a53.539,53.539,0,0,0-8.764,25.317c-1.461,20.067,3.643,38.319,16.878,47.388a66.238,66.238,0,0,1,.326,10.062c-.138,3.244.279,7.159-.651,9.736-1.046,2.9-7.319,6.752-10.71,7.142-14.4,1.656-28.094-7.033-33.107-15.256a45.03,45.03,0,0,1-5.842-21.421c-.106-17.375,7.927-30.321,21.425-36.029-.947-3.105-3.188-4.957-4.547-7.789-2.879-6.012-3.723-14.6-3.245-21.746.7-10.447,5.716-18.786,12.335-25.316,6.817-6.729,16.827-12.122,26.614-12.983C1312,888.478,1321.839,891.737,1324.862,900.494ZM1279.1,907.96a41.96,41.96,0,0,1,26.939-12.659,34.512,34.512,0,0,1,14.607,1.948c-4.3-4.153-10.571-6.238-18.825-5.518-10.719.934-21.485,7.065-28.564,15.256-7.048,8.157-11.1,19.515-8.115,33.107C1264.662,925.325,1270.762,916.295,1279.1,907.96Zm90.231,25.317c-1.415-8.652-3.512-16.473-8.439-21.747-5.283-5.656-16.03-11.036-25.965-10.386C1353.127,905.122,1363.151,917.274,1369.329,933.277Z" transform="translate(-1248.262 -889.291)"/></g><g transform="translate(0 60.047)"><path class="a" d="M576.932,1531.02c.335,1.288,3.193.053,3.571,1.3,2.312,2.991,1.177,10.227.649,14.28a1.2,1.2,0,0,1,1.946.651c1.541-.2,1.258-5.013,2.922-6.169,1.875-.119.936,2,1.3,3.248.467,1.608.335,2.368,1.622,2.921-1.225,3.938-.475,8.067-.65,12.008-.489,11.109-1.331,23.536-2.6,35.053-3.254,29.632-7.572,58.981-25.639,74.977-8.654,7.659-21.543,14.415-37,13.307a26.889,26.889,0,0,1-20.122-11.036c-8.162-11-6.5-30.13-4.22-47.062.983-7.3,1.806-14.317,3.9-20.448,4.1-12.041,9.157-23.294,16.229-32.457,12.139-15.737,28.687-28.194,49.009-36.353C570.827,1534.041,575.572,1532.245,576.932,1531.02Zm4.22,19.475c-.193-.674.4-2.133-.324-2.273C581.182,1549.458,579.97,1550.249,581.153,1550.495Z" transform="translate(-496.844 -1402.647)"/><path class="a" d="M1589.163,1107.6c.493-1.82,1.833.335,2.274.65a33.8,33.8,0,0,1,3.568-10.386c1.062-1.864,2.056-3.061,3.248-3.57,1.631-.7,6.864-.5,10.06-.325,10.285.571,19.4,3.569,28.238,6.493,20.648,6.833,40.242,17.1,56.15,30.185,3.376,2.774,7.18,5.882,8.765,8.438,3.145,5.074,4.363,12.728,5.517,19.8,1.207,7.389,1.954,14.333,2.6,22.4,1.241,15.555,2.583,32.526-5.517,42.195-5.466,6.525-19.571,10.356-30.511,6.491a35.975,35.975,0,0,1-7.79-4.543c-2.56-1.762-5.41-3.373-7.139-4.87-3.708-3.205-7.013-7.882-10.387-12.008-3.409-4.168-6.624-8.489-9.738-12.658-6.414-8.59-12.222-18.09-17.851-26.616-3.03-4.585-5.973-8.993-8.764-13.632a302.067,302.067,0,0,1-18.824-36.676c-1.036-2.415-2.822-5.167-2.273-8.115C1589.58,1110.637,1588.3,1108.808,1589.163,1107.6Z" transform="translate(-1268.243 -1093.802)"/></g><g transform="translate(64.834 172.488)"><path class="f" d="M802.7,1538.13c11.452-2.394,23.165-4.53,35.053-6.491,2.544,2.2,3.484,5.667,4.544,8.762,3.29,9.63,5.782,20.122,9.414,30.185,9.486,26.3,15.706,53.993,23.043,82.768,1.675,6.564,3.869,13.736,5.518,20.772,1.6,6.831,4.311,14.946-.324,21.421-18.778,5.745-38.636,10.333-60.047,16.228-14.551,4.007-30.373,6.945-46.415,11.362-7.453,2.052-16.469,5.28-21.745,0q-17.426-78.324-34.079-157.419c3.758-4.272,10.018-5.366,15.579-7.464,5.6-2.115,11.207-4.566,16.553-6.493.1-19.871,3.226-41.685,9.414-57.774,2.9-7.546,5.78-14.186,12.657-16.876a12.2,12.2,0,0,1,5.843,0c4.7,1.432,7.064,7.326,9.411,12.332C793.844,1503.768,798.142,1523.043,802.7,1538.13Zm-16.879-46.738c-2.958-6.508-8.352-16.852-16.554-10.387-3.539,2.791-6.251,8.942-8.114,13.957-4.11,11.067-6.586,23.864-8.115,36.029-.851,6.759-1.87,13.59-.649,20.121,14.86-5.369,32.222-8.24,48.036-12.657C795.637,1524.154,792.259,1505.558,785.819,1491.392Z" transform="translate(-717.659 -1476.758)"/></g><g transform="translate(133.32 103.553)"><path class="g" d="M999.6,1250.893c-.19-1.016-1.511-2.582-.65-3.572,1.694-.413,1.709,2.435,2.271,3.9a23.11,23.11,0,0,0,2.272,4.543c.7,4.472,2.181,11.149,1.624,18.5-.661,8.677-2.737,13.271-9.089,16.228-9.191,4.281-21.007,2.637-28.886-2.6-6.889-4.572-12.2-8.215-14.606-15.9,2.829-6.219.445-14.91-1.622-20.123.6-.633,1.309-.223,1.622.325,6.582-14.128,37.377-12.574,46.413-1.623C999.209,1250.63,999.268,1250.893,999.6,1250.893Z" transform="translate(-950.91 -1241.974)"/></g><g transform="translate(77.655 23.202)"><path class="h" d="M1366.613,1015.064c-.132-.651-.8-2.409,0-2.921-.595-.814-2.116-.7-2.271-1.948.007-2.912,2.2-3.638,3.571-5.2-.112-1.08-.94-1.44-.651-2.919,7.927-10.141,25.188-10.947,39.6-14.605-2.393-2.608-8.7-7.865-8.44-13.632a5.834,5.834,0,0,1,3.9-5.517c.275-.061.306.127.325.324,3.33,2.806,4.347,7.013,6.816,10.061a24.318,24.318,0,0,0,3.57,3.572c2.049,1.551,4.933,2.073,6.815,3.894,1.9,1.835,2.937,5,4.547,6.817,2.541,2.873,7.562,4.8,12.007,7.139,3.735,1.963,9.311,5.393,9.089,9.737-.066,1.291-1.756,4.1-2.6,5.195-2.907,3.773-10.771,8.737-14.607,9.411-1.735.305-3.66-.082-5.518,0-2.514.11-5.179.648-7.464.65-7.465.008-13.7-3.835-21.1-3.894-3.959-.034-7.721.683-11.361.323-3.988-.394-7.126-2.218-10.711-3.245-.338-.962-1.643-.954-1.3-2.6A4.731,4.731,0,0,1,1366.613,1015.064Z" transform="translate(-1187.287 -968.313)"/><path class="h" d="M816.305,1071.3c-6.643-5.053-11.514-8.053-16.229-14.932-2.6-3.792-4.889-8.074-4.221-14.6,1.092-10.646,10.218-19.482,18.5-25.643,8.886-6.609,20.072-11.778,30.508-13.632,3.233-.573,7.756,3.721,10.711,5.842a72.287,72.287,0,0,1,8.439,7.141c5.243,5.138,10.467,10.04,15.581,15.58,7.662,8.3,11.088,18.783,15.9,30.832,2.79,6.984,5.808,11.8,2.272,18.826-4.694,9.323-15.183,14.707-30.186,13.632a42.715,42.715,0,0,1-20.125-6.491c-1.4-.829-3.775-2.607-4.868-2.6-2.636.021-4.054,3.628-7.465,4.542-6.954,1.867-19.58-3.851-20.772-9.737C813.577,1076.2,815.084,1073.854,816.305,1071.3Z" transform="translate(-785.633 -992.419)"/><path class="h" d="M808.876,1460.236c1.357,2.473-.431,5.59-2.922,6.168,3.106,2.666,1.076,9.06-2.6,9.736.14,4.143-1.411,6.6-4.547,7.468a6.889,6.889,0,0,1-1.946,6.164c2.551,2.95.941,7.69-3.246,8.764-1.8.462-5.423.132-8.115.325-4.506.322-9.968,1.948-13.307,1.623-7.541-.736-11.768-5.945-10.711-14.931,1.112-9.435,10.97-14.813,17.528-20.447,1.229-1.056,1.873-2.245,2.6-2.6,2.372-1.157,5.082-.462,7.789-.648,5.095-.354,9.515-5.084,13.958-1.95C805.066,1459.681,807.689,1459.139,808.876,1460.236Z" transform="translate(-761.325 -1314.817)"/></g><g transform="translate(40.32 8.676)"><path class="c" d="M827.061,1220.39c1.34.067,2.848-.033,2.921,1.3.217,1.408-1.5.875-2.6.974C826.941,1222.244,827.064,1221.252,827.061,1220.39Z" transform="translate(-770.415 -1131.851)"/><path class="c" d="M737.552,937.6c-1.376-.791.342.864.651,1.3,1.531,8.333-7.076,14.217-12.011,19.15-13.973,13.971-27.917,28.078-36.354,46.737-1.3.137-2.107-.65-3.568-.649-1.587,0-3.251,1.419-5.193.649-4.926,2.63-8.2,10.005-11.685,17.2-1.73,3.573-2.385,7.008-3.247,11.36-.808,4.091-2.324,8.16-2.6,11.685-.322,4.2.154,9.412,4.221,9.412,2.916,0,3.991-2.227,3.569-6.166,1.3-.323,1.389-1.856,1.949-2.921-.124,7.719-2.464,19.259-12.66,16.228-5.367-1.6-8.3-10.43-11.036-15.58-6.157-4.218-8.984-14.652-11.036-23.693-3.019-13.32-5-24.531-4.219-40.247,1.229-24.668,14.478-46.134,31.483-56.15,9.871-5.814,22.948-8.3,36.028-6.493,12.22,1.688,21.706,6.644,29.21,14.282,3.493.679,9.1.779,8.44,4.543h-.65C738.11,938.337,737.629,938.169,737.552,937.6Z" transform="translate(-634.167 -918.84)"/></g><g transform="translate(41.823 23.686)"><path class="f" d="M827.222,970.137c1.561-.167,6.87-.5,9.739.649,4.392,1.761,9.619,6.825,7.789,13.308-1.091,3.857-5.5,5.017-7.789,6.491-2.116,1.362-4.17,3.418-6.492,5.194a125.965,125.965,0,0,0-17.851,16.228c-5.3,6.005-10.663,11.951-14.607,19.475a79.912,79.912,0,0,0-3.9,7.464c-2.24,5.927-2.221,13.719-8.761,15.58-9.884,2.815-18.436-7.278-19.15-15.255a27.785,27.785,0,0,1,.973-7.789c1.25-5.145,3.9-10.975,6.492-16.229a73.638,73.638,0,0,1,4.218-7.14C784.7,997.622,794,985.92,804.5,978.9A51.279,51.279,0,0,1,827.222,970.137Z" transform="translate(-728.911 -969.961)"/><path class="f" d="M657.1,1295c9.513-1.438,16.327,3.955,19.15,11.034,5.713,14.327-2.769,26.084-16.229,27.59-8.322.932-17.916-2-20.125-9.412-1.6-5.376.161-13.874,2.6-18.5A20.365,20.365,0,0,1,657.1,1295Z" transform="translate(-639.286 -1199.398)"/></g><g transform="translate(12.266 11.256)"><path class="i" d="M1408.944,929.845c-.7,1.635-3.056.77-4.218.973a28.031,28.031,0,0,0-9.411,3.572c-2.468,1.48-4.671,4.89-7.792,3.57-.27-3.391,4.017-4.875,6.818-6.491a25.639,25.639,0,0,1,9.411-3.572C1405.581,927.673,1408.6,926.857,1408.944,929.845Z" transform="translate(-1138.264 -927.625)"/><path class="i" d="M799.359,938.951c-.538-3.49,4.336-3.2,7.79-3.57a80.594,80.594,0,0,1,10.71-.325c2.38.1,6.573.089,6.493,2.274-.1,2.659-6.231,1.029-7.465.972a79.411,79.411,0,0,0-8.114,0C805.094,938.532,801.543,939.917,799.359,938.951Z" transform="translate(-722.773 -932.836)"/><path class="i" d="M1574.779,968.694c-2.861-.2-4.594-2.583-6.493-3.894-2.045-1.413-4.137-2.367-6.168-3.9a1.551,1.551,0,0,1,.975-1.946c.29-.2.581-.394.65,0,2.051.372,5.2,2.247,7.465,3.894C1573.173,964.283,1576.538,966.244,1574.779,968.694Z" transform="translate(-1261.578 -949.597)"/><path class="i" d="M1625.345,1014.357c-2.67-.464-3.759-2.514-4.542-4.869C1622.992,1006.664,1627.477,1011.833,1625.345,1014.357Z" transform="translate(-1303.059 -984.872)"/><path class="i" d="M1299.252,1145c.1,2.072-2.139,2.545-3.245,3.569-1.26,1.169-2.1,3.77-4.543,3.571-1.961-3.96,3.364-5.821,5.193-8.115C1297.96,1143.915,1299.032,1144.035,1299.252,1145Z" transform="translate(-1070.117 -1080.465)"/><path class="i" d="M1792.7,1165.668c-1.543,2.486-3.793-.328-4.871-.973-9.231-5.523-19.892-11.77-31.157-15.581-1.786-.6-4.07-.448-5.518-1.945a1.548,1.548,0,0,1,.975-1.946c4.6-.058,8.637,2.075,12.982,3.891a154.247,154.247,0,0,1,24.343,12.984C1790.608,1162.835,1793.592,1163.377,1792.7,1165.668Z" transform="translate(-1395.11 -1081.333)"/><path class="i" d="M1069.094,1200.5c4.9,9.321-6.341,16.548-14.282,12.008.832-1.362,2.391-1.833,3.571-2.6a32.253,32.253,0,0,0,9.739-9.411Z" transform="translate(-903.251 -1120.377)"/><path class="i" d="M1422.932,1223.7c4.387.716,9.834,2.021,16.228,1.625,2.507-.156,4.718-1.126,7.14-.326-2.139,4.764-4.623,9.292-11.035,8.763C1430.143,1233.341,1423.656,1228.764,1422.932,1223.7Z" transform="translate(-1163.286 -1136.771)"/><path class="i" d="M1918.545,1231.375c-.316.01-.253.4-.325.651-3.5,1.077-5.329-2.214-7.788-3.247v-1.947C1913.945,1226.271,1917.14,1228.755,1918.545,1231.375Z" transform="translate(-1507.649 -1138.924)"/><path class="i" d="M767.608,1417.147c.224,2-1.9,3.053-3.243,3.9-4.115,2.566-8.293,5.06-12.335,8.113-2.564,1.939-5.3,4.091-7.789,6.167-1.051.88-2.314,2.252-3.571,3.247-1.109.879-2.848,2.339-4.219.649.771-2.672,3.491-4.813,5.842-6.815a138.854,138.854,0,0,1,22.4-15.58C765.448,1416.422,766.726,1415.553,767.608,1417.147Z" transform="translate(-678.365 -1272.765)"/><path class="i" d="M1177.724,1429.858c-.819,3.362-4.051,5.16-6.167,7.464-5.294,5.761-9.26,13.08-13.957,19.8-.843,1.207-1.49,3.351-3.569,2.919-1.907-2.5,1.408-6.182,2.918-8.437,1.737-2.592,3.514-5.341,5.2-7.792,3.916-5.709,8.675-10.146,12.984-14.605A2.867,2.867,0,0,1,1177.724,1429.858Z" transform="translate(-972.931 -1281.903)"/><path class="i" d="M1138.631,1549.223a19.7,19.7,0,0,1-1.622,5.518c-.555,1.368-.983,3.875-3.246,3.57-.01-.315-.4-.251-.65-.324-.546-3.555,1.863-6.731,3.246-9.412A2.457,2.457,0,0,1,1138.631,1549.223Z" transform="translate(-958.505 -1366.216)"/><path class="i" d="M591.983,1630.435c-.23,2.574-2.441,2.773-3.894,3.894-5.738,4.428-10.205,10.438-14.606,16.229-3.415,4.494-5.753,9.262-8.439,14.605-.7,1.39-1.462,3.788-3.569,3.9-2.1-1.471-.552-4.089.324-5.843a90.814,90.814,0,0,1,10.061-15.9c5.539-6.959,10.769-13.925,17.2-17.2C589.772,1629.747,591.119,1628.745,591.983,1630.435Z" transform="translate(-554.021 -1423.408)"/><path class="i" d="M1880.025,1681.729c-3.023.831-3.054-2.926-3.572-4.544-2.053-6.427-4.173-12.869-6.815-19.475-3.455-8.634-7.126-17.385-10.064-25.316,1.939-3.155,4.055,1.52,5.194,4.219,5.494,13.018,10.434,24.731,14.606,38.951C1879.949,1677.522,1881.667,1679.974,1880.025,1681.729Z" transform="translate(-1471.723 -1424.72)"/><path class="i" d="M545.1,1781.366c-.612,2.266-1.487,4.816-2.272,7.464-.628,2.118-.834,6.026-3.9,5.843-1.294-4.8,1.736-10.493,3.9-13.957A2.454,2.454,0,0,1,545.1,1781.366Z" transform="translate(-538.619 -1530.198)"/><path class="i" d="M1930.463,1822.852c1.286,1.96,1.382,5.446,1.946,8.439.5,2.635,2.3,6.125,0,7.466-2.585.169-2.432-3.766-2.921-6.492-.614-3.452-2.1-7.2-.646-9.413Z" transform="translate(-1520.215 -1560.002)"/><path class="i" d="M1946.5,1919.989c.98,1.715,2.446,8.417-1.622,7.79C1944.253,1926.192,1942.724,1919.209,1946.5,1919.989Z" transform="translate(-1531.389 -1628.575)"/><path class="i" d="M1385.829,2041.013a1.823,1.823,0,0,1,.647-2.6,126.607,126.607,0,0,1,24.343,2.92c2.147.447,5.364.708,4.867,2.922-.607,2.726-11.442-.872-13.955-1.3C1395.729,2041.94,1390.925,2041.938,1385.829,2041.013Z" transform="translate(-1136.893 -1712.274)"/><path class="i" d="M1531.428,2066.3c-.8,3.429-5.7,1.2-8.765.651-3.367-.611-7.527-.739-9.086-2.6.182-.792.277-1.67,1.3-1.625C1519.761,2063.265,1527.779,2063.447,1531.428,2066.3Z" transform="translate(-1227.316 -1729.445)"/></g><g transform="translate(68.429 282.788)"><path class="g" d="M1142.629,1898.918c-2.977-5.135-10.109-6.883-16.553-9.413-3.089-1.211-8.105-2.17-6.493-7.141,6.8-2.076,12.842,2.039,19.15,2.6-2.328-3.169-6.479-5.334-12.009-8.114-2.579-1.3-7.878-2.828-7.788-5.843.071-2.5,3.908-3.485,5.839-3.569,7.48-.327,11.908,4.5,17.2,6.166-.906-5.79-5.005-8.4-7.464-13.956-.9-2.037-2.4-7.994,1.622-7.14,2.926.62,4.3,2.839,6.167,4.867,1.717,1.86,2.85,4.56,4.544,6.168.882.837,3.1,1.687,4.221,2.6,3.33,2.7,5.613,5.713,8.761,9.413,5.595,6.568,9.709,14.083,17.2,19.15,2.7,1.829,9.427,3.879,8.439,9.412-.651,3.643-7.8,6.31-11.686,8.115a50.294,50.294,0,0,1-7.14,2.6c-3.866,1.109-8.677,2.271-12.335.649-3.56-1.579-8.537-6.582-14.279-8.764-3.742-1.422-10.056-1.151-13.956-3.246-.5-.268-2.663-1.334-2.6-2.921C1123.711,1894.969,1138.112,1900.031,1142.629,1898.918Z" transform="translate(-1004.71 -1852.421)"/><path class="g" d="M745.133,2128.14c.109,1.787.592,3.227,0,4.868-4.482,2.01-7.06-2.1-6.815-6.815-1.986-1.7-6.667-3.775-4.222-7.791-1.325-1.755-3.008-3.8-2.6-6.816.272-1.994,1.529-2.933,2.6-4.217-1.1-1.8-2.392-2.771-2.6-4.871-.606-6.218,5.819-9.246,9.089-12.334-1.711-6.886-12.623-7.862-10.385-16.553,4.719-.553,7.54,2.042,11.358,5.517,2.745,2.5,5.578,5.333,6.817,8.765,1.7,4.714,2.255,10.658,3.245,16.228,1.134,6.389,3.5,12.936,1.947,16.879C752,2124.983,746.559,2125.067,745.133,2128.14Z" transform="translate(-729.903 -2008.614)"/></g><g transform="translate(1.246 18.333)"><path class="e" d="M831.506,951.742c.374-.052.576.072.647.324,1.175.447.85,2.4.975,3.894,8.568.2,13.548,3.979,15.254,11.035.98-.012,2.781-.872,3.571,0,.351,2.3-2.123,1.774-3.571,2.272-.716,6.954-9.091,9.614-13.633,13.632-3.878,3.435-8.223,6.959-11.358,10.063-1.363,1.346-2.451,3.283-3.9,4.869-2.79,3.063-5.615,5.52-8.439,9.086-2.42,3.057-5.288,6.711-4.544,12.984.357,3,3.194,6.793,4.868,9.087.819,1.123,6.078,5.6,6.169,7.467.1,2.162-1.744,2.7-3.247,3.895-2.614-.8-4.68-2.2-7.464-3.247-2.211-.829-5.383-2.575-8.115-2.271-1.727.192-4.279,2.451-6.167,3.571-2.475,1.465-4.829,3.391-9.089,2.921-3.445-.381-9.256-3.349-11.683-6.167-.943-1.092-2.779-3.555-1.3-5.193,1.844-.113,1.536,1.929,2.273,2.921,2.192,2.026,8.238,6.659,12.334,6.49,3.03-.125,7.5-3.656,9.087-6.164,1.941-3.066,2.918-6.987,4.221-10.065,4.283-10.122,10.172-17.4,17.524-25.315,2.391-2.573,4.48-5.286,6.818-7.466a146.793,146.793,0,0,1,15.579-12.983c2.622-1.839,5.713-3.411,7.464-6.491-.819-.885-2.218,1.694-3.568.324.023-2.463,2.67-2.3,3.892-3.57q-2.116-8.921-12.657-9.414c-1.328,1.775,1.192,5.434-.975,6.167-2.234-.254-.732-4.244-1.622-5.843-4.067.263-8.84,2.626-13.306,3.572-.294,3.082.7,6.374-.975,7.464-2.251-.128-.957-3.8-1.3-5.842-4.923,1.787-10.27,5.959-14.282,9.738-.945.867,1.186,1.812,0,2.921-2.172.339-3.079-2.223-3.9-3.571-.853-1.416-2.53-3.354-1.622-5.193,2.673-.077,2.095,3.1,3.571,4.218,4.675-4.086,9.573-7.953,15.579-10.711.74-1.112-.924-2.24.325-3.246,1.584-.178,1.624,1.188,2.271,1.948,4.5-1.338,8.638-3.048,13.632-3.9C830.924,954.406,830.534,952.392,831.506,951.742Z" transform="translate(-690.993 -951.73)"/><path class="e" d="M1424.1,989.7c-2.385-.138-2.868-2.594-4.221-3.894-3.148-3.029-7.138-5.084-10.385-8.115a53,53,0,0,1-8.115-10.063c-4.826,1.851-1.856,8.339.975,11.685,2.055,2.43,5.325,3.648,6.166,5.843-.933,2.228-3.752,1.353-5.519,1.622a163.514,163.514,0,0,0-16.875,3.571c-7.292,1.928-14.6,3.78-18.5,9.088a2.458,2.458,0,0,1,.65,2.273c6.88-3.29,14.559-7.512,23.367-7.791-.3,1.69-2.419,1.272-3.568,1.623a102.536,102.536,0,0,0-18.175,7.139c-1.783.967-5.032,2.333-4.546,4.87,1.411.664,3.536-.569,5.843-1.3a105.4,105.4,0,0,1,13.957-2.921c2.129-.351,4.622-1.65,6.489-.325-1.64,1.673-4.363,1.168-6.814,1.625a112.646,112.646,0,0,0-13.307,2.92c-1.79.561-4.662,1.233-4.221,3.9,1.563,1.445,2.964-.549,4.871-.974,4.6-1.028,12.068-1.007,18.175-.973,1.7.008,3.9-.526,5.192.648-.556,1.439-4.347.541-6.814.648-4.194.185-17.145.589-17.528,3.247-.356,2.48,4.726,3.625,7.14,3.9,4.7.525,10.029-.553,15.257,0,5.309.559,10.523,3.159,15.578,3.57,4.369.352,9.512-.631,12.983.322-.158,1.72-3.4,1.248-5.518,1.3-10.244.253-18.035-2.684-26.615-3.9-.62,3.922-2.291,6.8-2.921,10.71,1.36,1.1,4.013,1.263,6.168.975,1.741-.232,2.757-1.717,3.892-.975.035,5.153-8.827,3.115-11.682,1.948-1.691-4.284,1.959-7.976,2.272-12.333-6.853-.044-16.99.6-18.826-5.518-1.635.229-2.232-.581-3.246-.974.491-2.018-2.321-3.887-2.6-5.841a4.019,4.019,0,0,1,3.245-4.869c-.013-1.069-.548-1.616-.324-2.922,2.466-5.369,11.626-8.837,18.5-10.71,6.746-1.841,14.3-2.7,20.772-3.57-4.219-2.828-13.735-15.037-4.543-20.125,1.691.309,3.619,3.246,5.518,5.518a72.107,72.107,0,0,0,4.868,5.517c4.11,3.949,8.962,6.078,11.686,9.414C1423.829,986.736,1424.642,987.4,1424.1,989.7Z" transform="translate(-1109.944 -961.127)"/><path class="e" d="M681.932,970.535c.277-.06.306.127.325.324,1.9.768-.362,1.9-.651,2.272-1.7,2.228-3.938,4.06-5.842,6.491a66.333,66.333,0,0,0-13.632,35.052c-.092,1.923.948,3.477-.324,4.869-3.157-.816-1.834-4.56-1.622-6.491a66.119,66.119,0,0,1,11.684-31.808c3.165-4.5,5.89-7.96,9.736-10.711Z" transform="translate(-613.151 -965.005)"/><path class="e" d="M996.464,987.145c.716,2.82-1.986,4.9-2.922,7.139C990.617,992.594,994.1,987.7,996.464,987.145Z" transform="translate(-848.162 -976.747)"/><path class="e" d="M945.4,1003.946c.75,1.7-1.637,2.265-2.6,3.246-1.291,1.319-1.761,3.285-3.243,4.218-2.269-1.142-.258-3.4.647-4.543,1.014-1.275,2.926-2.309,3.572-3.247C944.248,1003.8,945.454,1003.242,945.4,1003.946Z" transform="translate(-810.081 -988.355)"/><path class="e" d="M910.194,1019.2c1.106.535.344,2.053.324,3.569-.026,2.024.673,5.39-1.3,5.518-1.1-1.715-1-7.355,0-9.087Z" transform="translate(-788.83 -999.391)"/><path class="e" d="M973.58,1026.988c-.187,1.876-3.74,1.3-5.842,1.3-1.569,0-3.431.874-3.571-.651.188-1.875,3.74-1.3,5.843-1.3C971.578,1026.342,973.441,1025.464,973.58,1026.988Z" transform="translate(-828.2 -1004.257)"/><path class="e" d="M935.636,1054.576a1.535,1.535,0,0,0,.974.325c.319,2.011.814,5.379.325,7.141C933.821,1062.522,934.8,1055.931,935.636,1054.576Z" transform="translate(-807.458 -1024.379)"/><path class="e" d="M883.616,1057.336c.062,1.865-1.727,2.98-2.6,4.221-.752,1.076-1.167,3.482-3.244,3.244-.618-3.623,2.922-5.669,4.543-8.114C883.2,1056.451,882.971,1057.332,883.616,1057.336Z" transform="translate(-767.124 -1025.841)"/><path class="e" d="M1019.567,1064.207c.314,2.578-2.383,2.544-3.9,4.869-2.05,3.155-.278,9.186-4.544,10.388C1006.508,1073.311,1012.547,1060.754,1019.567,1064.207Z" transform="translate(-860.229 -1030.765)"/><path class="e" d="M814.879,1072.358c-1.484.72-2.981-1.031-4.87-1.3-2.2-.312-4.187.674-6.166,0-.293-2.464,3.432-2.441,5.518-2.272C811.866,1068.99,815.348,1070.035,814.879,1072.358Z" transform="translate(-714.939 -1034.371)"/><path class="e" d="M903.407,1090.59c-.877,1.2-2.116.031-3.9.324-1.408.024-2.531,1.612-3.893.65C895.332,1088.4,903.046,1087.216,903.407,1090.59Z" transform="translate(-779.773 -1048.384)"/><path class="e" d="M1039.424,1100.149a3.757,3.757,0,0,1-6.815-2.6C1033.234,1093.277,1040.871,1093.676,1039.424,1100.149Z" transform="translate(-876.517 -1052.751)"/><path class="e" d="M838.342,1095.468c1.873,1.51,3.936,4.461,3.245,7.464-2.84-.727-2.613-4.528-4.544-6.165v-.975A1.829,1.829,0,0,1,838.342,1095.468Z" transform="translate(-738.402 -1053.262)"/><path class="e" d="M1628.419,1097.689h.974c1.163,1.218.988,3.772.972,6.165.62,1,2.729.517,2.275,2.6-.833.734-2.29.129-2.922-.325a17.234,17.234,0,0,1-2.6,5.841c-.33,1.519,1.3,1.08.971,2.6a1.6,1.6,0,0,1-2.272,0c-1.608,1.636-3.035,3.456-5.192,4.543-.05,1.564,1.632,1.4,1.3,3.246-1.783,1.292-2.336-1.009-3.246-1.623a30.275,30.275,0,0,1-5.518,1.948c.2,1.843,2.02,3.1,1.3,4.868-2.617-.047-3.472-3.636-4.218-5.842-.813-2.408-1.727-5.406-1.623-7.465,3.2.046,2.306,4.187,3.572,6.167a12.682,12.682,0,0,0,5.192-1.623c-.724-2.95-4.833-5.255-3.569-8.114,3,1,3.257,4.746,5.516,6.493a12.486,12.486,0,0,0,4.545-3.9c-1.8-2.159-6.426-3.007-6.166-6.167,3.43.355,4.637,2.933,7.139,4.218,1.5-1.317,1.9-3.725,2.921-5.517-1.743-2.258-6.373-1.631-7.464-4.544,2.412-1.491,5.256,1.473,7.789,1.948C1629.367,1101.365,1627.014,1098.84,1628.419,1097.689Z" transform="translate(-1283.427 -1054.833)"/><path class="e" d="M796.734,1115.213c-.182,1.925-2,.626-3.247.649-2.939.059-6.719.745-8.761.651-.921-2.159,2.557-2.455,5.193-2.6C792.445,1113.779,796.308,1113.326,796.734,1115.213Z" transform="translate(-701.339 -1066.192)"/><path class="e" d="M864.931,1114.269h.65c2.348,1.821,5.356,4.514,5.518,7.464-3.146.14-4.356-4.238-6.493-6.167C864.468,1114.889,864.828,1114.707,864.931,1114.269Z" transform="translate(-757.85 -1066.545)"/><path class="e" d="M947.452,1118.581c.578,4.336-2.529,4.676-4.867,6.167a27.53,27.53,0,0,0-6.493,6.168c-1.149,1.561-3.323,7.277-5.516,6.816-4.032-.847.912-10.341,1.947-11.684C935.75,1121.859,941.308,1118.087,947.452,1118.581Z" transform="translate(-803.371 -1069.561)"/><path class="e" d="M1029.819,1135.273h.649c1.944,1.191,3.34,2.584,5.843,3.571,3.473,1.367,7.355,1.205,7.464,5.841.113,4.883-6.289,10-12.01,7.465.576-1.809,2.789-.81,3.9-.972,3.7-.545,9.334-6.276,4.866-9.412-1.428-1.006-4.2-1.016-6.166-1.948a20.928,20.928,0,0,1-4.544-3.248A.887.887,0,0,1,1029.819,1135.273Z" transform="translate(-874.378 -1081.382)"/><path class="e" d="M813.087,1144.471c-1.019.979-2.195.3-3.571,0-1.9-.353-2.657.939-3.9.325C803.973,1141.662,813.325,1141.45,813.087,1144.471Z" transform="translate(-716.068 -1086.361)"/><path class="e" d="M853.486,1151.715c-1.833.063-2.174-1.981-3.245-2.92-.96-.838-3.276-1.036-3.246-2.922.262-.28.889-.193.974-.648C850.661,1146.241,854.781,1148.823,853.486,1151.715Z" transform="translate(-745.431 -1088.413)"/><path class="e" d="M972.206,1157.675c-2.157-6.188,6.836-7.192,6.817-2.271C979.014,1158.426,974.631,1160.11,972.206,1157.675Z" transform="translate(-833.643 -1093.398)"/><path class="e" d="M763.8,1174.829c-.32,1.537-2.1.991-3.246,1.3-2.945.79-6.73,2.829-9.738,2.6.121-2.424,3.613-2.879,5.842-3.571C758.922,1174.455,762.147,1172.708,763.8,1174.829Z" transform="translate(-677.494 -1108.606)"/><path class="e" d="M1050.747,1179.384c6.641-.6,11.8,5.1,14.282,11.035,5.142,12.32-3.791,24.126-17.528,22.72-6.945-.71-16.155-5.852-14.279-16.229.9-5,6.534-11.071,10.386-14.281C1046.036,1180.605,1047.51,1179.68,1050.747,1179.384Zm-8.438,10.385c-2.628,2.685-5.331,7.067-5.193,11.362.071,2.207.993,5.2,2.921,6.815,3.075,2.578,8.625,2.828,11.361.973,2.472-1.677,2.456-5.124,4.218-7.14,1.977-2.261,7.525-2.3,8.113-6.166.236-1.532-1.153-4.917-2.27-6.817-2.182-3.709-4.48-5.891-8.762-5.192C1048.64,1184.264,1045.044,1186.98,1042.309,1189.769Z" transform="translate(-876.806 -1112.51)"/><path class="e" d="M828.777,1180.595h1.3c.345,2.66.932,8.256-.325,10.387-2.817-.772-1.147-6.615-1.3-9.414C828.359,1181.044,828.758,1181.009,828.777,1180.595Z" transform="translate(-732.082 -1113.397)"/><path class="e" d="M800.314,1203.81c-.045,2.907,1.049,9.679-2.271,10.386a27.739,27.739,0,0,1,.975-10.386Z" transform="translate(-710.761 -1129.796)"/><path class="e" d="M692.527,1267.923h.971c1.345,1.47,1.151,4.1,1.625,6.492.4,2.025,1.851,4.353.648,5.843-2.238.1-1.884-2.795-2.272-4.545-.5-2.278-1.307-4.125-1.3-6.816C692.108,1268.372,692.508,1268.338,692.527,1267.923Z" transform="translate(-636.078 -1175.085)"/><path class="e" d="M1454.944,1278.574c-.863,2.1-5.18,4.909-7.789,5.843-4.158,1.493-13.5.3-14.283-4.219,1.685-1.007,2.748,1.05,3.9,1.623,6.252,2.652,11.724-.09,15.579-3.247A1.682,1.682,0,0,1,1454.944,1278.574Z" transform="translate(-1159.288 -1182.165)"/><path class="e" d="M987.127,1294.829c-.523,2.21-3.7,1.484-5.843,1.624-12.006.787-23.254-4.163-31.482-8.439v-.975a1.528,1.528,0,0,1,.972-.324c8.13,2.2,16.382,7.56,26.292,7.791,1.536.035,3.487-.225,5.518-.325C984.031,1294.108,986.407,1293.177,987.127,1294.829Z" transform="translate(-818.053 -1188.357)"/><path class="e" d="M740.868,1298.683c-.558,1.587-2.354,1.99-3.569,2.921-1.307,1-2.234,2.657-3.9,3.246-1.763-3.666,3.68-5.289,5.843-7.142C740.266,1297.554,740.572,1298.113,740.868,1298.683Z" transform="translate(-664.947 -1196.106)"/><path class="e" d="M658.794,1308.545c-3.587-.956-5.109-3.978-7.465-6.166v-.974a1.829,1.829,0,0,1,1.3-.324C654.5,1303.559,659.112,1304.953,658.794,1308.545Z" transform="translate(-607.216 -1198.505)"/><path class="e" d="M983.792,1308.429a5.133,5.133,0,0,0,0,2.921c1.189.76,3.849.048,3.571,2.271-.67.948-1.9.4-2.921,0-.743.555-.119,2.478-.325,3.571.416.559,1.3.652,1.624,1.3-.079.9-.959.99-1.624,1.3.24,1.537-.365,2.231-.325,3.569.964.457,3.941.588,2.922,1.949.013,1.376-2.322.4-2.922.325-.945,1.324-.885,3.656-1.622,5.193.351,1.053,2.341.473,1.947,2.272-.47.5-1.662.285-2.6.324-1.095,1.825-1.866,3.977-2.922,5.842.576,1.265,2.81.867,2.272,3.245-1.343.6-2.544-.624-3.569-1.3a23.227,23.227,0,0,1-4.221,4.543,2.454,2.454,0,0,1,.649,2.271c-1.084.563-1.587-.295-2.6-.649a18.627,18.627,0,0,1-5.518,2.6c.359,1.187,1.262,2.333.649,3.57-2.069.338-2-1.463-2.6-2.6a68.655,68.655,0,0,1-7.467,1.623c.055,1.46.074,2.886-.972,3.247-1.683-.033-1.255-1.674-.975-2.922-1.048-.429-3.268-.291-5.518-.325-.993,1.063-.06,4.051-2.6,3.569-.877-1.037.252-2.151,0-3.569a5.206,5.206,0,0,0-3.245-.648c-.788,1.049-.293,3.385-2.6,2.921-.726-.891.05-2.356.324-3.247-1.41-.752-3.481-.844-4.867-1.622-1.8,1.115-1.081,4.762-3.9,4.869-1.2-1.607.9-3.863,1.624-5.518-1.236-1.252-3.093-1.886-4.868-2.6-1.485,1.328-1.12,4.506-3.571,4.867-1.422-1.719.942-4.176,1.621-5.842-1.236-1.466-3-2.413-4.543-3.57-1.747,1.067-1.313,4.315-4.219,4.22-.672-2.166,1.511-3.757,2.272-5.518a7.394,7.394,0,0,0-1.625-1.947,13.466,13.466,0,0,0-1.622-1.624c-2.058-.088-2.836,5.5-6.168,3.9.652-2.489,2.621-3.659,4.222-5.193-.624-1.649-2.161-2.386-2.922-3.9-2.385.576-3.316,4.2-6.168,3.245-.469-2.921,4.331-3.3,4.543-4.867.172-1.265-1.733-1.3-1.946-2.921-3.231.794-5.238,4.466-8.44,4.219.817-3.513,4.279-4.378,7.142-5.842.185-.57-.393-1.908.322-1.948.87-.874,1.236.413,1.95.649,1.693-.533,3.37-2.6,5.518-1.623-.08,2.518-3.015,2.178-4.547,3.245-.111,1.628,1.437,1.593,1.625,2.922,2.058-1.007,3.685-4.053,6.49-3.246-.362,2.775-3.411,2.865-4.868,4.545.508,1.656,2.131,2.195,2.922,3.57,2.213-.6,2.392-3.234,4.867-3.57,1.091,2.668-2.071,3.722-3.244,5.193.281.16,2.462,2.946,2.919,2.921,1.854-.1,1.315-4.5,4.546-3.9.475,1.973-1.82,3.447-2.6,5.192,1.324,1.165,2.818,2.159,4.218,3.247,1.836-1.086.924-4.919,3.9-4.868.866,2.137-1.343,3.794-1.625,5.843,1.091,1.289,3.1,1.666,4.547,2.6,2.168-1.62,1.177-6.395,4.543-6.818.66,2.66-1.511,5.159-2.273,7.466.732,1.433,3.278,1.05,4.544,1.948,1.93-1.774.94-8.111,4.868-6.817-.71,2.318-1.887,4.172-2.273,6.817a4.744,4.744,0,0,0,2.922.649c1.893-1.786.386-6.972,3.571-7.466,1.228,1.786-.959,4.858-.975,7.466a12.2,12.2,0,0,0,5.193.648c1.146-2.317.056-6.867,2.272-8.114,2.17,1.131-.083,5.285,0,7.466,1.851.477,4.313-1.042,6.492-1.3-.369-2.224-2.951-5.584-.974-7.14,2.041.988,1.777,4.279,2.921,6.166,1.867-.08,2.529-1.366,4.22-1.623-.906-2.665-3.928-3.213-3.9-6.815,2.378-.538,1.981,1.7,3.246,2.273,1.178.708,1.632,2.879,2.6,2.92,1.617.07,2.552-3.488,4.217-4.219-1.257-1.881-4.424-1.849-4.867-4.543,2.543-.963,4.078,1.716,5.842,2.6a18.277,18.277,0,0,0,2.6-5.518c-1.831-1.63-6.268-.656-6.49-3.9,2.446-.763,4.625,1.389,7.14,1.624,1.08-.977.924-3.186,1.623-4.545-1.469-1.235-6.362.95-6.816-1.3.578-2.018,4.689-.5,6.816-.974.725-.9.672-2.574.649-4.219-2.837-.194-6.458.4-8.763-.325.248-3.106,5.7-1.009,8.439-1.623.744-.662.119-2.7.324-3.9-2.787-.589-6.831,1.16-7.789-.649.557-2.364,4.96-.879,7.465-1.3C980.693,1309.45,981.7,1306.5,983.792,1308.429Z" transform="translate(-782.91 -1203.255)"/><path class="e" d="M718.145,1311.038c.413,2.2.082,6.314-1.3,7.79-2.558-.812-.5-5.959,0-7.79Z" transform="translate(-652.611 -1205.541)"/><path class="e" d="M692.5,1323.2c2.16.693,3.248,4.047,2.921,6.166C692.74,1329.228,691.481,1324.947,692.5,1323.2Z" transform="translate(-636.049 -1214.129)"/><path class="e" d="M745.011,1325.145c-1.207,1.619-4.253,1.9-6.493,2.6s-4.818,1.98-6.492.974c.335-2.274,3.885-2.527,6.166-3.245C740.284,1324.811,743.468,1322.977,745.011,1325.145Z" transform="translate(-664.219 -1214.78)"/><path class="e" d="M637.578,1342.863c-.048,1.927-2.259.854-3.572.975-2.766.253-6.125,1.215-8.115.972-.176-2.771,3.958-2.972,7.465-2.92C635.187,1341.917,637.2,1341.495,637.578,1342.863Z" transform="translate(-589.244 -1227.304)"/><path class="e" d="M1722.794,1345.3h.974c7.459,11.751,15.235,23.635,24.342,33.756,7.951,8.837,17.914,15.736,32.458,18.176,1.672.28,4.224-.293,5.518,1.622-.74,1.744-4.317.934-6.169.651-22.864-3.5-34.61-19.121-46.089-35.054-4.129-5.729-9.126-12.448-11.36-18.175C1722.376,1345.752,1722.775,1345.718,1722.794,1345.3Z" transform="translate(-1363.844 -1229.745)"/><path class="e" d="M758.152,1353.042c2.451.144,5.374-.185,6.814.975-.275,2.634-5.309.88-6.814.649A2.01,2.01,0,0,1,758.152,1353.042Z" transform="translate(-682.554 -1235.211)"/><path class="e" d="M721.611,1359.633c-2.01.739-4.361-.774-6.168-1.3v-1.3C717.617,1356.547,721.543,1356.95,721.611,1359.633Z" transform="translate(-652.505 -1237.907)"/><path class="e" d="M685.139,1358.508c-.982,2.7-2.477,4.879-5.192,5.842C679.456,1361.587,682.488,1358.143,685.139,1358.508Z" transform="translate(-627.394 -1239.054)"/><path class="e" d="M641.168,1364.829c-.056,2.354-2.982,3.125-4.546,4.219-1.505,1.057-3.127,3.423-5.193,2.6.1-2.2,2.716-3.5,4.221-4.544C637.185,1366.039,639.2,1364.113,641.168,1364.829Z" transform="translate(-593.159 -1243.428)"/><path class="e" d="M750.706,1378.328c-2.025.823-2.852-1.937-4.219-2.922-1.52-1.1-3.526-.977-4.544-2.6-.09-.526.306-.56.324-.975C745.738,1372.065,750.207,1374.05,750.706,1378.328Z" transform="translate(-671.215 -1248.486)"/><path class="e" d="M702.758,1374.048c.457,2.342-.234,7.953-2.271,7.789-1.254-.09-.486-2.19-.325-3.245a10.043,10.043,0,0,1,1.622-4.543Z" transform="translate(-641.442 -1250.05)"/><path class="e" d="M1505.208,1375.413c-.209,2.036-2.685,1.688-3.9,2.271-2.693,1.294-4.119,3.866-6.816,5.193C1493.269,1379.341,1501.821,1373.579,1505.208,1375.413Z" transform="translate(-1202.733 -1250.766)"/><path class="e" d="M1450.132,1386.651c-2.332-.063-6.793-1.766-8.437-3.892-.052-.379.072-.579.323-.651s.325-.325.65-.325c1.26.811,3.025.906,4.543,1.624C1448.439,1383.987,1450.385,1384.708,1450.132,1386.651Z" transform="translate(-1165.512 -1255.513)"/><path class="e" d="M658.261,1391.732c.42,2.069-1.391,4.19-2.271,6.493-.776,2.031-.772,5.788-3.571,5.842-.175-4.412,2.669-8.568,4.218-12.335Z" transform="translate(-607.981 -1262.541)"/><path class="e" d="M740.867,1398.363h.65c2.137.93,2.708,5.036,2.272,7.466C741.028,1405.31,740.88,1400.561,740.867,1398.363Z" transform="translate(-670.464 -1267.226)"/><path class="e" d="M714.543,1403.9h.975c.354,1.927,2.538,5.7.65,6.815C714.081,1410.153,713.8,1406.221,714.543,1403.9Z" transform="translate(-651.605 -1271.134)"/><path class="e" d="M686.121,1410.525c.451,2.549-.178,8.448-2.274,8.44-1.292-.417-.508-2.3-.322-3.571.208-1.452.843-3.036.971-4.219.082-.354.648-.221.651-.65Z" transform="translate(-629.672 -1275.817)"/><path class="e" d="M866.9,1470.22c4.9.721,9.331,1.919,12.006,4.87-4.189.272-7.52-3.067-12.006-3.571Z" transform="translate(-759.49 -1317.984)"/><path class="e" d="M859.247,1502.271c-1.791.823-2.795-1.031-4.544-1.623-4.86-1.644-11.4-1.06-16.553-2.6v-.973c.262-.062.323-.326.65-.323,3.2.514,8.172.717,12.008,1.3C854.25,1498.572,858.22,1499.465,859.247,1502.271Z" transform="translate(-739.184 -1336.728)"/><path class="e" d="M853.568,1532.585c-2.509.423-5.747-.914-9.414-1.3-2.488-.26-5.261.3-7.14-.974-.052-.377.072-.578.325-.649a55.179,55.179,0,0,1,12.658.649C851.556,1530.668,853.5,1531.171,853.568,1532.585Z" transform="translate(-738.374 -1359.901)"/><path class="e" d="M578.308,1544.586c-1.157,2.046-3.778,2.232-5.844,3.246-1.925.947-3.806,2.3-5.842,2.922.288.577.906.823.65,1.946,1.559.319,4.34-2.517,6.818-1.3-.637,2.718-4.485,2.224-6.493,3.57-.171,1.363.569,1.814.65,2.921,2.51-.465,4.721-4.14,7.14-2.6-.1,2.216-4.279,3.048-6.168,4.546,1.06,1.1,1.334,4.112,2.6,4.218,1.537.13,4.654-7.967,7.466-6.167.238,1.42-1.363,2.5-2.6,3.9-2.525,2.857-4.02,3.516,0,5.518,2.118-1.342,1.384-5.541,4.543-5.843.844,2.424-1.7,4.092-1.947,6.492,1.038.908,3.033.861,4.544,1.3,1.783-2,1.105-6.466,4.217-7.139.914,2.493-1.265,4.528-1.622,6.815,1.093.756,2.256-1.193,4.218-.648.877-2.478.4-6.308,2.922-7.141,1.623,1.128-.011,2.975-.326,4.22-2.606,10.379-5.927,21.9-7.464,33.431-.142,1.067.793,3.514-.972,3.9-1.989-.128-1.331-2.812-1.3-3.9.11-3.891,1.456-8.594,2.271-12.333,1.2-5.485,2.72-10.865,3.9-15.58-.642-.409-2.245.988-3.9.648-1.086,1.081-.422,3.9-2.921,3.571-.927-1.165.43-2.214.324-3.571-1.37-.685-3.634-.476-4.867-1.3-1.567,1.053-1.606,4.915-4.218,3.894.1-2.062,1.138-3.188,1.946-4.544-.747-1.093-2.359-1.321-3.245-2.271-1.564.276-.954,2.724-3.248,2.271-1.011-1.414.624-2.49.976-3.571-.758-1.731-2.34-2.637-2.922-4.543-1.487.235-2.021,2.821-3.9,1.622.035-2.238,1.949-2.594,2.921-3.894a17.53,17.53,0,0,1-.972-2.921c-2.256.179-3.506,2.911-5.844,1.946.106-3.787,5.688-2.1,5.518-6.166-7.934,3.385-15.072,8.859-22.071,14.281-6.959,5.391-13.607,10.938-19.15,17.852-13.346,16.654-22.319,38.336-20.772,68.159a97.811,97.811,0,0,0,2.922,18.177c.377,1.557,1.521,3.595.322,5.194-2.147-.424-2.16-3.139-2.6-4.869-2.465-9.809-3.434-23.038-2.6-36.027a91.749,91.749,0,0,1,8.764-32.783,98.532,98.532,0,0,1,27.589-34.4c9.467-7.473,19.3-14.552,31.483-20.449,2.4-1.16,5.37-3.054,6.817-3.246A1.851,1.851,0,0,1,578.308,1544.586Z" transform="translate(-501.087 -1369.956)"/><path class="e" d="M844.889,1560.146c-.634,2.138-2.9,1.051-4.542.974-3.744-.177-8.57-.855-11.036-2.272v-.973c.261-.062.321-.325.649-.325,2.364.507,5,1.688,8.114,1.947C840.309,1559.684,843,1558.886,844.889,1560.146Z" transform="translate(-732.94 -1379.672)"/><path class="e" d="M1564.614,1659.194a1.431,1.431,0,0,1-1.3.651C1563.394,1659.275,1563.875,1659.1,1564.614,1659.194Z" transform="translate(-1251.43 -1451.457)"/><path class="e" d="M1560.639,1663.673a34.1,34.1,0,0,1,2.274,4.869c.692,1.539,2.052,3.276,1.622,4.868-2.484-.129-4.38-3.346-4.543-5.843C1559.9,1666.241,1560.868,1665.036,1560.639,1663.673Z" transform="translate(-1249.079 -1454.637)"/><path class="e" d="M1686.963,1744.373c1.72.282.832,2.388.971,3.246a127.38,127.38,0,0,0,16.878,45.764,174.636,174.636,0,0,0,21.423,28.562,128.313,128.313,0,0,0,11.685,11.036c.89.769,2.527,1.714,1.947,3.247-2.324.59-4.095-1.66-5.518-2.922a153.249,153.249,0,0,1-12.982-13.632c-5.547-6.315-11.05-12.7-15.58-20.123-4.345-7.119-8.93-14.708-12.335-23.368-3.733-9.5-6.963-18.947-7.465-30.834-.092-.525.306-.559.325-.974Z" transform="translate(-1338.075 -1511.642)"/><path class="e" d="M756.541,1788.578c1.759.675,1.331,2.846,1.625,4.219,9.9,46.422,19.655,95.243,29.536,142.163,35.405-8.622,70.924-17.528,106.136-26.939,2.244-.6,4.844-1.894,7.139-.325-.838,2.373-4.652,2.021-6.815,2.6-20.748,5.513-43.494,11.548-64.914,16.879-11.9,2.961-24.248,6.469-36.354,9.088-2.393.518-4.7,1.386-7.14,1.3-1.436-5.975-2.34-12.045-3.571-18.175-7.356-36.666-15.508-73.768-23.046-111.329-1.253-6.241-2.966-12.258-3.893-18.5C755.526,1789.077,755.73,1788.522,756.541,1788.578Z" transform="translate(-680.62 -1542.865)"/><path class="e" d="M1203.558,1884.164c-1.581.317-3.3-1-4.543-1.948-7.721-5.834-8.857-20.082-18.175-24.992.142-.288.286-.58.649-.649.287-.2.58-.391.648,0,3.478,2.113,6.331,5.929,8.439,9.413,2.654,4.385,4.41,10.914,8.439,14.282C1200.5,1881.512,1202.94,1881.829,1203.558,1884.164Z" transform="translate(-981.255 -1590.74)"/><path class="e" d="M1376.527,1898.847c-.538,2.674-4.994,1.592-7.464,1.3a221.67,221.67,0,0,1-23.693-4.218c-10.359-2.427-21.234-3.83-28.564-8.764v-.974c.263-.062.324-.326.649-.325,15.841,6.01,35.724,9.886,55.5,12.335C1374.059,1898.334,1375.6,1897.662,1376.527,1898.847Z" transform="translate(-1077.301 -1611.588)"/><path class="e" d="M1159.831,1917.121c-2.184.219-3.332-2.132-4.868-3.245-4.8-3.479-11.57-5.83-19.475-6.816v-.649c-.052-.377.071-.577.325-.65a39.074,39.074,0,0,1,20.122,7.141C1157.41,1913.975,1159.473,1915.24,1159.831,1917.121Z" transform="translate(-949.21 -1625.644)"/><path class="e" d="M1155.758,1958.228c-1.8,1.5-3.664-.848-5.194-1.624-5.24-2.658-12.692-3.308-19.475-4.544v-.974C1140.071,1951.415,1150.325,1953.27,1155.758,1958.228Z" transform="translate(-946.112 -1657.661)"/><path class="e" d="M1430.724,1975.408c-.318,12.435,3.755,21.608,8.113,29.861,1.108,2.094,3.107,4.469,2.6,7.14-2.4-.317-3.236-3.061-4.219-4.869a55.011,55.011,0,0,1-2.921-6.165c-24.2-7.73-52.719-12.831-82.118-14.282.968-3.348,6.456-1.858,9.739-1.624a359.533,359.533,0,0,1,70.433,12.659c-1.355-5.391-4.763-14.88-2.6-22.72Z" transform="translate(-1102.285 -1674.842)"/><path class="e" d="M1700.236,2000.829c2.124.508,1.614,3.209,1.949,4.544,5.312,21.226,20.032,37.1,35.7,48.687,1.295.954,2.517,1.76,3.9,2.6,1.144.693,2.934,1.279,3.246,2.919-.951,1.531-3.768-.014-4.868-.648-3.759-2.159-7.385-5.889-10.714-8.763-4.649-4.019-9.575-8.008-13.307-12.658a85.957,85.957,0,0,1-16.876-35.378c-.06-.276.128-.3.322-.324v-.975Z" transform="translate(-1347.455 -1692.799)"/><path class="e" d="M1158.759,2008.763c-1.212,1.91-5.284.455-8.113.324-3.706-.172-7.649.373-10.711-.324v-.975c.264-.061.324-.324.65-.324,3.08.44,7.987.147,12.01.324C1154.779,2007.884,1157.226,2007.852,1158.759,2008.763Z" transform="translate(-952.36 -1697.486)"/><path class="e" d="M1305.431,2126.237c-3.293-.158-5.771-2.915-8.115-4.869-7.1-5.927-13.748-12.562-20.771-19.15a261.489,261.489,0,0,1-19.474-20.448c-2.244-2.632-4.5-5.522-5.518-8.113-.09-.525.306-.559.324-.975h.65c1.788.513,1.965,2.592,2.923,3.9a128.211,128.211,0,0,0,9.41,10.711c8.532,9.144,17.787,17.751,27.264,26.29,3.568,3.213,6.64,6.385,10.711,9.413C1303.685,2123.623,1306.351,2124.216,1305.431,2126.237Z" transform="translate(-1031.196 -1743.555)"/><path class="e" d="M744.185,2160.583c1.086-1.92,3.244-.68,4.544-1.3,3.519-1.672.618-6.86-2.918-7.465-.054-.377.071-.578.323-.648,3.147-.051,6.634,3.338,5.517,7.14C750.929,2160.774,746.789,2161.839,744.185,2160.583Z" transform="translate(-672.808 -1798.999)"/><path class="e" d="M751.01,2201.158a4.886,4.886,0,0,1,1.947,6.492c-1.62,1.229-7.994,1.852-9.087-.324,2.586-.736,5.766,1.114,8.115-.649,2-6.422-8.152-3.247-10.064-6.816,2.211-.744,5.272,1.675,8.114.323-.595-4.6-4.8-5.587-8.114-7.464-.119-.553.254-.614.649-.65,4.736.781,7.407,3.629,9.089,7.465C751.709,2200.342,751.15,2200.54,751.01,2201.158Z" transform="translate(-671.193 -1827.888)"/><path class="e" d="M766.478,2258.846c-1.012.268-4.073.9-4.544-.325,0-2.115,2.567.245,3.569-.973.048-3.617-2.235-4.9-5.843-4.869v-.649c.494-1.16,2.327-.769,2.922-.649,1.9.382,3.19,2.845,4.22,3.57A10.845,10.845,0,0,1,766.478,2258.846Z" transform="translate(-683.74 -1869.672)"/><path class="e" d="M1745,2263.073c.087,2.618-3.384,3.268-5.518,4.22a74.377,74.377,0,0,1-26.29,6.167c-1.828.1-5.352,1.379-6.169-.974,1.179-1.865,3.891-.843,6.491-.974,11.473-.571,21.693-4.833,30.185-8.762C1744.381,2262.612,1744.563,2262.971,1745,2263.073Z" transform="translate(-1352.946 -1877.794)"/><path class="e" d="M1423,1393.14a35.379,35.379,0,0,0,2.272-4.543c.591-1.292.779-3.748,2.921-3.571.095,4.07-2.388,7.444-3.9,11.036-7.491,17.863-14.016,36.587-25.315,51.931-3.789,5.143-13.749,18.078-22.722,10.711-11.345-9.315-9.8-39.205-8.114-59.071,1.364-16.072,3.061-31.62,6.493-45.44,1.172-4.731,2.151-9.284,3.894-13.308,2.574.691.839,3.334.648,4.869a428.564,428.564,0,0,0-2.6,42.843,165.265,165.265,0,0,0,.974,24.992c.877,6.52,3.719,15.326,9.736,16.229,3.755.562,8.165-1.959,10.711-3.9,12.951-9.843,20.511-27.108,26.94-44.14,4.5-11.928,8.645-23.983,13.632-36.028.534-1.29.745-4.023,2.922-3.9-.006,4.03-2.175,8.17-3.572,12.01C1433.151,1367.023,1427.989,1379.8,1423,1393.14Zm-52.581,47.065c1.017,7.589,4.574,18,11.36,18.5,5.088.375,11.2-6.134,14.282-10.06a99.072,99.072,0,0,0,9.41-15.256c3.142-5.921,5.447-11.6,7.792-16.877,2.6-5.856,5.193-11.493,7.466-17.2.585-1.474,1.228-2.528.971-3.572-4.738,11.53-13.444,26.222-24.017,33.107a19.9,19.9,0,0,1-6.165,2.922c-6.15,1.343-9.528-1.765-12.011-5.192-5.01-6.919-5.192-19.457-5.192-32.132s1.254-25.656,1.3-35.7C1372.632,1383.129,1366.664,1412.105,1370.424,1440.2Zm51.932-45.117c.232-.268,1.016-2.1.324-1.3C1422.448,1394.057,1421.663,1395.89,1422.356,1395.088Z" transform="translate(-1112.742 -1226.624)"/></g><g transform="translate(92.653 251.983)"><path class="c" d="M976.842,1747.556c4.867-.611,10.029,3.971,7.464,9.737-2.829,6.367-14.567,5.306-14.6-2.6C969.677,1750.082,972.573,1748.091,976.842,1747.556Z" transform="translate(-923.517 -1747.502)"/><path class="c" d="M1064.292,1795.731c10.669-2.394,10.111,13.492,1.622,14.282-4.043.375-7.926-2.068-7.789-7.142A7.48,7.48,0,0,1,1064.292,1795.731Z" transform="translate(-985.976 -1781.397)"/><path class="c" d="M818.991,1802.607c10.089-1.811,10.853,13.86,2.6,14.931-4.883.632-9.937-3.017-9.087-8.765A7.53,7.53,0,0,1,818.991,1802.607Z" transform="translate(-812.406 -1786.325)"/><path class="c" d="M919.164,1849.974c8.082-1.713,10.541,7.235,6.164,11.685-4.4,4.476-11.981.94-12.008-4.869C913.3,1852.648,915.625,1850.723,919.164,1849.974Z" transform="translate(-883.691 -1819.735)"/><path class="c" d="M1013.413,1904.445a6.687,6.687,0,0,1,5.842,1.623c3.143,3.144,2.217,9.591-.324,11.684-4.456,3.674-12.1.137-11.682-6.816A6.766,6.766,0,0,1,1013.413,1904.445Z" transform="translate(-950.029 -1858.302)"/><path class="c" d="M859.4,1955.028c8.546-1.918,11.531,10.467,4.22,12.982-2.1.722-5.734.3-7.468-1.3a7.5,7.5,0,0,1-1.946-7.142A7,7,0,0,1,859.4,1955.028Z" transform="translate(-841.781 -1893.953)"/><path class="c" d="M953.7,2000.314c4.015-.9,7.147,1.155,8.115,3.9,1.457,4.129-.515,9.208-3.9,10.386C948.288,2017.951,944.482,2002.385,953.7,2000.314Z" transform="translate(-908.491 -1925.933)"/><path class="c" d="M1061.019,2032.811c4.827-.472,9.554,4.133,7.143,10.71-1.151,3.134-6.68,5.786-10.713,2.6-3-2.378-3.315-8.455-1.3-11.035C1057.254,2033.673,1058.619,2033.045,1061.019,2032.811Z" transform="translate(-983.678 -1949.017)"/><path class="c" d="M1150.388,2089.07c9.464-1.323,10.363,13.631.973,13.631C1143.716,2102.7,1141.513,2090.307,1150.388,2089.07Z" transform="translate(-1047.079 -1988.722)"/><path class="c" d="M875.379,2093.183c6.813-1.624,12.158,6.556,6.491,11.686A6.939,6.939,0,0,1,870.183,2100C870.028,2096.029,872.08,2093.97,875.379,2093.183Z" transform="translate(-853.213 -1991.538)"/><path class="c" d="M989.614,2131.86a7.007,7.007,0,0,1,8.44,9.087c-1.344,3.939-8.733,5.92-12.008,1.948C983.133,2139.365,984.635,2133.093,989.614,2131.86Z" transform="translate(-934.019 -2018.855)"/><path class="c" d="M1089.4,2145.112c11.207-2.338,10.238,14.769.651,14.607C1081.229,2159.571,1081.773,2146.7,1089.4,2145.112Z" transform="translate(-1003.943 -2028.213)"/><path class="c" d="M902.492,2204.075c2.835-.434,8.083,1.309,9.414,4.219,4.9,10.706-14.39,13.344-15.254,3.244C896.329,2207.777,898.089,2204.749,902.492,2204.075Z" transform="translate(-871.89 -2069.973)"/></g></g></g></svg>