<svg xmlns="http://www.w3.org/2000/svg" width="82.885" height="28.757" viewBox="0 0 82.885 28.757"><g transform="translate(0 0)"><g transform="translate(31.26 7.456)"><path d="M1338.237,599.224a5.261,5.261,0,0,0-5.335,5.335,5.377,5.377,0,0,0,5.5,5.457,5.264,5.264,0,0,0,4.988-3.311l-2.78-.47a2.586,2.586,0,0,1-2.187,1.1c-1.369,0-2.33-.715-2.371-1.8h7.522v-.777A5.311,5.311,0,0,0,1338.237,599.224Zm-2.187,4.17c.041-.777,1.042-1.492,2.187-1.492a2.016,2.016,0,0,1,2.167,1.492Z" transform="translate(-1332.902 -596.648)" fill="#fff"/><path d="M1389.617,603.365l-2.105-2.773h-3.617v.164l3.8,4.926-3.475,4.967v.164h3.556l1.84-2.624,1.84,2.624h3.577v-.2l-3.434-4.926,3.781-4.926v-.164h-3.659Z" transform="translate(-1373.224 -597.73)" fill="#fff"/><path d="M1443.556,586.915h-.634l-4.129,5.355v.286h1.574v1.492c0,3.986,3.066,6.091,6.541,6.091v-3.127c-1.778-.021-3.393-.9-3.393-2.964v-1.492h3.393v-2.78h-3.352Z" transform="translate(-1416.637 -586.915)" fill="#fff"/><path d="M1491.155,601.745h-.02v-2l-3.107-.02v10.24h3.107v-2.821a4.591,4.591,0,0,1,4.721-4.762l-.981-2.862A4.488,4.488,0,0,0,1491.155,601.745Z" transform="translate(-1455.569 -596.88)" fill="#fff"/><path d="M1535.366,599.352v.982a4.349,4.349,0,0,0-3.144-1.249,5.149,5.149,0,0,0-4.828,5.382c0,3.04,2.239,5.444,4.828,5.444a4.259,4.259,0,0,0,3.144-1.323v1.036h2.958V599.352Zm-2.342,7.724a2.6,2.6,0,0,1,0-5.2,2.613,2.613,0,0,1,0,5.2Z" transform="translate(-1486.699 -596.539)" fill="#fff"/></g><g transform="translate(0 0)"><path d="M1278.078,616.693l-3.476,2.526,3.762,11.577,3.476-2.526Z" transform="translate(-1255.541 -603.006)" fill="#0af"/><path d="M1218.542,647.5l-6.372,4.629-3.476-2.525,9.848-7.155,9.848,7.155-3.477,2.525Z" transform="translate(-1203.424 -623.377)" fill="#7a1dff"/><path d="M1189.851,594.568" transform="translate(-1188.523 -585.511)" fill="none" stroke="#0af" stroke-miterlimit="10" stroke-width="0.75"/><path d="M1184.833,594.568l9.848,7.155-3.761,11.577-3.476-2.526,2.434-7.49-6.372-4.629Z" transform="translate(-1183.505 -585.511)" fill="#f72163"/><path d="M1321.667,594.568" transform="translate(-1292.758 -585.511)" fill="none" stroke="#0af" stroke-miterlimit="10" stroke-width="0.75"/><path d="M1195.142,558.772l2.434-7.49h4.3l-3.762,11.577h-12.173l1.328-4.086Z" transform="translate(-1185.429 -551.282)" fill="#fd5601"/><path d="M1256.157,558.772l-2.434-7.49h-4.3l3.762,11.577h12.173l-1.328-4.086Z" transform="translate(-1235.633 -551.282)" fill="#ffc208"/><path d="M1244.275,591.165l-1.327-4.086-13.282,9.649-5.577-4.052-1.328,4.086,6.9,5.017Z" transform="translate(-1214.547 -579.589)" fill="#9de411"/></g></g></svg>