<svg xmlns="http://www.w3.org/2000/svg" width="15" height="10" viewBox="0 0 15 10"><defs><style>.a{fill:#fff;}</style></defs><path class="a" d="M14.741,16.285a1.866,1.866,0,0,0-1.622-1.41,52.681,52.681,0,0,0-5.617-.2,52.69,52.69,0,0,0-5.617.2,1.866,1.866,0,0,0-1.621,1.41A14.712,14.712,0,0,0,0,19.676a14.707,14.707,0,0,0,.261,3.391,1.866,1.866,0,0,0,1.621,1.41,52.644,52.644,0,0,0,5.617.2,52.634,52.634,0,0,0,5.617-.2,1.867,1.867,0,0,0,1.621-1.41A14.7,14.7,0,0,0,15,19.676,14.709,14.709,0,0,0,14.741,16.285ZM5.564,21.9V17.158l4.769,2.38Z" transform="translate(0 -14.676)"/></svg>