<svg xmlns="http://www.w3.org/2000/svg" width="49.376" height="71.833" viewBox="0 0 49.376 71.833"><defs><style>.a{fill:none;stroke:#0d2a42;stroke-linecap:round;stroke-linejoin:round;stroke-width:1.5px;}</style></defs><g transform="translate(-1011.369 -4470.234)"><path class="a" d="M1033.34,4570.634v20.175a2.486,2.486,0,0,1-1.677,2.361,27.814,27.814,0,0,1-17.834.008,2.5,2.5,0,0,1-1.706-2.372v-20.172a29.6,29.6,0,0,0,21.217,0Z" transform="translate(-0.002 -53.325)"/><path class="a" d="M1034.843,4485.165v12.024a26.574,26.574,0,0,1-10.377.02v-15.742a2.1,2.1,0,0,1,.622-1.491c1.824-1.791,6.469-6.226,7.42-8.993C1032.508,4470.984,1034.756,4472.454,1034.843,4485.165Z" transform="translate(-6.607)"/><path class="a" d="M1046.787,4527.287l.066-.012a2.212,2.212,0,0,1,2.644,2.182V4540h.214a2.179,2.179,0,0,1,2.178,2.178v5.229" transform="translate(-18.552 -30.099)"/><path class="a" d="M1012.119,4547.411v-5.229A2.179,2.179,0,0,1,1014.3,4540h.733v-10.541a2.222,2.222,0,0,1,2.668-2.178c.053.012.107.02.16.028" transform="translate(0 -30.104)"/><path class="a" d="M1018.386,4554.7a23.891,23.891,0,0,0,15.912,0" transform="translate(-3.354 -44.798)"/><path class="a" d="M1069.668,4569.333a2.568,2.568,0,0,0,2.214,2.456,48.375,48.375,0,0,0,16.544,0,2.573,2.573,0,0,0,2.228-2.46v-37.254a2.967,2.967,0,0,0-3.1-2.815h-14.788a2.967,2.967,0,0,0-3.1,2.815Z" transform="translate(-30.796 -31.186)"/><path class="a" d="M1106.982,4581.853c1.31-.167,2.527-.374,3.642-.6" transform="translate(-50.763 -59.009)"/><path class="a" d="M1069.663,4581.018a52.709,52.709,0,0,0,10.564,1.127q1.116,0,2.178-.038" transform="translate(-30.793 -58.882)"/><path class="a" d="M1088.761,4595.246q.827.029,1.686.033a50.925,50.925,0,0,0,10.426-1.018" transform="translate(-41.013 -65.969)"/><path class="a" d="M1069.663,4594.023c1.081.231,2.265.445,3.54.625" transform="translate(-30.793 -65.841)"/></g></svg>