<svg xmlns="http://www.w3.org/2000/svg" width="326.27" height="84.132" viewBox="0 0 326.27 84.132"><g transform="translate(-1183.505 -551.282)"><g transform="translate(1274.958 573.095)"><path d="M1348.509,599.224a15.393,15.393,0,0,0-15.607,15.607,15.73,15.73,0,0,0,16.085,15.966c6.877,0,12.917-4.425,14.592-9.687l-8.133-1.376a7.566,7.566,0,0,1-6.4,3.229c-4.007,0-6.817-2.093-6.936-5.262h22.006v-2.272C1364.117,606.34,1357.6,599.224,1348.509,599.224Zm-6.4,12.2c.119-2.272,3.05-4.365,6.4-4.365,3.469,0,6.1,2.033,6.339,4.365Z" transform="translate(-1332.902 -591.689)" fill="#fff"/><path d="M1400.638,608.706l-6.159-8.115h-10.584v.478l11.122,14.411-10.166,14.531v.478h10.4l5.382-7.675,5.382,7.675h10.465v-.6l-10.046-14.411L1417.5,601.07v-.478h-10.7Z" transform="translate(-1352.679 -592.219)" fill="#fff"/><path d="M1452.727,586.915h-1.854l-12.079,15.667v.837h4.6v4.366c0,11.66,8.97,17.82,19.136,17.82v-9.149c-5.2-.06-9.926-2.631-9.926-8.671v-4.366h9.926v-8.132h-9.807Z" transform="translate(-1373.972 -586.915)" fill="#fff"/><path d="M1497.177,606.035h-.059v-5.86l-9.089-.059v29.959h9.089v-8.252c0-8.91,6.7-13.933,13.813-13.933l-2.87-8.372C1504.771,599.517,1499.21,601.729,1497.177,606.035Z" transform="translate(-1393.067 -591.803)" fill="#fff"/><path d="M1550.715,599.866v2.873a12.718,12.718,0,0,0-9.2-3.654c-7.573,0-14.124,6.912-14.124,15.747,0,8.9,6.551,15.928,14.124,15.928a12.457,12.457,0,0,0,9.2-3.872v3.03h8.655V599.866Zm-6.852,22.6a7.6,7.6,0,0,1,0-15.206c4.147,0,6.852,3.366,6.852,7.573C1550.715,619.1,1548.01,622.465,1543.863,622.465Z" transform="translate(-1408.336 -591.635)" fill="#fff"/><rect width="9.496" height="9.556" transform="translate(155.422 28.726)" fill="#fff"/><path d="M1630.538,599.866v2.877a12.714,12.714,0,0,0-9.2-3.658c-7.573,0-14.124,6.912-14.124,15.747,0,8.895,6.551,15.927,14.124,15.927A12.41,12.41,0,0,0,1630,627.41v2.327c0,3.186-3.005,5.89-7.032,5.89a7.393,7.393,0,0,1-6.31-3.246l-8.294,1.5c1.683,5.29,7.753,9.737,14.665,9.737a15.81,15.81,0,0,0,16.167-16.048V599.866Zm-6.852,22.6a7.6,7.6,0,0,1,0-15.206c4.147,0,6.852,3.366,6.852,7.573C1630.538,619.1,1627.833,622.465,1623.686,622.465Z" transform="translate(-1439.295 -591.635)" fill="#fff"/><path d="M1687.3,611.248c-.241-2.344-2.885-4.387-6.371-4.387-3.366,0-6.311,2.1-6.431,4.387Zm-12.8,6.311c.12,3.186,2.945,5.289,6.972,5.289a7.6,7.6,0,0,0,6.431-3.246l8.173,1.382c-1.683,5.289-7.753,9.737-14.665,9.737a15.81,15.81,0,0,1-16.167-16.048,15.471,15.471,0,0,1,15.687-15.686c9.135,0,15.686,7.152,15.686,16.288v2.284Z" transform="translate(-1461.801 -591.597)" fill="#fff"/></g><g transform="translate(1183.505 551.282)"><path d="M1284.772,616.693l-10.17,7.389,11,33.869,10.17-7.388Z" transform="translate(-1218.837 -576.651)" fill="#0af"/><path d="M1237.5,657.231l-18.641,13.543-10.17-7.389,28.811-20.932,28.811,20.932-10.17,7.389Z" transform="translate(-1193.274 -586.643)" fill="#7a1dff"/><path d="M1189.851,594.568" transform="translate(-1185.966 -568.07)" fill="none" stroke="#0af" stroke-miterlimit="10" stroke-width="0.75"/><path d="M1187.39,594.568,1216.2,615.5l-11,33.869-10.17-7.388,7.12-21.914L1183.5,606.523Z" transform="translate(-1183.505 -568.07)" fill="#f72163"/><path d="M1321.667,594.568" transform="translate(-1237.091 -568.07)" fill="none" stroke="#0af" stroke-miterlimit="10" stroke-width="0.75"/><path d="M1212.864,573.2l7.121-21.914h12.571l-11.005,33.869h-35.612l3.885-11.955Z" transform="translate(-1184.449 -551.282)" fill="#fd5601"/><path d="M1269.118,573.2,1262,551.282h-12.57l11.005,33.869h35.612l-3.885-11.955Z" transform="translate(-1209.073 -551.282)" fill="#ffc208"/><path d="M1285.7,599.034l-3.885-11.955-38.856,28.23-16.316-11.854-3.884,11.955,20.2,14.676Z" transform="translate(-1198.73 -565.166)" fill="#9de411"/></g></g></svg>