<svg xmlns="http://www.w3.org/2000/svg" width="30" height="30" viewBox="0 0 30 30"><defs><style>.a{fill:#0a475b;fill-rule:evenodd;opacity:0.7;}</style></defs><path class="a" d="M15.877.877a15,15,0,1,0,15,15A15,15,0,0,0,15.877.877Zm-12.848,15A12.848,12.848,0,1,1,15.877,28.725,12.848,12.848,0,0,1,3.029,15.877ZM17.576,9.083a1.7,1.7,0,1,1-1.7-1.7A1.7,1.7,0,0,1,17.576,9.083Zm-5.1,3.4h3.4a1.132,1.132,0,0,1,1.132,1.132V21.54h2.265V23.8H12.48V21.54h2.265V14.745H12.48Z" transform="translate(-0.877 -0.877)"/></svg>