<svg xmlns="http://www.w3.org/2000/svg" width="334.163" height="273.224" viewBox="0 0 334.163 273.224"><g transform="translate(-1005.781 -1033.482)"><g transform="translate(1005.781 1033.482)"><path d="M3012.808,383.059l-.007.021c-1.048,3.028-1.237,6.477-3.02,9.217a6.311,6.311,0,0,1-3.939,2.874c-7.575,1.454-8.949-10.239-7.373-15.09,2.167-6.668,11.295-12.255,18.177-12.492a5.588,5.588,0,0,1,5,2.326c1.72,2.811-.786,4.592-2.8,6C3016.15,377.8,3013.921,379.86,3012.808,383.059Z" transform="translate(-2762.578 -367.585)" fill="#e14c00"/><path d="M2137.141,676.724a74.683,74.683,0,0,0,14,6.017c19.458,6.08,39.185-.708,58.573-4.262,39.932-7.322,40.383-9.433,61.706-11.506,30.106-2.927,45.16-4.391,60.24-1.467,9.382,1.819,25.781,6.119,46.816,2.019a58.2,58.2,0,0,0,10.042-2.6c23.1-8.6,32.173-39.368,34.1-45.882,18.028-61.117-26.474-158.246-103.175-183.858-9.952-3.323-43.6-14.561-79.132-1.056-28.4,10.793-44.1,38.472-59.386,63.84-8.151,13.529-16.545,27.055-27.193,38.629-13.875,15.083-35.151,20.379-47.286,37.515-15.823,22.344-10.19,56.389,3.979,77.885A76.771,76.771,0,0,0,2137.141,676.724Z" transform="translate(-2096.899 -411.953)" fill="#e14c00"/><path d="M2359.644,748.422c-27.625,4.348-43.961-.313-49.271-2.008-28.266-9.025-44.269-29.876-53.943-42.479A151.365,151.365,0,0,1,2227.8,639.3c-4.826-26.792-8.471-89.313,22.584-107.736,28.766-17.066,49.918,25.884,121.277,29.938,62.309,3.54,104.984-25.867,137.8,1.106,9.436,7.756,12.722,15.791,13.372,17.449,10.928,27.89-15.278,61.1-32.265,82.626C2476.448,680.579,2431.886,737.052,2359.644,748.422Z" transform="translate(-2191.254 -485.792)" fill="#fd5601"/><path d="M3071.6,424.945a4.376,4.376,0,0,0,1.5,3.725c2.808,2.673,7.648,2.851,10.979,1.646a18.273,18.273,0,0,0,3.837-1.894c.987-.645,1.868-1.317,2.72-1.966a20.96,20.96,0,0,1,3.881-2.547,13.883,13.883,0,0,1,4.145-.671,31.553,31.553,0,0,0,6.609-1.016c4.087-1.2,4.955-3.4,5.108-4.608.558-4.39-6.122-8.277-10.953-9.286-7.049-1.472-14.545.368-18.229,4.475a15.31,15.31,0,0,0-1.952,2.878,11.376,11.376,0,0,1-.992,1.572,15.565,15.565,0,0,1-2.089,1.9,18.082,18.082,0,0,0-3.741,3.729A4.784,4.784,0,0,0,3071.6,424.945Z" transform="translate(-2817.015 -397.316)" fill="#fd5601"/><path d="M2129.853,810.262c-5.8-2.609-11.316-7.948-11.536-14.631-.192-5.836,5.9-16.109,12.741-10.615,2.94,2.361,2.859,6.739,3.107,10.5.378,5.72,3.8,8.559,7.058,12.785a2.565,2.565,0,0,1,.615,1.216C2142.35,813.95,2131.691,811.089,2129.853,810.262Z" transform="translate(-2112.72 -674.838)" fill="#fd5601"/></g><g transform="translate(1045.868 1083.94)"><g transform="translate(0 144.006)"><path d="M531.05,2102.374c0,.2-5.352.393-14.841.561q-2.083.037-4.431.072c-.557.008-1.125.018-1.7.024l-.282,0c-2.746.04-5.728.077-8.928.113q-3.211.035-6.71.069c-24.808.24-60.037.389-99.116.389-41.88,0-79.339-.172-104.287-.442-5.2-.057-9.859-.116-13.9-.181l-1.034-.016q-.647-.008-1.272-.02c-.6-.009-1.183-.022-1.751-.031h-.047c-8.786-.164-13.716-.346-13.716-.541s4.711-.369,13.13-.528l.941-.018q.494-.01,1-.018.883-.016,1.813-.031l.505-.008c3.777-.061,8.108-.119,12.931-.172,24.936-.28,63.017-.459,105.685-.459,39.407,0,74.9.153,99.74.4q3.3.033,6.346.068c3.218.035,6.215.074,8.97.114l.785.012.666.009q2.7.041,5.071.083C525.851,2101.987,531.05,2102.175,531.05,2102.374Z" transform="translate(-259.033 -2101.14)" fill="#ffcce0"/></g><g transform="translate(129.544 25.142)"><path d="M2062.523,1019.424c-1.374,2.068-3.33,3.935-5.773,4.379-2.992.546-5.9-1.126-8.46-2.769s-5.384-3.4-8.4-3.03c-1.386.168-2.682.779-4.061,1a7.326,7.326,0,0,1-4.34-.691,7.224,7.224,0,0,1-2.748-2.327,7.43,7.43,0,0,1-.388-7.693c1.967-3.531,6.275-4.8,8.48-8.13,1.679-2.532,1.655-6.209,5.246-7.068a5.213,5.213,0,0,1,5.069,1.6c.7.819,1.17,1.89,2.115,2.41a3.823,3.823,0,0,0,3.177-.061,21.959,21.959,0,0,1,3.044-1.213,6.159,6.159,0,0,1,4.84,1.152,10.989,10.989,0,0,1,3.2,3.944,17.674,17.674,0,0,1,1.7,5.019A18.637,18.637,0,0,1,2062.523,1019.424Z" transform="translate(-1998.276 -992.956)" fill="#fb446c"/><path d="M2089.743,1109.856c-1.373,2.068-3.33,3.935-5.773,4.379-2.992.545-5.9-1.126-8.46-2.769s-5.384-3.4-8.4-3.03c-1.385.168-2.682.779-4.061,1a7.326,7.326,0,0,1-4.34-.691,7.828,7.828,0,0,1,.037-6.791c.882-1.655,2.416-2.841,3.723-4.185a9.67,9.67,0,0,0,1.69-2.248c.373-.72.387-1.676,1.348-1.078,1.24.771,2.226,1.867,3.545,2.576a16.862,16.862,0,0,0,4.18,1.572,15.958,15.958,0,0,0,8.7-.372c1.768-.6,3.425-1.514,5.214-2.048a7.077,7.077,0,0,1,5.3.2A18.635,18.635,0,0,1,2089.743,1109.856Z" transform="translate(-2025.495 -1083.388)" fill="#c5205c"/><g transform="translate(47.964 16.569)"><path d="M2233.786,1149.24c-.188.147-.4.3-.636.463s-.488.342-.765.523c-.553.366-1.2.745-1.893,1.184q-.527.322-1.105.66c-.385.227-.775.474-1.189.716l-.627.37-.322.188-.323.2c-.432.264-.88.53-1.339.8-.232.131-.458.277-.691.417l-.705.428-.723.43-.726.45-.743.453-.377.226-.374.235c-.1.062-.2.124-.3.185q-.606.379-1.234.756-.764.489-1.519.951l-.377.23-.366.235-.731.458-.723.443q-.355.223-.7.445l-.695.427c-.228.141-.461.274-.681.416-.443.28-.883.546-1.315.8l-.323.188-.314.191q-.312.188-.617.368c-.407.239-.815.459-1.2.678s-.76.425-1.125.615c-.74.374-1.409.717-2.044.984-.316.135-.623.251-.912.354s-.558.193-.816.262a2.7,2.7,0,0,1-2.3-.105c-.46-.365-.526-1.042-.216-1.958a6.53,6.53,0,0,1,.3-.729,8.954,8.954,0,0,1,.455-.8,13.867,13.867,0,0,1,1.331-1.781q.407-.469.874-.961c.313-.328.661-.65,1.019-.985.181-.166.366-.335.555-.5.1-.085.19-.171.289-.255l.3-.249q.612-.5,1.277-1.016c.218-.173.454-.337.688-.5l.716-.5.74-.506.208-.131.57-.359.8-.49.407-.246c.137-.081.278-.158.419-.238q.845-.472,1.724-.943.894-.45,1.777-.873c.147-.07.292-.142.439-.21s.3-.131.444-.2l.882-.384c.292-.124.581-.249.869-.37l.869-.338.854-.323c.282-.1.56-.212.842-.3q.841-.284,1.643-.542l.4-.125c.133-.041.267-.078.4-.116l.778-.219c.512-.139,1-.278,1.486-.392s.948-.216,1.395-.31c.886-.2,1.714-.319,2.441-.419.366-.047.706-.089,1.024-.115s.616-.035.886-.039c1.077-.016,1.735.119,1.892.435S2234.537,1148.652,2233.786,1149.24Z" transform="translate(-2202.552 -1147.431)" fill="#f68895"/></g><path d="M2462.673,1120.975a5.987,5.987,0,0,0-1.443,1.846l1.615,2.633.043-.015a17.158,17.158,0,0,0,2.822.07,23.964,23.964,0,0,0,3.965-.373c.753-.133,1.67-.481,1.638-1.3a1.188,1.188,0,0,0-.283-.7,4.634,4.634,0,0,0-3.4-1.373,13.7,13.7,0,0,1-3.475-.39q.616-.721,1.215-1.456a.3.3,0,0,0-.37-.466A10.734,10.734,0,0,0,2462.673,1120.975Z" transform="translate(-2385.521 -1105.861)" fill="#f68895"/><path d="M2220.952,1220.015q-.606.379-1.234.757-.764.489-1.519.951l-.377.23-.366.235-.731.458-.723.443q-.355.223-.7.445l-.695.427c-.228.141-.461.274-.681.416-.443.28-.883.546-1.315.8l-.323.188-.314.19q-.312.189-.617.368c-.407.239-.815.459-1.2.678s-.76.424-1.125.615c-.74.374-1.409.718-2.044.984-.316.135-.623.251-.912.354s-.558.193-.816.262a2.7,2.7,0,0,1-2.3-.105c-.46-.365-.526-1.042-.216-1.958a6.515,6.515,0,0,1,.3-.73,8.988,8.988,0,0,1,.455-.8,13.877,13.877,0,0,1,1.331-1.781q.407-.468.874-.961c.313-.328.661-.65,1.019-.985.181-.166.366-.335.555-.5.1-.085.19-.172.289-.255l.3-.249q.612-.5,1.277-1.016c.218-.173.454-.336.688-.5l.716-.5.74-.507.208-.131a5.435,5.435,0,0,0,2.889,2.49,8.53,8.53,0,0,0,4.9.18A15.069,15.069,0,0,0,2220.952,1220.015Z" transform="translate(-2154.588 -1193.713)" fill="#f17785"/><g transform="translate(5.672 11.31)"><path d="M1838.07,1119.871a2.7,2.7,0,0,1-2.3-.132c-.25-.095-.512-.211-.785-.345s-.57-.28-.87-.446c-.605-.33-1.235-.742-1.932-1.19q-.517-.341-1.057-.727c-.359-.258-.742-.518-1.121-.8-.19-.139-.384-.282-.577-.428-.1-.074-.194-.147-.292-.222l-.3-.222c-.4-.3-.812-.608-1.224-.931-.2-.164-.422-.32-.635-.484l-.646-.5-.651-.515-.674-.515-.68-.531-.34-.271-.351-.268q-.7-.537-1.412-1.1-.227-.17-.45-.341-.495-.377-.975-.752l-.349-.273-.351-.263-.692-.526-.676-.523-.676-.5-.657-.5c-.218-.165-.427-.332-.644-.488q-.644-.472-1.25-.934l-.3-.228-.3-.22c-.2-.147-.393-.292-.586-.432-.385-.284-.749-.57-1.108-.835s-.7-.522-1.031-.771c-.647-.507-1.25-.95-1.76-1.371-.257-.208-.49-.412-.707-.6s-.415-.361-.586-.527c-.687-.662-.991-1.165-.8-1.463s.857-.365,1.927-.238c.267.031.561.076.877.131s.649.134,1.006.219c.714.174,1.525.381,2.386.667q.65.211,1.355.453c.468.162.942.351,1.438.543l.751.3c.127.051.257.1.384.157l.382.166q.77.338,1.579.708c.272.122.535.257.805.389s.542.272.816.411l.829.424.827.458.836.472.421.242c.141.082.277.169.416.253q.833.513,1.678,1.053c.55.371,1.089.745,1.617,1.115.131.093.264.185.392.28s.253.192.379.286l.743.572.488.382c.08.062.158.123.237.185l.683.579.661.574c.216.192.432.377.632.573q.608.578,1.165,1.142l.276.278c.089.094.176.189.261.284q.257.282.5.559c.323.37.635.725.913,1.084s.533.708.77,1.046a14.016,14.016,0,0,1,1.14,1.909,9,9,0,0,1,.371.838,6.5,6.5,0,0,1,.224.758C1838.7,1118.889,1838.566,1119.556,1838.07,1119.871Z" transform="translate(-1808.263 -1098.4)" fill="#f68895"/></g><path d="M1950.479,1200.922a2.7,2.7,0,0,1-2.3-.133c-.25-.095-.512-.211-.785-.345s-.57-.28-.87-.446c-.605-.329-1.235-.742-1.932-1.19q-.517-.341-1.057-.727c-.36-.258-.742-.517-1.121-.8-.191-.139-.384-.282-.577-.428-.1-.074-.195-.147-.292-.222l-.3-.222c-.4-.3-.812-.608-1.224-.931-.2-.164-.422-.32-.635-.484l-.646-.5-.651-.515-.674-.515-.68-.531-.34-.271-.351-.268q-.7-.537-1.412-1.1l-.45-.341a12.358,12.358,0,0,0,2.368.494,7.643,7.643,0,0,0,6.517-2.262l.236.185.684.58.661.574c.216.192.432.377.632.573q.608.577,1.165,1.142l.276.278c.089.095.176.189.261.284q.257.281.5.559c.323.37.635.726.913,1.083s.532.708.77,1.046a14.091,14.091,0,0,1,1.14,1.909,8.977,8.977,0,0,1,.37.838,6.431,6.431,0,0,1,.224.758C1951.109,1199.94,1950.975,1200.607,1950.479,1200.922Z" transform="translate(-1915 -1168.141)" fill="#f17785"/><g transform="translate(24.552 55.117)"><path d="M1995.644,1519.186c-.024.793-.046,1.617-.093,2.467-.1,1.7-.215,3.51-.4,5.408-.089.95-.167,1.925-.273,2.918-.053.5-.108,1-.162,1.505s-.105,1.019-.158,1.536-.116,1.036-.176,1.562l0,.032c-.03.253-.06.505-.091.759s-.058.531-.086.8q-.176,1.6-.384,3.249-.178,1.648-.378,3.255c-.034.269-.066.535-.1.8s-.06.531-.089.794c-.061.53-.121,1.052-.182,1.573s-.125,1.036-.188,1.546-.112,1.019-.167,1.52c-.11,1-.236,1.985-.339,2.945-.2,1.921-.422,3.752-.589,5.469-.088.858-.186,1.689-.265,2.489s-.158,1.569-.232,2.3c-.165,1.469-.282,2.8-.419,3.974-.065.587-.135,1.134-.2,1.638s-.12.966-.182,1.382c-.25,1.663-.523,2.6-.878,2.631s-.766-.851-1.262-2.475q-.187-.608-.388-1.355c-.131-.5-.258-1.038-.394-1.62-.266-1.165-.567-2.494-.836-3.971l-.424-2.321c-.143-.808-.267-1.651-.405-2.525-.28-1.747-.512-3.621-.75-5.6-.117-.988-.208-2-.308-3.039q-.071-.78-.144-1.574-.055-.794-.112-1.605t-.105-1.635q-.024-.413-.049-.828c-.012-.277-.023-.555-.035-.835q-.065-1.676-.109-3.4-.014-1.722,0-3.4c0-.28.007-.558.009-.836s.016-.553.025-.828c.012-.332.024-.665.036-.994.007-.215.015-.43.023-.643q.036-.81.074-1.608.057-.794.114-1.574c.085-1.038.165-2.055.28-3.043.234-1.977.493-3.849.84-5.588.17-.87.338-1.709.534-2.51s.4-1.566.612-2.294a31.619,31.619,0,0,1,1.381-3.88c.245-.564.489-1.084.743-1.557s.519-.9.779-1.275c1.043-1.512,2.1-2.249,3.043-2.075s1.686,1.234,2.163,2.97a14.226,14.226,0,0,1,.308,1.428c.091.516.172,1.074.232,1.667.127,1.187.17,2.52.193,3.986Q1995.683,1518,1995.644,1519.186Z" transform="translate(-1984.281 -1506.823)" fill="#f68895"/></g><path d="M2124.705,1553.181a.8.8,0,0,1-.441.17,1.692,1.692,0,0,1-1.076-.436c-.2-.138-.424-.312-.694-.533l-.405-.338-.453-.371c-.32-.263-.677-.564-1.063-.9l-1.262-1.034c-.293-.25-.605-.494-.937-.752-.171-.134-.345-.269-.521-.41-.379-.306-.783-.608-1.213-.928l-.439-.329c-.375-.29-.771-.568-1.189-.863-.218-.154-.439-.31-.662-.47s-.435-.3-.668-.462c-.107-.071-.215-.143-.322-.215l-1.038-.695-1.648-1.048-1.748-1.052-1.222-.7c-.3-.172-.59-.331-.9-.5l-.356-.191-.4-.219c-.286-.156-.582-.317-.877-.462l-1.343-.687-1.375-.664c-1.886-.893-3.834-1.74-5.783-2.517a4.12,4.12,0,0,1-2.574-4.264l.181-1.716c.138-1.094.235-2.242.292-3.512.037-.8.059-1.651.065-2.566l0-.732,0-.35-.011-.347c-.016-.486-.026-.964-.033-1.421l-.069-1.371c0-.1-.008-.2-.012-.3,0-.124-.008-.249-.016-.373l-.052-.674c-.057-1.084-.153-2.128-.246-3.139-.057-.629-.112-1.223-.157-1.815-.15-1.433-.25-2.754-.348-4.029l-.026-.321c-.024-.346-.041-.689-.05-1.022,0-.151-.013-.3-.023-.444-.009-.165-.02-.335-.022-.506-.015-.419-.011-.829-.008-1.227,0-.192,0-.381,0-.565v-.014c.006-.292.019-.584.039-.867.009-.147.025-.3.039-.442.012-.117.024-.232.031-.344v-.015a11.785,11.785,0,0,1,.236-1.536c.043-.2.1-.385.146-.567l.032-.12c.062-.228.134-.45.212-.661a6.3,6.3,0,0,1,.58-1.185,4.154,4.154,0,0,1,1.829-1.642,3.526,3.526,0,0,1,1.168-.288,4.075,4.075,0,0,1,1.324.133,5.653,5.653,0,0,1,1.3.534c.215.119.433.256.651.406a7.272,7.272,0,0,1,.644.517,12.651,12.651,0,0,1,1.243,1.284,8.517,8.517,0,0,1,.536.708l.062.086c.194.28.384.573.57.874a15.889,15.889,0,0,1,1.052,2.019l.087.2c.134.3.274.617.395.954.141.388.278.794.41,1.2a28.182,28.182,0,0,1,1.137,5.6v.016a34.182,34.182,0,0,1-.006,6.52l-.081.853c-.024.213-.056.427-.086.632l-.034.238-.048.314c-.071.468-.143.952-.233,1.436l0,.015c-.119.572-.246,1.162-.377,1.751l-.1.453-.122.452-.246.882c-.263.918-.555,1.825-.874,2.711q-.3.83-.627,1.637c.731.479,1.45.969,2.143,1.461l1.375,1,1.3,1c.321.244.634.5.934.751l.324.268.276.228c.311.257.633.522.94.8l1.136,1c.268.244.521.481.772.718l.324.3.54.507.506.5.983.981c.228.235.442.463.655.688l.279.3.248.264c.216.226.437.46.645.7.155.178.313.356.469.53.4.447.773.87,1.128,1.309l.237.286c.409.492.795.958,1.151,1.429l.306.4c.313.4.61.787.878,1.174l.22.308c.271.377.525.734.757,1.079.295.45.556.854.779,1.209l.066.1c.093.149.181.291.262.428l.264.475c.173.319.3.578.4.8C2124.915,1551.99,2125.252,1552.743,2124.705,1553.181Z" transform="translate(-2057.285 -1444.014)" fill="#f68895"/><path d="M1983.46,2074.863c-.389.531-.465.845-1.122.808a2.018,2.018,0,0,1-1.609-1,6.276,6.276,0,0,0-4.492,5.266,37.879,37.879,0,0,0,7.55-.278A11.568,11.568,0,0,0,1983.46,2074.863Z" transform="translate(-1952.549 -1958.648)" fill="#c5205c"/><path d="M2355.308,1980.776c.147.641.334.9-.124,1.377a2.02,2.02,0,0,1-1.808.563,6.275,6.275,0,0,0,1.041,6.843,37.869,37.869,0,0,0,4.732-5.889A11.558,11.558,0,0,0,2355.308,1980.776Z" transform="translate(-2288.715 -1874.822)" fill="#c5205c"/><path d="M1996.3,1516.9q.008,1.1-.031,2.287c-.025.793-.046,1.617-.093,2.467-.1,1.7-.215,3.51-.4,5.408-.089.95-.167,1.925-.273,2.918-.053.5-.108,1-.162,1.505s-.105,1.019-.158,1.536-.116,1.036-.176,1.562l0,.032c-.714-.041-1.426-.084-2.136-.136a26.5,26.5,0,0,1-7.889-1.584c.007-.215.015-.43.023-.643q.036-.81.074-1.608.057-.794.114-1.574c.085-1.038.165-2.055.28-3.043.234-1.977.493-3.849.84-5.588.17-.87.338-1.709.534-2.51s.4-1.566.612-2.294a31.68,31.68,0,0,1,1.381-3.88c.245-.564.489-1.084.743-1.557s.519-.9.78-1.275c1.043-1.512,2.1-2.249,3.043-2.075s1.686,1.234,2.163,2.97a14.126,14.126,0,0,1,.308,1.428c.091.516.172,1.074.233,1.667C1996.233,1514.1,1996.277,1515.433,1996.3,1516.9Z" transform="translate(-1960.353 -1451.706)" fill="#f17785"/><path d="M2107.286,1519.263l-.081.853c-.024.213-.056.427-.086.632l-.034.238-.048.314c-.071.468-.143.952-.233,1.436l0,.015c-.119.572-.246,1.162-.377,1.751l-.1.453-.122.452-.246.882c-.263.918-.555,1.825-.874,2.711a16.937,16.937,0,0,0-5.008-1.562,34.936,34.936,0,0,0-5.51-.344c.037-.8.059-1.651.065-2.566l0-.732,0-.35-.011-.347c-.016-.486-.026-.964-.033-1.421l-.069-1.371c0-.1-.008-.2-.012-.3,0-.124-.008-.249-.016-.373l-.052-.674c-.057-1.084-.153-2.128-.246-3.139-.057-.629-.112-1.223-.157-1.815-.15-1.433-.25-2.754-.348-4.029l-.026-.321c-.024-.346-.041-.689-.05-1.022,0-.151-.013-.3-.023-.444-.009-.165-.02-.335-.022-.506-.015-.419-.011-.829-.008-1.227,0-.192,0-.381,0-.565v-.014c.006-.292.019-.584.039-.867.009-.147.025-.3.039-.442.012-.117.024-.232.031-.344v-.015a11.785,11.785,0,0,1,.236-1.536c.043-.2.1-.385.146-.567l.032-.12c.062-.228.134-.45.212-.661a6.3,6.3,0,0,1,.58-1.185,4.154,4.154,0,0,1,1.829-1.642,3.526,3.526,0,0,1,1.168-.288,4.075,4.075,0,0,1,1.324.133,5.653,5.653,0,0,1,1.3.534c.215.119.433.256.651.406a7.272,7.272,0,0,1,.644.517,12.651,12.651,0,0,1,1.243,1.284,8.517,8.517,0,0,1,.536.708l.062.086c.194.28.384.573.57.874a15.889,15.889,0,0,1,1.052,2.019l.087.2c.134.3.274.617.395.954.141.388.278.794.41,1.2a28.182,28.182,0,0,1,1.137,5.6v.016A34.182,34.182,0,0,1,2107.286,1519.263Z" transform="translate(-2057.285 -1444.014)" fill="#f17785"/><path d="M1764.279,1071.579a5.986,5.986,0,0,1,1.245,1.985l-1.878,2.452-.041-.019a17.143,17.143,0,0,1-2.814-.221,24,24,0,0,1-3.905-.78c-.735-.21-1.612-.651-1.5-1.458a1.187,1.187,0,0,1,.354-.662,4.633,4.633,0,0,1,3.526-1.015,13.693,13.693,0,0,0,3.5-.03q-.538-.781-1.058-1.574a.3.3,0,0,1,.416-.425A10.725,10.725,0,0,1,1764.279,1071.579Z" transform="translate(-1755.379 -1061.543)" fill="#f68895"/><path d="M2131.036,1279.583a99.48,99.48,0,0,1,2.653,18.333c.141,2.79.125,5.742-1.269,8.162a10.359,10.359,0,0,1-6.419,4.53,25.2,25.2,0,0,1-8.014.483c-.214-6.661-.411-13.482-.624-20.143a29.012,29.012,0,0,1,.3-6.644,9.755,9.755,0,0,1,3.159-5.72C2123.792,1276.166,2130.135,1275.857,2131.036,1279.583Z" transform="translate(-2078.489 -1246.33)" fill="#3f1da8"/><path d="M1988.769,1204.334c.63,14.04,1.09,27.758,1.7,41.77a51.194,51.194,0,0,1-30.076.15c1.384-15.647,3.332-30.642,7.1-45.939-1.687-1.564-3.453-2.944-5.14-4.509a13.319,13.319,0,0,1,5.342-7.386,9.307,9.307,0,0,1,1.019-.541l.463.345a17.555,17.555,0,0,1,5.722,6.419,14.884,14.884,0,0,1,9.317.843c1.9-1.658,4.731-3.372,6.928-5.048.411-.314.8-.627,1.157-.937a13.846,13.846,0,0,1,1.944,2.108,27.528,27.528,0,0,1,3.96,7.8A22.1,22.1,0,0,0,1988.769,1204.334Z" transform="translate(-1938.407 -1166.973)" fill="#703cd5"/><path d="M1990.347,1704.157q.062,1.422.124,2.849a51.207,51.207,0,0,1-30.077.15q.123-1.409.255-2.81a51.184,51.184,0,0,0,29.7-.188Z" transform="translate(-1938.403 -1627.874)" fill="#dfd6fc"/><path d="M2101.214,1234.771s2.928-.83,7.918.534l-.224,2.284-7.9-.773Z" transform="translate(-2063.941 -1208.611)" fill="#3f1da8"/><path d="M2114.22,1182.824a14.967,14.967,0,0,0-1.989,5.193,14.738,14.738,0,0,0-.239,2.814,7.288,7.288,0,0,1-6.694-.593,8.5,8.5,0,0,0,1.192-2.564,8.162,8.162,0,0,0,.294-1.829A25.43,25.43,0,0,0,2114.22,1182.824Z" transform="translate(-2067.766 -1162.459)" fill="#f68895"/><path d="M2124.146,1182.824a14.962,14.962,0,0,0-1.989,5.193,10.517,10.517,0,0,1-5.741-.343,8.134,8.134,0,0,0,.294-1.829A25.432,25.432,0,0,0,2124.146,1182.824Z" transform="translate(-2077.691 -1162.459)" fill="#f17785"/><path d="M2103.224,1091.221c-.155.565-.326,1.135-.429,1.71a.008.008,0,0,0,0,.006c-.17.38-.429.959-.6,1.337a8.025,8.025,0,0,1-3.91,2.882,5.048,5.048,0,0,1-3.013-.057,3.847,3.847,0,0,1-1.918-1.373,5.444,5.444,0,0,1-.358-4.855c.538-1.6,1.458-3.042,2.055-4.619a7.9,7.9,0,0,0,.538-2.507,5.2,5.2,0,0,0-.02-.717,4.349,4.349,0,0,0-.32-1.293,8.518,8.518,0,0,0,2.011,1.423c1.247.661,2.589,1.144,3.777,1.908a5.234,5.234,0,0,1,2.5,3.271A6.527,6.527,0,0,1,2103.224,1091.221Z" transform="translate(-2056.43 -1072.213)" fill="#f68895"/><path d="M2115.872,1184.856a6.219,6.219,0,0,0,2.522.526.267.267,0,0,1,.247.371,1.646,1.646,0,0,1-.971.951,1.929,1.929,0,0,1-1.787-.3,1.441,1.441,0,0,1-.385-1.326A.267.267,0,0,1,2115.872,1184.856Z" transform="translate(-2076.861 -1164.252)" fill="#f9dee4"/><path d="M2182.59,1158.155a1.893,1.893,0,0,1,.467-.54.719.719,0,0,1,.7-.094.8.8,0,0,1,.333.825,2.985,2.985,0,0,1-.845,1.829,3.387,3.387,0,0,1-1.875.956C2181.887,1160.2,2182,1159.048,2182.59,1158.155Z" transform="translate(-2135.678 -1139.821)" fill="#f68895"/><g transform="translate(27.501 25.386)"><path d="M2021.131,1229.927a.987.987,0,0,1-.061.919,3.094,3.094,0,0,1-.152.294c-.058.1-.121.213-.193.324-.142.224-.321.451-.511.707q-.145.188-.31.383c-.109.13-.218.27-.336.406-.239.271-.484.568-.754.864l-.406.462-.213.234-.211.244c-.141.165-.3.323-.439.495s-.3.34-.451.511l-.877,1.022-.214.245-.2.246c-.134.163-.274.317-.4.474-.255.314-.513.606-.743.89l-.347.406q-.164.2-.322.378c-.216.237-.4.459-.589.647-.092.094-.183.18-.268.26s-.164.152-.241.215c-.311.252-.576.362-.772.284s-.3-.339-.333-.757q-.01-.157-.006-.343c0-.123.019-.253.036-.393a6.769,6.769,0,0,1,.179-.932q.066-.254.148-.529c.055-.183.125-.366.2-.559a12.674,12.674,0,0,1,.519-1.2c.1-.208.216-.413.332-.625l.179-.319.2-.316c.137-.21.269-.43.423-.638s.308-.422.469-.634.337-.408.507-.6.349-.378.522-.56l.262-.266.27-.248c.18-.161.354-.321.535-.465a11.29,11.29,0,0,1,1.062-.769c.174-.11.341-.217.51-.308s.333-.174.492-.25a5.719,5.719,0,0,1,.895-.345c.137-.04.266-.075.39-.1a3.188,3.188,0,0,1,.351-.042C2020.688,1229.609,2020.99,1229.707,2021.131,1229.927Z" transform="translate(-2011.774 -1229.631)" fill="#3f1da8"/></g><g transform="translate(44.944 27.415)"><path d="M2180.834,1261.608c-.2.075-.458-.041-.761-.312a5.083,5.083,0,0,1-.487-.516c-.172-.207-.351-.449-.542-.719-.376-.542-.784-1.2-1.2-1.942-.212-.37-.422-.763-.638-1.171s-.43-.834-.642-1.274-.415-.871-.6-1.291-.365-.829-.522-1.224a21.175,21.175,0,0,1-.755-2.151c-.088-.318-.16-.611-.207-.878a4.508,4.508,0,0,1-.076-.711c0-.412.089-.7.291-.813s.493-.05.847.172a3.9,3.9,0,0,1,.572.447,7.77,7.77,0,0,1,.638.664,15.184,15.184,0,0,1,1.376,1.9c.23.374.464.771.688,1.192s.444.863.657,1.321.4.914.576,1.359.325.88.462,1.3a17.015,17.015,0,0,1,.573,2.276,8.767,8.767,0,0,1,.113.912,4.24,4.24,0,0,1,0,.719C2181.147,1261.273,2181.032,1261.533,2180.834,1261.608Z" transform="translate(-2174.397 -1248.549)" fill="#3f1da8"/></g><path d="M2092.519,1237.388a6.784,6.784,0,0,1-4.115,1.911,6.715,6.715,0,0,1-3.8-2.445l-2.2,1.892c.618,2.428,3.984,4.638,3.984,4.638l1.991-3.732,1.442,3.963s3.648-1.737,4.6-4.059Z" transform="translate(-2047.328 -1210.693)" fill="#dfd6fc"/></g><g transform="translate(15.307 23.86)"><g transform="translate(19.783 63.275)"><path d="M883.674,1610.707c-.127,3.465-.3,6.589-.493,9.217s-.4,4.756-.639,6.234-.5,2.3-.822,2.324-.69-.765-1.115-2.2-.9-3.52-1.434-6.1-1.1-5.657-1.671-9.078-1.136-7.185-1.616-11.144q-.251-2.065-.45-4.059c-.249-2.489-.432-4.877-.54-7.126a76.8,76.8,0,0,1,.034-9.187,25.179,25.179,0,0,1,1.1-6.265c.528-1.5,1.212-2.348,1.986-2.4s1.56.708,2.277,2.124a25.151,25.151,0,0,1,1.893,6.072,77.053,77.053,0,0,1,1.213,9.107c.277,3.44.42,7.233.453,11.22,0,.232,0,.465,0,.7C883.871,1603.879,883.795,1607.444,883.674,1610.707Z" transform="translate(-874.776 -1570.922)" fill="#f7929e"/></g><g transform="translate(6.422 63.275)"><path d="M759.173,1588.776c-.084,1.73-.212,3.541-.38,5.42s-.373,3.793-.612,5.765c-.48,3.959-1.046,7.723-1.616,11.144s-1.144,6.5-1.671,9.078-1.012,4.665-1.433,6.1-.789,2.221-1.115,2.2-.585-.846-.821-2.324-.446-3.608-.639-6.234-.366-5.752-.493-9.217-.205-7.272-.174-11.26c.02-2.467.083-4.861.193-7.142.068-1.405.153-2.767.26-4.078a77.041,77.041,0,0,1,1.213-9.107,25.275,25.275,0,0,1,1.893-6.072c.716-1.416,1.5-2.174,2.277-2.124s1.458.9,1.986,2.4a25.192,25.192,0,0,1,1.1,6.265A77.042,77.042,0,0,1,759.173,1588.776Z" transform="translate(-750.21 -1570.922)" fill="#f7929e"/></g><path d="M760.8,1579.588a77.056,77.056,0,0,1,.035,9.188c-.084,1.73-.212,3.541-.38,5.42-2.764-.739-5.573-1.327-8.382-1.89.068-1.405.153-2.767.259-4.078a77.092,77.092,0,0,1,1.213-9.107,25.269,25.269,0,0,1,1.893-6.072c.716-1.416,1.5-2.174,2.277-2.124s1.458.9,1.986,2.4A25.188,25.188,0,0,1,760.8,1579.588Z" transform="translate(-745.453 -1507.647)" fill="#f17785"/><path d="M883.853,1600.143a38.82,38.82,0,0,0-8.195-4.159c-.074-.029-.149-.056-.223-.083-.249-2.489-.432-4.877-.54-7.126a76.8,76.8,0,0,1,.034-9.187,25.179,25.179,0,0,1,1.1-6.265c.528-1.5,1.212-2.348,1.986-2.4s1.56.708,2.277,2.124a25.151,25.151,0,0,1,1.893,6.072,77.053,77.053,0,0,1,1.213,9.107c.277,3.44.42,7.233.453,11.22C883.85,1599.679,883.851,1599.912,883.853,1600.143Z" transform="translate(-854.992 -1507.647)" fill="#f17785"/><path d="M753.161,1254.485a8.035,8.035,0,0,1-.887,4.247,5.8,5.8,0,0,1-3.424,2.3,17.619,17.619,0,0,1-4.22.451l-5.33.142-.169,0-.169,0-5.33-.142a17.619,17.619,0,0,1-4.219-.451,5.805,5.805,0,0,1-3.424-2.3,8.034,8.034,0,0,1-.887-4.247,152.052,152.052,0,0,1,1.148-21.423,6.221,6.221,0,0,1,1.172-3.443,5.674,5.674,0,0,1,4.366-1.462,17.263,17.263,0,0,0,4.745-.183,7.546,7.546,0,0,0,5.2,0,17.263,17.263,0,0,0,4.745.183,5.674,5.674,0,0,1,4.366,1.462,6.22,6.22,0,0,1,1.172,3.443A152.034,152.034,0,0,1,753.161,1254.485Z" transform="translate(-721.354 -1201.483)" fill="#006cbb"/><path d="M763.87,999.959a15.23,15.23,0,0,1-5.719,7.619,18.39,18.39,0,0,1-2.25,1.393,9.676,9.676,0,0,0-1.965-.382c-2.124-.2-4.345.116-6.466-.134a8.962,8.962,0,0,1-6.7-4.657,9.817,9.817,0,0,1-.312-8.426c.78-1.761,2.1-3.317,2.333-5.242.112-.927-.045-1.871.04-2.8a5.306,5.306,0,0,1,2.152-3.8,5.449,5.449,0,0,1,4.433-.765,3.968,3.968,0,0,1,5.472-1.109c1.475,1.048,2.1,2.993,3.33,4.346a34.46,34.46,0,0,0,2.947,2.42C764.231,991.131,765.131,995.968,763.87,999.959Z" transform="translate(-734.364 -980.998)" fill="#fb446c"/><path d="M863.517,1120.589a18.378,18.378,0,0,1-2.25,1.393,9.659,9.659,0,0,0-1.965-.382,4.968,4.968,0,0,1-1.577-2.9,6.234,6.234,0,0,1,.576-3.358,18.582,18.582,0,0,1,1.774-2.952c1.055-1.529,1.806-3.27,2.86-4.8a4.6,4.6,0,0,1,1.987,3.336A14.874,14.874,0,0,1,863.517,1120.589Z" transform="translate(-839.73 -1094.009)" fill="#e02b5a"/><path d="M694.779,1276.859a60.666,60.666,0,0,1,1.971-8.157,39.995,39.995,0,0,1,3.18-7.73c1.083-1.883,2.131-2.914,2.817-2.671s.854,1.7.513,3.848a40,40,0,0,1-2.383,8.011,60.605,60.605,0,0,1-3.592,7.584c-1.088,1.881-1.952,2.978-2.406,2.817S694.443,1279.006,694.779,1276.859Z" transform="translate(-694.082 -1228.526)" fill="#f68895"/><path d="M720.5,1246.565a25.68,25.68,0,0,0-6.355,10.428,14.963,14.963,0,0,0,5.805,3.1C720.126,1255.473,720.326,1251.182,720.5,1246.565Z" transform="translate(-711.592 -1218.08)" fill="#462261"/><path d="M942.218,1276.859a60.627,60.627,0,0,0-1.971-8.157,40,40,0,0,0-3.18-7.73c-1.083-1.883-2.131-2.914-2.818-2.671s-.854,1.7-.514,3.848a40.006,40.006,0,0,0,2.383,8.011,60.622,60.622,0,0,0,3.592,7.584c1.088,1.881,1.952,2.978,2.406,2.817S942.554,1279.006,942.218,1276.859Z" transform="translate(-907.477 -1228.526)" fill="#f68895"/><path d="M937.663,1246.565a25.679,25.679,0,0,1,6.355,10.428,14.963,14.963,0,0,1-5.805,3.1C938.038,1255.473,937.838,1251.182,937.663,1246.565Z" transform="translate(-911.135 -1218.08)" fill="#462261"/><path d="M758.492,1271.052a39.6,39.6,0,0,1-13.54,2.4,40.146,40.146,0,0,1-12.944-2.156c.759-8.947,3.25-37.709,3.687-46.679l.358-7.327c.488-.172,1.363-.514,2.4-.923l.513-.2c2.217-.88,4.96-1.981,6.292-2.452,1.333.472,4.076,1.573,6.293,2.452l.6.238c1,.393,1.839.72,2.312.888l.357,7.327C755.259,1233.507,757.743,1262.187,758.492,1271.052Z" transform="translate(-727.539 -1188.753)" fill="#462261"/><path d="M758.492,1740.162a39.594,39.594,0,0,1-13.54,2.4,40.146,40.146,0,0,1-12.944-2.156c.026-.3.054-.631.083-.978a40.332,40.332,0,0,0,12.861,2.124,39.789,39.789,0,0,0,13.456-2.367C758.44,1739.533,758.467,1739.859,758.492,1740.162Z" transform="translate(-727.539 -1657.863)" fill="#fff"/><path d="M805.81,1216.4a7.45,7.45,0,0,1-13.7-.035l.513-.2c2.217-.88,4.96-1.981,6.292-2.452,1.333.472,4.076,1.573,6.294,2.452Z" transform="translate(-781.192 -1188.753)" fill="#fff"/><path d="M809.477,1216.167a7.026,7.026,0,0,1-12.586,0c2.217-.88,4.96-1.981,6.292-2.452C804.517,1214.186,807.26,1215.287,809.477,1216.167Z" transform="translate(-785.462 -1188.753)" fill="#f68895"/><path d="M832.454,1164.58a4.388,4.388,0,0,1-3.241,1.62,4.3,4.3,0,0,1-3.068-1.559q.061-1.792.12-3.585c.005-.142.009-.285.015-.427,0-.1.007-.2.011-.305q.059-1.761.119-3.521c1.852.115,4.047-.185,5.9-.067-.089,1.913-.073,3.825.018,5.733.015.293.03.585.047.878.014.226.027.45.043.674C832.427,1164.207,832.44,1164.393,832.454,1164.58Z" transform="translate(-811.577 -1137.861)" fill="#f68895"/><path d="M833.541,1162.468a10.841,10.841,0,0,1-2.889-.285,6.131,6.131,0,0,1-3.147-1.859q.059-1.761.119-3.521c1.852.115,4.047-.185,5.9-.067C833.434,1158.648,833.45,1160.56,833.541,1162.468Z" transform="translate(-812.792 -1137.861)" fill="#f17785"/><path d="M816.328,1057.009c-.233,4.729-2.61,9.581-5.507,9.581-3.052,0-5.525-5.382-5.525-10.334,0-.144,0-.286.005-.426a18.279,18.279,0,0,0,3.453-5.13c2.131,1.674,4.049,3.5,6.181,5.172C815.4,1056.242,815.878,1056.614,816.328,1057.009Z" transform="translate(-792.965 -1043.224)" fill="#f68895"/><path d="M841.715,1154.018a3.346,3.346,0,0,0,2.078-.042.311.311,0,0,1,.406.356,1.592,1.592,0,0,1-.6.919,1.518,1.518,0,0,1-1.563.113,1.667,1.667,0,0,1-.714-.959A.312.312,0,0,1,841.715,1154.018Z" transform="translate(-825.114 -1135.407)" fill="#f4e4eb"/><g transform="translate(23.795 26.709)"><path d="M913.818,1230.01c.346,0,.682.285.981.788a4.557,4.557,0,0,1,.217.417c.072.152.146.316.215.493.141.352.262.752.4,1.191q.1.329.185.688c.059.239.127.486.185.742.113.514.242,1.058.353,1.634l.179.881.084.456.093.464c.064.312.112.633.179.954s.125.65.183.984.131.66.189.985.128.643.185.959q.044.237.087.47l.094.459.173.9.331,1.667.145.765c.05.245.095.482.135.711.076.459.157.873.208,1.249.026.188.046.366.063.53s.033.317.039.457c.028.562-.045.931-.247,1.047s-.518-.031-.93-.4q-.154-.14-.326-.321c-.113-.121-.227-.258-.348-.407a12.2,12.2,0,0,1-.767-1.049q-.2-.3-.407-.638c-.138-.224-.27-.464-.409-.712-.282-.495-.547-1.042-.82-1.624-.136-.291-.26-.6-.391-.907l-.194-.473-.18-.49c-.117-.331-.245-.666-.35-1.014s-.215-.7-.319-1.06-.185-.721-.27-1.076-.15-.71-.218-1.057q-.047-.261-.094-.517l-.073-.511c-.044-.338-.091-.668-.118-.993-.054-.65-.092-1.269-.082-1.851,0-.291,0-.571.023-.841s.042-.529.07-.777a9.073,9.073,0,0,1,.243-1.331c.051-.2.1-.376.164-.543a4.633,4.633,0,0,1,.2-.454C913.15,1230.3,913.472,1230.012,913.818,1230.01Z" transform="translate(-912.176 -1230.01)" fill="#0386e9"/></g><g transform="translate(6.179 26.628)"><path d="M751.632,1229.26c-.346.021-.662.328-.929.849a4.56,4.56,0,0,0-.19.43c-.062.156-.125.325-.183.505-.118.361-.214.767-.32,1.214q-.076.335-.141.7c-.044.242-.1.493-.138.753-.08.52-.174,1.071-.248,1.653l-.122.891-.055.461-.064.469c-.044.315-.072.638-.118.964s-.083.657-.12.994-.088.667-.126.995-.087.65-.124.969l-.056.475-.064.464-.115.9-.223,1.684-.1.773q-.051.372-.09.718c-.047.464-.1.881-.127,1.26-.015.189-.022.368-.029.533s-.012.318-.01.458c.008.563.1.926.314,1.029s.515-.064.9-.462q.145-.149.305-.341c.1-.128.21-.272.321-.428a12.186,12.186,0,0,0,.7-1.1q.179-.314.366-.663c.124-.233.24-.481.362-.737.25-.511.479-1.075.715-1.673.117-.3.221-.612.332-.93l.163-.484.149-.5c.1-.338.2-.68.284-1.034s.17-.713.251-1.079.138-.731.2-1.091.1-.718.15-1.068l.061-.523.04-.515c.023-.34.048-.673.054-1,.012-.652.011-1.272-.036-1.852-.022-.29-.042-.57-.077-.838s-.076-.526-.119-.771a9.083,9.083,0,0,0-.328-1.312c-.064-.192-.128-.369-.2-.531a4.571,4.571,0,0,0-.226-.44C752.318,1229.51,751.977,1229.239,751.632,1229.26Z" transform="translate(-747.943 -1229.259)" fill="#0386e9"/></g><g transform="translate(25.64 34.007)"><path d="M930,1298.06c.594-.1,1.6.986,2.869,2.8a50.548,50.548,0,0,1,4.114,7.243,23.9,23.9,0,0,1,2.336,7.544c.17,2-.341,3.346-1.424,3.53s-2.478-.837-3.737-2.656a25.646,25.646,0,0,1-3.247-7.39,41.866,41.866,0,0,1-1.468-7.691C929.284,1299.438,929.406,1298.16,930,1298.06Z" transform="translate(-929.379 -1298.053)" fill="#f68895"/></g><g transform="translate(0 34.007)"><path d="M699.686,1298.06c-.594-.1-1.6.986-2.869,2.8a50.524,50.524,0,0,0-4.114,7.243,23.893,23.893,0,0,0-2.336,7.544c-.17,2,.341,3.346,1.424,3.53s2.478-.837,3.737-2.656a25.646,25.646,0,0,0,3.247-7.39,41.861,41.861,0,0,0,1.468-7.691C700.4,1299.438,700.28,1298.16,699.686,1298.06Z" transform="translate(-690.334 -1298.053)" fill="#f68895"/></g><path d="M757.627,1274.229a2.167,2.167,0,0,1,2.3.074,3,3,0,0,1,1.073,2.024,4.248,4.248,0,0,1-1.063,3.445,3.4,3.4,0,0,1-1.392.873c-1.015.327-2.9.153-3.4-1.141-.409-1.05.391-2.636.856-3.5A4.266,4.266,0,0,1,757.627,1274.229Z" transform="translate(-748.088 -1242.516)" fill="#f68895"/><path d="M906.448,1274.229a2.167,2.167,0,0,0-2.3.074,3,3,0,0,0-1.073,2.024,4.248,4.248,0,0,0,1.063,3.445,3.4,3.4,0,0,0,1.392.873c1.015.327,2.9.153,3.4-1.141.409-1.05-.391-2.636-.856-3.5A4.266,4.266,0,0,0,906.448,1274.229Z" transform="translate(-880.225 -1242.516)" fill="#f68895"/><path d="M919,2061.4c.417.569.5.906,1.2.866a2.165,2.165,0,0,0,1.725-1.07,6.729,6.729,0,0,1,4.815,5.646,40.566,40.566,0,0,1-8.094-.3A12.4,12.4,0,0,1,919,2061.4Z" transform="translate(-894.063 -1945.331)" fill="#311649"/><path d="M722.531,2061.4c-.417.569-.5.906-1.2.866a2.164,2.164,0,0,1-1.725-1.07,6.728,6.728,0,0,0-4.815,5.646,40.566,40.566,0,0,0,8.094-.3A12.4,12.4,0,0,0,722.531,2061.4Z" transform="translate(-712.165 -1945.331)" fill="#311649"/></g><g transform="translate(221.245 17.005)"><path d="M2663.972,1194.162a10.923,10.923,0,0,1-2.434,5.238,17.785,17.785,0,0,1-4.068,3.456l-.077.05a14.333,14.333,0,0,1-16,0l-.077-.05a17.8,17.8,0,0,1-4.068-3.456,10.923,10.923,0,0,1-2.434-5.238,18.112,18.112,0,0,1,.389-6.1c.633-3.349,1.42-6.654,2.357-9.893a16.572,16.572,0,0,1,2.787-6.139,8.3,8.3,0,0,1,4.826-2.7,42.91,42.91,0,0,1,8.445,0,8.3,8.3,0,0,1,4.826,2.7,16.572,16.572,0,0,1,2.787,6.139c.937,3.239,1.724,6.544,2.357,9.893A18.118,18.118,0,0,1,2663.972,1194.162Z" transform="translate(-2632.071 -1142.052)" fill="#462261"/><path d="M2840.105,2008.572l-.737-5.221,3.9-.976-.072,5.981-.521,2.071h-2.4Z" transform="translate(-2814.801 -1885.968)" fill="#f7929e"/><path d="M2676.14,2008.572l.737-5.221-3.9-.976.072,5.981.521,2.071h2.405Z" transform="translate(-2666.253 -1885.968)" fill="#f7929e"/><g transform="translate(19.281 66.787)"><path d="M2800.165,1581.825c-.132,3.359-.308,6.414-.5,9.039a31.539,31.539,0,0,1-4.526,1.3q-.036-.159-.071-.322c-.6-2.728-1.248-5.981-1.9-9.6s-1.287-7.6-1.83-11.783c-.19-1.456-.361-2.889-.509-4.292-.258-2.411-.455-4.735-.582-6.935-.011-.2-.022-.4-.032-.6a75.735,75.735,0,0,1,.039-9.714,25.055,25.055,0,0,1,1.244-6.624c.6-1.581,1.375-2.483,2.252-2.536s1.768.749,2.579,2.246a25.213,25.213,0,0,1,2.144,6.419,76.12,76.12,0,0,1,1.376,9.629c.158,1.833.278,3.762.361,5.764.084,1.969.133,4.009.151,6.1,0,.245,0,.491.006.735C2800.388,1574.6,2800.3,1578.374,2800.165,1581.825Z" transform="translate(-2790.081 -1539.759)" fill="#0386e9"/></g><g transform="translate(5.738 66.787)"><path d="M2674,1558.057c-.01.193-.02.385-.03.579-.124,2.377-.332,4.9-.614,7.535-.148,1.4-.321,2.836-.51,4.292-.544,4.185-1.184,8.166-1.831,11.783s-1.3,6.87-1.895,9.6c-.022.106-.046.211-.07.315a31.464,31.464,0,0,1-4.526-1.308c-.2-2.621-.373-5.672-.506-9.025-.135-3.451-.222-7.221-.2-11.171,0-.244,0-.489,0-.735.036-4.216.2-8.226.512-11.864.063-.727.131-1.441.206-2.136a70.645,70.645,0,0,1,1.17-7.493,25.328,25.328,0,0,1,2.145-6.419c.811-1.5,1.7-2.3,2.581-2.246s1.652.955,2.25,2.536a24.988,24.988,0,0,1,1.245,6.624A74.422,74.422,0,0,1,2674,1558.057Z" transform="translate(-2663.815 -1539.759)" fill="#0386e9"/></g><path d="M2842.149,2058.35c.441.6.527.958,1.271.916a2.288,2.288,0,0,0,1.824-1.132,7.114,7.114,0,0,1,5.092,5.969,42.888,42.888,0,0,1-8.558-.315A13.108,13.108,0,0,1,2842.149,2058.35Z" transform="translate(-2816.845 -1935.746)" fill="#562ac4"/><path d="M2634.413,2058.35c-.441.6-.527.958-1.271.916a2.288,2.288,0,0,1-1.824-1.132,7.114,7.114,0,0,0-5.092,5.969,42.888,42.888,0,0,0,8.558-.315A13.108,13.108,0,0,0,2634.413,2058.35Z" transform="translate(-2624.521 -1935.746)" fill="#562ac4"/><path d="M2679.968,1548.922a74.386,74.386,0,0,1,.068,9.135,66.771,66.771,0,0,0-9.458-2.137,70.586,70.586,0,0,1,1.17-7.493,25.339,25.339,0,0,1,2.144-6.419c.812-1.5,1.7-2.3,2.581-2.246s1.652.955,2.25,2.536A25.028,25.028,0,0,1,2679.968,1548.922Z" transform="translate(-2664.114 -1472.972)" fill="#007ecc"/><path d="M2800.211,1563.82a67.1,67.1,0,0,0-9.964-4.584c-.011-.2-.022-.4-.032-.6a75.735,75.735,0,0,1,.039-9.714,25.055,25.055,0,0,1,1.244-6.624c.6-1.581,1.375-2.483,2.252-2.536s1.768.749,2.579,2.246a25.213,25.213,0,0,1,2.144,6.419,76.12,76.12,0,0,1,1.376,9.629C2800.008,1559.889,2800.127,1561.818,2800.211,1563.82Z" transform="translate(-2770.8 -1472.972)" fill="#007ecc"/><g transform="translate(28.34 36.198)"><path d="M2881.919,1275.341q-.007.419-.012.83c-.011.547-.017,1.081-.041,1.6-.048,1.044-.1,2.034-.185,2.96-.042.463-.077.909-.125,1.339s-.1.839-.148,1.231c-.093.783-.215,1.49-.324,2.111-.056.309-.11.6-.167.862s-.119.506-.177.724c-.236.867-.457,1.341-.688,1.337s-.446-.482-.67-1.343q-.086-.322-.17-.714c-.059-.261-.123-.542-.186-.846-.128-.606-.249-1.3-.4-2.055-.281-1.513-.616-3.309-.989-5.3q-.142-.745-.29-1.521c-.048-.259-.1-.52-.146-.785s-.1-.529-.156-.8c-.107-.536-.2-1.082-.312-1.634s-.218-1.114-.321-1.68c-.226-1.132-.424-2.238-.625-3.3q-.1-.581-.2-1.146c-.027-.142-.052-.284-.077-.425-.092-.513-.169-1.018-.251-1.509-.167-.983-.291-1.923-.41-2.8-.057-.441-.1-.87-.141-1.283s-.079-.81-.1-1.192c-.043-.767-.073-1.464-.052-2.09.01-.314.031-.608.059-.883a7.316,7.316,0,0,1,.107-.761c.185-.93.537-1.521,1.036-1.659s1.1.194,1.726.931a7.656,7.656,0,0,1,.477.627c.159.234.313.495.471.777a16.179,16.179,0,0,1,.922,1.96c.109.272.215.554.321.846.039.106.076.215.116.323.142.41.272.841.4,1.287.268.892.493,1.86.711,2.883.106.512.2,1.039.29,1.578.043.271.088.542.132.819s.075.555.113.838c.155,1.127.258,2.3.347,3.5.037.6.066,1.2.091,1.785s.031,1.166.041,1.734C2881.914,1274.781,2881.917,1275.062,2881.919,1275.341Z" transform="translate(-2874.544 -1254.574)" fill="#f7929e"/></g><path d="M2879.669,1259.746a12.416,12.416,0,0,0-4.085,7.464c-.027-.142-.052-.284-.077-.425-.092-.513-.169-1.018-.251-1.509-.167-.983-.291-1.923-.41-2.8-.057-.441-.1-.87-.141-1.283s-.079-.81-.1-1.192c-.043-.767-.073-1.464-.052-2.09.01-.314.031-.608.059-.883a7.316,7.316,0,0,1,.107-.761c.185-.93.537-1.521,1.036-1.659s1.1.194,1.726.931a7.656,7.656,0,0,1,.477.627c.159.234.313.495.471.777a16.179,16.179,0,0,1,.922,1.96C2879.457,1259.172,2879.563,1259.453,2879.669,1259.746Z" transform="translate(-2846.203 -1218.376)" fill="#f17785"/><ellipse cx="8.619" cy="10.658" rx="8.619" ry="10.658" transform="translate(8.968 3.159)" fill="#462261"/><path d="M2653.279,1179.446c.812,10.372,2.528,30.532,3.088,37.456-3.593,1.489-9.462,2.307-13.562,2.307-4.141,0-10.049-.835-13.674-2.353.559-6.907,2.272-27.04,3.083-37.407a15.841,15.841,0,0,1-5.365-3.042,27.167,27.167,0,0,1,6.16-10.453c.046-.049,1.761-.765,2.542-1.072l.544-.215c.652-.258,1.348-.535,2.042-.811,1.8-.715,3.593-1.422,4.61-1.782,1.064.376,2.973,1.131,4.853,1.878l1.8.715.637.251c.736.291,2.4.993,2.45,1.047a27.2,27.2,0,0,1,6.15,10.442A15.839,15.839,0,0,1,2653.279,1179.446Z" transform="translate(-2625.077 -1135.797)" fill="#fb446c"/><path d="M2750.637,1110.126a4.64,4.64,0,0,1-3.428,1.713,4.547,4.547,0,0,1-3.244-1.649q.064-1.894.127-3.79c.005-.15.01-.3.016-.451,0-.107.007-.216.011-.323q.062-1.862.125-3.723c1.959.121,4.279-.2,6.237-.072-.094,2.023-.077,4.044.019,6.062.016.31.031.618.05.929.014.238.028.476.046.713C2750.608,1109.732,2750.622,1109.929,2750.637,1110.126Z" transform="translate(-2729.631 -1081.991)" fill="#f68895"/><path d="M2751.785,1107.894a11.467,11.467,0,0,1-3.054-.3,6.481,6.481,0,0,1-3.327-1.966q.063-1.862.126-3.723c1.958.121,4.278-.2,6.237-.072C2751.673,1103.855,2751.69,1105.876,2751.785,1107.894Z" transform="translate(-2730.915 -1081.991)" fill="#f17785"/><path d="M2731.1,1001.382c-.226,5.214-2.909,10.2-6.184,10.2-3.229,0-5.884-4.98-6.174-10.116a11.915,11.915,0,0,0,5.691-6.378A12.819,12.819,0,0,0,2731.1,1001.382Z" transform="translate(-2707.111 -986.725)" fill="#f68895"/><path d="M2760.428,1098.96a3.538,3.538,0,0,0,2.2-.044.329.329,0,0,1,.429.377,1.682,1.682,0,0,1-.634.971,1.605,1.605,0,0,1-1.653.119,1.763,1.763,0,0,1-.755-1.015A.33.33,0,0,1,2760.428,1098.96Z" transform="translate(-2743.944 -1079.397)" fill="#f4e4eb"/><circle cx="3.486" cy="3.486" r="3.486" transform="translate(21.724 6.785) rotate(-76.717)" fill="#462261"/><circle cx="3.486" cy="3.486" r="3.486" transform="translate(5.257 7.076) rotate(-80.783)" fill="#462261"/><g transform="translate(22.062 4.482)"><path d="M2819.035,962.231c-.177.123-.473.033-.816-.187a7.176,7.176,0,0,1-2.021-2.211c-.189-.362-.252-.664-.114-.829s.454-.155.852.017a4.391,4.391,0,0,1,2.158,2.36C2819.23,961.793,2819.211,962.11,2819.035,962.231Z" transform="translate(-2816.01 -958.886)" fill="#fb446c"/></g><g transform="translate(10.118 4.482)"><path d="M2704.8,962.231c.177.123.473.033.816-.187a7.187,7.187,0,0,0,2.021-2.211c.189-.362.252-.664.114-.829s-.454-.155-.853.017a4.387,4.387,0,0,0-2.157,2.36C2704.606,961.793,2704.625,962.11,2704.8,962.231Z" transform="translate(-2704.653 -958.886)" fill="#fb446c"/></g><path d="M2741.551,1163.951a4.848,4.848,0,0,1-9.463-.1c1.8-.715,3.593-1.422,4.61-1.782C2737.761,1162.449,2739.67,1163.2,2741.551,1163.951Z" transform="translate(-2719.027 -1135.797)" fill="#f68895"/><g transform="translate(24.248 27.766)"><path d="M2838.151,1175.966a1.3,1.3,0,0,1,1.019.623,4.375,4.375,0,0,1,.441.746,8.44,8.44,0,0,1,.383.989,17.7,17.7,0,0,1,.583,2.575c.081.485.143,1,.207,1.526s.114,1.081.156,1.647.081,1.12.114,1.657.055,1.058.068,1.557c.036,1,.044,1.906.029,2.679-.012.388-.023.74-.049,1.055a8.012,8.012,0,0,1-.1.819c-.091.459-.231.74-.438.795s-.464-.123-.765-.491a5.761,5.761,0,0,1-.477-.692c-.166-.276-.344-.594-.519-.952a22.312,22.312,0,0,1-1.064-2.572c-.167-.494-.337-1.015-.485-1.561s-.289-1.115-.414-1.7-.219-1.164-.289-1.725-.117-1.1-.144-1.622a13.093,13.093,0,0,1,.145-2.771,6.956,6.956,0,0,1,.265-1.069,3.751,3.751,0,0,1,.37-.808A1.26,1.26,0,0,1,2838.151,1175.966Z" transform="translate(-2836.387 -1175.965)" fill="#462261"/></g><g transform="translate(6.112 27.766)"><path d="M2670.311,1175.966a1.3,1.3,0,0,0-1.019.623,4.391,4.391,0,0,0-.441.746,8.4,8.4,0,0,0-.383.989,17.661,17.661,0,0,0-.583,2.575c-.081.485-.143,1-.207,1.526s-.114,1.081-.156,1.647-.081,1.12-.113,1.657-.055,1.058-.069,1.557c-.036,1-.043,1.906-.029,2.679.012.388.023.74.049,1.055a8.146,8.146,0,0,0,.1.819c.091.459.231.74.438.795s.463-.123.764-.491a5.76,5.76,0,0,0,.477-.692c.166-.276.344-.594.519-.952a22.314,22.314,0,0,0,1.064-2.572c.167-.494.338-1.015.486-1.561s.289-1.115.414-1.7.219-1.164.289-1.725.117-1.1.144-1.622a13.077,13.077,0,0,0-.145-2.771,6.929,6.929,0,0,0-.265-1.069,3.775,3.775,0,0,0-.371-.808A1.26,1.26,0,0,0,2670.311,1175.966Z" transform="translate(-2667.304 -1175.965)" fill="#462261"/></g><path d="M2659.5,1285.308l-4.31,17.365a.465.465,0,0,1-.564.339l-11.711-2.906a.464.464,0,0,1-.339-.563l4.2-16.929.109-.438a.489.489,0,0,1,.057-.134.466.466,0,0,1,.506-.2l11.712,2.907A.466.466,0,0,1,2659.5,1285.308Z" transform="translate(-2639.105 -1242.703)" fill="#703cd5"/><path d="M2629.221,1305.222a3.938,3.938,0,0,1-.81.622,12.254,12.254,0,0,1-1.372.713q-.408.188-.881.372c-.315.125-.65.252-1,.372-.179.06-.361.121-.547.185l-.576.177c-.392.121-.8.233-1.231.344s-.873.211-1.333.317-.936.2-1.425.277c-.98.177-2.016.308-3.1.413l-.234.019c-1.007.088-2.05.135-3.116.144h-.846a2.432,2.432,0,0,1-2.425-2.529l.013-.308h0c.036-1.113.124-2.2.26-3.235a27.27,27.27,0,0,1,.552-2.964,23.058,23.058,0,0,1,.8-2.6q.142-.37.29-.718a15.776,15.776,0,0,0,4.965,2.833c-.144.6-.308,1.233-.477,1.891-.217.828-.443,1.7-.681,2.6l.1.134q.318.011.632.017l.321.007c.884.018,1.74.035,2.561.032.462,0,.911-.006,1.35,0s.865-.006,1.276-.018l1.2-.023.567-.01.544-.014,1.015-.021.915-.011c.574,0,1.073,0,1.49.035a4.463,4.463,0,0,1,.99.151c.239.077.384.181.421.318S2629.392,1305.035,2629.221,1305.222Z" transform="translate(-2610.323 -1256.091)" fill="#f7929e"/><path d="M2768.418,1341.263a2.174,2.174,0,0,0,1.792-.1,2.827,2.827,0,0,0,1.247-1.324,3.4,3.4,0,0,0-.606-3.71,11.706,11.706,0,0,1-2.892,3.745A1.528,1.528,0,0,1,2768.418,1341.263Z" transform="translate(-2751.052 -1291.188)" fill="#f7929e"/><path d="M2694.12,1286.823l-.174.523-12.084-2.914.108-.438a.487.487,0,0,1,.057-.134Z" transform="translate(-2674.188 -1244.521)" fill="#ffd9e5"/><path d="M2904.045,1528.842a6.206,6.206,0,0,0-1.612,3.181.446.446,0,0,0,.439.521.763.763,0,0,1,.484.184,1.4,1.4,0,0,1,.376,1.062c0,.387-.076.774-.044,1.16a1.163,1.163,0,0,0,.546.968,1.022,1.022,0,0,0,1.019-.123,2.268,2.268,0,0,0,.665-.835,6.092,6.092,0,0,0-.013-5.579C2905.317,1529.255,2904.632,1528.968,2904.045,1528.842Z" transform="translate(-2871.095 -1463.226)" fill="#f7929e"/><path d="M2826.714,1053a.576.576,0,0,1,.711-.4.91.91,0,0,1,.594.65,2.313,2.313,0,0,1,.022.914,3.475,3.475,0,0,1-.525,1.619,1.492,1.492,0,0,1-1.481.659A25.418,25.418,0,0,0,2826.714,1053Z" transform="translate(-2802.897 -1038.041)" fill="#f68895"/><path d="M2709.211,1053a.576.576,0,0,0-.711-.4.91.91,0,0,0-.594.65,2.313,2.313,0,0,0-.022.914,3.475,3.475,0,0,0,.525,1.619,1.493,1.493,0,0,0,1.481.659A25.456,25.456,0,0,1,2709.211,1053Z" transform="translate(-2697.389 -1038.041)" fill="#f68895"/></g><g transform="translate(79.036 0)"><g transform="translate(25.604 1.242)"><path d="M1546.576,775.858c0,.6-.014,1.244-.03,1.928-.031.68-.068,1.4-.116,2.156q-.049.565-.1,1.158c-.035.395-.068.8-.118,1.208-.095.82-.187,1.677-.319,2.554-.063.44-.127.889-.2,1.343s-.154.913-.232,1.379q-.061.351-.123.705c-.045.235-.091.473-.136.712q-.14.715-.285,1.452c-.413,1.952-.892,4-1.466,6.091s-1.227,4.248-1.977,6.426q-.347,1-.7,1.981c-.539,1.478-1.1,2.917-1.68,4.306h0c-.205.5-.426.993-.636,1.484s-.426.973-.647,1.447-.439.943-.655,1.406-.449.913-.67,1.362c-.111.224-.223.446-.334.666s-.227.436-.34.653c-.227.431-.451.857-.677,1.273l-.686,1.223-.34.594-.346.58q-.347.572-.682,1.123c-.229.365-.459.719-.685,1.068-.4.628-.819,1.221-1.22,1.787-.043.061-.085.122-.128.181-.219.311-.442.609-.662.9s-.436.568-.648.838c-.426.541-.853,1.032-1.251,1.49a21.515,21.515,0,0,1-2.24,2.209,7.172,7.172,0,0,1-1.728,1.143c-.47.2-.823.219-1.047.051s-.307-.518-.262-1.019a9.273,9.273,0,0,1,.489-1.951c.278-.79.645-1.732,1.107-2.794.222-.538.478-1.1.743-1.7.131-.3.267-.605.411-.919.112-.243.227-.492.342-.747.031-.072.063-.145.1-.218.6-1.312,1.261-2.749,1.967-4.292.089-.192.178-.386.269-.581l.269-.6.556-1.213q.277-.618.562-1.254c.1-.211.193-.424.291-.638l.288-.65c.173-.386.347-.774.523-1.167l.069-.154.594-1.358c.205-.455.4-.92.6-1.389.145-.339.3-.677.443-1.02.057-.131.113-.263.169-.4.82-1.91,1.64-3.9,2.469-5.945s1.595-4.057,2.325-6.008,1.392-3.847,2.014-5.66q.225-.681.446-1.346c.074-.222.147-.442.22-.659l.208-.654q.209-.648.409-1.278t.381-1.243c.258-.815.478-1.607.705-2.367.116-.38.215-.754.318-1.12s.2-.724.3-1.074q.284-1.054.539-2.006.237-.953.463-1.8c.138-.562.269-1.088.4-1.571s.229-.928.342-1.328a17.6,17.6,0,0,1,.578-1.848c.177-.424.347-.647.511-.642s.309.239.446.684a10.371,10.371,0,0,1,.346,1.95c.04.423.092.9.111,1.411S1546.567,775.254,1546.576,775.858Z" transform="translate(-1523.196 -770.133)" fill="#f68895"/></g><path d="M1540.775,1094.751c-.539,1.478-1.1,2.917-1.68,4.306h0c-.205.5-.426.993-.636,1.484s-.426.973-.647,1.447-.439.943-.655,1.406-.449.913-.67,1.362c-.111.224-.223.446-.334.666s-.227.436-.34.652c-.227.431-.451.857-.677,1.273l-.686,1.223-.34.594-.346.58q-.347.571-.682,1.123c-.229.365-.459.719-.685,1.068-.4.628-.819,1.221-1.22,1.788-.043.061-.085.121-.128.181-.219.311-.442.609-.662.9s-.436.568-.648.838c-.426.54-.853,1.032-1.251,1.49a21.529,21.529,0,0,1-2.24,2.209,7.17,7.17,0,0,1-1.728,1.143c-.47.2-.823.219-1.047.052s-.307-.518-.262-1.019a9.271,9.271,0,0,1,.489-1.951c.278-.791.645-1.732,1.107-2.794.222-.538.478-1.1.743-1.7.131-.3.267-.605.411-.919.112-.243.227-.492.342-.747.031-.072.063-.145.1-.218.6-1.312,1.261-2.749,1.967-4.292.089-.192.178-.387.269-.581l.269-.6.556-1.213q.277-.618.562-1.254c.1-.211.193-.424.291-.638l.288-.65.523-1.167.069-.154.594-1.358c.205-.455.4-.92.6-1.389.145-.339.3-.677.443-1.02a12.371,12.371,0,0,0,6.512-1.274A12.068,12.068,0,0,0,1540.775,1094.751Z" transform="translate(-1497.592 -1058.69)" fill="#f17785"/><g transform="translate(1.549 1.242)"><path d="M1322.038,830.734c-.224.168-.577.149-1.047-.051a5.631,5.631,0,0,1-1.005-.581c-.229-.161-.47-.347-.723-.562a21.491,21.491,0,0,1-2.24-2.209c-.4-.458-.826-.95-1.251-1.49-.212-.27-.428-.549-.649-.838s-.443-.586-.662-.9c-.043-.059-.085-.12-.128-.181-.4-.566-.816-1.159-1.22-1.787-.226-.349-.455-.7-.685-1.068s-.451-.742-.682-1.123l-.346-.58-.34-.594-.686-1.223c-.225-.416-.45-.842-.677-1.273q-.17-.324-.34-.653c-.111-.22-.223-.442-.334-.666q-.333-.673-.67-1.362t-.656-1.406c-.222-.474-.434-.958-.647-1.447-.142-.331-.289-.661-.431-1-.07-.161-.139-.324-.205-.488h0c-.839-2-1.631-4.11-2.383-6.287s-1.4-4.333-1.977-6.426-1.052-4.139-1.466-6.091q-.144-.736-.285-1.452c-.046-.239-.092-.477-.136-.712s-.083-.472-.123-.705q-.118-.7-.232-1.379c-.07-.454-.134-.9-.2-1.343-.132-.877-.224-1.734-.319-2.554-.05-.408-.082-.813-.117-1.208s-.066-.781-.1-1.158c-.049-.755-.085-1.477-.116-2.156s-.027-1.328-.03-1.928.026-1.165.047-1.681.07-.988.111-1.411a10.363,10.363,0,0,1,.346-1.95c.137-.444.284-.678.446-.684s.334.218.511.642a17.62,17.62,0,0,1,.578,1.848c.112.4.212.843.342,1.328s.259,1.009.4,1.571.305,1.163.463,1.8.35,1.3.539,2.006c.1.35.2.708.3,1.074s.2.74.318,1.12c.227.761.447,1.552.705,2.367q.186.612.381,1.243t.409,1.278l.208.654q.109.326.22.659.221.665.446,1.346c.623,1.813,1.288,3.709,2.015,5.66s1.5,3.963,2.325,6.008q.426,1.052.848,2.082.813,1.976,1.62,3.863c.2.478.412.947.612,1.416s.4.934.6,1.389.4.909.594,1.358l.069.154c.176.393.35.781.523,1.167q.144.326.288.65c.1.214.193.427.29.638q.284.636.562,1.254l.555,1.213.269.6c.091.195.18.389.269.581l1.967,4.292c.032.073.065.146.1.218.115.255.23.5.342.747.143.314.28.619.411.919.265.6.521,1.158.743,1.7.462,1.062.828,2,1.106,2.794q.164.491.28.905a6.121,6.121,0,0,1,.21,1.046C1322.345,830.216,1322.261,830.565,1322.038,830.734Z" transform="translate(-1298.931 -770.133)" fill="#f68895"/></g><path d="M1386.066,1100.724a11.771,11.771,0,0,1-2.1,1.432c-.228-.161-.47-.347-.723-.562a21.49,21.49,0,0,1-2.24-2.209c-.4-.458-.825-.95-1.251-1.49-.212-.27-.428-.549-.648-.838s-.443-.586-.662-.9c-.043-.059-.085-.12-.128-.181-.4-.566-.816-1.159-1.22-1.788-.226-.348-.455-.7-.685-1.067s-.452-.742-.682-1.123l-.346-.58-.34-.594-.686-1.223c-.226-.416-.45-.842-.677-1.273q-.17-.324-.341-.652c-.111-.22-.223-.442-.334-.666q-.333-.673-.67-1.362t-.655-1.406c-.222-.474-.434-.958-.647-1.447-.142-.331-.289-.661-.431-1a7.789,7.789,0,0,0,3.728-4,7.635,7.635,0,0,0,.544-2.925q.813,1.976,1.62,3.863c.2.479.412.947.612,1.416s.4.933.6,1.389.4.909.594,1.358l.069.154c.176.393.35.781.523,1.167l.288.65c.1.214.193.427.291.638q.284.636.562,1.254l.555,1.213.269.6c.091.194.18.389.269.581l1.967,4.292.1.217c.115.255.23.5.342.747.143.314.28.619.411.919.265.6.521,1.158.743,1.7.462,1.062.828,2,1.107,2.794Q1385.951,1100.309,1386.066,1100.724Z" transform="translate(-1361.357 -1040.945)" fill="#f17785"/><g transform="translate(12.163 87.135)"><path d="M1407.516,1594.959q-.16,1.794-.37,3.652a155.344,155.344,0,0,1-3.327,19.243c-1.231,4.9-2.429,7.9-3.445,7.831s-1.708-3.2-2.12-8.21a153.994,153.994,0,0,1-.13-19.478c.083-1.577.185-3.121.309-4.622a94.713,94.713,0,0,1,2.2-14.677c1.22-4.9,2.783-7.875,4.258-7.775s2.532,3.255,2.935,8.265A96.654,96.654,0,0,1,1407.516,1594.959Z" transform="translate(-1397.883 -1570.921)" fill="#f68895"/></g><path d="M1366.889,2055.709c-.461.63-.552,1-1.331.958a2.4,2.4,0,0,1-1.909-1.184,7.448,7.448,0,0,0-5.331,6.25,44.917,44.917,0,0,0,8.96-.33A13.724,13.724,0,0,0,1366.889,2055.709Z" transform="translate(-1350.399 -1916.374)" fill="#562ac4"/><g transform="translate(28.283 87.135)"><path d="M1557.941,1617.475c-.412,5.011-1.1,8.139-2.12,8.21s-2.214-2.932-3.445-7.831a155.321,155.321,0,0,1-3.327-19.243q-.107-.952-.2-1.891a101.412,101.412,0,0,1-.481-17.531c.4-5.01,1.459-8.165,2.933-8.265s3.039,2.875,4.259,7.775a106.646,106.646,0,0,1,2.513,19.3q.063,1.2.108,2.385A149.249,149.249,0,0,1,1557.941,1617.475Z" transform="translate(-1548.169 -1570.921)" fill="#f68895"/></g><path d="M1598.1,2055.709c.461.63.552,1,1.331.958a2.4,2.4,0,0,0,1.909-1.184,7.448,7.448,0,0,1,5.331,6.25,44.919,44.919,0,0,1-8.96-.33A13.724,13.724,0,0,1,1598.1,2055.709Z" transform="translate(-1564.002 -1916.374)" fill="#562ac4"/><path d="M1412.414,1579.188a96.668,96.668,0,0,1-.313,15.771c-3.009-.615-6.045-1.111-9.082-1.583a94.67,94.67,0,0,1,2.2-14.677c1.22-4.9,2.783-7.875,4.257-7.775S1412.011,1574.179,1412.414,1579.188Z" transform="translate(-1390.304 -1483.786)" fill="#f17785"/><path d="M1558.178,1600.382a54.267,54.267,0,0,0-9.332-3.663,101.412,101.412,0,0,1-.481-17.531c.4-5.01,1.459-8.165,2.933-8.265s3.039,2.875,4.259,7.775a106.646,106.646,0,0,1,2.513,19.3Q1558.133,1599.2,1558.178,1600.382Z" transform="translate(-1519.887 -1483.786)" fill="#f17785"/><path d="M1420.111,1500.951a52.493,52.493,0,0,1-9.209,1.56q-1.234.1-2.485.139l-1.91-19.772-1.909,19.761a52.653,52.653,0,0,1-11.568-1.737c.53-9.955,1.1-19.721,1.492-25.574.119-1.785.222-3.2.3-4.157.117-1.389.185-2.183.185-2.183h23s.281,3.275.68,8.154c.035.436.072.905.109,1.4C1419.187,1483.756,1419.669,1492.182,1420.111,1500.951Z" transform="translate(-1381.387 -1392.786)" fill="#703cd5"/><path d="M1523.076,1611.747q-1.234.1-2.485.139l-1.911-19.772,3.045-.766Z" transform="translate(-1493.561 -1502.022)" fill="#562ac4"/><path d="M1685.29,767.122a8.51,8.51,0,0,0-3.068-3.179,1.8,1.8,0,0,1-.548-.42.541.541,0,0,1-.04-.644c.177-.218.515-.184.788-.115a8.579,8.579,0,0,1,1.924.74q-.01-1.012-.02-2.023a5.3,5.3,0,0,1,.159-1.659,1.6,1.6,0,0,1,2.478-.993,5.3,5.3,0,0,1,1.114.941,5.436,5.436,0,0,1,1.141,1.461,4.478,4.478,0,0,1-.208,3.486,17.329,17.329,0,0,0-1.268,3.352C1686.918,767.78,1686.114,767.412,1685.29,767.122Z" transform="translate(-1638.956 -758.553)" fill="#f68895"/><path d="M1288.686,767.122a8.508,8.508,0,0,1,3.068-3.179,1.8,1.8,0,0,0,.548-.42.541.541,0,0,0,.041-.644c-.177-.218-.515-.184-.788-.115a8.581,8.581,0,0,0-1.924.74q.01-1.012.02-2.023a5.311,5.311,0,0,0-.159-1.659,1.6,1.6,0,0,0-2.479-.993,5.3,5.3,0,0,0-1.114.941,5.44,5.44,0,0,0-1.141,1.461,4.479,4.479,0,0,0,.208,3.486,17.322,17.322,0,0,1,1.268,3.352C1287.058,767.78,1287.862,767.412,1288.686,767.122Z" transform="translate(-1284.486 -758.553)" fill="#f68895"/><path d="M1431.21,1478.545c-4.653.057-9.311-.115-13.948-.514-3.578-.308-7.311-.815-10.327-2.7.119-1.785.221-3.2.3-4.157.117-1.389.185-2.183.185-2.183h23s.281,3.275.68,8.154C1431.136,1477.578,1431.173,1478.046,1431.21,1478.545Z" transform="translate(-1393.802 -1392.786)" fill="#562ac4"/><path d="M1415.429,1247.51c-1.12,2.146-3.578,3.036-5.817,3.748l-.078.025a25.315,25.315,0,0,1-15.359,0l-.077-.025c-2.239-.712-4.7-1.6-5.817-3.748-1.012-1.94-.613-4.317-.187-6.481l2.522-12.824a273.733,273.733,0,0,1,22.479,0l2.522,12.824C1416.042,1243.193,1416.44,1245.57,1415.429,1247.51Z" transform="translate(-1376.58 -1177.624)" fill="#4422af"/><path d="M1393.427,1139.773l1.47,25.344a34.528,34.528,0,0,1-24.843,0l1.472-25.365a26.025,26.025,0,0,0-5.415-13.863,18.581,18.581,0,0,1,7.532-3.54.063.063,0,0,0,0,.011c.037.184.619,2.856,4.427,5.633q.37.271.785.543h0c1.449-.482,2.78-.917,3.619-1.167.839.25,2.171.687,3.622,1.167.27-.177.526-.354.769-.531,3.825-2.782,4.409-5.461,4.445-5.645a.063.063,0,0,0,0-.011,18.582,18.582,0,0,1,7.533,3.54A26.031,26.031,0,0,0,1393.427,1139.773Z" transform="translate(-1357.355 -1083.33)" fill="#2795f8"/><path d="M1486.412,1169.784c-.131,3.786-2.05,6.791-4.4,6.791s-4.27-3.012-4.4-6.8q.371.272.785.543h0c1.448-.482,2.779-.917,3.618-1.167.839.25,2.171.686,3.622,1.167C1485.913,1170.138,1486.169,1169.961,1486.412,1169.784Z" transform="translate(-1456.901 -1125.107)" fill="#f68895"/><path d="M1492.052,1120.2a5.457,5.457,0,0,1-3.724,1.535,5.387,5.387,0,0,1-3.532-1.493q.064-1.708.129-3.417c.005-.135.01-.271.016-.406q.069-1.824.139-3.647c2.131.115,4.655-.165,6.784-.049a49.635,49.635,0,0,0,.092,6.3c.016.215.033.428.051.643C1492.02,1119.844,1492.036,1120.022,1492.052,1120.2Z" transform="translate(-1463.311 -1074.708)" fill="#f68895"/><path d="M1493.212,1119.666a7.041,7.041,0,0,1-2.994-.172,7.141,7.141,0,0,1-4.072-3.076q.069-1.824.138-3.647c2.131.115,4.655-.165,6.784-.049a49.568,49.568,0,0,0,.092,6.3C1493.177,1119.238,1493.194,1119.452,1493.212,1119.666Z" transform="translate(-1464.516 -1074.708)" fill="#f17785"/><path d="M1567.423,1063.705a.646.646,0,0,1,.8-.447,1.02,1.02,0,0,1,.66.734,2.6,2.6,0,0,1,.016,1.026,3.9,3.9,0,0,1-.6,1.81,1.674,1.674,0,0,1-1.667.725A28.422,28.422,0,0,0,1567.423,1063.705Z" transform="translate(-1536.366 -1030.556)" fill="#f68895"/><path d="M1453.956,1063.705a.646.646,0,0,0-.8-.447,1.02,1.02,0,0,0-.659.734,2.591,2.591,0,0,0-.016,1.026,3.9,3.9,0,0,0,.6,1.81,1.674,1.674,0,0,0,1.667.725A28.4,28.4,0,0,1,1453.956,1063.705Z" transform="translate(-1434.422 -1030.556)" fill="#f68895"/><path d="M1477.174,994.738c0,5.134-2.626,10.713-5.865,10.713s-5.865-5.579-5.865-10.713,2.626-7.88,5.865-7.88S1477.174,989.6,1477.174,994.738Z" transform="translate(-1446.036 -962.37)" fill="#f68895"/><path d="M1505.824,1116.431a3.268,3.268,0,0,0,2.029-.041.3.3,0,0,1,.4.348,1.553,1.553,0,0,1-.586.9,1.482,1.482,0,0,1-1.526.11,1.628,1.628,0,0,1-.7-.937A.3.3,0,0,1,1505.824,1116.431Z" transform="translate(-1481.729 -1077.993)" fill="#f4e4eb"/><path d="M1555.885,997.07a11.457,11.457,0,0,0-1.894-5.977l-.236-2.951a2.272,2.272,0,0,1,2.409.628,4.169,4.169,0,0,1,.822,2.244C1557.228,992.949,1556.5,995.2,1555.885,997.07Z" transform="translate(-1524.873 -963.4)" fill="#321749"/><path d="M1453.43,963.106a10.985,10.985,0,0,1,1.721-6.577c.681,1.015,2.187,1.355,3.468,1.436s3.252-.1,4.522.072a3.612,3.612,0,0,1,3.017,1.932,13.386,13.386,0,0,0-.279-4.832c-.455-1.547-2.04-3.014-3.42-3.973a5.668,5.668,0,0,0-4.881-.811,3.828,3.828,0,0,0-2.737,3.683,2.271,2.271,0,0,0-2.351.817,4.167,4.167,0,0,0-.641,2.3C1451.762,959.1,1452.672,961.289,1453.43,963.106Z" transform="translate(-1433.893 -929.564)" fill="#462261"/><g transform="translate(28.868 43.898)"><path d="M1561.77,1183.227c-.2.043-.452-.153-.733-.53q-.105-.142-.216-.317c-.076-.116-.158-.242-.24-.377-.166-.271-.33-.583-.524-.922l-.6-1.108c-.2-.4-.441-.815-.671-1.257-.116-.22-.245-.442-.367-.671l-.185-.347-.2-.349-.809-1.451q-.217-.367-.419-.728c-.132-.243-.278-.472-.408-.706l-.195-.346-.2-.335-.375-.657c-.251-.424-.472-.84-.69-1.224-.107-.194-.2-.387-.3-.57s-.19-.36-.274-.533c-.163-.35-.317-.666-.431-.965-.058-.149-.106-.293-.148-.428a3.829,3.829,0,0,1-.106-.381,1.1,1.1,0,0,1,.149-1.05c.213-.2.581-.208,1.065-.035a3.871,3.871,0,0,1,.385.163c.134.067.27.147.415.238a7.3,7.3,0,0,1,.917.678q.239.2.489.439c.166.157.326.33.495.508a14.724,14.724,0,0,1,1,1.2c.167.219.323.453.486.69l.243.363.231.38c.151.258.312.517.453.792s.287.553.428.837.26.575.383.858.227.57.334.849l.153.417.133.415c.085.275.173.542.242.807.138.532.263,1.037.344,1.519.042.241.086.471.115.7s.052.442.072.648a9.661,9.661,0,0,1,.047,1.125c0,.167-.006.322-.018.466s-.031.277-.052.4C1562.112,1182.9,1561.973,1183.184,1561.77,1183.227Z" transform="translate(-1553.63 -1167.817)" fill="#703cd5"/></g><g transform="translate(12.6 43.898)"><path d="M1402.455,1183.227c.2.043.452-.153.732-.53q.105-.142.216-.317c.076-.116.158-.242.24-.377.166-.271.33-.583.524-.922l.6-1.108c.2-.4.441-.815.671-1.257.116-.22.245-.442.367-.671l.185-.347.2-.349.809-1.451q.217-.367.419-.728c.132-.243.278-.472.408-.706l.195-.346.2-.335.375-.657c.25-.424.472-.84.69-1.224.107-.194.2-.387.3-.57s.19-.36.274-.533c.163-.35.317-.666.431-.965.058-.149.106-.293.149-.428a3.9,3.9,0,0,0,.106-.381,1.1,1.1,0,0,0-.149-1.05c-.214-.2-.58-.208-1.065-.035a3.859,3.859,0,0,0-.385.163c-.134.067-.27.147-.414.238a7.266,7.266,0,0,0-.917.678q-.239.2-.489.439c-.166.157-.327.33-.495.508a14.7,14.7,0,0,0-1,1.2c-.167.219-.324.453-.487.69l-.243.363-.231.38c-.151.258-.313.517-.454.792s-.287.553-.428.837-.26.575-.383.858-.227.57-.334.849l-.153.417-.133.415c-.085.275-.172.542-.242.807-.138.532-.264,1.037-.344,1.519-.042.241-.086.471-.115.7s-.052.442-.072.648a9.715,9.715,0,0,0-.047,1.125c0,.167.006.322.018.466s.031.277.052.4C1402.112,1182.9,1402.251,1183.184,1402.455,1183.227Z" transform="translate(-1401.958 -1167.817)" fill="#703cd5"/></g></g></g></g></svg>