<svg xmlns="http://www.w3.org/2000/svg" width="375.321" height="300.925" viewBox="0 0 375.321 300.925"><g transform="translate(-1434.381 -1033.482)"><g transform="translate(-658.302 670.598)"><path d="M3014.063,384.362l-.008.022c-1.136,3.283-1.342,7.023-3.274,9.993a6.843,6.843,0,0,1-4.271,3.116c-8.212,1.577-9.7-11.1-7.993-16.361,2.349-7.23,12.246-13.287,19.708-13.544a6.059,6.059,0,0,1,5.419,2.522c1.864,3.048-.853,4.978-3.032,6.5C3017.687,378.663,3015.271,380.894,3014.063,384.362Z" transform="translate(-645.87 0)" fill="#ea216a"/><path d="M2140.528,697.693a80.988,80.988,0,0,0,15.178,6.524c21.1,6.592,42.484-.767,63.5-4.621,43.293-7.938,43.782-10.227,66.9-12.474,32.641-3.173,48.961-4.76,65.312-1.59,10.172,1.972,27.951,6.634,50.756,2.188a63.078,63.078,0,0,0,10.887-2.821c25.042-9.325,34.882-42.682,36.965-49.745,19.545-66.262-28.7-171.567-111.86-199.336-10.79-3.6-47.275-15.786-85.794-1.145-30.786,11.7-47.815,41.71-64.385,69.214-8.836,14.668-17.938,29.332-29.482,41.881-15.042,16.352-38.11,22.095-51.266,40.673-17.154,24.225-11.048,61.136,4.315,84.442A83.236,83.236,0,0,0,2140.528,697.693Z" transform="translate(0 -43.049)" fill="#ea216a"/><path d="M2371.011,767.013c-29.951,4.714-47.662-.339-53.418-2.177-30.646-9.785-48-32.391-58.484-46.055a164.108,164.108,0,0,1-31.035-70.072c-5.232-29.047-9.185-96.831,24.485-116.805,31.188-18.5,54.121,28.063,131.486,32.458,67.554,3.838,113.822-28.044,149.395,1.2,10.23,8.409,13.793,17.121,14.5,18.918,11.848,30.238-16.564,66.243-34.981,89.582C2497.648,693.459,2449.334,754.685,2371.011,767.013Z" transform="translate(-91.547 -114.69)" fill="#f72163"/><path d="M3071.6,426.387a4.745,4.745,0,0,0,1.63,4.039c3.045,2.9,8.292,3.091,11.9,1.784a19.82,19.82,0,0,0,4.16-2.053c1.07-.7,2.025-1.428,2.948-2.132a22.732,22.732,0,0,1,4.208-2.761,15.054,15.054,0,0,1,4.494-.727,34.2,34.2,0,0,0,7.166-1.1c4.432-1.3,5.372-3.688,5.538-5,.6-4.759-6.638-8.974-11.875-10.068-7.643-1.6-15.769.4-19.763,4.852a16.573,16.573,0,0,0-2.116,3.12,12.291,12.291,0,0,1-1.076,1.7,16.844,16.844,0,0,1-2.265,2.055,19.6,19.6,0,0,0-4.056,4.043A5.187,5.187,0,0,0,3071.6,426.387Z" transform="translate(-698.688 -28.847)" fill="#f72163"/><path d="M2130.824,812.519c-6.283-2.828-12.269-8.618-12.507-15.863-.208-6.327,6.4-17.465,13.814-11.509,3.187,2.56,3.1,7.307,3.369,11.386.409,6.2,4.119,9.28,7.652,13.862a2.783,2.783,0,0,1,.667,1.319C2144.374,816.518,2132.817,813.416,2130.824,812.519Z" transform="translate(-15.35 -298.111)" fill="#f72163"/><g transform="translate(2068.725 239.759)"><g transform="translate(23.958 240.562)"><g transform="translate(0 33.484)"><path d="M117.092,350.514c-4.8-31.976-60.4-51.523-93.134-43.987C36.562,342.657,84.751,368.3,117.092,350.514Z" transform="translate(-23.958 -304.913)" fill="#84788f" fill-rule="evenodd"/><path d="M23.958,306.858c12.6,36.13,60.793,61.775,93.134,43.987C99.515,332.374,49.266,311.208,23.958,306.858Z" transform="translate(-23.958 -305.243)" fill="#7e6c82" fill-rule="evenodd"/><path d="M23.958,306.858c28.383,7.563,70.948,25.322,92.345,44.41q.4-.208.789-.423C99.515,332.374,49.266,311.208,23.958,306.858Z" transform="translate(-23.958 -305.243)" fill="#725166" fill-rule="evenodd"/><path d="M109.341,343.585l-22.3,6.266,21.686-6.7Z" transform="translate(-34.669 -311.406)" fill="#725166" fill-rule="evenodd"/><path d="M105.842,337.274c-.061-.368-8.109-15.727-8.109-15.727l7.4,15.3Z" transform="translate(-36.485 -307.737)" fill="#725166" fill-rule="evenodd"/><path d="M89.625,332.943s-21.01,6.758-20.641,6.512,21.241-6.174,21.241-6.174Z" transform="translate(-31.602 -309.672)" fill="#725166" fill-rule="evenodd"/><path d="M80.616,324.558c.179-.4-9.615-12.5-9.615-12.5l8.938,12.686Z" transform="translate(-31.946 -306.126)" fill="#725166" fill-rule="evenodd"/><path d="M64.176,321.159l-16,3.133,16.587-2.8Z" transform="translate(-28.069 -307.671)" fill="#725166" fill-rule="evenodd"/><path d="M53.583,314.662c-.123-.184-7.372-7.526-7.372-7.526l6.743,7.5Z" transform="translate(-27.736 -305.29)" fill="#725166" fill-rule="evenodd"/><path d="M41.828,312.278c-.337-.061-10.72.553-10.29.553s10.7-.154,10.7-.154Z" transform="translate(-25.243 -306.163)" fill="#725166" fill-rule="evenodd"/></g><g transform="translate(60.714 0)"><path d="M133.413,340.3c14.086-21.682-8.823-62.866-32.408-75.715C89.387,292.886,104.626,333.79,133.413,340.3Z" transform="translate(-97.089 -264.581)" fill="#844e8f" fill-rule="evenodd"/><path d="M101.005,264.581c-11.618,28.3,3.621,69.209,32.408,75.715C132.69,319.921,113.843,280.6,101.005,264.581Z" transform="translate(-97.089 -264.581)" fill="#7f4784" fill-rule="evenodd"/><path d="M101.806,264.581c12.974,19.578,29.03,52.779,31.712,75.55.231.056.463.112.7.164C133.491,319.921,114.644,280.6,101.806,264.581Z" transform="translate(-97.89 -264.581)" fill="#6c2d59" fill-rule="evenodd"/><path d="M132.7,332.66l-16.669-8.077,16.529,7.494Z" transform="translate(-100.305 -274.769)" fill="#6c2d59" fill-rule="evenodd"/><path d="M133.926,326.208c.159-.253,3.487-13.712,3.487-13.712l-3.682,13.08Z" transform="translate(-103.311 -272.717)" fill="#6c2d59" fill-rule="evenodd"/><path d="M126.564,315.813s-16.157-7.1-15.806-7.049,15.986,7.569,15.986,7.569Z" transform="translate(-99.409 -272.083)" fill="#6c2d59" fill-rule="evenodd"/><path d="M126.043,305.22c.319-.143.876-12.58.876-12.58l-1.378,12.332Z" transform="translate(-101.92 -269.345)" fill="#6c2d59" fill-rule="evenodd"/><path d="M117.95,294.851l-11.239-6.612,11.409,7.124Z" transform="translate(-98.723 -268.598)" fill="#6c2d59" fill-rule="evenodd"/><path d="M115.4,284.961c.024-.175-.421-8.413-.421-8.413l.06,8.061Z" transform="translate(-100.126 -266.613)" fill="#6c2d59" fill-rule="evenodd"/><path d="M109.566,277.369c-.17-.216-6.709-5.354-6.452-5.127s6.487,5.586,6.487,5.586Z" transform="translate(-98.111 -265.881)" fill="#6c2d59" fill-rule="evenodd"/></g><g transform="translate(12.7 72.843)"><path d="M120.977,362.71c-16.944-19.529-62.857-8.892-81.722,10.224C63.248,391.92,106.77,388.579,120.977,362.71Z" transform="translate(-39.255 -352.322)" fill="#738067" fill-rule="evenodd"/><path d="M39.255,374.728c23.993,18.987,67.515,15.645,81.722-10.224C101.2,359.57,58.2,366.818,39.255,374.728Z" transform="translate(-39.255 -354.117)" fill="#6c6656" fill-rule="evenodd"/><path d="M39.255,374.728c22.4-7.059,58.746-13.315,81.372-9.6q.178-.31.35-.623C101.2,359.57,58.2,366.818,39.255,374.728Z" transform="translate(-39.255 -354.117)" fill="#68594d" fill-rule="evenodd"/><path d="M113.22,363.445l-12.368,13.788,11.769-13.815Z" transform="translate(-49.714 -354.206)" fill="#68594d" fill-rule="evenodd"/><path d="M107.567,362.585c-.2-.222-12.215-7.141-12.215-7.141l11.554,7.154Z" transform="translate(-48.78 -352.852)" fill="#68594d" fill-rule="evenodd"/><path d="M95.335,364.8S84.048,378.363,84.191,378.04s11.693-13.272,11.693-13.272Z" transform="translate(-46.885 -354.435)" fill="#68594d" fill-rule="evenodd"/><path d="M85.088,364.815c-.049-.347-11.849-4.319-11.849-4.319l11.471,4.732Z" transform="translate(-45.025 -353.71)" fill="#68594d" fill-rule="evenodd"/><path d="M72.808,368.158l-9.46,8.974,10-9Z" transform="translate(-43.346 -355.007)" fill="#68594d" fill-rule="evenodd"/><path d="M62.6,369.719c-.162-.071-8.2-1.92-8.2-1.92l7.763,2.169Z" transform="translate(-41.826 -354.95)" fill="#68594d" fill-rule="evenodd"/><path d="M53.69,372.246c-.254.1-7,4.968-6.71,4.784s7.161-4.692,7.161-4.692Z" transform="translate(-40.565 -355.705)" fill="#68594d" fill-rule="evenodd"/></g></g><g transform="translate(297.926 247.204)"><g transform="translate(8.22 33.484)"><path d="M363.86,358.514c4.8-31.976,60.4-51.523,93.133-43.987C444.39,350.657,396.2,376.3,363.86,358.514Z" transform="translate(-363.86 -312.913)" fill="#84788f" fill-rule="evenodd"/><path d="M456.993,314.858c-12.6,36.13-60.793,61.775-93.133,43.987C381.437,340.374,431.686,319.208,456.993,314.858Z" transform="translate(-363.86 -313.243)" fill="#7e6c82" fill-rule="evenodd"/><path d="M456.993,314.858c-28.382,7.563-70.948,25.322-92.344,44.41q-.4-.208-.789-.423C381.437,340.374,431.686,319.208,456.993,314.858Z" transform="translate(-363.86 -313.243)" fill="#725166" fill-rule="evenodd"/><path d="M386.1,351.585l22.3,6.266-21.686-6.7Z" transform="translate(-367.636 -319.406)" fill="#725166" fill-rule="evenodd"/><path d="M392.5,345.274c.061-.368,8.109-15.727,8.109-15.727l-7.4,15.3Z" transform="translate(-368.723 -315.737)" fill="#725166" fill-rule="evenodd"/><path d="M406.029,340.943s21.01,6.758,20.641,6.512-21.241-6.174-21.241-6.174Z" transform="translate(-370.918 -317.672)" fill="#725166" fill-rule="evenodd"/><path d="M417.417,332.558c-.18-.4,9.615-12.5,9.615-12.5l-8.938,12.686Z" transform="translate(-372.953 -314.126)" fill="#725166" fill-rule="evenodd"/><path d="M432.432,329.159l16,3.133-16.587-2.8Z" transform="translate(-375.404 -315.671)" fill="#725166" fill-rule="evenodd"/><path d="M444.909,322.662c.123-.184,7.372-7.526,7.372-7.526l-6.743,7.5Z" transform="translate(-377.622 -313.29)" fill="#725166" fill-rule="evenodd"/><path d="M455.979,320.278c.338-.061,10.72.553,10.29.553s-10.7-.154-10.7-.154Z" transform="translate(-379.431 -314.163)" fill="#725166" fill-rule="evenodd"/></g><g transform="translate(0 0)"><path d="M358.275,348.3c-14.086-21.682,8.823-62.866,32.408-75.715C402.3,300.886,387.062,341.79,358.275,348.3Z" transform="translate(-353.958 -272.581)" fill="#844e8f" fill-rule="evenodd"/><path d="M391.566,272.581c11.618,28.3-3.621,69.209-32.408,75.715C359.881,327.921,378.728,288.6,391.566,272.581Z" transform="translate(-354.841 -272.581)" fill="#7f4784" fill-rule="evenodd"/><path d="M391.566,272.581c-12.974,19.578-29.03,52.779-31.712,75.55-.231.056-.463.112-.7.164C359.881,327.921,378.728,288.6,391.566,272.581Z" transform="translate(-354.841 -272.581)" fill="#6c2d59" fill-rule="evenodd"/><path d="M363.891,340.66l16.669-8.077-16.529,7.494Z" transform="translate(-355.645 -282.769)" fill="#6c2d59" fill-rule="evenodd"/><path d="M365.321,334.208c-.159-.253-3.488-13.712-3.488-13.712l3.683,13.08Z" transform="translate(-355.295 -280.717)" fill="#6c2d59" fill-rule="evenodd"/><path d="M370.165,323.813s16.157-7.1,15.806-7.049-15.986,7.569-15.986,7.569Z" transform="translate(-356.68 -280.083)" fill="#6c2d59" fill-rule="evenodd"/><path d="M373.675,313.22c-.319-.143-.876-12.58-.876-12.58l1.378,12.332Z" transform="translate(-357.157 -277.345)" fill="#6c2d59" fill-rule="evenodd"/><path d="M379.716,302.851l11.239-6.612-11.409,7.124Z" transform="translate(-358.303 -276.598)" fill="#6c2d59" fill-rule="evenodd"/><path d="M384.517,292.961c-.024-.175.421-8.413.421-8.413l-.06,8.061Z" transform="translate(-359.147 -274.613)" fill="#6c2d59" fill-rule="evenodd"/><path d="M389.106,285.369c.17-.216,6.709-5.354,6.452-5.127s-6.488,5.586-6.488,5.586Z" transform="translate(-359.92 -273.881)" fill="#6c2d59" fill-rule="evenodd"/></g><g transform="translate(6.933 72.843)"><path d="M362.309,370.71c16.944-19.529,62.857-8.892,81.722,10.224C420.038,399.92,376.515,396.579,362.309,370.71Z" transform="translate(-362.309 -360.322)" fill="#738067" fill-rule="evenodd"/><path d="M444.031,382.728c-23.993,18.987-67.516,15.645-81.722-10.224C382.09,367.57,425.082,374.818,444.031,382.728Z" transform="translate(-362.309 -362.117)" fill="#6c6656" fill-rule="evenodd"/><path d="M444.031,382.728c-22.4-7.059-58.746-13.315-81.372-9.6q-.178-.31-.35-.623C382.09,367.57,425.082,374.818,444.031,382.728Z" transform="translate(-362.309 -362.117)" fill="#68594d" fill-rule="evenodd"/><path d="M384.25,371.445l12.368,13.788-11.769-13.815Z" transform="translate(-366.035 -362.206)" fill="#68594d" fill-rule="evenodd"/><path d="M389.935,370.585c.2-.222,12.215-7.141,12.215-7.141L390.6,370.6Z" transform="translate(-367 -360.852)" fill="#68594d" fill-rule="evenodd"/><path d="M402.274,372.8s11.287,13.567,11.143,13.243-11.692-13.272-11.692-13.272Z" transform="translate(-369.002 -362.435)" fill="#68594d" fill-rule="evenodd"/><path d="M412.489,372.815c.049-.347,11.849-4.319,11.849-4.319l-11.471,4.732Z" transform="translate(-370.829 -361.71)" fill="#68594d" fill-rule="evenodd"/><path d="M425.147,376.158l9.46,8.974-10-9Z" transform="translate(-372.887 -363.007)" fill="#68594d" fill-rule="evenodd"/><path d="M435.725,377.719c.162-.071,8.2-1.92,8.2-1.92l-7.763,2.169Z" transform="translate(-374.775 -362.95)" fill="#68594d" fill-rule="evenodd"/><path d="M444.844,380.246c.254.1,7,4.968,6.71,4.784s-7.16-4.692-7.16-4.692Z" transform="translate(-376.247 -363.705)" fill="#68594d" fill-rule="evenodd"/></g></g><g transform="translate(260.317 188.905)"><path d="M311.417,273.5a10.809,10.809,0,0,1,1.741,2.575c.051.6-.361,2.157-.6,1.824a3.688,3.688,0,0,1-.285-1.356l-.469-.568a23.118,23.118,0,0,1,.168,3.592c-.159.555-.467.542-.467.542s-.042.487-.359.565a.432.432,0,0,1-.579-.271s-.087.115-.328-.014a1.11,1.11,0,0,1-.389-.45s-.179.077-.385-.169a1.06,1.06,0,0,1-.252-.472c-.012-.054-.33-2.305-.367-2.4a4.1,4.1,0,0,1,.527-3.533C310.613,271.916,310.118,272.947,311.417,273.5Z" transform="translate(-308.657 -214.29)" fill="#efaf9e" fill-rule="evenodd"/><path d="M362.785,231.2a1.38,1.38,0,0,1-1.48-.34,1.329,1.329,0,0,1-.662-1.676c.244-.425.721-.794.892-1.121a1.423,1.423,0,0,1,2-.782c1.087.415,1.613.591,1.633,1.763A2.514,2.514,0,0,1,362.785,231.2Z" transform="translate(-317.466 -206.566)" fill="#eead9a" fill-rule="evenodd"/><path d="M347.431,336.138a25.159,25.159,0,0,1,.8,2.938s6.918,3.047,5.939,3.762c-1.52,1.112-7.151-.325-9.147-.753l.012-3.17Z" transform="translate(-314.832 -225.074)" fill="#1e1925" fill-rule="evenodd"/><path d="M320.855,335.2a25.27,25.27,0,0,0-.8,2.939s-6.917,3.046-5.938,3.762c1.52,1.111,8.678-.245,8.676-.866l-.012-3.171Z" transform="translate(-309.568 -224.915)" fill="#1e1925" fill-rule="evenodd"/><path d="M338.4,270.034c2.862,15.744,4.13,39,5.64,57.818a19.156,19.156,0,0,1-3.2-.162c-3.776-15.685-7.175-31.86-10.95-47.546-2.017,15.45-3.96,31.8-5.977,47.254a10.677,10.677,0,0,1-2.786-.324c-.59-.086-.846-55.413-.737-56.064S338.4,270.034,338.4,270.034Z" transform="translate(-310.647 -213.85)" fill="#7b4652" fill-rule="evenodd"/><path d="M330.079,219.78c-.132,1.239-.209,5.229,2.23,6.1A7.606,7.606,0,0,1,334.244,227c-.071,3.764-8.833,4.76-12.5,1.354l1.453-1.725c3.067-.62,1.748-5.786,1.593-8.257Z" transform="translate(-310.88 -205.079)" fill="#eda08c" fill-rule="evenodd"/><path d="M337,234.519c-.394,13.86,2.028,24.008,2.584,31.637.241,3.947-20.676,6.695-20.662,3.415.39-11.237.54-23.19-.706-33.523l.043-6.552q.28-.061.56-.128l3.783-1.2a7.423,7.423,0,0,0,5.872,1.807c3.614-.452,3.238-2.56,3.238-2.56,1.649.264,3.263.605,4.915.87Z" transform="translate(-310.28 -206.613)" fill="#e86870" fill-rule="evenodd"/><path d="M321.316,212.889a13.307,13.307,0,0,0,1.216,4.443c.628,1.406,2.417,2.185,2.4,1.98s-.447-5.2-.447-5.2Z" transform="translate(-310.804 -204.147)" fill="#3d211a" fill-rule="evenodd"/><path d="M333.926,218.569c-.619,3.428-2.115,4.447-4.555,3.259a10.514,10.514,0,0,1-4.6-4.787,1.825,1.825,0,0,1-1.934-1.065,2.039,2.039,0,0,1,.273-2.644,1.148,1.148,0,0,1,.506-.192,24.649,24.649,0,0,1,.066-3.082c.1-1.951,5.339-3.841,7.631-2.647C334.173,208.9,334.367,216.125,333.926,218.569Z" transform="translate(-311.006 -203.154)" fill="#efaf9e" fill-rule="evenodd"/><path d="M325.2,210.509c-.225.23.291,3.826-.106,3.842s-1.787-1.635-1.787-1.635-.072-.1-.506.192a1.4,1.4,0,0,0-.543.794s-1.748-3.345-1.545-4.095,1.67-1.7,1.67-1.7a3.69,3.69,0,0,1,.946-1.714c.825-.919,3.24-1.113,6.464-1.578,3.191-.461,5.469,1.538,2.574,3.781C329.7,210.461,325.2,210.509,325.2,210.509Z" transform="translate(-310.702 -202.731)" fill="#3d211a" fill-rule="evenodd"/><path d="M316.648,229.922c-4.641,2-7.557,21.116-7.909,37.216l2.993-.7a100.541,100.541,0,0,1,5.855-29.87Z" transform="translate(-308.671 -207.039)" fill="#e86870" fill-rule="evenodd"/><path d="M340.2,228.462c4.95,5.17,9.386,14.518,9.386,14.518.354-.521,6.367-10.617,7.447-13.566l2.142,2.017c-1.075,2.624-6.906,16.807-8.974,17.04-4.066.459-9.39-10.923-10.942-13.365Z" transform="translate(-313.853 -206.791)" fill="#e86870" fill-rule="evenodd"/><path d="M376.224,213.7c.206-.046,2.573-.118,2.573-.118l1.313,3.968-1.832,1.6Z" transform="translate(-320.13 -204.265)" fill="#faffff" fill-rule="evenodd"/><path d="M364.212,222.11a8.341,8.341,0,0,0,.486,3.572c.532,1.506,1.552,2.487,1.563,3.119.012.657-1.711,1.8-2.471,1.015-.613-.631-2.447-7.116-2.281-7.245A25.114,25.114,0,0,1,364.212,222.11Z" transform="translate(-317.63 -205.713)" fill="#000313" fill-rule="evenodd"/><path d="M373.2,208.063c-.061-.125-.2.037-.627.328s-.086.058-.433.775c-.737,1.517-10.375,7.3-12.216,8.163a6.821,6.821,0,0,0-1.781,1.068l1.807,4.947a8.107,8.107,0,0,0,1.964-.392c1.971-.49,13.1-2.051,14.632-1.334a5.2,5.2,0,0,0,1.518.19A66.586,66.586,0,0,0,373.2,208.063Z" transform="translate(-317.059 -203.32)" fill="#c7cfdf" fill-rule="evenodd"/><path d="M376.06,208.063c-.061-.125-.2.037-.627.328s-.086.058-.433.775a77.148,77.148,0,0,1,4.406,12.453c.721.338.312.371.824.33s.726,0,.694-.139A66.586,66.586,0,0,0,376.06,208.063Z" transform="translate(-319.922 -203.32)" fill="#ea8a0f" fill-rule="evenodd"/><path d="M360.042,219.109c-.079.039-.149.074-.212.1-1.15.536-1.84.594-2.227.9l.959,2.712.96,2.711c.494,0,1.068-.394,2.3-.7q.1-.025.229-.052Z" transform="translate(-316.968 -205.203)" fill="#ea8a0f" fill-rule="evenodd"/><path d="M361.534,222.916c-.034-.186-.044-.3-.024-.315a10.562,10.562,0,0,1,1.674-.318Z" transform="translate(-317.63 -205.742)" fill="#c06029" fill-rule="evenodd"/><path d="M373.2,208.07c-.06-.125-.933.84-1.06,1.1-.737,1.517-10.375,7.3-12.216,8.163a6.821,6.821,0,0,0-1.781,1.068l.917,2.827,16.923-6.491A67.544,67.544,0,0,0,373.2,208.07Z" transform="translate(-317.059 -203.327)" fill="#e2e9fa" fill-rule="evenodd"/><path d="M376.06,208.063c-.06-.125-.2.037-.627.328s-.086.058-.433.775q1.34,2.939,2.458,6.1l1.386-.532A67.544,67.544,0,0,0,376.06,208.063Z" transform="translate(-319.922 -203.32)" fill="#efa92e" fill-rule="evenodd"/><path d="M360.042,219.109c-.079.039-.149.074-.212.1-1.15.536-1.84.594-2.227.9l.959,2.712.137.385,2.46-.944Z" transform="translate(-316.968 -205.203)" fill="#efa92e" fill-rule="evenodd"/><path d="M383.78,211.434l5.724-3.32-.578-.712Z" transform="translate(-321.413 -203.215)" fill="#2c2c39" fill-rule="evenodd"/><path d="M381.1,208.659l4.185-5.927-.45-.373Z" transform="translate(-320.959 -202.359)" fill="#2c2c39" fill-rule="evenodd"/><path d="M383.028,216.733l8.948-.515-.07.915Z" transform="translate(-321.285 -204.712)" fill="#2c2c39" fill-rule="evenodd"/><path d="M383.061,219.827l7.217,2.853-.141.568Z" transform="translate(-321.291 -205.325)" fill="#2c2c39" fill-rule="evenodd"/><path d="M364.13,226.8a2.543,2.543,0,0,0,1.152,2.714c.272.15.708.274,1.544-.384.76-.6-.577-2.947-1.166-3.059S364.143,226.451,364.13,226.8Z" transform="translate(-318.065 -206.383)" fill="#eda08c" fill-rule="evenodd"/><path d="M361.8,229.175l-.582-.621a7.861,7.861,0,0,1,.758-2.1c.361-.39,1.748-1.787,1.905-1.639s.231.542-.131,1.264a2.237,2.237,0,0,1-1.068,1,4.976,4.976,0,0,1-.033,2C362.385,229.88,361.8,229.175,361.8,229.175Z" transform="translate(-317.581 -206.171)" fill="#efaf9e" fill-rule="evenodd"/><path d="M325.013,208.809l.8,1.735c1.169.124,5,.513,5.841.105l-.75-.437a7.97,7.97,0,0,0,2.868-.467c1.427-.539,1.812-1.241,1.69-1.241s-1.155-.076-1.155-.076.669-.1,1.4-1.538.871-2.125.73-1.992-1.054.474-1.014.341.122-1.214.122-1.214-1.425.176-3.262.322-7.719,1.119-7.739,1.613A27.491,27.491,0,0,0,325.013,208.809Z" transform="translate(-311.355 -202.642)" fill="#3d211a" fill-rule="evenodd"/></g><g transform="translate(168.522 123.125)"><path d="M234.892,255.507a24.9,24.9,0,0,0-.791,2.912s-6.854,3.018-5.884,3.727c1.507,1.1,7.086-.322,9.063-.746l-.011-3.141Z" transform="translate(-203.188 -145.603)" fill="#1e1925" fill-rule="evenodd"/><path d="M261.319,254.579a24.9,24.9,0,0,1,.791,2.911s6.853,3.019,5.884,3.728c-1.506,1.1-8.6-.243-8.6-.858l.011-3.141Z" transform="translate(-208.499 -145.445)" fill="#1e1925" fill-rule="evenodd"/><path d="M200.45,134.43a2.831,2.831,0,0,0,.466,2.368,4.724,4.724,0,0,0,2.431,1.212l1.34-1.518s-1.235-2.658-1.366-2.844A13.8,13.8,0,0,0,200.45,134.43Z" transform="translate(-198.476 -124.907)" fill="#eda08c" fill-rule="evenodd"/><path d="M240.912,190.017c-2.835,15.6-4.092,38.634-5.588,57.282a19.039,19.039,0,0,0,3.167-.16c3.74-15.541,7.108-31.565,10.848-47.1,2,15.306,3.924,31.509,5.922,46.815a10.593,10.593,0,0,0,2.761-.321c.584-.084.838-54.9.73-55.544S240.912,190.017,240.912,190.017Z" transform="translate(-204.411 -134.483)" fill="#3f6c8f" fill-rule="evenodd"/><path d="M251.424,140.228c.131,1.226.208,5.181-2.208,6.043a7.514,7.514,0,0,0-1.917,1.113c.069,3.729,8.75,4.716,12.381,1.342l-1.44-1.709c-3.039-.614-1.732-5.732-1.578-8.18Z" transform="translate(-206.444 -125.793)" fill="#eda08c" fill-rule="evenodd"/><path d="M304.192,137.066s.337-3.094.822-3.635,2.182-1.454,2.088-.97a4.418,4.418,0,0,1-.951,1.362l-.112.876a27.679,27.679,0,0,1,3-3.094c.615-.317.858-.037.858-.037s.727-.56,1.007-.335.144.624.089.75-.07.164-.07.164.173-.018.257.3a1.326,1.326,0,0,1-.075.708s.214.093.168.476a1.256,1.256,0,0,1-.205.606c-.037.056-1.743,2.182-1.8,2.294a3.164,3.164,0,0,1-.885,1.342,6.876,6.876,0,0,1-2.634,1.1C303.724,137.905,304.773,138.655,304.192,137.066Z" transform="translate(-216.105 -124.492)" fill="#efaf9e" fill-rule="evenodd"/><path d="M236.269,146.872c-10.779,1.772-22.786-3.032-30.662-10.22l-1.651,1.872a31.356,31.356,0,0,0,14.107,11.106c6.006,3.054,14.049,3.4,18.554,3.309.39,13.732-2.01,23.785-2.561,31.344-.237,3.91,20.485,6.633,20.471,3.383-.388-11.131-2.379-23.648-1.145-33.885,4.624.017,15.746.033,21.334-2.808a31.36,31.36,0,0,0,14.108-11.106L287.172,138c-8.338,7.609-21.3,12.547-32.543,9.84l-3.748-1.19a7.354,7.354,0,0,1-5.818,1.79c-3.58-.447-3.207-2.535-3.207-2.535C239.984,146.2,238.157,146.6,236.269,146.872Z" transform="translate(-199.085 -125.422)" fill="#5dbffc" fill-rule="evenodd"/><path d="M261.9,133.4a13.169,13.169,0,0,1-1.2,4.4c-.621,1.393-2.394,2.165-2.381,1.961s.442-5.151.442-5.151Z" transform="translate(-208.315 -124.87)" fill="#1e1925" fill-rule="evenodd"/><path d="M247.792,139.028c.614,3.4,2.095,4.406,4.513,3.228a10.414,10.414,0,0,0,4.558-4.742,1.807,1.807,0,0,0,1.916-1.056,2.02,2.02,0,0,0-.27-2.619,1.143,1.143,0,0,0-.5-.19,24.51,24.51,0,0,0-.065-3.053c-.1-1.933-5.29-3.806-7.56-2.622C247.547,129.45,247.355,136.608,247.792,139.028Z" transform="translate(-206.498 -123.885)" fill="#efaf9e" fill-rule="evenodd"/><path d="M256.152,131.043c.223.227-.288,3.792.105,3.806s1.77-1.62,1.77-1.62.071-.1.5.19a1.387,1.387,0,0,1,.537.786s1.732-3.314,1.531-4.056-1.654-1.683-1.654-1.683a3.659,3.659,0,0,0-.937-1.7c-.818-.911-3.21-1.1-6.4-1.563-3.162-.457-5.42,1.523-2.55,3.745C251.693,131,256.152,131.043,256.152,131.043Z" transform="translate(-206.518 -123.467)" fill="#1e1925" fill-rule="evenodd"/><rect width="16.819" height="2.797" rx="0.539" transform="translate(0 15.669) rotate(-68.686)" fill="#faffff"/><path d="M256.681,129.844A3.819,3.819,0,0,1,254.2,131.3c-1.846.447-2.219-.56-2.219-.56a3.558,3.558,0,0,1-2.125-.074c-1.268-.392-.653-.971-.653-.971s-.335.6-1.455-.279a1.35,1.35,0,0,1-.075-2.014l.671-1.025a1.615,1.615,0,0,1,.485-1.305c.615-.709,1.883-.392,1.883-.392a2.137,2.137,0,0,1,1.716-.447,2.9,2.9,0,0,1,1.827.876,4,4,0,0,1,1.92-.205,2.2,2.2,0,0,1,1.454,1.026,2.58,2.58,0,0,1,1.567.839,1.575,1.575,0,0,1,.093,1.492s1.1.168,1.063,1.044a2.351,2.351,0,0,1-2.411,1.921A1.428,1.428,0,0,1,256.681,129.844Z" transform="translate(-206.433 -123.31)" fill="#1e1925" fill-rule="evenodd"/><path d="M202,132.167a1.463,1.463,0,0,1,.423.718c.3.764-.672,2.545-1.362,2.806s-1.007.355-1.156-.485a6.3,6.3,0,0,1,1.113-2.979C201.333,131.776,201.512,131.715,202,132.167Z" transform="translate(-198.396 -124.607)" fill="#efaf9e" fill-rule="evenodd"/><path d="M204.637,136.488l.66-.706a8.9,8.9,0,0,0-.86-2.379c-.409-.442-1.983-2.027-2.162-1.86s-.261.615.149,1.435a2.544,2.544,0,0,0,1.212,1.137,5.65,5.65,0,0,0,.037,2.275C203.969,137.287,204.637,136.488,204.637,136.488Z" transform="translate(-198.774 -124.552)" fill="#efaf9e" fill-rule="evenodd"/><path d="M202.81,129.3l2.676,1.305-.522,1.268-2.685-1.166Z" transform="translate(-198.8 -124.172)" fill="#e00022" fill-rule="evenodd"/><path d="M204.906,131.1a9.91,9.91,0,0,1,1.147,1.52c.606.988.382,3.366.54,3.328s.727-.112.727-.112a6.39,6.39,0,0,0-.205-2.956,4.769,4.769,0,0,0-1.687-1.892Z" transform="translate(-199.246 -124.461)" fill="#e00022" fill-rule="evenodd"/><path d="M204.928,131.595a3.916,3.916,0,0,0,2.191.42,2.728,2.728,0,0,0,1.948-.691l-.335-.512a5.776,5.776,0,0,1-2.238.569,5.524,5.524,0,0,1-1.528-.121Z" transform="translate(-199.25 -124.43)" fill="#e00022" fill-rule="evenodd"/></g><path d="M404.542,327.147c.288-.122,1.276-.477,1.527-.6a27.4,27.4,0,0,1,2.889-1.2,9.153,9.153,0,0,1,2.059.408c.5.157,1.683.771,1.812.819.264.1-.248.486-.577.467a5.963,5.963,0,0,1-1.417-.6c-.147.009-.287.015-.419.017a1.6,1.6,0,0,1,.267.187c.167.174.4.7.308.779a.766.766,0,0,1-.612.177,2.762,2.762,0,0,1-.918-.412c-.244.788-1.957,1.526-2.687,1.6a2.7,2.7,0,0,1-1.3-.188Z" transform="translate(-64.622 -34.336)" fill="#efaf9e" fill-rule="evenodd"/><path d="M395.753,297.854c.7.379-.5,18.785-.5,18.785l8.379,5.307-.932,1.929-11.357-5.92s-.315-18.27.6-19.511C392.468,297.722,395.161,297.534,395.753,297.854Z" transform="translate(-62.371 -29.643)" fill="#c4aa2b" fill-rule="evenodd"/><path d="M395.995,281.2a12.615,12.615,0,0,0-1.42,4.129c-.259,1.436.726,3,.826,2.834s2.426-4.31,2.426-4.31Z" transform="translate(-62.922 -26.84)" fill="#1e1925" fill-rule="evenodd"/><path d="M397.749,290.834a8.863,8.863,0,0,0-.917,3.591,10.171,10.171,0,0,1-.726,3.423l-4.459-3.278,4.09-6.893Z" transform="translate(-62.432 -27.94)" fill="#eda08c" fill-rule="evenodd"/><path d="M388.055,373.679H307.119c-3.833,0-6.94,4.339-6.94,9.69s3.107,9.689,6.94,9.689h80.937l-.435-1.049a23.206,23.206,0,0,1,0-17.282Z" transform="translate(-46.901 -42.543)" fill="#e6ebfe" fill-rule="evenodd"/><path d="M307.191,373.339h83.546v-2.172H307.191c-4.871,0-8.528,5.5-8.528,11.776s3.657,11.775,8.528,11.775h83.546v-2.172H307.191c-3.8,0-6.877-4.3-6.877-9.6S303.393,373.339,307.191,373.339Z" transform="translate(-46.644 -42.117)" fill="#c19c7c" fill-rule="evenodd"/><path d="M355.695,383.369c0-5.352,3.107-9.69,6.94-9.69H307.119c-3.833,0-6.94,4.339-6.94,9.69s3.107,9.689,6.94,9.689h55.516C358.8,393.058,355.695,388.72,355.695,383.369Z" transform="translate(-46.901 -42.543)" fill="#d7dceb" fill-rule="evenodd"/><path d="M302.038,345.313h80.937c3.833,0,6.94,4.339,6.94,9.689s-3.107,9.69-6.94,9.69H302.038l.435-1.049a23.206,23.206,0,0,0,0-17.282Z" transform="translate(-47.217 -37.727)" fill="#e6ebfe" fill-rule="evenodd"/><path d="M382.044,344.973H298.5V342.8h83.547c4.871,0,8.528,5.5,8.528,11.775s-3.657,11.775-8.528,11.775H298.5V364.18h83.547c3.8,0,6.877-4.3,6.877-9.6S385.842,344.973,382.044,344.973Z" transform="translate(-46.616 -37.3)" fill="#303879" fill-rule="evenodd"/><path d="M339.6,355.13c0-5.684-3.107-10.293-6.939-10.293h55.516c3.833,0,6.94,4.608,6.94,10.293s-3.107,10.292-6.94,10.292H332.658C336.49,365.422,339.6,360.813,339.6,355.13Z" transform="translate(-52.416 -37.646)" fill="#303879" fill-rule="evenodd"/><g transform="translate(260.205 333.477)"><rect width="76.006" height="0.905" fill="#adb2c1"/><rect width="76.006" height="0.905" transform="translate(0 3.506)" fill="#adb2c1"/><rect width="76.006" height="0.905" transform="translate(0 10.518)" fill="#adb2c1"/><rect width="76.006" height="0.905" transform="translate(0 7.012)" fill="#adb2c1"/><rect width="76.006" height="0.905" transform="translate(0 14.024)" fill="#adb2c1"/></g><g transform="translate(258.757 310.087)"><rect width="22.531" height="0.905" transform="translate(0)" fill="#adb2c1"/><rect width="22.531" height="0.905" transform="translate(0 3.507)" fill="#adb2c1"/><rect width="22.531" height="0.905" transform="translate(0 10.519)" fill="#adb2c1"/><rect width="22.531" height="0.905" transform="translate(0 7.013)" fill="#adb2c1"/><rect width="22.531" height="0.905" transform="translate(0 14.025)" fill="#adb2c1"/></g><g transform="translate(88.061 276.956)"><g transform="translate(31.327)"><path d="M168.533,323.812h-3.379V311.8H142.286v12.015h-3.38V310.107a1.688,1.688,0,0,1,1.689-1.689h26.249a1.688,1.688,0,0,1,1.689,1.689Z" transform="translate(-138.906 -308.418)" fill="#491925" fill-rule="evenodd"/></g><path d="M167.948,323.227V310.258a.953.953,0,0,0-.955-.954H140.746a.952.952,0,0,0-.954.954v12.969H141.7V311.212h24.341v12.016Z" transform="translate(-107.73 -308.568)" fill="#48222f" fill-rule="evenodd"/><g transform="translate(1.849 10.649)"><path d="M191.983,380.933a5.376,5.376,0,0,1-5.415,5.308H108.813a5.376,5.376,0,0,1-5.414-5.308V326.554a5.378,5.378,0,0,1,5.414-5.309h77.756a5.379,5.379,0,0,1,5.415,5.309Z" transform="translate(-103.399 -321.245)" fill="#54598f" fill-rule="evenodd"/></g><path d="M190.392,381.339V379.61a.173.173,0,1,0-.345,0,11.249,11.249,0,0,1-.09,2.442.173.173,0,0,0,.334.088,3.173,3.173,0,0,0,.1-.8Zm-1.019,2.351a.173.173,0,0,0-.238-.251,3.147,3.147,0,0,1-1.421.777.173.173,0,0,0,.081.336,3.492,3.492,0,0,0,1.579-.863Zm-3.341.961a.173.173,0,1,0,0-.345H184.3a.173.173,0,1,0,0,.345Zm-3.458,0a.173.173,0,1,0,0-.345h-1.729a.173.173,0,0,0,0,.345Zm-3.458,0a.173.173,0,0,0,0-.345h-1.729a.173.173,0,0,0,0,.345Zm-3.458,0a.173.173,0,0,0,0-.345H173.93a.173.173,0,0,0,0,.345Zm-3.458,0a.173.173,0,0,0,0-.345h-1.729a.173.173,0,0,0,0,.345Zm-3.458,0a.173.173,0,0,0,0-.345h-1.729a.173.173,0,0,0,0,.345Zm-3.458,0a.173.173,0,0,0,0-.345h-1.729a.173.173,0,0,0,0,.345Zm-3.459,0a.173.173,0,1,0,0-.345H160.1a.173.173,0,1,0,0,.345Zm-3.458,0a.173.173,0,1,0,0-.345h-1.728a.173.173,0,1,0,0,.345Zm-3.458,0a.173.173,0,1,0,0-.345h-1.728a.173.173,0,1,0,0,.345Zm-3.458,0a.173.173,0,0,0,0-.345h-1.728a.173.173,0,1,0,0,.345Zm-3.458,0a.173.173,0,0,0,0-.345h-1.729a.173.173,0,0,0,0,.345Zm-3.458,0a.173.173,0,0,0,0-.345h-1.729a.173.173,0,0,0,0,.345Zm-3.458,0a.173.173,0,0,0,0-.345h-1.729a.173.173,0,0,0,0,.345Zm-3.458,0a.173.173,0,0,0,0-.345h-1.729a.173.173,0,0,0,0,.345Zm-3.458,0a.173.173,0,0,0,0-.345h-1.729a.173.173,0,0,0,0,.345Zm-3.459,0a.173.173,0,1,0,0-.345h-1.728a.173.173,0,0,0,0,.345Zm-3.458,0a.173.173,0,1,0,0-.345H125.52a.173.173,0,0,0,0,.345Zm-3.458,0a.173.173,0,1,0,0-.345h-1.728a.173.173,0,1,0,0,.345Zm-3.458,0a.173.173,0,1,0,0-.345H118.6a.173.173,0,1,0,0,.345Zm-3.458,0a.173.173,0,0,0,0-.345h-1.728a.173.173,0,1,0,0,.345Zm-3.458,0a.173.173,0,0,0,0-.345h-1.729a.173.173,0,0,0,0,.345Zm-3.458,0a.173.173,0,0,0,0-.345h-.741a3.091,3.091,0,0,1-.921-.139.173.173,0,0,0-.1.33,3.429,3.429,0,0,0,1.024.155Zm-3.288-1.112a.173.173,0,0,0,.253-.235,2.91,2.91,0,0,1-.729-1.434.173.173,0,0,0-.34.061,3.238,3.238,0,0,0,.816,1.607Zm-.871-3.364a.173.173,0,0,0,.345,0v-1.729a.173.173,0,0,0-.345,0v1.729Zm0-3.458a.173.173,0,0,0,.345,0v-1.729a.173.173,0,0,0-.345,0v1.729Zm0-3.458a.173.173,0,0,0,.345,0V371.53a.173.173,0,0,0-.345,0v1.729Zm0-3.458a.173.173,0,0,0,.345,0v-1.729a.173.173,0,0,0-.345,0V369.8Zm0-3.458a.173.173,0,0,0,.345,0v-1.729a.173.173,0,0,0-.345,0v1.729Zm0-3.458a.173.173,0,0,0,.345,0v-1.729a.173.173,0,1,0-.345,0v1.729Zm0-3.459a.173.173,0,1,0,.345,0V357.7a.173.173,0,1,0-.345,0v1.728Zm0-3.458a.173.173,0,1,0,.345,0v-1.728a.173.173,0,1,0-.345,0v1.728Zm0-3.458a.173.173,0,1,0,.345,0v-1.728a.173.173,0,1,0-.345,0v1.728Zm0-3.458a.173.173,0,0,0,.345,0v-1.728a.173.173,0,1,0-.345,0v1.728Zm0-3.458a.173.173,0,0,0,.345,0v-1.729a.173.173,0,0,0-.345,0V345.6Zm0-3.458a.173.173,0,0,0,.345,0v-1.729a.173.173,0,0,0-.345,0v1.729Zm0-3.458a.173.173,0,0,0,.345,0v-1.729a.173.173,0,0,0-.345,0v1.729Zm0-3.458a.173.173,0,0,0,.345,0v-1.729a.173.173,0,1,0-.345,0v1.729Zm0-3.458a.173.173,0,0,0,.345,0v-1.729a.173.173,0,1,0-.345,0v1.729Zm0-3.458a.173.173,0,0,0,.345,0,14.333,14.333,0,0,1,.022-1.706.173.173,0,0,0-.343-.044,14.9,14.9,0,0,0-.025,1.75Zm.745-3.4a.173.173,0,0,0,.266.221,3.121,3.121,0,0,1,1.321-.936.173.173,0,0,0-.119-.325,3.48,3.48,0,0,0-1.469,1.04Zm3.232-1.257a.173.173,0,0,0,0,.346h1.729a.173.173,0,0,0,0-.346Zm3.458,0a.173.173,0,0,0,0,.346h1.729a.173.173,0,0,0,0-.346Zm3.459,0a.173.173,0,1,0,0,.346h1.728a.173.173,0,1,0,0-.346Zm3.458,0a.173.173,0,1,0,0,.346h1.728a.173.173,0,1,0,0-.346Zm3.458,0a.173.173,0,1,0,0,.346h1.728a.173.173,0,1,0,0-.346Zm3.458,0a.173.173,0,0,0,0,.346H128.8a.173.173,0,1,0,0-.346Zm3.458,0a.173.173,0,0,0,0,.346h1.729a.173.173,0,0,0,0-.346Zm3.458,0a.173.173,0,0,0,0,.346h1.729a.173.173,0,0,0,0-.346Zm3.458,0a.173.173,0,0,0,0,.346h1.729a.173.173,0,0,0,0-.346Zm3.458,0a.173.173,0,0,0,0,.346h1.729a.173.173,0,0,0,0-.346Zm3.458,0a.173.173,0,0,0,0,.346h1.729a.173.173,0,0,0,0-.346Zm3.458,0a.173.173,0,0,0,0,.346h1.729a.173.173,0,0,0,0-.346Zm3.459,0a.173.173,0,1,0,0,.346H153a.173.173,0,0,0,0-.346Zm3.458,0a.175.175,0,0,0-.159.105.173.173,0,0,0,.159.241h1.728a.173.173,0,1,0,0-.346Zm3.458,0a.175.175,0,0,0-.159.105.173.173,0,0,0,.159.241h1.728a.173.173,0,1,0,0-.346Zm3.458,0a.173.173,0,1,0,0,.346h1.728a.173.173,0,1,0,0-.346Zm3.458,0a.173.173,0,0,0,0,.346h1.728a.173.173,0,1,0,0-.346Zm3.458,0a.173.173,0,0,0,0,.346h1.729a.173.173,0,0,0,0-.346Zm3.458,0a.173.173,0,0,0,0,.346h1.729a.173.173,0,0,0,0-.346Zm3.458,0a.173.173,0,0,0,0,.346h1.729a.173.173,0,0,0,0-.346Zm3.458,0a.173.173,0,0,0,0,.346h1.729a.173.173,0,0,0,0-.346Zm3.458,0a.173.173,0,0,0,0,.346h1.729a.173.173,0,0,0,0-.346Zm3.458,0a.173.173,0,0,0,0,.346,9.8,9.8,0,0,1,1.694.053.173.173,0,0,0,.065-.34,9.965,9.965,0,0,0-1.758-.06Zm3.381.834a.173.173,0,0,0-.224.263,2.979,2.979,0,0,1,.9,1.337.173.173,0,0,0,.33-.105,3.327,3.327,0,0,0-1.007-1.494Zm1.161,3.26a.173.173,0,0,0-.345,0v1.729a.173.173,0,0,0,.345,0v-1.729Zm0,3.458a.173.173,0,0,0-.345,0v1.729a.173.173,0,0,0,.345,0V331.2Zm0,3.459a.173.173,0,1,0-.345,0v1.728a.173.173,0,0,0,.345,0v-1.728Zm0,3.458a.173.173,0,1,0-.345,0v1.728a.173.173,0,1,0,.345,0v-1.728Zm0,3.458a.173.173,0,1,0-.345,0V343.3a.173.173,0,1,0,.345,0v-1.728Zm0,3.458a.173.173,0,0,0-.345,0v1.728a.173.173,0,1,0,.345,0v-1.728Zm0,3.458a.173.173,0,0,0-.345,0v1.729a.173.173,0,0,0,.345,0v-1.729Zm0,3.458a.173.173,0,0,0-.345,0v1.729a.173.173,0,0,0,.345,0v-1.729Zm0,3.458a.173.173,0,0,0-.345,0v1.729a.173.173,0,0,0,.345,0V355.4Zm0,3.458a.173.173,0,0,0-.345,0v1.729a.173.173,0,0,0,.345,0v-1.729Zm0,3.458a.173.173,0,0,0-.345,0v1.729a.173.173,0,0,0,.345,0V362.32Zm0,3.458a.173.173,0,0,0-.345,0v1.729a.173.173,0,0,0,.345,0v-1.729Zm0,3.459a.173.173,0,1,0-.345,0v1.728a.173.173,0,0,0,.345,0v-1.728Zm0,3.458a.173.173,0,1,0-.345,0v1.728a.173.173,0,1,0,.345,0v-1.728Zm0,3.458a.173.173,0,1,0-.345,0v1.728a.173.173,0,1,0,.345,0Z" transform="translate(-101.955 -311.002)" fill="#48426d" fill-rule="evenodd"/><path d="M101.172,320.368c.265,16.843,20.816,30.444,46.141,30.444s45.875-13.6,46.14-30.444Z" transform="translate(-101.172 -310.447)" fill="#6d79b7" fill-rule="evenodd"/><rect width="10.807" height="13.833" rx="1.286" transform="translate(40.737 34.131)" fill="#faf2ff"/><rect width="7.782" height="10.809" rx="1.62" transform="translate(42.25 35.643)" fill="#bf99a8"/></g><g transform="translate(141.488 234.832)"><path d="M165.526,267.7l69.294-10.021L304.115,267.7v1.657L234.82,279.378l-69.294-10.021Z" transform="translate(-165.526 -257.678)" fill="#393a48" fill-rule="evenodd"/><path d="M165.526,269.7l69.294-10.021L304.115,269.7,234.82,279.717Z" transform="translate(-165.526 -258.017)" fill="#1e1925" fill-rule="evenodd"/><path d="M212.111,274.036h60.2l3.065,24.227H209.046Z" transform="translate(-172.916 -260.456)" fill="#292e3d" fill-rule="evenodd"/><path d="M242.832,278c16.578,0,30.1-2.187,30.1-4.868s-13.522-4.868-30.1-4.868-30.1,2.187-30.1,4.868S226.255,278,242.832,278Z" transform="translate(-173.542 -259.476)" fill="#292e3d" fill-rule="evenodd"/><path d="M242.209,307.09c18.267,0,33.164-2.187,33.164-4.868s-14.9-4.868-33.164-4.868-33.163,2.187-33.163,4.868S223.944,307.09,242.209,307.09Z" transform="translate(-172.916 -264.415)" fill="#151a29" fill-rule="evenodd"/><path d="M318.1,267.672v52.386a1.039,1.039,0,0,0,1.036,1.036h0a1.039,1.039,0,0,0,1.035-1.036V266.637a1.039,1.039,0,0,0-1.035-1.036h-15.36Z" transform="translate(-189.001 -259.024)" fill="#de1922" fill-rule="evenodd"/><path d="M321.378,316.477c3.62,0,6.62,16.506-.044,23.149C314.631,332.943,317.735,316.477,321.378,316.477Z" transform="translate(-191.312 -267.662)" fill="#de1922" fill-rule="evenodd"/><path d="M.971,0H2.4a.971.971,0,0,1,.971.971v0a.971.971,0,0,1-.971.971H.971A.971.971,0,0,1,0,.971v0A.971.971,0,0,1,.971,0Z" transform="translate(128.422 47.679)" fill="#e4574e"/><path d="M270.661,278.69c-16.307,6.462-36.1,10.25-57.438,10.25q-1.458,0-2.907-.024l-1.241,9.811c.66-2.6,15.245-4.684,33.14-4.684s32.481,2.08,33.141,4.684l-2.574-20.343-.067-.53Q271.7,278.28,270.661,278.69Z" transform="translate(-172.92 -261.104)" fill="#2e3342" fill-rule="evenodd"/></g><g transform="translate(160.055 272.568)"><rect width="101.416" height="72.725" transform="translate(0 7.307)" fill="#172751"/><rect width="101.416" height="72.725" transform="translate(0 6.395)" fill="#314b8f"/><path d="M189.429,338.261v36.207a111.957,111.957,0,0,1,49.3,0V305.879a111.975,111.975,0,0,0-49.3,0Z" transform="translate(-188.151 -303.133)" fill="#e6ebfe" fill-rule="evenodd"/><path d="M248.81,338.261v36.207a111.961,111.961,0,0,1,49.3,0V305.879a111.995,111.995,0,0,0-49.3,0Z" transform="translate(-198.233 -303.133)" fill="#f5f8ff" fill-rule="evenodd"/><path d="M189.436,390.64a113.25,113.25,0,0,1,49.292-.335l-.007-1.07a113.256,113.256,0,0,0-49.292.371Z" transform="translate(-188.151 -317.323)" fill="#e9d79f" fill-rule="evenodd"/><path d="M189.436,392.676a113.267,113.267,0,0,1,49.292-.335l-.007-1.07a113.256,113.256,0,0,0-49.292.371Z" transform="translate(-188.151 -317.669)" fill="#e9d79f" fill-rule="evenodd"/><path d="M189.436,394.713a113.266,113.266,0,0,1,49.292-.335l-.007-1.071a113.273,113.273,0,0,0-49.292.372Z" transform="translate(-188.151 -318.014)" fill="#e9d79f" fill-rule="evenodd"/><path d="M298.1,390.64a113.253,113.253,0,0,0-49.293-.335l.007-1.07a113.256,113.256,0,0,1,49.292.371Z" transform="translate(-198.233 -317.323)" fill="#ecd28a" fill-rule="evenodd"/><path d="M298.1,392.676a113.271,113.271,0,0,0-49.293-.335l.007-1.07a113.256,113.256,0,0,1,49.292.371Z" transform="translate(-198.233 -317.669)" fill="#ecd28a" fill-rule="evenodd"/><path d="M298.1,394.713a113.27,113.27,0,0,0-49.293-.335l.007-1.071a113.273,113.273,0,0,1,49.292.372Z" transform="translate(-198.233 -318.014)" fill="#ecd28a" fill-rule="evenodd"/><path d="M294.681,323.228A93.464,93.464,0,0,0,254,322.952l.006-.883a93.444,93.444,0,0,1,40.678.306Z" transform="translate(-199.115 -305.993)" fill="#64442f" fill-rule="evenodd"/><path d="M294.681,331.615A93.462,93.462,0,0,0,254,331.338l.006-.883a93.462,93.462,0,0,1,40.678.307Z" transform="translate(-199.115 -307.417)" fill="#64442f" fill-rule="evenodd"/><path d="M294.681,341.37A93.464,93.464,0,0,0,254,341.093l.006-.883a93.478,93.478,0,0,1,40.678.306Z" transform="translate(-199.115 -309.074)" fill="#64442f" fill-rule="evenodd"/><path d="M294.681,350.794A93.463,93.463,0,0,0,254,350.517l.006-.883a93.479,93.479,0,0,1,40.678.306Z" transform="translate(-199.115 -310.674)" fill="#64442f" fill-rule="evenodd"/><path d="M294.681,359.18A93.464,93.464,0,0,0,254,358.9l.006-.883a93.445,93.445,0,0,1,40.678.306Z" transform="translate(-199.115 -312.098)" fill="#64442f" fill-rule="evenodd"/><path d="M294.681,368.935A93.48,93.48,0,0,0,254,368.658l.006-.883a93.461,93.461,0,0,1,40.678.307Z" transform="translate(-199.115 -313.754)" fill="#64442f" fill-rule="evenodd"/><path d="M236.4,322.732a93.463,93.463,0,0,0-40.678-.276l.006-.883a93.482,93.482,0,0,1,40.678.306Z" transform="translate(-189.22 -305.909)" fill="#925a33" fill-rule="evenodd"/><path d="M236.4,331.118a93.463,93.463,0,0,0-40.678-.276l.006-.883a93.449,93.449,0,0,1,40.678.306Z" transform="translate(-189.22 -307.333)" fill="#925a33" fill-rule="evenodd"/><path d="M236.4,340.873a93.48,93.48,0,0,0-40.678-.277l.006-.883a93.449,93.449,0,0,1,40.678.306Z" transform="translate(-189.22 -308.989)" fill="#925a33" fill-rule="evenodd"/><path d="M236.4,350.3a93.464,93.464,0,0,0-40.678-.276l.006-.883a93.482,93.482,0,0,1,40.678.306Z" transform="translate(-189.22 -310.59)" fill="#925a33" fill-rule="evenodd"/><path d="M236.4,358.684a93.464,93.464,0,0,0-40.678-.276l.006-.883a93.484,93.484,0,0,1,40.678.306Z" transform="translate(-189.22 -312.014)" fill="#925a33" fill-rule="evenodd"/><path d="M236.4,368.439a93.463,93.463,0,0,0-40.678-.276l.006-.883a93.482,93.482,0,0,1,40.678.306Z" transform="translate(-189.22 -313.67)" fill="#925a33" fill-rule="evenodd"/></g><g transform="translate(230.637 270.27)"><g transform="translate(29.841)"><path d="M313.151,300.364a61.242,61.242,0,0,0-4.243,8.506l-.056.135,2.594,1.085c.018-.046.037-.09.057-.136a61.238,61.238,0,0,0,3.126-8.972Z" transform="translate(-308.851 -300.364)" fill="#e9eefe" fill-rule="evenodd"/></g><path d="M311.285,304.457l2.02.852a2.137,2.137,0,0,1,1.217,2.754l-.041.1a2.138,2.138,0,0,1-2.822,1.05l-2.019-.852a2.137,2.137,0,0,1-1.218-2.754l.041-.1A2.137,2.137,0,0,1,311.285,304.457Z" transform="translate(-278.912 -301.028)" fill="#172d68" fill-rule="evenodd"/><path d="M306.007,305.759c-3.5,4.577-7.98,12.765-12.054,22.455q-.076.182-.151.364l5.223,2.193h0l5.217,2.21c.051-.12.1-.242.154-.362,4.1-9.68,6.836-18.6,7.669-24.3l-3.027-1.283h0Z" transform="translate(-276.455 -301.28)" fill="#00a0f7" fill-rule="evenodd"/><path d="M306.3,307.934q-.667.978-1.368,2.095l4.162,1.714h0l3.913,1.665c.208-.853.389-1.669.545-2.442l-3.5-1.489h0Z" transform="translate(-278.346 -301.649)" fill="#ec910f" fill-rule="evenodd"/><path d="M295.643,335.438h0l-5.224-2.194c-.1.227-.189.452-.286.68-7.651,18.2-13.528,34.635-16.245,44.854l2.952,1.24h0l2.949,1.249c5.421-9.077,13.093-24.76,20.786-42.939l.287-.68Z" transform="translate(-273.074 -305.947)" fill="#172d68" fill-rule="evenodd"/><path d="M276.216,394.989a2.184,2.184,0,0,0-.452-2.673h0l0,0a2.184,2.184,0,0,0-2.23,1.543c-.606,1.445-.3,3.553.027,3.692h0C273.881,397.686,275.6,396.432,276.216,394.989Z" transform="translate(-272.953 -315.971)" fill="#e9eefe" fill-rule="evenodd"/><path d="M279.622,390.583a18.327,18.327,0,0,1-4.013,5.029q-1.344-.569-2.69-1.134a18.423,18.423,0,0,1,.836-6.37Q276.691,389.341,279.622,390.583Z" transform="translate(-272.907 -315.263)" fill="#00a0f7" fill-rule="evenodd"/><path d="M311.754,310.155c4.044,1.706,4.805,1.508,4.676,4.648l-5.634-2.377Z" transform="translate(-279.341 -302.026)" fill="#ec910f" fill-rule="evenodd"/><path d="M314.146,313.495c.5,2.789-2.069,13.683-4.945,17.1-1.5,1.78-2.034,3.411-1.733,3.708s2.442-1.639,2.873-2.106c1.541-1.67,5.928-13.539,5.492-18.119Z" transform="translate(-278.762 -302.594)" fill="#ec910f" fill-rule="evenodd"/><path d="M303.271,310.569a133.643,133.643,0,0,0-9.318,18.461l-.152.364,5.224,2.193,8.182-19.4Z" transform="translate(-276.455 -302.097)" fill="#25b2f7" fill-rule="evenodd"/><path d="M295.643,335.438l-5.224-2.193h0c-.1.227-.189.452-.286.68-7.651,18.2-13.528,34.635-16.245,44.854l.034.014.5.208,2.422,1.017Z" transform="translate(-273.074 -305.947)" fill="#203c99" fill-rule="evenodd"/><path d="M274.251,388.316l-.5-.208a18.423,18.423,0,0,0-.836,6.37l.236.1,1.11.467,1.45-3.436.958-2.271Z" transform="translate(-272.907 -315.263)" fill="#25b2f7" fill-rule="evenodd"/><path d="M306.856,307.657l2.233.918,1.291.531.03-.071.844-2-1.231-.517-1.8-.755Q307.562,306.625,306.856,307.657Z" transform="translate(-278.672 -301.28)" fill="#25b2f7" fill-rule="evenodd"/><path d="M308.5,305.507l1.8.755,1.232.517.8-1.9-1.01-.426c-.04-.017-.081-.033-.121-.047A2.13,2.13,0,0,0,308.5,305.507Z" transform="translate(-278.951 -301.028)" fill="#203c99" fill-rule="evenodd"/></g><g transform="translate(249.414 258.283)"><path d="M295.525,396.771l4.444-3.794,4.444-3.795,1.256-2.046-6.078-3.873-1.315,2.15-1.389,5.671Z" transform="translate(-295.525 -302.454)" fill="#efaf9b" fill-rule="evenodd"/><path d="M297.3,397.535l-1.224-.759-.55,2.289Z" transform="translate(-295.525 -304.748)" fill="#2c2c39" fill-rule="evenodd"/><path d="M353.665,286.458l.131.074a3.54,3.54,0,0,1,1.156,4.85l-49.977,81.273-.026-.015a2.867,2.867,0,0,1-2.509-2.755,1.2,1.2,0,0,1-2.025-1.262,1.211,1.211,0,0,0-1.583.243l49.983-81.251A3.5,3.5,0,0,1,353.665,286.458Z" transform="translate(-296.087 -285.926)" fill="#15131a" fill-rule="evenodd"/><rect width="3.121" height="7.202" transform="translate(50.562 5.2) rotate(-58.452)" fill="#f7d00f"/><path d="M305.275,372.775a1.193,1.193,0,0,1,.512,1.442l.026.015,47.81-77.761-2.046-1.257L305.038,370.9l-1.271,2.072A1.2,1.2,0,0,1,305.275,372.775Z" transform="translate(-296.925 -287.503)" fill="#131113" fill-rule="evenodd"/><path d="M300.346,369.749a1.221,1.221,0,0,1,.513,1.442l.026.015,47.81-77.762-2.046-1.255L300.11,367.878l-1.271,2.072A1.2,1.2,0,0,1,300.346,369.749Z" transform="translate(-296.088 -286.99)" fill="#131113" fill-rule="evenodd"/></g><path d="M409.83,364.915l-.9,2.535-.381,2.467a33.4,33.4,0,0,0,5.109,2.533c1.9.6,3.458-.264,2.969-.77s-4.691-3.479-4.691-3.479Z" transform="translate(-65.303 -41.055)" fill="#393a48" fill-rule="evenodd"/><path d="M383.261,330.074c1.038,0,12.451.638,12.451.638s14.6,1.118,16.519,3.193-4.948,28.57-4.948,28.57l-3.192-.8,1.03-21.821c-3.361-.161-23.74,2.476-23.853-.566C381.238,338.5,383.261,330.074,383.261,330.074Z" transform="translate(-60.67 -35.139)" fill="#7b6e2f" fill-rule="evenodd"/><path d="M390.62,293.942c-9.669,4.6-13.061,28.811-9.62,39.211l11.08-8.762c-2.47-11.606,3.706-19.214,2.455-25.014C393.784,295.9,391.346,293.978,390.62,293.942Z" transform="translate(-60.402 -29.004)" fill="#e8c830" fill-rule="evenodd"/><path d="M402.213,292.86c-2.315,2.354-4.03,2.354-5.307.12a9.956,9.956,0,0,1-1.048-6.2,1.729,1.729,0,0,1-.946-1.867,1.932,1.932,0,0,1,1.625-1.925,1.086,1.086,0,0,1,.5.12,23.459,23.459,0,0,1,1.7-2.379c1.117-1.476,6.232-.158,7.39,2C407.567,285.418,403.863,291.181,402.213,292.86Z" transform="translate(-62.985 -26.653)" fill="#efaf9e" fill-rule="evenodd"/><path d="M399.858,281.947c-.3.06-1.816,3.152-2.134,2.953s-.526-2.234-.526-2.234,0-.116-.5-.12a1.327,1.327,0,0,0-.848.331s.417-3.552.975-4.031a4.566,4.566,0,0,1,2.215-.439,3.5,3.5,0,0,1,1.655-.838c1.137-.28,3.132.858,5.906,2.215,2.745,1.343,3.463,4.124,0,4.335C403.408,284.312,399.858,281.947,399.858,281.947Z" transform="translate(-63.146 -26.217)" fill="#1e1925" fill-rule="evenodd"/><rect width="0.798" height="15.083" transform="translate(334.509 295.63) rotate(-83.734)" fill="#292635"/><path d="M423.6,316.289l-.055-1.149-2.518.328-4.7,13.759,1.885.519.969-.145Z" transform="translate(-66.623 -32.603)" fill="#30303c" fill-rule="evenodd"/><rect width="0.798" height="15.083" transform="translate(336.729 295.874) rotate(-83.736)" fill="#30303d"/><rect width="15.083" height="0.798" transform="translate(351.81 296.727) rotate(-70.193)" fill="#393a48"/><path d="M404.835,328.2c.313-.005,1.362.033,1.64.014a27.418,27.418,0,0,1,3.131-.039,9.107,9.107,0,0,1,1.757,1.147c.409.334,1.274,1.343,1.376,1.436.208.19-.412.359-.711.217a5.994,5.994,0,0,1-1.089-1.087c-.139-.046-.272-.094-.4-.141a1.614,1.614,0,0,1,.177.272c.09.225.109.8,0,.839a.769.769,0,0,1-.633-.065,2.762,2.762,0,0,1-.7-.725c-.521.64-2.385.685-3.09.48a2.71,2.71,0,0,1-1.135-.659Z" transform="translate(-64.671 -34.81)" fill="#efaf9e" fill-rule="evenodd"/><path d="M386.929,313.062l15.7,9.463-1.317,1.676-18.552-8.508c-2.193-1.005,2.549-16,3.64-18.69a3.649,3.649,0,0,1,4.645-2.137C394.6,296.313,387.191,311.565,386.929,313.062Z" transform="translate(-60.826 -29.123)" fill="#fada4a" fill-rule="evenodd"/><g transform="translate(102.345 237.91)"><path d="M150.093,285.7c-.051-.022-.511-3.038-.224-3.585s1.5-1.657,1.523-1.237a3.769,3.769,0,0,1-.5,1.323l.09.747a23.613,23.613,0,0,1,1.836-3.184c.443-.39.7-.209.7-.209s.485-.614.762-.487.25.486.23.6-.024.149-.024.149.139-.051.275.193a1.129,1.129,0,0,1,.086.6s.2.032.238.359a1.076,1.076,0,0,1-.043.543c-.019.054-.986,2.167-1.009,2.271a2.712,2.712,0,0,1-.452,1.293,7.717,7.717,0,0,1-1.675,1.61C150.01,286.232,150.144,285.719,150.093,285.7Z" transform="translate(-123.708 -264.385)" fill="#efaf9e" fill-rule="evenodd"/><path d="M132.618,286.987c.411.171,9.067,9.441,9.307,9.509s4.481-9.577,4.754-9.509,2.087.719,2.087.719-4.538,12.675-5.119,13.5-9.352-4.652-11.85-7.9-2.475-5.685-1.574-6.363S132.618,286.987,132.618,286.987Z" transform="translate(-120.294 -265.676)" fill="#9f68fa" fill-rule="evenodd"/><path d="M156.2,298.512a4.949,4.949,0,0,0,1.166.189c.787,0,1.54-.376,1.3.069a7.852,7.852,0,0,1-2.162,1.146Z" transform="translate(-124.799 -267.69)" fill="#efaf9e" fill-rule="evenodd"/><path d="M156.325,297.25s6.616-.306,8.041,5.5l8.857-10.586s-3.767-4.885-8.449-3.562Z" transform="translate(-124.82 -265.968)" fill="#002d5a" fill-rule="evenodd"/><path d="M129.823,316.329c-1.294.849-3.42,1.665-5.109,8.441s1.064,25.8,1.064,25.8a116.528,116.528,0,0,0-3.327,13.984c-.975,6.366-2.127,14.958-2.127,14.958l3.02.895,8.534-28.253c3.011-9.971,2.853-33.079,1.891-33.617Z" transform="translate(-118.707 -270.715)" fill="#44437f" fill-rule="evenodd"/><path d="M131.181,392.829l-.784,1.293-.3,1.4s1.459,2.047,2.956,1.9,1.763-1.038,1.763-1.038l-1.328-1.877Z" transform="translate(-120.367 -283.705)" fill="#f5d9d6" fill-rule="evenodd"/><path d="M129.986,396.053c-.443.094-.771,2.353-.345,2.829h2.783c1.338,0,4.525.073,5.542,0s2.619-.819.9-1.228a45.943,45.943,0,0,1-4.828-1.676C133.65,397.606,130.765,396.781,129.986,396.053Z" transform="translate(-120.255 -284.239)" fill="#303879" fill-rule="evenodd"/><path d="M125.026,315.328c-1.094,1.1-3.01,2.326-3.284,9.306s6.295,25.041,6.295,25.041a116.514,116.514,0,0,0-.41,14.368c.342,6.432,1.195,17.416,1.195,17.416l3.377.071,2.133-31.547s1.232-15.189,1.369-21.21a39.722,39.722,0,0,0-2.258-12.521Z" transform="translate(-118.946 -270.545)" fill="#4e4d8f" fill-rule="evenodd"/><path d="M122.654,269.872a12.3,12.3,0,0,0,1.176,4.1c.6,1.294,2.261,1.995,2.247,1.8s-.472-4.807-.472-4.807Z" transform="translate(-119.1 -262.827)" fill="#1e1925" fill-rule="evenodd"/><path d="M129.885,276.3s.623.639,1.276,3.386a8.488,8.488,0,0,0,2.778,4.616s.347,2.6-7.29-1.46l-.141-7.941Z" transform="translate(-119.757 -263.681)" fill="#eda08c" fill-rule="evenodd"/><path d="M134.4,274.971c-.535,3.179-1.907,4.139-4.179,3.066a9.728,9.728,0,0,1-4.311-4.378,1.688,1.688,0,0,1-1.8-.965,1.885,1.885,0,0,1,.222-2.449,1.065,1.065,0,0,1,.467-.183,22.719,22.719,0,0,1,.026-2.853c.067-1.807,4.9-3.615,7.032-2.535C134.523,266.021,134.785,272.7,134.4,274.971Z" transform="translate(-119.293 -261.889)" fill="#efaf9e" fill-rule="evenodd"/><path d="M126.237,267.6c-.206.215.312,3.538-.055,3.557s-1.671-1.493-1.671-1.493-.068-.091-.467.183a1.3,1.3,0,0,0-.493.741s-1.655-3.076-1.476-3.772,1.526-1.591,1.526-1.591a3.412,3.412,0,0,1,.856-1.6c.753-.86,2.986-1.067,5.964-1.533,2.948-.462,5.079,1.361,2.423,3.469C130.4,267.508,126.237,267.6,126.237,267.6Z" transform="translate(-119.002 -261.495)" fill="#ec5a33" fill-rule="evenodd"/><path d="M128.421,282.812c1.948.612,1.821,2.7,4.781,2.769,0,0,3.318,4.8,4.14,6.478,1.4,2.858-1.381,4.669-1.7,6.452s-.444,18.312.046,19.332-14.361-1.523-13.357-3.45,1.681-9.86,2.011-16.706-.59-9.436-.21-11.972S126.052,282.069,128.421,282.812Z" transform="translate(-119.039 -264.986)" fill="#ad71ff" fill-rule="evenodd"/><path d="M127.662,265.019c-.438.518-1.205,2.2-.129,6.467s.183,7.2-2.164,9.783-.735,10.886-1.235,9.045-4.528-4.8-3.184-9.322,2.031-6.818,1.368-7.9-1.934-4.391-1.067-6.248,1.79-1.938,1.855-2.247A3.95,3.95,0,0,1,125,262.587c1.156-.561,5.278-1.791,6.833-.868s1.739,1.875.33,3.117S127.662,265.019,127.662,265.019Z" transform="translate(-118.767 -261.386)" fill="#ec5a33" fill-rule="evenodd"/><path d="M120.345,392.133l-.641,1.275s.9,2.348,2.384,2.582,1.968-.561,1.968-.561l-.815-2.151Z" transform="translate(-118.602 -283.587)" fill="#f5d9d6" fill-rule="evenodd"/><path d="M119.479,393.669c-.452-.021-1.337,2.084-1.044,2.651l2.252.584.442.115c1.3.335,4.362,1.206,5.366,1.391s2.741-.135,1.18-.963a45.723,45.723,0,0,1-4.252-2.833C122.636,396.092,120.049,394.57,119.479,393.669Z" transform="translate(-118.376 -283.847)" fill="#303879" fill-rule="evenodd"/><path d="M131.087,286.609s-1.407-2.966-3.731-1.466,5.9,20.744,7.357,20.761,15.052-7.116,15.052-7.116l-.958-1.915s-13,4.995-13.136,4.241S131.087,286.609,131.087,286.609Z" transform="translate(-119.831 -265.348)" fill="#ae83ff" fill-rule="evenodd"/><path d="M154.832,296.735s-5.181-3.828-7.3-2.887l8.583-8.349s4.682-1.122,7.162,2.584Z" transform="translate(-123.327 -265.453)" fill="#002d5a" fill-rule="evenodd"/><path d="M164.828,288.5s4.671-2.4,7.478,1.594l-7.478,8.26s-4.8-3.158-8.182-1.475Z" transform="translate(-124.874 -265.868)" fill="#829cbf" fill-rule="evenodd"/><path d="M164.828,288.252s3.376-2.779,6.021-1.646l-7.126,7.721a8.553,8.553,0,0,0-7.076,2.3Z" transform="translate(-124.874 -265.622)" fill="#fafdff" fill-rule="evenodd"/><path d="M155.476,296.4s-2.774-3.247-5.719-3.427l8.02-7.93a5.367,5.367,0,0,1,5.881,2.978Z" transform="translate(-123.705 -265.389)" fill="#f1f9f9" fill-rule="evenodd"/><path d="M155.972,290.082v-.2H156a4.806,4.806,0,0,1,3.925,2.141l-.171.1A4.605,4.605,0,0,0,156,290.082Z" transform="translate(-124.76 -266.225)" fill="#999eae" fill-rule="evenodd"/><path d="M154.868,291.342l0-.2h.03a4.81,4.81,0,0,1,3.925,2.14l-.171.1a4.605,4.605,0,0,0-3.754-2.043Z" transform="translate(-124.572 -266.439)" fill="#999eae" fill-rule="evenodd"/><path d="M157.6,294.542l-.172.1a4.6,4.6,0,0,0-3.754-2.043h-.028v-.2A4.813,4.813,0,0,1,157.6,294.542Z" transform="translate(-124.364 -266.653)" fill="#999eae" fill-rule="evenodd"/><path d="M153.279,298.631c.276-1.455,1.635-4.119,1.745-3.455a11.019,11.019,0,0,1-.008,2.412c-.032.229.159.474,1.1.8l-.105.946a12.586,12.586,0,0,0-1.882.995A11.946,11.946,0,0,1,153.279,298.631Z" transform="translate(-124.303 -267.106)" fill="#efaf9e" fill-rule="evenodd"/></g></g></g></g></svg>