<svg xmlns="http://www.w3.org/2000/svg" xmlns:xlink="http://www.w3.org/1999/xlink" width="315.298" height="267.744" viewBox="0 0 315.298 267.744"><defs><style>.a{fill:#ffb400;}.b{fill:#0a134f;}.c{fill:url(#a);}.d{fill:#ffa29d;}.e{fill:url(#b);}.f{fill:#ffbfb7;}.g{fill:#1b236d;}.h{fill:#efefef;}.i{fill:url(#c);}.j{fill:url(#d);}.k{fill:url(#e);}.l{fill:url(#f);}.m{fill:url(#g);}.n{fill:url(#h);}.ac,.o,.q{fill:none;}.o{stroke:#1b236d;stroke-linecap:round;stroke-width:0.671px;}.ac,.o{stroke-miterlimit:10;}.p{fill:url(#i);}.r{fill:url(#j);}.s{fill:#ff4945;}.t{fill:url(#k);}.u{fill:url(#l);}.v{fill:url(#m);}.w{fill:url(#n);}.x{fill:url(#o);}.y{fill:#f92424;}.z{fill:url(#p);}.aa{fill:url(#q);}.ab{fill:url(#r);}.ac{stroke:#707070;stroke-width:2.682px;}.ad{fill:url(#s);}.ae{fill:url(#t);}.af{fill:#fff;}.ag{fill:url(#u);}.ah{fill:url(#v);}.ai{fill:url(#w);}.aj{fill:url(#x);}.ak{fill:url(#y);}.al{fill:url(#z);}.am{fill:url(#aa);}</style><linearGradient id="a" y1="0.079" x2="1" y2="0.079" gradientUnits="objectBoundingBox"><stop offset="0" stop-color="#ffb02a"/><stop offset="1" stop-color="#ff9300"/></linearGradient><linearGradient id="b" x1="-0.761" y1="1.552" x2="-1.721" y2="1.659" gradientUnits="objectBoundingBox"><stop offset="0" stop-color="#92c4fe"/><stop offset="1" stop-color="#5babf2"/></linearGradient><linearGradient id="c" x1="0" y1="-14.445" x2="1" y2="-14.445" xlink:href="#b"/><linearGradient id="d" x1="2.704" y1="-4.828" x2="3.747" y2="-4.828" xlink:href="#b"/><linearGradient id="e" x1="0.343" y1="0.069" x2="1.217" y2="0.707" gradientUnits="objectBoundingBox"><stop offset="0" stop-color="#1b236d"/><stop offset="1" stop-color="#0a134f"/></linearGradient><linearGradient id="f" x1="0" y1="2.129" x2="1" y2="2.129" xlink:href="#b"/><linearGradient id="g" y1="10.354" x2="1" y2="10.354" gradientUnits="objectBoundingBox"><stop offset="0" stop-color="#ffbfb7"/><stop offset="1" stop-color="#ffa29d"/></linearGradient><linearGradient id="h" x1="0" y1="7.9" x2="1" y2="7.9" xlink:href="#e"/><linearGradient id="i" x1="0.575" y1="1.756" x2="0.314" y2="3.175" gradientUnits="objectBoundingBox"><stop offset="0.01" stop-color="#92c4fe"/><stop offset="1" stop-color="#5babf2"/></linearGradient><linearGradient id="j" x1="0.843" y1="11.621" x2="-0.617" y2="11.591" xlink:href="#g"/><linearGradient id="k" x1="0" y1="52.022" x2="1" y2="52.022" xlink:href="#e"/><linearGradient id="l" y1="3.193" x2="1" y2="3.193" gradientUnits="objectBoundingBox"><stop offset="0" stop-color="#ff4945"/><stop offset="1" stop-color="#f92424"/></linearGradient><linearGradient id="m" x1="7.974" y1="0.004" x2="9.188" y2="0.004" gradientUnits="objectBoundingBox"><stop offset="0" stop-color="#008eff"/><stop offset="1" stop-color="#0073dc"/></linearGradient><linearGradient id="n" x1="0" y1="-14.001" x2="1" y2="-14.001" xlink:href="#m"/><linearGradient id="o" x1="0.684" y1="0.492" x2="0.156" y2="-0.128" xlink:href="#e"/><linearGradient id="p" x1="0.162" y1="1.9" x2="0.762" y2="2.406" xlink:href="#m"/><linearGradient id="q" x1="0" y1="10.015" x2="1" y2="10.015" xlink:href="#g"/><linearGradient id="r" x1="0.295" y1="4.523" x2="0.595" y2="5.952" xlink:href="#m"/><linearGradient id="s" x1="0" y1="13.628" x2="1" y2="13.628" xlink:href="#l"/><linearGradient id="t" y1="42.175" x2="1" y2="42.175" gradientUnits="objectBoundingBox"><stop offset="0" stop-color="#69b0f5"/><stop offset="1" stop-color="#5babf2"/></linearGradient><linearGradient id="u" x1="0" y1="3.105" x2="1" y2="3.105" xlink:href="#e"/><linearGradient id="v" x1="2.028" y1="9.406" x2="2.942" y2="9.406" xlink:href="#g"/><linearGradient id="w" x1="0.34" y1="11.255" x2="0.699" y2="9.858" xlink:href="#m"/><linearGradient id="x" x1="0" y1="15.563" x2="1" y2="15.563" xlink:href="#e"/><linearGradient id="y" x1="0" y1="13.791" x2="1" y2="13.791" xlink:href="#e"/><linearGradient id="z" x1="0" y1="19.983" x2="1" y2="19.983" xlink:href="#e"/><linearGradient id="aa" x1="0" y1="19.663" x2="1" y2="19.663" xlink:href="#e"/></defs><g transform="translate(-1292.686 -3244)"><g transform="translate(1542.581 3404.844)"><g transform="translate(0.046 0.015)"><path class="a" d="M62.287,37.78a1.11,1.11,0,0,0,1.444-.363h0l8.663-15.63,8.9,6.057.6.363a4.443,4.443,0,0,0,1.324.605A4.289,4.289,0,0,0,88.4,25.784h0L94.652,1.437A1.021,1.021,0,0,0,94.175.1a1.009,1.009,0,0,0-1.324.484L82.62,17.064l-9.144-6.178-.6-.363a3.525,3.525,0,0,0-1.564-.605,4.342,4.342,0,0,0-5.052,3.391L61.685,36.69a1.448,1.448,0,0,0,.6,1.09Z" transform="translate(-37.958 -0.015)"/><path class="a" d="M5.966,38.867a.831.831,0,0,0,1.2.363.812.812,0,0,0,.481-.849V28.208l3.85-1.575.722-.363a3.092,3.092,0,0,0,1.564-3.877L8.493,9.187A.816.816,0,0,0,7.53,8.7a.663.663,0,0,0-.481.726l-.6,10.9-3.97,1.817-.722.363h0a3.064,3.064,0,0,0-1.444,4h0Z" transform="translate(-0.046 -5.342)"/><path class="a" d="M107.116,115.144l-.361-.727h0a2.947,2.947,0,0,0-4.091-.969h0l-11.43,7.027a1.226,1.226,0,0,0-.482.848.933.933,0,0,0,.963.848l9.986-.969,2.166,3.635.361.606a3.037,3.037,0,0,0,3.97,1.09l12.514-6.663a1,1,0,0,0,.481-.727c0-.484-.361-.727-.842-.727l-10.829.606Z" transform="translate(-55.836 -69.504)"/></g></g><g transform="translate(1292.686 3244)"><path class="b" d="M44.667,130.045c-2.153-16.411-3.823-33.9-5.438-50.818l-.546-5.708,2.8-.267.546,5.709c1.613,16.891,3.281,34.359,5.428,50.721Z"/><path class="c" d="M47.653,129.612c.587,11,1.058,38.815,1.058,49.3-6.511-1.64-31.4,1.174-35.654-.457,0-22.8-1.037-28.63.1-46.011A172.876,172.876,0,0,0,47.653,129.612Z"/><path class="d" d="M91.829,119.84l3.728,6.2c.615,1.022,1.194,2.441.353,3.289-1.259-.757-4.308-2.265-4.592-.681-.091.507,2.544,1.881,4.1,2.038l-2.864-.877c-.589.328-.447,1.29.085,1.7a3.6,3.6,0,0,0,1.927.509,2.468,2.468,0,0,1,1.814.746l2.162-5.053C89.864,117.281,100.5,130.278,91.829,119.84Z"/><path class="d" d="M33.835,80.353c-3.29-1.384-10.232-2.343-13.522-3.726-1.507-.633-2.429-4.086-2.429-4.72,0-2.548,1.381-5.859.233-7.18-1.6-1.835-3.473,4.19-3.947,6.716C12.9,70.623,11.179,68.9,9.792,68.3a10.1,10.1,0,0,1-.253,2.387q-.559,2.99-1.12,5.981c-.194,1.037-.283,2.34.606,2.912,1.052,1.153,6.6,2.222,8.472,2.72,2.664.708,18.1,11.03,18.291,10.629C37.566,89.159,32.544,84.32,33.835,80.353Z"/><path class="e" d="M60.964,85.446c.589,2.16,1.173,4.494.376,6.587a5.372,5.372,0,0,1-1.552,2.185c-2.118,1.783-5.2,1.67-7.96,1.433-11.179-.96-21.685-4.6-32.441-1.41a166.988,166.988,0,0,0,3.843-17.834C28.359,77.383,49.106,82.29,60.964,85.446Z"/><path class="f" d="M96.99,122.409c-4.634-4.315-9.787-14.71-11.778-21.334-1.13.114-3.087,5.526-2.506,6.5,2.055,3.45,5.346,9.5,6.015,12.668.968,4.591,3.169,5.475,5.445,9.3.7.653,1.117-1.378-.1-3.8-.985-1.965-1.913-2.517-2.172-4,1.84,2.153,4.394,4.4,4.678,6,.115.648-.275,1.628-.668,3.667-.527-.009-3.769-1.961-2.487.61.816,1.6,3,1.253,3.991,1.39.516.071,1.75-4.927,1.921-5.416C99.964,126.182,98.243,123.577,96.99,122.409Z"/><path class="g" d="M10.915,18.293a4.309,4.309,0,0,1-2.722-.948.351.351,0,1,1,.446-.542,3.684,3.684,0,0,0,3.977.362.351.351,0,1,1,.341.613A4.22,4.22,0,0,1,10.915,18.293Z"/><path class="d" d="M12.425,32.267c-.029.256-.434-.139-.21-.268s.488.078.661.27c4.461,4.933,8.35,9.472,11.022,16.139a24.171,24.171,0,0,1,8.442-6.169,22.327,22.327,0,0,1-3.928-2.993,23.233,23.233,0,0,1-7.018-13.692,23.834,23.834,0,0,0-4.347,4.334q-2.2.974-4.391,1.979C12.951,35.714,12.855,28.433,12.425,32.267Z"/><path class="h" d="M20.288,46.838a7.913,7.913,0,0,0,3.912-.216c2.433-.772,4.321-2.657,6.107-4.477,2.183,9.824,4.813,26.24,1.562,34.755-1.979.379-8.279-22.257-11.592-29.961C20.481,48.873,20.083,44.9,20.288,46.838Z"/><path class="i" d="M2.918,258.785a29.92,29.92,0,0,1,17.687-8.633,59.454,59.454,0,0,1,7.52-.236l11.913.13c.11,4.762,1,14.684-.3,14.684-12.609.122-25.089.246-38.907.371C-1.31,265.069,1.163,260.566,2.918,258.785Z"/><path class="j" d="M82.469,260.818a29.867,29.867,0,0,1,14.723-13.044,59.277,59.277,0,0,1,7.182-2.237l11.513-3.058c1.385,4.558,4.905,13.881,3.653,14.227-12.116,3.487-24.107,6.941-37.387,10.754C80.082,268,81.256,263,82.469,260.818Z"/><path class="b" d="M116.286,244.246c1.309-6.72.131-8.413-3.007-14.5-1.649-3.2-6.768-6.815-7.518-10.334-.586-2.747-3.021-12.7-4.009-15.334-2.674-7.111-8.661-13.717-11.138-15.778-6.322-5.263-5.558-7.892-5.228-16.1.579-14.427-4.728-27.049-5.687-41.457-.459-6.906-1.174-14.057-4.665-20.039-3.682-6.309-10.262-10.971-12.272-17.99-3.07,1.891-1.023,1.944-4.093,3.835A5.733,5.733,0,0,0,56.1,99.014a5.685,5.685,0,0,0-.158,2.682l8,78.62a66.585,66.585,0,0,0,2.014,12.211c1.668,5.637,4.786,10.715,7.672,15.84,7.811,13.873,14.49,26.449,19.157,41.664C98,248.435,106.1,246.746,116.286,244.246Z"/><path class="k" d="M44.949,100.743s9.863,18.885,7.685,24.834c-5.852,15.981-9.422,37.582-14.26,53.9C30.8,205.022,27.7,228.885,13.708,251.58c9.838-.654,16.82-.387,26.4-.333,1.684-3.708,7.835-12.093,9.343-16.36,1.993-5.638-.744-12.125,1.254-17.762,1.8-5.09,7.079-8.343,8.92-13.421,1.205-3.325.777-6.979.7-10.514-.283-12.77,14.033-51.112,17.375-57.112,6.243-11.21,4.544-17.909,0-24.668s-8.02-9.334-14.149-20.172C58.88,94.7,44.949,100.743,44.949,100.743Z"/><path class="l" d="M51.436,55.793C41.229,42.514,42.61,39.574,37.932,38.74a18.718,18.718,0,0,0-8.576.889c-.923.384,2.472,31.933,1.559,32.445-1.213.681-9.133-28.223-9.133-28.223s-4.989,4.57-5.123,7.111c4.455,13.778,5.952,16.8,11.051,29.4,8.012,19.8,3.781,12.309,15.222,38.346C53.3,115.5,72.876,99.417,75.16,97.585,73.806,98.062,58.315,64.741,51.436,55.793Z"/><path class="g" d="M38.29,29.062a.327.327,0,0,1-.044,0,.351.351,0,0,1-.3-.392,20.444,20.444,0,0,0-3.669-14.4,12.227,12.227,0,0,0-2.848-2.934,8.93,8.93,0,0,0-6.81-1.4.35.35,0,1,1-.143-.686,9.644,9.644,0,0,1,7.356,1.515,12.914,12.914,0,0,1,3.015,3.1,21.148,21.148,0,0,1,3.8,14.893A.352.352,0,0,1,38.29,29.062Z"/><path class="g" d="M43.384,20.061c-1.959,0-4-2.03-4.637-2.72a21.178,21.178,0,0,1-1.8-2.353c-.445-.643-.9-1.307-1.41-1.908C32.817,9.85,28.314,8.466,24.834,9.785a.351.351,0,1,1-.249-.655c3.75-1.422,8.584.048,11.493,3.5.528.627,1,1.3,1.451,1.961a20.671,20.671,0,0,0,1.735,2.276c1.341,1.453,3.273,2.849,4.679,2.412a.35.35,0,1,1,.209.669A2.54,2.54,0,0,1,43.384,20.061Z"/><path class="m" d="M28.4,14.507c-1.756-3.38-4.5-5.767-8.508-5.1-3.763.626-5.761,1.6-7.412,5.028-.183.382-.76,2.322-.952,2.677C9.667,18.67,10.485,18.235,8.147,19.1c-1.293.478-.064,1.394.433,2.677a46.954,46.954,0,0,0-1.434,5.275c-.343,2.408.048,6.158,2.453,6.556,2.618.433,6.354.742,7.809.212A17.16,17.16,0,0,0,24.229,29.8a19.524,19.524,0,0,0,4.551-7.063A10.668,10.668,0,0,0,28.4,14.507Z"/><path class="n" d="M33.655,32.824A8.232,8.232,0,0,0,36,29.585a9.674,9.674,0,0,0,.093-4.3A30.477,30.477,0,0,0,33,14.578C29.878,8.82,25.722,9.6,25.722,9.6c-5.974-5.269-14.125,1.436-14.4,2.258-.369,1.112.382,2.272,1.184,3.128a16.322,16.322,0,0,0,6.54,4.242L12.474,39.9A27.045,27.045,0,0,0,33.655,32.824Z"/><path class="o" d="M43.839,19.3"/><path class="g" d="M14.925,20.071a4.309,4.309,0,0,1-2.722-.948.351.351,0,1,1,.446-.542,3.683,3.683,0,0,0,3.977.362.351.351,0,1,1,.341.613A4.222,4.222,0,0,1,14.925,20.071Z"/><path class="b" d="M16.2,132.695l-2.808-.082c.179-6.079-.388-17.319-.937-28.188-.722-14.284-1.4-27.775-.634-32.1.823-4.617,5.122-27.762,8.96-29.971l1.4,2.428.03-.019c-1.475,1.155-4.892,12.7-7.627,28.052-.714,4.005-.009,17.964.673,31.463C15.814,115.208,16.385,126.5,16.2,132.695Z"/><path class="p" d="M38.767,49.907c-.879-1.451-5.01-11.18-3.342-11.5,4.343-.833,5.018-.044,7.518,1.833a18.682,18.682,0,0,1,5.642,7.437c6.47,14.667,17.008,27.11,27.4,39.327C82.7,94.9,89.6,102.94,98.545,108.178a61.388,61.388,0,0,1-18.451,11.239C69.61,99.6,55.445,81.938,44.761,62.224,41.846,56.848,42.118,55.438,38.767,49.907Z"/><path class="q" d="M19.779,80.326l.046-.181"/><path class="r" d="M15.937,77.664a16.187,16.187,0,0,0-3.568-2.022c-.6-.974-1.571-1.769-2.131-2.791S9.5,70.538,8.6,69.8a5.319,5.319,0,0,1-.128,2.893,3.555,3.555,0,0,0-.345,1.525,4.024,4.024,0,0,1,.145.867c-.042.453-.457.8-.516,1.254-.039.3.086.614-.011.9-.088.26-.336.429-.486.658a1.226,1.226,0,0,0,.009,1.231.887.887,0,0,0,.08.384,2.253,2.253,0,0,0,.9.826l1.463.909a5.946,5.946,0,0,0,1.323.676,2,2,0,0,0,1.455-.042.67.67,0,0,0,.423-.506c.017-.267-.211-.479-.425-.641-.074-.056-.154-.1-.229-.156a3.962,3.962,0,0,0,.387.147,2.359,2.359,0,0,0,1.713-.049.788.788,0,0,0,.5-.6c.021-.315-.249-.565-.5-.754-.031-.023-.064-.042-.1-.065a2.5,2.5,0,0,0,1.677-.105.871.871,0,0,0,.549-.657C16.512,78.15,16.214,77.875,15.937,77.664Z"/><path class="f" d="M11.134,72.074a3.62,3.62,0,0,0,1.612.845,15.237,15.237,0,0,1,4.3,2.311c.412.316.849.762.746,1.271a1.006,1.006,0,0,1-.956.709,2.94,2.94,0,0,1-1.237-.293c-1.45-.574-4.02-1.216-5.469-1.791.882,1.169-1.2-2.023-2.22-3.986-.907-1.751.339-3.688,1.98-2.77.107.341.233,1.153.313,1.627A5.412,5.412,0,0,0,11.134,72.074Z"/><path class="s" d="M25.356,156.968a21.681,21.681,0,0,1-3.5-.26,11.69,11.69,0,0,1-7.459-4.022c-2.334-2.994-2.41-7.075-2.265-9.884.069-1.329.091-2.554.114-3.852.034-1.923.07-3.912.272-6.237a.355.355,0,0,1,.381-.319.351.351,0,0,1,.32.38c-.2,2.3-.235,4.277-.27,6.189-.021,1.246-.045,2.534-.115,3.874-.223,4.287.45,7.279,2.117,9.417a11,11,0,0,0,7.018,3.762,33.733,33.733,0,0,0,8.309-.033l8.488-.735a.344.344,0,0,1,.381.319.351.351,0,0,1-.32.38l-8.489.735C28.7,156.823,27.031,156.968,25.356,156.968Z"/><rect class="s" width="4.176" height="4.167" transform="translate(29.913 149.743)"/><path class="t" d="M91.175,35.67,86.925,33.6l22.107-2.051a22.6,22.6,0,0,1,3.3-.145l-.105,2.1a21.672,21.672,0,0,0-3,.139L91.357,35.3Z"/><path class="b" d="M84.054,39.951A2.48,2.48,0,0,1,83,38.473a3.319,3.319,0,0,1-.18-.669,3.267,3.267,0,0,1,.469-1.88A11.556,11.556,0,0,1,87.318,31.5a4.027,4.027,0,0,1,1.272-.588,1.607,1.607,0,0,1,2.07,1.384,4.273,4.273,0,0,1-.044,1.415,6.824,6.824,0,0,1-.561,1.944,6.567,6.567,0,0,1-.779,1.183A12.918,12.918,0,0,1,86.5,39.416a4.144,4.144,0,0,1-1.161.606A1.767,1.767,0,0,1,84.054,39.951Z"/><path class="u" d="M153.278,79.545c-.783-3.153-2.587-5.941-4.371-8.658C143.076,62,137.085,53.094,129.8,45.4c2,.238,4.193.348,2.949-1.043-3.7-4.135-7.2-7.784-10.648-11.3a9.278,9.278,0,0,0-1.97-1.71c-2.543-1.436-5.7-.05-8.27,1.329-.09.048-.884.669-1.2.907-.76.572,5.171,26.389,11.487,36.749,2.7,4.43,12.69,15.109,15.35,19.565a4.565,4.565,0,0,0,1.523,1.838,4.035,4.035,0,0,0,2.212.269c3.648-.243,7.664-.651,10.174-3.3C153.645,86.335,154.061,82.7,153.278,79.545Z"/><path class="v" d="M160.7,257.331a31.315,31.315,0,0,1,9.793-18.189,62.18,62.18,0,0,1,6.275-4.8l10.249-7.176c3.02,4,10.074,11.134,8.592,12.245-10.583,8.7-20.976,16.076-32.7,24.634C161.011,265.269,160.3,259.927,160.7,257.331Z"/><path class="b" d="M187.315,227.724c0-6.073-.266-8.261-3.9-13.048-2.572-3.383-5.545-6.084-8.156-9.436-3.646-4.682-5.917-13.293-9.834-17.752-6.46-7.353-15.9-7.684-20.11-16.513-1.857-3.892-1.8-8.382-1.748-12.691.294-23.406-5.191-47.012-16.54-67.5-5.546,5.114-14.032,5.73-21.541,6.54a131.9,131.9,0,0,0,4.089,23.513c4.1,15.9,10.532,32.405,16.555,47.276,1.551,3.829,1.684,8.12,3.283,11.93,2.036,4.852,5.225,9.118,8.381,13.33,12.987,17.328,22.482,26.077,35.469,43.405C180.7,232.519,181.35,231.374,187.315,227.724Z"/><path class="w" d="M72.778,261.106a31.44,31.44,0,0,1,18.591-9.074,62.528,62.528,0,0,1,7.9-.248l12.521.137c.116,5,1.051,15.434-.315,15.434-13.253.129-26.372.259-40.9.39C68.332,267.711,70.932,262.978,72.778,261.106Z"/><path class="x" d="M121.395,223.068c1.179-3.739,3.687-6.933,5.033-10.614,2.692-7.36.443-15.476.139-23.3-.579-14.919,5.986-29.036,10.862-43.152s7.984-30.308.964-43.493c-2.653-4.982-6.651-9.285-8.417-14.646a24.145,24.145,0,0,1-19.377,4.6q2.616,15.014,5.231,30.027l-4.18,36.8c-.958,8.434-1.917,16.873-3.3,25.249-1.666,10.117-3.943,20.124-6.219,30.123-2.855,12.544-5.761,24.675-8.616,37.219,5.954.293,12.493.293,18.144.278a53.338,53.338,0,0,0,8.452-21.887A45.785,45.785,0,0,1,121.395,223.068Z"/><path class="y" d="M162.3,29.09c-7.663.713-13.405-7.7-21.057-8.525-2.971-.319-5.922.552-8.87,1.042-6.292,1.047-13.219.187-18.156-3.842-2.8-2.285-4.81-5.449-7.739-7.565A14.275,14.275,0,0,0,95.212,7.861c1.907-3.267,6.173-4.535,9.928-4.027s7.142,2.437,10.441,4.3,6.739,3.726,10.511,4.084c7.887.75,15.067-5.182,22.99-5.273,6.363-.074,12.308,3.766,16.082,8.877A13.892,13.892,0,0,0,162.3,29.09Z"/><path class="d" d="M85.188,22.063q-3.4,2.946-6.995,5.667,4.051,6.761,7.433,13.892a39.469,39.469,0,0,1,11.022-4.168C91.494,33.572,88.265,27.728,85.188,22.063Z"/><path class="z" d="M98.926,117.413c7.161-5.458,30.344-13.255,38.4-17.286-9.535-19.863-8.048-17.612-17.794-37.373-1.25-2.535-7.024-15.884-13.112-22.424a25.9,25.9,0,0,0-12.175-7.008c-4.445-.865-6.556,2.8-9.834,7.008-1.862,2.388,1.227,18.533,1.874,21.49C92.838,91.836,91.434,83.311,98.926,117.413Z"/><path class="aa" d="M92.84,7.955c-2.247-1.827-5.381-2-8.279-2a10.133,10.133,0,0,0-4.12.6A8.555,8.555,0,0,0,78.534,7.8a22.8,22.8,0,0,0-2.852,2.783c-2.007,1.751-3.48,3.062-6.082,3.651-1.053,1.051-.093,2.236.7,3.854a23.02,23.02,0,0,0-.878,3.153c-.477,3.215.828,8.1,3.523,9.925,2.183,1.48,5.121,1.163,7.634.356A23.4,23.4,0,0,0,93.318,21.454a14.326,14.326,0,0,0,2.283-6.93A8.2,8.2,0,0,0,92.84,7.955Z"/><path class="ab" d="M103.95,34.868c7.983,1.477,8.295,5.827,15.416,9.719,3.952,2.161,20.589,10.292,25.14,13.754,1.982,1.508,4.036,3.1,5.112,5.342s.826,5.331-1.231,6.736c-2.183,1.491-5.135.494-7.568-.541-7.594-3.23-9.9-3.8-17.493-7.028-3.133-1.332-20.379-11.269-24.837-17.2-1.689-2.244-3.712-7.1-1.713-9.078C98.184,35.19,102.006,34.509,103.95,34.868Z"/><path class="ac" d="M137.7,90.281"/><path class="ad" d="M76.976,8.973c2.735.375,3.2,2.187,4.006,4.822s1.149,5.522,2.833,7.7c2.429,3.144,6.756,4.695,9.843,2.19,2-2.74,3.708-7.267,2.981-10.577a9.953,9.953,0,0,0-6.416-7.3,13.376,13.376,0,0,0-5.377-.4C81.677,5.712,79.434,6.17,76.976,8.973Z"/><path class="y" d="M126.434,8.617a14.716,14.716,0,0,1-3.963-.519,26.725,26.725,0,0,1-6.642-3.27,24.984,24.984,0,0,0-6.748-3.265A12.478,12.478,0,0,0,95.424,7.538a.351.351,0,0,1-.618-.335A13.2,13.2,0,0,1,109.253.882,25.5,25.5,0,0,1,116.2,4.23a26.159,26.159,0,0,0,6.462,3.193c5.076,1.414,10.558-.509,14.239-2.079,1.025-.437,2.045-.9,3.066-1.363,3.492-1.585,7.1-3.225,10.963-3.8,4.767-.71,10.78.612,13.475,5.173a.351.351,0,0,1-.6.356C161.27,1.43,155.565.2,151.034.873c-3.762.562-7.328,2.18-10.776,3.746-1.025.465-2.051.93-3.081,1.37A28.221,28.221,0,0,1,126.434,8.617Z"/><rect class="ae" width="6.556" height="6.54" transform="translate(92.838 4.36)"/><path class="g" d="M77.436,15.2a4.509,4.509,0,0,1-2.849-.993.351.351,0,1,1,.446-.542,3.891,3.891,0,0,0,4.2.382.351.351,0,1,1,.341.613A4.436,4.436,0,0,1,77.436,15.2Z"/><path class="q" d="M148.223,29.348a7.227,7.227,0,0,0,4.885,2.606l-.538-.158"/><path class="af" d="M120.2,115.447a.1.1,0,1,0-.145-.029h0a.1.1,0,0,0,.145.029Zm5.826-8.962a.107.107,0,0,0,.127-.084h0a.1.1,0,0,0-.072-.117l-.013,0a.1.1,0,0,0-.123.076.107.107,0,0,0,.082.127Zm-3.243,4.349a.116.116,0,0,0,.15-.032.109.109,0,0,0-.182-.118A.116.116,0,0,0,122.784,110.834Zm8.455,11.059a.2.2,0,0,0,.282-.042.192.192,0,0,0-.027-.271l-.009-.006a.2.2,0,0,0-.282.042.2.2,0,0,0,.036.277Zm-3.862-2.915a.2.2,0,1,0-.04-.288h0A.215.215,0,0,0,127.377,118.978Zm-3.865-2.924a.2.2,0,0,0,.277-.036l0-.005a.192.192,0,0,0-.027-.271l-.009-.006a.215.215,0,0,0-.288.039A.2.2,0,0,0,123.512,116.054Zm-1.274,10.952a.2.2,0,1,0-.278-.066.206.206,0,0,0,.278.066Zm-2.451-4.172a.2.2,0,1,0-.278-.066.207.207,0,0,0,.278.066Zm13.62-10.461a.2.2,0,0,0,.243-.147.2.2,0,0,0-.138-.24h0a.192.192,0,0,0-.243.122s0,.01,0,.015A.214.214,0,0,0,133.406,112.373Zm-4.692-1.226a.213.213,0,0,0,.25-.143.2.2,0,0,0-.147-.242.2.2,0,0,0-.242.143s0,0,0,0a.2.2,0,0,0,.137.239Zm-4.684-1.222a.191.191,0,0,0,.237-.131.038.038,0,0,0,0-.009.2.2,0,0,0-.133-.247l-.01,0a.2.2,0,1,0-.1.389Zm-5.956,19.369a.178.178,0,1,0-.148-.323.177.177,0,0,0-.088.236h0A.179.179,0,0,0,118.075,129.294ZM130.26,115.93a.189.189,0,0,0,.235-.111.173.173,0,0,0-.1-.222l-.008,0a.177.177,0,0,0-.23.1v0a.188.188,0,0,0,.106.23Zm-4.053-1.487a.178.178,0,0,0,.225-.107.173.173,0,0,0-.1-.222l-.008,0a.18.18,0,0,0-.231.1v0a.186.186,0,0,0,.117.227Zm-4.069-1.486a.18.18,0,0,0,.231-.1v0a.169.169,0,0,0-.092-.22l-.016-.005a.18.18,0,0,0-.231.1v0a.181.181,0,0,0,.108.225Zm1.4,9.649a.182.182,0,0,0,.253-.015.175.175,0,0,0-.009-.249.189.189,0,0,0-.256.005.186.186,0,0,0,.013.259Zm-3.181-2.928a.172.172,0,0,0,.242,0l.008-.008a.175.175,0,0,0-.009-.249.189.189,0,0,0-.256.005.179.179,0,0,0,.015.252Zm9.133-12.491a.169.169,0,0,0,.166-.171.054.054,0,0,0,0-.011.178.178,0,0,0-.18-.175h-.006a.184.184,0,0,0-.169.19.175.175,0,0,0,.182.169Zm-4.325.18a.184.184,0,0,0,.176-.186.181.181,0,0,0-.361.012.176.176,0,0,0,.176.175Zm-3.293,24.5a.215.215,0,0,0,.3-.019.205.205,0,0,0-.013-.291.212.212,0,0,0-.3.019.207.207,0,0,0,.013.29Zm-3.708-3.341a.207.207,0,0,0,.292-.013.2.2,0,0,0-.013-.291.206.206,0,1,0-.278.3Zm10.89-16.377a.218.218,0,0,0,.2-.222.209.209,0,0,0-.416.025.212.212,0,0,0,.216.2Zm-4.986.256a.212.212,0,0,0,.2-.216.207.207,0,0,0-.414.019.21.21,0,0,0,.217.2Zm1.031,9.862a.221.221,0,0,0,.267-.128.208.208,0,0,0-.131-.259.2.2,0,0,0-.262.118v0a.207.207,0,0,0,.128.265Zm-4.711-1.669a.209.209,0,0,0,.266-.127h0a.2.2,0,0,0-.124-.256h0a.2.2,0,0,0-.142.383Zm4.4,5.073a.2.2,0,1,0-.118-.27.208.208,0,0,0,.118.27Zm-4.616-1.853a.209.209,0,0,0,.27-.118.212.212,0,0,0-.112-.266.22.22,0,0,0-.276.115.212.212,0,0,0,.119.27Zm4.044-8.511a.211.211,0,0,0,.2-.213.207.207,0,0,0-.414-.005.043.043,0,0,0,0,.009.2.2,0,0,0,.2.209Z"/><path class="d" d="M90.329,51.242,95.36,59.6a3.083,3.083,0,0,0,1.011,1.171c.431.245.059-4.225.506-4.439-2.7-5.188-5.1-9.431-7.192-8.73C88.5,48,89.657,50.125,90.329,51.242Z"/><path class="ag" d="M138.019,93.5c-1.653-.594-32.782-16.983-44.08-32.011C92,58.92,92.277,48.2,93.848,41.558c.964-4.075,2.305-6.491,4.1-7.386,4.341-2.165,13.168-3.679,15.5-3.471l-.247,2.792c-1.815-.157-10.049,1.216-14,3.186-.35.175-1.571,1.088-2.621,5.522-1.72,7.268-1.316,16.386-.4,17.61,10.851,14.435,41.084,30.415,42.788,31.057Z"/><path class="ah" d="M99.1,52.9c-.154,1.483-.161,3.173.9,4.228a5.441,5.441,0,0,0,3.225,1.177l17.288,2.326c-1.247,1.916-.93,7.981-1.609,10.163-5.457-1.475-19.053-7.333-20.9-8a4.765,4.765,0,0,1-2.133-1.273c-.942-1.139-.732-2.8-.538-4.261a45.3,45.3,0,0,0,.634-10.771c-.353.273-1.238.063-1.683.113a5.783,5.783,0,0,1,1.021,5.731.883.883,0,0,1-.462.574c-.441.151-.805-.357-.989-.785a45.385,45.385,0,0,1-2.018-5.723,1.631,1.631,0,0,1-.064-.973c.225-.638,1.065-.751,1.742-.756l3.607-.027c1.256-.009,2.889.279,3.085,1.516a2.725,2.725,0,0,1-.118,1.063A42.75,42.75,0,0,0,99.1,52.9Z"/><path class="ai" d="M114,70.542c-2-.35.179-9.776,1.415-10.637,9.365,1.168,21.331.316,27.619,1.519,1.94.371,3.986.793,5.447,2.119A8.7,8.7,0,0,1,151.139,70a4.48,4.48,0,0,1-.707,2.575c-.824.926-5.685,2.545-12.71,2.312C128.018,74.561,114,70.542,114,70.542Z"/><rect class="aj" width="6.673" height="7.008" transform="translate(136.505 87.631)"/><path class="ak" d="M90.143,30.357c-.822,2.536-5.27,9.232-5.27,9.232s2.163,5.007,2.954,6.659c1.974-4.466,4.468-9.121,6.719-13.455C93.207,31.961,91.494,31.239,90.143,30.357Z"/><path class="al" d="M82.817,44.11s.064-4.071-.032-6.572a13.058,13.058,0,0,0,2.153,2.052c-.291,2.888-.127,5.447-.418,8.335A19.8,19.8,0,0,1,82.817,44.11Z"/><path class="am" d="M113.689,34.221l-.932-.884-.795-.4.078-.174-.111-.084c-1.017-.764-1.4-1.05-1.151-1.784l.013-.039c.591-3.218,3.232-5.441,5.894-7.443,1.8-1.355,3.3-1.6,4.457-.854a2.931,2.931,0,0,1,1.231,1.885,4.652,4.652,0,0,1-1.965,4.453,12.856,12.856,0,0,1-2.753,1.5c-.317.14-.636.28-.948.431a5,5,0,0,0-2.321,1.872l-.319.806h-.055ZM113,30.682l.15.141a8.13,8.13,0,0,1,2.639-1.885c.332-.161.671-.311,1.01-.46a11.176,11.176,0,0,0,2.319-1.243,2.659,2.659,0,0,0,1.19-2.366.859.859,0,0,0-.309-.542.508.508,0,0,0-.293-.08,3.282,3.282,0,0,0-1.752.847C115.8,26.71,113.674,28.468,113,30.682Z"/></g></g></svg>