<svg xmlns="http://www.w3.org/2000/svg" width="470.493" height="384.693" viewBox="0 0 470.493 384.693"><defs><style>.a{fill:#e14c00;}.b{fill:#fd5601;}.c{fill:#fb446c;}.d{fill:#c5205c;}.e{fill:#f68895;}.f{fill:#f17785;}.g{fill:#3f1da8;}.h{fill:#703cd5;}.i{fill:#dfd6fc;}.j{fill:#f9dee4;}.k{fill:#f7929e;}.l{fill:#006cbb;}.m{fill:#e02b5a;}.n{fill:#462261;}.o{fill:#fff;}.p{fill:#f4e4eb;}.q{fill:#0386e9;}.r{fill:#311649;}.s{fill:#562ac4;}.t{fill:#007ecc;}.u{fill:#ffd9e5;}.v{fill:#4422af;}.w{fill:#2795f8;}.x{fill:#321749;}</style></defs><g transform="translate(0)"><g transform="translate(0)"><path class="a" d="M3018.895,389.372l-.01.029c-1.475,4.263-1.742,9.12-4.251,12.978a8.886,8.886,0,0,1-5.546,4.047c-10.666,2.047-12.6-14.417-10.38-21.247,3.05-9.389,15.9-17.255,25.593-17.589,2.71-.093,5.621.961,7.036,3.275,2.421,3.958-1.107,6.465-3.937,8.447C3023.6,381.972,3020.462,384.869,3018.895,389.372Z" transform="translate(-2666.577 -367.585)"/><path class="a" d="M2153.558,778.345a105.162,105.162,0,0,0,19.71,8.472c27.4,8.561,55.171-1,82.469-6,56.223-10.309,56.858-13.281,86.88-16.2,42.389-4.121,63.584-6.182,84.816-2.065,13.21,2.561,36.3,8.615,65.916,2.842a81.953,81.953,0,0,0,14.138-3.664c32.521-12.11,45.3-55.43,48.006-64.6,25.383-86.051-37.276-222.806-145.269-258.868-14.012-4.679-61.393-20.5-111.416-1.487-39.979,15.2-62.1,54.167-83.614,89.885-11.476,19.049-23.295,38.093-38.287,54.389-19.535,21.236-49.491,28.693-66.577,52.821-22.278,31.459-14.348,79.395,5.6,109.661A108.094,108.094,0,0,0,2153.558,778.345Z" transform="translate(-2096.899 -405.555)"/><path class="b" d="M2414.734,838.522c-38.9,6.122-61.9-.441-69.371-2.828-39.8-12.708-62.33-42.064-75.951-59.81a213.123,213.123,0,0,1-40.3-91c-6.794-37.722-11.927-125.75,31.8-151.69,40.5-24.028,70.284,36.443,170.754,42.151,87.729,4.984,147.814-36.42,194.012,1.557,13.285,10.921,17.912,22.234,18.827,24.568,15.386,39.269-21.511,86.026-45.428,116.336C2579.193,743,2516.449,822.512,2414.734,838.522Z" transform="translate(-2177.646 -468.745)"/><path class="b" d="M3071.612,431.93a6.163,6.163,0,0,0,2.118,5.245c3.953,3.763,10.768,4.014,15.457,2.317a25.721,25.721,0,0,0,5.4-2.667c1.389-.909,2.63-1.854,3.829-2.768a29.518,29.518,0,0,1,5.465-3.586,19.543,19.543,0,0,1,5.835-.945,44.422,44.422,0,0,0,9.306-1.431c5.755-1.687,6.976-4.789,7.192-6.487.785-6.181-8.62-11.654-15.422-13.074-9.924-2.072-20.479.519-25.665,6.3a21.589,21.589,0,0,0-2.748,4.052,15.992,15.992,0,0,1-1.4,2.213,21.876,21.876,0,0,1-2.942,2.669,25.457,25.457,0,0,0-5.267,5.251A6.735,6.735,0,0,0,3071.612,431.93Z" transform="translate(-2713.163 -393.028)"/><path class="b" d="M2134.561,821.2c-8.16-3.673-15.933-11.191-16.243-20.6-.27-8.217,8.31-22.681,17.939-14.946,4.139,3.324,4.026,9.489,4.375,14.786.532,8.054,5.349,12.051,9.938,18a3.614,3.614,0,0,1,.866,1.713C2152.157,826.393,2137.15,822.365,2134.561,821.2Z" transform="translate(-2110.438 -630.528)"/></g><g transform="translate(56.441 71.044)"><g transform="translate(0 202.757)"><path class="a" d="M642.026,2102.877c0,.287-7.536.554-20.9.789q-2.933.052-6.239.1c-.784.012-1.583.025-2.4.034l-.4.006c-3.866.057-8.064.108-12.571.159q-4.521.05-9.447.1c-34.929.338-84.531.547-139.553.547-58.966,0-111.707-.241-146.834-.622-7.324-.08-13.882-.163-19.57-.254l-1.455-.023q-.911-.012-1.791-.029c-.845-.013-1.666-.031-2.465-.044-.023,0-.045,0-.067,0-12.371-.23-19.312-.487-19.312-.761s6.632-.519,18.487-.743c.436-.008.877-.018,1.325-.025.463-.01.933-.017,1.41-.025q1.244-.023,2.552-.044l.711-.011c5.318-.086,11.416-.168,18.207-.242,35.109-.394,88.726-.647,148.8-.647,55.484,0,105.458.215,140.432.557q4.649.046,8.935.1c4.531.05,8.751.1,12.63.16l1.1.017.938.014q3.808.057,7.139.116C634.706,2102.333,642.026,2102.6,642.026,2102.877Z" transform="translate(-259.033 -2101.14)"/></g><g transform="translate(182.395 35.399)"><path class="c" d="M2076.829,1030.223c-1.934,2.911-4.689,5.54-8.128,6.165-4.214.768-8.3-1.586-11.911-3.9s-7.581-4.781-11.834-4.266c-1.951.236-3.776,1.1-5.717,1.4a10.315,10.315,0,0,1-6.111-.973,10.172,10.172,0,0,1-3.869-3.276,10.462,10.462,0,0,1-.546-10.831c2.769-4.971,8.835-6.763,11.94-11.447,2.364-3.565,2.33-8.743,7.386-9.952a7.339,7.339,0,0,1,7.137,2.251c.986,1.153,1.647,2.661,2.978,3.393a5.381,5.381,0,0,0,4.473-.085,30.992,30.992,0,0,1,4.286-1.708,8.673,8.673,0,0,1,6.814,1.621,15.462,15.462,0,0,1,4.5,5.553,24.887,24.887,0,0,1,2.389,7.066A26.242,26.242,0,0,1,2076.829,1030.223Z" transform="translate(-1986.37 -992.956)"/><path class="d" d="M2102.714,1116.222c-1.933,2.911-4.688,5.54-8.128,6.165-4.214.768-8.3-1.586-11.912-3.9s-7.581-4.781-11.833-4.265c-1.95.236-3.776,1.1-5.718,1.4a10.315,10.315,0,0,1-6.11-.973,11.022,11.022,0,0,1,.052-9.561c1.241-2.33,3.4-4,5.241-5.892a13.61,13.61,0,0,0,2.38-3.165c.526-1.014.545-2.36,1.9-1.517,1.746,1.085,3.134,2.628,4.991,3.628a23.749,23.749,0,0,0,5.886,2.214,22.467,22.467,0,0,0,12.245-.524c2.49-.848,4.822-2.131,7.342-2.884,2.445-.729,5.215-.909,7.456.287A26.24,26.24,0,0,1,2102.714,1116.222Z" transform="translate(-2012.255 -1078.955)"/><g transform="translate(67.532 23.329)"><path class="e" d="M2246.529,1149.978c-.265.207-.563.426-.9.652s-.687.482-1.076.736c-.778.516-1.686,1.048-2.665,1.666q-.743.454-1.557.929c-.542.319-1.092.668-1.674,1.008-.289.171-.584.344-.883.521l-.453.265-.455.277q-.913.556-1.885,1.126c-.327.184-.645.39-.972.588s-.658.4-.993.6l-1.018.605-1.022.633-1.046.638c-.177.1-.354.211-.531.318l-.528.331c-.138.087-.277.175-.418.261q-.854.533-1.737,1.065-1.077.688-2.138,1.339l-.531.324-.516.331-1.029.645-1.018.624q-.5.314-.988.626l-.978.6c-.321.2-.649.386-.958.586q-.936.59-1.851,1.128l-.455.264-.442.268c-.292.177-.581.35-.869.518-.573.337-1.146.647-1.687.955s-1.07.6-1.585.866c-1.043.527-1.985,1.01-2.878,1.385-.446.19-.878.354-1.284.5s-.786.272-1.149.369c-1.457.39-2.595.365-3.241-.148s-.74-1.467-.3-2.757a9.294,9.294,0,0,1,.425-1.027,12.808,12.808,0,0,1,.641-1.121,19.53,19.53,0,0,1,1.874-2.507q.573-.66,1.231-1.353c.441-.463.931-.915,1.434-1.387q.383-.351.781-.71c.136-.119.269-.241.407-.359l.426-.35q.862-.708,1.8-1.43c.308-.243.639-.474.968-.71l1.008-.708,1.043-.713.293-.185.8-.506,1.124-.69c.19-.116.381-.23.573-.346s.391-.223.589-.335q1.19-.665,2.427-1.328,1.258-.633,2.5-1.229c.208-.1.41-.2.619-.3s.418-.184.626-.276l1.242-.54c.411-.175.818-.35,1.223-.521s.82-.318,1.223-.476.806-.3,1.2-.455.788-.3,1.186-.428c.789-.266,1.562-.521,2.313-.763l.561-.177c.186-.057.375-.11.559-.164l1.1-.308c.721-.2,1.413-.392,2.093-.551s1.335-.3,1.963-.436c1.248-.277,2.414-.449,3.437-.589.516-.067.994-.126,1.442-.162s.867-.05,1.248-.055c1.517-.023,2.443.167,2.664.612S2247.586,1149.151,2246.529,1149.978Z" transform="translate(-2202.552 -1147.431)"/></g><path class="e" d="M2463.262,1121.606a8.435,8.435,0,0,0-2.032,2.6l2.274,3.707.061-.021a24.215,24.215,0,0,0,3.972.1,33.751,33.751,0,0,0,5.583-.526c1.06-.187,2.352-.677,2.306-1.825a1.672,1.672,0,0,0-.4-.979c-1.142-1.4-3.024-1.813-4.792-1.933a19.313,19.313,0,0,1-4.892-.549q.868-1.016,1.711-2.05a.429.429,0,0,0-.521-.656A15.091,15.091,0,0,0,2463.262,1121.606Z" transform="translate(-2354.633 -1100.327)"/><path class="f" d="M2228.458,1220.906q-.854.534-1.737,1.065-1.077.687-2.138,1.339l-.531.323-.516.331-1.029.645-1.018.624q-.5.315-.988.626c-.329.2-.654.4-.978.6s-.649.386-.958.586q-.936.591-1.851,1.128c-.152.087-.3.177-.455.264l-.442.268c-.292.177-.581.35-.869.518-.573.336-1.146.647-1.687.955s-1.07.6-1.585.865c-1.043.527-1.985,1.01-2.878,1.385-.446.191-.878.354-1.284.5s-.786.272-1.149.369c-1.457.39-2.595.365-3.241-.148s-.74-1.467-.3-2.756a9.261,9.261,0,0,1,.425-1.028,12.822,12.822,0,0,1,.641-1.12,19.507,19.507,0,0,1,1.874-2.507q.573-.66,1.231-1.353c.441-.462.931-.915,1.434-1.387.255-.234.516-.472.781-.709.136-.12.269-.242.407-.36s.283-.232.426-.35q.862-.707,1.8-1.43c.308-.243.639-.474.968-.709l1.008-.708,1.043-.713.293-.184a7.654,7.654,0,0,0,4.068,3.506,12.008,12.008,0,0,0,6.9.253A21.268,21.268,0,0,0,2228.458,1220.906Z" transform="translate(-2135.021 -1183.872)"/><g transform="translate(7.986 15.924)"><path class="e" d="M1850.231,1128.63c-.7.443-1.832.352-3.24-.186-.352-.133-.721-.3-1.105-.486s-.8-.394-1.225-.627c-.852-.464-1.739-1.044-2.72-1.676q-.728-.48-1.488-1.023c-.506-.363-1.044-.729-1.579-1.125-.268-.2-.54-.4-.812-.6-.135-.1-.274-.207-.411-.312l-.426-.312c-.567-.419-1.143-.856-1.724-1.31-.287-.23-.594-.451-.894-.681l-.909-.7-.917-.725-.949-.725c-.318-.247-.635-.5-.957-.748l-.479-.382-.495-.377q-.988-.756-1.988-1.554-.32-.24-.634-.48-.7-.53-1.373-1.059l-.491-.384-.495-.371c-.326-.249-.652-.5-.974-.74s-.637-.495-.951-.736l-.951-.708-.925-.7c-.306-.232-.6-.468-.907-.687q-.907-.665-1.76-1.314l-.422-.322-.425-.31c-.279-.207-.553-.411-.825-.608-.542-.4-1.054-.8-1.56-1.176s-.991-.735-1.452-1.086c-.911-.714-1.76-1.338-2.479-1.931-.361-.293-.691-.58-.995-.843s-.584-.508-.825-.742c-.967-.932-1.395-1.64-1.128-2.06s1.206-.513,2.713-.334c.376.044.79.107,1.235.184s.913.188,1.417.308c1,.245,2.148.536,3.36.94q.915.3,1.908.638c.658.228,1.326.494,2.024.764l1.058.419c.179.072.361.145.54.221l.538.234q1.084.476,2.224,1c.383.171.754.361,1.134.548s.763.383,1.149.578.776.4,1.168.6l1.165.645,1.177.664.593.341c.2.116.39.237.586.356q1.172.722,2.363,1.482,1.161.785,2.277,1.569c.184.131.371.261.552.394s.356.27.534.4l1.046.8c.23.181.46.36.687.538.112.087.222.173.333.261l.962.816.931.808c.3.271.608.531.89.807q.856.814,1.64,1.608c.131.131.26.263.388.392s.247.266.367.4q.362.4.7.787c.455.522.894,1.022,1.286,1.526s.75,1,1.084,1.472a19.745,19.745,0,0,1,1.605,2.688,12.581,12.581,0,0,1,.522,1.179,9.143,9.143,0,0,1,.316,1.067C1851.117,1127.247,1850.929,1128.187,1850.231,1128.63Z" transform="translate(-1808.263 -1098.4)"/></g><path class="f" d="M1957.13,1205.709c-.7.443-1.832.352-3.24-.187-.353-.133-.722-.3-1.106-.485s-.8-.394-1.225-.628c-.852-.464-1.739-1.044-2.72-1.676q-.728-.48-1.488-1.024c-.506-.363-1.045-.729-1.579-1.124-.268-.2-.54-.4-.812-.6-.135-.1-.274-.207-.411-.312s-.283-.207-.426-.312c-.567-.418-1.144-.856-1.724-1.31-.288-.23-.594-.451-.894-.681l-.91-.7-.917-.725c-.314-.24-.632-.481-.949-.725l-.957-.748-.479-.382c-.163-.126-.329-.251-.494-.377q-.987-.756-1.988-1.554-.319-.24-.633-.48a17.4,17.4,0,0,0,3.335.7c3.348.344,7.037-.681,9.175-3.184.112.087.223.173.333.261.323.274.645.548.962.816l.93.808c.3.27.609.531.89.807q.856.812,1.64,1.607c.131.132.261.263.388.392s.248.267.367.4q.363.4.7.787c.455.521.894,1.022,1.286,1.525s.749,1,1.085,1.473a19.887,19.887,0,0,1,1.605,2.688,12.684,12.684,0,0,1,.521,1.179,9.063,9.063,0,0,1,.316,1.068C1958.016,1204.326,1957.828,1205.266,1957.13,1205.709Z" transform="translate(-1907.176 -1159.554)"/><g transform="translate(34.569 77.604)"><path class="e" d="M2000.28,1524.23c-.034,1.116-.064,2.277-.131,3.474-.144,2.391-.3,4.942-.56,7.615-.125,1.337-.235,2.711-.384,4.109-.074.7-.152,1.406-.228,2.119s-.148,1.435-.223,2.163-.164,1.46-.247,2.2l-.005.045c-.042.356-.084.712-.128,1.069s-.082.748-.122,1.122q-.249,2.257-.541,4.575-.25,2.32-.532,4.583c-.048.379-.093.753-.139,1.128s-.084.748-.126,1.119c-.085.746-.171,1.482-.257,2.214s-.177,1.459-.264,2.177-.158,1.434-.236,2.14c-.155,1.411-.333,2.794-.478,4.147-.283,2.706-.594,5.283-.83,7.7-.123,1.208-.262,2.378-.373,3.5s-.222,2.209-.327,3.24c-.232,2.068-.4,3.944-.59,5.595-.091.826-.19,1.6-.28,2.306s-.169,1.36-.257,1.946c-.352,2.342-.736,3.662-1.236,3.7s-1.079-1.2-1.777-3.485q-.263-.856-.546-1.908c-.184-.7-.363-1.461-.555-2.281-.375-1.64-.8-3.512-1.177-5.591-.19-1.04-.39-2.132-.6-3.268s-.376-2.325-.571-3.555c-.394-2.459-.721-5.1-1.056-7.881-.165-1.391-.292-2.82-.433-4.279q-.1-1.1-.2-2.216-.077-1.119-.158-2.26t-.148-2.3q-.034-.582-.068-1.166c-.017-.39-.032-.782-.05-1.175q-.091-2.36-.154-4.789-.02-2.425-.006-4.79c0-.394.009-.786.013-1.177s.023-.778.035-1.167c.017-.468.034-.936.051-1.4.009-.3.021-.6.032-.906.034-.76.07-1.516.1-2.263q.08-1.119.16-2.217c.12-1.461.232-2.893.394-4.284.329-2.783.694-5.42,1.183-7.868.24-1.225.476-2.406.752-3.535s.565-2.2.862-3.23a44.448,44.448,0,0,1,1.944-5.464c.344-.794.688-1.526,1.046-2.192s.73-1.263,1.1-1.8c1.469-2.129,2.953-3.166,4.284-2.922s2.374,1.737,3.046,4.182a20.1,20.1,0,0,1,.434,2.011c.128.727.242,1.513.327,2.348.179,1.672.24,3.548.272,5.612Q2000.335,1522.556,2000.28,1524.23Z" transform="translate(-1984.281 -1506.823)"/></g><path class="e" d="M2137.412,1575.609a1.118,1.118,0,0,1-.621.239,2.379,2.379,0,0,1-1.514-.614c-.278-.193-.6-.439-.978-.75l-.57-.476-.638-.523c-.449-.37-.952-.794-1.5-1.26l-1.777-1.455c-.412-.352-.853-.7-1.319-1.059-.24-.189-.487-.379-.734-.577-.533-.431-1.1-.856-1.708-1.306l-.618-.463c-.529-.408-1.085-.8-1.674-1.215-.308-.216-.619-.436-.933-.661s-.612-.429-.941-.65c-.15-.1-.3-.2-.453-.3l-1.461-.978-2.32-1.475-2.462-1.481-1.72-.983c-.416-.243-.83-.467-1.27-.7l-.5-.27-.57-.308c-.4-.219-.82-.447-1.235-.652l-1.891-.967-1.937-.935c-2.655-1.257-5.4-2.451-8.142-3.545a5.8,5.8,0,0,1-3.624-6l.255-2.416c.2-1.54.33-3.157.41-4.944.052-1.129.083-2.325.092-3.614l.005-1.03.005-.492-.016-.489c-.023-.685-.037-1.357-.046-2l-.1-1.931c-.006-.141-.011-.28-.016-.417-.007-.175-.012-.35-.023-.525l-.074-.948c-.081-1.526-.215-3-.346-4.419-.081-.885-.158-1.722-.221-2.555-.212-2.018-.353-3.877-.49-5.673l-.036-.451c-.034-.488-.058-.97-.071-1.439-.006-.213-.018-.42-.032-.625-.012-.232-.028-.471-.032-.713-.021-.59-.016-1.168-.012-1.728,0-.271.006-.536,0-.8v-.019c.009-.411.027-.823.055-1.221.012-.207.035-.418.055-.622.017-.165.034-.327.044-.484l0-.021a16.542,16.542,0,0,1,.332-2.162c.061-.277.135-.542.206-.8l.045-.169c.087-.321.189-.633.3-.931a8.857,8.857,0,0,1,.817-1.668,5.849,5.849,0,0,1,2.575-2.312,4.953,4.953,0,0,1,1.645-.406,5.726,5.726,0,0,1,1.864.187,7.963,7.963,0,0,1,1.831.751c.3.167.609.36.917.571a10.246,10.246,0,0,1,.907.728,17.932,17.932,0,0,1,1.75,1.809,12.061,12.061,0,0,1,.755,1l.086.121c.273.394.541.806.8,1.23a22.343,22.343,0,0,1,1.481,2.842l.123.277c.189.427.387.869.556,1.343.2.546.392,1.118.578,1.7a39.672,39.672,0,0,1,1.6,7.879l0,.022a48.124,48.124,0,0,1-.009,9.18l-.114,1.2c-.034.3-.079.6-.121.89l-.049.335-.067.442c-.1.659-.2,1.339-.328,2.022l0,.021c-.167.805-.346,1.637-.531,2.466l-.145.638-.171.636-.346,1.242c-.371,1.293-.782,2.57-1.23,3.817q-.423,1.169-.884,2.3c1.029.674,2.042,1.364,3.018,2.057l1.936,1.406,1.826,1.41c.451.343.892.706,1.315,1.057q.229.19.457.378l.388.321c.439.361.892.735,1.325,1.123l1.6,1.407c.378.343.734.678,1.088,1.011.153.142.3.285.456.425l.76.714.712.7,1.385,1.381c.321.332.623.651.922.969l.392.416c.12.129.235.25.349.372.3.318.615.648.908.987.218.251.44.5.66.746.56.629,1.089,1.224,1.588,1.842l.334.4c.576.693,1.119,1.348,1.62,2.012l.431.561c.441.569.858,1.108,1.237,1.652l.31.434c.381.531.74,1.034,1.066,1.52.415.634.782,1.2,1.1,1.7l.093.146c.131.21.254.409.369.6l.372.669c.244.45.427.814.567,1.124C2137.708,1573.932,2138.183,1574.993,2137.412,1575.609Z" transform="translate(-2042.487 -1421.904)"/><path class="d" d="M1986.407,2074.941c-.547.748-.655,1.19-1.579,1.138a2.841,2.841,0,0,1-2.265-1.406,8.837,8.837,0,0,0-6.324,7.415,53.292,53.292,0,0,0,10.63-.392A16.285,16.285,0,0,0,1986.407,2074.941Z" transform="translate(-1942.884 -1911.313)"/><path class="d" d="M2356.334,1980.776c.207.9.47,1.274-.175,1.938a2.844,2.844,0,0,1-2.545.792,8.834,8.834,0,0,0,1.465,9.635,53.3,53.3,0,0,0,6.663-8.292A16.277,16.277,0,0,0,2356.334,1980.776Z" transform="translate(-2262.573 -1831.596)"/><path class="f" d="M2000.918,1521.009q.011,1.547-.044,3.221c-.034,1.116-.065,2.277-.131,3.474-.145,2.391-.3,4.942-.559,7.615-.125,1.337-.236,2.711-.384,4.109-.074.7-.152,1.406-.228,2.119s-.148,1.435-.223,2.163-.164,1.46-.247,2.2l-.006.045c-1-.057-2.007-.118-3.008-.192a37.307,37.307,0,0,1-11.108-2.23c.009-.3.021-.6.032-.906q.051-1.141.1-2.263.081-1.119.16-2.217c.12-1.461.232-2.893.394-4.284.329-2.783.694-5.42,1.183-7.868.24-1.225.475-2.406.751-3.535s.565-2.2.862-3.23a44.612,44.612,0,0,1,1.944-5.464c.344-.794.689-1.526,1.047-2.192s.731-1.263,1.1-1.8c1.468-2.129,2.952-3.166,4.284-2.922s2.374,1.737,3.045,4.182a19.961,19.961,0,0,1,.434,2.011c.128.727.242,1.513.328,2.348C2000.825,1517.069,2000.886,1518.945,2000.918,1521.009Z" transform="translate(-1950.306 -1429.219)"/><path class="f" d="M2112.887,1527.854l-.114,1.2c-.034.3-.079.6-.121.89l-.049.335-.067.442c-.1.659-.2,1.339-.328,2.022l0,.021c-.167.805-.346,1.637-.531,2.466l-.145.638-.171.636-.346,1.242c-.371,1.293-.782,2.57-1.23,3.817a23.839,23.839,0,0,0-7.051-2.2,49.179,49.179,0,0,0-7.759-.484c.052-1.129.083-2.325.092-3.614l.005-1.03.005-.492-.016-.489c-.023-.685-.037-1.357-.046-2l-.1-1.931c-.006-.141-.011-.28-.016-.417-.007-.175-.012-.35-.023-.525l-.074-.948c-.081-1.526-.215-3-.346-4.419-.081-.885-.158-1.722-.221-2.555-.212-2.018-.353-3.877-.49-5.673l-.036-.451c-.034-.488-.058-.97-.071-1.439-.006-.213-.018-.42-.032-.625-.012-.232-.028-.471-.032-.713-.021-.59-.016-1.168-.012-1.728,0-.271.006-.536,0-.8v-.019c.009-.411.027-.823.055-1.221.012-.207.035-.418.055-.622.017-.165.034-.327.044-.484l0-.021a16.542,16.542,0,0,1,.332-2.162c.061-.277.135-.542.206-.8l.045-.169c.087-.321.189-.633.3-.931a8.857,8.857,0,0,1,.817-1.668,5.849,5.849,0,0,1,2.575-2.312,4.953,4.953,0,0,1,1.645-.406,5.726,5.726,0,0,1,1.864.187,7.963,7.963,0,0,1,1.831.751c.3.167.609.36.917.571a10.246,10.246,0,0,1,.907.728,17.932,17.932,0,0,1,1.75,1.809,12.061,12.061,0,0,1,.755,1l.086.121c.273.394.541.806.8,1.23a22.343,22.343,0,0,1,1.481,2.842l.123.277c.189.427.387.869.556,1.343.2.546.392,1.118.578,1.7a39.672,39.672,0,0,1,1.6,7.879l0,.022A48.124,48.124,0,0,1,2112.887,1527.854Z" transform="translate(-2042.487 -1421.904)"/><path class="e" d="M1767.91,1072.311a8.423,8.423,0,0,1,1.753,2.795l-2.644,3.452-.058-.027a24.12,24.12,0,0,1-3.962-.311,33.772,33.772,0,0,1-5.5-1.1c-1.035-.3-2.269-.916-2.106-2.053a1.671,1.671,0,0,1,.5-.933c1.279-1.276,3.194-1.492,4.965-1.429a19.277,19.277,0,0,0,4.922-.042q-.758-1.1-1.49-2.216a.429.429,0,0,1,.586-.6A15.1,15.1,0,0,1,1767.91,1072.311Z" transform="translate(-1755.379 -1058.181)"/><path class="g" d="M2136.635,1280.73a140.058,140.058,0,0,1,3.735,25.813c.2,3.928.177,8.084-1.787,11.492a14.585,14.585,0,0,1-9.037,6.378,35.488,35.488,0,0,1-11.283.68c-.3-9.379-.579-18.982-.879-28.361a40.832,40.832,0,0,1,.417-9.355,13.735,13.735,0,0,1,4.448-8.054C2126.437,1275.918,2135.368,1275.484,2136.635,1280.73Z" transform="translate(-2062.651 -1233.91)"/><path class="h" d="M2000.344,1211.047c.886,19.768,1.535,39.083,2.4,58.811a72.077,72.077,0,0,1-42.346.212c1.948-22.03,4.69-43.143,10-64.681-2.375-2.2-4.862-4.145-7.237-6.348,1.408-4.222,3.8-8.132,7.521-10.4a13.092,13.092,0,0,1,1.435-.761l.652.486c3.4,2.577,6.16,5.135,8.056,9.037a20.956,20.956,0,0,1,13.118,1.186c2.681-2.335,6.662-4.748,9.755-7.108.578-.442,1.127-.883,1.629-1.319a19.49,19.49,0,0,1,2.737,2.968,38.758,38.758,0,0,1,5.575,10.987A31.115,31.115,0,0,0,2000.344,1211.047Z" transform="translate(-1929.436 -1158.443)"/><path class="i" d="M2002.567,1704.157q.088,2,.174,4.011a72.1,72.1,0,0,1-42.348.211q.174-1.984.36-3.957a72.065,72.065,0,0,0,41.814-.265Z" transform="translate(-1929.432 -1596.752)"/><path class="g" d="M2101.3,1234.873s4.123-1.169,11.149.751l-.315,3.216-11.116-1.089Z" transform="translate(-2048.816 -1198.04)"/><path class="e" d="M2117.86,1182.824a21.072,21.072,0,0,0-2.8,7.312,20.729,20.729,0,0,0-.336,3.962,10.261,10.261,0,0,1-9.426-.835,11.967,11.967,0,0,0,1.679-3.61,11.488,11.488,0,0,0,.414-2.575A35.8,35.8,0,0,0,2117.86,1182.824Z" transform="translate(-2052.454 -1154.151)"/><path class="f" d="M2127.3,1182.824a21.063,21.063,0,0,0-2.8,7.312,14.81,14.81,0,0,1-8.083-.483,11.459,11.459,0,0,0,.414-2.575A35.812,35.812,0,0,0,2127.3,1182.824Z" transform="translate(-2061.892 -1154.151)"/><path class="e" d="M2107.558,1095.091c-.218.8-.46,1.6-.6,2.408a.012.012,0,0,0,0,.009c-.24.535-.6,1.35-.844,1.883a11.3,11.3,0,0,1-5.505,4.058,7.106,7.106,0,0,1-4.242-.08,5.418,5.418,0,0,1-2.7-1.933c-1.386-1.925-1.255-4.583-.5-6.836s2.053-4.283,2.893-6.5a11.1,11.1,0,0,0,.757-3.53,7.246,7.246,0,0,0-.028-1.01,6.106,6.106,0,0,0-.45-1.82,11.99,11.99,0,0,0,2.831,2c1.756.93,3.646,1.61,5.318,2.686a7.369,7.369,0,0,1,3.52,4.606A9.2,9.2,0,0,1,2107.558,1095.091Z" transform="translate(-2041.674 -1068.328)"/><path class="j" d="M2116.029,1184.865a8.755,8.755,0,0,0,3.551.74.376.376,0,0,1,.348.523,2.318,2.318,0,0,1-1.368,1.34,2.715,2.715,0,0,1-2.516-.416,2.028,2.028,0,0,1-.542-1.867A.376.376,0,0,1,2116.029,1184.865Z" transform="translate(-2061.103 -1155.856)"/><path class="e" d="M2183.087,1158.436a2.662,2.662,0,0,1,.658-.761,1.013,1.013,0,0,1,.988-.132,1.127,1.127,0,0,1,.468,1.161,4.205,4.205,0,0,1-1.19,2.575,4.771,4.771,0,0,1-2.64,1.346C2182.1,1161.314,2182.255,1159.693,2183.087,1158.436Z" transform="translate(-2117.038 -1132.622)"/><g transform="translate(38.721 35.743)"><path class="g" d="M2024.948,1230.047a1.388,1.388,0,0,1-.085,1.294,4.351,4.351,0,0,1-.214.414c-.082.146-.171.3-.273.456-.2.315-.452.635-.719,1q-.2.265-.436.539c-.153.182-.307.38-.473.572-.336.381-.681.8-1.061,1.217l-.572.651-.3.329-.3.344c-.2.232-.416.454-.619.7s-.417.479-.635.719l-1.235,1.439-.3.345-.286.347c-.188.229-.386.446-.566.667-.359.442-.723.853-1.046,1.253l-.488.571q-.23.279-.453.532c-.3.334-.568.647-.83.911-.129.133-.258.254-.377.366s-.23.214-.34.3c-.437.355-.811.51-1.087.4s-.429-.477-.468-1.066c-.01-.147-.013-.308-.008-.482s.027-.357.051-.553a9.609,9.609,0,0,1,.253-1.312q.092-.357.208-.744c.078-.257.177-.516.276-.788a17.936,17.936,0,0,1,.73-1.691c.141-.293.3-.581.467-.88l.253-.449.278-.445c.193-.3.379-.605.6-.9s.434-.594.661-.893.475-.574.714-.851.492-.533.735-.789l.369-.374.38-.349c.254-.226.5-.452.753-.655a15.949,15.949,0,0,1,1.5-1.082c.245-.154.48-.3.718-.433s.469-.245.693-.352a8.065,8.065,0,0,1,1.26-.486c.194-.056.375-.105.55-.138a4.449,4.449,0,0,1,.495-.059C2024.325,1229.6,2024.75,1229.738,2024.948,1230.047Z" transform="translate(-2011.774 -1229.631)"/></g><g transform="translate(63.28 38.6)"><path class="g" d="M2183.46,1266.936c-.278.106-.645-.058-1.072-.439a7.243,7.243,0,0,1-.685-.727c-.242-.292-.495-.633-.763-1.013-.53-.763-1.1-1.689-1.694-2.734-.3-.521-.594-1.075-.9-1.648s-.606-1.175-.9-1.794-.584-1.227-.851-1.818-.513-1.167-.735-1.724a29.815,29.815,0,0,1-1.063-3.028c-.123-.448-.225-.86-.291-1.236a6.357,6.357,0,0,1-.107-1c-.006-.581.125-.982.41-1.145s.694-.07,1.192.242a5.46,5.46,0,0,1,.805.629,10.933,10.933,0,0,1,.9.935,21.319,21.319,0,0,1,1.937,2.673c.324.526.654,1.085.969,1.678s.625,1.215.926,1.86.569,1.287.811,1.914.458,1.239.65,1.827a24.071,24.071,0,0,1,.807,3.2,12.571,12.571,0,0,1,.159,1.284,5.923,5.923,0,0,1,0,1.013C2183.9,1266.464,2183.739,1266.83,2183.46,1266.936Z" transform="translate(-2174.397 -1248.549)"/></g><path class="i" d="M2096.646,1237.605a9.551,9.551,0,0,1-5.793,2.69,9.454,9.454,0,0,1-5.356-3.442l-3.093,2.664c.87,3.418,5.609,6.529,5.609,6.529l2.8-5.254,2.03,5.58s5.136-2.447,6.483-5.715Z" transform="translate(-2033.017 -1200.021)"/></g><g transform="translate(21.552 33.594)"><g transform="translate(27.854 89.09)"><path class="k" d="M887.3,1626.938c-.179,4.879-.424,9.278-.694,12.978s-.569,6.7-.9,8.777-.7,3.242-1.157,3.272-.972-1.077-1.569-3.1-1.273-4.955-2.018-8.589-1.55-7.965-2.353-12.781-1.6-10.117-2.275-15.691q-.354-2.908-.633-5.715c-.35-3.5-.609-6.867-.761-10.033a108.116,108.116,0,0,1,.047-12.935,35.452,35.452,0,0,1,1.547-8.821c.744-2.106,1.706-3.306,2.8-3.377s2.2,1,3.205,2.991a35.408,35.408,0,0,1,2.665,8.549,108.509,108.509,0,0,1,1.708,12.822c.39,4.843.592,10.183.637,15.8,0,.327,0,.655.006.98C887.581,1617.324,887.474,1622.344,887.3,1626.938Z" transform="translate(-874.776 -1570.922)"/></g><g transform="translate(9.042 89.09)"><path class="k" d="M762.829,1596.059c-.118,2.436-.3,4.986-.534,7.631-.236,2.625-.525,5.34-.862,8.117-.675,5.574-1.472,10.874-2.275,15.691s-1.611,9.148-2.353,12.781-1.425,6.569-2.018,8.589-1.111,3.128-1.57,3.1-.824-1.191-1.157-3.272-.628-5.079-.9-8.777-.516-8.1-.695-12.978-.289-10.238-.245-15.854c.029-3.474.116-6.844.272-10.056.1-1.979.215-3.9.365-5.741a108.484,108.484,0,0,1,1.708-12.822,35.6,35.6,0,0,1,2.665-8.549c1.008-1.994,2.116-3.061,3.206-2.991s2.053,1.271,2.8,3.377a35.465,35.465,0,0,1,1.546,8.821A108.463,108.463,0,0,1,762.829,1596.059Z" transform="translate(-750.21 -1570.922)"/></g><path class="f" d="M764.362,1583.124a108.465,108.465,0,0,1,.049,12.935c-.118,2.436-.3,4.986-.535,7.631-3.892-1.041-7.847-1.868-11.8-2.661.1-1.979.215-3.9.365-5.741a108.563,108.563,0,0,1,1.708-12.822,35.58,35.58,0,0,1,2.665-8.549c1.008-1.994,2.115-3.061,3.205-2.991s2.053,1.271,2.8,3.377A35.47,35.47,0,0,1,764.362,1583.124Z" transform="translate(-742.751 -1481.832)"/><path class="f" d="M887.556,1612.064a54.675,54.675,0,0,0-11.538-5.855c-.1-.04-.209-.078-.314-.116-.35-3.5-.609-6.867-.761-10.033a108.116,108.116,0,0,1,.047-12.935,35.452,35.452,0,0,1,1.547-8.821c.744-2.106,1.706-3.306,2.8-3.377s2.2,1,3.205,2.991a35.408,35.408,0,0,1,2.665,8.549,108.509,108.509,0,0,1,1.708,12.822c.39,4.843.592,10.183.637,15.8C887.552,1611.411,887.554,1611.739,887.556,1612.064Z" transform="translate(-846.921 -1481.832)"/><path class="l" d="M764.617,1265.3c-.036,2.06-.132,4.229-1.248,5.98a8.173,8.173,0,0,1-4.821,3.231,24.807,24.807,0,0,1-5.941.635l-7.5.2-.237.006-.237-.006-7.5-.2a24.807,24.807,0,0,1-5.941-.635,8.172,8.172,0,0,1-4.821-3.231c-1.116-1.752-1.213-3.92-1.248-5.98a214.1,214.1,0,0,1,1.616-30.164,8.76,8.76,0,0,1,1.65-4.848c1.454-1.655,3.907-2.07,6.147-2.058s4.529.341,6.681-.257a10.625,10.625,0,0,0,7.317,0c2.152.6,4.443.272,6.681.257s4.693.4,6.147,2.058a8.757,8.757,0,0,1,1.65,4.848A214.051,214.051,0,0,1,764.617,1265.3Z" transform="translate(-719.834 -1190.676)"/><path class="c" d="M773.75,1007.695a21.443,21.443,0,0,1-8.053,10.727,25.86,25.86,0,0,1-3.167,1.961,13.619,13.619,0,0,0-2.766-.538c-2.991-.287-6.118.164-9.1-.188a12.619,12.619,0,0,1-9.438-6.558,13.822,13.822,0,0,1-.439-11.863c1.1-2.479,2.96-4.67,3.285-7.381.158-1.3-.063-2.635.057-3.943a7.471,7.471,0,0,1,3.03-5.349,7.673,7.673,0,0,1,6.242-1.077,5.586,5.586,0,0,1,7.7-1.562c2.077,1.476,2.958,4.214,4.689,6.12a48.5,48.5,0,0,0,4.149,3.407C774.258,995.265,775.525,1002.075,773.75,1007.695Z" transform="translate(-732.206 -980.998)"/><path class="m" d="M865.9,1125.893a25.925,25.925,0,0,1-3.167,1.961,13.594,13.594,0,0,0-2.766-.538,7,7,0,0,1-2.22-4.087,8.777,8.777,0,0,1,.811-4.727,26.153,26.153,0,0,1,2.5-4.157c1.486-2.153,2.543-4.6,4.027-6.759,1.668.881,2.429,2.848,2.8,4.7A20.943,20.943,0,0,1,865.9,1125.893Z" transform="translate(-832.407 -1088.47)"/><path class="e" d="M694.879,1284.444a85.4,85.4,0,0,1,2.774-11.485,56.312,56.312,0,0,1,4.477-10.883c1.524-2.651,3-4.1,3.967-3.761s1.2,2.4.723,5.419a56.328,56.328,0,0,1-3.354,11.28,85.342,85.342,0,0,1-5.057,10.678c-1.532,2.649-2.748,4.192-3.387,3.967S694.407,1287.467,694.879,1284.444Z" transform="translate(-693.899 -1216.393)"/><path class="n" d="M723.094,1246.565a36.157,36.157,0,0,0-8.948,14.682,21.07,21.07,0,0,0,8.174,4.361C722.566,1259.108,722.848,1253.065,723.094,1246.565Z" transform="translate(-710.55 -1206.459)"/><path class="e" d="M945.748,1284.444a85.377,85.377,0,0,0-2.774-11.485,56.338,56.338,0,0,0-4.477-10.883c-1.525-2.651-3-4.1-3.967-3.761s-1.2,2.4-.723,5.419a56.329,56.329,0,0,0,3.355,11.28,85.378,85.378,0,0,0,5.057,10.678c1.532,2.649,2.748,4.192,3.387,3.967S946.22,1287.467,945.748,1284.444Z" transform="translate(-896.833 -1216.393)"/><path class="n" d="M937.663,1246.565a36.155,36.155,0,0,1,8.948,14.682,21.07,21.07,0,0,1-8.174,4.361C938.191,1259.108,937.909,1253.065,937.663,1246.565Z" transform="translate(-900.312 -1206.459)"/><path class="n" d="M769.3,1294.444c-5.172,2.2-13.347,3.382-19.064,3.382-5.408,0-13.3-1.062-18.224-3.036,1.069-12.6,4.575-53.093,5.191-65.723l.5-10.316c.687-.242,1.92-.723,3.38-1.3l.723-.285c3.122-1.239,6.983-2.789,8.859-3.453,1.877.664,5.739,2.214,8.861,3.453l.849.335c1.406.554,2.589,1.014,3.255,1.25l.5,10.316C764.745,1241.582,768.241,1281.963,769.3,1294.444Z" transform="translate(-725.715 -1178.57)"/><path class="o" d="M769.3,1740.559c-5.172,2.2-13.347,3.382-19.064,3.382-5.408,0-13.3-1.061-18.224-3.036.036-.428.076-.888.116-1.377,4.935,1.946,12.742,2.99,18.108,2.99,5.673,0,13.769-1.168,18.945-3.333C769.223,1739.675,769.261,1740.133,769.3,1740.559Z" transform="translate(-725.715 -1624.685)"/><path class="o" d="M811.4,1217.5c-2.11,3.833-5.637,6.344-9.63,6.344-4.012,0-7.552-2.532-9.662-6.394l.723-.285c3.122-1.239,6.984-2.789,8.859-3.453,1.877.664,5.739,2.214,8.861,3.453Z" transform="translate(-776.738 -1178.57)"/><path class="e" d="M814.611,1217.167c-2.064,3.344-5.266,5.492-8.859,5.492s-6.8-2.147-8.861-5.492c3.122-1.239,6.983-2.789,8.859-3.453C807.628,1214.378,811.49,1215.928,814.611,1217.167Z" transform="translate(-780.799 -1178.57)"/><path class="e" d="M835.028,1167.792a6.178,6.178,0,0,1-4.564,2.281,6.054,6.054,0,0,1-4.32-2.2q.086-2.522.169-5.047c.008-.2.013-.4.021-.6.005-.142.009-.287.015-.43q.082-2.48.167-4.957c2.608.162,5.7-.261,8.306-.1-.125,2.693-.1,5.385.025,8.072.021.413.042.824.067,1.237.019.318.038.634.061.949C834.99,1167.267,835.009,1167.529,835.028,1167.792Z" transform="translate(-805.634 -1130.172)"/><path class="f" d="M836,1164.818a15.263,15.263,0,0,1-4.067-.4,8.632,8.632,0,0,1-4.431-2.618q.083-2.48.167-4.957c2.608.162,5.7-.261,8.306-.1C835.853,1159.44,835.875,1162.132,836,1164.818Z" transform="translate(-806.79 -1130.172)"/><path class="e" d="M820.829,1059.583c-.329,6.659-3.675,13.49-7.754,13.49-4.3,0-7.779-7.578-7.779-14.551,0-.2,0-.4.008-.6a25.736,25.736,0,0,0,4.861-7.223c3,2.356,5.7,4.924,8.7,7.283C819.529,1058.5,820.2,1059.026,820.829,1059.583Z" transform="translate(-787.935 -1040.174)"/><path class="p" d="M841.881,1154.042a4.71,4.71,0,0,0,2.926-.059.438.438,0,0,1,.572.5,2.241,2.241,0,0,1-.845,1.294,2.136,2.136,0,0,1-2.2.159,2.346,2.346,0,0,1-1-1.351A.439.439,0,0,1,841.881,1154.042Z" transform="translate(-818.508 -1127.839)"/><g transform="translate(33.502 37.606)"><path class="q" d="M914.489,1230.01c.488,0,.961.4,1.382,1.11a6.441,6.441,0,0,1,.306.588c.1.214.205.445.3.693.2.5.369,1.059.559,1.676q.136.464.261.969c.084.336.179.684.261,1.045.159.723.341,1.49.5,2.3l.252,1.241q.059.318.119.642l.132.653c.089.438.158.891.253,1.344s.176.915.258,1.385.184.928.267,1.386.181.905.261,1.351q.062.333.122.662l.132.646.243,1.261.465,2.347.2,1.078q.105.517.191,1c.108.647.221,1.229.293,1.759.037.264.065.515.089.746s.046.446.056.644c.039.792-.063,1.311-.348,1.474s-.729-.044-1.309-.568q-.217-.2-.459-.451c-.159-.171-.319-.363-.49-.573a17.231,17.231,0,0,1-1.08-1.478q-.279-.424-.574-.9c-.195-.316-.38-.653-.576-1-.4-.7-.77-1.467-1.155-2.286-.192-.41-.366-.84-.55-1.277l-.273-.666-.253-.69c-.165-.466-.345-.938-.493-1.428s-.3-.986-.449-1.493-.26-1.015-.38-1.515-.211-1-.307-1.488q-.066-.368-.133-.729t-.1-.72c-.062-.476-.128-.941-.166-1.4-.075-.915-.13-1.786-.116-2.606,0-.41.007-.8.032-1.185s.059-.745.1-1.094a12.767,12.767,0,0,1,.343-1.874c.072-.275.146-.53.232-.764a6.5,6.5,0,0,1,.278-.639C913.547,1230.423,914,1230.012,914.489,1230.01Z" transform="translate(-912.176 -1230.01)"/></g><g transform="translate(8.7 37.492)"><path class="q" d="M753.137,1229.26c-.487.029-.933.462-1.308,1.2a6.36,6.36,0,0,0-.268.606c-.087.22-.177.458-.258.712-.166.508-.3,1.081-.45,1.709q-.107.471-.2.983c-.062.341-.135.694-.194,1.06-.113.732-.245,1.509-.349,2.327l-.172,1.255-.078.649-.089.66c-.061.444-.1.9-.166,1.357s-.117.925-.168,1.4-.124.938-.177,1.4-.123.915-.174,1.364q-.04.337-.079.669l-.09.653-.162,1.274c-.11.834-.215,1.627-.314,2.372q-.07.563-.135,1.089t-.127,1.011c-.066.653-.142,1.241-.179,1.773-.021.266-.032.518-.042.751s-.017.447-.014.646c.012.793.146,1.3.441,1.449s.725-.091,1.27-.65q.2-.21.43-.48c.147-.181.3-.383.452-.6a17.144,17.144,0,0,0,.984-1.544q.252-.442.515-.933c.174-.328.337-.677.51-1.038.352-.72.674-1.513,1.006-2.355.165-.421.311-.861.468-1.31l.23-.682.209-.7c.135-.476.284-.958.4-1.456s.239-1,.353-1.519.194-1.03.282-1.536.146-1.011.211-1.5q.043-.372.086-.736l.056-.725c.032-.479.067-.948.077-1.407.017-.918.015-1.791-.051-2.608-.03-.408-.059-.8-.108-1.18s-.106-.74-.168-1.085a12.755,12.755,0,0,0-.462-1.848c-.089-.27-.18-.519-.28-.747a6.453,6.453,0,0,0-.318-.62C754.1,1229.613,753.623,1229.231,753.137,1229.26Z" transform="translate(-747.943 -1229.259)"/></g><g transform="translate(36.1 47.881)"><path class="e" d="M930.253,1298.062c.836-.141,2.253,1.388,4.04,3.947a71.178,71.178,0,0,1,5.793,10.2,33.646,33.646,0,0,1,3.289,10.623c.24,2.82-.481,4.712-2.006,4.97s-3.49-1.179-5.261-3.74a36.113,36.113,0,0,1-4.571-10.405,58.954,58.954,0,0,1-2.067-10.829C929.245,1300,929.417,1298.2,930.253,1298.062Z" transform="translate(-929.379 -1298.053)"/></g><g transform="translate(0 47.881)"><path class="e" d="M703.5,1298.062c-.836-.141-2.253,1.388-4.039,3.947a71.137,71.137,0,0,0-5.793,10.2,33.639,33.639,0,0,0-3.289,10.623c-.24,2.82.481,4.712,2.006,4.97s3.489-1.179,5.261-3.74a36.108,36.108,0,0,0,4.571-10.405,58.928,58.928,0,0,0,2.067-10.829C704.51,1300,704.337,1298.2,703.5,1298.062Z" transform="translate(-690.334 -1298.053)"/></g><path class="e" d="M758.687,1274.349a3.051,3.051,0,0,1,3.234.1,4.223,4.223,0,0,1,1.51,2.85,5.98,5.98,0,0,1-1.5,4.851,4.78,4.78,0,0,1-1.96,1.229c-1.43.461-4.08.215-4.79-1.607-.576-1.479.55-3.711,1.205-4.924A6.006,6.006,0,0,1,758.687,1274.349Z" transform="translate(-745.257 -1229.697)"/><path class="e" d="M907.838,1274.349a3.051,3.051,0,0,0-3.233.1,4.223,4.223,0,0,0-1.511,2.85,5.982,5.982,0,0,0,1.5,4.851,4.778,4.778,0,0,0,1.96,1.229c1.43.461,4.08.215,4.79-1.607.576-1.479-.55-3.711-1.205-4.924A6.006,6.006,0,0,0,907.838,1274.349Z" transform="translate(-870.917 -1229.697)"/><path class="r" d="M919.195,2061.481c.587.8.7,1.276,1.693,1.219a3.047,3.047,0,0,0,2.429-1.507,9.473,9.473,0,0,1,6.78,7.949,57.142,57.142,0,0,1-11.4-.42A17.456,17.456,0,0,1,919.195,2061.481Z" transform="translate(-884.077 -1898.063)"/><path class="r" d="M725.69,2061.481c-.587.8-.7,1.276-1.693,1.219a3.046,3.046,0,0,1-2.428-1.507,9.473,9.473,0,0,0-6.78,7.949,57.144,57.144,0,0,0,11.4-.42A17.46,17.46,0,0,0,725.69,2061.481Z" transform="translate(-711.095 -1898.063)"/></g><g transform="translate(311.508 23.943)"><path class="n" d="M2675.921,1204.4a15.376,15.376,0,0,1-3.428,7.375,25.041,25.041,0,0,1-5.727,4.866l-.109.071a20.18,20.18,0,0,1-22.532,0l-.109-.071a25.064,25.064,0,0,1-5.727-4.866,15.381,15.381,0,0,1-3.427-7.375,25.5,25.5,0,0,1,.547-8.593c.892-4.716,2-9.369,3.319-13.929.908-3.143,1.972-6.348,3.924-8.644a11.686,11.686,0,0,1,6.795-3.808,60.447,60.447,0,0,1,11.891,0,11.686,11.686,0,0,1,6.795,3.808c1.952,2.3,3.015,5.5,3.924,8.644,1.319,4.56,2.427,9.213,3.319,13.929A25.508,25.508,0,0,1,2675.921,1204.4Z" transform="translate(-2631.005 -1131.025)"/><path class="k" d="M2840.406,2011.1l-1.038-7.351,5.5-1.374-.1,8.421-.734,2.916h-3.385Z" transform="translate(-2804.777 -1838.477)"/><path class="k" d="M2677.433,2011.1l1.037-7.351-5.5-1.374.1,8.421.733,2.916h3.387Z" transform="translate(-2663.511 -1838.477)"/><g transform="translate(27.147 94.034)"><path class="q" d="M2804.279,1598.987c-.186,4.729-.434,9.03-.71,12.726a44.407,44.407,0,0,1-6.373,1.832c-.033-.149-.066-.3-.1-.454-.84-3.841-1.756-8.422-2.668-13.514s-1.812-10.7-2.577-16.59c-.267-2.05-.508-4.068-.717-6.042-.363-3.394-.64-6.667-.819-9.764-.015-.283-.031-.565-.045-.844a106.666,106.666,0,0,1,.055-13.677,35.276,35.276,0,0,1,1.751-9.327c.844-2.226,1.936-3.5,3.17-3.571s2.49,1.054,3.631,3.162a35.487,35.487,0,0,1,3.02,9.038,107.2,107.2,0,0,1,1.937,13.557c.222,2.581.391,5.3.509,8.115.118,2.772.187,5.644.212,8.588,0,.346.006.691.008,1.035C2804.593,1588.82,2804.471,1594.128,2804.279,1598.987Z" transform="translate(-2790.081 -1539.759)"/></g><g transform="translate(8.078 94.034)"><path class="q" d="M2678.154,1565.522c-.014.271-.028.542-.042.815-.175,3.347-.467,6.9-.864,10.608-.208,1.975-.452,3.993-.719,6.042-.766,5.893-1.667,11.5-2.578,16.59s-1.825,9.672-2.668,13.514c-.031.149-.065.3-.1.444a44.242,44.242,0,0,1-6.373-1.841c-.277-3.691-.526-7.986-.713-12.707-.19-4.859-.312-10.167-.282-15.729,0-.343,0-.689.006-1.035.051-5.936.281-11.582.72-16.7.088-1.023.185-2.028.29-3.008a99.62,99.62,0,0,1,1.648-10.55,35.641,35.641,0,0,1,3.02-9.038c1.141-2.108,2.4-3.237,3.633-3.162s2.326,1.344,3.168,3.571a35.2,35.2,0,0,1,1.753,9.327A104.873,104.873,0,0,1,2678.154,1565.522Z" transform="translate(-2663.815 -1539.759)"/></g><path class="s" d="M2842.35,2058.438c.621.847.742,1.349,1.791,1.289a3.223,3.223,0,0,0,2.567-1.594,10.018,10.018,0,0,1,7.169,8.405,60.372,60.372,0,0,1-12.05-.444A18.454,18.454,0,0,1,2842.35,2058.438Z" transform="translate(-2806.722 -1885.815)"/><path class="s" d="M2637.753,2058.438c-.621.847-.742,1.349-1.79,1.289a3.224,3.224,0,0,1-2.568-1.594,10.018,10.018,0,0,0-7.169,8.405,60.371,60.371,0,0,0,12.05-.444A18.454,18.454,0,0,0,2637.753,2058.438Z" transform="translate(-2623.824 -1885.815)"/><path class="t" d="M2683.8,1552.66a104.651,104.651,0,0,1,.1,12.862,93.97,93.97,0,0,0-13.317-3.009,99.451,99.451,0,0,1,1.646-10.55,35.68,35.68,0,0,1,3.02-9.038c1.143-2.108,2.4-3.237,3.634-3.162s2.327,1.344,3.168,3.571A35.246,35.246,0,0,1,2683.8,1552.66Z" transform="translate(-2661.478 -1445.725)"/><path class="t" d="M2804.344,1573.635a94.451,94.451,0,0,0-14.029-6.455c-.015-.283-.031-.565-.045-.844a106.666,106.666,0,0,1,.055-13.677,35.276,35.276,0,0,1,1.751-9.327c.844-2.226,1.936-3.5,3.17-3.571s2.49,1.054,3.631,3.162a35.487,35.487,0,0,1,3.02,9.038,107.2,107.2,0,0,1,1.937,13.557C2804.057,1568.1,2804.226,1570.817,2804.344,1573.635Z" transform="translate(-2762.933 -1445.725)"/><g transform="translate(39.903 50.966)"><path class="k" d="M2884.928,1283.813q-.009.589-.017,1.168c-.016.769-.024,1.521-.058,2.258-.068,1.47-.141,2.864-.26,4.168-.059.652-.108,1.28-.177,1.885s-.141,1.182-.208,1.734c-.132,1.1-.3,2.1-.456,2.972-.078.436-.155.84-.235,1.214s-.167.712-.25,1.019c-.332,1.221-.643,1.888-.969,1.882s-.627-.679-.943-1.89c-.081-.3-.16-.638-.239-1.005s-.173-.763-.262-1.191c-.181-.854-.351-1.826-.563-2.894-.4-2.13-.868-4.658-1.392-7.464q-.2-1.048-.409-2.142c-.068-.365-.137-.732-.206-1.105s-.145-.744-.22-1.123c-.151-.754-.283-1.524-.439-2.3s-.307-1.568-.452-2.365c-.319-1.594-.6-3.151-.88-4.653-.1-.546-.193-1.084-.287-1.614-.038-.2-.073-.4-.108-.6-.13-.723-.238-1.433-.353-2.124-.235-1.384-.41-2.707-.578-3.948-.08-.62-.139-1.225-.2-1.806s-.111-1.14-.145-1.679c-.061-1.079-.1-2.061-.073-2.942.013-.442.044-.856.083-1.243a10.144,10.144,0,0,1,.151-1.071c.26-1.309.755-2.142,1.458-2.336s1.543.273,2.43,1.311a10.786,10.786,0,0,1,.671.884c.224.33.442.7.663,1.093a22.636,22.636,0,0,1,1.3,2.76q.23.574.451,1.192c.055.149.108.3.163.455.2.577.383,1.183.567,1.812.377,1.256.7,2.619,1,4.059.149.721.277,1.463.408,2.222.062.381.124.764.187,1.153s.106.781.159,1.18c.218,1.586.364,3.239.489,4.931.052.848.093,1.686.127,2.513s.044,1.641.057,2.442C2884.921,1283.025,2884.925,1283.421,2884.928,1283.813Z" transform="translate(-2874.544 -1254.574)"/></g><path class="f" d="M2881.76,1261.857a17.483,17.483,0,0,0-5.752,10.508c-.038-.2-.073-.4-.108-.6-.13-.723-.238-1.433-.353-2.124-.235-1.384-.41-2.707-.578-3.948-.08-.62-.139-1.225-.2-1.806s-.111-1.14-.145-1.679c-.061-1.079-.1-2.061-.073-2.942.013-.442.044-.856.083-1.243a10.144,10.144,0,0,1,.151-1.071c.26-1.309.755-2.142,1.458-2.336s1.543.273,2.43,1.311a10.786,10.786,0,0,1,.671.884c.224.33.442.7.663,1.093a22.636,22.636,0,0,1,1.3,2.76Q2881.538,1261.239,2881.76,1261.857Z" transform="translate(-2834.641 -1203.608)"/><ellipse class="n" cx="12.135" cy="15.007" rx="12.135" ry="15.007" transform="translate(12.626 4.448)"/><path class="c" d="M2664.061,1186.533c1.142,14.6,3.559,42.988,4.349,52.737-5.059,2.1-13.322,3.248-19.095,3.248-5.831,0-14.148-1.176-19.252-3.313.787-9.725,3.2-38.072,4.34-52.668a22.3,22.3,0,0,1-7.553-4.284,38.252,38.252,0,0,1,8.672-14.717c.065-.069,2.479-1.078,3.578-1.51l.766-.3c.918-.363,1.9-.754,2.875-1.142,2.535-1.007,5.06-2,6.491-2.509,1.5.53,4.185,1.592,6.833,2.644l2.537,1.007q.458.183.9.354c1.036.41,3.376,1.4,3.45,1.474a38.3,38.3,0,0,1,8.659,14.7A22.3,22.3,0,0,1,2664.061,1186.533Z" transform="translate(-2624.354 -1125.077)"/><path class="e" d="M2753.358,1113.522a6.533,6.533,0,0,1-4.826,2.411,6.4,6.4,0,0,1-4.567-2.321q.09-2.666.179-5.336c.007-.211.013-.424.022-.635.006-.151.01-.3.016-.455q.088-2.621.177-5.242c2.758.171,6.025-.275,8.782-.1-.132,2.849-.109,5.694.026,8.535.022.436.045.871.071,1.307.02.336.04.67.064,1C2753.318,1112.967,2753.338,1113.245,2753.358,1113.522Z" transform="translate(-2723.783 -1073.908)"/><path class="f" d="M2754.389,1110.378a16.146,16.146,0,0,1-4.3-.425,9.124,9.124,0,0,1-4.684-2.767q.088-2.621.177-5.242c2.757.171,6.024-.275,8.782-.1C2754.23,1104.692,2754.254,1107.538,2754.389,1110.378Z" transform="translate(-2725.004 -1073.908)"/><path class="e" d="M2736.14,1003.949c-.319,7.341-4.1,14.366-8.707,14.366-4.546,0-8.284-7.012-8.693-14.243a16.779,16.779,0,0,0,8.013-8.981A18.05,18.05,0,0,0,2736.14,1003.949Z" transform="translate(-2702.367 -983.312)"/><path class="p" d="M2760.6,1098.985a4.983,4.983,0,0,0,3.094-.062.464.464,0,0,1,.6.53,2.367,2.367,0,0,1-.893,1.368,2.26,2.26,0,0,1-2.327.168,2.483,2.483,0,0,1-1.062-1.429A.464.464,0,0,1,2760.6,1098.985Z" transform="translate(-2737.394 -1071.442)"/><ellipse class="n" cx="4.908" cy="4.908" rx="4.908" ry="4.908" transform="translate(30.587 9.553) rotate(-76.717)"/><ellipse class="n" cx="4.908" cy="4.908" rx="4.908" ry="4.908" transform="translate(7.402 9.962) rotate(-80.783)"/><g transform="translate(31.063 6.311)"><path class="c" d="M2820.27,963.6c-.25.173-.666.047-1.149-.264a10.113,10.113,0,0,1-2.846-3.113c-.267-.509-.354-.935-.16-1.168s.639-.218,1.2.024a6.181,6.181,0,0,1,3.038,3.323C2820.544,962.979,2820.516,963.425,2820.27,963.6Z" transform="translate(-2816.01 -958.886)"/></g><g transform="translate(14.246 6.311)"><path class="c" d="M2704.861,963.6c.249.173.666.047,1.149-.264a10.12,10.12,0,0,0,2.845-3.113c.267-.509.355-.935.16-1.168s-.639-.218-1.2.024a6.176,6.176,0,0,0-3.037,3.323C2704.587,962.979,2704.615,963.425,2704.861,963.6Z" transform="translate(-2704.653 -958.886)"/></g><path class="e" d="M2745.412,1164.717a6.826,6.826,0,0,1-13.324-.135c2.535-1.007,5.059-2,6.49-2.509C2740.076,1162.6,2742.763,1163.665,2745.412,1164.717Z" transform="translate(-2713.699 -1125.077)"/><g transform="translate(34.14 39.094)"><path class="n" d="M2838.871,1175.966a1.828,1.828,0,0,1,1.434.877,6.173,6.173,0,0,1,.621,1.051,11.885,11.885,0,0,1,.54,1.392,24.863,24.863,0,0,1,.82,3.625c.115.683.2,1.4.292,2.148s.16,1.521.219,2.318.115,1.577.16,2.334.078,1.49.1,2.193c.051,1.4.062,2.683.041,3.772-.016.546-.032,1.042-.069,1.485a11.3,11.3,0,0,1-.147,1.153c-.127.647-.326,1.042-.617,1.119s-.653-.173-1.077-.691a8.149,8.149,0,0,1-.671-.974c-.234-.388-.485-.836-.73-1.34a31.409,31.409,0,0,1-1.5-3.621c-.235-.7-.474-1.429-.683-2.2s-.407-1.571-.583-2.4-.309-1.64-.407-2.428-.165-1.554-.2-2.284a18.451,18.451,0,0,1,.2-3.9,9.728,9.728,0,0,1,.374-1.5,5.251,5.251,0,0,1,.521-1.137A1.773,1.773,0,0,1,2838.871,1175.966Z" transform="translate(-2836.387 -1175.965)"/></g><g transform="translate(8.605 39.094)"><path class="n" d="M2671.537,1175.966a1.828,1.828,0,0,0-1.434.877,6.141,6.141,0,0,0-.621,1.051,11.84,11.84,0,0,0-.54,1.392,24.86,24.86,0,0,0-.821,3.625c-.114.683-.2,1.4-.29,2.148s-.161,1.521-.22,2.318-.115,1.577-.159,2.334-.078,1.49-.1,2.193c-.051,1.4-.061,2.683-.041,3.772.016.546.033,1.042.069,1.485a11.493,11.493,0,0,0,.148,1.153c.128.647.325,1.042.617,1.119s.652-.173,1.076-.691a8.089,8.089,0,0,0,.672-.974c.233-.388.484-.836.73-1.34a31.409,31.409,0,0,0,1.5-3.621c.235-.7.475-1.429.684-2.2s.407-1.571.583-2.4.308-1.64.406-2.428.165-1.554.2-2.284a18.387,18.387,0,0,0-.2-3.9,9.7,9.7,0,0,0-.373-1.5,5.346,5.346,0,0,0-.521-1.137A1.775,1.775,0,0,0,2671.537,1175.966Z" transform="translate(-2667.305 -1175.965)"/></g><path class="h" d="M2666.412,1286.729l-6.069,24.45a.654.654,0,0,1-.793.477l-16.49-4.091a.653.653,0,0,1-.477-.793l5.914-23.836.153-.616a.678.678,0,0,1,.08-.189.656.656,0,0,1,.713-.288l16.49,4.093A.656.656,0,0,1,2666.412,1286.729Z" transform="translate(-2637.694 -1226.743)"/><path class="k" d="M2636.931,1308.65a5.562,5.562,0,0,1-1.14.875,17.313,17.313,0,0,1-1.932,1q-.574.265-1.241.524c-.444.176-.915.355-1.415.524q-.378.127-.77.261l-.811.25c-.552.17-1.131.328-1.733.485s-1.229.3-1.876.446c-.648.133-1.318.277-2.007.391-1.38.249-2.838.434-4.358.581-.11.01-.22.019-.33.027-1.418.124-2.886.19-4.388.2-.4,0-.8,0-1.191,0a3.424,3.424,0,0,1-3.414-3.561l.018-.434v0c.051-1.567.174-3.092.366-4.554a38.548,38.548,0,0,1,.778-4.174,32.436,32.436,0,0,1,1.125-3.661q.2-.521.408-1.011a22.206,22.206,0,0,0,6.99,3.989c-.2.85-.434,1.736-.671,2.662-.305,1.166-.624,2.392-.958,3.663l.139.189c.3.01.6.018.89.023.151,0,.3.006.451.01,1.244.026,2.45.049,3.606.045.65.006,1.282-.008,1.9,0,.615-.016,1.217-.008,1.8-.026l1.687-.033c.27,0,.538-.008.8-.014l.766-.02,1.428-.03c.455-.006.885-.012,1.288-.016.809,0,1.511.006,2.1.049a6.272,6.272,0,0,1,1.394.212c.336.108.54.255.593.447S2637.172,1308.386,2636.931,1308.65Z" transform="translate(-2610.323 -1239.474)"/><path class="k" d="M2768.605,1343.356a3.062,3.062,0,0,0,2.524-.134,3.98,3.98,0,0,0,1.756-1.865,4.787,4.787,0,0,0-.853-5.223,16.482,16.482,0,0,1-4.072,5.273A2.152,2.152,0,0,1,2768.605,1343.356Z" transform="translate(-2744.154 -1272.851)"/><path class="u" d="M2699.121,1288.032l-.246.736-17.013-4.1.153-.616a.669.669,0,0,1,.08-.189Z" transform="translate(-2671.058 -1228.471)"/><path class="k" d="M2904.706,1528.842a8.734,8.734,0,0,0-2.269,4.479.627.627,0,0,0,.618.733,1.075,1.075,0,0,1,.681.259,1.963,1.963,0,0,1,.53,1.5c0,.545-.107,1.09-.062,1.633a1.638,1.638,0,0,0,.769,1.363,1.438,1.438,0,0,0,1.434-.174,3.2,3.2,0,0,0,.936-1.175,8.579,8.579,0,0,0-.019-7.855C2906.5,1529.424,2905.532,1529.019,2904.706,1528.842Z" transform="translate(-2858.314 -1436.457)"/><path class="e" d="M2826.991,1053.168a.81.81,0,0,1,1-.57,1.281,1.281,0,0,1,.837.915,3.258,3.258,0,0,1,.031,1.288,4.9,4.9,0,0,1-.74,2.279,2.1,2.1,0,0,1-2.085.928A35.814,35.814,0,0,0,2826.991,1053.168Z" transform="translate(-2793.457 -1032.113)"/><path class="e" d="M2709.767,1053.168a.811.811,0,0,0-1-.57,1.281,1.281,0,0,0-.836.915,3.245,3.245,0,0,0-.031,1.288,4.9,4.9,0,0,0,.739,2.279,2.1,2.1,0,0,0,2.086.928A35.775,35.775,0,0,1,2709.767,1053.168Z" transform="translate(-2693.121 -1032.113)"/></g><g transform="translate(111.281 0)"><g transform="translate(36.05 1.749)"><path class="e" d="M1556.115,778.193c0,.845-.019,1.752-.042,2.715-.044.957-.1,1.973-.164,3.036q-.069.8-.139,1.63c-.049.555-.095,1.126-.165,1.7-.133,1.155-.262,2.361-.449,3.6-.089.62-.179,1.252-.278,1.891s-.217,1.286-.327,1.942q-.086.494-.173.993c-.063.331-.127.666-.192,1q-.2,1.007-.4,2.045c-.582,2.749-1.256,5.625-2.063,8.576s-1.728,5.981-2.784,9.047q-.488,1.41-.991,2.789c-.759,2.081-1.545,4.107-2.365,6.063v0c-.289.709-.6,1.4-.9,2.089s-.6,1.37-.912,2.037-.618,1.328-.922,1.98-.632,1.286-.944,1.918c-.156.316-.313.628-.47.938s-.319.614-.479.919c-.32.607-.635,1.206-.953,1.792s-.648,1.157-.966,1.722c-.162.281-.322.561-.479.837l-.487.816q-.488.8-.961,1.581c-.323.514-.647,1.012-.964,1.5-.569.884-1.153,1.72-1.718,2.517-.061.086-.12.171-.181.255-.308.438-.622.858-.932,1.263s-.614.8-.913,1.179c-.6.761-1.2,1.453-1.762,2.1a30.251,30.251,0,0,1-3.154,3.11,10.1,10.1,0,0,1-2.433,1.609c-.662.281-1.159.308-1.474.072s-.432-.729-.369-1.434a13.068,13.068,0,0,1,.689-2.747c.392-1.113.908-2.439,1.558-3.934.312-.757.673-1.545,1.046-2.387.185-.422.377-.852.578-1.294.158-.342.319-.692.481-1.052.044-.1.089-.2.135-.306.846-1.847,1.775-3.871,2.77-6.044.125-.27.251-.544.379-.818l.378-.839.782-1.708q.391-.87.791-1.766c.137-.3.272-.6.409-.9l.405-.915c.243-.544.489-1.09.736-1.644l.1-.217q.414-.947.837-1.912c.289-.641.567-1.3.851-1.956.2-.477.417-.953.624-1.436.08-.184.16-.371.238-.557,1.155-2.69,2.309-5.49,3.475-8.37s2.245-5.713,3.274-8.46,1.959-5.416,2.836-7.969q.317-.959.628-1.895.157-.468.31-.929l.293-.921q.295-.913.577-1.8t.536-1.75c.363-1.147.673-2.262.993-3.333.164-.535.3-1.061.447-1.577s.287-1.02.426-1.512q.4-1.484.759-2.825.333-1.341.652-2.532c.194-.792.379-1.531.56-2.213s.323-1.307.481-1.87a24.776,24.776,0,0,1,.814-2.6c.249-.6.489-.911.719-.9s.436.337.628.963a14.64,14.64,0,0,1,.487,2.745c.057.6.129,1.261.156,1.986S1556.1,777.343,1556.115,778.193Z" transform="translate(-1523.196 -770.133)"/></g><path class="f" d="M1547.947,1094.751c-.759,2.081-1.545,4.107-2.365,6.063v0c-.289.71-.6,1.4-.9,2.089s-.6,1.37-.912,2.038-.618,1.328-.922,1.98-.632,1.286-.944,1.918q-.234.473-.47.938t-.479.919c-.32.607-.635,1.206-.953,1.792s-.648,1.156-.966,1.722c-.162.281-.322.561-.479.837l-.487.816q-.488.8-.961,1.581c-.323.514-.647,1.012-.964,1.5-.569.885-1.153,1.72-1.718,2.517-.061.086-.12.171-.181.255-.308.437-.622.857-.932,1.263s-.614.8-.913,1.179c-.6.761-1.2,1.453-1.762,2.1a30.3,30.3,0,0,1-3.154,3.111,10.088,10.088,0,0,1-2.433,1.609c-.662.282-1.159.308-1.474.073s-.432-.729-.369-1.435a13.074,13.074,0,0,1,.689-2.747c.392-1.113.908-2.439,1.558-3.934.312-.757.673-1.544,1.046-2.387.185-.422.377-.852.578-1.294.158-.343.319-.692.481-1.052.044-.1.089-.2.135-.306.846-1.847,1.775-3.871,2.77-6.043.125-.27.251-.544.379-.818l.378-.839.782-1.708q.391-.87.791-1.765c.137-.3.272-.6.409-.9s.27-.609.405-.915c.243-.544.489-1.09.736-1.644l.1-.217q.414-.948.837-1.912c.289-.641.567-1.3.851-1.956.2-.477.417-.953.624-1.436a17.42,17.42,0,0,0,9.169-1.794A16.974,16.974,0,0,0,1547.947,1094.751Z" transform="translate(-1487.146 -1043.979)"/><g transform="translate(2.181 1.749)"><path class="e" d="M1331.465,855.457c-.316.236-.812.209-1.474-.072a7.923,7.923,0,0,1-1.415-.818c-.322-.226-.662-.489-1.018-.791a30.239,30.239,0,0,1-3.154-3.11c-.561-.645-1.162-1.337-1.762-2.1-.3-.38-.6-.772-.913-1.179s-.624-.826-.932-1.263c-.061-.083-.12-.169-.181-.255-.565-.8-1.149-1.633-1.718-2.517-.317-.491-.641-.989-.964-1.5s-.635-1.044-.96-1.581c-.162-.27-.323-.542-.487-.816s-.318-.555-.479-.837l-.966-1.722c-.317-.586-.633-1.185-.953-1.792q-.24-.457-.479-.919c-.156-.31-.314-.622-.47-.938q-.468-.947-.943-1.918-.456-.979-.923-1.98c-.312-.668-.61-1.349-.911-2.037-.2-.466-.407-.93-.607-1.4-.1-.226-.2-.457-.289-.687v0c-1.181-2.821-2.3-5.787-3.355-8.852s-1.969-6.1-2.783-9.047-1.482-5.827-2.064-8.576q-.2-1.036-.4-2.045c-.065-.337-.13-.672-.192-1s-.116-.664-.173-.993c-.11-.656-.219-1.3-.328-1.942s-.188-1.271-.278-1.891c-.187-1.235-.316-2.441-.449-3.6-.071-.574-.116-1.145-.165-1.7s-.094-1.1-.139-1.63c-.069-1.063-.12-2.079-.164-3.036-.023-.963-.038-1.87-.042-2.715q.02-1.275.067-2.366c.026-.725.1-1.391.156-1.986a14.57,14.57,0,0,1,.487-2.745c.192-.626.4-.955.628-.963s.47.306.719.9a24.752,24.752,0,0,1,.814,2.6c.158.563.3,1.187.482,1.87s.365,1.421.559,2.213q.317,1.19.653,2.532.359,1.338.759,2.825c.139.493.28,1,.426,1.512s.283,1.042.447,1.577c.319,1.071.63,2.186.993,3.333q.262.862.536,1.75t.576,1.8c.1.3.194.61.293.921s.205.616.31.929q.311.936.628,1.895c.877,2.553,1.813,5.222,2.837,7.969s2.111,5.58,3.274,8.46q.6,1.481,1.194,2.932,1.145,2.782,2.281,5.439c.282.674.58,1.334.862,1.994s.561,1.315.85,1.956.561,1.28.837,1.912l.1.217c.247.554.493,1.1.736,1.644.135.306.27.61.405.915s.272.6.409.9q.4.9.792,1.766l.782,1.708.379.839c.128.274.253.548.378.818l2.77,6.044c.046.1.092.206.135.306.161.359.324.71.481,1.052.2.441.394.871.578,1.294.373.843.734,1.63,1.046,2.387.651,1.5,1.166,2.821,1.558,3.934q.231.69.394,1.274a8.574,8.574,0,0,1,.295,1.473C1331.9,854.729,1331.779,855.22,1331.465,855.457Z" transform="translate(-1298.931 -770.133)"/></g><path class="f" d="M1392.379,1111.269a16.561,16.561,0,0,1-2.964,2.017c-.322-.226-.662-.489-1.018-.792a30.28,30.28,0,0,1-3.154-3.111c-.561-.644-1.162-1.337-1.761-2.1-.3-.38-.6-.772-.913-1.18s-.624-.825-.932-1.263c-.061-.084-.12-.169-.181-.255-.565-.8-1.149-1.632-1.718-2.517-.318-.49-.641-.989-.964-1.5s-.636-1.044-.961-1.58l-.487-.817-.48-.837q-.476-.848-.966-1.721c-.318-.586-.633-1.185-.953-1.792q-.24-.457-.479-.919c-.156-.31-.314-.622-.47-.938q-.468-.948-.944-1.918-.456-.979-.923-1.98c-.312-.668-.611-1.349-.911-2.037-.2-.466-.407-.93-.607-1.4a10.967,10.967,0,0,0,5.249-5.635,10.754,10.754,0,0,0,.767-4.118q1.143,2.782,2.281,5.438c.281.674.58,1.334.862,1.994s.561,1.314.85,1.955.561,1.28.837,1.912l.1.217c.247.554.493,1.1.736,1.644l.405.915c.137.3.272.6.409.9q.4.9.791,1.765l.782,1.708.378.839c.128.274.253.548.379.818.995,2.172,1.923,4.2,2.77,6.044l.135.306c.161.36.323.71.481,1.052.2.441.394.871.578,1.294.373.843.735,1.63,1.047,2.388.65,1.5,1.166,2.821,1.558,3.934Q1392.216,1110.685,1392.379,1111.269Z" transform="translate(-1357.589 -1027.103)"/><g transform="translate(17.125 122.683)"><path class="e" d="M1411.446,1604.766q-.226,2.525-.521,5.142a218.835,218.835,0,0,1-4.684,27.093c-1.734,6.9-3.42,11.123-4.851,11.026s-2.405-4.5-2.985-11.559a216.839,216.839,0,0,1-.183-27.424c.116-2.22.261-4.395.436-6.508a133.353,133.353,0,0,1,3.1-20.666c1.718-6.9,3.919-11.087,5.995-10.946s3.565,4.583,4.132,11.637A136.15,136.15,0,0,1,1411.446,1604.766Z" transform="translate(-1397.883 -1570.921)"/></g><path class="s" d="M1370.386,2055.8c-.65.887-.777,1.413-1.874,1.35a3.372,3.372,0,0,1-2.688-1.667,10.488,10.488,0,0,0-7.505,8.8,63.22,63.22,0,0,0,12.616-.465A19.325,19.325,0,0,0,1370.386,2055.8Z" transform="translate(-1347.168 -1859.621)"/><g transform="translate(39.821 122.683)"><path class="e" d="M1561.927,1636.468c-.58,7.056-1.554,11.46-2.985,11.559s-3.118-4.128-4.851-11.026a218.692,218.692,0,0,1-4.684-27.093q-.151-1.341-.285-2.663a142.789,142.789,0,0,1-.677-24.683c.565-7.054,2.054-11.5,4.13-11.637s4.278,4.048,6,10.946c1.733,6.9,2.983,16.5,3.538,27.173q.089,1.7.152,3.358A210.052,210.052,0,0,1,1561.927,1636.468Z" transform="translate(-1548.169 -1570.921)"/></g><path class="s" d="M1598.309,2055.8c.649.887.777,1.413,1.875,1.35a3.372,3.372,0,0,0,2.688-1.667,10.487,10.487,0,0,1,7.505,8.8,63.219,63.219,0,0,1-12.615-.465A19.325,19.325,0,0,1,1598.309,2055.8Z" transform="translate(-1550.301 -1859.621)"/><path class="f" d="M1416.247,1582.561a136.081,136.081,0,0,1-.441,22.2c-4.237-.866-8.511-1.563-12.787-2.229a133.33,133.33,0,0,1,3.1-20.666c1.718-6.9,3.919-11.087,5.994-10.946S1415.68,1575.507,1416.247,1582.561Z" transform="translate(-1385.117 -1448.238)"/><path class="f" d="M1562.262,1612.4a76.4,76.4,0,0,0-13.14-5.157,142.789,142.789,0,0,1-.677-24.683c.565-7.054,2.054-11.5,4.13-11.637s4.278,4.048,6,10.946c1.733,6.9,2.983,16.5,3.538,27.173Q1562.2,1610.739,1562.262,1612.4Z" transform="translate(-1508.348 -1448.238)"/><path class="h" d="M1431.16,1513.991a73.9,73.9,0,0,1-12.967,2.2q-1.737.14-3.5.2l-2.69-27.839-2.688,27.824a74.121,74.121,0,0,1-16.288-2.446c.746-14.016,1.549-27.767,2.1-36.008.167-2.513.312-4.512.424-5.853.165-1.956.261-3.074.261-3.074H1428.2s.4,4.611.957,11.481c.049.614.1,1.274.154,1.976C1429.859,1489.782,1430.538,1501.645,1431.16,1513.991Z" transform="translate(-1376.637 -1361.698)"/><path class="s" d="M1524.869,1620.07q-1.738.14-3.5.2l-2.69-27.839,4.288-1.079Z" transform="translate(-1483.313 -1465.579)"/><path class="e" d="M1686.819,770.618a11.983,11.983,0,0,0-4.32-4.476,2.532,2.532,0,0,1-.772-.591.761.761,0,0,1-.057-.906c.249-.308.725-.258,1.109-.162a12.088,12.088,0,0,1,2.709,1.041q-.014-1.424-.028-2.848a7.469,7.469,0,0,1,.224-2.336,2.247,2.247,0,0,1,3.49-1.4,7.459,7.459,0,0,1,1.569,1.325,7.658,7.658,0,0,1,1.606,2.058,6.306,6.306,0,0,1-.293,4.908,24.422,24.422,0,0,0-1.785,4.72C1689.111,771.544,1687.978,771.027,1686.819,770.618Z" transform="translate(-1621.581 -758.552)"/><path class="e" d="M1290.4,770.618a11.976,11.976,0,0,1,4.32-4.476,2.538,2.538,0,0,0,.771-.591.762.762,0,0,0,.057-.906c-.249-.308-.726-.258-1.109-.162a12.082,12.082,0,0,0-2.709,1.041q.014-1.424.028-2.848a7.477,7.477,0,0,0-.224-2.336,2.247,2.247,0,0,0-3.49-1.4,7.466,7.466,0,0,0-1.569,1.325,7.665,7.665,0,0,0-1.606,2.058,6.307,6.307,0,0,0,.293,4.908,24.391,24.391,0,0,1,1.785,4.72C1288.108,771.544,1289.24,771.027,1290.4,770.618Z" transform="translate(-1284.486 -758.552)"/><path class="s" d="M1441.114,1482.444q-9.827.12-19.638-.723c-5.037-.434-10.294-1.147-14.539-3.807.167-2.513.312-4.512.424-5.853.165-1.956.261-3.074.261-3.074H1440s.4,4.611.957,11.481C1441.009,1481.082,1441.061,1481.742,1441.114,1482.444Z" transform="translate(-1388.444 -1361.698)"/><path class="v" d="M1426.764,1255.48c-1.577,3.021-5.037,4.275-8.19,5.277l-.109.035a35.643,35.643,0,0,1-21.625,0l-.109-.035c-3.153-1-6.613-2.256-8.19-5.277-1.424-2.732-.863-6.078-.264-9.125l3.551-18.056a69.5,69.5,0,0,0,15.825-.325,69.5,69.5,0,0,0,15.824.325l3.551,18.056C1427.627,1249.4,1428.188,1252.748,1426.764,1255.48Z" transform="translate(-1372.066 -1157.082)"/><path class="w" d="M1404.572,1146.881l2.069,35.684a48.614,48.614,0,0,1-34.978,0l2.072-35.712a36.643,36.643,0,0,0-7.625-19.518,26.16,26.16,0,0,1,10.605-4.984.093.093,0,0,0,0,.016c.052.259.872,4.021,6.233,7.931q.521.382,1.1.765h0c2.04-.679,3.913-1.291,5.095-1.644,1.181.353,3.057.967,5.1,1.644.381-.249.74-.5,1.082-.747,5.386-3.917,6.208-7.689,6.259-7.948a.078.078,0,0,0,0-.016,26.162,26.162,0,0,1,10.606,4.984A36.65,36.65,0,0,0,1404.572,1146.881Z" transform="translate(-1353.783 -1067.41)"/><path class="e" d="M1490,1170.043c-.185,5.33-2.886,9.561-6.192,9.561s-6.012-4.24-6.192-9.578q.522.382,1.105.765h0c2.04-.679,3.913-1.291,5.095-1.643,1.182.352,3.057.966,5.1,1.643C1489.3,1170.542,1489.658,1170.292,1490,1170.043Z" transform="translate(-1448.45 -1107.139)"/><path class="e" d="M1495.013,1123.262a7.684,7.684,0,0,1-5.244,2.161,7.585,7.585,0,0,1-4.973-2.1q.09-2.4.182-4.812c.008-.19.014-.381.022-.572q.1-2.568.2-5.135c3,.162,6.553-.233,9.552-.069a69.9,69.9,0,0,0,.13,8.873c.022.3.046.6.072.9C1494.968,1122.761,1494.99,1123.012,1495.013,1123.262Z" transform="translate(-1454.545 -1059.211)"/><path class="f" d="M1496.094,1122.511a9.916,9.916,0,0,1-4.216-.242,10.054,10.054,0,0,1-5.733-4.331q.1-2.568.195-5.135c3,.162,6.554-.233,9.552-.069a69.827,69.827,0,0,0,.13,8.873C1496.045,1121.909,1496.069,1122.209,1496.094,1122.511Z" transform="translate(-1455.692 -1059.211)"/><path class="e" d="M1567.748,1063.9a.91.91,0,0,1,1.128-.629,1.436,1.436,0,0,1,.929,1.034,3.66,3.66,0,0,1,.023,1.444,5.5,5.5,0,0,1-.851,2.548,2.357,2.357,0,0,1-2.347,1.021A40,40,0,0,0,1567.748,1063.9Z" transform="translate(-1524.02 -1017.223)"/><path class="e" d="M1454.576,1063.9a.91.91,0,0,0-1.128-.629,1.437,1.437,0,0,0-.929,1.034,3.656,3.656,0,0,0-.023,1.444,5.5,5.5,0,0,0,.851,2.548,2.358,2.358,0,0,0,2.347,1.021A39.982,39.982,0,0,1,1454.576,1063.9Z" transform="translate(-1427.072 -1017.223)"/><path class="e" d="M1481.959,997.953c0,7.229-3.7,15.084-8.257,15.084s-8.257-7.855-8.257-15.084,3.7-11.095,8.257-11.095S1481.959,990.724,1481.959,997.953Z" transform="translate(-1438.117 -952.379)"/><path class="p" d="M1505.986,1116.455a4.6,4.6,0,0,0,2.857-.058.428.428,0,0,1,.558.49,2.187,2.187,0,0,1-.825,1.263,2.086,2.086,0,0,1-2.149.155,2.29,2.29,0,0,1-.981-1.319A.428.428,0,0,1,1505.986,1116.455Z" transform="translate(-1472.061 -1062.335)"/><path class="x" d="M1556.754,1000.765a16.133,16.133,0,0,0-2.667-8.415l-.332-4.155a3.2,3.2,0,0,1,3.391.884,5.873,5.873,0,0,1,1.157,3.16C1558.645,994.963,1557.614,998.129,1556.754,1000.765Z" transform="translate(-1513.09 -953.359)"/><path class="n" d="M1454.077,968.408c-.006-3.271.48-6.537,2.424-9.26.959,1.429,3.079,1.907,4.883,2.022s4.579-.137,6.368.1,3.652,1.13,4.247,2.721a18.847,18.847,0,0,0-.392-6.8c-.641-2.179-2.872-4.244-4.815-5.594a7.981,7.981,0,0,0-6.872-1.142,5.39,5.39,0,0,0-3.854,5.186,3.2,3.2,0,0,0-3.31,1.151,5.867,5.867,0,0,0-.9,3.242C1451.728,962.774,1453.01,965.85,1454.077,968.408Z" transform="translate(-1426.57 -921.181)"/><g transform="translate(40.646 61.807)"><path class="h" d="M1565.091,1189.513c-.286.06-.636-.215-1.031-.747q-.148-.2-.3-.446c-.107-.163-.222-.34-.338-.531-.234-.382-.465-.821-.738-1.3l-.843-1.56c-.288-.561-.62-1.147-.945-1.769-.163-.31-.345-.622-.516-.944l-.261-.488-.278-.491-1.139-2.042q-.305-.516-.59-1.025c-.185-.342-.391-.665-.575-.994l-.274-.488-.279-.472-.527-.925c-.353-.6-.664-1.183-.971-1.724-.151-.273-.286-.545-.424-.8s-.267-.507-.385-.751c-.23-.493-.447-.937-.607-1.358-.081-.209-.149-.413-.209-.6a5.357,5.357,0,0,1-.149-.537,1.546,1.546,0,0,1,.21-1.479c.3-.281.817-.292,1.5-.049a5.387,5.387,0,0,1,.542.23c.188.094.38.208.584.335a10.258,10.258,0,0,1,1.291.954q.336.287.689.618c.234.221.459.464.7.716a20.726,20.726,0,0,1,1.409,1.689c.235.308.455.638.685.972l.342.511.325.535c.212.364.44.728.638,1.115s.4.778.6,1.178.366.809.54,1.208.319.8.47,1.195l.216.587.188.584c.12.387.243.762.341,1.137.194.749.371,1.46.484,2.139.06.339.121.663.161.98s.073.622.1.913a13.548,13.548,0,0,1,.067,1.583c0,.235-.008.453-.025.656s-.044.39-.073.559C1565.573,1189.06,1565.377,1189.453,1565.091,1189.513Z" transform="translate(-1553.63 -1167.817)"/></g><g transform="translate(17.741 61.807)"><path class="h" d="M1402.657,1189.513c.286.06.636-.215,1.031-.747.1-.133.2-.282.3-.446s.222-.34.338-.531c.233-.382.464-.821.738-1.3l.842-1.56c.289-.561.621-1.147.945-1.769.163-.31.345-.622.517-.944l.261-.488.278-.491,1.139-2.042q.305-.516.59-1.025c.185-.342.391-.665.575-.994l.275-.488.279-.472.527-.925c.353-.6.664-1.183.971-1.724.151-.273.286-.545.424-.8s.267-.507.385-.751c.23-.493.447-.937.607-1.358.082-.209.149-.413.209-.6a5.428,5.428,0,0,0,.149-.537,1.548,1.548,0,0,0-.21-1.479c-.3-.281-.817-.292-1.5-.049a5.367,5.367,0,0,0-.542.23c-.188.094-.38.208-.583.335a10.215,10.215,0,0,0-1.291.954q-.336.287-.688.618c-.234.221-.46.464-.7.716a20.726,20.726,0,0,0-1.409,1.689c-.235.308-.455.638-.685.972l-.342.511-.325.535c-.213.364-.44.728-.639,1.115s-.4.778-.6,1.178-.367.809-.54,1.208-.319.8-.47,1.195l-.216.587c-.063.2-.125.392-.188.584-.119.387-.243.762-.34,1.137-.194.749-.371,1.46-.484,2.139-.06.339-.121.663-.162.98s-.073.622-.1.913a13.648,13.648,0,0,0-.066,1.583c0,.235.008.453.025.656s.044.39.073.559C1402.175,1189.06,1402.371,1189.453,1402.657,1189.513Z" transform="translate(-1401.958 -1167.817)"/></g></g></g></g></svg>