<svg xmlns="http://www.w3.org/2000/svg" width="391.411" height="293.515" viewBox="0 0 391.411 293.515"><g transform="translate(-96.671 -1012.141)"><g transform="translate(488.081 1331.283) rotate(180)"><g transform="translate(0 25.627)"><path d="M-1891.839-2555.469c33.327-42.975,131.835-122.275,236.792-107.045,63.4,9.2,82.043,64.35,81.54,124-.606,71.69-55.08,166.762-119.857,118.678-84.767-62.924-143.9-15.209-180.945-22.813C-1922.717-2452.592-1932.381-2503.191-1891.839-2555.469Z" transform="translate(1917.204 2664.43)" fill="#eaaf0a"/></g><g transform="translate(351.379 109.221)"><path d="M-545.417-2327.2a11.125,11.125,0,0,1,5.978,4.833,31.263,31.263,0,0,1,3.23,8.452c1.419,5.326,3.843,11.494,8.134,15.19,4.942,4.258,11.169,3.99,14.878.6,4.623-4.231,3.489-11.815-.209-18.478a54.731,54.731,0,0,0-16.2-17.714c-6.317-4.382-15.643-7.723-19.792-1.39C-551.57-2332.4-548.958-2328.693-545.417-2327.2Z" transform="translate(550.193 2339.215)" fill="#eaaf0a"/></g><g transform="translate(42.153 28.757)"><path d="M-1543.593-2613.688c40.428,21.972,54.5,22.75,74.785,39.464,64.855,53.43,17.151,146.932-26.861,138.222-27.059-5.355-26.984-24.3-72.146-19.812-58.492,5.811-78.595,49.079-127.62,39.21-6.757-1.36-19.184-4.007-30.7-13.433-39.027-31.955-34.515-114.936,4.833-169.117,29.9-41.174,76.475-60.586,118.315-50.452C-1579.3-2643.871-1575.561-2631.061-1543.593-2613.688Z" transform="translate(1753.211 2652.254)" fill="#ffc208"/></g><g transform="translate(346.203 89.829)"><path d="M-566.455-2396.107a28.865,28.865,0,0,0,4.233-1.95,21.4,21.4,0,0,1,5.248-1.49c3.259-.551,6.654-.562,9.8-1.717a11.729,11.729,0,0,0,5.561-4.442,5.571,5.571,0,0,0-.88-7.288c-2.433-2.158-6.394-1.844-9.353-1.133a31.113,31.113,0,0,0-16.986,11.48C-570.944-2399.868-571.36-2394.771-566.455-2396.107Z" transform="translate(570.328 2414.658)" fill="#ffce00"/></g><g transform="translate(348.856 221.966)"><g transform="translate(0 0)"><path d="M-1280.607-1780.616c1.469-2.367,4.566-3.132,6.9-3.686a21.409,21.409,0,0,1,14.311,1.974c13.051,6.409,23.424,28.489,11.936,41.458-3.816,4.308-9.69,6.176-14.894,3.322-7.031-3.856-7.106-12.159-7.8-19.848a22.542,22.542,0,0,0-5.389-13.254C-1277.6-1773.109-1283.156-1776.507-1280.607-1780.616Z" transform="translate(1281.263 1784.792)" fill="#ffc208"/></g></g><g transform="translate(339.171 243.895)"><path d="M-1311.923-1672.817a6.168,6.168,0,0,1-2.483-.749,8.889,8.889,0,0,1-4.255-5.41c-1.627-6.367,4.173-9.891,7.639-12l.074-.045c2.658-1.615,2.412-2.432,2.294-2.825a4.771,4.771,0,0,1,.02-3.44,3.247,3.247,0,0,1,3.252-2.189c2.255.177,3.414,2.689,3.808,3.761,1.2,3.262.606,6.9.174,9.563a22.808,22.808,0,0,1-3.55,9.448c-1.831,2.63-4.437,4.082-6.971,3.883Z" transform="translate(1318.943 1699.478)" fill="#eaaf0a"/></g><g transform="translate(266.277 319.143) rotate(180)"><path d="M0,7.034c0,3.885,22.383,7.034,49.993,7.034s49.993-3.149,49.993-7.034S77.6,0,49.993,0,0,3.149,0,7.034Z" transform="translate(21.98 245.032)" opacity="0.16"/><path d="M8.951,75.3C8.428,76.757-.115,74.632,0,73.07,1.5,52.819,4.761,5.061,5.229,0L25.186,3.651S11.494,68.178,8.951,75.3Z" transform="translate(49.838 169.754)" fill="#ffc19f"/><g transform="translate(25.792 226.957)"><path d="M13.4,16.567c-.086.384-13.3-1.344-13.326-1.82C-.118,10.77.131,1.76.051,0L16.125,1.923C15.317,5.975,13.955,14.11,13.4,16.567Z" transform="translate(22.2)" fill="#9dcecc"/><g transform="translate(0 8.262)"><path d="M17.16,3.373c.235-.86.722-1.949,1.1-2.946.28-.739,7.511-.621,7.531,1.156a10.717,10.717,0,0,1-.051,1.22c1.237.012,2.579,0,4-.054a68.422,68.422,0,0,0,7.78-.671c.126,2.809-.12,7.674-.006,10.8,0,0-32.26,6.04-37.344,1.361C-1.268,12.916,6.831,7.058,17.16,3.373Z" transform="translate(0 0)" fill="#2d8f91"/><path d="M37.479,0c0,.695.007,1.364.028,1.958,0,0-32.26,6.04-37.344,1.361-.2-.186-.211-.463-.055-.811C9.009,4.44,29.458,1.35,37.479,0Z" transform="translate(0.002 10.916)" fill="#19555b"/><path d="M9.974,2.764a.451.451,0,1,0,.72-.543A5.467,5.467,0,0,0,5.384.1a.452.452,0,0,0,.195.883A4.514,4.514,0,0,1,9.974,2.764Zm-2.281,1.1a.452.452,0,1,0,.656-.621A6.323,6.323,0,0,0,3,1.227a.451.451,0,0,0-.4.5.441.441,0,0,0,.5.4A5.362,5.362,0,0,1,7.693,3.867ZM.007,3a.444.444,0,0,0,.522.368A5.925,5.925,0,0,1,5.321,5.112a.452.452,0,1,0,.631-.646A6.919,6.919,0,0,0,.375,2.484.451.451,0,0,0,.007,3Z" transform="translate(9.322 3.3)" fill="#d3dae5"/></g></g><path d="M.2,73.454C.369,75,9.172,74.936,9.426,73.391,12.72,53.352,20.753,6.162,21.486,1.133L1.229,0S-.6,65.939.2,73.454Z" transform="translate(81.973 172.648)" fill="#ffc19f"/><path d="M8.524,0S3.2,27.418,0,40.736c5.093,2.68,20.03,6.942,27.705,4.475C28.077,43.647,30.53,28.3,34.6,29.1c1.449.285-.093,13.768.208,16.714,7.041,1.7,19.14.05,26-3.369-.144-6.5.634-34.463,0-42.444Z" transform="translate(45.321 153.199)" fill="#1b6168"/><path d="M55.974,10.9C53.71,4.936,51.5,0,51.5,0L3.454,1.164c-.052.1-.131.256-.191.374C2.967,4.32.744,10.09,0,16.985c19.054,6.8,46.085,7.291,55.923,2.131C55.952,16.3,55.972,13.514,55.974,10.9Z" transform="translate(50.408 153.526)" opacity="0.23"/><g transform="translate(80.16 228.577)"><path d="M.817,14.872c.036.392,13.365.379,13.449-.091.7-3.919,1.616-12.885,1.922-14.62L0,0C.28,4.122.584,12.365.817,14.872Z" transform="translate(0.149)" fill="#9dcecc"/><g transform="translate(0 7.448)"><path d="M20.394,3.382c-.233-.861-.717-1.951-1.091-2.948-.278-.74-7.509-.639-7.534,1.137a10.77,10.77,0,0,0,.048,1.22c-1.237.009-2.579-.009-4-.064A68.433,68.433,0,0,1,.042,2.036c-.133,2.809.1,7.674-.021,10.8,0,0,32.245,6.12,37.341,1.453C38.8,12.971,30.713,7.092,20.394,3.382Z" transform="translate(0 0)" fill="#2d8f91"/><path d="M.033,0C.031.694.023,1.363,0,1.958c0,0,32.245,6.12,37.341,1.453.2-.185.213-.463.057-.811C28.492,4.51,8.05,1.37.033,0Z" transform="translate(0.022 10.875)" fill="#19555b"/><path d="M5.21.984A.452.452,0,0,0,5.407.1,5.466,5.466,0,0,0,.092,2.21a.451.451,0,1,0,.719.545A4.513,4.513,0,0,1,5.21.984ZM7.688,2.132a.441.441,0,0,0,.5-.4.451.451,0,0,0-.4-.5A6.322,6.322,0,0,0,2.435,3.241a.451.451,0,0,0,.654.622A5.363,5.363,0,0,1,7.688,2.132ZM10.41,2.5A6.92,6.92,0,0,0,4.828,4.467a.452.452,0,0,0,.63.648,5.924,5.924,0,0,1,4.8-1.728.444.444,0,0,0,.523-.367A.451.451,0,0,0,10.41,2.5Z" transform="translate(17.441 3.312)" fill="#d3dae5"/></g></g><path d="M0,7.1C-.191,4.868,5.594-.777,8.026.09c4.069,7.526,8.029,12.359,14.568,13.421,6.6,1.071,12.523-.97,18.045-6.591,2.869,4.721,5.46,10.828,5.142,14.727-3.333,2.43-11.141,5.8-22.1,5.048C11.6,25.862,5.652,17.095,0,7.1Z" transform="translate(12.728 104.034)" fill="#ffc19f"/><path d="M28.775,43.155c2.519-1.888,4.82-4.581,3.8-8.14A105.913,105.913,0,0,1,2.514,0C.937,2.394-.944,13.417.539,16.762,6.068,29.229,18.111,38.265,28.775,43.155Z" transform="translate(100.721 113.327)" fill="#ffc19f"/><path d="M.676,57.927C33.7,70.516,60.8,59.173,63.916,55.69,58.349,27.473,57.565,9.792,47.411,2,28.1-.405,18.23-2.082,0,5.8,16.694,28.905,4.428,48.283.676,57.927Z" transform="translate(46.333 107.737)" fill="#ef5a18"/><path d="M24.95,3.193V1.044C15.545-.065,8.079-.529,0,.862L.023,3.411c.031,3.53,5.638,6.343,12.524,6.282S24.981,6.722,24.95,3.193Z" transform="translate(61.926 107.849)" fill="#9e330d"/><path d="M0,.164.108,12.471c.024,2.646,4.227,4.755,9.39,4.71s9.329-2.228,9.306-4.874L18.7,0Z" transform="translate(64.95 97.508)" fill="#e0956c"/><g transform="translate(22.796 0.342)"><path d="M24.046,17.092C22.464,26.442,14.375,32.746,7.9,32.237S-.389,24.243.067,15.3,6.149-.5,12.628.029C21.483.757,25.533,8.3,24.046,17.092Z" transform="translate(77.41 53.207)" fill="#f4b18c"/><path d="M.04,39.959c-1.271,33.919,27.993,54.18,56.3,52.08s47.178-27.1,41.878-59.646C95.28,14.322,74.539-1.985,47.5.2,18.729,2.519,1.025,13.666.04,39.959Z" transform="translate(0 0)" fill="#752912"/><path d="M.368,18.336c-2.141,5.867,5.483,56,11.785,62.553,6.685,6.947,33.071,11.192,38.309,10.8C56.074,91.276,74.2,83.1,78.345,74.613c4.9-10.044,3.714-53.365,1.529-58.533C72.491-1.377,56.869-.824,36.495.688,17.435,2.1,5.922,3.114.368,18.336Z" transform="translate(13.968 13.303)" fill="#ffc19f"/><path d="M0,3.9C.061,5.951,2.957,7.528,6.47,7.424s6.311-1.848,6.25-3.9S9.763-.1,6.252,0-.059,1.853,0,3.9Z" transform="translate(27.572 77.63)" fill="#ff9797"/><path d="M.018,3.968c.234,1.808,2.619,2.989,5.33,2.64s4.718-2.1,4.484-3.907S7.212-.288,4.5.061-.215,2.161.018,3.968Z" transform="translate(82.06 73.48)" fill="#ff9797"/><path d="M.5,4.291a.469.469,0,0,0,.432-.425A3.153,3.153,0,0,1,4.01.949,3.134,3.134,0,0,1,7.478,3.371a.469.469,0,0,0,.916-.2A4.09,4.09,0,0,0,3.94.014,4.1,4.1,0,0,0,0,3.781a.47.47,0,0,0,.424.51Z" transform="translate(57.982 69.932)" fill="#c67f75"/><path d="M1.5,7.228a1.322,1.322,0,0,0,.832-.454c2.816-3.288,8.787-4.9,13.9-3.741A1.328,1.328,0,0,0,16.824.442C10.723-.938,3.779,1,.318,5.049A1.328,1.328,0,0,0,1.5,7.228Z" transform="translate(25.644 41.038)" fill="#8c2f22"/><path d="M16.473,5.192a1.279,1.279,0,0,0,.745-2.27C13.231-.313,6.315-.938.776,1.429A1.28,1.28,0,1,0,1.783,3.782C6.425,1.791,12.368,2.274,15.606,4.907A1.272,1.272,0,0,0,16.473,5.192Z" transform="translate(74.887 37.713)" fill="#8c2f22"/><g transform="translate(71.57 51.134)"><path d="M.795,18.714s12.3,3.6,16.233-4.2C21.817,5.006,12.747-1.517,7.365.306,2.385,1.993-1.8,7.581.795,18.714Z" transform="translate(0 0.655)" fill="#f9feff"/><path d="M15.811,3.508A8.4,8.4,0,0,0,7.079.2,9.783,9.783,0,0,0,0,6.806,10.269,10.269,0,0,1,6.326,1.4a8.341,8.341,0,0,1,9.123,3.411,11.065,11.065,0,0,1,.291,10.6C17.954,12.967,18.4,6.769,15.811,3.508Z" transform="translate(1.158 0)" fill="#773220"/><path d="M.213,4.407c-.826,3.349.821,6.946,3.679,8.034s5.845-.744,6.671-4.093S9.742,1.4,6.884.314,1.039,1.058.213,4.407Z" transform="translate(2.335 5.162)" fill="#63190d"/><path d="M.059,1.223A1.9,1.9,0,0,0,1.08,3.452,1.419,1.419,0,0,0,2.931,2.316,1.9,1.9,0,0,0,1.91.087,1.419,1.419,0,0,0,.059,1.223Z" transform="translate(2.861 7.491)" fill="#fefffe"/></g><g transform="translate(28.059 54.624)"><path d="M22.422,17.1s-13.8,5.652-19.788-1.374C-4.665,7.165,4.826-.814,11.463.067,17.605.882,23.506,5.678,22.422,17.1Z" transform="translate(0.556 0.541)" fill="#f9feff"/><path d="M1.2,4.755A10.688,10.688,0,0,1,10.862,0c3.943.079,8.125,2.537,9.473,5.31-2.36-3.056-6.081-3.946-8.377-4.25C8.3.573,3.717,2.564,1.855,5.982.2,9.023.706,13.346,3.385,16.488.355,14.449-1.259,8.412,1.2,4.755Z" transform="translate(0 0)" fill="#773220"/><path d="M.285,4.5A6.384,6.384,0,1,0,8.267.285,6.384,6.384,0,0,0,.285,4.5Z" transform="translate(4.786 4.28)" fill="#63190d"/><path d="M.079,1.25A1.771,1.771,0,1,0,2.294.079,1.771,1.771,0,0,0,.079,1.25Z" transform="translate(5.426 6.482)" fill="#fefffe"/></g><path d="M1.1,18.554c3.3,9.511,13.231,14.856,20.255,13.34S25.227,1.589,12.225.1C1.4-1.143-2,9.615,1.1,18.554Z" transform="translate(1.77 61.103)" fill="#ffc19f"/><path d="M.2,8.75c.876,4.059,5.748,7.164,9.131,5.76C10.646,13.964,7.251-.166,5.092,0,1.441.284-.679,4.691.2,8.75Z" transform="translate(10.525 69.877)" fill="#e0956c"/><g transform="translate(47.445 78.25)"><path d="M30.264,2.438C31.962,8.4,23.33,17.123,14.9,17.1,6.517,17.073.348,10.188,0,4.053.32.668,5.846,1.332,14.066.734S29.231-1.186,30.264,2.438Z" transform="translate(0 0.2)" fill="#701608"/><path d="M8.505.048C4.644.3,1.763,1.437,0,3.373A15.24,15.24,0,0,0,8.574,5.72c3.628-.254,6.767-1.052,8.92-3.645C16.4.385,11.959-.18,8.505.048Z" transform="translate(6.898 11.666)" fill="#dd6b5b"/><path d="M22.269.249c-2.917-.676-7.292.207-11.384.505C6.268,1.09,2.829.738,0,1.582c1.32,2.442,5.331,3.8,10.651,3.476C16.792,4.684,21.681,3,22.269.249Z" transform="translate(3.636 0)" fill="#fff"/></g></g><path d="M6.728,26.991c6.678.18,16.565-7.582,18.751-10.015C21.75,12.395,14.679,5.508,11.37,3.222A20.147,20.147,0,0,0,0,.035C2.466,9.483,6.728,26.991,6.728,26.991Z" transform="translate(91.598 109.703)" fill="#ef5a18"/><g transform="translate(125.063 145.204)"><path d="M18.232,8.791C15.471,7.194,11.608,4.354,3.607.057,2.693-.434-.816,2.409.174,2.769,5.925,4.864,15.319,12.265,18.232,8.791Z" transform="translate(5.537 8.625)" fill="#e0956c"/><path d="M20.451,8.654C17.689,7.057,11.846,1.908,3.309.013,2.256-.221-.8,2.864.195,3.225,5.946,5.319,17.986,11.463,20.451,8.654Z" transform="translate(7.243 6.073)" fill="#e0956c"/><path d="M30.526,9.87C27.764,8.273,11.362,1.9,2.826.006,1.772-.228-.776,6.972.231,8.366c.413,4.051,6.723,6.3,11.023,13.54.743,1.251,1.949-.655,2.055-1.323.274-1.722-.253-2.174-.992-6.41-.451-2.582,2.127-4.048,3.87-4.19C23.7,10.565,28.695,12.323,30.526,9.87Z" transform="translate(0 0)" fill="#ffc19f"/></g><path d="M0,55.039C5.9,52.9,9.572,49.032,9.864,39.3c-3.415-.725-2.531-1.783-5.827-2.875,12.764-3.311,8.249-22.546,24.9-30.311,27.3-10.548,48.08-5.12,55.284-.925,13.275,7.731,18.014,18,19.217,33.133.332,4.177-.7,14.185,6.571,15.417-4.8,2.523-6.732,1.921-7.274-1.232-.52,8.7.468,12.589,4.771,15.417-7.3,1.984-9.18-2.79-9.663-9.717-.575-8.254-.353-24.1-1.535-27.032C95.62,29.481,86.7,20.12,84.143,20.055c-5.568-.143-11.59,19.417-31.3,19.171C60.779,34.872,65.091,28.736,69.429,20a30.623,30.623,0,0,0-4.615,3.451C48.708,37.975,33.806,41.658,19.9,40.5c2.316,14.769,4.44,33.52-11.243,34.257,1.585-2,5.555-11.984,1.3-19.662C8.082,56.276,4.64,57.32,0,55.039Z" transform="translate(19.349 0)" fill="#752912"/><g transform="translate(48.954 150.408)" opacity="0.4"><path d="M30.676,12.169c15.58-.032,24.226-3.46,29.99-6.8C60.321,3.549,59.973,1.726,59.661,0c-5.226,3.285-13.212,7.024-29,7.06C15.986,7.071,7.013,3.978,1.934,1.585,1.288,3.288.628,4.87,0,6.331c5.007,2.332,13.3,5.21,26.126,5.751C27.583,12.143,29.1,12.178,30.676,12.169Z" transform="translate(0 4.305)" fill="#fff"/><path d="M28.281,8.8c14.451-.032,22.776-3.036,28.412-6.13C56.526,1.733,56.382.906,56.222,0,50.838,3.082,42.784,6.206,28.274,6.238,14.977,6.3,6.218,3.755.778,1.454.529,2.284.273,3.1,0,3.888c5.013,2.094,12.649,4.35,23.8,4.821Q25.956,8.8,28.281,8.8Z" transform="translate(2.663 0)" fill="#fff"/></g><path d="M0,3.724c-.089,4,4.377,16.705,6.668,21.761,5.612-1.349,13.673-4.408,16.374-6.41C27.769,15.573,16.723,2.81,10.855,0A76.652,76.652,0,0,1,0,3.724Z" transform="translate(36.761 112.972)" fill="#ef5a18"/><g transform="translate(0 79.061)"><path d="M13.353,12.965C9.786,8.578,2.829-.774,1.753.051-1.426,2.489,3.418,9.269,6.846,13.4c.376.453.716.86,1.041,1.243C4.661,18.838,2.1,24.46,0,26.338c5.011,4.792,8.266,6.2,10.361,6.248a9.165,9.165,0,0,0,9.053-6.994c.8-3.367.618-5.958-1.62-11.626A14.694,14.694,0,0,1,13.353,12.965Z" transform="translate(1.554 0)" fill="#ffc19f"/><path d="M12.053,14.06A7.45,7.45,0,0,1,0,15.1c.88-.766,4.584-9.3,3.512-14.97C7.375-1.054,11.645,6.274,12.8,5.485A6.766,6.766,0,0,0,12.053,14.06Z" transform="translate(3.339 11.469)" fill="#6b1808" opacity="0.14"/><path d="M11.4,2.581C9.374.356,6.82-.617,5.693.408c-1.015.923-.516,3.151,1.07,5.21-1.9-1.1-3.8-1.282-4.63-.3-.894,1.059-.258,3.108,1.4,4.9C1.938,9.979.6,10.322.156,11.252c-.662,1.373.845,3.469,3.365,4.684s5.1,1.086,5.76-.286a2.574,2.574,0,0,0-.694-2.644,2.2,2.2,0,0,0,1.9-.631c.77-.912.405-2.558-.766-4.142,1.339.734,2.6.873,3.3.233C14.15,7.441,13.423,4.806,11.4,2.581Z" transform="translate(0 11.599)" fill="#ffc19f"/><path d="M.043,3.781C.351,5.458,1.722,7.675,4.279,7c2.366-.622,5-3.034,4.694-4.71S6.307-.356,3.706.122-.265,2.1.043,3.781Z" transform="translate(9.541 12.524)" fill="#541000" opacity="0.21"/><path d="M.029,3.944c.293,1.6,2.757,2.479,5.5,1.974s4.735-2.207,4.441-3.8S7.216-.363,4.47.142-.264,2.349.029,3.944Z" transform="translate(9.555 12.361)" fill="#ffc19f"/></g></g></g></g></svg>