<svg xmlns="http://www.w3.org/2000/svg" width="363.902" height="297.54" viewBox="0 0 363.902 297.54"><g transform="translate(-577.793 -1012.141)"><g transform="translate(577.793 1012.141)"><path d="M3014.135,384.436l-.007.022c-1.142,3.3-1.348,7.054-3.289,10.037a6.872,6.872,0,0,1-4.29,3.13c-8.249,1.584-9.746-11.151-8.029-16.433,2.359-7.262,12.3-13.346,19.795-13.6a6.086,6.086,0,0,1,5.443,2.533c1.872,3.061-.856,5-3.046,6.534C3017.775,378.712,3015.348,380.953,3014.135,384.436Z" transform="translate(-2741.636 -367.585)" fill="#008ed5"/><path d="M2140.722,698.892a81.325,81.325,0,0,0,15.245,6.553c21.189,6.621,42.672-.77,63.785-4.642,43.486-7.973,43.977-10.272,67.2-12.53,32.786-3.187,49.179-4.781,65.6-1.6,10.217,1.981,28.075,6.664,50.982,2.2a63.384,63.384,0,0,0,10.935-2.833c25.153-9.366,35.037-42.872,37.129-49.966,19.633-66.556-28.83-172.329-112.357-200.221-10.838-3.619-47.484-15.857-86.175-1.15-30.922,11.753-48.028,41.9-64.671,69.522-8.876,14.733-18.018,29.463-29.613,42.067-15.109,16.425-38.279,22.193-51.494,40.854-17.23,24.332-11.1,61.408,4.334,84.817A83.6,83.6,0,0,0,2140.722,698.892Z" transform="translate(-2096.899 -410.557)" fill="#008ed5"/><path d="M2371.661,768.077c-30.084,4.735-47.874-.341-53.656-2.187-30.782-9.829-48.209-32.535-58.744-46.26a164.835,164.835,0,0,1-31.173-70.383c-5.255-29.176-9.226-97.261,24.594-117.324,31.326-18.584,54.361,28.187,132.07,32.6,67.855,3.855,114.327-28.169,150.058,1.2,10.276,8.447,13.855,17.2,14.562,19,11.9,30.372-16.637,66.537-35.136,89.98C2498.861,694.2,2450.333,755.694,2371.661,768.077Z" transform="translate(-2188.286 -482.073)" fill="#0af"/><path d="M2723.182,1387.885q-.471.269-.935.548c-5.273,3.163-12.513,7.961-14.569,14.068a8.186,8.186,0,0,0-.325,4.4,8.784,8.784,0,0,0,5.237,5.712c8.521,3.762,20.5,4.22,29.418,1.589a22.167,22.167,0,0,0,13.887-12.91c2.271-5.469,3.551-14.882-1.634-19.178-4.566-3.784-11.966-1.964-17.043-.383A71.1,71.1,0,0,0,2723.182,1387.885Z" transform="translate(-2696.249 -1360.909)" fill="#0af"/><path d="M2901.494,1391.855c-3.729.638-9.008,6.516-6.259,10.3,2,2.75,7.215,1.976,10.113,1.952,3.708-.03,7.273-1.112,7.962-5.255C2914.337,1392.675,2906.066,1391.074,2901.494,1391.855Z" transform="translate(-2823.001 -1367.534)" fill="#008ed5"/><path d="M3071.6,426.469a4.767,4.767,0,0,0,1.637,4.057c3.058,2.91,8.329,3.1,11.956,1.792a19.907,19.907,0,0,0,4.179-2.063c1.075-.7,2.034-1.434,2.962-2.141a22.835,22.835,0,0,1,4.227-2.773,15.12,15.12,0,0,1,4.514-.731,34.36,34.36,0,0,0,7.2-1.107c4.451-1.3,5.4-3.7,5.563-5.018.607-4.78-6.667-9.014-11.927-10.112-7.677-1.6-15.839.4-19.851,4.874a16.669,16.669,0,0,0-2.125,3.134,12.425,12.425,0,0,1-1.08,1.712,16.934,16.934,0,0,1-2.275,2.065,19.686,19.686,0,0,0-4.074,4.061A5.211,5.211,0,0,0,3071.6,426.469Z" transform="translate(-2794.361 -396.381)" fill="#0af"/></g><g transform="translate(634.076 1021.881)"><g transform="translate(170.634 41.481)"><g transform="translate(0 0)"><path d="M1625.637,778.458a4.959,4.959,0,1,1,5.229-4.952A5.1,5.1,0,0,1,1625.637,778.458Zm0-9.748a4.8,4.8,0,1,0,5.064,4.8A4.941,4.941,0,0,0,1625.637,768.71Z" transform="translate(-1620.408 -768.554)" fill="#437aff"/></g></g><g transform="translate(82.611 71.479)"><path d="M943.146,1015.455a6.828,6.828,0,1,1,7.2-6.818A7.024,7.024,0,0,1,943.146,1015.455Zm0-13.349a6.54,6.54,0,1,0,6.9,6.531A6.728,6.728,0,0,0,943.146,1002.106Z" transform="translate(-935.947 -1001.819)"/></g><g transform="translate(134.525 117.378)"><path d="M1343.829,1366.687a3.984,3.984,0,1,1,4.2-3.978A4.1,4.1,0,0,1,1343.829,1366.687Zm0-7.789a3.816,3.816,0,1,0,4.024,3.811A3.926,3.926,0,0,0,1343.829,1358.9Z" transform="translate(-1339.628 -1358.73)"/></g><g transform="translate(141.997 170.373)"><path d="M1400.229,1775.551a2.372,2.372,0,1,1,2.5-2.368A2.44,2.44,0,0,1,1400.229,1775.551Zm0-4.637a2.272,2.272,0,1,0,2.4,2.268A2.337,2.337,0,0,0,1400.229,1770.914Z" transform="translate(-1397.728 -1770.814)"/></g><g transform="translate(245.58 203.005)"><path d="M2208.345,2034.174a4.82,4.82,0,1,1,5.16-4.807A5,5,0,0,1,2208.345,2034.174Zm0-6.179a1.375,1.375,0,1,0,1.474,1.371A1.427,1.427,0,0,0,2208.345,2028Z" transform="translate(-2203.186 -2024.559)" fill="#fff"/></g><g transform="translate(83.996 134.311)" opacity="0.25"><g transform="translate(0 0)"><path d="M952.916,1501.947a5.788,5.788,0,1,1,6.2-5.774A6,6,0,0,1,952.916,1501.947Zm0-7.421a1.651,1.651,0,1,0,1.771,1.647A1.714,1.714,0,0,0,952.916,1494.526Z" transform="translate(-946.719 -1490.399)" fill="#86acff"/></g></g><g transform="translate(87.536 106.657)"><g transform="translate(0 0)"><path d="M976.546,1279.874a2.257,2.257,0,1,1,2.3-2.257A2.282,2.282,0,0,1,976.546,1279.874Zm0-4.34a2.084,2.084,0,1,0,2.125,2.083A2.107,2.107,0,0,0,976.546,1275.534Z" transform="translate(-974.244 -1275.36)" fill="#86acff"/></g></g><ellipse cx="1.179" cy="1.098" rx="1.179" ry="1.098" transform="translate(249.59 161.882)" fill="#ff2f58"/><path d="M1627.4,2168.278a1.182,1.182,0,1,1,1.179,1.1A1.141,1.141,0,0,1,1627.4,2168.278Z" transform="translate(-1455.865 -1945.834)" fill="#2c2c76"/><path d="M1542.272,446a7.885,7.885,0,0,0,.936,1.308,2.7,2.7,0,0,0,1.132.761,3.212,3.212,0,0,0,.679.143,5.736,5.736,0,0,0,.759.018c.531-.016,1.087-.105,1.7-.148a4.092,4.092,0,0,1-.334.3c-.118.091-.244.17-.371.252s-.265.143-.4.211-.285.118-.434.164a3.358,3.358,0,0,1-.464.11,3.162,3.162,0,0,1-.488.049,2.26,2.26,0,0,1-.251-.007l-.126-.007-.127-.018a3.118,3.118,0,0,1-.5-.12c-.081-.032-.162-.062-.241-.1s-.155-.077-.231-.118l-.215-.141c-.068-.051-.134-.1-.2-.159a2.655,2.655,0,0,1-.823-2.5Z" transform="translate(-1381.635 -446)" fill="#fff"/><path d="M1987.323,840.175a7.626,7.626,0,0,0,.547.961,1.525,1.525,0,0,0,.62.542,2.353,2.353,0,0,0,.868.163c.343.013.714-.015,1.136.008a2.279,2.279,0,0,1-1.02.69,2.153,2.153,0,0,1-.316.078c-.055.009-.11.018-.166.023l-.172.006a1.133,1.133,0,0,1-.175-.01,1.247,1.247,0,0,1-.177-.026,1.871,1.871,0,0,1-.35-.113,1.583,1.583,0,0,1-.583-.456,1.711,1.711,0,0,1-.309-.62A1.811,1.811,0,0,1,1987.323,840.175Z" transform="translate(-1769.36 -789.484)" fill="#fff"/><g transform="translate(0 45.366)"><g transform="translate(6.949 0)"><g transform="translate(10.987)"><path d="M447.024,871.357a21.968,21.968,0,0,0,6.422-1.072c5.9-1.817,10.458-6.5,13.534-13.914,2.459-5.928,3.984-13.607,4.532-22.824a159.334,159.334,0,0,0-1.456-31.328,4.686,4.686,0,0,0-2.826-3.282c-1.113-.365-2.948-.328-5.369,1.926-1.729,1.609-3.105,4.7-4.848,8.6-2.784,6.243-6.249,14.012-13.063,20.062a33.715,33.715,0,0,0-9.227,13.612,28.284,28.284,0,0,0-1.663,6.908,35.99,35.99,0,0,0,.48,7.068c.6,3.56,2.035,8.432,5.477,11.427A11.785,11.785,0,0,0,447.024,871.357Zm19.109-72.247a3.209,3.209,0,0,1,1,.159,4.342,4.342,0,0,1,2.61,3.043,159.716,159.716,0,0,1,1.444,31.221c-.546,9.173-2.062,16.81-4.505,22.7-3.036,7.316-7.52,11.932-13.328,13.719-5.985,1.842-10.743,1.277-14.14-1.678-3.364-2.926-4.773-7.712-5.362-11.212a35.607,35.607,0,0,1-.477-6.991,27.947,27.947,0,0,1,1.646-6.817,33.367,33.367,0,0,1,9.127-13.458h0c6.869-6.1,10.351-13.907,13.149-20.18,1.726-3.87,3.09-6.927,4.768-8.49A6.289,6.289,0,0,1,466.133,799.11Z" transform="translate(-433.039 -798.765)" fill="#1b1a41"/></g><path d="M434.022,833.506c11.1-9.856,12.543-25.39,16.984-29.524s9.329-2.806,9.958-.373c.21.813,4.156,64.124-17.591,70.353s-20.183-20.058-20.183-20.058A32.841,32.841,0,0,1,434.022,833.506Z" transform="translate(-413.448 -800.992)" fill="#1b1a41"/><path d="M756.11,1184.94c-3.723-4.637-9.584-29.005-10.067-29.985s-3.478-28.447-3.478-28.447-5.808.246-5.883,3.337,2.409,27.557,3.519,32.258,14.07,22.721,14.07,22.721S758.439,1187.842,756.11,1184.94Z" transform="translate(-686.644 -1084.361)" fill="#fc9492"/><path d="M879.843,1578.368c-.224.115-1.159-1.787-1.279-2.287s-.956-1.107-.956-1.107a11.813,11.813,0,0,1,.835,2.647c.2,1.272.919,3.55.69,3.534a15.834,15.834,0,0,1-1.12-2.68l.006.028c.158.821.959,2.554.91,3.289-.03.444-.893-1.73-1.571-3.519.447,1.486.708,2.852.708,2.852-.771-.227-1.16-2.51-1.16-2.51a6.2,6.2,0,0,0-1.181-1.965c-.207.094-.669-1.033-1.17-1.684-.085-.043-.867-1.926-1.21-2.351.071-.282.14-.878.177-1.072.061.11.791.311.852.422a2.8,2.8,0,0,0,1.415-.363v.012c.737-.791,2.62,2.329,2.62,2.329S880.067,1578.253,879.843,1578.368Z" transform="translate(-805.732 -1472.114)" fill="#fc9492"/><path d="M708.632,987.537s-1.085,15.092.528,20.275,3.126,18.931,3.126,18.931,7.892-3.953,8.031-6.143C721.3,1005.09,716.344,988.972,708.632,987.537Z" transform="translate(-661.892 -963.261)" fill="#d1008b"/><path d="M778.007,2002.016s12.345,37.554,14.574,37.933a49.828,49.828,0,0,0,5.127.506s9.919-.38-2.006-3.794c0,0-7.541-11.1-5.3-45.231C791.232,1978.741,778.007,2002.016,778.007,2002.016Z" transform="translate(-722.657 -1834.752)" fill="#fc9492"/><path d="M353.7,2099.156s-4.723,36.575-3.386,37.081a13.977,13.977,0,0,0,3.789.505s10.253-.505,2.563-2.4,3.566-21.369,4.9-28.324S353.7,2099.156,353.7,2099.156Z" transform="translate(-349.753 -1931.924)" fill="#fc9492"/><path d="M740.6,1213.174c1.671-.46,4.563-1.6,5.5-4.139a.319.319,0,0,0-.119-.374.2.2,0,0,0-.3.121c-1.222,3.3-6.331,4.1-6.383,4.11a.285.285,0,0,0,.083.552A11.124,11.124,0,0,0,740.6,1213.174Z" transform="translate(-688.758 -1155.922)" fill="#fff"/><path d="M742.243,1236.179c2.334-.643,4.815-3.2,4.956-3.351a.318.318,0,0,0,.013-.391.205.205,0,0,0-.324-.039c-.045.047-4.51,4.658-6.811,3.03a.2.2,0,0,0-.31.094.322.322,0,0,0,.1.382A2.728,2.728,0,0,0,742.243,1236.179Z" transform="translate(-689.311 -1176.577)" fill="#fff"/><g transform="translate(7.32 1.172)"><path d="M418.737,881.382a22.614,22.614,0,0,0,6.2-.959c4.041-1.158,7.475-4.367,10.208-9.539,5.319-10.07,7.1-25.971,7.658-37.538a194.068,194.068,0,0,0-.162-23.49,2.534,2.534,0,0,0-1.741-1.8c-1.566-.513-4.37-.01-7.545,2.945-1.729,1.609-3.105,4.7-4.848,8.6-2.784,6.243-6.25,14.012-13.063,20.063a33.716,33.716,0,0,0-9.227,13.612,28.282,28.282,0,0,0-1.663,6.908,34.847,34.847,0,0,0,.448,6.911c.578,3.491,1.979,8.287,5.368,11.307A12.144,12.144,0,0,0,418.737,881.382Zm20.952-73.159a3.575,3.575,0,0,1,1.114.164,2.211,2.211,0,0,1,1.526,1.562,209.886,209.886,0,0,1-.576,33.176c-.99,9.637-2.7,17.575-5.07,23.6-2.945,7.465-6.925,11.962-11.831,13.367-6.071,1.739-10.877,1.082-14.283-1.953-3.314-2.953-4.688-7.667-5.256-11.1a34.423,34.423,0,0,1-.443-6.825,27.941,27.941,0,0,1,1.646-6.818,33.365,33.365,0,0,1,9.127-13.458c6.868-6.1,10.351-13.906,13.149-20.18,1.726-3.87,3.09-6.927,4.768-8.49C435.974,809.014,438.147,808.222,439.688,808.222Z" transform="translate(-404.524 -807.878)" fill="#1b1a41"/></g><path d="M612.386,1010.157c-.6-1.857-.691-11.81-.706-14.333h.023a28.168,28.168,0,0,1,2.983-11.029c3.46-6.733-7.835-17.414-7.835-17.414-9.219-.581-10.583-2.9-10.583-2.9-2.731,0-4.539,4.422-4.539,4.422s-.683,1.937,0,7.554c.857,7.045,2.732,19.369,2.732,19.369h.01c.06.9.161,2.776.161,5.23,0,3.487-2.739,8.586-2.739,8.586C595.658,1017.3,613.069,1012.288,612.386,1010.157Z" transform="translate(-560.07 -943.167)" fill="#f8538e"/><path d="M378.254,1407.755s1.425,17.444,63.394,3.145c1.832-3.483,1.269-13.242.407-17.646-3.652-18.669-9.159-53.672-15.772-87.536,0,0,1.787,7.1-17.6.464-3.053-1.045-6.172,5.125-13.082,31.679S378.254,1407.755,378.254,1407.755Z" transform="translate(-374.312 -1240.522)" fill="#ff2f58"/><path d="M637.934,906.569a13.043,13.043,0,0,0,1.506,9.108c.8,1.426,1.064,5.646-.387,5.288-6.218-1.534-9.972-7.894-9.972-7.894a7.974,7.974,0,0,0,3.314-7.587Z" transform="translate(-592.883 -891.76)" fill="#fc9492"/><path d="M650.7,811.011c-1.6,1.2-3.827,8.177-6.687,8.781,0,0-2.468-.368-1.82,1.942s4.941,6.344,8.739,1.928C655.059,818.863,650.7,811.011,650.7,811.011Z" transform="translate(-604.214 -809.436)" fill="#fc9492"/><path d="M353.321,2368.634s.768,2.853-5.439.415c0,0-.726,2.517.166,2.517s8.247.759,8.916,0S360.043,2370.507,353.321,2368.634Z" transform="translate(-347.603 -2166.747)" fill="#000040"/><path d="M890.39,2372.731s.968,3.023-5.748,1.05c0,0-.081,1.9.762,1.9s7.8.763,8.429,0S896.745,2374.616,890.39,2372.731Z" transform="translate(-815.576 -2170.317)" fill="#000040"/><path d="M399.216,1416.806s-19.232-51.212,9.463-110.392c0,0-12.516-11.23-26.644,83.271L378.254,1408S378.559,1416.69,399.216,1416.806Z" transform="translate(-374.312 -1240.768)" fill="#ff2f58"/><path d="M685.451,877.3c.523-.008.974.051,1.405.084a4.674,4.674,0,0,0,1.157,0,1.685,1.685,0,0,0,.452-.14,1.333,1.333,0,0,0,.406-.306,6.928,6.928,0,0,0,.847-1.331,3.143,3.143,0,0,1,.132,1.005,3.047,3.047,0,0,1-.212,1.063,2.218,2.218,0,0,1-.63.9,1.783,1.783,0,0,1-.865.4,2.225,2.225,0,0,1-1.567-.379A3.154,3.154,0,0,1,685.451,877.3Z" transform="translate(-642.003 -865.72)" fill="#fff"/><path d="M449.435,1125.363c.344-4.864-9.92-36.53-10.257-37.714S451,1063.68,451,1063.68s-5.81-7.62-7.042-5.973-10.9,16.964-10.9,30.091c0,14.447,15.865,36.471,15.678,37.617s.7-.053.7-.053Z" transform="translate(-422.068 -1024.203)" fill="#fc9492"/><path d="M602.474,1014.183a12.6,12.6,0,0,1,.407,7.74c-1.221,3.812-3.79,12.8-3.79,12.8s-1.586-10.265-1.595-11.244S602.474,1014.183,602.474,1014.183Z" transform="translate(-565.359 -986.48)" fill="#da2e53"/><path d="M547.935,1559.063a11.161,11.161,0,0,1-1.082-3.05,8.267,8.267,0,0,0-.905-1.846,13.664,13.664,0,0,1,.522,2.822c.023,1.135.473,3.564.216,3.3a23.434,23.434,0,0,1-.84-3.159c0,.009,0,.018,0,.026.047.764.677,2.891.5,3.366-.1.287-.734-2.226-1.216-4.258.269,1.561.346,2.83.346,2.83a6.262,6.262,0,0,1-.912-3.081,12.474,12.474,0,0,0-1.023-2.711,16.794,16.794,0,0,1-1.055-2.5c-.089-.124-.673-2.337-.994-3.021a5.028,5.028,0,0,0,.372-.577c.051.146.846,1.092.9,1.24a8.02,8.02,0,0,0,1.66,1.292v.01c.961.24,2.594,4.552,2.594,4.552S548.208,1559.226,547.935,1559.063Z" transform="translate(-516.562 -1450.959)" fill="#fc9492"/><path d="M479.039,970.692s2.887,2.521,2.239,8.346-15.263,20.333-15.263,20.333-9.55-6-8.446-7.74C464.59,980.539,477.208,964.19,479.039,970.692Z" transform="translate(-443.349 -947.291)" fill="#f8538e"/><g transform="translate(16.298 40.459)"><path d="M482.94,1122.047a.267.267,0,0,0,.245-.175.3.3,0,0,0-.14-.379c-.084-.039-8.358-3.915-8.174-7.816a.281.281,0,0,0-.253-.3.275.275,0,0,0-.28.274c-.2,4.3,8.142,8.212,8.5,8.377A.248.248,0,0,0,482.94,1122.047Z" transform="translate(-474.334 -1113.372)" fill="#fff"/></g><g transform="translate(18.277 39.487)"><path d="M499.3,1113.218a.29.29,0,0,0,.005-.578c-4.555-.1-9.049-6.644-9.093-6.71a.254.254,0,0,0-.373-.062.3.3,0,0,0-.057.4c.19.279,4.7,6.841,9.512,6.946Z" transform="translate(-489.726 -1105.812)" fill="#fff"/></g><g transform="translate(6.057 157.106)"><path d="M435.015,2028.956a55.7,55.7,0,0,0,9.426-.746c9.4-1.618,12.73-5.266,12.867-5.42a.306.306,0,0,0-.007-.408.252.252,0,0,0-.377.008c-.05.055-3.412,3.691-12.646,5.264-8.56,1.458-24.049,1.388-49.231-7.221a.263.263,0,0,0-.335.189.294.294,0,0,0,.174.362,150.377,150.377,0,0,0,30.415,7.366A82.9,82.9,0,0,0,435.015,2028.956Z" transform="translate(-394.699 -2020.419)" fill="#fff"/></g><g transform="translate(8.458 144.283)"><path d="M449.24,1930.163a45.269,45.269,0,0,0,9.175-.888c9.067-1.877,12.851-6.022,13.007-6.2a.306.306,0,0,0-.007-.408.252.252,0,0,0-.377.007h0c-.038.042-3.856,4.21-12.779,6.044-8.251,1.7-22.673,1.686-44.523-7.991a.26.26,0,0,0-.348.158.3.3,0,0,0,.146.377,104.273,104.273,0,0,0,26.988,8.251A61.619,61.619,0,0,0,449.24,1930.163Z" transform="translate(-413.37 -1920.706)" fill="#fff"/></g><path d="M635.418,962.593s1.237,5.78-.412,5.651-6.265-2.337-10.491-8.5c0,0,4.513,11.2,7.193,11.585,2.375.342,3.813-2.183,3.813-2.183s2.371,2.183,3.5,1.156C639.912,969.5,638.2,965.8,635.418,962.593Z" transform="translate(-588.904 -939.04)" fill="#fff"/></g><g transform="translate(0 152.44)"><path d="M293.856,2035.432c-.015-.1-1.464-10.567,2.261-20.342,3.758-9.86,5.49-25.391,5.364-30.951l.386-.009c.126,5.587-1.613,21.191-5.389,31.1-3.689,9.679-2.255,20.046-2.24,20.15Z" transform="translate(-293.566 -1984.13)"/></g><g transform="translate(52.716 176.016)"><path d="M719.965,2192.231c-.1-.04-2.531-1.152-5.044-14.844-.868-4.73-2.592-7.742-5.125-8.951a7.393,7.393,0,0,0-6.128.241l-.184-.339a7.66,7.66,0,0,1,6.478-.251c2.65,1.266,4.446,4.371,5.338,9.229,2.442,13.3,4.79,14.547,4.813,14.558Z" transform="translate(-703.484 -2167.461)"/></g></g><g transform="translate(77.86 134.249)"><g transform="translate(28.776 30.339)"><path d="M1126.608,1734.693c1.994-.127,3.516-2.218,3.392-4.661s-1.846-4.329-3.84-4.2-3.516,2.218-3.392,4.661S1124.615,1734.82,1126.608,1734.693Zm-.288-5.7a1.151,1.151,0,0,1,1.1,1.2,1.187,1.187,0,0,1-.969,1.33,1.151,1.151,0,0,1-1.1-1.2A1.187,1.187,0,0,1,1126.321,1729Z" transform="translate(-1122.761 -1725.824)" fill="#fff"/></g><g transform="translate(28.369 17.388)"><path d="M1124.913,1630.227a4.969,4.969,0,0,0,2.618-1.023.163.163,0,0,0,.029-.184.086.086,0,0,0-.137-.043,4.215,4.215,0,0,1-5.076.2c-2.571-1.872-2.551-3.9-2.551-3.92a.128.128,0,0,0-.1-.14c-.055,0-.1.052-.1.126,0,.09-.023,2.217,2.657,4.169A3.983,3.983,0,0,0,1124.913,1630.227Z" transform="translate(-1119.6 -1625.121)" fill="#3c325c"/></g><path d="M1133.036,1530.1s-2.556.936-3.875-1.222c-2.127-3.478-2.1-6.528-1.023-7.952a15.035,15.035,0,0,0,2.1-3.973,3.854,3.854,0,0,1,2.692-2.881c3.014-.972,2.093-4.476,4.118-2.746s1.366,4.2,1.719,4.182c.714-.045,2.253,1.492,2.663,3.557s-.153,3.832-1.817,4.406S1133.036,1530.1,1133.036,1530.1Z" transform="translate(-1098.042 -1508.159)"/><g transform="translate(18.559 24.264)"><path d="M1083.477,1681.473s4.139-1.586,4.923,5.143l15.932-3.169s-.526-5.326-5.831-4.823A146.971,146.971,0,0,0,1083.477,1681.473Z" transform="translate(-1078.312 -1678.59)" fill="#3d21a8"/><path d="M1055.172,1726.834s-1.905,6.74-4.224,8.854c-2.43,2.216-7.023-.16-7.29-1.108-1.042-3.694.463-13.421,2.083-19.823,0,0-.707-17.15,5.071-14.944S1055.172,1726.834,1055.172,1726.834Z" transform="translate(-1043.314 -1696.913)" fill="#452b63"/></g><path d="M1319.864,2377.829s-.993,3.068-.794,4.288c.158.976,5.374,1.035,7.459,1.02.21,0,.294-.425.111-.564-1.547-1.175-5.005-3.9-5.2-4.933Z" transform="translate(-1265.025 -2263.476)" fill="#000040"/><path d="M1092.221,2376.232a14.063,14.063,0,0,0-1.279,4c.008,1.025,4.591,2.866,6.428,3.563.185.071.316-.323.174-.523-1.2-1.7-3.879-5.6-3.907-6.686Z" transform="translate(-1066.259 -2262.25)" fill="#000040"/><path d="M1173.2,1898.226c-4.651-18.7-7.694-17.792-7.694-17.792s-7.009-.8-7.971,9.278,19.439,54,19.7,56.7l4.616-1.648C1180.765,1936.919,1181.99,1933.575,1173.2,1898.226Z" transform="translate(-1124.255 -1830.199)" fill="#2d1b57"/><path d="M1099.512,1890.3c-.2,1.525-1.784,52.933-1.176,53.508a18.133,18.133,0,0,0,3.915,2.01c3.534-6.274,12.77-64.242,12.77-64.242S1101.8,1872.69,1099.512,1890.3Z" transform="translate(-1072.581 -1829.253)" fill="#2d1b79"/><path d="M1232.531,1627.533s18.759-8.687,19.276-9.383a3.23,3.23,0,0,1,1.938-.541c-4.7,7.613-20.727,16.791-20.727,16.791a106.381,106.381,0,0,1-15.153,7.6c-4.633,1.777-3.875-.049-3.875-.049S1213.656,1637.121,1232.531,1627.533Z" transform="translate(-1173.441 -1601.161)" fill="#fc9492"/><path d="M900.96,1601.061s.609-.168,1.151-1.611c.357-.95.365-1.824-.243-.974-.817,1.142-.38-2.1-1.2-2.079-.281.006.335,1.939.221,2.151s-.5-2.553-.711-2.547c-.576.016.15,2.151.133,2.7s-.259-1.645-.625-1.85c-.567-.319.086,1.878-.071,2.331s-.106-.774-.346-1.095c-.157-.209-.328.664-.255,1.177a3.5,3.5,0,0,0,.573,1.507C900.584,1601.833,900.96,1601.061,900.96,1601.061Z" transform="translate(-899 -1582.357)" fill="#fc9492"/><path d="M1199.021,1690.6s3.912-.2,1.666,8.224c-.712,2.671-15.861,9.553-15.861,9.553s-9.233-7.456-4.116-11.151S1199.021,1690.6,1199.021,1690.6Z" transform="translate(-1143.135 -1664.788)" fill="#86acff"/><path d="M1491.081,1591.636a4.726,4.726,0,0,1-1.361-2.549c-.287-1.2-.038-2,.681-.651.966,1.806,1.238-1.536,2.542-.746.449.272-1.12,1.436-1,1.735s1.562-1.839,1.9-1.63c.918.56-.885,1.8-1.023,2.312s.909-1.242,1.557-1.081c1.005.25-.7,1.617-.586,2.176s.4-.6.884-.662c.314-.041.327.911.055,1.306-.256.372-1.411.46-1.371.82C1493.453,1593.475,1491.081,1591.636,1491.081,1591.636Z" transform="translate(-1413.651 -1575.009)" fill="#fc9492"/><path d="M1124.817,1707.119c-1.714-.419-3.8-2.342-6.632-1.186a8.777,8.777,0,0,0-5.114,4.613,25.229,25.229,0,0,0-2.118,9.043c.463,4.111-2.6,15.3-3.062,19.319,0,0,13.067,7.639,19.977,2.231,1.244-.974.412-16.243.734-20.9C1128.71,1720.306,1132.216,1713.766,1124.817,1707.119Z" transform="translate(-1081.027 -1677.835)" fill="#86acff"/><path d="M1172.744,1667.786s1.336,4.639,1.593,6.239c.3,1.9,6.753.409,5.573-1.411s-1.412-4.951-1.623-6.262S1172.744,1667.786,1172.744,1667.786Z" transform="translate(-1137.541 -1643.352)" fill="#fc9492"/><path d="M927.661,1643.9c-3.043-3.47-9.4-6.335-9.4-6.335s-13.03-8.043-13.192-7.569c-.109.317-1.061.067-1.178.38.394.986,9.619,9.986,9.619,9.986,10.1,8.478,14.127,5.494,14.127,5.494S929.54,1646.039,927.661,1643.9Z" transform="translate(-903.258 -1611.96)" fill="#fc9492"/><path d="M1034.048,1705.625a58.72,58.72,0,0,1,11.084,5.169c2.118,1.405,5.594,5.072-1.485,5.9-2.7-.263-12.372-4.655-13.206-5.4C1029.365,1710.322,1032.935,1705.2,1034.048,1705.625Z" transform="translate(-1013.363 -1677.862)" fill="#86acff"/><path d="M1181.606,1687a7.782,7.782,0,0,0,.938,2.763c.405.682-5.446,1.024-6.224-2.088l-.445-1.779S1181.433,1685.318,1181.606,1687Z" transform="translate(-1140.269 -1660.609)" fill="#7d0000" opacity="0.07"/><path d="M1151.336,1582.267c.172.472,4.59,5.654,8.8,1.33s1.267-12.333-.536-14.925S1146.082,1567.838,1151.336,1582.267Z" transform="translate(-1117.714 -1557.673)" fill="#fc9492"/><path d="M1204.5,1645.784c-.459.356-.815.657-1.144.906a4.477,4.477,0,0,1-.883.544l-.1.052c-.034.016-.071.02-.106.033a1.292,1.292,0,0,1-.217.076,1.569,1.569,0,0,0-.238.068,2.6,2.6,0,0,0-.269.037c-.047.006-.1.023-.145.03s-.1,0-.153.006c-.1.006-.214.019-.33.034a5.006,5.006,0,0,0-.766.068,2.517,2.517,0,0,0,.216.4,2.487,2.487,0,0,0,.266.355,4.233,4.233,0,0,0,.328.28c.057.047.116.087.176.129a1.747,1.747,0,0,0,.2.095,2.039,2.039,0,0,0,1.772.011,2.542,2.542,0,0,0,1.247-1.33A2.769,2.769,0,0,0,1204.5,1645.784Z" transform="translate(-1161.418 -1625.739)" fill="#fff"/><path d="M1095.211,1732.157a13.192,13.192,0,0,0,1.455-1.223c.464-.439.911-.9,1.343-1.387a29.275,29.275,0,0,0,2.421-3.13,32.06,32.06,0,0,0,2.073-3.55,30.544,30.544,0,0,0,1.657-3.972l.171-.528.162-.535c.1-.362.2-.723.291-1.093a22.835,22.835,0,0,0,.438-2.274,17.5,17.5,0,0,0,.043-4.833,12.176,12.176,0,0,0-.58-2.386,9.4,9.4,0,0,0-1.044-2.091,7.141,7.141,0,0,0-1.417-1.57,5.905,5.905,0,0,0-1.634-.958c.367.6.706,1.18.993,1.774a11.1,11.1,0,0,1,.688,1.808,11.816,11.816,0,0,1,.422,3.655,26.961,26.961,0,0,1-1.552,7.353c-.815,2.445-1.816,4.865-2.838,7.324l-1.557,3.728q-.391.945-.776,1.913C1095.711,1730.826,1095.456,1731.478,1095.211,1732.157Z" transform="translate(-1069.978 -1675.271)" fill="#3d218c"/><path d="M1231.15,1702.354c.213.438.409.858.6,1.276s.372.832.546,1.245c.348.826.666,1.645.958,2.463a39.693,39.693,0,0,1,1.416,4.983,51.745,51.745,0,0,1,.827,5.3c.023.231.055.463.077.7s.042.469.066.706q.017.178.037.356c.012.12.018.239.029.359q.03.36.065.725c.031.245.039.488.062.736s.041.5.069.75c.04.5.081,1.012.155,1.544a13.836,13.836,0,0,0,.528-1.34c.144-.466.286-.94.4-1.43q.083-.367.157-.742c.025-.125.051-.249.072-.375s.04-.254.058-.381c.038-.255.073-.511.108-.769s.05-.52.071-.782a22.183,22.183,0,0,0-.422-6.389,18.978,18.978,0,0,0-.9-3.006,15.271,15.271,0,0,0-1.322-2.627,10.719,10.719,0,0,0-1.679-2.063,7.247,7.247,0,0,0-.953-.753A3.562,3.562,0,0,0,1231.15,1702.354Z" transform="translate(-1188.435 -1675.033)" fill="#3d218c"/><g transform="translate(31.769 11.907)"><path d="M1183.941,1621.257a2.771,2.771,0,0,1-.7.082,1.338,1.338,0,0,1-.61-.165,2.46,2.46,0,0,1-.558-.45,1.621,1.621,0,0,1-.137-.152c-.046-.053-.094-.1-.143-.157a3.688,3.688,0,0,0-.3-.345,4.134,4.134,0,0,0,.113.523c.03.081.062.163.1.243a1.591,1.591,0,0,0,.113.235,1.793,1.793,0,0,0,.669.708.977.977,0,0,0,.826.065A1.182,1.182,0,0,0,1183.941,1621.257Z" transform="translate(-1176.937 -1615.238)" fill="#fff"/><g transform="translate(8.833)"><path d="M1217.479,1588.278c1.111-.39,1.724-1.983,1.368-3.551s-1.55-2.527-2.661-2.138-1.724,1.983-1.368,3.551S1216.369,1588.667,1217.479,1588.278Zm-1.265-5.569c1.064-.373,2.207.545,2.549,2.047s-.247,3.028-1.311,3.4-2.207-.545-2.548-2.048S1215.15,1583.082,1216.214,1582.709Z" transform="translate(-1214.717 -1582.502)"/></g><g transform="translate(3.7 1.73)"><path d="M1177.728,1601.743a3.062,3.062,0,0,0,1.536-3.61c-.356-1.568-1.625-2.5-2.828-2.079a3.062,3.062,0,0,0-1.536,3.61C1175.255,1601.232,1176.524,1602.165,1177.728,1601.743Zm-1.265-5.569c1.153-.4,2.368.489,2.709,1.991a2.933,2.933,0,0,1-1.471,3.458c-1.153.4-2.368-.489-2.709-1.991A2.933,2.933,0,0,1,1176.462,1596.174Z" transform="translate(-1174.805 -1595.952)"/></g><g transform="translate(0 5.165)"><path d="M1149.827,1622.94a.075.075,0,0,0,.041-.073c0-.045-.026-.084-.059-.087-.356-.033-3.49-.313-3.763.137a.106.106,0,0,0,.009.115.048.048,0,0,0,.083-.006c.179-.294,2.347-.208,3.672-.085A.042.042,0,0,0,1149.827,1622.94Z" transform="translate(-1146.033 -1622.664)"/></g><g transform="translate(8.165 3.846)"><path d="M1210.105,1613.031a.294.294,0,0,0,.054-.025.739.739,0,0,0,.259-.5.09.09,0,0,0-.049-.1c-.032-.01-.062.018-.067.061,0,0-.036.291-.2.384-.121.071-.287.016-.494-.162a.049.049,0,0,0-.08.024.1.1,0,0,0,.023.113C1209.771,1613.016,1209.956,1613.083,1210.105,1613.031Z" transform="translate(-1209.526 -1612.409)"/></g><path d="M1222.2,1607.836a2.778,2.778,0,0,1-.7.081,1.336,1.336,0,0,1-.61-.165,2.476,2.476,0,0,1-.558-.45,1.588,1.588,0,0,1-.137-.152c-.046-.053-.094-.1-.143-.157a3.751,3.751,0,0,0-.3-.345,4.114,4.114,0,0,0,.113.524c.03.081.062.163.1.243a1.55,1.55,0,0,0,.113.235,1.793,1.793,0,0,0,.669.708.977.977,0,0,0,.827.065A1.183,1.183,0,0,0,1222.2,1607.836Z" transform="translate(-1210.275 -1603.542)" fill="#fff"/></g><path d="M1183.427,1710.653a2.721,2.721,0,0,1,1.1.631,26.649,26.649,0,0,1,1.2,5.207c.034.675-3.319-2.5-3.761-2.471s-1.985,2.836-2.3,3.646-1.765-1.582-2.226-3.7a4.251,4.251,0,0,1,.363-3.264,11.769,11.769,0,0,0,.764,2.7,5.273,5.273,0,0,0,4.976-.62S1183.868,1711.19,1183.427,1710.653Z" transform="translate(-1141.516 -1682.266)" fill="#fff"/><path d="M1157.362,1564.4s-.561-.627-1.9.448-1.255,2.765-4.334,3.669-3.281,1.83-3.281,1.83.25-3.534,1.2-4.159S1156.033,1561.673,1157.362,1564.4Z" transform="translate(-1115.846 -1553.985)"/><g transform="translate(28.194 5.839)"><path d="M1118.341,1539.313a.078.078,0,0,0,.026-.006,3.861,3.861,0,0,0,2.238-3.875c-.009-.073-.059-.123-.113-.113a.131.131,0,0,0-.081.151,3.524,3.524,0,0,1-2.108,3.583.145.145,0,0,0-.061.168A.107.107,0,0,0,1118.341,1539.313Z" transform="translate(-1118.235 -1535.318)" fill="#3c325c"/></g><g transform="translate(38.37)"><path d="M1200.781,1492.691a.074.074,0,0,0,.034-.011.151.151,0,0,0,.05-.175,3.363,3.363,0,0,0-3.414-2.587.125.125,0,0,0-.088.144c.006.073.053.133.108.122a3.171,3.171,0,0,1,3.213,2.425A.1.1,0,0,0,1200.781,1492.691Z" transform="translate(-1197.363 -1489.912)" fill="#3c325c"/></g><g transform="translate(14.135 46.708)"><path d="M1012.239,1872.929a3.73,3.73,0,0,1-2.525-.745,3.058,3.058,0,0,1-.75-2.841A51.2,51.2,0,0,1,1010.8,1862c1.233-4.107,2.4-7.986.886-8.529l.13-.363c1.855.667.7,4.53-.647,9a50.961,50.961,0,0,0-1.821,7.278,2.708,2.708,0,0,0,.625,2.5c1.381,1.233,4.573.431,6.685-.1a7.862,7.862,0,0,1,1.831-.349l-.034.384a8.446,8.446,0,0,0-1.7.339A19.736,19.736,0,0,1,1012.239,1872.929Z" transform="translate(-1008.912 -1853.112)"/></g></g><g transform="translate(153.863 35.687)"><g transform="translate(0)"><g transform="translate(0 24.705)"><path d="M1493.8,1575.49a23.362,23.362,0,0,0-2.595,1.3c-.517.427-.967,1.331-.571,1.234.607-.15,1.515-1.307,1.381-.8s-2.844,2.133-1.763,2.182c.7.032,2.8-1.832,2.391-1.322s-3.178,2.033-2.352,2.394c.309.135,3.078-2.172,3.075-1.91s-2.45,1.666-2.045,1.841c1.177.507,2.612-2.337,3.159-1.261.572,1.126,1.142.412,1.382-.675a5.15,5.15,0,0,0,.207-1.63A3.836,3.836,0,0,0,1493.8,1575.49Z" transform="translate(-1490 -1490.629)" fill="#ffabae"/><path d="M1566.172,926.824C1557.3,938.913,1549.486,967,1549.486,967s-29.8,33.484-29.923,33.471c.609.748,1.568.643,2.271,1.354,33.332-11.868,34.747-15.5,41.734-24.2,3.715-4.626,27.542-58.23,27.242-60.233C1590.185,913.223,1573.844,916.373,1566.172,926.824Z" transform="translate(-1515.761 -915.61)" fill="#bb2651"/></g><path d="M1849.718,2378.229s.906,3.083.27,4.308c-.508.979-9.281,1.025-12.778,1-.353,0-.388-.428-.047-.567,2.889-1.176,9.373-3.906,9.948-4.94Z" transform="translate(-1792.311 -2165.259)" fill="#4f005e"/><path d="M2397.124,2306.108s4.147,1.375,4.89,2.714c.594,1.071-7.33,8.092-10.531,10.864-.323.279-.814.018-.654-.348,1.358-3.1,4.308-10.123,3.717-11.285Z" transform="translate(-2274.954 -2102.583)" fill="#4f005e"/><path d="M1852.984,1320.694s-14.538,110.277-23.263,126.619c-.952,1.783-4.977,0-4.977,0s-11.718-54.037-11.475-64.4c1.025-43.66,14.794-73.033,18.883-73.712S1852.984,1320.694,1852.984,1320.694Z" transform="translate(-1771.693 -1233.853)" fill="#2c2c76"/><path d="M1940.665,1311.478s31.3-22.129,40.573,8.189c3.721,12.16,7.334,17.675,9.867,57.108l13.778,55.861-2.627,1.92s-24.242-29.523-36.221-50.075C1948.326,1354.1,1940.665,1311.478,1940.665,1311.478Z" transform="translate(-1882.709 -1229.072)" fill="#5652e5"/><g transform="translate(63.918)"><path d="M1990.791,744.792a2.054,2.054,0,0,1-1.8-.97,4.475,4.475,0,0,1-.043-4.2,1.036,1.036,0,0,1,.976-.592c.145.017.29.036.434.056,1.419.193,2.645.359,3.2-2.085a9.5,9.5,0,0,0,.22-4.164,24.488,24.488,0,0,0-2.834-1.664c-.214-.1-.5-.205-.793-.314-1.047-.383-2.482-.907-2.961-2.15a3.937,3.937,0,0,1,.527-3.245,3.645,3.645,0,0,1,3.182-1.951c2.352-.146,5.2,1.287,5.9,2.288a12.637,12.637,0,0,0,2.329,2.333c.371.31.692.577.939.826a4.469,4.469,0,0,1,.317,5.588,23.911,23.911,0,0,1-4.434,4.791l-.234.188-.073-.292a3.944,3.944,0,0,1,1.534-3.825,1.6,1.6,0,0,0,.676-1.71,1.433,1.433,0,0,0-.938-1.008c-.142-.022-.179.036-.194.058-.088.131-.167.23-.237.317-.295.368-.49.611-.86,3.187-.036.25-.071.508-.107.773-.441,3.238-.99,7.269-4.314,7.735A2.969,2.969,0,0,1,1990.791,744.792Zm-.958-5.382a.741.741,0,0,0-.555.415,4.1,4.1,0,0,0,.038,3.786,1.73,1.73,0,0,0,1.832.769c3.035-.426,3.562-4.3,3.985-7.4.036-.266.072-.526.107-.776.386-2.68.595-2.941.941-3.373.068-.085.138-.172.216-.289a.554.554,0,0,1,.575-.225,1.8,1.8,0,0,1,1.25,1.285,1.977,1.977,0,0,1-.8,2.108,3.742,3.742,0,0,0-1.452,3.112,22.658,22.658,0,0,0,4.085-4.474,4.085,4.085,0,0,0-.265-5.109c-.235-.236-.549-.5-.913-.8a12.933,12.933,0,0,1-2.4-2.408,7.846,7.846,0,0,0-5.555-2.124,3.237,3.237,0,0,0-2.865,1.745,3.643,3.643,0,0,0-.509,2.926c.417,1.08,1.7,1.549,2.734,1.927.307.112.6.218.828.329a25.147,25.147,0,0,1,2.945,1.735l.054.038.02.063a9.206,9.206,0,0,1-.2,4.427c-.636,2.787-2.227,2.572-3.63,2.381-.142-.019-.285-.039-.427-.055Z" transform="translate(-1987.027 -723.504)"/></g><path d="M1883.362,962.871c-.715-3.688-6.842-19.12-5.745-34.687,1.421-20.153-5.949-30.88-5.949-30.88s-8.6-6.178-23.751.247c-8.638,3.663-18.113,14.859-19.17,29.8-.815,11.511-1.144,45.019.617,47.8,1.707,2.7,5.773,5.318,6.128,3.243a86.941,86.941,0,0,0,.474-10.624c4.809.588,7.53.214,20.964-4.275.128.529,2.473,13.583,3.94,13.631C1862.39,977.174,1884.1,966.7,1883.362,962.871Z" transform="translate(-1784.609 -872.623)" fill="#ff2f58"/><path d="M1995.262,785.562s-6.806-1.517-6.31-4.214,5.208-4.953,3.65-7.129-8.135-6.209-9.929-4.552-3.379,8.429-3.379,8.429a1.4,1.4,0,0,0,1.583.186c1.014-.425-1.46,3.779.345,4.607s4.9,2.252,4.611,3.721c-.236,1.221-5.829,10.525-2.248,9.769C1989.055,795.224,1995.262,785.562,1995.262,785.562Z" transform="translate(-1916.37 -763.391)" fill="#ffabae"/><g transform="translate(63.236 1.97)"><path d="M1989.326,747.849a24.7,24.7,0,0,0-2.918-1.719c-1.447-.7-5.365-1.211-3.14-5.445,1.915-3.647,7.771-1.043,8.748.358a22.632,22.632,0,0,0,3.291,3.184,4.279,4.279,0,0,1,.291,5.349,23.518,23.518,0,0,1-4.392,4.743,3.783,3.783,0,0,1,1.472-3.631c1.967-1.672-.271-3.62-.741-2.914s-.668.393-1.127,3.583-.807,7.861-4.257,8.344-4.5-1.9-4.8-3.534,1.523-4.039,1.523-4.039.419,2.038,2,2.223,3.191.7,3.847-2.177A9.088,9.088,0,0,0,1989.326,747.849Z" transform="translate(-1981.722 -738.825)"/></g><path d="M2090.864,1010.585s2.721,44.16-7.742,62.631l15.207-.738s11.843-25.552,10.23-33.384S2094.832,1009.715,2090.864,1010.585Z" transform="translate(-2006.846 -973.643)" fill="#bb2651" opacity="0.48"/><path d="M1880.728,971.318c.239,2.959,20.258.5,22.6-.611-7.611-35.385,5.288-74.807,5.288-74.807s-12.455,13.216-11.8,9.474a55.3,55.3,0,0,1,2.367-8.426S1875.048,900.979,1880.728,971.318Z" transform="translate(-1829.726 -873.73)" fill="#fff"/><g transform="translate(78.352 102.176)"><path d="M2115.49,1530.645a15.813,15.813,0,0,1-11.474-5.319,26.039,26.039,0,0,1-4.755-7.157l.357-.146a25.653,25.653,0,0,0,4.686,7.046c4.188,4.4,9.085,6.024,14.557,4.811l.083.377A15.943,15.943,0,0,1,2115.49,1530.645Z" transform="translate(-2099.261 -1518.023)" fill="#fff"/><g transform="translate(0 4.623)"><path d="M2115.49,1566.593a15.813,15.813,0,0,1-11.474-5.319,26.041,26.041,0,0,1-4.755-7.157l.357-.146a25.656,25.656,0,0,0,4.686,7.045c4.188,4.405,9.085,6.024,14.557,4.811l.083.377A15.935,15.935,0,0,1,2115.49,1566.593Z" transform="translate(-2099.261 -1553.971)" fill="#fff"/></g></g><g transform="translate(44.988 23.928)"><path d="M1846.681,993.951c-3.554,0-6.722-5.667-6.856-5.908l.338-.186c.032.057,3.191,5.708,6.518,5.708a1.551,1.551,0,0,0,1.236-.37c1.076-1.159.793-6.313-.287-20.747-.654-8.737-1.312-21.76.51-33.938a63.459,63.459,0,0,1,4.478-16.288,34.194,34.194,0,0,1,9.224-12.651l.246.3c-7.024,5.828-11.588,15.484-13.566,28.7-1.817,12.14-1.159,25.134-.507,33.852,1.173,15.675,1.345,19.789.185,21.039A1.9,1.9,0,0,1,1846.681,993.951Z" transform="translate(-1839.825 -909.57)"/><g transform="translate(24.894 11.823)"><path d="M2037.592,1073.19a1.209,1.209,0,0,1-.171-.012.947.947,0,0,1-.737-.519c-.417-.781-2.78-7.941-3.217-20.828a131.72,131.72,0,0,1,1.181-22.028,161.463,161.463,0,0,1,6.56-28.3l.367.12c-7.056,21.631-8.094,39.234-7.722,50.192.435,12.814,2.762,19.89,3.172,20.659a.565.565,0,0,0,.45.318c1.384.194,4.7-2.883,5.868-4.086l.277.268C2043.448,1069.156,2039.523,1073.19,2037.592,1073.19Z" transform="translate(-2033.4 -1001.508)"/></g></g><path d="M1949.057,1626.917c-.364.092-2.642,1.152-3.139,1.349-1.47.583-2.374,1.265-.729,1.255,1.573-.009-2.153,2.1-1.274,2.762.3.228,1.882-2.072,2.244-2.173s-2.418,2.773-2.186,2.946c.624.463,2.32-2.113,2.965-2.6s-1.622,1.736-1.474,2.229c.23.765,1.994-1.22,2.681-1.509s-.7.216-.818.711c-.076.323,1.11-.342,1.624-.878.485-.505.8-1.517,1.133-1.869a1.026,1.026,0,0,0,.134-.169l1.163-.583C1950.678,1627.666,1949.386,1626.505,1949.057,1626.917Z" transform="translate(-1885.422 -1510.661)" fill="#ffabae"/><path d="M2014.414,916.422c-12.787-11.369-13.369-2.45-12.543,7.449a165.914,165.914,0,0,0,6.519,35.468,8.624,8.624,0,0,1-.876,6.454c-5.256,9.076-20.166,34.372-24.526,36.925l-.227.135c.319.266.633.536.938.813.45.41.88.831,1.295,1.26,10.872-5.483,37.761-24.488,40.467-35.892C2026.745,963.619,2032.444,932.453,2014.414,916.422Z" transform="translate(-1919.391 -886.975)" fill="#ff2f58"/></g><g transform="translate(76.945 15.57)"><path d="M2091.312,848.832c-1.729-.229-2.72-.749-2.945-1.546-.354-1.252,1.343-2.647,1.416-2.706l.243.3c-.016.013-1.573,1.294-1.288,2.3.177.626,1.085,1.064,2.624,1.268Z" transform="translate(-2088.319 -844.579)"/></g><g transform="translate(103.707 79.334)"><path d="M2298.424,1365.55c-.155-.262-3.753-6.451-.911-8.781,2.566-2.1,7.7-9.127,6.261-16.289l.378-.076c1.477,7.332-3.773,14.513-6.4,16.663-2.588,2.123.963,8.226,1,8.287Z" transform="translate(-2296.424 -1340.404)"/></g><g transform="translate(25.568 48.545)"><path d="M1688.947,1132l-.133-.362a10.96,10.96,0,0,0,6.444-8.149c.066-.384.135-.79.207-1.216,1.119-6.612,2.992-17.679,6.167-21.282l.289.255c-3.1,3.52-4.964,14.519-6.076,21.091-.072.426-.141.833-.207,1.217A11.355,11.355,0,0,1,1688.947,1132Z" transform="translate(-1688.814 -1100.987)"/></g><g transform="translate(123.058 195.794)"><path d="M2448.594,2262.441l-.154-.354c.053-.023,5.375-2.37,6.355-4.9a1.838,1.838,0,0,0-.006-1.48c-.454-1.014-1.208-1.185-2.162-1.4-1.915-.433-4.3-.971-5.731-8.243l.378-.075c1.384,7.026,3.632,7.533,5.438,7.941a2.891,2.891,0,0,1,2.429,1.618,2.236,2.236,0,0,1,.014,1.778C2454.117,2260.007,2448.82,2262.344,2448.594,2262.441Z" transform="translate(-2446.895 -2245.988)"/></g><g transform="translate(64.213 137.512)"><path d="M2023.05,1836.134a132.546,132.546,0,0,1-25.847-39.377c-.494-1.405-1.532-3.578-2.27-3.578l-.041,0c-.309.035-.878.554-1.226,3.636-.951,8.418-3.937,22.635-3.967,22.778l-.378-.08c.03-.142,3.012-14.341,3.961-22.741.3-2.625.794-3.889,1.566-3.976,1.258-.143,2.483,3.161,2.715,3.824a132.189,132.189,0,0,0,25.76,39.24Z" transform="translate(-1989.322 -1792.793)"/></g><g transform="translate(63.979 26.88)"><path d="M1987.706,1022.518l-.207-.326a184.907,184.907,0,0,0,18.26-13.6,101.73,101.73,0,0,0,13.139-13.109c4.136-5.117,6.558-9.766,7.2-13.818,3.536-22.311-.4-33.032-8.383-44.01-2.483-3.413-5.03-5-7.562-4.715-5.087.572-8.547,8.509-8.582,8.589l-.355-.152c.144-.336,3.583-8.223,8.893-8.82,2.683-.3,5.347,1.337,7.918,4.871,4.665,6.412,7.352,12.167,8.711,18.658,1.477,7.056,1.4,15.2-.258,25.639-.653,4.12-3.1,8.831-7.283,14a102.164,102.164,0,0,1-13.191,13.162A185.422,185.422,0,0,1,1987.706,1022.518Z" transform="translate(-1987.499 -932.525)"/></g></g><g transform="translate(35.868 253.592)"><rect width="203.407" height="0.386" transform="translate(0)"/></g><g transform="translate(220.592 258.745)"><rect width="41.09" height="0.386"/></g><g transform="translate(6.913 250.606)"><rect width="32.8" height="0.291"/></g><g transform="translate(133.397 153.087)"><g transform="translate(0 0)"><g transform="translate(33.029 21.548)"><path d="M1612.564,1804.054s-5.3-.751-5.007,6.293l-19.868.11s-.349-5.556,6.164-6.158S1612.564,1804.054,1612.564,1804.054Z" transform="translate(-1587.686 -1803.949)" fill="#bb2651"/><path d="M1738.615,1833.954s4.491,5.446,8.061,4.331,3.695-3.657,3.572-4.679-3.383-11.248-4.439-15.486c0,0-.336-16.181-6.919-12.712S1738.615,1833.954,1738.615,1833.954Z" transform="translate(-1716.832 -1804.796)" fill="#d92f58"/></g><g transform="translate(0 48.998)"><path d="M1338.81,2026.613l3.531-7.127a3.777,3.777,0,0,1,5.033-1.7l10.041,4.93a3.745,3.745,0,0,1,1.708,5.011l-3.531,7.127a3.777,3.777,0,0,1-5.033,1.7l-10.042-4.93A3.745,3.745,0,0,1,1338.81,2026.613Z" transform="translate(-1337.451 -2017.401)" fill="#2c2c76"/><path d="M1331.184,2038.1l4.03-8.134a3.21,3.21,0,0,1,4.278-1.445l11.052,5.427A3.183,3.183,0,0,1,1352,2038.2l-4.03,8.134a3.211,3.211,0,0,1-4.278,1.445l-11.052-5.427A3.183,3.183,0,0,1,1331.184,2038.1Z" transform="translate(-1330.856 -2026.802)" fill="#ff2e57"/><path d="M1416.355,2087.5l3.312-6.684a1.636,1.636,0,0,1,2.179-.737h0a1.622,1.622,0,0,1,.74,2.17l-3.311,6.684a1.636,1.636,0,0,1-2.179.736h0A1.621,1.621,0,0,1,1416.355,2087.5Z" transform="translate(-1405.214 -2071.874)" fill="#fff"/><path d="M1350.678,2060.613l3.18-6.42a.555.555,0,0,1,.739-.25l.157.077a.549.549,0,0,1,.25.735l-3.181,6.42a.554.554,0,0,1-.739.25l-.157-.077A.549.549,0,0,1,1350.678,2060.613Z" transform="translate(-1348.08 -2049.196)" fill="#456da1"/></g><path d="M1607.981,1641.5s-2.663,6.507-3.582,1.748c-.177-.917,2.869-8.633,8.225-6.466,0,0,5.843-1.987,8.806,3s2.531,11.019,1.353,13.349-3.125,3.112-6.8,3.844c-3.481.693-5.822,2.038-6.067-1.464S1607.981,1641.5,1607.981,1641.5Z" transform="translate(-1569.214 -1636.395)"/><g transform="translate(36.491 0.713)"><path d="M1621.855,1661.624a1.418,1.418,0,0,1-.9-.243c-.507-.387-.652-1.246-.768-2.909a105.813,105.813,0,0,0-1.9-10.881c-.427.961-1.573,3.3-2.578,3.2-.5-.05-.86-.652-1.09-1.841-.123-.636,1.066-3.927,3.287-5.755a4.762,4.762,0,0,1,5.069-.872c.564-.173,6.071-1.711,8.912,3.071a15.89,15.89,0,0,1,.8,13.61c-.828,1.637-2.607,1.736-4.861,1.86a23.972,23.972,0,0,0-3.4.359l-.3.06A13.339,13.339,0,0,1,1621.855,1661.624Zm-3.492-14.879.09.4a113.842,113.842,0,0,1,2,11.31c.109,1.55.241,2.4.667,2.722.46.351,1.349.173,2.963-.15l.3-.06a24.156,24.156,0,0,1,3.435-.364c2.17-.12,3.884-.215,4.645-1.719a15.6,15.6,0,0,0-.794-13.363c-2.874-4.838-8.6-2.964-8.654-2.944l-.045.015-.044-.018a4.524,4.524,0,0,0-4.853.815,9.778,9.778,0,0,0-3.2,5.508c.2,1.033.5,1.6.863,1.634.849.084,2.074-2.431,2.474-3.407Z" transform="translate(-1614.611 -1641.94)"/></g><path d="M1608.017,1689.4s1.264,3.392.258,4.6c-1.62,1.938-.517,9.258,5.366,8.16,2.742-.512,2.84-6.525,1.4-8.79,0,0-1.809.27-2.323-2.557-.409-2.247-.552-3.112.159-3.37a1.974,1.974,0,0,0,1-3.246c-.927-1.357-.063-1.058-.787-3.45-1.758-5.808-4.107-4.026-5.1-4.685l-1.634.041c-.98.025-2.774,4.211-2.228,6.958S1605.639,1689,1608.017,1689.4Z" transform="translate(-1568.896 -1670.956)" fill="#ffabae"/><path d="M1669.519,1643.228a2.886,2.886,0,0,1,.44.227l.107.066.106.072c.071.046.139.1.207.152a5.3,5.3,0,0,1,.766.728c.12.133.229.28.34.424l.155.228c.025.038.052.075.076.115l.071.12a7.7,7.7,0,0,1,.5,1,10.193,10.193,0,0,1,.6,2.158,16.216,16.216,0,0,1,.2,2.2l.005.547c0,.091,0,.183,0,.273l-.009.271-.018.542-.037.537c-.014.179-.02.36-.039.537l-.056.532c-.033.356-.084.706-.13,1.058-.194,1.4-.462,2.777-.737,4.154a28.94,28.94,0,0,0,1.032-4.017l.093-.524c.033-.174.05-.355.075-.533l.07-.536c.023-.178.035-.362.053-.543s.033-.364.046-.546l.023-.555.012-.277c0-.093,0-.187,0-.281v-.562a16.106,16.106,0,0,0-.233-2.293l-.125-.577c-.048-.192-.1-.382-.156-.573s-.125-.378-.189-.566-.15-.37-.229-.552l-.131-.268-.065-.134c-.023-.044-.048-.086-.072-.13l-.146-.257c-.05-.085-.107-.164-.16-.246l-.081-.122c-.027-.041-.058-.078-.086-.117l-.175-.23c-.124-.144-.245-.291-.378-.42a4.826,4.826,0,0,0-.834-.677A3.158,3.158,0,0,0,1669.519,1643.228Z" transform="translate(-1625.967 -1642.349)" fill="#fff"/><path d="M1596.188,2054.146l-7.389,37.142s-2.747,4.539-2.817-1.231-1.108-31.63.862-40.311S1596.188,2054.146,1596.188,2054.146Z" transform="translate(-1552.88 -1993.996)" fill="#ffabae"/><path d="M1682.946,2020.727l3.7,42.131s-.408,3.455-2.557-1.321-7.985-22.913-9.224-33.183C1672.533,2009.043,1682.946,2020.727,1682.946,2020.727Z" transform="translate(-1630.326 -1968.249)" fill="#ffabae"/><g transform="translate(28.287 23.651)"><path d="M1560.328,1869.277a11.562,11.562,0,0,1-6.175-1.474c-2.7-1.7-3.769-4.834-3.188-9.308a239.974,239.974,0,0,1,4.393-24.985c1.985-8.048,3.989-12.2,5.955-12.339l.208-.015,0,.209c0,.052-.023,5.19,1.653,6.181a1.41,1.41,0,0,0,1.475-.121c2.831-1.59,2.866-6.753,2.866-6.8v-.152l.147-.036a9.113,9.113,0,0,1,9.025,3.916c.315.423.481,2.927.746,7.318.265,4.372.565,9.327,1.111,10.467a20.211,20.211,0,0,1,1.41,5.389c.322.639,5.483,10.875,6.8,13.957a1.317,1.317,0,0,1,.049,1.278c-.409.612-1.573.6-3.184.578-2.032-.024-4.815-.058-6.944,1.318h0C1574.279,1866.2,1566.679,1869.277,1560.328,1869.277Zm.808-47.687c-1.233.31-3.116,2.746-5.4,12.013a239.731,239.731,0,0,0-4.385,24.943c-.56,4.312.453,7.316,3.011,8.932,3.275,2.068,8.393,1.485,12.11.631a36.856,36.856,0,0,0,10-3.779l.1.162-.1-.162c2.227-1.438,5.077-1.4,7.158-1.379,1.377.017,2.566.031,2.859-.407.124-.186.1-.492-.083-.911-1.348-3.154-6.751-13.858-6.805-13.965l-.016-.031,0-.034a20.39,20.39,0,0,0-1.378-5.3c-.579-1.208-.882-6.2-1.148-10.611-.192-3.168-.409-6.759-.671-7.111a8.771,8.771,0,0,0-8.479-3.8c-.025.922-.289,5.425-3.061,6.982a1.782,1.782,0,0,1-1.861.117C1561.309,1826.893,1561.15,1822.639,1561.136,1821.59Z" transform="translate(-1550.812 -1820.304)"/></g><path d="M1581.613,1853.659c-4.448,2.873-27.654,11.28-25.415-5.971,2.248-17.321,6.066-36.865,10.171-37.157,0,0-.069,8.186,3.415,6.23,2.965-1.665,2.965-6.973,2.965-6.973s5.046-1.237,8.824,3.843c.656.883.814,15.616,1.838,17.753a20.439,20.439,0,0,1,1.4,5.362s5.444,10.78,6.81,13.976S1586.062,1850.786,1581.613,1853.659Z" transform="translate(-1527.087 -1787.374)" fill="#3c325c"/><path d="M1427.429,1856.531c-.716.8-1.48,1.294-.934.362.733-1.251-1.963.886-2.217.262-.087-.215,1.812-.832,1.96-1.035s-2.4,1.053-2.468.889c-.176-.442,1.935-1.089,2.408-1.406s-1.527.724-1.828.564c-.466-.248,1.675-.984,2.021-1.355s-.714.353-1.074.351c-.235,0,.474-.617.948-.849a4.718,4.718,0,0,1,1.057-.238c-.011-.005-.021-.012-.032-.016,2.7-2.709,10.311-14.674,10.311-14.674s2.553-6.277,6.285-9.4a11.7,11.7,0,0,1,5.7-2.224s-1.895,6.112-10.647,16.3c0,0-10.615,11.216-10.619,11.236l-.014-.01A4.925,4.925,0,0,1,1427.429,1856.531Z" transform="translate(-1411.812 -1803.155)" fill="#ffabae"/><path d="M1549.319,2397.94s1.147,1.893.888,2.647c-.207.6-6.49.654-9,.65-.253,0-.347-.262-.125-.348,1.882-.73,6.091-2.425,6.338-3.062Z" transform="translate(-1513.937 -2299.906)" fill="#9d1350"/><path d="M1580.022,1816.681a1.429,1.429,0,0,0-.6.258,2.659,2.659,0,0,0-.461.415,5.546,5.546,0,0,0-.693,1.025c-.2.362-.368.757-.534,1.143-.076.2-.158.4-.233.6l-.219.608c-.285.814-.537,1.655-.786,2.5s-.483,1.705-.732,2.562c-.48,1.725-.969,3.468-1.529,5.218-.273.877-.582,1.75-.907,2.629-.344.874-.313,2.9-.772,3.764-.1-.485-.522-2.106-.57-2.587s-.076-.959-.094-1.438a27.13,27.13,0,0,1,.055-2.857,28.6,28.6,0,0,1,.974-5.619,23.728,23.728,0,0,1,.949-2.726,16.146,16.146,0,0,1,1.355-2.6,9.151,9.151,0,0,1,1.984-2.246,4.432,4.432,0,0,1,1.346-.734,2.417,2.417,0,0,1,.756-.117A1.29,1.29,0,0,1,1580.022,1816.681Z" transform="translate(-1540.882 -1793.322)" fill="#ff2f58"/><path d="M1741.759,1644.209c-1.5.91,1.2-2.547.51-2.909-.238-.125-1.124,2.35-1.371,2.536s1.434-3.118,1.251-3.212c-.489-.251-1.431,2.5-1.838,3.111s.974-1.981.819-2.384c-.24-.625-1.286,2.164-1.744,2.6s.472-.925.5-1.4c.021-.309-.752.6-1.062,1.212-.292.58-.321,1.659-.614,1.971a.522.522,0,0,0-.159.3c-5.232,4.182-16.958,11.6-16.958,11.6s-6.483,3.325-9.971,6.331c-2.671,2.3-.9,6.151-.9,6.151s3.612.567,16.1-10.509c0,0,10.9-11.445,12.865-12.893.177-.009.818-.131,2.067-1.286C1742.24,1644.516,1742.878,1643.531,1741.759,1644.209Z" transform="translate(-1660.937 -1640.066)" fill="#ffabae"/><path d="M1712.2,1814.323a6.665,6.665,0,0,0,.166.793c.141.546.332,1.1.529,1.657s.411,1.114.626,1.674c.872,2.236,1.781,4.491,2.634,6.78q.643,1.716,1.241,3.462c.4,1.164.781,2.339,1.132,3.531s.679,2.4.972,3.626c.14.617.281,1.234.4,1.863s.231,1.261.3,1.915c-.428-.477-.819-.974-1.2-1.478s-.735-1.018-1.083-1.538q-1.039-1.562-1.936-3.2a51.628,51.628,0,0,1-3.115-6.813c-.439-1.177-.836-2.376-1.179-3.6a32.922,32.922,0,0,1-.838-3.758c-.1-.643-.181-1.3-.224-1.96a12.961,12.961,0,0,1,.013-2.042,6.623,6.623,0,0,1,.191-1.076,3.7,3.7,0,0,1,.2-.559,1.9,1.9,0,0,1,.376-.55,1.106,1.106,0,0,1,.627-.331,1.091,1.091,0,0,1,.6.089,1.7,1.7,0,0,1,.433.284C1712.489,1813.178,1712.16,1814.071,1712.2,1814.323Z" transform="translate(-1661.761 -1790.031)" fill="#ff2f58"/><path d="M1727.84,2372.292s1.388,1.477,1.374,2.295c-.011.654-4.971,2.718-6.96,3.518a.177.177,0,0,1-.188-.3c1.3-1.315,4.207-4.315,4.24-5.015Z" transform="translate(-1671.7 -2277.655)" fill="#9d1350"/><g transform="translate(33.372 7.274)"><path d="M1642.346,1710.217a3.687,3.687,0,0,0,.7-.122,1.669,1.669,0,0,0,.561-.281,2.4,2.4,0,0,0,.447-.479,1.335,1.335,0,0,0,.1-.149c.033-.051.068-.1.1-.154a3.162,3.162,0,0,1,.213-.333,2.5,2.5,0,0,1,.006.418c-.011.068-.025.136-.04.206a1.079,1.079,0,0,1-.058.2,1.568,1.568,0,0,1-.5.7,1.259,1.259,0,0,1-.8.263A1.181,1.181,0,0,1,1642.346,1710.217Z" transform="translate(-1635.66 -1706.675)" fill="#fff"/><path d="M1592.486,1697.51a2.283,2.283,0,1,1,2.132-2.278A2.211,2.211,0,0,1,1592.486,1697.51Zm0-4.459a2.187,2.187,0,1,0,2.042,2.182A2.118,2.118,0,0,0,1592.486,1693.05Z" transform="translate(-1590.354 -1692.954)"/><g transform="translate(5.085)"><path d="M1632.2,1697.51a2.278,2.278,0,1,1,2.309-2.278A2.3,2.3,0,0,1,1632.2,1697.51Zm0-4.459a2.182,2.182,0,1,0,2.212,2.182A2.2,2.2,0,0,0,1632.2,1693.05Z" transform="translate(-1629.895 -1692.954)"/></g><g transform="translate(9.645 1.234)"><path d="M1665.41,1703.593a.06.06,0,0,1-.056-.044.064.064,0,0,1,.038-.079c.342-.118,3.351-1.14,3.72-.878a.066.066,0,0,1,.016.088.057.057,0,0,1-.082.018c-.241-.172-2.347.456-3.618.892A.053.053,0,0,1,1665.41,1703.593Z" transform="translate(-1665.351 -1702.549)"/></g><g transform="translate(4.205 2.446)"><path d="M1623.48,1712.375a.4.4,0,0,1-.059,0,.555.555,0,0,1-.365-.3.066.066,0,0,1,.026-.085.058.058,0,0,1,.079.028.439.439,0,0,0,.277.234c.134.021.285-.063.448-.249a.056.056,0,0,1,.084,0,.067.067,0,0,1,0,.089A.7.7,0,0,1,1623.48,1712.375Z" transform="translate(-1623.05 -1711.976)"/></g><path d="M1601.857,1710.217a3.687,3.687,0,0,0,.7-.122,1.667,1.667,0,0,0,.561-.281,2.4,2.4,0,0,0,.447-.479,1.385,1.385,0,0,0,.1-.149c.033-.051.069-.1.105-.154a3.185,3.185,0,0,1,.213-.333,2.5,2.5,0,0,1,.006.418c-.012.068-.025.136-.04.206a1.107,1.107,0,0,1-.058.2,1.571,1.571,0,0,1-.5.7,1.26,1.26,0,0,1-.8.263A1.181,1.181,0,0,1,1601.857,1710.217Z" transform="translate(-1600.378 -1706.675)" fill="#fff"/></g><path d="M1631.18,1817.646l-2.184,4.2s-1.487-6.085.512-10.383c0,0-.277,5.892,2.541,5.665s3.855-6.509,3.855-6.509,1.326,7.36.007,10.589a30.546,30.546,0,0,0-2.661-3.583C1632.877,1817.49,1631.853,1818.258,1631.18,1817.646Z" transform="translate(-1590.192 -1788.216)" fill="#fff"/><path d="M1613.329,1745.933a3.633,3.633,0,0,0,.781.836,1.178,1.178,0,0,0,.8.238,2.5,2.5,0,0,0,.879-.268c.308-.144.622-.329.977-.483a3.285,3.285,0,0,1-.736,1.128,2.179,2.179,0,0,1-.5.373,1.436,1.436,0,0,1-.587.173,1.2,1.2,0,0,1-.618-.127,1.528,1.528,0,0,1-.523-.453A2.494,2.494,0,0,1,1613.329,1745.933Z" transform="translate(-1577.003 -1731.846)" fill="#fff"/></g><g transform="translate(9.015 32.596)"><path d="M1405.051,1906.168c-2.195,0-4.015-2.047-4.094-2.137l.29-.254c.019.021,1.9,2.137,4.005,2a3.87,3.87,0,0,0,2.9-1.98c.758-1.132,1.6-2.394,2.462-3.691,2.757-4.142,5.608-8.426,6.976-10.24l.308.232c-1.361,1.805-4.337,6.277-6.963,10.222-.863,1.3-1.7,2.56-2.462,3.692a4.229,4.229,0,0,1-3.2,2.15C1405.2,1906.166,1405.125,1906.168,1405.051,1906.168Z" transform="translate(-1400.957 -1889.864)"/></g></g></g></g></svg>