<svg id="Group_259" data-name="Group 259" xmlns="http://www.w3.org/2000/svg" width="291.445" height="75.152" viewBox="0 0 291.445 75.152">
  <g id="Group_257" data-name="Group 257" transform="translate(81.692 19.485)">
    <path id="Path_588" data-name="Path 588" d="M1346.844,599.224a13.75,13.75,0,0,0-13.942,13.941,14.052,14.052,0,0,0,14.369,14.262c6.143,0,11.538-3.953,13.034-8.653l-7.264-1.229a6.758,6.758,0,0,1-5.716,2.884c-3.579,0-6.089-1.87-6.2-4.7h19.657V613.7C1360.785,605.58,1354.963,599.224,1346.844,599.224Zm-5.715,10.9c.107-2.03,2.724-3.9,5.715-3.9,3.1,0,5.448,1.816,5.662,3.9Z" transform="translate(-1332.902 -592.493)" fill="#fff"/>
    <path id="Path_589" data-name="Path 589" d="M1398.85,607.84l-5.5-7.249h-9.455v.427l9.935,12.873-9.081,12.98v.427h9.294l4.807-6.856,4.808,6.856h9.348v-.534l-8.974-12.873,9.882-12.873v-.427h-9.561Z" transform="translate(-1356.011 -593.113)" fill="#fff"/>
    <path id="Path_590" data-name="Path 590" d="M1451.24,586.915h-1.656l-10.79,14v.747h4.113v3.9c0,10.416,8.012,15.918,17.093,15.918V613.3c-4.647-.054-8.867-2.35-8.867-7.745v-3.9H1460v-7.264h-8.76Z" transform="translate(-1380.891 -586.915)" fill="#fff"/>
    <path id="Path_591" data-name="Path 591" d="M1496.2,605.339h-.053V600.1l-8.119-.053v26.761h8.119v-7.371A12,12,0,0,1,1508.486,607l-2.564-7.478C1502.984,599.517,1498.017,601.493,1496.2,605.339Z" transform="translate(-1403.203 -592.626)" fill="#fff"/>
    <path id="Path_592" data-name="Path 592" d="M1548.226,599.783v2.566a11.362,11.362,0,0,0-8.215-3.264c-6.765,0-12.617,6.174-12.617,14.066,0,7.946,5.852,14.227,12.617,14.227a11.128,11.128,0,0,0,8.215-3.459v2.707h7.731V599.783Zm-6.121,20.187a6.792,6.792,0,0,1,0-13.583c3.7,0,6.121,3.006,6.121,6.765C1548.226,616.963,1545.81,619.969,1542.105,619.969Z" transform="translate(-1421.044 -592.43)" fill="#fff"/>
    <rect id="Rectangle_58" data-name="Rectangle 58" width="8.483" height="8.536" transform="translate(138.832 25.66)" fill="#fff"/>
    <path id="Path_593" data-name="Path 593" d="M1628.049,599.783v2.57a11.356,11.356,0,0,0-8.214-3.268c-6.765,0-12.617,6.174-12.617,14.066,0,7.945,5.852,14.227,12.617,14.227a11.086,11.086,0,0,0,7.731-2.991v2.078c0,2.846-2.684,5.261-6.281,5.261a6.6,6.6,0,0,1-5.637-2.9l-7.409,1.342c1.5,4.725,6.925,8.7,13.1,8.7a14.123,14.123,0,0,0,14.442-14.335v-24.75Zm-6.12,20.187a6.792,6.792,0,0,1,0-13.583c3.7,0,6.12,3.006,6.12,6.765C1628.049,616.963,1625.633,619.969,1621.928,619.969Z" transform="translate(-1457.219 -592.43)" fill="#fff"/>
    <path id="Path_594" data-name="Path 594" d="M1684.947,609.939c-.215-2.094-2.577-3.919-5.691-3.919-3.007,0-5.638,1.879-5.745,3.919Zm-11.436,5.637c.107,2.846,2.631,4.724,6.228,4.724a6.792,6.792,0,0,0,5.745-2.9l7.3,1.235c-1.5,4.724-6.925,8.7-13.1,8.7A14.123,14.123,0,0,1,1665.244,613a13.82,13.82,0,0,1,14.013-14.012c8.16,0,14.012,6.388,14.012,14.549v2.04Z" transform="translate(-1483.516 -592.386)" fill="#fff"/>
  </g>
  <g id="Group_258" data-name="Group 258">
    <path id="Path_595" data-name="Path 595" d="M1283.686,616.693l-9.084,6.6,9.83,30.254,9.084-6.6Z" transform="translate(-1224.789 -580.925)" fill="#0af"/>
    <path id="Path_596" data-name="Path 596" d="M1234.43,655.654l-16.651,12.1-9.084-6.6,25.736-18.7,25.736,18.7-9.084,6.6Z" transform="translate(-1194.92 -592.6)" fill="#7a1dff"/>
    <path id="Path_597" data-name="Path 597" d="M1189.851,594.568" transform="translate(-1186.381 -570.899)" fill="none" stroke="#0af" stroke-miterlimit="10" stroke-width="0.75"/>
    <path id="Path_598" data-name="Path 598" d="M1186.975,594.568l25.736,18.7-9.83,30.254-9.084-6.6,6.36-19.575-16.651-12.1Z" transform="translate(-1183.505 -570.899)" fill="#f72163"/>
    <path id="Path_599" data-name="Path 599" d="M1321.667,594.568" transform="translate(-1246.118 -570.899)" fill="none" stroke="#0af" stroke-miterlimit="10" stroke-width="0.75"/>
    <path id="Path_600" data-name="Path 600" d="M1209.99,570.857l6.361-19.575h11.229l-9.831,30.254h-31.811l3.47-10.679Z" transform="translate(-1184.608 -551.282)" fill="#fd5601"/>
    <path id="Path_601" data-name="Path 601" d="M1267.016,570.857l-6.361-19.575h-11.229l9.831,30.254h31.811l-3.47-10.679Z" transform="translate(-1213.38 -551.282)" fill="#ffc208"/>
    <path id="Path_602" data-name="Path 602" d="M1278.984,597.758l-3.47-10.679L1240.8,612.3l-14.574-10.589-3.469,10.679L1240.8,625.5Z" transform="translate(-1201.295 -567.505)" fill="#9de411"/>
  </g>
</svg>
