<svg xmlns="http://www.w3.org/2000/svg" xmlns:xlink="http://www.w3.org/1999/xlink" width="288.623" height="250.871" viewBox="0 0 288.623 250.871"><defs><style>.a{fill:#fd5601;}.b{fill:#23286b;}.c{fill:#a1c3fc;}.d{fill:url(#a);}.e{fill:url(#b);}.f{fill:#d6d7d8;}.g{fill:#151a4f;}.h{fill:#1d72d8;}.i{fill:#ffbeb6;}.j{fill:url(#c);}.k{fill:#f5b2aa;}.l{fill:url(#d);}.m{fill:url(#e);}.n{fill:url(#f);}.o{fill:#e94a47;}.p{fill:url(#g);}.q{fill:#428dfc;}.r{fill:#fff;}</style><linearGradient id="a" x1="25.347" y1="71.153" x2="31.657" y2="71.153" gradientUnits="objectBoundingBox"><stop offset="0" stop-color="#ea5350"/><stop offset="1" stop-color="#d62929"/></linearGradient><linearGradient id="b" x1="37.041" y1="59.343" x2="43.35" y2="59.343" xlink:href="#a"/><linearGradient id="c" x1="14.645" y1="37.865" x2="20.954" y2="37.865" gradientUnits="objectBoundingBox"><stop offset="0" stop-color="#428dfc"/><stop offset="1" stop-color="#1d72d8"/></linearGradient><linearGradient id="d" x1="51.349" y1="15.051" x2="57.659" y2="15.051" xlink:href="#c"/><linearGradient id="e" x1="22.318" y1="8.451" x2="28.628" y2="8.451" gradientUnits="objectBoundingBox"><stop offset="0" stop-color="#23286b"/><stop offset="1" stop-color="#151a4f"/></linearGradient><linearGradient id="f" x1="15.507" y1="12.094" x2="21.816" y2="12.094" xlink:href="#c"/><linearGradient id="g" x1="42.748" y1="35.846" x2="49.057" y2="35.846" xlink:href="#c"/></defs><g transform="translate(-274.336 -3244)"><g transform="translate(366.321 3370.907) rotate(180)"><g transform="translate(0.046 0.015)"><path class="a" d="M62.531,53.14a1.561,1.561,0,0,0,2.031-.511h0L76.749,30.642l12.525,8.521.846.511a6.251,6.251,0,0,0,1.862.851,6.033,6.033,0,0,0,7.277-4.26h0l8.8-34.251a1.437,1.437,0,0,0-.672-1.874,1.419,1.419,0,0,0-1.862.681L91.135,24,78.272,15.307l-.847-.511a4.958,4.958,0,0,0-2.2-.851,6.108,6.108,0,0,0-7.107,4.771L61.685,51.606a2.037,2.037,0,0,0,.846,1.534Z" transform="translate(-28.307 -0.015)"/><path class="a" d="M8.374,51.147a1.169,1.169,0,0,0,1.692.511,1.142,1.142,0,0,0,.677-1.194V36.152l5.416-2.215,1.016-.511a4.35,4.35,0,0,0,2.2-5.454L11.928,9.395a1.148,1.148,0,0,0-1.353-.681A.933.933,0,0,0,9.9,9.735L9.051,25.073,3.466,27.629l-1.016.511h0A4.311,4.311,0,0,0,.42,33.764h0Z" transform="translate(-0.046 -3.986)"/><path class="a" d="M113.772,116.018,113.264,115h0a4.146,4.146,0,0,0-5.755-1.364h0L91.43,123.517a1.725,1.725,0,0,0-.678,1.193,1.312,1.312,0,0,0,1.354,1.193l14.048-1.364,3.047,5.113.508.853a4.271,4.271,0,0,0,5.585,1.533l17.6-9.372a1.4,1.4,0,0,0,.677-1.023c0-.681-.508-1.023-1.185-1.023l-15.233.852Z" transform="translate(-41.634 -51.816)"/></g></g><g transform="translate(397.682 3244)"><g transform="translate(0 0)"><ellipse class="b" cx="4.33" cy="4.323" rx="4.33" ry="4.323" transform="translate(64.957 199.657)"/><ellipse class="b" cx="4.33" cy="4.323" rx="4.33" ry="4.323" transform="translate(98.069 236.529)"/><path class="c" d="M152.876,318.2h0a15.97,15.97,0,0,1-22.45-1.381L76.371,255.758a15.908,15.908,0,0,1,1.384-22.413h0a15.971,15.971,0,0,1,22.45,1.381l54.055,61.059A15.907,15.907,0,0,1,152.876,318.2Z" transform="translate(-22.502 -71.289)"/><path class="d" d="M140.327,262.841c-4.133-2.359-8.969-2.582-13.62-3.6-1.087-.237-16.614-2.653-21.387-6.518-.191,6.814-.212,9.617.061,16.429a1.45,1.45,0,0,0,.961,1.591,25.346,25.346,0,0,0,4.9,2.169,22.63,22.63,0,0,0,4.827.68,103.475,103.475,0,0,0,31.69-2.779C147.756,267.224,142.008,263.8,140.327,262.841Z" transform="translate(-32.688 -78.544)"/><path class="e" d="M151.682,330.282a58.437,58.437,0,0,0,10.553,5.34c3.734,1.292,6.235,1.916,10.036.838,1.317-.564,1.238-3.372.065-6.183-2.187-5.244-6.609-9.138-10.563-13.222a77.765,77.765,0,0,1-6.77-8.009c-2.51,1.573-5.747,1.037-8.651.445a6.139,6.139,0,0,1-3.394-1.461c-.458-.492-1.254.617-1.866.336-.317,4.755-.159,7.74-.477,12.5a2.03,2.03,0,0,0,.04.731,1.939,1.939,0,0,0,.412.658C143.937,325.662,147.848,328,151.682,330.282Z" transform="translate(-43.697 -95.692)"/><path class="f" d="M31.78,81.229l17.66,1.526L46.384,63.428,29.572,61.055Z" transform="translate(-9.191 -18.975)"/><g transform="translate(64.893 40.939)"><path class="g" d="M169.3,86.673a.276.276,0,0,1-.1-.021c-3.7-1.6-7.857-1.932-11.877-2.251l-.2-.017c-10.614-.841-22.888-2.045-34.227-5.708-12.293-3.971-22.213-10.5-28.687-18.868a.255.255,0,0,1,.4-.311c6.411,8.291,16.245,14.756,28.44,18.695,11.287,3.645,23.525,4.846,34.11,5.685l.2.016c4.062.321,8.26.654,12.04,2.291a.254.254,0,0,1-.1.488Z" transform="translate(-94.155 -59.399)"/></g><g transform="translate(46.358 10.927)"><path class="b" d="M78.179,21.948a4.35,4.35,0,0,1-2.254-.89c-.806-.528-2.191-1.229-3.66-1.971a38.244,38.244,0,0,1-4.9-2.744.255.255,0,1,1,.31-.4A38.1,38.1,0,0,0,72.5,18.633c1.48.749,2.878,1.456,3.708,2a3.023,3.023,0,0,0,2.46.728c.8-.271,1.144-1.131,1.509-2.04.126-.313.256-.638.406-.935A5.17,5.17,0,0,1,88.8,17.5a.255.255,0,0,1-.4.321,4.666,4.666,0,0,0-7.373.794c-.14.278-.261.579-.389.9-.393.977-.8,1.987-1.818,2.333A2,2,0,0,1,78.179,21.948Z" transform="translate(-67.262 -15.854)"/></g><path class="h" d="M130.545,96.362c-1.891,1.677-4.166,2.885-6.039,4.582a26.819,26.819,0,0,0-5.372,7.615,21.707,21.707,0,0,1-1.863,3.143,16.513,16.513,0,0,1-3.162,2.988,27.949,27.949,0,0,1-9.015,4.857,1.355,1.355,0,0,1-1.262-.072c-.362-.315-.3-.885-.179-1.35A32.223,32.223,0,0,1,106.8,110.8a64.908,64.908,0,0,1,8.055-12.222,28,28,0,0,1,11.9-8.328c1.112-.371,2.252-.651,3.37-1a8.175,8.175,0,0,1,2.1-.49,2.307,2.307,0,0,1,1.933.769,2.207,2.207,0,0,1,.248,1.991A5.883,5.883,0,0,1,133.34,93.3,22.716,22.716,0,0,1,130.545,96.362Z" transform="translate(-32.185 -27.584)"/><path class="i" d="M198.7,16.983a1.132,1.132,0,0,0-1.1-1.088,3.3,3.3,0,0,0-1.642.464l-8.691,4.212a46.667,46.667,0,0,0,4.1-17.991c-.45-2.078-.509-2.458-1.274-1.441-.3-2.006-.966-1.17-1.528,1.017-1.428,4.593-3.936,9.141-5.364,13.732-.941-1.268-.245-3.065.579-4.411s2.492-4.914,1.308-4.384a11.582,11.582,0,0,0-4.414,9.813c-1.195-1.444-3.317-6.105-3.467-4.356l2.657,9.051a129.127,129.127,0,0,1-16.81,3.664c3.216,2.232,5.638,2.431,9.549,2.234,2.321-.118,6.562-1.506,8.881-1.652,5.2-.328,9.6-3.423,13.873-6.4A26.427,26.427,0,0,0,198.7,16.983Z" transform="translate(-50.674 0)"/><path class="j" d="M133.561,34.227c6.382-.644,12.326-3.445,18.556-4.973a2.922,2.922,0,0,1,3.867,1.441,48.128,48.128,0,0,1,5.842,11.17c-7.41,2.621-15.425-1.2-23.278-1.565a52.781,52.781,0,0,0-10.746.973L113.876,43.5c-2.948.471-6.131,1.064-8.148,3.262a35.952,35.952,0,0,0-14.19-14.9c6.411-2.812,14.4-1.584,21.268-.217S126.594,34.929,133.561,34.227Z" transform="translate(-28.449 -9.024)"/><g transform="translate(40.654 15.428)"><path class="k" d="M59,29.48A3.383,3.383,0,0,0,60.589,31c1.264-.033,6.528,2.251,7.314,3.031a39.463,39.463,0,0,0,4,3.513c2.968.138,2.892.392,6.713-.794A8.553,8.553,0,0,0,81,34.8c-.828-.964-4.605-4.489-5.571-5.247-3.563-2.528-5.93-5.238-9.04-7.164C66.316,22.384,58.588,28.516,59,29.48Z" transform="translate(-58.986 -22.385)"/></g><g transform="translate(42.288 34.611)"><path class="l" d="M63.563,50.228c-4.884.933-.306,10.224.868,16.355,2.553,13.5.83,14.839,3.887,30.266.265,1.338,3.009,10.727,6.113,10.511,1.672,1.936,4.955,1.242,4.817-1.858-.069-1.654-2.068-8.186-1.93-9.839.482-4.547-.6-8.826-.811-13.234-.552-9.645-.541-15.3-5.3-22.875C71.2,59.413,65.49,49.86,63.563,50.228Z" transform="translate(-61.357 -50.217)"/></g><g transform="translate(72.407 88.95)"><path class="g" d="M113.549,129.112a3.307,3.307,0,0,0-.621.758v1.309c1.312,9.714,7.1,18.558,9.014,25.749a89.466,89.466,0,0,1,1.681,10.486c-.482,2.067-1.035,4.065-1.518,6.131a20.959,20.959,0,0,1-2.622,5.924c-4.072,6.062-1.983,13.982-6.417,18.807a35.29,35.29,0,0,0-8.008,19,55,55,0,0,0,21.394,4.082,34.815,34.815,0,0,0,4.83-5.648q15.94-24.284,16.078-52.149c-1.312-.964-16.975-12.882-19.114-16.465a32.328,32.328,0,0,1-4.072-11.5C123.279,130.008,113.895,128.768,113.549,129.112Z" transform="translate(-105.057 -129.059)"/></g><path class="m" d="M122.723,87.353c-1.709.643-20.7,6.269-19.39,9.438a39.442,39.442,0,0,1,2.553,8.267c2.07,10.54,7.8,18.256,17.113,23.216.414,3.721,1.035,7.509,1.794,11.16.759,3.858,1.656,7.716,2.691,11.5a26.281,26.281,0,0,0,6.762,12.263,12.55,12.55,0,0,1-.759,6.544,39.2,39.2,0,0,0-.828,28.52,4.245,4.245,0,0,1-.138,3.445c-5.451,11.642-6.295,17.7-2.805,30.4,1.409,5.126-1.493,9.229-.113,10.675.69.206,15.933,1.121,16.209.225.552-1.516,1.2-8.163,1.338-9.335q.207-2.066.414-4.133c.552-4.823,1.035-9.645,1.518-14.467a281.311,281.311,0,0,0,.759-42.436c.276-3.721.828-11.3.9-11.436.207-3.858.445-5.312.566-8.977a80.05,80.05,0,0,0-.635-8.934,41.4,41.4,0,0,0-2.9-12.193c-4.761-12.125-9.385-24.25-13.732-36.443C131.9,88.8,128.174,86.319,122.723,87.353Z" transform="translate(-32.094 -27.077)"/><path class="n" d="M85.742,32.027c-3.655.274-3.736.508-7.1,2.446a2.2,2.2,0,0,1,.222,3.657c-2.122,1.95-7.651,1.419-8.066,1.7-3.4,1.78-7.3,3.475-8.491,5.594-.121.216-.878,11.526,7.472,18.14,1.932,1.584,3.343,5.634,5.551,6.943q1.346,1.757,2.9,3.513a12.443,12.443,0,0,1,2.553,3.651,91.692,91.692,0,0,1,6.21,16.878A24.786,24.786,0,0,0,89.96,101.3a1.182,1.182,0,0,0,1.863.482c1.794-1.24,3.657-2.411,5.451-3.651A7.68,7.68,0,0,0,101,89.86a8.745,8.745,0,0,1,1.725-6.683A49.467,49.467,0,0,1,113.56,72.912c2.5-1.253,7.936.069,8.143-.069.138-.551-5.52-9.851-8.073-13.985a54.182,54.182,0,0,0-4.486-5.994,76.974,76.974,0,0,0-8.832-8.887C97,38.262,89.138,31.773,85.742,32.027Z" transform="translate(-19.342 -9.951)"/><g transform="translate(21.229 34.197)"><path class="o" d="M61.538,49.617c-3.864,2.825-8.573,6.28-12.438,9.036-1.062.373-2.723.643-2.93.712C40.029,60.123,30.8,59.2,30.8,59.2s3.876,22.053,3.738,22.329c.414,0,3.086-1.174,4.21-1.171,5.086.012,7.711-.592,11.921.372a11.439,11.439,0,0,0,3.566-.678c3.99-2.967,9.148-6.79,12.943-8.995C66.076,67.746,62.091,49.548,61.538,49.617Z" transform="translate(-30.802 -49.617)"/></g><g transform="translate(30.855 4.957)"><path class="i" d="M59.551,9.878a12.877,12.877,0,0,0-7.384-2.687,3.988,3.988,0,0,0-.966.344l-.069-.069a4.455,4.455,0,0,0-.9.275,7.371,7.371,0,0,0-.759.62,3.844,3.844,0,0,0-1.035.689C46.1,10.98,44.991,13.185,45.06,15.6a2.24,2.24,0,0,0-.276.964,6.827,6.827,0,0,0,2.278,5.58,19.261,19.261,0,0,0,2,1.516,12.008,12.008,0,0,0,9.868,3.927,3.758,3.758,0,0,0,2.76-1.171c3.1-3.169,3.727-6.888,1.932-11.16a22.774,22.774,0,0,0-1.586-2.825A9.739,9.739,0,0,0,59.551,9.878Z" transform="translate(-44.768 -7.192)"/></g><g transform="translate(34.204 13.107)"><g transform="translate(0 6.476)"><path class="o" d="M53.057,34.777a3.266,3.266,0,0,1-2.388-.969,2.911,2.911,0,0,1-1.041-2.247,3.153,3.153,0,0,1,1.041-2.247,3.532,3.532,0,0,1,2.388-.9,3.617,3.617,0,0,1,2.515.891,3.1,3.1,0,0,1,.983,2.257,2.855,2.855,0,0,1-.983,2.257A3.382,3.382,0,0,1,53.057,34.777Zm0-5.856a3.025,3.025,0,0,0-2.039.763,2.654,2.654,0,0,0-.881,1.877,2.436,2.436,0,0,0,.881,1.877,2.783,2.783,0,0,0,2.039.831,2.871,2.871,0,0,0,2.166-.821,2.381,2.381,0,0,0,.823-1.887,2.567,2.567,0,0,0-.823-1.887A3.128,3.128,0,0,0,53.057,28.921Z" transform="translate(-49.628 -28.413)"/></g><g transform="translate(6.142)"><path class="o" d="M62.037,25.381a3.3,3.3,0,0,1-2.457-.969,2.91,2.91,0,0,1-1.041-2.247,3.151,3.151,0,0,1,1.041-2.247,3.8,3.8,0,0,1,4.9-.011,3.105,3.105,0,0,1,.983,2.257,2.852,2.852,0,0,1-.983,2.257A3.292,3.292,0,0,1,62.037,25.381Zm0-5.855a3.039,3.039,0,0,0-2.108.763,2.654,2.654,0,0,0-.881,1.877,2.436,2.436,0,0,0,.881,1.877,3.091,3.091,0,0,0,4.206.01,2.381,2.381,0,0,0,.822-1.887,2.569,2.569,0,0,0-.822-1.887A3.027,3.027,0,0,0,62.037,19.526Z" transform="translate(-58.539 -19.017)"/></g></g><path class="i" d="M52.957,83.57c.372-4.922-.361-12.722,1.083-13.189,1.488-.481,1.1,3.039.786,5.234a13.909,13.909,0,0,0,.509,7.311.912.912,0,0,0,.433.481c.287.128.833.88,1.326,1.074a8.645,8.645,0,0,0,4.1.479,37.937,37.937,0,0,0-.855,12.227c-2.417-1.67-4.356-3.927-6.536-5.9s-3.057-3.567-5.983-3.849c-1.347-.129-1.4,0-2.356-.572,2.293-2.034,4.891-.849,8.151,1.224C52.765,86.792,52.84,85.118,52.957,83.57Z" transform="translate(-14.129 -21.86)"/><path class="i" d="M62.209,74.913c.336-.273.781.027.892.445a8.3,8.3,0,0,1,.488,3.04c.072,1.891,0,4.019,1.32,5.379a23.292,23.292,0,0,1,1.786-8.088c.82.21.788,1.376.568,2.193-1.229,4.556-.831,5.508-2.06,10.064-.251-.025-2.136,3.659-2.33,3.82a9.039,9.039,0,0,1-1.935-4.85c-.117-1.385-.613-1.4-.511-2.784.181-2.476.73-6.353.246-8.788a5.041,5.041,0,0,1-.089-2.649c.183-.517.026-1.355.544-1.538C62.018,70.844,62.349,75.852,62.209,74.913Z" transform="translate(-18.776 -22.11)"/><path class="o" d="M44.017,64.377a59.107,59.107,0,0,1-13.233-.435A91.937,91.937,0,0,1,35.021,85.91a108.364,108.364,0,0,1,12.7-1.292A155.058,155.058,0,0,0,44.017,64.377Z" transform="translate(-9.567 -19.872)"/><path class="p" d="M56.659,100.836s6.1-.579,8.8-1.979a1.676,1.676,0,0,0-.122,1.718c1.314,3.869,4.8,6.521,7.271,9.773a42.228,42.228,0,0,1,3.186,5.141,14.29,14.29,0,0,1,1.887,4.584,4.838,4.838,0,0,1-1.452,4.529,5.4,5.4,0,0,1-4.668.652,13.933,13.933,0,0,1-7.991-6.278,41.269,41.269,0,0,1-4.048-9.55l-2.789-8.505C57.858,102.979,56.659,100.836,56.659,100.836Z" transform="translate(-17.609 -30.723)"/><path class="b" d="M29.564,3.139A18.226,18.226,0,0,0,24.63,6.763c-1.576,1.632-2.838,3.551-4.475,5.122A15.344,15.344,0,0,1,8.6,16.06c-2.971-.212-6.417-1.157-8.6.87,1.745.2,2.845,2.064,3.053,3.807S2.861,24.245,2.988,26A8.922,8.922,0,0,0,6.932,32.7c-.487-2.47,1.424-4.834,3.629-6.052s4.752-1.693,7.009-2.814c4.955-2.46,7.844-7.609,11.355-11.88s8.99-8.088,14.235-6.326a8.282,8.282,0,0,0-6.207-3.965A13,13,0,0,0,29.564,3.139Z" transform="translate(0 -0.491)"/><path class="b" d="M49.1,7.348c-2.284-1.063-5.042.181-6.794,1.989-3.756,3.875-4.4,9.682-5.4,14.982S33.8,35.478,28.8,37.528c-1.876.77-4.241,1.1-5.173,2.9A6.334,6.334,0,0,0,19.5,36.209a18.748,18.748,0,0,0-6.073-.832,5.373,5.373,0,0,1,1.113-5.58c1.826-1.884,4.736-2.151,7-3.471,3.718-2.163,5.16-6.736,6.084-10.931s1.815-8.764,5.029-11.62C35.095,1.6,38.5.826,41.768.774a9.467,9.467,0,0,1,5.7,1.366C49.085,3.294,50.019,5.588,49.1,7.348Z" transform="translate(-4.063 -0.239)"/><g transform="translate(23.784 6.186)"><path class="b" d="M34.764,43.946a.254.254,0,0,1-.1-.486A20.283,20.283,0,0,0,45.838,29.947a40.624,40.624,0,0,0,.776-5.354,30.461,30.461,0,0,1,1.292-7.133,15.562,15.562,0,0,1,7.248-8.454.254.254,0,1,1,.241.448,15.049,15.049,0,0,0-7.008,8.175,30.115,30.115,0,0,0-1.265,7.015,40.939,40.939,0,0,1-.788,5.422A20.8,20.8,0,0,1,34.869,43.923.259.259,0,0,1,34.764,43.946Z" transform="translate(-34.509 -8.975)"/></g><g transform="translate(45.184 31.611)"><path class="g" d="M146.908,95.935c-11.1,0-20.791-7.23-24.91-10.815a139.314,139.314,0,0,1-11.919-12.234A135.648,135.648,0,0,0,97.92,60.45,68,68,0,0,0,74.8,47.443c-2.531-.823-5.3-1.5-7.407-.741-.513.183-1.678.905-1.772.8a.254.254,0,0,1,.023-.359c2.356-2.064,6.03-1.25,9.314-.182a68.517,68.517,0,0,1,23.293,13.1,136.274,136.274,0,0,1,12.206,12.482,138.73,138.73,0,0,0,11.875,12.19c4.882,4.249,17.681,13.687,31.248,9.75l1.061-1.995a.254.254,0,0,1,.449.238l-1.162,2.184-.1.031A24.357,24.357,0,0,1,146.908,95.935Z" transform="translate(-65.559 -45.866)"/></g><path class="h" d="M215.553,143.808c4.914-1.789,6.532-8.017,6.1-13.22-1.187-14.13-12.029-25.9-24.534-32.625a22.724,22.724,0,0,1-6.578,13.013q4.532,10.2,9.062,20.4c1.514,3.408,3.086,6.9,5.747,9.519S212.044,145.085,215.553,143.808Z" transform="translate(-59.217 -30.445)"/><path class="q" d="M196.8,115.762c-1.9-1.89-5.388-6.835-7.087-4.293,1.877-4.77,6.059-9.676,6.792-14.749,11.875,3.913,25.08,7.792,27.678,20,.4,1.866-1.532,4.535-3.241,5.389a11.343,11.343,0,0,1-5.776.787,33.719,33.719,0,0,1-11.687-2.664A22.364,22.364,0,0,1,196.8,115.762Z" transform="translate(-58.962 -30.059)"/><rect class="o" width="3.906" height="3.9" transform="translate(157.585 84.292)"/><rect class="b" width="3.906" height="3.9" transform="translate(155.718 96.33)"/><g transform="translate(39.317 18.085)"><path class="o" d="M57.344,28.706h-.051a.254.254,0,0,1-.247-.261.266.266,0,0,1,.262-.247,1.477,1.477,0,0,0,1.139-.51,1.518,1.518,0,0,0,.434-1.168.254.254,0,0,1,.229-.277.25.25,0,0,1,.278.229,2.123,2.123,0,0,1-2.044,2.235Z" transform="translate(-57.046 -26.24)"/></g><path class="r" d="M125.863,113.217a.172.172,0,0,0,.108.229h0a.172.172,0,0,0,.229-.108h0a.172.172,0,0,0-.108-.229h0a.171.171,0,0,0-.229.108Zm-2.694,17.344a.179.179,0,1,0,.144.327h0a.171.171,0,0,0,.092-.235c0-.133-.137-.128-.236-.091Zm3.978-2.068a.179.179,0,1,0,.144.327h0a.171.171,0,0,0,.092-.235h0c0-.066-.137-.128-.236-.091ZM122.524,121a.2.2,0,0,0,.4-.014c-.036-.1-.106-.162-.171-.159C122.583,120.8,122.52,120.866,122.524,121Zm4.506-.361a.2.2,0,0,0,.4-.014c-.036-.1-.106-.162-.171-.159-.168-.028-.264.075-.227.173Zm3.22,15.538a.188.188,0,0,0,.275.255h0a.2.2,0,0,0-.009-.265h0A.2.2,0,0,0,130.249,136.175Zm2.932-3.422a.188.188,0,1,0,.265-.009h0a.2.2,0,0,0-.265.009ZM122.3,116.629c0,.066.073.2.171.159.066,0,.2-.073.16-.171,0-.066-.073-.2-.171-.159h0c-.1-.031-.164.038-.16.171Zm4.02.02c0,.066.073.2.171.159a.165.165,0,1,0-.012-.331h0c-.1.036-.162.1-.16.171Zm2.255,15.474c-.064.069-.094.169-.025.233a.2.2,0,0,0,.233.025h0c.064-.069.094-.169.025-.233h0a.163.163,0,0,0-.233-.025Zm2.856-2.79c-.064.069-.094.169-.025.233a.2.2,0,0,0,.233.025h0c.064-.069.094-.169.025-.233h0c-.069-.064-.169-.094-.233-.025Zm-5.746-5.465a.179.179,0,1,0,.236.091.171.171,0,0,0-.236-.091Zm-7.063-5.151a.179.179,0,1,0,.236.091.171.171,0,0,0-.236-.091ZM122.911,117a.179.179,0,1,0,.236.091.171.171,0,0,0-.236-.091Zm4.287-1.78a.179.179,0,1,0,.236.091A.363.363,0,0,0,127.2,115.224Zm4.983,17.432a.179.179,0,1,0,.229-.108c-.069-.064-.2.007-.229.108Zm-3.984-23.8a.176.176,0,0,0-.192.206m-2.669,16.215a.188.188,0,1,0,.265-.009h0a.2.2,0,0,0-.265.009Zm-2.716-1.627a.188.188,0,0,0,.275.255.171.171,0,0,0-.009-.265.2.2,0,0,0-.265.009Zm3.409-3.108a.2.2,0,0,0,.009.265.172.172,0,0,0,.265-.009.309.309,0,0,0,.022-.3.313.313,0,0,0-.3.043Zm-1.816-7.96a.171.171,0,0,0-.092.235h0c.036.1.137.128.27.123.1-.036.128-.137.123-.269a.282.282,0,0,0-.3-.089Zm1.781.565a.148.148,0,1,0,.2.059h0c-.068-.064-.169-.093-.2-.059Z" transform="translate(-36.833 -33.83)"/></g></g></g></svg>