<svg xmlns="http://www.w3.org/2000/svg" width="45.924" height="46.144" viewBox="0 0 45.924 46.144">
  <path id="profile" d="M171.634,123.625a13.844,13.844,0,1,0-17.343,0,21.976,21.976,0,0,0-14.279,18.961,2.328,2.328,0,0,0,2.3,2.559,2.281,2.281,0,0,0,2.28-2.056c.923-10.3,8.809-16.4,18.365-16.4s17.443,6.1,18.368,16.4a2.278,2.278,0,0,0,2.28,2.056,2.329,2.329,0,0,0,2.3-2.559A21.979,21.979,0,0,0,171.634,123.625Zm-8.673-1.553a9.229,9.229,0,1,1,9.229-9.229A9.24,9.24,0,0,1,162.961,122.072Z" transform="translate(-140 -99)" fill="#fff"/>
</svg>
